<svg width="180" height="105" viewBox="0 0 180 105" fill="none" xmlns="http://www.w3.org/2000/svg">
<path d="M155.657 102.42L158.985 79.6362H140.041L166.409 2.32422H179.209L168.969 72.7242H176.137L175.369 79.6362H167.945L164.617 102.42H155.657ZM149.513 72.7242H160.009L168.969 15.3802H168.201L149.513 72.7242Z" fill="white"/>
<path d="M89.1643 104.468C56.9083 104.468 39.7563 81.1722 41.1643 52.5002C42.7003 23.8282 61.2603 0.532227 93.3883 0.532227C125.388 0.532227 142.54 23.8282 141.132 52.5002C139.596 81.1722 121.036 104.468 89.1643 104.468ZM50.8923 52.5002C49.7403 76.9482 63.1803 96.5322 89.6763 96.5322C115.788 96.5322 130.124 76.9482 131.404 52.5002C132.556 28.0522 119.116 8.46823 92.8763 8.46823C66.5083 8.46823 52.1723 28.0522 50.8923 52.5002Z" fill="white"/>
<path fill-rule="evenodd" clip-rule="evenodd" d="M125.158 50.2195C125.158 70.1945 111.663 86.4734 90.5748 86.4746C70.5846 86.4734 58.2906 72.1941 58.2906 54.0152C58.2906 53.979 58.2905 53.9362 58.2904 53.8872C58.2839 51.1919 58.2316 29.5124 72.7357 23.9473C81.6292 20.5337 90.6369 25.2324 92.8317 26.453C94.1576 25.7385 104.963 20.1467 114.422 25.158C125.054 30.7945 125.158 45.1437 125.158 50.2195Z" fill="#262626"/>
<path d="M90.5748 86.4746L90.5748 86.705H90.5748L90.5748 86.4746ZM58.2904 53.8872L58.5208 53.8866L58.2904 53.8872ZM72.7357 23.9473L72.8182 24.1624L72.8183 24.1624L72.7357 23.9473ZM92.8317 26.453L92.7197 26.6543L92.83 26.7156L92.941 26.6558L92.8317 26.453ZM114.422 25.158L114.53 24.9544L114.53 24.9544L114.422 25.158ZM90.5748 86.705C111.809 86.7037 125.389 70.3021 125.389 50.2195H124.928C124.928 70.0869 111.517 86.243 90.5748 86.2442L90.5748 86.705ZM58.0602 54.0152C58.0602 63.1567 61.1518 71.3304 66.7696 77.2206C72.389 83.1123 80.5221 86.7044 90.5748 86.705L90.5748 86.2442C80.6373 86.2436 72.6283 82.6955 67.1031 76.9025C61.5764 71.108 58.521 63.0526 58.521 54.0152H58.0602ZM58.06 53.8877C58.0601 53.9369 58.0602 53.9793 58.0602 54.0152H58.521C58.521 53.9786 58.5209 53.9356 58.5208 53.8866L58.06 53.8877ZM72.6532 23.7322C65.2993 26.5538 61.6561 33.453 59.8497 39.9315C58.0416 46.4158 58.0567 52.5359 58.06 53.8877L58.5208 53.8866C58.5175 52.5432 58.5033 46.4758 60.2935 40.0553C62.0854 33.629 65.668 26.9059 72.8182 24.1624L72.6532 23.7322ZM92.9437 26.2516C91.8386 25.637 89.0175 24.1463 85.3511 23.2387C81.6851 22.3312 77.1583 22.003 72.6531 23.7322L72.8183 24.1624C77.2066 22.478 81.6305 22.7923 85.2404 23.6859C88.8498 24.5794 91.6301 26.0483 92.7197 26.6543L92.9437 26.2516ZM114.53 24.9544C109.735 22.4141 104.608 22.5658 100.529 23.4329C96.4491 24.3002 93.3944 25.888 92.7224 26.2501L92.941 26.6558C93.5948 26.3034 96.6057 24.738 100.625 23.8837C104.645 23.029 109.65 22.8905 114.315 25.3616L114.53 24.9544ZM125.389 50.2195C125.389 47.6804 125.363 42.7968 123.999 37.8379C122.635 32.8784 119.923 27.8137 114.53 24.9544L114.314 25.3615C119.553 28.1387 122.209 33.0669 123.555 37.9601C124.901 42.8539 124.928 47.6828 124.928 50.2195H125.389Z" fill="#161616"/>
<path d="M67.998 66.052C67.998 66.8508 78.2521 71.9961 91.143 71.9961C104.034 71.9961 114.675 66.8508 114.675 66.052C114.675 65.2531 104.029 69.1034 91.143 69.1034C78.2521 69.1034 67.998 65.2531 67.998 66.052Z" fill="#161616"/>
<path d="M91.0879 67.635C95.6129 67.635 99.2812 65.1914 99.2812 62.1771C99.2812 59.1628 95.6129 56.7192 91.0879 56.7192C86.5628 56.7192 82.8945 59.1628 82.8945 62.1771C82.8945 65.1914 86.5628 67.635 91.0879 67.635Z" fill="#161616"/>
<path opacity="0.2" d="M88.928 64.1221C88.7691 64.4793 88.0789 64.653 87.3936 64.5091C86.7084 64.3652 86.2813 63.9633 86.4452 63.6061C86.609 63.2488 87.2943 63.0751 87.9796 63.219C88.6648 63.3629 89.0919 63.7648 88.928 64.1221Z" fill="white"/>
<path opacity="0.2" d="M93.4032 64.1221C93.5621 64.4793 94.2523 64.653 94.9376 64.5091C95.6228 64.3652 96.0499 63.9633 95.886 63.6061C95.7222 63.2488 95.0369 63.0751 94.3516 63.219C93.6664 63.3629 93.2393 63.7648 93.4032 64.1221Z" fill="white"/>
<path opacity="0.2" d="M75.0247 54.2831C78.1045 54.2831 80.6011 51.7885 80.6011 48.7111C80.6011 45.6338 78.1045 43.1392 75.0247 43.1392C71.9449 43.1392 69.4482 45.6338 69.4482 48.7111C69.4482 51.7885 71.9449 54.2831 75.0247 54.2831Z" fill="white" stroke="#161616" stroke-width="0.46079" stroke-miterlimit="10"/>
<path d="M75.025 52.6658C77.2108 52.6658 78.9826 50.8953 78.9826 48.7113C78.9826 46.5273 77.2108 44.7568 75.025 44.7568C72.8393 44.7568 71.0674 46.5273 71.0674 48.7113C71.0674 50.8953 72.8393 52.6658 75.025 52.6658Z" fill="#161616" stroke="#161616" stroke-width="0.46079" stroke-miterlimit="10"/>
<path opacity="0.3" d="M72.8646 48.8899C73.361 48.8899 73.7634 48.4878 73.7634 47.9918C73.7634 47.4958 73.361 47.0938 72.8646 47.0938C72.3682 47.0938 71.9658 47.4958 71.9658 47.9918C71.9658 48.4878 72.3682 48.8899 72.8646 48.8899Z" fill="white"/>
<path opacity="0.2" d="M107.797 54.2831C110.877 54.2831 113.374 51.7885 113.374 48.7111C113.374 45.6338 110.877 43.1392 107.797 43.1392C104.717 43.1392 102.221 45.6338 102.221 48.7111C102.221 51.7885 104.717 54.2831 107.797 54.2831Z" fill="white" stroke="#101010" stroke-width="0.46079" stroke-miterlimit="10"/>
<path d="M107.798 52.6658C109.984 52.6658 111.756 50.8953 111.756 48.7113C111.756 46.5273 109.984 44.7568 107.798 44.7568C105.613 44.7568 103.841 46.5273 103.841 48.7113C103.841 50.8953 105.613 52.6658 107.798 52.6658Z" fill="#161616" stroke="#161616" stroke-width="0.46079" stroke-miterlimit="10"/>
<path opacity="0.3" d="M105.638 48.8899C106.134 48.8899 106.537 48.4878 106.537 47.9918C106.537 47.4958 106.134 47.0938 105.638 47.0938C105.142 47.0938 104.739 47.4958 104.739 47.9918C104.739 48.4878 105.142 48.8899 105.638 48.8899Z" fill="white"/>
<path d="M16.407 102.42L19.735 79.6362H0.791016L27.159 2.32422H39.959L29.719 72.7242H36.887L36.119 79.6362H28.695L25.367 102.42H16.407ZM10.263 72.7242H20.759L29.719 15.3802H28.951L10.263 72.7242Z" fill="white"/>
</svg>
