<svg width="40" height="41" viewBox="0 0 40 41" fill="none" xmlns="http://www.w3.org/2000/svg">
<path d="M16.5879 5.40661C16.7289 4.97204 17.1337 4.67773 17.5906 4.67773H28.3449C29.1161 4.67773 29.6262 5.47871 29.3001 6.17753L23.3215 18.9887C22.9954 19.6876 23.5055 20.4885 24.2767 20.4885H27.7798C28.6683 20.4885 29.1582 21.5204 28.5966 22.2089L17.2005 36.1782C16.4638 37.0813 15.0228 36.2975 15.3806 35.1883L18.488 25.5554C18.7076 24.8748 18.2 24.1777 17.4849 24.1777H11.95C11.2341 24.1777 10.7265 23.4794 10.9473 22.7985L16.5879 5.40661Z" fill="url(#paint0_linear_2164_6621)"/>
<defs>
<linearGradient id="paint0_linear_2164_6621" x1="20.25" y1="4.67773" x2="20.25" y2="40.5156" gradientUnits="userSpaceOnUse">
<stop stop-color="#F8D918"/>
<stop offset="1" stop-color="#EA860D"/>
</linearGradient>
</defs>
</svg>
