<svg width="56" height="56" viewBox="0 0 56 56" fill="none" xmlns="http://www.w3.org/2000/svg">
<g clip-path="url(#clip0_281_616)">
<rect width="56" height="56" rx="28" fill="#C8FF30"/>
<mask id="mask0_281_616" style="mask-type:alpha" maskUnits="userSpaceOnUse" x="0" y="0" width="56" height="56">
<rect width="56" height="56" rx="28" fill="#C8FF30"/>
</mask>
<g mask="url(#mask0_281_616)">
</g>
<g clip-path="url(#clip1_281_616)">
<path d="M27.7946 46.7697C38.5565 46.7697 47.2807 38.1614 47.2807 27.5426C47.2807 16.9237 38.5565 8.31543 27.7946 8.31543C17.0327 8.31543 8.30847 16.9237 8.30847 27.5426C8.30847 38.1614 17.0327 46.7697 27.7946 46.7697Z" fill="#C7B299" stroke="#161616" stroke-width="0.23431" stroke-miterlimit="10"/>
<path d="M6.09204 29.229C6.09204 16.6823 15.1113 6.32617 28.9345 6.32617C41.8484 6.32617 49.9079 15.4014 49.9079 26.7733C49.9079 39.3173 40.8887 49.6761 27.1742 49.6761C14.2046 49.6735 6.09204 40.5982 6.09204 29.229ZM27.3862 46.3637C38.6458 46.3637 45.8517 37.6624 45.8517 26.9854C45.8517 24.2724 45.796 16.6028 40.1198 13.5901C35.0693 10.9115 29.3004 13.9003 28.5925 14.2822C27.4207 13.6298 22.6115 11.1184 17.8632 12.943C9.97866 15.9716 10.151 27.9295 10.151 29.0142C10.151 38.7312 16.7153 46.3637 27.3889 46.3637H27.3862Z" fill="#161616"/>
<path d="M15.334 35.448C15.334 35.8749 20.8087 38.6251 27.6911 38.6251C34.5735 38.6251 40.255 35.8749 40.255 35.448C40.255 35.021 34.5709 37.079 27.6911 37.079C20.8087 37.079 15.334 35.021 15.334 35.448Z" fill="#161616"/>
<path d="M37.1399 33.4297C42.1029 36.0552 47.3787 35.8218 48.9217 32.9046C50.4647 29.9874 47.6915 25.4922 42.7285 22.8667C37.7656 20.2412 32.7787 17.857 30.9467 23.3918C28.9557 29.4172 32.1769 30.8042 37.1399 33.4297ZM36.7661 26.8156C35.3026 26.8156 34.0831 26.0359 34.0407 25.0811C33.9982 24.1264 34.6716 24.5057 36.1351 24.5083C37.5985 24.511 39.2979 24.1344 39.3403 25.0917C39.3828 26.0465 38.2295 26.8182 36.7661 26.8156Z" fill="#161616"/>
<path d="M24.6237 23.3917C22.7944 17.8569 17.8076 20.2385 12.8419 22.8666C7.87892 25.4921 5.10579 29.9873 6.64877 32.9045C8.19176 35.8217 13.4649 36.0578 18.4306 33.4296C23.3936 30.8041 26.6174 29.4171 24.6237 23.3917ZM16.2275 25.0916C16.2699 24.1369 17.9693 24.5135 19.4327 24.5082C20.8962 24.5056 21.5696 24.1263 21.5271 25.081C21.4847 26.0358 20.2652 26.8128 18.8017 26.8155C17.3383 26.8181 16.185 26.0464 16.2275 25.0916Z" fill="#161616"/>
<path d="M27.662 36.2939C30.078 36.2939 32.0365 34.9878 32.0365 33.3767C32.0365 31.7656 30.078 30.4595 27.662 30.4595C25.2461 30.4595 23.2876 31.7656 23.2876 33.3767C23.2876 34.9878 25.2461 36.2939 27.662 36.2939Z" fill="#161616"/>
<path d="M26.5087 34.4164C26.4239 34.6074 26.0554 34.7002 25.6895 34.6233C25.3236 34.5464 25.0956 34.3316 25.1831 34.1406C25.2706 33.9497 25.6365 33.8569 26.0023 33.9338C26.3682 34.0107 26.5962 34.2255 26.5087 34.4164Z" fill="white"/>
<path d="M28.8974 34.4164C28.9822 34.6074 29.3507 34.7002 29.7166 34.6233C30.0824 34.5464 30.3104 34.3316 30.2229 34.1406C30.1355 33.9497 29.7696 33.8569 29.4037 33.9338C29.0379 34.0107 28.8099 34.2255 28.8974 34.4164Z" fill="white"/>
<path d="M19.0854 29.1576C20.7297 29.1576 22.0627 27.8242 22.0627 26.1794C22.0627 24.5346 20.7297 23.2012 19.0854 23.2012C17.4411 23.2012 16.1082 24.5346 16.1082 26.1794C16.1082 27.8242 17.4411 29.1576 19.0854 29.1576Z" fill="white" stroke="#161616" stroke-width="0.23431" stroke-miterlimit="10"/>
<path d="M19.0854 28.2928C20.2524 28.2928 21.1984 27.3464 21.1984 26.1791C21.1984 25.0117 20.2524 24.0654 19.0854 24.0654C17.9184 24.0654 16.9724 25.0117 16.9724 26.1791C16.9724 27.3464 17.9184 28.2928 19.0854 28.2928Z" fill="#161616" stroke="#161616" stroke-width="0.23431" stroke-miterlimit="10"/>
<path d="M17.9321 26.2745C18.1972 26.2745 18.412 26.0596 18.412 25.7945C18.412 25.5294 18.1972 25.3145 17.9321 25.3145C17.6671 25.3145 17.4523 25.5294 17.4523 25.7945C17.4523 26.0596 17.6671 26.2745 17.9321 26.2745Z" fill="white"/>
<path d="M36.5831 29.1576C38.2274 29.1576 39.5604 27.8242 39.5604 26.1794C39.5604 24.5346 38.2274 23.2012 36.5831 23.2012C34.9388 23.2012 33.6058 24.5346 33.6058 26.1794C33.6058 27.8242 34.9388 29.1576 36.5831 29.1576Z" fill="white" stroke="#101010" stroke-width="0.23431" stroke-miterlimit="10"/>
<path d="M36.5832 28.2928C37.7502 28.2928 38.6962 27.3464 38.6962 26.1791C38.6962 25.0117 37.7502 24.0654 36.5832 24.0654C35.4162 24.0654 34.4702 25.0117 34.4702 26.1791C34.4702 27.3464 35.4162 28.2928 36.5832 28.2928Z" fill="#161616" stroke="#161616" stroke-width="0.23431" stroke-miterlimit="10"/>
<path d="M35.4299 26.2745C35.695 26.2745 35.9098 26.0596 35.9098 25.7945C35.9098 25.5294 35.695 25.3145 35.4299 25.3145C35.1649 25.3145 34.9501 25.5294 34.9501 25.7945C34.9501 26.0596 35.1649 26.2745 35.4299 26.2745Z" fill="white"/>
</g>
</g>
<defs>
<clipPath id="clip0_281_616">
<rect width="56" height="56" fill="white"/>
</clipPath>
<clipPath id="clip1_281_616">
<rect width="43.8159" height="43.3473" fill="white" transform="translate(6.09204 6.32617)"/>
</clipPath>
</defs>
</svg>
