<svg width="585" height="102" viewBox="0 0 585 102" fill="none" xmlns="http://www.w3.org/2000/svg">
<g clip-path="url(#clip0_240_1055)">
<rect x="0.5" width="56" height="56" rx="28" fill="#DE4437"/>
<g clip-path="url(#clip1_240_1055)">
<path d="M28.4745 45.9737C38.7243 45.9737 47.0334 37.7842 47.0334 27.6819C47.0334 17.5796 38.7243 9.39014 28.4745 9.39014C18.2247 9.39014 9.91565 17.5796 9.91565 27.6819C9.91565 37.7842 18.2247 45.9737 28.4745 45.9737Z" fill="#C7B299" stroke="#1A1A1A" stroke-width="0.23431" stroke-miterlimit="10"/>
<path d="M7.80469 29.2867C7.80469 17.3504 16.3948 7.49805 29.5602 7.49805C41.8596 7.49805 49.5357 16.1318 49.5357 26.9504C49.5357 38.8842 40.9455 48.7391 27.8836 48.7391C15.5312 48.7391 7.80721 40.1054 7.80721 29.2867H7.80469ZM28.0856 45.5878C38.8094 45.5878 45.6724 37.3099 45.6724 27.1522C45.6724 24.5712 45.6194 17.2747 40.2133 14.4086C35.4031 11.8603 29.9087 14.7037 29.2345 15.0671C28.1185 14.4464 23.5381 12.0571 19.0158 13.7929C11.5064 16.6742 11.6705 28.0504 11.6705 29.0823C11.6705 38.3266 17.9224 45.5878 28.0882 45.5878H28.0856Z" fill="#1A1A1A"/>
<path d="M16.6069 35.2029C16.6069 35.6091 21.8211 38.2255 28.376 38.2255C34.931 38.2255 40.3421 35.6091 40.3421 35.2029C40.3421 34.7967 34.9285 36.7546 28.376 36.7546C21.8211 36.7546 16.6069 34.7967 16.6069 35.2029Z" fill="#1A1A1A"/>
<path d="M28.3483 36.0081C30.6493 36.0081 32.5146 34.7656 32.5146 33.2328C32.5146 31.7001 30.6493 30.4575 28.3483 30.4575C26.0473 30.4575 24.182 31.7001 24.182 33.2328C24.182 34.7656 26.0473 36.0081 28.3483 36.0081Z" fill="#1A1A1A"/>
<path d="M27.2499 34.2217C27.1691 34.4034 26.8181 34.4917 26.4697 34.4185C26.1212 34.3454 25.9041 34.141 25.9874 33.9593C26.0707 33.7777 26.4192 33.6894 26.7676 33.7625C27.1161 33.8357 27.3332 34.0401 27.2499 34.2217Z" fill="white"/>
<path d="M29.5249 34.2217C29.6057 34.4034 29.9567 34.4917 30.3051 34.4185C30.6536 34.3454 30.8707 34.141 30.7874 33.9593C30.7041 33.7777 30.3556 33.6894 30.0072 33.7625C29.6587 33.8357 29.4416 34.0401 29.5249 34.2217Z" fill="white"/>
<path d="M20.1798 29.2184C21.7459 29.2184 23.0154 27.9499 23.0154 26.3851C23.0154 24.8203 21.7459 23.5518 20.1798 23.5518C18.6138 23.5518 17.3442 24.8203 17.3442 26.3851C17.3442 27.9499 18.6138 29.2184 20.1798 29.2184Z" fill="white" stroke="#1A1A1A" stroke-width="0.23431" stroke-miterlimit="10"/>
<path d="M20.1798 28.3962C21.2912 28.3962 22.1922 27.4959 22.1922 26.3853C22.1922 25.2748 21.2912 24.3745 20.1798 24.3745C19.0684 24.3745 18.1674 25.2748 18.1674 26.3853C18.1674 27.4959 19.0684 28.3962 20.1798 28.3962Z" fill="#1A1A1A" stroke="#1A1A1A" stroke-width="0.23431" stroke-miterlimit="10"/>
<path d="M19.0814 26.4763C19.3338 26.4763 19.5384 26.2719 19.5384 26.0197C19.5384 25.7674 19.3338 25.563 19.0814 25.563C18.829 25.563 18.6244 25.7674 18.6244 26.0197C18.6244 26.2719 18.829 26.4763 19.0814 26.4763Z" fill="white"/>
<path d="M36.845 29.2184C38.4111 29.2184 39.6806 27.9499 39.6806 26.3851C39.6806 24.8203 38.4111 23.5518 36.845 23.5518C35.2789 23.5518 34.0094 24.8203 34.0094 26.3851C34.0094 27.9499 35.2789 29.2184 36.845 29.2184Z" fill="white" stroke="black" stroke-width="0.23431" stroke-miterlimit="10"/>
<path d="M36.845 28.3962C37.9564 28.3962 38.8574 27.4959 38.8574 26.3853C38.8574 25.2748 37.9564 24.3745 36.845 24.3745C35.7335 24.3745 34.8325 25.2748 34.8325 26.3853C34.8325 27.4959 35.7335 28.3962 36.845 28.3962Z" fill="#1A1A1A" stroke="#1A1A1A" stroke-width="0.23431" stroke-miterlimit="10"/>
<path d="M35.7466 26.4763C35.999 26.4763 36.2036 26.2719 36.2036 26.0197C36.2036 25.7674 35.999 25.563 35.7466 25.563C35.4942 25.563 35.2896 25.7674 35.2896 26.0197C35.2896 26.2719 35.4942 26.4763 35.7466 26.4763Z" fill="white"/>
<path d="M53.2196 21.271H52.2096H51.0633H48.9044L29.9087 21.2786H29.4845H27.3281H25.1692L8.32987 21.2836H6.17098H4.01208V23.4408V25.5979H6.17098V27.7551H8.32987V29.9098H10.4888V32.0619H12.6476V33.0206V33.1392V34.2165H14.8065H16.9654H19.1243H21.2832V33.1417V32.0644H23.4421V29.9072H25.5985V27.7526H29.9137V25.5954H27.7548H28.6209H29.9112V23.4383V25.5929V27.7475H32.0701V29.9022H34.2264V32.0543H36.3828V34.2115H38.1175V34.2165H40.2764H42.4353H44.5942V33.1392V32.0619V32.0543H46.7505V29.8997H48.9069V27.7425H51.0633V25.5929H53.2222V21.276L53.2196 21.271ZM37.1529 32.0543H37.5746H36.5772H37.1504H37.1529Z" fill="#1A1A1A"/>
<path d="M13.6782 25.1764L11.5197 25.2163L11.5596 27.3731L13.7181 27.3332L13.6782 25.1764Z" fill="white"/>
<path d="M15.8734 27.2951L13.7148 27.335L13.7548 29.4918L15.9133 29.4519L15.8734 27.2951Z" fill="white"/>
<path d="M11.4805 23.0602L9.32202 23.1001L9.36196 25.2569L11.5205 25.217L11.4805 23.0602Z" fill="white"/>
<path d="M36.9823 24.7482L34.8237 24.7881L34.8637 26.9449L37.0222 26.905L36.9823 24.7482Z" fill="white"/>
<path d="M39.1824 26.8619L37.0239 26.9019L37.0639 29.0587L39.2224 29.0187L39.1824 26.8619Z" fill="white"/>
<path d="M34.7871 22.6295L32.6285 22.6694L32.6685 24.8262L34.827 24.7863L34.7871 22.6295Z" fill="white"/>
<path d="M13.6782 25.1764L11.5197 25.2163L11.5596 27.3731L13.7181 27.3332L13.6782 25.1764Z" fill="white"/>
<path d="M15.8734 27.2951L13.7148 27.335L13.7548 29.4918L15.9133 29.4519L15.8734 27.2951Z" fill="white"/>
<path d="M11.4376 23.0609L9.31946 23.1001L9.35865 25.2165L11.4768 25.1774L11.4376 23.0609Z" fill="white"/>
<path d="M17.9887 25.0993L15.8302 25.1392L15.8701 27.296L18.0287 27.2561L17.9887 25.0993Z" fill="white"/>
<path d="M20.1889 27.213L18.0304 27.2529L18.0703 29.4097L20.2289 29.3698L20.1889 27.213Z" fill="white"/>
<path d="M15.7935 22.983L13.635 23.0229L13.6749 25.1797L15.8335 25.1398L15.7935 22.983Z" fill="white"/>
<path d="M41.2978 24.6686L39.1393 24.7085L39.1792 26.8653L41.3377 26.8254L41.2978 24.6686Z" fill="white"/>
<path d="M43.4954 26.7819L41.3369 26.8218L41.3769 28.9786L43.5354 28.9387L43.4954 26.7819Z" fill="white"/>
<path d="M39.1026 22.5524L36.9441 22.5923L36.984 24.7491L39.1425 24.7092L39.1026 22.5524Z" fill="white"/>
</g>
</g>
<g clip-path="url(#clip2_240_1055)">
<rect x="66.5" width="518" height="102" rx="12" fill="#161616"/>
<rect x="66.5" width="518" height="50" fill="#222222"/>
<rect x="66.5" width="518" height="50" stroke="#3D3D3D"/>
<path d="M86.7159 30.6541C85.9768 30.6541 85.3404 30.4867 84.8068 30.152C84.2765 29.8139 83.8688 29.3482 83.5838 28.755C83.2988 28.1617 83.1562 27.4822 83.1562 26.7166C83.1562 25.9411 83.3021 25.2566 83.5938 24.6634C83.8854 24.0668 84.2964 23.6011 84.8267 23.2663C85.357 22.9316 85.9818 22.7642 86.701 22.7642C87.281 22.7642 87.7981 22.8719 88.2521 23.0874C88.7062 23.2995 89.0724 23.5978 89.3509 23.9822C89.6326 24.3667 89.8 24.8158 89.853 25.3295H88.4062C88.3267 24.9716 88.1444 24.6634 87.8594 24.4048C87.5777 24.1463 87.1998 24.017 86.7259 24.017C86.3116 24.017 85.9486 24.1264 85.6371 24.3452C85.3288 24.5606 85.0885 24.8688 84.9162 25.2699C84.7438 25.6676 84.6577 26.1383 84.6577 26.6818C84.6577 27.2386 84.7422 27.7192 84.9112 28.1236C85.0803 28.5279 85.3189 28.8411 85.6271 29.0632C85.9387 29.2853 86.3049 29.3963 86.7259 29.3963C87.0076 29.3963 87.2628 29.3449 87.4915 29.2422C87.7235 29.1361 87.9174 28.9853 88.0732 28.7898C88.2322 28.5942 88.3433 28.3589 88.4062 28.0838H89.853C89.8 28.5777 89.6392 29.0185 89.3707 29.4062C89.1023 29.794 88.7427 30.099 88.2919 30.321C87.8445 30.5431 87.3191 30.6541 86.7159 30.6541ZM94.6593 30.6541C93.9434 30.6541 93.3186 30.4901 92.785 30.1619C92.2514 29.8338 91.8371 29.3748 91.5421 28.7848C91.2471 28.1948 91.0996 27.5054 91.0996 26.7166C91.0996 25.9245 91.2471 25.2318 91.5421 24.6385C91.8371 24.0452 92.2514 23.5845 92.785 23.2564C93.3186 22.9283 93.9434 22.7642 94.6593 22.7642C95.3752 22.7642 95.9999 22.9283 96.5336 23.2564C97.0672 23.5845 97.4815 24.0452 97.7765 24.6385C98.0714 25.2318 98.2189 25.9245 98.2189 26.7166C98.2189 27.5054 98.0714 28.1948 97.7765 28.7848C97.4815 29.3748 97.0672 29.8338 96.5336 30.1619C95.9999 30.4901 95.3752 30.6541 94.6593 30.6541ZM94.6642 29.4062C95.1283 29.4062 95.5127 29.2836 95.8176 29.0384C96.1226 28.7931 96.348 28.4666 96.4938 28.0589C96.6429 27.6513 96.7175 27.2022 96.7175 26.7116C96.7175 26.2244 96.6429 25.777 96.4938 25.3693C96.348 24.9583 96.1226 24.6286 95.8176 24.38C95.5127 24.1314 95.1283 24.0071 94.6642 24.0071C94.1969 24.0071 93.8091 24.1314 93.5009 24.38C93.196 24.6286 92.9689 24.9583 92.8198 25.3693C92.6739 25.777 92.601 26.2244 92.601 26.7116C92.601 27.2022 92.6739 27.6513 92.8198 28.0589C92.9689 28.4666 93.196 28.7931 93.5009 29.0384C93.8091 29.2836 94.1969 29.4062 94.6642 29.4062ZM101.365 25.9659V30.5H99.8782V22.8636H101.305V24.1065H101.4C101.575 23.7022 101.85 23.3774 102.225 23.1321C102.603 22.8868 103.078 22.7642 103.652 22.7642C104.172 22.7642 104.628 22.8736 105.019 23.0923C105.41 23.3078 105.713 23.6293 105.929 24.0568C106.144 24.4844 106.252 25.013 106.252 25.6428V30.5H104.765V25.8217C104.765 25.2682 104.621 24.8357 104.333 24.5241C104.044 24.2093 103.648 24.0518 103.145 24.0518C102.8 24.0518 102.493 24.1264 102.225 24.2756C101.96 24.4247 101.749 24.6435 101.593 24.9318C101.441 25.2169 101.365 25.5616 101.365 25.9659ZM111.81 22.8636V24.0568H107.639V22.8636H111.81ZM108.757 21.0341H110.244V28.2578C110.244 28.5462 110.287 28.7633 110.373 28.9091C110.459 29.0516 110.57 29.1494 110.706 29.2024C110.846 29.2521 110.996 29.277 111.159 29.277C111.278 29.277 111.382 29.2687 111.472 29.2521C111.561 29.2356 111.631 29.2223 111.681 29.2124L111.949 30.4403C111.863 30.4735 111.74 30.5066 111.581 30.5398C111.422 30.5762 111.223 30.5961 110.985 30.5994C110.594 30.6061 110.229 30.5365 109.891 30.3906C109.553 30.2448 109.279 30.0194 109.071 29.7145C108.862 29.4096 108.757 29.0268 108.757 28.5661V21.0341ZM113.454 30.5V22.8636H114.891V24.0767H114.971C115.11 23.6657 115.355 23.3426 115.706 23.1072C116.061 22.8686 116.462 22.7493 116.91 22.7493C117.002 22.7493 117.112 22.7526 117.238 22.7592C117.367 22.7659 117.468 22.7741 117.541 22.7841V24.206C117.481 24.1894 117.375 24.1712 117.223 24.1513C117.07 24.1281 116.918 24.1165 116.765 24.1165C116.414 24.1165 116.101 24.1911 115.826 24.3402C115.554 24.486 115.339 24.6899 115.18 24.9517C115.02 25.2102 114.941 25.5052 114.941 25.8366V30.5H113.454ZM118.827 30.5V22.8636H120.314V30.5H118.827ZM119.578 21.6854C119.32 21.6854 119.098 21.5992 118.912 21.4268C118.73 21.2512 118.638 21.0424 118.638 20.8004C118.638 20.5552 118.73 20.3464 118.912 20.174C119.098 19.9983 119.32 19.9105 119.578 19.9105C119.837 19.9105 120.057 19.9983 120.239 20.174C120.425 20.3464 120.518 20.5552 120.518 20.8004C120.518 21.0424 120.425 21.2512 120.239 21.4268C120.057 21.5992 119.837 21.6854 119.578 21.6854ZM122.433 30.5V20.3182H123.92V24.1016H124.009C124.095 23.9425 124.22 23.7585 124.382 23.5497C124.544 23.3409 124.77 23.1586 125.058 23.0028C125.346 22.8438 125.728 22.7642 126.202 22.7642C126.818 22.7642 127.368 22.92 127.852 23.2315C128.336 23.5431 128.715 23.9922 128.991 24.5788C129.269 25.1655 129.408 25.8714 129.408 26.6967C129.408 27.522 129.271 28.2296 128.996 28.8196C128.72 29.4062 128.343 29.8587 127.862 30.1768C127.381 30.4917 126.833 30.6491 126.216 30.6491C125.752 30.6491 125.373 30.5713 125.078 30.4155C124.786 30.2597 124.558 30.0774 124.392 29.8686C124.226 29.6598 124.099 29.4742 124.009 29.3118H123.885V30.5H122.433ZM123.89 26.6818C123.89 27.2187 123.968 27.6894 124.123 28.0938C124.279 28.4981 124.505 28.8146 124.8 29.0433C125.095 29.2687 125.456 29.3814 125.883 29.3814C126.327 29.3814 126.699 29.2637 126.997 29.0284C127.295 28.7898 127.521 28.4666 127.673 28.0589C127.829 27.6513 127.907 27.1922 127.907 26.6818C127.907 26.178 127.831 25.7256 127.678 25.3246C127.529 24.9235 127.304 24.607 127.002 24.375C126.704 24.143 126.331 24.027 125.883 24.027C125.452 24.027 125.088 24.138 124.79 24.3601C124.495 24.5821 124.271 24.892 124.118 25.2898C123.966 25.6875 123.89 26.1515 123.89 26.6818ZM135.915 27.3331V22.8636H137.406V30.5H135.945V29.1776H135.865C135.689 29.5852 135.408 29.925 135.02 30.1967C134.635 30.4652 134.156 30.5994 133.583 30.5994C133.093 30.5994 132.658 30.4917 132.281 30.2763C131.906 30.0575 131.611 29.7344 131.396 29.3068C131.183 28.8793 131.077 28.3506 131.077 27.7209V22.8636H132.564V27.5419C132.564 28.0623 132.708 28.4766 132.996 28.7848C133.285 29.093 133.659 29.2472 134.12 29.2472C134.398 29.2472 134.675 29.1776 134.95 29.0384C135.229 28.8991 135.459 28.6887 135.641 28.407C135.827 28.1252 135.918 27.7673 135.915 27.3331ZM142.968 22.8636V24.0568H138.797V22.8636H142.968ZM139.916 21.0341H141.402V28.2578C141.402 28.5462 141.445 28.7633 141.531 28.9091C141.618 29.0516 141.729 29.1494 141.865 29.2024C142.004 29.2521 142.155 29.277 142.317 29.277C142.436 29.277 142.541 29.2687 142.63 29.2521C142.72 29.2356 142.789 29.2223 142.839 29.2124L143.107 30.4403C143.021 30.4735 142.899 30.5066 142.74 30.5398C142.58 30.5762 142.382 30.5961 142.143 30.5994C141.752 30.6061 141.387 30.5365 141.049 30.3906C140.711 30.2448 140.438 30.0194 140.229 29.7145C140.02 29.4096 139.916 29.0268 139.916 28.5661V21.0341ZM147.747 30.6541C147.031 30.6541 146.406 30.4901 145.873 30.1619C145.339 29.8338 144.925 29.3748 144.63 28.7848C144.335 28.1948 144.188 27.5054 144.188 26.7166C144.188 25.9245 144.335 25.2318 144.63 24.6385C144.925 24.0452 145.339 23.5845 145.873 23.2564C146.406 22.9283 147.031 22.7642 147.747 22.7642C148.463 22.7642 149.088 22.9283 149.621 23.2564C150.155 23.5845 150.569 24.0452 150.864 24.6385C151.159 25.2318 151.307 25.9245 151.307 26.7166C151.307 27.5054 151.159 28.1948 150.864 28.7848C150.569 29.3748 150.155 29.8338 149.621 30.1619C149.088 30.4901 148.463 30.6541 147.747 30.6541ZM147.752 29.4062C148.216 29.4062 148.601 29.2836 148.906 29.0384C149.21 28.7931 149.436 28.4666 149.582 28.0589C149.731 27.6513 149.805 27.2022 149.805 26.7116C149.805 26.2244 149.731 25.777 149.582 25.3693C149.436 24.9583 149.21 24.6286 148.906 24.38C148.601 24.1314 148.216 24.0071 147.752 24.0071C147.285 24.0071 146.897 24.1314 146.589 24.38C146.284 24.6286 146.057 24.9583 145.908 25.3693C145.762 25.777 145.689 26.2244 145.689 26.7116C145.689 27.2022 145.762 27.6513 145.908 28.0589C146.057 28.4666 146.284 28.7931 146.589 29.0384C146.897 29.2836 147.285 29.4062 147.752 29.4062ZM152.966 30.5V22.8636H154.403V24.0767H154.482C154.622 23.6657 154.867 23.3426 155.218 23.1072C155.573 22.8686 155.974 22.7493 156.421 22.7493C156.514 22.7493 156.624 22.7526 156.749 22.7592C156.879 22.7659 156.98 22.7741 157.053 22.7841V24.206C156.993 24.1894 156.887 24.1712 156.735 24.1513C156.582 24.1281 156.43 24.1165 156.277 24.1165C155.926 24.1165 155.613 24.1911 155.338 24.3402C155.066 24.486 154.85 24.6899 154.691 24.9517C154.532 25.2102 154.453 25.5052 154.453 25.8366V30.5H152.966Z" fill="white"/>
<path d="M171.378 30.1477C170.713 30.1477 170.141 29.9908 169.661 29.6768C169.18 29.3629 168.811 28.9305 168.553 28.3796C168.294 27.8287 168.165 27.1993 168.165 26.4915C168.165 25.7713 168.297 25.1358 168.562 24.5849C168.83 24.0309 169.202 23.5985 169.679 23.2876C170.159 22.9737 170.719 22.8168 171.359 22.8168C171.858 22.8168 172.307 22.9091 172.707 23.0938C173.107 23.2784 173.435 23.5369 173.691 23.8693C173.946 24.2017 174.105 24.5895 174.166 25.0327H173.077C172.994 24.7095 172.809 24.4233 172.523 24.174C172.24 23.9216 171.858 23.7955 171.378 23.7955C170.953 23.7955 170.581 23.9062 170.261 24.1278C169.944 24.3464 169.696 24.6557 169.517 25.0558C169.342 25.4528 169.254 25.919 169.254 26.4545C169.254 27.0024 169.34 27.4794 169.513 27.8857C169.688 28.2919 169.934 28.6074 170.251 28.832C170.571 29.0567 170.947 29.169 171.378 29.169C171.661 29.169 171.918 29.1198 172.149 29.0213C172.38 28.9228 172.575 28.7812 172.735 28.5966C172.895 28.4119 173.009 28.1903 173.077 27.9318H174.166C174.105 28.3504 173.952 28.7274 173.709 29.0629C173.469 29.3952 173.151 29.6599 172.754 29.8569C172.36 30.0508 171.901 30.1477 171.378 30.1477ZM178.64 30.1477C177.999 30.1477 177.438 29.9954 176.955 29.6907C176.474 29.386 176.099 28.9598 175.828 28.4119C175.56 27.8641 175.426 27.224 175.426 26.4915C175.426 25.7528 175.56 25.1081 175.828 24.5572C176.099 24.0063 176.474 23.5785 176.955 23.2738C177.438 22.9691 177.999 22.8168 178.64 22.8168C179.28 22.8168 179.84 22.9691 180.32 23.2738C180.803 23.5785 181.179 24.0063 181.446 24.5572C181.717 25.1081 181.853 25.7528 181.853 26.4915C181.853 27.224 181.717 27.8641 181.446 28.4119C181.179 28.9598 180.803 29.386 180.32 29.6907C179.84 29.9954 179.28 30.1477 178.64 30.1477ZM178.64 29.169C179.126 29.169 179.526 29.0444 179.84 28.7951C180.154 28.5458 180.386 28.218 180.537 27.8118C180.688 27.4055 180.763 26.9654 180.763 26.4915C180.763 26.0175 180.688 25.5759 180.537 25.1665C180.386 24.7572 180.154 24.4264 179.84 24.174C179.526 23.9216 179.126 23.7955 178.64 23.7955C178.153 23.7955 177.753 23.9216 177.439 24.174C177.125 24.4264 176.893 24.7572 176.742 25.1665C176.591 25.5759 176.516 26.0175 176.516 26.4915C176.516 26.9654 176.591 27.4055 176.742 27.8118C176.893 28.218 177.125 28.5458 177.439 28.7951C177.753 29.0444 178.153 29.169 178.64 29.169ZM183.516 30V22.9091H184.568V24.017H184.661C184.808 23.6385 185.047 23.3446 185.376 23.1353C185.705 22.9229 186.101 22.8168 186.563 22.8168C187.03 22.8168 187.42 22.9229 187.731 23.1353C188.044 23.3446 188.289 23.6385 188.465 24.017H188.538C188.72 23.6508 188.992 23.36 189.356 23.1445C189.719 22.926 190.154 22.8168 190.662 22.8168C191.296 22.8168 191.815 23.0153 192.218 23.4123C192.621 23.8062 192.823 24.4202 192.823 25.2543V30H191.733V25.2543C191.733 24.7311 191.59 24.3571 191.304 24.1325C191.017 23.9078 190.68 23.7955 190.293 23.7955C189.794 23.7955 189.408 23.9463 189.134 24.2479C188.86 24.5464 188.723 24.925 188.723 25.3835V30H187.615V25.1435C187.615 24.7403 187.484 24.4156 187.223 24.1694C186.961 23.9201 186.624 23.7955 186.212 23.7955C185.929 23.7955 185.664 23.8709 185.418 24.0217C185.175 24.1725 184.978 24.3817 184.827 24.6495C184.679 24.9142 184.605 25.2204 184.605 25.5682V30H183.516ZM194.815 30V22.9091H195.867V24.017H195.959C196.107 23.6385 196.346 23.3446 196.675 23.1353C197.004 22.9229 197.4 22.8168 197.861 22.8168C198.329 22.8168 198.719 22.9229 199.029 23.1353C199.343 23.3446 199.588 23.6385 199.763 24.017H199.837C200.019 23.6508 200.291 23.36 200.654 23.1445C201.018 22.926 201.453 22.8168 201.961 22.8168C202.595 22.8168 203.113 23.0153 203.517 23.4123C203.92 23.8062 204.121 24.4202 204.121 25.2543V30H203.032V25.2543C203.032 24.7311 202.889 24.3571 202.603 24.1325C202.316 23.9078 201.979 23.7955 201.592 23.7955C201.093 23.7955 200.707 23.9463 200.433 24.2479C200.159 24.5464 200.022 24.925 200.022 25.3835V30H198.914V25.1435C198.914 24.7403 198.783 24.4156 198.522 24.1694C198.26 23.9201 197.923 23.7955 197.511 23.7955C197.227 23.7955 196.963 23.8709 196.717 24.0217C196.473 24.1725 196.276 24.3817 196.126 24.6495C195.978 24.9142 195.904 25.2204 195.904 25.5682V30H194.815ZM209.086 30.1477C208.403 30.1477 207.814 29.9969 207.318 29.6953C206.826 29.3906 206.446 28.9659 206.178 28.4212C205.913 27.8733 205.781 27.2363 205.781 26.5099C205.781 25.7836 205.913 25.1435 206.178 24.5895C206.446 24.0324 206.818 23.5985 207.295 23.2876C207.775 22.9737 208.335 22.8168 208.976 22.8168C209.345 22.8168 209.71 22.8783 210.07 23.0014C210.43 23.1245 210.758 23.3246 211.053 23.6016C211.348 23.8755 211.584 24.2386 211.759 24.6911C211.935 25.1435 212.022 25.7005 212.022 26.3622V26.8239H206.557V25.8821H210.915C210.915 25.482 210.834 25.125 210.674 24.8111C210.517 24.4972 210.293 24.2494 210 24.0678C209.711 23.8862 209.37 23.7955 208.976 23.7955C208.542 23.7955 208.166 23.9032 207.849 24.1186C207.535 24.331 207.294 24.608 207.124 24.9496C206.955 25.2912 206.87 25.6574 206.87 26.0483V26.6761C206.87 27.2116 206.963 27.6656 207.147 28.038C207.335 28.4073 207.595 28.6889 207.928 28.8828C208.26 29.0736 208.646 29.169 209.086 29.169C209.373 29.169 209.631 29.129 209.862 29.049C210.096 28.9659 210.297 28.8428 210.467 28.6797C210.636 28.5135 210.767 28.3073 210.859 28.0611L211.912 28.3565C211.801 28.7135 211.615 29.0275 211.353 29.2983C211.091 29.5661 210.768 29.7753 210.384 29.9261C209.999 30.0739 209.566 30.1477 209.086 30.1477ZM214.769 25.7344V30H213.68V22.9091H214.732V24.017H214.825C214.991 23.657 215.243 23.3677 215.582 23.1491C215.92 22.9276 216.357 22.8168 216.893 22.8168C217.373 22.8168 217.793 22.9152 218.153 23.1122C218.513 23.3061 218.793 23.6016 218.993 23.9986C219.193 24.3925 219.293 24.8911 219.293 25.4943V30H218.204V25.5682C218.204 25.0111 218.059 24.5772 217.77 24.2663C217.481 23.9524 217.084 23.7955 216.579 23.7955C216.231 23.7955 215.92 23.8709 215.646 24.0217C215.376 24.1725 215.162 24.3925 215.005 24.6818C214.848 24.9711 214.769 25.322 214.769 25.7344ZM224.368 22.9091V23.8324H220.693V22.9091H224.368ZM221.764 21.2102H222.854V27.9688C222.854 28.2765 222.898 28.5073 222.988 28.6612C223.08 28.812 223.197 28.9136 223.339 28.9659C223.483 29.0152 223.636 29.0398 223.796 29.0398C223.916 29.0398 224.014 29.0336 224.091 29.0213C224.168 29.0059 224.23 28.9936 224.276 28.9844L224.497 29.9631C224.423 29.9908 224.32 30.0185 224.188 30.0462C224.056 30.0769 223.888 30.0923 223.685 30.0923C223.377 30.0923 223.075 30.0262 222.78 29.8938C222.488 29.7615 222.244 29.5599 222.051 29.2891C221.86 29.0182 221.764 28.6766 221.764 28.2642V21.2102ZM228.904 30.1477C228.221 30.1477 227.631 29.9969 227.136 29.6953C226.643 29.3906 226.263 28.9659 225.995 28.4212C225.731 27.8733 225.598 27.2363 225.598 26.5099C225.598 25.7836 225.731 25.1435 225.995 24.5895C226.263 24.0324 226.636 23.5985 227.113 23.2876C227.593 22.9737 228.153 22.8168 228.793 22.8168C229.162 22.8168 229.527 22.8783 229.887 23.0014C230.247 23.1245 230.575 23.3246 230.87 23.6016C231.166 23.8755 231.401 24.2386 231.577 24.6911C231.752 25.1435 231.84 25.7005 231.84 26.3622V26.8239H226.374V25.8821H230.732C230.732 25.482 230.652 25.125 230.492 24.8111C230.335 24.4972 230.11 24.2494 229.818 24.0678C229.529 23.8862 229.187 23.7955 228.793 23.7955C228.359 23.7955 227.984 23.9032 227.667 24.1186C227.353 24.331 227.111 24.608 226.942 24.9496C226.772 25.2912 226.688 25.6574 226.688 26.0483V26.6761C226.688 27.2116 226.78 27.6656 226.965 28.038C227.153 28.4073 227.413 28.6889 227.745 28.8828C228.077 29.0736 228.464 29.169 228.904 29.169C229.19 29.169 229.449 29.129 229.679 29.049C229.913 28.9659 230.115 28.8428 230.284 28.6797C230.453 28.5135 230.584 28.3073 230.676 28.0611L231.729 28.3565C231.618 28.7135 231.432 29.0275 231.17 29.2983C230.909 29.5661 230.586 29.7753 230.201 29.9261C229.816 30.0739 229.384 30.1477 228.904 30.1477ZM236.175 30.1477C235.584 30.1477 235.062 29.9985 234.61 29.6999C234.157 29.3983 233.803 28.9736 233.548 28.4258C233.292 27.8749 233.165 27.224 233.165 26.473C233.165 25.7282 233.292 25.0819 233.548 24.5341C233.803 23.9863 234.159 23.5631 234.614 23.2646C235.07 22.966 235.596 22.8168 236.193 22.8168C236.655 22.8168 237.02 22.8937 237.287 23.0476C237.558 23.1984 237.764 23.3707 237.906 23.5646C238.051 23.7554 238.163 23.9124 238.243 24.0355H238.335V20.5455H239.425V30H238.372V28.9105H238.243C238.163 29.0398 238.049 29.2029 237.901 29.3999C237.754 29.5937 237.543 29.7676 237.269 29.9215C236.995 30.0723 236.63 30.1477 236.175 30.1477ZM236.322 29.169C236.759 29.169 237.129 29.0552 237.43 28.8274C237.732 28.5966 237.961 28.2781 238.118 27.8718C238.275 27.4625 238.354 26.9901 238.354 26.4545C238.354 25.9252 238.277 25.462 238.123 25.065C237.969 24.6649 237.741 24.354 237.44 24.1325C237.138 23.9078 236.766 23.7955 236.322 23.7955C235.861 23.7955 235.476 23.9139 235.168 24.1509C234.864 24.3848 234.634 24.7034 234.48 25.1065C234.33 25.5066 234.254 25.956 234.254 26.4545C234.254 26.9593 234.331 27.4179 234.485 27.8303C234.642 28.2396 234.873 28.5658 235.178 28.8089C235.485 29.049 235.867 29.169 236.322 29.169ZM248.533 20.5455V30H247.388V21.7457H247.333L245.025 23.2784V22.1151L247.388 20.5455H248.533ZM257.604 30.1477C257.013 30.1477 256.492 29.9985 256.039 29.6999C255.587 29.3983 255.233 28.9736 254.978 28.4258C254.722 27.8749 254.594 27.224 254.594 26.473C254.594 25.7282 254.722 25.0819 254.978 24.5341C255.233 23.9863 255.589 23.5631 256.044 23.2646C256.5 22.966 257.026 22.8168 257.623 22.8168C258.085 22.8168 258.449 22.8937 258.717 23.0476C258.988 23.1984 259.194 23.3707 259.336 23.5646C259.48 23.7554 259.593 23.9124 259.673 24.0355H259.765V20.5455H260.854V30H259.802V28.9105H259.673C259.593 29.0398 259.479 29.2029 259.331 29.3999C259.183 29.5937 258.972 29.7676 258.699 29.9215C258.425 30.0723 258.06 30.1477 257.604 30.1477ZM257.752 29.169C258.189 29.169 258.558 29.0552 258.86 28.8274C259.162 28.5966 259.391 28.2781 259.548 27.8718C259.705 27.4625 259.783 26.9901 259.783 26.4545C259.783 25.9252 259.706 25.462 259.553 25.065C259.399 24.6649 259.171 24.354 258.869 24.1325C258.568 23.9078 258.195 23.7955 257.752 23.7955C257.29 23.7955 256.906 23.9139 256.598 24.1509C256.293 24.3848 256.064 24.7034 255.91 25.1065C255.759 25.5066 255.684 25.956 255.684 26.4545C255.684 26.9593 255.761 27.4179 255.915 27.8303C256.072 28.2396 256.303 28.5658 256.607 28.8089C256.915 29.049 257.297 29.169 257.752 29.169ZM265.088 30.1662C264.638 30.1662 264.231 30.0816 263.864 29.9123C263.498 29.7399 263.207 29.4922 262.992 29.169C262.776 28.8428 262.669 28.4489 262.669 27.9872C262.669 27.581 262.749 27.2517 262.909 26.9993C263.069 26.7438 263.283 26.5438 263.55 26.3991C263.818 26.2545 264.114 26.1468 264.437 26.076C264.763 26.0021 265.091 25.9437 265.42 25.9006C265.851 25.8452 266.2 25.8036 266.468 25.7759C266.739 25.7451 266.936 25.6944 267.059 25.6236C267.185 25.5528 267.248 25.4297 267.248 25.2543V25.2173C267.248 24.7618 267.124 24.4079 266.874 24.1555C266.628 23.9032 266.254 23.777 265.752 23.777C265.232 23.777 264.825 23.8909 264.529 24.1186C264.234 24.3464 264.026 24.5895 263.906 24.848L262.872 24.4787C263.056 24.0478 263.303 23.7124 263.61 23.4723C263.921 23.2292 264.26 23.0599 264.626 22.9645C264.995 22.866 265.359 22.8168 265.716 22.8168C265.943 22.8168 266.205 22.8445 266.5 22.8999C266.799 22.9522 267.087 23.0614 267.364 23.2276C267.644 23.3938 267.876 23.6446 268.061 23.9801C268.245 24.3156 268.338 24.7649 268.338 25.3281V30H267.248V29.0398H267.193C267.119 29.1937 266.996 29.3583 266.824 29.5337C266.651 29.7092 266.422 29.8584 266.136 29.9815C265.849 30.1046 265.5 30.1662 265.088 30.1662ZM265.254 29.1875C265.685 29.1875 266.048 29.1029 266.343 28.9336C266.642 28.7643 266.867 28.5458 267.017 28.2781C267.171 28.0103 267.248 27.7287 267.248 27.4332V26.4361C267.202 26.4915 267.1 26.5423 266.944 26.5884C266.79 26.6315 266.611 26.67 266.408 26.7038C266.208 26.7346 266.013 26.7623 265.822 26.7869C265.634 26.8085 265.482 26.8269 265.365 26.8423C265.082 26.8793 264.817 26.9393 264.571 27.0224C264.328 27.1024 264.131 27.224 263.98 27.3871C263.832 27.5471 263.758 27.7656 263.758 28.0426C263.758 28.4212 263.898 28.7074 264.178 28.9013C264.461 29.0921 264.82 29.1875 265.254 29.1875ZM270.774 32.6591C270.589 32.6591 270.425 32.6437 270.28 32.6129C270.135 32.5852 270.035 32.5575 269.98 32.5298L270.257 31.5696C270.522 31.6373 270.756 31.6619 270.959 31.6435C271.162 31.625 271.342 31.5342 271.499 31.3711C271.659 31.2111 271.805 30.951 271.937 30.5909L272.141 30.0369L269.518 22.9091H270.7L272.658 28.5597H272.731L274.689 22.9091H275.871L272.861 31.0341C272.725 31.4003 272.558 31.7035 272.358 31.9435C272.157 32.1867 271.925 32.3667 271.66 32.4837C271.399 32.6006 271.103 32.6591 270.774 32.6591ZM283.052 30.1662C282.602 30.1662 282.194 30.0816 281.828 29.9123C281.462 29.7399 281.171 29.4922 280.956 29.169C280.74 28.8428 280.633 28.4489 280.633 27.9872C280.633 27.581 280.713 27.2517 280.873 26.9993C281.033 26.7438 281.247 26.5438 281.514 26.3991C281.782 26.2545 282.078 26.1468 282.401 26.076C282.727 26.0021 283.055 25.9437 283.384 25.9006C283.815 25.8452 284.164 25.8036 284.432 25.7759C284.703 25.7451 284.9 25.6944 285.023 25.6236C285.149 25.5528 285.212 25.4297 285.212 25.2543V25.2173C285.212 24.7618 285.087 24.4079 284.838 24.1555C284.592 23.9032 284.218 23.777 283.716 23.777C283.196 23.777 282.788 23.8909 282.493 24.1186C282.198 24.3464 281.99 24.5895 281.87 24.848L280.836 24.4787C281.02 24.0478 281.267 23.7124 281.574 23.4723C281.885 23.2292 282.224 23.0599 282.59 22.9645C282.959 22.866 283.322 22.8168 283.679 22.8168C283.907 22.8168 284.169 22.8445 284.464 22.8999C284.763 22.9522 285.051 23.0614 285.328 23.2276C285.608 23.3938 285.84 23.6446 286.025 23.9801C286.209 24.3156 286.302 24.7649 286.302 25.3281V30H285.212V29.0398H285.157C285.083 29.1937 284.96 29.3583 284.787 29.5337C284.615 29.7092 284.386 29.8584 284.1 29.9815C283.813 30.1046 283.464 30.1662 283.052 30.1662ZM283.218 29.1875C283.649 29.1875 284.012 29.1029 284.307 28.9336C284.606 28.7643 284.83 28.5458 284.981 28.2781C285.135 28.0103 285.212 27.7287 285.212 27.4332V26.4361C285.166 26.4915 285.064 26.5423 284.907 26.5884C284.754 26.6315 284.575 26.67 284.372 26.7038C284.172 26.7346 283.976 26.7623 283.786 26.7869C283.598 26.8085 283.446 26.8269 283.329 26.8423C283.045 26.8793 282.781 26.9393 282.535 27.0224C282.291 27.1024 282.094 27.224 281.944 27.3871C281.796 27.5471 281.722 27.7656 281.722 28.0426C281.722 28.4212 281.862 28.7074 282.142 28.9013C282.425 29.0921 282.784 29.1875 283.218 29.1875ZM291.152 32.8068C290.626 32.8068 290.174 32.7391 289.795 32.6037C289.417 32.4714 289.101 32.2959 288.849 32.0774C288.599 31.862 288.401 31.6312 288.253 31.3849L289.121 30.7756C289.22 30.9048 289.344 31.0526 289.495 31.2188C289.646 31.388 289.852 31.5342 290.114 31.6573C290.378 31.7835 290.725 31.8466 291.152 31.8466C291.725 31.8466 292.197 31.7081 292.57 31.4311C292.942 31.1541 293.128 30.7202 293.128 30.1293V28.6889H293.036C292.956 28.8182 292.842 28.9782 292.694 29.169C292.55 29.3568 292.34 29.5245 292.066 29.6722C291.796 29.8169 291.429 29.8892 290.968 29.8892C290.395 29.8892 289.881 29.7538 289.426 29.483C288.973 29.2121 288.615 28.8182 288.35 28.3011C288.089 27.7841 287.958 27.1562 287.958 26.4176C287.958 25.6913 288.085 25.0588 288.341 24.5202C288.596 23.9786 288.952 23.56 289.407 23.2646C289.863 22.966 290.389 22.8168 290.986 22.8168C291.448 22.8168 291.814 22.8937 292.085 23.0476C292.359 23.1984 292.568 23.3707 292.713 23.5646C292.86 23.7554 292.974 23.9124 293.054 24.0355H293.165V22.9091H294.218V30.2031C294.218 30.8125 294.079 31.308 293.802 31.6896C293.528 32.0743 293.159 32.3559 292.694 32.5344C292.233 32.716 291.719 32.8068 291.152 32.8068ZM291.115 28.9105C291.552 28.9105 291.922 28.8105 292.223 28.6104C292.525 28.4104 292.754 28.1226 292.911 27.7472C293.068 27.3717 293.147 26.9223 293.147 26.3991C293.147 25.8883 293.07 25.4374 292.916 25.0465C292.762 24.6557 292.534 24.3494 292.233 24.1278C291.931 23.9062 291.559 23.7955 291.115 23.7955C290.654 23.7955 290.269 23.9124 289.961 24.1463C289.657 24.3802 289.427 24.6941 289.273 25.0881C289.123 25.482 289.047 25.919 289.047 26.3991C289.047 26.8916 289.124 27.3271 289.278 27.7056C289.435 28.0811 289.666 28.3765 289.971 28.592C290.278 28.8043 290.66 28.9105 291.115 28.9105ZM299.093 30.1477C298.453 30.1477 297.891 29.9954 297.408 29.6907C296.928 29.386 296.552 28.9598 296.281 28.4119C296.013 27.8641 295.88 27.224 295.88 26.4915C295.88 25.7528 296.013 25.1081 296.281 24.5572C296.552 24.0063 296.928 23.5785 297.408 23.2738C297.891 22.9691 298.453 22.8168 299.093 22.8168C299.733 22.8168 300.293 22.9691 300.773 23.2738C301.256 23.5785 301.632 24.0063 301.9 24.5572C302.17 25.1081 302.306 25.7528 302.306 26.4915C302.306 27.224 302.17 27.8641 301.9 28.4119C301.632 28.9598 301.256 29.386 300.773 29.6907C300.293 29.9954 299.733 30.1477 299.093 30.1477ZM299.093 29.169C299.579 29.169 299.979 29.0444 300.293 28.7951C300.607 28.5458 300.839 28.218 300.99 27.8118C301.141 27.4055 301.216 26.9654 301.216 26.4915C301.216 26.0175 301.141 25.5759 300.99 25.1665C300.839 24.7572 300.607 24.4264 300.293 24.174C299.979 23.9216 299.579 23.7955 299.093 23.7955C298.606 23.7955 298.206 23.9216 297.892 24.174C297.578 24.4264 297.346 24.7572 297.195 25.1665C297.045 25.5759 296.969 26.0175 296.969 26.4915C296.969 26.9654 297.045 27.4055 297.195 27.8118C297.346 28.218 297.578 28.5458 297.892 28.7951C298.206 29.0444 298.606 29.169 299.093 29.169Z" fill="white" fill-opacity="0.5"/>
<path d="M90.4318 85.0682C89.2727 85.0682 88.2481 84.9091 87.358 84.5909C86.4678 84.2765 85.7197 83.8125 85.1136 83.1989C84.5076 82.5852 84.0492 81.8333 83.7386 80.9432C83.428 80.053 83.2727 79.0341 83.2727 77.8864C83.2727 76.7765 83.4299 75.7841 83.7443 74.9091C84.0625 74.0341 84.5227 73.2917 85.125 72.6818C85.7311 72.0682 86.4659 71.6004 87.3295 71.2784C88.197 70.9564 89.178 70.7955 90.2727 70.7955C91.3371 70.7955 92.2689 70.9697 93.0682 71.3182C93.8712 71.6629 94.5417 72.1307 95.0795 72.7216C95.6212 73.3087 96.0265 73.9697 96.2955 74.7045C96.5682 75.4394 96.7045 76.197 96.7045 76.9773C96.7045 77.5265 96.678 78.0833 96.625 78.6477C96.572 79.2121 96.4602 79.7311 96.2898 80.2045C96.1193 80.6742 95.8561 81.053 95.5 81.3409C95.1477 81.6288 94.6705 81.7727 94.0682 81.7727C93.803 81.7727 93.5114 81.7311 93.1932 81.6477C92.875 81.5644 92.5928 81.4261 92.3466 81.233C92.1004 81.0398 91.9545 80.7803 91.9091 80.4545H91.8409C91.75 80.6742 91.6098 80.8826 91.4205 81.0795C91.2348 81.2765 90.9905 81.4337 90.6875 81.5511C90.3883 81.6686 90.0227 81.7197 89.5909 81.7045C89.0985 81.6856 88.6648 81.5758 88.2898 81.375C87.9148 81.1705 87.6004 80.8939 87.3466 80.5455C87.0966 80.1932 86.9072 79.786 86.7784 79.3239C86.6534 78.858 86.5909 78.3561 86.5909 77.8182C86.5909 77.3068 86.6667 76.839 86.8182 76.4148C86.9697 75.9905 87.1799 75.6193 87.4489 75.3011C87.7216 74.983 88.0398 74.7292 88.4034 74.5398C88.7708 74.3466 89.1667 74.2273 89.5909 74.1818C89.9697 74.1439 90.3144 74.161 90.625 74.233C90.9356 74.3011 91.1913 74.4053 91.392 74.5455C91.5928 74.6818 91.7197 74.8333 91.7727 75H91.8409V74.3636H93.0455V79.5C93.0455 79.8182 93.1345 80.0985 93.3125 80.3409C93.4905 80.5833 93.75 80.7045 94.0909 80.7045C94.4773 80.7045 94.7727 80.572 94.9773 80.3068C95.1856 80.0417 95.3277 79.6326 95.4034 79.0795C95.483 78.5265 95.5227 77.8182 95.5227 76.9545C95.5227 76.447 95.4527 75.947 95.3125 75.4545C95.1761 74.9583 94.9678 74.4943 94.6875 74.0625C94.411 73.6307 94.0606 73.25 93.6364 72.9205C93.2121 72.5909 92.714 72.3333 92.142 72.1477C91.5739 71.9583 90.928 71.8636 90.2045 71.8636C89.3144 71.8636 88.517 72.0019 87.8125 72.2784C87.1117 72.5511 86.5152 72.9508 86.0227 73.4773C85.5341 74 85.161 74.6364 84.9034 75.3864C84.6496 76.1326 84.5227 76.9811 84.5227 77.9318C84.5227 78.8977 84.6496 79.7557 84.9034 80.5057C85.161 81.2557 85.5398 81.8883 86.0398 82.4034C86.5436 82.9186 87.1667 83.3087 87.9091 83.5739C88.6515 83.8428 89.5076 83.9773 90.4773 83.9773C90.8939 83.9773 91.3049 83.9375 91.7102 83.858C92.1155 83.7784 92.4735 83.6913 92.7841 83.5966C93.0947 83.5019 93.3182 83.4318 93.4545 83.3864L93.7727 84.4318C93.5379 84.5303 93.2311 84.6288 92.8523 84.7273C92.4773 84.8258 92.0758 84.9072 91.6477 84.9716C91.2235 85.036 90.8182 85.0682 90.4318 85.0682ZM89.7727 80.5455C90.2803 80.5455 90.6913 80.4432 91.0057 80.2386C91.3201 80.0341 91.5492 79.7254 91.6932 79.3125C91.8371 78.8996 91.9091 78.3788 91.9091 77.75C91.9091 77.1136 91.8295 76.6174 91.6705 76.2614C91.5114 75.9053 91.2765 75.6553 90.9659 75.5114C90.6553 75.3674 90.2727 75.2955 89.8182 75.2955C89.3864 75.2955 89.017 75.4091 88.7102 75.6364C88.4072 75.8598 88.1742 76.1591 88.0114 76.5341C87.8523 76.9053 87.7727 77.3106 87.7727 77.75C87.7727 78.2348 87.8371 78.6913 87.9659 79.1193C88.0947 79.5436 88.3049 79.8883 88.5966 80.1534C88.8883 80.4148 89.2803 80.5455 89.7727 80.5455ZM98.7116 82V73.2727H100.007V74.5909H100.098C100.257 74.1591 100.545 73.8087 100.962 73.5398C101.378 73.2708 101.848 73.1364 102.371 73.1364C102.469 73.1364 102.592 73.1383 102.74 73.142C102.888 73.1458 103 73.1515 103.075 73.1591V74.5227C103.03 74.5114 102.926 74.4943 102.763 74.4716C102.604 74.4451 102.435 74.4318 102.257 74.4318C101.833 74.4318 101.454 74.5208 101.121 74.6989C100.791 74.8731 100.53 75.1155 100.337 75.4261C100.147 75.733 100.053 76.0833 100.053 76.4773V82H98.7116ZM107.233 82.2045C106.68 82.2045 106.178 82.1004 105.727 81.892C105.277 81.6799 104.919 81.375 104.653 80.9773C104.388 80.5758 104.256 80.0909 104.256 79.5227C104.256 79.0227 104.354 78.6174 104.551 78.3068C104.748 77.9924 105.011 77.7462 105.341 77.5682C105.67 77.3902 106.034 77.2576 106.432 77.1705C106.833 77.0795 107.237 77.0076 107.642 76.9545C108.172 76.8864 108.602 76.8352 108.932 76.8011C109.265 76.7633 109.508 76.7008 109.659 76.6136C109.814 76.5265 109.892 76.375 109.892 76.1591V76.1136C109.892 75.553 109.739 75.1174 109.432 74.8068C109.129 74.4962 108.669 74.3409 108.051 74.3409C107.411 74.3409 106.909 74.4811 106.545 74.7614C106.182 75.0417 105.926 75.3409 105.778 75.6591L104.506 75.2045C104.733 74.6742 105.036 74.2614 105.415 73.9659C105.797 73.6667 106.214 73.4583 106.665 73.3409C107.119 73.2197 107.566 73.1591 108.006 73.1591C108.286 73.1591 108.608 73.1932 108.972 73.2614C109.339 73.3258 109.693 73.4602 110.034 73.6648C110.379 73.8693 110.665 74.178 110.892 74.5909C111.119 75.0038 111.233 75.5568 111.233 76.25V82H109.892V80.8182H109.824C109.733 81.0076 109.581 81.2102 109.369 81.4261C109.157 81.642 108.875 81.8258 108.523 81.9773C108.17 82.1288 107.741 82.2045 107.233 82.2045ZM107.438 81C107.968 81 108.415 80.8958 108.778 80.6875C109.146 80.4792 109.422 80.2102 109.608 79.8807C109.797 79.5511 109.892 79.2045 109.892 78.8409V77.6136C109.835 77.6818 109.71 77.7443 109.517 77.8011C109.328 77.8542 109.108 77.9015 108.858 77.9432C108.612 77.9811 108.371 78.0152 108.136 78.0455C107.905 78.072 107.718 78.0947 107.574 78.1136C107.225 78.1591 106.9 78.233 106.597 78.3352C106.297 78.4337 106.055 78.5833 105.869 78.7841C105.688 78.9811 105.597 79.25 105.597 79.5909C105.597 80.0568 105.769 80.4091 106.114 80.6477C106.462 80.8826 106.903 81 107.438 81ZM117.226 82.1818C116.408 82.1818 115.703 81.9886 115.112 81.6023C114.521 81.2159 114.067 80.6837 113.749 80.0057C113.43 79.3277 113.271 78.553 113.271 77.6818C113.271 76.7955 113.434 76.0133 113.76 75.3352C114.089 74.6534 114.548 74.1212 115.135 73.7386C115.726 73.3523 116.415 73.1591 117.203 73.1591C117.817 73.1591 118.37 73.2727 118.862 73.5C119.355 73.7273 119.758 74.0455 120.072 74.4545C120.387 74.8636 120.582 75.3409 120.658 75.8864H119.317C119.214 75.4886 118.987 75.1364 118.635 74.8295C118.286 74.5189 117.817 74.3636 117.226 74.3636C116.703 74.3636 116.245 74.5 115.851 74.7727C115.461 75.0417 115.156 75.4223 114.936 75.9148C114.72 76.4034 114.612 76.9773 114.612 77.6364C114.612 78.3106 114.718 78.8977 114.93 79.3977C115.146 79.8977 115.449 80.286 115.839 80.5625C116.233 80.839 116.696 80.9773 117.226 80.9773C117.574 80.9773 117.891 80.9167 118.175 80.7955C118.459 80.6742 118.699 80.5 118.896 80.2727C119.093 80.0455 119.233 79.7727 119.317 79.4545H120.658C120.582 79.9697 120.394 80.4337 120.095 80.8466C119.8 81.2557 119.408 81.5814 118.919 81.8239C118.434 82.0625 117.87 82.1818 117.226 82.1818ZM126.277 82.1818C125.436 82.1818 124.711 81.9962 124.101 81.625C123.495 81.25 123.027 80.7273 122.697 80.0568C122.372 79.3826 122.209 78.5985 122.209 77.7045C122.209 76.8106 122.372 76.0227 122.697 75.3409C123.027 74.6553 123.485 74.1212 124.072 73.7386C124.663 73.3523 125.353 73.1591 126.141 73.1591C126.595 73.1591 127.044 73.2348 127.487 73.3864C127.93 73.5379 128.334 73.7841 128.697 74.125C129.061 74.4621 129.351 74.9091 129.567 75.4659C129.783 76.0227 129.891 76.7083 129.891 77.5227V78.0909H123.163V76.9318H128.527C128.527 76.4394 128.429 76 128.232 75.6136C128.038 75.2273 127.762 74.9223 127.402 74.6989C127.046 74.4754 126.625 74.3636 126.141 74.3636C125.607 74.3636 125.144 74.4962 124.754 74.7614C124.368 75.0227 124.071 75.3636 123.862 75.7841C123.654 76.2045 123.55 76.6553 123.55 77.1364V77.9091C123.55 78.5682 123.663 79.1269 123.891 79.5852C124.122 80.0398 124.442 80.3864 124.851 80.625C125.26 80.8598 125.735 80.9773 126.277 80.9773C126.629 80.9773 126.947 80.928 127.232 80.8295C127.519 80.7273 127.768 80.5758 127.976 80.375C128.184 80.1705 128.345 79.9167 128.459 79.6136L129.754 79.9773C129.618 80.4167 129.389 80.803 129.067 81.1364C128.745 81.4659 128.347 81.7235 127.874 81.9091C127.4 82.0909 126.868 82.1818 126.277 82.1818ZM136.93 76.3864V77.6364H131.839V76.3864H136.93ZM142.835 82.1818C142.047 82.1818 141.356 81.9943 140.761 81.6193C140.17 81.2443 139.708 80.7197 139.375 80.0455C139.045 79.3712 138.881 78.5833 138.881 77.6818C138.881 76.7727 139.045 75.9792 139.375 75.3011C139.708 74.6231 140.17 74.0966 140.761 73.7216C141.356 73.3466 142.047 73.1591 142.835 73.1591C143.623 73.1591 144.313 73.3466 144.903 73.7216C145.498 74.0966 145.96 74.6231 146.29 75.3011C146.623 75.9792 146.79 76.7727 146.79 77.6818C146.79 78.5833 146.623 79.3712 146.29 80.0455C145.96 80.7197 145.498 81.2443 144.903 81.6193C144.313 81.9943 143.623 82.1818 142.835 82.1818ZM142.835 80.9773C143.434 80.9773 143.926 80.8239 144.312 80.517C144.699 80.2102 144.985 79.8068 145.17 79.3068C145.356 78.8068 145.449 78.2652 145.449 77.6818C145.449 77.0985 145.356 76.5549 145.17 76.0511C144.985 75.5473 144.699 75.1402 144.312 74.8295C143.926 74.5189 143.434 74.3636 142.835 74.3636C142.237 74.3636 141.744 74.5189 141.358 74.8295C140.972 75.1402 140.686 75.5473 140.5 76.0511C140.314 76.5549 140.222 77.0985 140.222 77.6818C140.222 78.2652 140.314 78.8068 140.5 79.3068C140.686 79.8068 140.972 80.2102 141.358 80.517C141.744 80.8239 142.237 80.9773 142.835 80.9773ZM152.723 73.2727V74.4091H148.018V73.2727H152.723ZM149.428 82V72.0682C149.428 71.5682 149.545 71.1515 149.78 70.8182C150.015 70.4848 150.32 70.2348 150.695 70.0682C151.07 69.9015 151.465 69.8182 151.882 69.8182C152.212 69.8182 152.481 69.8447 152.689 69.8977C152.897 69.9508 153.053 70 153.155 70.0455L152.768 71.2045C152.7 71.1818 152.606 71.1534 152.484 71.1193C152.367 71.0852 152.212 71.0682 152.018 71.0682C151.575 71.0682 151.255 71.1799 151.058 71.4034C150.865 71.6269 150.768 71.9545 150.768 72.3864V82H149.428ZM159.149 76.3864V77.6364H154.058V76.3864H159.149ZM167.69 75.2273L166.486 75.5682C166.41 75.3674 166.298 75.1723 166.151 74.983C166.007 74.7898 165.81 74.6307 165.56 74.5057C165.31 74.3807 164.99 74.3182 164.599 74.3182C164.065 74.3182 163.62 74.4413 163.264 74.6875C162.912 74.9299 162.736 75.2386 162.736 75.6136C162.736 75.947 162.857 76.2102 163.099 76.4034C163.342 76.5966 163.721 76.7576 164.236 76.8864L165.531 77.2045C166.312 77.3939 166.893 77.6837 167.276 78.0739C167.658 78.4602 167.849 78.9583 167.849 79.5682C167.849 80.0682 167.705 80.5152 167.418 80.9091C167.134 81.303 166.736 81.6136 166.224 81.8409C165.713 82.0682 165.118 82.1818 164.44 82.1818C163.55 82.1818 162.813 81.9886 162.23 81.6023C161.647 81.2159 161.277 80.6515 161.122 79.9091L162.395 79.5909C162.516 80.0606 162.745 80.4129 163.082 80.6477C163.423 80.8826 163.868 81 164.418 81C165.043 81 165.539 80.8674 165.906 80.6023C166.277 80.3333 166.463 80.0114 166.463 79.6364C166.463 79.3333 166.357 79.0795 166.145 78.875C165.933 78.6667 165.607 78.5114 165.168 78.4091L163.713 78.0682C162.914 77.8788 162.327 77.5852 161.952 77.1875C161.58 76.786 161.395 76.2841 161.395 75.6818C161.395 75.1894 161.533 74.7538 161.81 74.375C162.09 73.9962 162.471 73.6989 162.952 73.483C163.437 73.267 163.986 73.1591 164.599 73.1591C165.463 73.1591 166.141 73.3485 166.634 73.7273C167.13 74.1061 167.482 74.6061 167.69 75.2273ZM171.209 70.3636V82H169.868V70.3636H171.209ZM177.21 82.1818C176.422 82.1818 175.731 81.9943 175.136 81.6193C174.545 81.2443 174.083 80.7197 173.75 80.0455C173.42 79.3712 173.256 78.5833 173.256 77.6818C173.256 76.7727 173.42 75.9792 173.75 75.3011C174.083 74.6231 174.545 74.0966 175.136 73.7216C175.731 73.3466 176.422 73.1591 177.21 73.1591C177.998 73.1591 178.688 73.3466 179.278 73.7216C179.873 74.0966 180.335 74.6231 180.665 75.3011C180.998 75.9792 181.165 76.7727 181.165 77.6818C181.165 78.5833 180.998 79.3712 180.665 80.0455C180.335 80.7197 179.873 81.2443 179.278 81.6193C178.688 81.9943 177.998 82.1818 177.21 82.1818ZM177.21 80.9773C177.809 80.9773 178.301 80.8239 178.688 80.517C179.074 80.2102 179.36 79.8068 179.545 79.3068C179.731 78.8068 179.824 78.2652 179.824 77.6818C179.824 77.0985 179.731 76.5549 179.545 76.0511C179.36 75.5473 179.074 75.1402 178.688 74.8295C178.301 74.5189 177.809 74.3636 177.21 74.3636C176.612 74.3636 176.119 74.5189 175.733 74.8295C175.347 75.1402 175.061 75.5473 174.875 76.0511C174.689 76.5549 174.597 77.0985 174.597 77.6818C174.597 78.2652 174.689 78.8068 174.875 79.3068C175.061 79.8068 175.347 80.2102 175.733 80.517C176.119 80.8239 176.612 80.9773 177.21 80.9773ZM187.007 73.2727V74.4091H182.484V73.2727H187.007ZM183.803 71.1818H185.143V79.5C185.143 79.8788 185.198 80.1629 185.308 80.3523C185.422 80.5379 185.566 80.6629 185.74 80.7273C185.918 80.7879 186.106 80.8182 186.303 80.8182C186.45 80.8182 186.571 80.8106 186.666 80.7955C186.761 80.7765 186.837 80.7614 186.893 80.75L187.166 81.9545C187.075 81.9886 186.948 82.0227 186.786 82.0568C186.623 82.0947 186.416 82.1136 186.166 82.1136C185.787 82.1136 185.416 82.0322 185.053 81.8693C184.693 81.7064 184.393 81.4583 184.155 81.125C183.92 80.7917 183.803 80.3712 183.803 79.8636V71.1818ZM190.553 76.75V82H189.212V70.3636H190.553V74.6364H190.666C190.871 74.1856 191.178 73.8277 191.587 73.5625C192 73.2936 192.549 73.1591 193.234 73.1591C193.829 73.1591 194.35 73.2784 194.797 73.517C195.244 73.7519 195.59 74.1136 195.837 74.6023C196.087 75.0871 196.212 75.7045 196.212 76.4545V82H194.871V76.5455C194.871 75.8523 194.691 75.3163 194.331 74.9375C193.975 74.5549 193.481 74.3636 192.848 74.3636C192.409 74.3636 192.015 74.4564 191.666 74.642C191.321 74.8277 191.049 75.0985 190.848 75.4545C190.651 75.8106 190.553 76.2424 190.553 76.75ZM204.847 75.2273L203.642 75.5682C203.566 75.3674 203.455 75.1723 203.307 74.983C203.163 74.7898 202.966 74.6307 202.716 74.5057C202.466 74.3807 202.146 74.3182 201.756 74.3182C201.222 74.3182 200.777 74.4413 200.42 74.6875C200.068 74.9299 199.892 75.2386 199.892 75.6136C199.892 75.947 200.013 76.2102 200.256 76.4034C200.498 76.5966 200.877 76.7576 201.392 76.8864L202.688 77.2045C203.468 77.3939 204.049 77.6837 204.432 78.0739C204.814 78.4602 205.006 78.9583 205.006 79.5682C205.006 80.0682 204.862 80.5152 204.574 80.9091C204.29 81.303 203.892 81.6136 203.381 81.8409C202.869 82.0682 202.275 82.1818 201.597 82.1818C200.706 82.1818 199.97 81.9886 199.386 81.6023C198.803 81.2159 198.434 80.6515 198.278 79.9091L199.551 79.5909C199.672 80.0606 199.902 80.4129 200.239 80.6477C200.58 80.8826 201.025 81 201.574 81C202.199 81 202.695 80.8674 203.062 80.6023C203.434 80.3333 203.619 80.0114 203.619 79.6364C203.619 79.3333 203.513 79.0795 203.301 78.875C203.089 78.6667 202.763 78.5114 202.324 78.4091L200.869 78.0682C200.07 77.8788 199.483 77.5852 199.108 77.1875C198.737 76.786 198.551 76.2841 198.551 75.6818C198.551 75.1894 198.689 74.7538 198.966 74.375C199.246 73.9962 199.627 73.6989 200.108 73.483C200.593 73.267 201.142 73.1591 201.756 73.1591C202.619 73.1591 203.297 73.3485 203.79 73.7273C204.286 74.1061 204.638 74.6061 204.847 75.2273Z" fill="#A040FF"/>
<path d="M212.865 76.75V82H211.524V70.3636H212.865V74.6364H212.979C213.183 74.1856 213.49 73.8277 213.899 73.5625C214.312 73.2936 214.861 73.1591 215.547 73.1591C216.142 73.1591 216.662 73.2784 217.109 73.517C217.556 73.7519 217.903 74.1136 218.149 74.6023C218.399 75.0871 218.524 75.7045 218.524 76.4545V82H217.183V76.5455C217.183 75.8523 217.003 75.3163 216.643 74.9375C216.287 74.5549 215.793 74.3636 215.161 74.3636C214.721 74.3636 214.327 74.4564 213.979 74.642C213.634 74.8277 213.361 75.0985 213.161 75.4545C212.964 75.8106 212.865 76.2424 212.865 76.75ZM224.636 82.1818C223.795 82.1818 223.07 81.9962 222.46 81.625C221.854 81.25 221.386 80.7273 221.057 80.0568C220.731 79.3826 220.568 78.5985 220.568 77.7045C220.568 76.8106 220.731 76.0227 221.057 75.3409C221.386 74.6553 221.845 74.1212 222.432 73.7386C223.023 73.3523 223.712 73.1591 224.5 73.1591C224.955 73.1591 225.403 73.2348 225.847 73.3864C226.29 73.5379 226.693 73.7841 227.057 74.125C227.42 74.4621 227.71 74.9091 227.926 75.4659C228.142 76.0227 228.25 76.7083 228.25 77.5227V78.0909H221.523V76.9318H226.886C226.886 76.4394 226.788 76 226.591 75.6136C226.398 75.2273 226.121 74.9223 225.761 74.6989C225.405 74.4754 224.985 74.3636 224.5 74.3636C223.966 74.3636 223.504 74.4962 223.114 74.7614C222.727 75.0227 222.43 75.3636 222.222 75.7841C222.013 76.2045 221.909 76.6553 221.909 77.1364V77.9091C221.909 78.5682 222.023 79.1269 222.25 79.5852C222.481 80.0398 222.801 80.3864 223.21 80.625C223.619 80.8598 224.095 80.9773 224.636 80.9773C224.989 80.9773 225.307 80.928 225.591 80.8295C225.879 80.7273 226.127 80.5758 226.335 80.375C226.544 80.1705 226.705 79.9167 226.818 79.6136L228.114 79.9773C227.977 80.4167 227.748 80.803 227.426 81.1364C227.104 81.4659 226.706 81.7235 226.233 81.9091C225.759 82.0909 225.227 82.1818 224.636 82.1818ZM231.631 70.3636V82H230.29V70.3636H231.631ZM234.087 85.2727V73.2727H235.382V74.6591H235.541C235.64 74.5076 235.776 74.3144 235.95 74.0795C236.128 73.8409 236.382 73.6288 236.712 73.4432C237.045 73.2538 237.496 73.1591 238.064 73.1591C238.799 73.1591 239.446 73.3428 240.007 73.7102C240.568 74.0777 241.005 74.5985 241.32 75.2727C241.634 75.947 241.791 76.7424 241.791 77.6591C241.791 78.5833 241.634 79.3845 241.32 80.0625C241.005 80.7367 240.57 81.2595 240.013 81.6307C239.456 81.9981 238.814 82.1818 238.087 82.1818C237.526 82.1818 237.077 82.089 236.74 81.9034C236.403 81.714 236.143 81.5 235.962 81.2614C235.78 81.0189 235.64 80.8182 235.541 80.6591H235.428V85.2727H234.087ZM235.405 77.6364C235.405 78.2955 235.501 78.8769 235.695 79.3807C235.888 79.8807 236.17 80.2727 236.541 80.5568C236.912 80.8371 237.367 80.9773 237.905 80.9773C238.465 80.9773 238.933 80.8295 239.308 80.5341C239.687 80.2348 239.971 79.8333 240.161 79.3295C240.354 78.822 240.45 78.2576 240.45 77.6364C240.45 77.0227 240.356 76.4697 240.166 75.9773C239.981 75.4811 239.698 75.089 239.32 74.8011C238.945 74.5095 238.473 74.3636 237.905 74.3636C237.359 74.3636 236.901 74.5019 236.53 74.7784C236.159 75.0511 235.878 75.4337 235.689 75.9261C235.5 76.4148 235.405 76.9848 235.405 77.6364ZM248.337 82V73.2727H249.632V74.6364H249.746C249.928 74.1705 250.221 73.8087 250.626 73.5511C251.032 73.2898 251.518 73.1591 252.087 73.1591C252.662 73.1591 253.142 73.2898 253.524 73.5511C253.911 73.8087 254.212 74.1705 254.428 74.6364H254.518C254.742 74.1856 255.077 73.8277 255.524 73.5625C255.971 73.2936 256.507 73.1591 257.132 73.1591C257.912 73.1591 258.551 73.4034 259.047 73.892C259.543 74.3769 259.791 75.1326 259.791 76.1591V82H258.45V76.1591C258.45 75.5152 258.274 75.0549 257.922 74.7784C257.57 74.5019 257.155 74.3636 256.678 74.3636C256.064 74.3636 255.589 74.5492 255.251 74.9205C254.914 75.2879 254.746 75.7538 254.746 76.3182V82H253.382V76.0227C253.382 75.5265 253.221 75.1269 252.899 74.8239C252.577 74.517 252.162 74.3636 251.655 74.3636C251.306 74.3636 250.981 74.4564 250.678 74.642C250.378 74.8277 250.136 75.0852 249.95 75.4148C249.768 75.7405 249.678 76.1174 249.678 76.5455V82H248.337ZM265.902 82.1818C265.061 82.1818 264.336 81.9962 263.726 81.625C263.12 81.25 262.652 80.7273 262.322 80.0568C261.997 79.3826 261.834 78.5985 261.834 77.7045C261.834 76.8106 261.997 76.0227 262.322 75.3409C262.652 74.6553 263.11 74.1212 263.697 73.7386C264.288 73.3523 264.978 73.1591 265.766 73.1591C266.22 73.1591 266.669 73.2348 267.112 73.3864C267.555 73.5379 267.959 73.7841 268.322 74.125C268.686 74.4621 268.976 74.9091 269.192 75.4659C269.408 76.0227 269.516 76.7083 269.516 77.5227V78.0909H262.788V76.9318H268.152C268.152 76.4394 268.054 76 267.857 75.6136C267.663 75.2273 267.387 74.9223 267.027 74.6989C266.671 74.4754 266.25 74.3636 265.766 74.3636C265.232 74.3636 264.769 74.4962 264.379 74.7614C263.993 75.0227 263.696 75.3636 263.487 75.7841C263.279 76.2045 263.175 76.6553 263.175 77.1364V77.9091C263.175 78.5682 263.288 79.1269 263.516 79.5852C263.747 80.0398 264.067 80.3864 264.476 80.625C264.885 80.8598 265.36 80.9773 265.902 80.9773C266.254 80.9773 266.572 80.928 266.857 80.8295C267.144 80.7273 267.393 80.5758 267.601 80.375C267.809 80.1705 267.97 79.9167 268.084 79.6136L269.379 79.9773C269.243 80.4167 269.014 80.803 268.692 81.1364C268.37 81.4659 267.972 81.7235 267.499 81.9091C267.025 82.0909 266.493 82.1818 265.902 82.1818ZM276.055 85.2727V73.2727H277.351V74.6591H277.51C277.608 74.5076 277.745 74.3144 277.919 74.0795C278.097 73.8409 278.351 73.6288 278.68 73.4432C279.014 73.2538 279.464 73.1591 280.033 73.1591C280.768 73.1591 281.415 73.3428 281.976 73.7102C282.536 74.0777 282.974 74.5985 283.288 75.2727C283.603 75.947 283.76 76.7424 283.76 77.6591C283.76 78.5833 283.603 79.3845 283.288 80.0625C282.974 80.7367 282.538 81.2595 281.982 81.6307C281.425 81.9981 280.783 82.1818 280.055 82.1818C279.495 82.1818 279.046 82.089 278.709 81.9034C278.372 81.714 278.112 81.5 277.93 81.2614C277.749 81.0189 277.608 80.8182 277.51 80.6591H277.396V85.2727H276.055ZM277.374 77.6364C277.374 78.2955 277.47 78.8769 277.663 79.3807C277.857 79.8807 278.139 80.2727 278.51 80.5568C278.881 80.8371 279.336 80.9773 279.874 80.9773C280.434 80.9773 280.902 80.8295 281.277 80.5341C281.656 80.2348 281.94 79.8333 282.129 79.3295C282.322 78.822 282.419 78.2576 282.419 77.6364C282.419 77.0227 282.324 76.4697 282.135 75.9773C281.949 75.4811 281.667 75.089 281.288 74.8011C280.913 74.5095 280.442 74.3636 279.874 74.3636C279.328 74.3636 278.87 74.5019 278.499 74.7784C278.127 75.0511 277.847 75.4337 277.658 75.9261C277.468 76.4148 277.374 76.9848 277.374 77.6364ZM287.146 70.3636V82H285.805V70.3636H287.146ZM295.784 75.2273L294.58 75.5682C294.504 75.3674 294.392 75.1723 294.244 74.983C294.1 74.7898 293.903 74.6307 293.653 74.5057C293.403 74.3807 293.083 74.3182 292.693 74.3182C292.159 74.3182 291.714 74.4413 291.358 74.6875C291.006 74.9299 290.83 75.2386 290.83 75.6136C290.83 75.947 290.951 76.2102 291.193 76.4034C291.436 76.5966 291.814 76.7576 292.33 76.8864L293.625 77.2045C294.405 77.3939 294.987 77.6837 295.369 78.0739C295.752 78.4602 295.943 78.9583 295.943 79.5682C295.943 80.0682 295.799 80.5152 295.511 80.9091C295.227 81.303 294.83 81.6136 294.318 81.8409C293.807 82.0682 293.212 82.1818 292.534 82.1818C291.644 82.1818 290.907 81.9886 290.324 81.6023C289.741 81.2159 289.371 80.6515 289.216 79.9091L290.489 79.5909C290.61 80.0606 290.839 80.4129 291.176 80.6477C291.517 80.8826 291.962 81 292.511 81C293.136 81 293.633 80.8674 294 80.6023C294.371 80.3333 294.557 80.0114 294.557 79.6364C294.557 79.3333 294.451 79.0795 294.239 78.875C294.027 78.6667 293.701 78.5114 293.261 78.4091L291.807 78.0682C291.008 77.8788 290.42 77.5852 290.045 77.1875C289.674 76.786 289.489 76.2841 289.489 75.6818C289.489 75.1894 289.627 74.7538 289.903 74.375C290.184 73.9962 290.564 73.6989 291.045 73.483C291.53 73.267 292.08 73.1591 292.693 73.1591C293.557 73.1591 294.235 73.3485 294.727 73.7273C295.223 74.1061 295.576 74.6061 295.784 75.2273ZM299.962 80.4091L299.871 81.0227C299.806 81.4545 299.708 81.9167 299.575 82.4091C299.446 82.9015 299.312 83.3655 299.172 83.8011C299.032 84.2367 298.916 84.5833 298.825 84.8409H297.803C297.852 84.5985 297.916 84.2784 297.996 83.8807C298.075 83.483 298.155 83.0379 298.234 82.5455C298.318 82.0568 298.386 81.5568 298.439 81.0455L298.507 80.4091H299.962ZM307.128 82V70.3636H308.469V74.6591H308.582C308.681 74.5076 308.817 74.3144 308.991 74.0795C309.17 73.8409 309.423 73.6288 309.753 73.4432C310.086 73.2538 310.537 73.1591 311.105 73.1591C311.84 73.1591 312.488 73.3428 313.048 73.7102C313.609 74.0777 314.046 74.5985 314.361 75.2727C314.675 75.947 314.832 76.7424 314.832 77.6591C314.832 78.5833 314.675 79.3845 314.361 80.0625C314.046 80.7367 313.611 81.2595 313.054 81.6307C312.497 81.9981 311.855 82.1818 311.128 82.1818C310.567 82.1818 310.118 82.089 309.781 81.9034C309.444 81.714 309.185 81.5 309.003 81.2614C308.821 81.0189 308.681 80.8182 308.582 80.6591H308.423V82H307.128ZM308.446 77.6364C308.446 78.2955 308.543 78.8769 308.736 79.3807C308.929 79.8807 309.211 80.2727 309.582 80.5568C309.954 80.8371 310.408 80.9773 310.946 80.9773C311.507 80.9773 311.974 80.8295 312.349 80.5341C312.728 80.2348 313.012 79.8333 313.202 79.3295C313.395 78.822 313.491 78.2576 313.491 77.6364C313.491 77.0227 313.397 76.4697 313.207 75.9773C313.022 75.4811 312.74 75.089 312.361 74.8011C311.986 74.5095 311.514 74.3636 310.946 74.3636C310.401 74.3636 309.942 74.5019 309.571 74.7784C309.2 75.0511 308.92 75.4337 308.73 75.9261C308.541 76.4148 308.446 76.9848 308.446 77.6364ZM322.384 78.4318V73.2727H323.724V82H322.384V80.5227H322.293C322.088 80.9659 321.77 81.3428 321.338 81.6534C320.906 81.9602 320.361 82.1136 319.702 82.1136C319.156 82.1136 318.671 81.9943 318.247 81.7557C317.823 81.5133 317.49 81.1496 317.247 80.6648C317.005 80.1761 316.884 79.5606 316.884 78.8182V73.2727H318.224V78.7273C318.224 79.3636 318.402 79.8712 318.759 80.25C319.118 80.6288 319.577 80.8182 320.134 80.8182C320.467 80.8182 320.806 80.733 321.151 80.5625C321.499 80.392 321.791 80.1307 322.026 79.7784C322.264 79.4261 322.384 78.9773 322.384 78.4318ZM329.476 82.1818C328.749 82.1818 328.107 81.9981 327.55 81.6307C326.993 81.2595 326.557 80.7367 326.243 80.0625C325.929 79.3845 325.771 78.5833 325.771 77.6591C325.771 76.7424 325.929 75.947 326.243 75.2727C326.557 74.5985 326.995 74.0777 327.555 73.7102C328.116 73.3428 328.764 73.1591 329.499 73.1591C330.067 73.1591 330.516 73.2538 330.845 73.4432C331.179 73.6288 331.432 73.8409 331.607 74.0795C331.785 74.3144 331.923 74.5076 332.021 74.6591H332.135V70.3636H333.476V82H332.18V80.6591H332.021C331.923 80.8182 331.783 81.0189 331.601 81.2614C331.419 81.5 331.16 81.714 330.822 81.9034C330.485 82.089 330.036 82.1818 329.476 82.1818ZM329.658 80.9773C330.196 80.9773 330.65 80.8371 331.021 80.5568C331.393 80.2727 331.675 79.8807 331.868 79.3807C332.061 78.8769 332.158 78.2955 332.158 77.6364C332.158 76.9848 332.063 76.4148 331.874 75.9261C331.684 75.4337 331.404 75.0511 331.033 74.7784C330.661 74.5019 330.203 74.3636 329.658 74.3636C329.089 74.3636 328.616 74.5095 328.237 74.8011C327.862 75.089 327.58 75.4811 327.391 75.9773C327.205 76.4697 327.112 77.0227 327.112 77.6364C327.112 78.2576 327.207 78.822 327.396 79.3295C327.589 79.8333 327.874 80.2348 328.249 80.5341C328.627 80.8295 329.097 80.9773 329.658 80.9773ZM339.413 82.1818C338.686 82.1818 338.044 81.9981 337.487 81.6307C336.93 81.2595 336.495 80.7367 336.18 80.0625C335.866 79.3845 335.709 78.5833 335.709 77.6591C335.709 76.7424 335.866 75.947 336.18 75.2727C336.495 74.5985 336.932 74.0777 337.493 73.7102C338.054 73.3428 338.701 73.1591 339.436 73.1591C340.004 73.1591 340.453 73.2538 340.783 73.4432C341.116 73.6288 341.37 73.8409 341.544 74.0795C341.722 74.3144 341.86 74.5076 341.959 74.6591H342.072V70.3636H343.413V82H342.118V80.6591H341.959C341.86 80.8182 341.72 81.0189 341.538 81.2614C341.357 81.5 341.097 81.714 340.76 81.9034C340.423 82.089 339.974 82.1818 339.413 82.1818ZM339.595 80.9773C340.133 80.9773 340.588 80.8371 340.959 80.5568C341.33 80.2727 341.612 79.8807 341.805 79.3807C341.999 78.8769 342.095 78.2955 342.095 77.6364C342.095 76.9848 342 76.4148 341.811 75.9261C341.622 75.4337 341.341 75.0511 340.97 74.7784C340.599 74.5019 340.141 74.3636 339.595 74.3636C339.027 74.3636 338.554 74.5095 338.175 74.8011C337.8 75.089 337.518 75.4811 337.328 75.9773C337.143 76.4697 337.05 77.0227 337.05 77.6364C337.05 78.2576 337.144 78.822 337.334 79.3295C337.527 79.8333 337.811 80.2348 338.186 80.5341C338.565 80.8295 339.035 80.9773 339.595 80.9773ZM346.919 85.2727C346.692 85.2727 346.489 85.2538 346.311 85.2159C346.133 85.1818 346.01 85.1477 345.942 85.1136L346.283 83.9318C346.608 84.0152 346.896 84.0455 347.146 84.0227C347.396 84 347.618 83.8883 347.811 83.6875C348.008 83.4905 348.188 83.1705 348.351 82.7273L348.601 82.0455L345.374 73.2727H346.828L349.237 80.2273H349.328L351.737 73.2727H353.192L349.487 83.2727C349.321 83.7235 349.114 84.0966 348.868 84.392C348.622 84.6913 348.336 84.9129 348.01 85.0568C347.688 85.2008 347.324 85.2727 346.919 85.2727Z" fill="white"/>
</g>
<rect x="67" y="0.5" width="517" height="101" rx="11.5" stroke="url(#paint0_linear_240_1055)"/>
<rect x="67" y="0.5" width="517" height="101" rx="11.5" stroke="#3D3D3D"/>
<defs>
<linearGradient id="paint0_linear_240_1055" x1="325.5" y1="0" x2="325.5" y2="102" gradientUnits="userSpaceOnUse">
<stop stop-color="#3D3D3D"/>
<stop offset="1" stop-color="#101010"/>
</linearGradient>
<clipPath id="clip0_240_1055">
<rect width="56" height="56" fill="white" transform="translate(0.5)"/>
</clipPath>
<clipPath id="clip1_240_1055">
<rect width="49.205" height="41.2385" fill="white" transform="translate(4.01465 7.49805)"/>
</clipPath>
<clipPath id="clip2_240_1055">
<rect x="66.5" width="518" height="102" rx="12" fill="white"/>
</clipPath>
</defs>
</svg>
