<svg width="342" height="108" viewBox="0 0 342 108" fill="none" xmlns="http://www.w3.org/2000/svg">
<g clip-path="url(#clip0_2023_1296)">
<rect width="342" height="108" rx="12" fill="#161616"/>
<rect width="342" height="56" fill="#222222"/>
<rect width="342" height="56" stroke="#313131"/>
<g clip-path="url(#clip1_2023_1296)">
<rect x="16" y="12" width="32" height="32" rx="16" fill="#FF5555"/>
<g clip-path="url(#clip2_2023_1296)">
<path d="M31.9854 38.2706C37.8425 38.2706 42.5905 33.5909 42.5905 27.8182C42.5905 22.0454 37.8425 17.3657 31.9854 17.3657C26.1284 17.3657 21.3804 22.0454 21.3804 27.8182C21.3804 33.5909 26.1284 38.2706 31.9854 38.2706Z" fill="#C7B299" stroke="#161616" stroke-width="0.133891" stroke-miterlimit="10"/>
<path d="M20.1741 28.7353C20.1741 21.9146 25.0828 16.2847 32.6059 16.2847C39.6341 16.2847 44.0204 21.2182 44.0204 27.4003C44.0204 34.2196 39.1118 39.851 31.6478 39.851C24.5893 39.851 20.1756 34.9174 20.1756 28.7353H20.1741ZM31.7632 38.0503C37.8911 38.0503 41.8128 33.32 41.8128 27.5156C41.8128 26.0408 41.7825 21.8713 38.6933 20.2335C35.9447 18.7774 32.805 20.4022 32.4197 20.6098C31.782 20.2552 29.1646 18.8898 26.5805 19.8818C22.2894 21.5282 22.3832 28.0289 22.3832 28.6186C22.3832 33.901 25.9557 38.0503 31.7647 38.0503H31.7632Z" fill="#161616"/>
<path d="M25.204 32.1162C25.204 32.3483 28.1835 33.8433 31.9292 33.8433C35.6749 33.8433 38.7669 32.3483 38.7669 32.1162C38.7669 31.8841 35.6734 33.0028 31.9292 33.0028C28.1835 33.0028 25.204 31.8841 25.204 32.1162Z" fill="#161616"/>
<path d="M31.9133 32.5761C33.2282 32.5761 34.294 31.866 34.294 30.9902C34.294 30.1143 33.2282 29.4043 31.9133 29.4043C30.5985 29.4043 29.5326 30.1143 29.5326 30.9902C29.5326 31.866 30.5985 32.5761 31.9133 32.5761Z" fill="#161616"/>
<path d="M31.2856 31.5554C31.2395 31.6592 31.0389 31.7097 30.8398 31.6679C30.6407 31.6261 30.5166 31.5093 30.5642 31.4055C30.6118 31.3017 30.8109 31.2512 31.0101 31.293C31.2092 31.3348 31.3333 31.4516 31.2856 31.5554Z" fill="white"/>
<path d="M32.5857 31.5554C32.6318 31.6592 32.8324 31.7097 33.0315 31.6679C33.2306 31.6261 33.3547 31.5093 33.3071 31.4055C33.2595 31.3017 33.0604 31.2512 32.8613 31.293C32.6622 31.3348 32.5381 31.4516 32.5857 31.5554Z" fill="white"/>
<path d="M27.2456 28.6961C28.1405 28.6961 28.866 27.9712 28.866 27.0771C28.866 26.1829 28.1405 25.458 27.2456 25.458C26.3507 25.458 25.6253 26.1829 25.6253 27.0771C25.6253 27.9712 26.3507 28.6961 27.2456 28.6961Z" fill="white" stroke="#161616" stroke-width="0.133891" stroke-miterlimit="10"/>
<path d="M27.2456 28.2263C27.8807 28.2263 28.3956 27.7119 28.3956 27.0773C28.3956 26.4427 27.8807 25.9282 27.2456 25.9282C26.6105 25.9282 26.0957 26.4427 26.0957 27.0773C26.0957 27.7119 26.6105 28.2263 27.2456 28.2263Z" fill="#161616" stroke="#161616" stroke-width="0.133891" stroke-miterlimit="10"/>
<path d="M26.618 27.1293C26.7622 27.1293 26.8791 27.0125 26.8791 26.8684C26.8791 26.7243 26.7622 26.6074 26.618 26.6074C26.4737 26.6074 26.3568 26.7243 26.3568 26.8684C26.3568 27.0125 26.4737 27.1293 26.618 27.1293Z" fill="white"/>
<path d="M36.7685 28.6961C37.6634 28.6961 38.3889 27.9712 38.3889 27.0771C38.3889 26.1829 37.6634 25.458 36.7685 25.458C35.8737 25.458 35.1482 26.1829 35.1482 27.0771C35.1482 27.9712 35.8737 28.6961 36.7685 28.6961Z" fill="white" stroke="#101010" stroke-width="0.133891" stroke-miterlimit="10"/>
<path d="M36.7686 28.2263C37.4037 28.2263 37.9185 27.7119 37.9185 27.0773C37.9185 26.4427 37.4037 25.9282 36.7686 25.9282C36.1334 25.9282 35.6186 26.4427 35.6186 27.0773C35.6186 27.7119 36.1334 28.2263 36.7686 28.2263Z" fill="#161616" stroke="#161616" stroke-width="0.133891" stroke-miterlimit="10"/>
<path d="M36.1409 27.1293C36.2851 27.1293 36.4021 27.0125 36.4021 26.8684C36.4021 26.7243 36.2851 26.6074 36.1409 26.6074C35.9967 26.6074 35.8797 26.7243 35.8797 26.8684C35.8797 27.0125 35.9967 27.1293 36.1409 27.1293Z" fill="white"/>
<path d="M46.1255 24.1548H45.5484H44.8933H43.6597L32.805 24.1591H32.5626H31.3304H30.0967L20.4742 24.162H19.2406H18.0069V25.3947V26.6273H19.2406V27.86H20.4742V29.0912H21.7079V30.321H22.9415V30.8689V30.9366V31.5522H24.1752H25.4089H26.6425H27.8762V30.9381V30.3224H29.1098V29.0898H30.342V27.8586H32.8079V26.6259H31.5742H32.0691H32.8064V25.3932V26.6244V27.8557H34.0401V29.0869H35.2723V30.3167H36.5045V31.5493H37.4958V31.5522H38.7294H39.9631H41.1967V30.9366V30.321V30.3167H42.4289V29.0855H43.6611V27.8528H44.8933V26.6244H46.127V24.1577L46.1255 24.1548ZM36.9446 30.3167H37.1855H36.6156H36.9431H36.9446Z" fill="#161616"/>
<path d="M23.5304 26.3864L22.297 26.4092L22.3198 27.6416L23.5532 27.6188L23.5304 26.3864Z" fill="white"/>
<path d="M24.7848 27.5973L23.5514 27.6201L23.5742 28.8526L24.8076 28.8298L24.7848 27.5973Z" fill="white"/>
<path d="M22.2746 25.1774L21.0411 25.2002L21.064 26.4327L22.2974 26.4098L22.2746 25.1774Z" fill="white"/>
<path d="M36.847 26.1417L35.6136 26.1646L35.6364 27.397L36.8698 27.3742L36.847 26.1417Z" fill="white"/>
<path d="M38.1042 27.3498L36.8708 27.3726L36.8936 28.605L38.1271 28.5822L38.1042 27.3498Z" fill="white"/>
<path d="M35.5926 24.9313L34.3592 24.9541L34.382 26.1866L35.6154 26.1638L35.5926 24.9313Z" fill="white"/>
<path d="M23.5304 26.3864L22.297 26.4092L22.3198 27.6416L23.5532 27.6188L23.5304 26.3864Z" fill="white"/>
<path d="M24.7848 27.5973L23.5514 27.6201L23.5742 28.8526L24.8076 28.8298L24.7848 27.5973Z" fill="white"/>
<path d="M22.2501 25.1778L21.0397 25.2002L21.0621 26.4096L22.2725 26.3872L22.2501 25.1778Z" fill="white"/>
<path d="M25.9936 26.3424L24.7601 26.3652L24.783 27.5977L26.0164 27.5749L25.9936 26.3424Z" fill="white"/>
<path d="M27.2508 27.5504L26.0174 27.5732L26.0402 28.8057L27.2736 28.7829L27.2508 27.5504Z" fill="white"/>
<path d="M24.7392 25.133L23.5058 25.1558L23.5286 26.3882L24.762 26.3654L24.7392 25.133Z" fill="white"/>
<path d="M39.3131 26.0963L38.0796 26.1191L38.1024 27.3516L39.3359 27.3288L39.3131 26.0963Z" fill="white"/>
<path d="M40.5689 27.3039L39.3354 27.3267L39.3582 28.5591L40.5917 28.5363L40.5689 27.3039Z" fill="white"/>
<path d="M38.0587 24.8869L36.8252 24.9097L36.848 26.1421L38.0815 26.1193L38.0587 24.8869Z" fill="white"/>
</g>
</g>
<path d="M62.2159 33.6541C61.4768 33.6541 60.8404 33.4867 60.3068 33.152C59.7765 32.8139 59.3688 32.3482 59.0838 31.755C58.7988 31.1617 58.6562 30.4822 58.6562 29.7166C58.6562 28.9411 58.8021 28.2566 59.0938 27.6634C59.3854 27.0668 59.7964 26.6011 60.3267 26.2663C60.857 25.9316 61.4818 25.7642 62.201 25.7642C62.781 25.7642 63.2981 25.8719 63.7521 26.0874C64.2062 26.2995 64.5724 26.5978 64.8509 26.9822C65.1326 27.3667 65.3 27.8158 65.353 28.3295H63.9062C63.8267 27.9716 63.6444 27.6634 63.3594 27.4048C63.0777 27.1463 62.6998 27.017 62.2259 27.017C61.8116 27.017 61.4486 27.1264 61.1371 27.3452C60.8288 27.5606 60.5885 27.8688 60.4162 28.2699C60.2438 28.6676 60.1577 29.1383 60.1577 29.6818C60.1577 30.2386 60.2422 30.7192 60.4112 31.1236C60.5803 31.5279 60.8189 31.8411 61.1271 32.0632C61.4387 32.2853 61.8049 32.3963 62.2259 32.3963C62.5076 32.3963 62.7628 32.3449 62.9915 32.2422C63.2235 32.1361 63.4174 31.9853 63.5732 31.7898C63.7322 31.5942 63.8433 31.3589 63.9062 31.0838H65.353C65.3 31.5777 65.1392 32.0185 64.8707 32.4062C64.6023 32.794 64.2427 33.099 63.7919 33.321C63.3445 33.5431 62.8191 33.6541 62.2159 33.6541ZM70.1593 33.6541C69.4434 33.6541 68.8186 33.4901 68.285 33.1619C67.7514 32.8338 67.3371 32.3748 67.0421 31.7848C66.7471 31.1948 66.5996 30.5054 66.5996 29.7166C66.5996 28.9245 66.7471 28.2318 67.0421 27.6385C67.3371 27.0452 67.7514 26.5845 68.285 26.2564C68.8186 25.9283 69.4434 25.7642 70.1593 25.7642C70.8752 25.7642 71.4999 25.9283 72.0336 26.2564C72.5672 26.5845 72.9815 27.0452 73.2765 27.6385C73.5714 28.2318 73.7189 28.9245 73.7189 29.7166C73.7189 30.5054 73.5714 31.1948 73.2765 31.7848C72.9815 32.3748 72.5672 32.8338 72.0336 33.1619C71.4999 33.4901 70.8752 33.6541 70.1593 33.6541ZM70.1642 32.4062C70.6283 32.4062 71.0127 32.2836 71.3176 32.0384C71.6226 31.7931 71.848 31.4666 71.9938 31.0589C72.1429 30.6513 72.2175 30.2022 72.2175 29.7116C72.2175 29.2244 72.1429 28.777 71.9938 28.3693C71.848 27.9583 71.6226 27.6286 71.3176 27.38C71.0127 27.1314 70.6283 27.0071 70.1642 27.0071C69.6969 27.0071 69.3091 27.1314 69.0009 27.38C68.696 27.6286 68.4689 27.9583 68.3198 28.3693C68.1739 28.777 68.101 29.2244 68.101 29.7116C68.101 30.2022 68.1739 30.6513 68.3198 31.0589C68.4689 31.4666 68.696 31.7931 69.0009 32.0384C69.3091 32.2836 69.6969 32.4062 70.1642 32.4062ZM76.8647 28.9659V33.5H75.3782V25.8636H76.805V27.1065H76.8995C77.0752 26.7022 77.3503 26.3774 77.7248 26.1321C78.1026 25.8868 78.5782 25.7642 79.1516 25.7642C79.672 25.7642 80.1277 25.8736 80.5188 26.0923C80.9099 26.3078 81.2132 26.6293 81.4286 27.0568C81.6441 27.4844 81.7518 28.013 81.7518 28.6428V33.5H80.2653V28.8217C80.2653 28.2682 80.1211 27.8357 79.8327 27.5241C79.5444 27.2093 79.1483 27.0518 78.6445 27.0518C78.2998 27.0518 77.9933 27.1264 77.7248 27.2756C77.4596 27.4247 77.2492 27.6435 77.0934 27.9318C76.9409 28.2169 76.8647 28.5616 76.8647 28.9659ZM87.31 25.8636V27.0568H83.1388V25.8636H87.31ZM84.2575 24.0341H85.744V31.2578C85.744 31.5462 85.7871 31.7633 85.8732 31.9091C85.9594 32.0516 86.0704 32.1494 86.2063 32.2024C86.3455 32.2521 86.4963 32.277 86.6587 32.277C86.7781 32.277 86.8825 32.2687 86.9719 32.2521C87.0614 32.2356 87.131 32.2223 87.1808 32.2124L87.4492 33.4403C87.363 33.4735 87.2404 33.5066 87.0813 33.5398C86.9222 33.5762 86.7234 33.5961 86.4847 33.5994C86.0936 33.6061 85.729 33.5365 85.391 33.3906C85.0529 33.2448 84.7795 33.0194 84.5707 32.7145C84.3619 32.4096 84.2575 32.0268 84.2575 31.5661V24.0341ZM88.9544 33.5V25.8636H90.3912V27.0767H90.4707C90.6099 26.6657 90.8552 26.3426 91.2065 26.1072C91.5611 25.8686 91.9622 25.7493 92.4096 25.7493C92.5024 25.7493 92.6118 25.7526 92.7377 25.7592C92.867 25.7659 92.9681 25.7741 93.041 25.7841V27.206C92.9814 27.1894 92.8753 27.1712 92.7228 27.1513C92.5704 27.1281 92.4179 27.1165 92.2654 27.1165C91.9141 27.1165 91.6009 27.1911 91.3258 27.3402C91.054 27.486 90.8386 27.6899 90.6795 27.9517C90.5204 28.2102 90.4409 28.5052 90.4409 28.8366V33.5H88.9544ZM94.3274 33.5V25.8636H95.8139V33.5H94.3274ZM95.0781 24.6854C94.8196 24.6854 94.5975 24.5992 94.4119 24.4268C94.2296 24.2512 94.1385 24.0424 94.1385 23.8004C94.1385 23.5552 94.2296 23.3464 94.4119 23.174C94.5975 22.9983 94.8196 22.9105 95.0781 22.9105C95.3366 22.9105 95.5571 22.9983 95.7393 23.174C95.925 23.3464 96.0178 23.5552 96.0178 23.8004C96.0178 24.0424 95.925 24.2512 95.7393 24.4268C95.5571 24.5992 95.3366 24.6854 95.0781 24.6854ZM97.9331 33.5V23.3182H99.4196V27.1016H99.5091C99.5952 26.9425 99.7195 26.7585 99.8819 26.5497C100.044 26.3409 100.27 26.1586 100.558 26.0028C100.846 25.8438 101.228 25.7642 101.702 25.7642C102.318 25.7642 102.868 25.92 103.352 26.2315C103.836 26.5431 104.215 26.9922 104.491 27.5788C104.769 28.1655 104.908 28.8714 104.908 29.6967C104.908 30.522 104.771 31.2296 104.496 31.8196C104.22 32.4062 103.843 32.8587 103.362 33.1768C102.881 33.4917 102.333 33.6491 101.716 33.6491C101.252 33.6491 100.873 33.5713 100.578 33.4155C100.286 33.2597 100.058 33.0774 99.8919 32.8686C99.7261 32.6598 99.5985 32.4742 99.5091 32.3118H99.3848V33.5H97.9331ZM99.3897 29.6818C99.3897 30.2187 99.4676 30.6894 99.6234 31.0938C99.7792 31.4981 100.005 31.8146 100.3 32.0433C100.595 32.2687 100.956 32.3814 101.383 32.3814C101.827 32.3814 102.199 32.2637 102.497 32.0284C102.795 31.7898 103.021 31.4666 103.173 31.0589C103.329 30.6513 103.407 30.1922 103.407 29.6818C103.407 29.178 103.331 28.7256 103.178 28.3246C103.029 27.9235 102.804 27.607 102.502 27.375C102.204 27.143 101.831 27.027 101.383 27.027C100.952 27.027 100.588 27.138 100.29 27.3601C99.9946 27.5821 99.7709 27.892 99.6184 28.2898C99.466 28.6875 99.3897 29.1515 99.3897 29.6818ZM111.415 30.3331V25.8636H112.906V33.5H111.445V32.1776H111.365C111.189 32.5852 110.908 32.925 110.52 33.1967C110.135 33.4652 109.656 33.5994 109.083 33.5994C108.593 33.5994 108.158 33.4917 107.781 33.2763C107.406 33.0575 107.111 32.7344 106.896 32.3068C106.683 31.8793 106.577 31.3506 106.577 30.7209V25.8636H108.064V30.5419C108.064 31.0623 108.208 31.4766 108.496 31.7848C108.785 32.093 109.159 32.2472 109.62 32.2472C109.898 32.2472 110.175 32.1776 110.45 32.0384C110.729 31.8991 110.959 31.6887 111.141 31.407C111.327 31.1252 111.418 30.7673 111.415 30.3331ZM118.468 25.8636V27.0568H114.297V25.8636H118.468ZM115.416 24.0341H116.902V31.2578C116.902 31.5462 116.945 31.7633 117.031 31.9091C117.118 32.0516 117.229 32.1494 117.365 32.2024C117.504 32.2521 117.655 32.277 117.817 32.277C117.936 32.277 118.041 32.2687 118.13 32.2521C118.22 32.2356 118.289 32.2223 118.339 32.2124L118.607 33.4403C118.521 33.4735 118.399 33.5066 118.24 33.5398C118.08 33.5762 117.882 33.5961 117.643 33.5994C117.252 33.6061 116.887 33.5365 116.549 33.3906C116.211 33.2448 115.938 33.0194 115.729 32.7145C115.52 32.4096 115.416 32.0268 115.416 31.5661V24.0341ZM123.247 33.6541C122.531 33.6541 121.906 33.4901 121.373 33.1619C120.839 32.8338 120.425 32.3748 120.13 31.7848C119.835 31.1948 119.688 30.5054 119.688 29.7166C119.688 28.9245 119.835 28.2318 120.13 27.6385C120.425 27.0452 120.839 26.5845 121.373 26.2564C121.906 25.9283 122.531 25.7642 123.247 25.7642C123.963 25.7642 124.588 25.9283 125.121 26.2564C125.655 26.5845 126.069 27.0452 126.364 27.6385C126.659 28.2318 126.807 28.9245 126.807 29.7166C126.807 30.5054 126.659 31.1948 126.364 31.7848C126.069 32.3748 125.655 32.8338 125.121 33.1619C124.588 33.4901 123.963 33.6541 123.247 33.6541ZM123.252 32.4062C123.716 32.4062 124.101 32.2836 124.406 32.0384C124.71 31.7931 124.936 31.4666 125.082 31.0589C125.231 30.6513 125.305 30.2022 125.305 29.7116C125.305 29.2244 125.231 28.777 125.082 28.3693C124.936 27.9583 124.71 27.6286 124.406 27.38C124.101 27.1314 123.716 27.0071 123.252 27.0071C122.785 27.0071 122.397 27.1314 122.089 27.38C121.784 27.6286 121.557 27.9583 121.408 28.3693C121.262 28.777 121.189 29.2244 121.189 29.7116C121.189 30.2022 121.262 30.6513 121.408 31.0589C121.557 31.4666 121.784 31.7931 122.089 32.0384C122.397 32.2836 122.785 32.4062 123.252 32.4062ZM128.466 33.5V25.8636H129.903V27.0767H129.982C130.122 26.6657 130.367 26.3426 130.718 26.1072C131.073 25.8686 131.474 25.7493 131.921 25.7493C132.014 25.7493 132.124 25.7526 132.249 25.7592C132.379 25.7659 132.48 25.7741 132.553 25.7841V27.206C132.493 27.1894 132.387 27.1712 132.235 27.1513C132.082 27.1281 131.93 27.1165 131.777 27.1165C131.426 27.1165 131.113 27.1911 130.838 27.3402C130.566 27.486 130.35 27.6899 130.191 27.9517C130.032 28.2102 129.953 28.5052 129.953 28.8366V33.5H128.466Z" fill="white"/>
<path d="M146.878 33.1477C146.213 33.1477 145.641 32.9908 145.161 32.6768C144.68 32.3629 144.311 31.9305 144.053 31.3796C143.794 30.8287 143.665 30.1993 143.665 29.4915C143.665 28.7713 143.797 28.1358 144.062 27.5849C144.33 27.0309 144.702 26.5985 145.179 26.2876C145.659 25.9737 146.219 25.8168 146.859 25.8168C147.358 25.8168 147.807 25.9091 148.207 26.0938C148.607 26.2784 148.935 26.5369 149.191 26.8693C149.446 27.2017 149.605 27.5895 149.666 28.0327H148.577C148.494 27.7095 148.309 27.4233 148.023 27.174C147.74 26.9216 147.358 26.7955 146.878 26.7955C146.453 26.7955 146.081 26.9062 145.761 27.1278C145.444 27.3464 145.196 27.6557 145.017 28.0558C144.842 28.4528 144.754 28.919 144.754 29.4545C144.754 30.0024 144.84 30.4794 145.013 30.8857C145.188 31.2919 145.434 31.6074 145.751 31.832C146.071 32.0567 146.447 32.169 146.878 32.169C147.161 32.169 147.418 32.1198 147.649 32.0213C147.88 31.9228 148.075 31.7812 148.235 31.5966C148.395 31.4119 148.509 31.1903 148.577 30.9318H149.666C149.605 31.3504 149.452 31.7274 149.209 32.0629C148.969 32.3952 148.651 32.6599 148.254 32.8569C147.86 33.0508 147.401 33.1477 146.878 33.1477ZM154.14 33.1477C153.499 33.1477 152.938 32.9954 152.455 32.6907C151.974 32.386 151.599 31.9598 151.328 31.4119C151.06 30.8641 150.926 30.224 150.926 29.4915C150.926 28.7528 151.06 28.1081 151.328 27.5572C151.599 27.0063 151.974 26.5785 152.455 26.2738C152.938 25.9691 153.499 25.8168 154.14 25.8168C154.78 25.8168 155.34 25.9691 155.82 26.2738C156.303 26.5785 156.679 27.0063 156.946 27.5572C157.217 28.1081 157.353 28.7528 157.353 29.4915C157.353 30.224 157.217 30.8641 156.946 31.4119C156.679 31.9598 156.303 32.386 155.82 32.6907C155.34 32.9954 154.78 33.1477 154.14 33.1477ZM154.14 32.169C154.626 32.169 155.026 32.0444 155.34 31.7951C155.654 31.5458 155.886 31.218 156.037 30.8118C156.188 30.4055 156.263 29.9654 156.263 29.4915C156.263 29.0175 156.188 28.5759 156.037 28.1665C155.886 27.7572 155.654 27.4264 155.34 27.174C155.026 26.9216 154.626 26.7955 154.14 26.7955C153.653 26.7955 153.253 26.9216 152.939 27.174C152.625 27.4264 152.393 27.7572 152.242 28.1665C152.091 28.5759 152.016 29.0175 152.016 29.4915C152.016 29.9654 152.091 30.4055 152.242 30.8118C152.393 31.218 152.625 31.5458 152.939 31.7951C153.253 32.0444 153.653 32.169 154.14 32.169ZM159.016 33V25.9091H160.068V27.017H160.161C160.308 26.6385 160.547 26.3446 160.876 26.1353C161.205 25.9229 161.601 25.8168 162.063 25.8168C162.53 25.8168 162.92 25.9229 163.231 26.1353C163.544 26.3446 163.789 26.6385 163.965 27.017H164.038C164.22 26.6508 164.492 26.36 164.856 26.1445C165.219 25.926 165.654 25.8168 166.162 25.8168C166.796 25.8168 167.315 26.0153 167.718 26.4123C168.121 26.8062 168.323 27.4202 168.323 28.2543V33H167.233V28.2543C167.233 27.7311 167.09 27.3571 166.804 27.1325C166.517 26.9078 166.18 26.7955 165.793 26.7955C165.294 26.7955 164.908 26.9463 164.634 27.2479C164.36 27.5464 164.223 27.925 164.223 28.3835V33H163.115V28.1435C163.115 27.7403 162.984 27.4156 162.723 27.1694C162.461 26.9201 162.124 26.7955 161.712 26.7955C161.429 26.7955 161.164 26.8709 160.918 27.0217C160.675 27.1725 160.478 27.3817 160.327 27.6495C160.179 27.9142 160.105 28.2204 160.105 28.5682V33H159.016ZM170.315 33V25.9091H171.367V27.017H171.459C171.607 26.6385 171.846 26.3446 172.175 26.1353C172.504 25.9229 172.9 25.8168 173.361 25.8168C173.829 25.8168 174.219 25.9229 174.529 26.1353C174.843 26.3446 175.088 26.6385 175.263 27.017H175.337C175.519 26.6508 175.791 26.36 176.154 26.1445C176.518 25.926 176.953 25.8168 177.461 25.8168C178.095 25.8168 178.613 26.0153 179.017 26.4123C179.42 26.8062 179.621 27.4202 179.621 28.2543V33H178.532V28.2543C178.532 27.7311 178.389 27.3571 178.103 27.1325C177.816 26.9078 177.479 26.7955 177.092 26.7955C176.593 26.7955 176.207 26.9463 175.933 27.2479C175.659 27.5464 175.522 27.925 175.522 28.3835V33H174.414V28.1435C174.414 27.7403 174.283 27.4156 174.022 27.1694C173.76 26.9201 173.423 26.7955 173.011 26.7955C172.727 26.7955 172.463 26.8709 172.217 27.0217C171.973 27.1725 171.776 27.3817 171.626 27.6495C171.478 27.9142 171.404 28.2204 171.404 28.5682V33H170.315ZM184.586 33.1477C183.903 33.1477 183.314 32.9969 182.818 32.6953C182.326 32.3906 181.946 31.9659 181.678 31.4212C181.413 30.8733 181.281 30.2363 181.281 29.5099C181.281 28.7836 181.413 28.1435 181.678 27.5895C181.946 27.0324 182.318 26.5985 182.795 26.2876C183.275 25.9737 183.835 25.8168 184.476 25.8168C184.845 25.8168 185.21 25.8783 185.57 26.0014C185.93 26.1245 186.258 26.3246 186.553 26.6016C186.848 26.8755 187.084 27.2386 187.259 27.6911C187.435 28.1435 187.522 28.7005 187.522 29.3622V29.8239H182.057V28.8821H186.415C186.415 28.482 186.334 28.125 186.174 27.8111C186.017 27.4972 185.793 27.2494 185.5 27.0678C185.211 26.8862 184.87 26.7955 184.476 26.7955C184.042 26.7955 183.666 26.9032 183.349 27.1186C183.035 27.331 182.794 27.608 182.624 27.9496C182.455 28.2912 182.37 28.6574 182.37 29.0483V29.6761C182.37 30.2116 182.463 30.6656 182.647 31.038C182.835 31.4073 183.095 31.6889 183.428 31.8828C183.76 32.0736 184.146 32.169 184.586 32.169C184.873 32.169 185.131 32.129 185.362 32.049C185.596 31.9659 185.797 31.8428 185.967 31.6797C186.136 31.5135 186.267 31.3073 186.359 31.0611L187.412 31.3565C187.301 31.7135 187.115 32.0275 186.853 32.2983C186.591 32.5661 186.268 32.7753 185.884 32.9261C185.499 33.0739 185.066 33.1477 184.586 33.1477ZM190.269 28.7344V33H189.18V25.9091H190.232V27.017H190.325C190.491 26.657 190.743 26.3677 191.082 26.1491C191.42 25.9276 191.857 25.8168 192.393 25.8168C192.873 25.8168 193.293 25.9152 193.653 26.1122C194.013 26.3061 194.293 26.6016 194.493 26.9986C194.693 27.3925 194.793 27.8911 194.793 28.4943V33H193.704V28.5682C193.704 28.0111 193.559 27.5772 193.27 27.2663C192.981 26.9524 192.584 26.7955 192.079 26.7955C191.731 26.7955 191.42 26.8709 191.146 27.0217C190.876 27.1725 190.662 27.3925 190.505 27.6818C190.348 27.9711 190.269 28.322 190.269 28.7344ZM199.868 25.9091V26.8324H196.193V25.9091H199.868ZM197.264 24.2102H198.354V30.9688C198.354 31.2765 198.398 31.5073 198.488 31.6612C198.58 31.812 198.697 31.9136 198.839 31.9659C198.983 32.0152 199.136 32.0398 199.296 32.0398C199.416 32.0398 199.514 32.0336 199.591 32.0213C199.668 32.0059 199.73 31.9936 199.776 31.9844L199.997 32.9631C199.923 32.9908 199.82 33.0185 199.688 33.0462C199.556 33.0769 199.388 33.0923 199.185 33.0923C198.877 33.0923 198.575 33.0262 198.28 32.8938C197.988 32.7615 197.744 32.5599 197.551 32.2891C197.36 32.0182 197.264 31.6766 197.264 31.2642V24.2102ZM204.404 33.1477C203.721 33.1477 203.131 32.9969 202.636 32.6953C202.143 32.3906 201.763 31.9659 201.495 31.4212C201.231 30.8733 201.098 30.2363 201.098 29.5099C201.098 28.7836 201.231 28.1435 201.495 27.5895C201.763 27.0324 202.136 26.5985 202.613 26.2876C203.093 25.9737 203.653 25.8168 204.293 25.8168C204.662 25.8168 205.027 25.8783 205.387 26.0014C205.747 26.1245 206.075 26.3246 206.37 26.6016C206.666 26.8755 206.901 27.2386 207.077 27.6911C207.252 28.1435 207.34 28.7005 207.34 29.3622V29.8239H201.874V28.8821H206.232C206.232 28.482 206.152 28.125 205.992 27.8111C205.835 27.4972 205.61 27.2494 205.318 27.0678C205.029 26.8862 204.687 26.7955 204.293 26.7955C203.859 26.7955 203.484 26.9032 203.167 27.1186C202.853 27.331 202.611 27.608 202.442 27.9496C202.272 28.2912 202.188 28.6574 202.188 29.0483V29.6761C202.188 30.2116 202.28 30.6656 202.465 31.038C202.653 31.4073 202.913 31.6889 203.245 31.8828C203.577 32.0736 203.964 32.169 204.404 32.169C204.69 32.169 204.949 32.129 205.179 32.049C205.413 31.9659 205.615 31.8428 205.784 31.6797C205.953 31.5135 206.084 31.3073 206.176 31.0611L207.229 31.3565C207.118 31.7135 206.932 32.0275 206.67 32.2983C206.409 32.5661 206.086 32.7753 205.701 32.9261C205.316 33.0739 204.884 33.1477 204.404 33.1477ZM211.675 33.1477C211.084 33.1477 210.562 32.9985 210.11 32.6999C209.657 32.3983 209.303 31.9736 209.048 31.4258C208.792 30.8749 208.665 30.224 208.665 29.473C208.665 28.7282 208.792 28.0819 209.048 27.5341C209.303 26.9863 209.659 26.5631 210.114 26.2646C210.57 25.966 211.096 25.8168 211.693 25.8168C212.155 25.8168 212.52 25.8937 212.787 26.0476C213.058 26.1984 213.264 26.3707 213.406 26.5646C213.551 26.7554 213.663 26.9124 213.743 27.0355H213.835V23.5455H214.925V33H213.872V31.9105H213.743C213.663 32.0398 213.549 32.2029 213.401 32.3999C213.254 32.5937 213.043 32.7676 212.769 32.9215C212.495 33.0723 212.13 33.1477 211.675 33.1477ZM211.822 32.169C212.259 32.169 212.629 32.0552 212.93 31.8274C213.232 31.5966 213.461 31.2781 213.618 30.8718C213.775 30.4625 213.854 29.9901 213.854 29.4545C213.854 28.9252 213.777 28.462 213.623 28.065C213.469 27.6649 213.241 27.354 212.94 27.1325C212.638 26.9078 212.266 26.7955 211.822 26.7955C211.361 26.7955 210.976 26.9139 210.668 27.1509C210.364 27.3848 210.134 27.7034 209.98 28.1065C209.83 28.5066 209.754 28.956 209.754 29.4545C209.754 29.9593 209.831 30.4179 209.985 30.8303C210.142 31.2396 210.373 31.5658 210.678 31.8089C210.985 32.049 211.367 32.169 211.822 32.169ZM224.033 23.5455V33H222.888V24.7457H222.833L220.525 26.2784V25.1151L222.888 23.5455H224.033ZM233.104 33.1477C232.513 33.1477 231.992 32.9985 231.539 32.6999C231.087 32.3983 230.733 31.9736 230.478 31.4258C230.222 30.8749 230.094 30.224 230.094 29.473C230.094 28.7282 230.222 28.0819 230.478 27.5341C230.733 26.9863 231.089 26.5631 231.544 26.2646C232 25.966 232.526 25.8168 233.123 25.8168C233.585 25.8168 233.949 25.8937 234.217 26.0476C234.488 26.1984 234.694 26.3707 234.836 26.5646C234.98 26.7554 235.093 26.9124 235.173 27.0355H235.265V23.5455H236.354V33H235.302V31.9105H235.173C235.093 32.0398 234.979 32.2029 234.831 32.3999C234.683 32.5937 234.472 32.7676 234.199 32.9215C233.925 33.0723 233.56 33.1477 233.104 33.1477ZM233.252 32.169C233.689 32.169 234.058 32.0552 234.36 31.8274C234.662 31.5966 234.891 31.2781 235.048 30.8718C235.205 30.4625 235.283 29.9901 235.283 29.4545C235.283 28.9252 235.206 28.462 235.053 28.065C234.899 27.6649 234.671 27.354 234.369 27.1325C234.068 26.9078 233.695 26.7955 233.252 26.7955C232.79 26.7955 232.406 26.9139 232.098 27.1509C231.793 27.3848 231.564 27.7034 231.41 28.1065C231.259 28.5066 231.184 28.956 231.184 29.4545C231.184 29.9593 231.261 30.4179 231.415 30.8303C231.572 31.2396 231.803 31.5658 232.107 31.8089C232.415 32.049 232.797 32.169 233.252 32.169ZM240.588 33.1662C240.138 33.1662 239.731 33.0816 239.364 32.9123C238.998 32.7399 238.707 32.4922 238.492 32.169C238.276 31.8428 238.169 31.4489 238.169 30.9872C238.169 30.581 238.249 30.2517 238.409 29.9993C238.569 29.7438 238.783 29.5438 239.05 29.3991C239.318 29.2545 239.614 29.1468 239.937 29.076C240.263 29.0021 240.591 28.9437 240.92 28.9006C241.351 28.8452 241.7 28.8036 241.968 28.7759C242.239 28.7451 242.436 28.6944 242.559 28.6236C242.685 28.5528 242.748 28.4297 242.748 28.2543V28.2173C242.748 27.7618 242.624 27.4079 242.374 27.1555C242.128 26.9032 241.754 26.777 241.252 26.777C240.732 26.777 240.325 26.8909 240.029 27.1186C239.734 27.3464 239.526 27.5895 239.406 27.848L238.372 27.4787C238.556 27.0478 238.803 26.7124 239.11 26.4723C239.421 26.2292 239.76 26.0599 240.126 25.9645C240.495 25.866 240.859 25.8168 241.216 25.8168C241.443 25.8168 241.705 25.8445 242 25.8999C242.299 25.9522 242.587 26.0614 242.864 26.2276C243.144 26.3938 243.376 26.6446 243.561 26.9801C243.745 27.3156 243.838 27.7649 243.838 28.3281V33H242.748V32.0398H242.693C242.619 32.1937 242.496 32.3583 242.324 32.5337C242.151 32.7092 241.922 32.8584 241.636 32.9815C241.349 33.1046 241 33.1662 240.588 33.1662ZM240.754 32.1875C241.185 32.1875 241.548 32.1029 241.843 31.9336C242.142 31.7643 242.367 31.5458 242.517 31.2781C242.671 31.0103 242.748 30.7287 242.748 30.4332V29.4361C242.702 29.4915 242.6 29.5423 242.444 29.5884C242.29 29.6315 242.111 29.67 241.908 29.7038C241.708 29.7346 241.513 29.7623 241.322 29.7869C241.134 29.8085 240.982 29.8269 240.865 29.8423C240.582 29.8793 240.317 29.9393 240.071 30.0224C239.828 30.1024 239.631 30.224 239.48 30.3871C239.332 30.5471 239.258 30.7656 239.258 31.0426C239.258 31.4212 239.398 31.7074 239.678 31.9013C239.961 32.0921 240.32 32.1875 240.754 32.1875ZM246.274 35.6591C246.089 35.6591 245.925 35.6437 245.78 35.6129C245.635 35.5852 245.535 35.5575 245.48 35.5298L245.757 34.5696C246.022 34.6373 246.256 34.6619 246.459 34.6435C246.662 34.625 246.842 34.5342 246.999 34.3711C247.159 34.2111 247.305 33.951 247.437 33.5909L247.641 33.0369L245.018 25.9091H246.2L248.158 31.5597H248.231L250.189 25.9091H251.371L248.361 34.0341C248.225 34.4003 248.058 34.7035 247.858 34.9435C247.657 35.1867 247.425 35.3667 247.16 35.4837C246.899 35.6006 246.603 35.6591 246.274 35.6591ZM258.552 33.1662C258.102 33.1662 257.694 33.0816 257.328 32.9123C256.962 32.7399 256.671 32.4922 256.456 32.169C256.24 31.8428 256.133 31.4489 256.133 30.9872C256.133 30.581 256.213 30.2517 256.373 29.9993C256.533 29.7438 256.747 29.5438 257.014 29.3991C257.282 29.2545 257.578 29.1468 257.901 29.076C258.227 29.0021 258.555 28.9437 258.884 28.9006C259.315 28.8452 259.664 28.8036 259.932 28.7759C260.203 28.7451 260.4 28.6944 260.523 28.6236C260.649 28.5528 260.712 28.4297 260.712 28.2543V28.2173C260.712 27.7618 260.587 27.4079 260.338 27.1555C260.092 26.9032 259.718 26.777 259.216 26.777C258.696 26.777 258.288 26.8909 257.993 27.1186C257.698 27.3464 257.49 27.5895 257.37 27.848L256.336 27.4787C256.52 27.0478 256.767 26.7124 257.074 26.4723C257.385 26.2292 257.724 26.0599 258.09 25.9645C258.459 25.866 258.822 25.8168 259.179 25.8168C259.407 25.8168 259.669 25.8445 259.964 25.8999C260.263 25.9522 260.551 26.0614 260.828 26.2276C261.108 26.3938 261.34 26.6446 261.525 26.9801C261.709 27.3156 261.802 27.7649 261.802 28.3281V33H260.712V32.0398H260.657C260.583 32.1937 260.46 32.3583 260.287 32.5337C260.115 32.7092 259.886 32.8584 259.6 32.9815C259.313 33.1046 258.964 33.1662 258.552 33.1662ZM258.718 32.1875C259.149 32.1875 259.512 32.1029 259.807 31.9336C260.106 31.7643 260.33 31.5458 260.481 31.2781C260.635 31.0103 260.712 30.7287 260.712 30.4332V29.4361C260.666 29.4915 260.564 29.5423 260.407 29.5884C260.254 29.6315 260.075 29.67 259.872 29.7038C259.672 29.7346 259.476 29.7623 259.286 29.7869C259.098 29.8085 258.946 29.8269 258.829 29.8423C258.545 29.8793 258.281 29.9393 258.035 30.0224C257.791 30.1024 257.594 30.224 257.444 30.3871C257.296 30.5471 257.222 30.7656 257.222 31.0426C257.222 31.4212 257.362 31.7074 257.642 31.9013C257.925 32.0921 258.284 32.1875 258.718 32.1875ZM266.652 35.8068C266.126 35.8068 265.674 35.7391 265.295 35.6037C264.917 35.4714 264.601 35.2959 264.349 35.0774C264.099 34.862 263.901 34.6312 263.753 34.3849L264.621 33.7756C264.72 33.9048 264.844 34.0526 264.995 34.2188C265.146 34.388 265.352 34.5342 265.614 34.6573C265.878 34.7835 266.225 34.8466 266.652 34.8466C267.225 34.8466 267.697 34.7081 268.07 34.4311C268.442 34.1541 268.628 33.7202 268.628 33.1293V31.6889H268.536C268.456 31.8182 268.342 31.9782 268.194 32.169C268.05 32.3568 267.84 32.5245 267.566 32.6722C267.296 32.8169 266.929 32.8892 266.468 32.8892C265.895 32.8892 265.381 32.7538 264.926 32.483C264.473 32.2121 264.115 31.8182 263.85 31.3011C263.589 30.7841 263.458 30.1562 263.458 29.4176C263.458 28.6913 263.585 28.0588 263.841 27.5202C264.096 26.9786 264.452 26.56 264.907 26.2646C265.363 25.966 265.889 25.8168 266.486 25.8168C266.948 25.8168 267.314 25.8937 267.585 26.0476C267.859 26.1984 268.068 26.3707 268.213 26.5646C268.36 26.7554 268.474 26.9124 268.554 27.0355H268.665V25.9091H269.718V33.2031C269.718 33.8125 269.579 34.308 269.302 34.6896C269.028 35.0743 268.659 35.3559 268.194 35.5344C267.733 35.716 267.219 35.8068 266.652 35.8068ZM266.615 31.9105C267.052 31.9105 267.422 31.8105 267.723 31.6104C268.025 31.4104 268.254 31.1226 268.411 30.7472C268.568 30.3717 268.647 29.9223 268.647 29.3991C268.647 28.8883 268.57 28.4374 268.416 28.0465C268.262 27.6557 268.034 27.3494 267.733 27.1278C267.431 26.9062 267.059 26.7955 266.615 26.7955C266.154 26.7955 265.769 26.9124 265.461 27.1463C265.157 27.3802 264.927 27.6941 264.773 28.0881C264.623 28.482 264.547 28.919 264.547 29.3991C264.547 29.8916 264.624 30.3271 264.778 30.7056C264.935 31.0811 265.166 31.3765 265.471 31.592C265.778 31.8043 266.16 31.9105 266.615 31.9105ZM274.593 33.1477C273.953 33.1477 273.391 32.9954 272.908 32.6907C272.428 32.386 272.052 31.9598 271.781 31.4119C271.513 30.8641 271.38 30.224 271.38 29.4915C271.38 28.7528 271.513 28.1081 271.781 27.5572C272.052 27.0063 272.428 26.5785 272.908 26.2738C273.391 25.9691 273.953 25.8168 274.593 25.8168C275.233 25.8168 275.793 25.9691 276.273 26.2738C276.756 26.5785 277.132 27.0063 277.4 27.5572C277.67 28.1081 277.806 28.7528 277.806 29.4915C277.806 30.224 277.67 30.8641 277.4 31.4119C277.132 31.9598 276.756 32.386 276.273 32.6907C275.793 32.9954 275.233 33.1477 274.593 33.1477ZM274.593 32.169C275.079 32.169 275.479 32.0444 275.793 31.7951C276.107 31.5458 276.339 31.218 276.49 30.8118C276.641 30.4055 276.716 29.9654 276.716 29.4915C276.716 29.0175 276.641 28.5759 276.49 28.1665C276.339 27.7572 276.107 27.4264 275.793 27.174C275.479 26.9216 275.079 26.7955 274.593 26.7955C274.106 26.7955 273.706 26.9216 273.392 27.174C273.078 27.4264 272.846 27.7572 272.695 28.1665C272.545 28.5759 272.469 29.0175 272.469 29.4915C272.469 29.9654 272.545 30.4055 272.695 30.8118C272.846 31.218 273.078 31.5458 273.392 31.7951C273.706 32.0444 274.106 32.169 274.593 32.169Z" fill="#919399"/>
<path d="M23.9318 91.0682C22.7727 91.0682 21.7481 90.9091 20.858 90.5909C19.9678 90.2765 19.2197 89.8125 18.6136 89.1989C18.0076 88.5852 17.5492 87.8333 17.2386 86.9432C16.928 86.053 16.7727 85.0341 16.7727 83.8864C16.7727 82.7765 16.9299 81.7841 17.2443 80.9091C17.5625 80.0341 18.0227 79.2917 18.625 78.6818C19.2311 78.0682 19.9659 77.6004 20.8295 77.2784C21.697 76.9564 22.678 76.7955 23.7727 76.7955C24.8371 76.7955 25.7689 76.9697 26.5682 77.3182C27.3712 77.6629 28.0417 78.1307 28.5795 78.7216C29.1212 79.3087 29.5265 79.9697 29.7955 80.7045C30.0682 81.4394 30.2045 82.197 30.2045 82.9773C30.2045 83.5265 30.178 84.0833 30.125 84.6477C30.072 85.2121 29.9602 85.7311 29.7898 86.2045C29.6193 86.6742 29.3561 87.053 29 87.3409C28.6477 87.6288 28.1705 87.7727 27.5682 87.7727C27.303 87.7727 27.0114 87.7311 26.6932 87.6477C26.375 87.5644 26.0928 87.4261 25.8466 87.233C25.6004 87.0398 25.4545 86.7803 25.4091 86.4545H25.3409C25.25 86.6742 25.1098 86.8826 24.9205 87.0795C24.7348 87.2765 24.4905 87.4337 24.1875 87.5511C23.8883 87.6686 23.5227 87.7197 23.0909 87.7045C22.5985 87.6856 22.1648 87.5758 21.7898 87.375C21.4148 87.1705 21.1004 86.8939 20.8466 86.5455C20.5966 86.1932 20.4072 85.786 20.2784 85.3239C20.1534 84.858 20.0909 84.3561 20.0909 83.8182C20.0909 83.3068 20.1667 82.839 20.3182 82.4148C20.4697 81.9905 20.6799 81.6193 20.9489 81.3011C21.2216 80.983 21.5398 80.7292 21.9034 80.5398C22.2708 80.3466 22.6667 80.2273 23.0909 80.1818C23.4697 80.1439 23.8144 80.161 24.125 80.233C24.4356 80.3011 24.6913 80.4053 24.892 80.5455C25.0928 80.6818 25.2197 80.8333 25.2727 81H25.3409V80.3636H26.5455V85.5C26.5455 85.8182 26.6345 86.0985 26.8125 86.3409C26.9905 86.5833 27.25 86.7045 27.5909 86.7045C27.9773 86.7045 28.2727 86.572 28.4773 86.3068C28.6856 86.0417 28.8277 85.6326 28.9034 85.0795C28.983 84.5265 29.0227 83.8182 29.0227 82.9545C29.0227 82.447 28.9527 81.947 28.8125 81.4545C28.6761 80.9583 28.4678 80.4943 28.1875 80.0625C27.911 79.6307 27.5606 79.25 27.1364 78.9205C26.7121 78.5909 26.214 78.3333 25.642 78.1477C25.0739 77.9583 24.428 77.8636 23.7045 77.8636C22.8144 77.8636 22.017 78.0019 21.3125 78.2784C20.6117 78.5511 20.0152 78.9508 19.5227 79.4773C19.0341 80 18.661 80.6364 18.4034 81.3864C18.1496 82.1326 18.0227 82.9811 18.0227 83.9318C18.0227 84.8977 18.1496 85.7557 18.4034 86.5057C18.661 87.2557 19.0398 87.8883 19.5398 88.4034C20.0436 88.9186 20.6667 89.3087 21.4091 89.5739C22.1515 89.8428 23.0076 89.9773 23.9773 89.9773C24.3939 89.9773 24.8049 89.9375 25.2102 89.858C25.6155 89.7784 25.9735 89.6913 26.2841 89.5966C26.5947 89.5019 26.8182 89.4318 26.9545 89.3864L27.2727 90.4318C27.0379 90.5303 26.7311 90.6288 26.3523 90.7273C25.9773 90.8258 25.5758 90.9072 25.1477 90.9716C24.7235 91.036 24.3182 91.0682 23.9318 91.0682ZM23.2727 86.5455C23.7803 86.5455 24.1913 86.4432 24.5057 86.2386C24.8201 86.0341 25.0492 85.7254 25.1932 85.3125C25.3371 84.8996 25.4091 84.3788 25.4091 83.75C25.4091 83.1136 25.3295 82.6174 25.1705 82.2614C25.0114 81.9053 24.7765 81.6553 24.4659 81.5114C24.1553 81.3674 23.7727 81.2955 23.3182 81.2955C22.8864 81.2955 22.517 81.4091 22.2102 81.6364C21.9072 81.8598 21.6742 82.1591 21.5114 82.5341C21.3523 82.9053 21.2727 83.3106 21.2727 83.75C21.2727 84.2348 21.3371 84.6913 21.4659 85.1193C21.5947 85.5436 21.8049 85.8883 22.0966 86.1534C22.3883 86.4148 22.7803 86.5455 23.2727 86.5455ZM32.2116 88V79.2727H33.5071V80.5909H33.598C33.7571 80.1591 34.045 79.8087 34.4616 79.5398C34.8783 79.2708 35.348 79.1364 35.8707 79.1364C35.9692 79.1364 36.0923 79.1383 36.2401 79.142C36.3878 79.1458 36.4995 79.1515 36.5753 79.1591V80.5227C36.5298 80.5114 36.4257 80.4943 36.2628 80.4716C36.1037 80.4451 35.9351 80.4318 35.7571 80.4318C35.3329 80.4318 34.9541 80.5208 34.6207 80.6989C34.2912 80.8731 34.0298 81.1155 33.8366 81.4261C33.6473 81.733 33.5526 82.0833 33.5526 82.4773V88H32.2116ZM40.733 88.2045C40.1799 88.2045 39.678 88.1004 39.2273 87.892C38.7765 87.6799 38.4186 87.375 38.1534 86.9773C37.8883 86.5758 37.7557 86.0909 37.7557 85.5227C37.7557 85.0227 37.8542 84.6174 38.0511 84.3068C38.2481 83.9924 38.5114 83.7462 38.8409 83.5682C39.1705 83.3902 39.5341 83.2576 39.9318 83.1705C40.3333 83.0795 40.7367 83.0076 41.142 82.9545C41.6723 82.8864 42.1023 82.8352 42.4318 82.8011C42.7652 82.7633 43.0076 82.7008 43.1591 82.6136C43.3144 82.5265 43.392 82.375 43.392 82.1591V82.1136C43.392 81.553 43.2386 81.1174 42.9318 80.8068C42.6288 80.4962 42.1686 80.3409 41.5511 80.3409C40.911 80.3409 40.4091 80.4811 40.0455 80.7614C39.6818 81.0417 39.4261 81.3409 39.2784 81.6591L38.0057 81.2045C38.233 80.6742 38.536 80.2614 38.9148 79.9659C39.2973 79.6667 39.714 79.4583 40.1648 79.3409C40.6193 79.2197 41.0663 79.1591 41.5057 79.1591C41.786 79.1591 42.108 79.1932 42.4716 79.2614C42.839 79.3258 43.1932 79.4602 43.5341 79.6648C43.8788 79.8693 44.1648 80.178 44.392 80.5909C44.6193 81.0038 44.733 81.5568 44.733 82.25V88H43.392V86.8182H43.3239C43.233 87.0076 43.0814 87.2102 42.8693 87.4261C42.6572 87.642 42.375 87.8258 42.0227 87.9773C41.6705 88.1288 41.2405 88.2045 40.733 88.2045ZM40.9375 87C41.4678 87 41.9148 86.8958 42.2784 86.6875C42.6458 86.4792 42.9223 86.2102 43.108 85.8807C43.2973 85.5511 43.392 85.2045 43.392 84.8409V83.6136C43.3352 83.6818 43.2102 83.7443 43.017 83.8011C42.8277 83.8542 42.608 83.9015 42.358 83.9432C42.1117 83.9811 41.8712 84.0152 41.6364 84.0455C41.4053 84.072 41.2178 84.0947 41.0739 84.1136C40.7254 84.1591 40.3996 84.233 40.0966 84.3352C39.7973 84.4337 39.5549 84.5833 39.3693 84.7841C39.1875 84.9811 39.0966 85.25 39.0966 85.5909C39.0966 86.0568 39.2689 86.4091 39.6136 86.6477C39.9621 86.8826 40.4034 87 40.9375 87ZM50.7259 88.1818C49.9077 88.1818 49.2031 87.9886 48.6122 87.6023C48.0213 87.2159 47.5668 86.6837 47.2486 86.0057C46.9304 85.3277 46.7713 84.553 46.7713 83.6818C46.7713 82.7955 46.9342 82.0133 47.2599 81.3352C47.5895 80.6534 48.0478 80.1212 48.6349 79.7386C49.2259 79.3523 49.9152 79.1591 50.7031 79.1591C51.3168 79.1591 51.8698 79.2727 52.3622 79.5C52.8546 79.7273 53.258 80.0455 53.5724 80.4545C53.8868 80.8636 54.0819 81.3409 54.1577 81.8864H52.8168C52.7145 81.4886 52.4872 81.1364 52.1349 80.8295C51.7865 80.5189 51.3168 80.3636 50.7259 80.3636C50.2031 80.3636 49.7448 80.5 49.3509 80.7727C48.9607 81.0417 48.6558 81.4223 48.4361 81.9148C48.2202 82.4034 48.1122 82.9773 48.1122 83.6364C48.1122 84.3106 48.2183 84.8977 48.4304 85.3977C48.6463 85.8977 48.9493 86.286 49.3395 86.5625C49.7334 86.839 50.1955 86.9773 50.7259 86.9773C51.0743 86.9773 51.3906 86.9167 51.6747 86.7955C51.9588 86.6742 52.1993 86.5 52.3963 86.2727C52.5933 86.0455 52.7334 85.7727 52.8168 85.4545H54.1577C54.0819 85.9697 53.8944 86.4337 53.5952 86.8466C53.2997 87.2557 52.9077 87.5814 52.419 87.8239C51.9342 88.0625 51.3698 88.1818 50.7259 88.1818ZM59.777 88.1818C58.9361 88.1818 58.2107 87.9962 57.6009 87.625C56.9948 87.25 56.527 86.7273 56.1974 86.0568C55.8717 85.3826 55.7088 84.5985 55.7088 83.7045C55.7088 82.8106 55.8717 82.0227 56.1974 81.3409C56.527 80.6553 56.9853 80.1212 57.5724 79.7386C58.1634 79.3523 58.8527 79.1591 59.6406 79.1591C60.0952 79.1591 60.544 79.2348 60.9872 79.3864C61.4304 79.5379 61.8338 79.7841 62.1974 80.125C62.5611 80.4621 62.8509 80.9091 63.0668 81.4659C63.2827 82.0227 63.3906 82.7083 63.3906 83.5227V84.0909H56.6634V82.9318H62.027C62.027 82.4394 61.9285 82 61.7315 81.6136C61.5384 81.2273 61.2618 80.9223 60.902 80.6989C60.5459 80.4754 60.1255 80.3636 59.6406 80.3636C59.1065 80.3636 58.6444 80.4962 58.2543 80.7614C57.8679 81.0227 57.5705 81.3636 57.3622 81.7841C57.1539 82.2045 57.0497 82.6553 57.0497 83.1364V83.9091C57.0497 84.5682 57.1634 85.1269 57.3906 85.5852C57.6217 86.0398 57.9418 86.3864 58.3509 86.625C58.7599 86.8598 59.2353 86.9773 59.777 86.9773C60.1293 86.9773 60.4474 86.928 60.7315 86.8295C61.0194 86.7273 61.2675 86.5758 61.4759 86.375C61.6842 86.1705 61.8452 85.9167 61.9588 85.6136L63.2543 85.9773C63.1179 86.4167 62.8887 86.803 62.5668 87.1364C62.2448 87.4659 61.8471 87.7235 61.3736 87.9091C60.9001 88.0909 60.3679 88.1818 59.777 88.1818ZM70.4304 82.3864V83.6364H65.3395V82.3864H70.4304ZM76.3352 88.1818C75.5473 88.1818 74.8561 87.9943 74.2614 87.6193C73.6705 87.2443 73.2083 86.7197 72.875 86.0455C72.5455 85.3712 72.3807 84.5833 72.3807 83.6818C72.3807 82.7727 72.5455 81.9792 72.875 81.3011C73.2083 80.6231 73.6705 80.0966 74.2614 79.7216C74.8561 79.3466 75.5473 79.1591 76.3352 79.1591C77.1231 79.1591 77.8125 79.3466 78.4034 79.7216C78.9981 80.0966 79.4602 80.6231 79.7898 81.3011C80.1231 81.9792 80.2898 82.7727 80.2898 83.6818C80.2898 84.5833 80.1231 85.3712 79.7898 86.0455C79.4602 86.7197 78.9981 87.2443 78.4034 87.6193C77.8125 87.9943 77.1231 88.1818 76.3352 88.1818ZM76.3352 86.9773C76.9337 86.9773 77.4261 86.8239 77.8125 86.517C78.1989 86.2102 78.4848 85.8068 78.6705 85.3068C78.8561 84.8068 78.9489 84.2652 78.9489 83.6818C78.9489 83.0985 78.8561 82.5549 78.6705 82.0511C78.4848 81.5473 78.1989 81.1402 77.8125 80.8295C77.4261 80.5189 76.9337 80.3636 76.3352 80.3636C75.7367 80.3636 75.2443 80.5189 74.858 80.8295C74.4716 81.1402 74.1856 81.5473 74 82.0511C73.8144 82.5549 73.7216 83.0985 73.7216 83.6818C73.7216 84.2652 73.8144 84.8068 74 85.3068C74.1856 85.8068 74.4716 86.2102 74.858 86.517C75.2443 86.8239 75.7367 86.9773 76.3352 86.9773ZM86.223 79.2727V80.4091H81.5185V79.2727H86.223ZM82.9276 88V78.0682C82.9276 77.5682 83.045 77.1515 83.2798 76.8182C83.5147 76.4848 83.8196 76.2348 84.1946 76.0682C84.5696 75.9015 84.9654 75.8182 85.3821 75.8182C85.7116 75.8182 85.9806 75.8447 86.1889 75.8977C86.3973 75.9508 86.5526 76 86.6548 76.0455L86.2685 77.2045C86.2003 77.1818 86.1056 77.1534 85.9844 77.1193C85.867 77.0852 85.7116 77.0682 85.5185 77.0682C85.0753 77.0682 84.7552 77.1799 84.5582 77.4034C84.3651 77.6269 84.2685 77.9545 84.2685 78.3864V88H82.9276ZM92.6491 82.3864V83.6364H87.5582V82.3864H92.6491ZM101.19 81.2273L99.9858 81.5682C99.91 81.3674 99.7983 81.1723 99.6506 80.983C99.5066 80.7898 99.3097 80.6307 99.0597 80.5057C98.8097 80.3807 98.4896 80.3182 98.0994 80.3182C97.5653 80.3182 97.1203 80.4413 96.7642 80.6875C96.4119 80.9299 96.2358 81.2386 96.2358 81.6136C96.2358 81.947 96.357 82.2102 96.5994 82.4034C96.8419 82.5966 97.2206 82.7576 97.7358 82.8864L99.0312 83.2045C99.8116 83.3939 100.393 83.6837 100.776 84.0739C101.158 84.4602 101.349 84.9583 101.349 85.5682C101.349 86.0682 101.205 86.5152 100.918 86.9091C100.634 87.303 100.236 87.6136 99.7244 87.8409C99.2131 88.0682 98.6184 88.1818 97.9403 88.1818C97.0502 88.1818 96.3134 87.9886 95.7301 87.6023C95.1468 87.2159 94.7775 86.6515 94.6222 85.9091L95.8949 85.5909C96.0161 86.0606 96.2453 86.4129 96.5824 86.6477C96.9233 86.8826 97.3684 87 97.9176 87C98.5426 87 99.0388 86.8674 99.4062 86.6023C99.7775 86.3333 99.9631 86.0114 99.9631 85.6364C99.9631 85.3333 99.857 85.0795 99.6449 84.875C99.4328 84.6667 99.107 84.5114 98.6676 84.4091L97.2131 84.0682C96.4138 83.8788 95.8267 83.5852 95.4517 83.1875C95.0805 82.786 94.8949 82.2841 94.8949 81.6818C94.8949 81.1894 95.0331 80.7538 95.3097 80.375C95.59 79.9962 95.9706 79.6989 96.4517 79.483C96.9366 79.267 97.4858 79.1591 98.0994 79.1591C98.9631 79.1591 99.6411 79.3485 100.134 79.7273C100.63 80.1061 100.982 80.6061 101.19 81.2273ZM104.709 76.3636V88H103.368V76.3636H104.709ZM110.71 88.1818C109.922 88.1818 109.231 87.9943 108.636 87.6193C108.045 87.2443 107.583 86.7197 107.25 86.0455C106.92 85.3712 106.756 84.5833 106.756 83.6818C106.756 82.7727 106.92 81.9792 107.25 81.3011C107.583 80.6231 108.045 80.0966 108.636 79.7216C109.231 79.3466 109.922 79.1591 110.71 79.1591C111.498 79.1591 112.188 79.3466 112.778 79.7216C113.373 80.0966 113.835 80.6231 114.165 81.3011C114.498 81.9792 114.665 82.7727 114.665 83.6818C114.665 84.5833 114.498 85.3712 114.165 86.0455C113.835 86.7197 113.373 87.2443 112.778 87.6193C112.188 87.9943 111.498 88.1818 110.71 88.1818ZM110.71 86.9773C111.309 86.9773 111.801 86.8239 112.188 86.517C112.574 86.2102 112.86 85.8068 113.045 85.3068C113.231 84.8068 113.324 84.2652 113.324 83.6818C113.324 83.0985 113.231 82.5549 113.045 82.0511C112.86 81.5473 112.574 81.1402 112.188 80.8295C111.801 80.5189 111.309 80.3636 110.71 80.3636C110.112 80.3636 109.619 80.5189 109.233 80.8295C108.847 81.1402 108.561 81.5473 108.375 82.0511C108.189 82.5549 108.097 83.0985 108.097 83.6818C108.097 84.2652 108.189 84.8068 108.375 85.3068C108.561 85.8068 108.847 86.2102 109.233 86.517C109.619 86.8239 110.112 86.9773 110.71 86.9773ZM120.507 79.2727V80.4091H115.984V79.2727H120.507ZM117.303 77.1818H118.643V85.5C118.643 85.8788 118.698 86.1629 118.808 86.3523C118.922 86.5379 119.066 86.6629 119.24 86.7273C119.418 86.7879 119.606 86.8182 119.803 86.8182C119.95 86.8182 120.071 86.8106 120.166 86.7955C120.261 86.7765 120.337 86.7614 120.393 86.75L120.666 87.9545C120.575 87.9886 120.448 88.0227 120.286 88.0568C120.123 88.0947 119.916 88.1136 119.666 88.1136C119.287 88.1136 118.916 88.0322 118.553 87.8693C118.193 87.7064 117.893 87.4583 117.655 87.125C117.42 86.7917 117.303 86.3712 117.303 85.8636V77.1818ZM124.053 82.75V88H122.712V76.3636H124.053V80.6364H124.166C124.371 80.1856 124.678 79.8277 125.087 79.5625C125.5 79.2936 126.049 79.1591 126.734 79.1591C127.329 79.1591 127.85 79.2784 128.297 79.517C128.744 79.7519 129.09 80.1136 129.337 80.6023C129.587 81.0871 129.712 81.7045 129.712 82.4545V88H128.371V82.5455C128.371 81.8523 128.191 81.3163 127.831 80.9375C127.475 80.5549 126.981 80.3636 126.348 80.3636C125.909 80.3636 125.515 80.4564 125.166 80.642C124.821 80.8277 124.549 81.0985 124.348 81.4545C124.151 81.8106 124.053 82.2424 124.053 82.75ZM138.347 81.2273L137.142 81.5682C137.066 81.3674 136.955 81.1723 136.807 80.983C136.663 80.7898 136.466 80.6307 136.216 80.5057C135.966 80.3807 135.646 80.3182 135.256 80.3182C134.722 80.3182 134.277 80.4413 133.92 80.6875C133.568 80.9299 133.392 81.2386 133.392 81.6136C133.392 81.947 133.513 82.2102 133.756 82.4034C133.998 82.5966 134.377 82.7576 134.892 82.8864L136.188 83.2045C136.968 83.3939 137.549 83.6837 137.932 84.0739C138.314 84.4602 138.506 84.9583 138.506 85.5682C138.506 86.0682 138.362 86.5152 138.074 86.9091C137.79 87.303 137.392 87.6136 136.881 87.8409C136.369 88.0682 135.775 88.1818 135.097 88.1818C134.206 88.1818 133.47 87.9886 132.886 87.6023C132.303 87.2159 131.934 86.6515 131.778 85.9091L133.051 85.5909C133.172 86.0606 133.402 86.4129 133.739 86.6477C134.08 86.8826 134.525 87 135.074 87C135.699 87 136.195 86.8674 136.562 86.6023C136.934 86.3333 137.119 86.0114 137.119 85.6364C137.119 85.3333 137.013 85.0795 136.801 84.875C136.589 84.6667 136.263 84.5114 135.824 84.4091L134.369 84.0682C133.57 83.8788 132.983 83.5852 132.608 83.1875C132.237 82.786 132.051 82.2841 132.051 81.6818C132.051 81.1894 132.189 80.7538 132.466 80.375C132.746 79.9962 133.127 79.6989 133.608 79.483C134.093 79.267 134.642 79.1591 135.256 79.1591C136.119 79.1591 136.797 79.3485 137.29 79.7273C137.786 80.1061 138.138 80.6061 138.347 81.2273Z" fill="#A040FF"/>
<path d="M146.365 82.75V88H145.024V76.3636H146.365V80.6364H146.479C146.683 80.1856 146.99 79.8277 147.399 79.5625C147.812 79.2936 148.361 79.1591 149.047 79.1591C149.642 79.1591 150.162 79.2784 150.609 79.517C151.056 79.7519 151.403 80.1136 151.649 80.6023C151.899 81.0871 152.024 81.7045 152.024 82.4545V88H150.683V82.5455C150.683 81.8523 150.503 81.3163 150.143 80.9375C149.787 80.5549 149.293 80.3636 148.661 80.3636C148.221 80.3636 147.827 80.4564 147.479 80.642C147.134 80.8277 146.861 81.0985 146.661 81.4545C146.464 81.8106 146.365 82.2424 146.365 82.75ZM158.136 88.1818C157.295 88.1818 156.57 87.9962 155.96 87.625C155.354 87.25 154.886 86.7273 154.557 86.0568C154.231 85.3826 154.068 84.5985 154.068 83.7045C154.068 82.8106 154.231 82.0227 154.557 81.3409C154.886 80.6553 155.345 80.1212 155.932 79.7386C156.523 79.3523 157.212 79.1591 158 79.1591C158.455 79.1591 158.903 79.2348 159.347 79.3864C159.79 79.5379 160.193 79.7841 160.557 80.125C160.92 80.4621 161.21 80.9091 161.426 81.4659C161.642 82.0227 161.75 82.7083 161.75 83.5227V84.0909H155.023V82.9318H160.386C160.386 82.4394 160.288 82 160.091 81.6136C159.898 81.2273 159.621 80.9223 159.261 80.6989C158.905 80.4754 158.485 80.3636 158 80.3636C157.466 80.3636 157.004 80.4962 156.614 80.7614C156.227 81.0227 155.93 81.3636 155.722 81.7841C155.513 82.2045 155.409 82.6553 155.409 83.1364V83.9091C155.409 84.5682 155.523 85.1269 155.75 85.5852C155.981 86.0398 156.301 86.3864 156.71 86.625C157.119 86.8598 157.595 86.9773 158.136 86.9773C158.489 86.9773 158.807 86.928 159.091 86.8295C159.379 86.7273 159.627 86.5758 159.835 86.375C160.044 86.1705 160.205 85.9167 160.318 85.6136L161.614 85.9773C161.477 86.4167 161.248 86.803 160.926 87.1364C160.604 87.4659 160.206 87.7235 159.733 87.9091C159.259 88.0909 158.727 88.1818 158.136 88.1818ZM165.131 76.3636V88H163.79V76.3636H165.131ZM167.587 91.2727V79.2727H168.882V80.6591H169.041C169.14 80.5076 169.276 80.3144 169.45 80.0795C169.628 79.8409 169.882 79.6288 170.212 79.4432C170.545 79.2538 170.996 79.1591 171.564 79.1591C172.299 79.1591 172.946 79.3428 173.507 79.7102C174.068 80.0777 174.505 80.5985 174.82 81.2727C175.134 81.947 175.291 82.7424 175.291 83.6591C175.291 84.5833 175.134 85.3845 174.82 86.0625C174.505 86.7367 174.07 87.2595 173.513 87.6307C172.956 87.9981 172.314 88.1818 171.587 88.1818C171.026 88.1818 170.577 88.089 170.24 87.9034C169.903 87.714 169.643 87.5 169.462 87.2614C169.28 87.0189 169.14 86.8182 169.041 86.6591H168.928V91.2727H167.587ZM168.905 83.6364C168.905 84.2955 169.001 84.8769 169.195 85.3807C169.388 85.8807 169.67 86.2727 170.041 86.5568C170.412 86.8371 170.867 86.9773 171.405 86.9773C171.965 86.9773 172.433 86.8295 172.808 86.5341C173.187 86.2348 173.471 85.8333 173.661 85.3295C173.854 84.822 173.95 84.2576 173.95 83.6364C173.95 83.0227 173.856 82.4697 173.666 81.9773C173.481 81.4811 173.198 81.089 172.82 80.8011C172.445 80.5095 171.973 80.3636 171.405 80.3636C170.859 80.3636 170.401 80.5019 170.03 80.7784C169.659 81.0511 169.378 81.4337 169.189 81.9261C169 82.4148 168.905 82.9848 168.905 83.6364ZM181.837 88V79.2727H183.132V80.6364H183.246C183.428 80.1705 183.721 79.8087 184.126 79.5511C184.532 79.2898 185.018 79.1591 185.587 79.1591C186.162 79.1591 186.642 79.2898 187.024 79.5511C187.411 79.8087 187.712 80.1705 187.928 80.6364H188.018C188.242 80.1856 188.577 79.8277 189.024 79.5625C189.471 79.2936 190.007 79.1591 190.632 79.1591C191.412 79.1591 192.051 79.4034 192.547 79.892C193.043 80.3769 193.291 81.1326 193.291 82.1591V88H191.95V82.1591C191.95 81.5152 191.774 81.0549 191.422 80.7784C191.07 80.5019 190.655 80.3636 190.178 80.3636C189.564 80.3636 189.089 80.5492 188.751 80.9205C188.414 81.2879 188.246 81.7538 188.246 82.3182V88H186.882V82.0227C186.882 81.5265 186.721 81.1269 186.399 80.8239C186.077 80.517 185.662 80.3636 185.155 80.3636C184.806 80.3636 184.481 80.4564 184.178 80.642C183.878 80.8277 183.636 81.0852 183.45 81.4148C183.268 81.7405 183.178 82.1174 183.178 82.5455V88H181.837ZM199.402 88.1818C198.561 88.1818 197.836 87.9962 197.226 87.625C196.62 87.25 196.152 86.7273 195.822 86.0568C195.497 85.3826 195.334 84.5985 195.334 83.7045C195.334 82.8106 195.497 82.0227 195.822 81.3409C196.152 80.6553 196.61 80.1212 197.197 79.7386C197.788 79.3523 198.478 79.1591 199.266 79.1591C199.72 79.1591 200.169 79.2348 200.612 79.3864C201.055 79.5379 201.459 79.7841 201.822 80.125C202.186 80.4621 202.476 80.9091 202.692 81.4659C202.908 82.0227 203.016 82.7083 203.016 83.5227V84.0909H196.288V82.9318H201.652C201.652 82.4394 201.554 82 201.357 81.6136C201.163 81.2273 200.887 80.9223 200.527 80.6989C200.171 80.4754 199.75 80.3636 199.266 80.3636C198.732 80.3636 198.269 80.4962 197.879 80.7614C197.493 81.0227 197.196 81.3636 196.987 81.7841C196.779 82.2045 196.675 82.6553 196.675 83.1364V83.9091C196.675 84.5682 196.788 85.1269 197.016 85.5852C197.247 86.0398 197.567 86.3864 197.976 86.625C198.385 86.8598 198.86 86.9773 199.402 86.9773C199.754 86.9773 200.072 86.928 200.357 86.8295C200.644 86.7273 200.893 86.5758 201.101 86.375C201.309 86.1705 201.47 85.9167 201.584 85.6136L202.879 85.9773C202.743 86.4167 202.514 86.803 202.192 87.1364C201.87 87.4659 201.472 87.7235 200.999 87.9091C200.525 88.0909 199.993 88.1818 199.402 88.1818ZM209.555 91.2727V79.2727H210.851V80.6591H211.01C211.108 80.5076 211.245 80.3144 211.419 80.0795C211.597 79.8409 211.851 79.6288 212.18 79.4432C212.514 79.2538 212.964 79.1591 213.533 79.1591C214.268 79.1591 214.915 79.3428 215.476 79.7102C216.036 80.0777 216.474 80.5985 216.788 81.2727C217.103 81.947 217.26 82.7424 217.26 83.6591C217.26 84.5833 217.103 85.3845 216.788 86.0625C216.474 86.7367 216.038 87.2595 215.482 87.6307C214.925 87.9981 214.283 88.1818 213.555 88.1818C212.995 88.1818 212.546 88.089 212.209 87.9034C211.872 87.714 211.612 87.5 211.43 87.2614C211.249 87.0189 211.108 86.8182 211.01 86.6591H210.896V91.2727H209.555ZM210.874 83.6364C210.874 84.2955 210.97 84.8769 211.163 85.3807C211.357 85.8807 211.639 86.2727 212.01 86.5568C212.381 86.8371 212.836 86.9773 213.374 86.9773C213.934 86.9773 214.402 86.8295 214.777 86.5341C215.156 86.2348 215.44 85.8333 215.629 85.3295C215.822 84.822 215.919 84.2576 215.919 83.6364C215.919 83.0227 215.824 82.4697 215.635 81.9773C215.449 81.4811 215.167 81.089 214.788 80.8011C214.413 80.5095 213.942 80.3636 213.374 80.3636C212.828 80.3636 212.37 80.5019 211.999 80.7784C211.627 81.0511 211.347 81.4337 211.158 81.9261C210.968 82.4148 210.874 82.9848 210.874 83.6364ZM220.646 76.3636V88H219.305V76.3636H220.646ZM229.284 81.2273L228.08 81.5682C228.004 81.3674 227.892 81.1723 227.744 80.983C227.6 80.7898 227.403 80.6307 227.153 80.5057C226.903 80.3807 226.583 80.3182 226.193 80.3182C225.659 80.3182 225.214 80.4413 224.858 80.6875C224.506 80.9299 224.33 81.2386 224.33 81.6136C224.33 81.947 224.451 82.2102 224.693 82.4034C224.936 82.5966 225.314 82.7576 225.83 82.8864L227.125 83.2045C227.905 83.3939 228.487 83.6837 228.869 84.0739C229.252 84.4602 229.443 84.9583 229.443 85.5682C229.443 86.0682 229.299 86.5152 229.011 86.9091C228.727 87.303 228.33 87.6136 227.818 87.8409C227.307 88.0682 226.712 88.1818 226.034 88.1818C225.144 88.1818 224.407 87.9886 223.824 87.6023C223.241 87.2159 222.871 86.6515 222.716 85.9091L223.989 85.5909C224.11 86.0606 224.339 86.4129 224.676 86.6477C225.017 86.8826 225.462 87 226.011 87C226.636 87 227.133 86.8674 227.5 86.6023C227.871 86.3333 228.057 86.0114 228.057 85.6364C228.057 85.3333 227.951 85.0795 227.739 84.875C227.527 84.6667 227.201 84.5114 226.761 84.4091L225.307 84.0682C224.508 83.8788 223.92 83.5852 223.545 83.1875C223.174 82.786 222.989 82.2841 222.989 81.6818C222.989 81.1894 223.127 80.7538 223.403 80.375C223.684 79.9962 224.064 79.6989 224.545 79.483C225.03 79.267 225.58 79.1591 226.193 79.1591C227.057 79.1591 227.735 79.3485 228.227 79.7273C228.723 80.1061 229.076 80.6061 229.284 81.2273ZM233.462 86.4091L233.371 87.0227C233.306 87.4545 233.208 87.9167 233.075 88.4091C232.946 88.9015 232.812 89.3655 232.672 89.8011C232.532 90.2367 232.416 90.5833 232.325 90.8409H231.303C231.352 90.5985 231.416 90.2784 231.496 89.8807C231.575 89.483 231.655 89.0379 231.734 88.5455C231.818 88.0568 231.886 87.5568 231.939 87.0455L232.007 86.4091H233.462ZM240.628 88V76.3636H241.969V80.6591H242.082C242.181 80.5076 242.317 80.3144 242.491 80.0795C242.67 79.8409 242.923 79.6288 243.253 79.4432C243.586 79.2538 244.037 79.1591 244.605 79.1591C245.34 79.1591 245.988 79.3428 246.548 79.7102C247.109 80.0777 247.546 80.5985 247.861 81.2727C248.175 81.947 248.332 82.7424 248.332 83.6591C248.332 84.5833 248.175 85.3845 247.861 86.0625C247.546 86.7367 247.111 87.2595 246.554 87.6307C245.997 87.9981 245.355 88.1818 244.628 88.1818C244.067 88.1818 243.618 88.089 243.281 87.9034C242.944 87.714 242.685 87.5 242.503 87.2614C242.321 87.0189 242.181 86.8182 242.082 86.6591H241.923V88H240.628ZM241.946 83.6364C241.946 84.2955 242.043 84.8769 242.236 85.3807C242.429 85.8807 242.711 86.2727 243.082 86.5568C243.454 86.8371 243.908 86.9773 244.446 86.9773C245.007 86.9773 245.474 86.8295 245.849 86.5341C246.228 86.2348 246.512 85.8333 246.702 85.3295C246.895 84.822 246.991 84.2576 246.991 83.6364C246.991 83.0227 246.897 82.4697 246.707 81.9773C246.522 81.4811 246.24 81.089 245.861 80.8011C245.486 80.5095 245.014 80.3636 244.446 80.3636C243.901 80.3636 243.442 80.5019 243.071 80.7784C242.7 81.0511 242.42 81.4337 242.23 81.9261C242.041 82.4148 241.946 82.9848 241.946 83.6364ZM255.884 84.4318V79.2727H257.224V88H255.884V86.5227H255.793C255.588 86.9659 255.27 87.3428 254.838 87.6534C254.406 87.9602 253.861 88.1136 253.202 88.1136C252.656 88.1136 252.171 87.9943 251.747 87.7557C251.323 87.5133 250.99 87.1496 250.747 86.6648C250.505 86.1761 250.384 85.5606 250.384 84.8182V79.2727H251.724V84.7273C251.724 85.3636 251.902 85.8712 252.259 86.25C252.618 86.6288 253.077 86.8182 253.634 86.8182C253.967 86.8182 254.306 86.733 254.651 86.5625C254.999 86.392 255.291 86.1307 255.526 85.7784C255.764 85.4261 255.884 84.9773 255.884 84.4318ZM262.976 88.1818C262.249 88.1818 261.607 87.9981 261.05 87.6307C260.493 87.2595 260.057 86.7367 259.743 86.0625C259.429 85.3845 259.271 84.5833 259.271 83.6591C259.271 82.7424 259.429 81.947 259.743 81.2727C260.057 80.5985 260.495 80.0777 261.055 79.7102C261.616 79.3428 262.264 79.1591 262.999 79.1591C263.567 79.1591 264.016 79.2538 264.345 79.4432C264.679 79.6288 264.932 79.8409 265.107 80.0795C265.285 80.3144 265.423 80.5076 265.521 80.6591H265.635V76.3636H266.976V88H265.68V86.6591H265.521C265.423 86.8182 265.283 87.0189 265.101 87.2614C264.919 87.5 264.66 87.714 264.322 87.9034C263.985 88.089 263.536 88.1818 262.976 88.1818ZM263.158 86.9773C263.696 86.9773 264.15 86.8371 264.521 86.5568C264.893 86.2727 265.175 85.8807 265.368 85.3807C265.561 84.8769 265.658 84.2955 265.658 83.6364C265.658 82.9848 265.563 82.4148 265.374 81.9261C265.184 81.4337 264.904 81.0511 264.533 80.7784C264.161 80.5019 263.703 80.3636 263.158 80.3636C262.589 80.3636 262.116 80.5095 261.737 80.8011C261.362 81.089 261.08 81.4811 260.891 81.9773C260.705 82.4697 260.612 83.0227 260.612 83.6364C260.612 84.2576 260.707 84.822 260.896 85.3295C261.089 85.8333 261.374 86.2348 261.749 86.5341C262.127 86.8295 262.597 86.9773 263.158 86.9773ZM272.913 88.1818C272.186 88.1818 271.544 87.9981 270.987 87.6307C270.43 87.2595 269.995 86.7367 269.68 86.0625C269.366 85.3845 269.209 84.5833 269.209 83.6591C269.209 82.7424 269.366 81.947 269.68 81.2727C269.995 80.5985 270.432 80.0777 270.993 79.7102C271.554 79.3428 272.201 79.1591 272.936 79.1591C273.504 79.1591 273.953 79.2538 274.283 79.4432C274.616 79.6288 274.87 79.8409 275.044 80.0795C275.222 80.3144 275.36 80.5076 275.459 80.6591H275.572V76.3636H276.913V88H275.618V86.6591H275.459C275.36 86.8182 275.22 87.0189 275.038 87.2614C274.857 87.5 274.597 87.714 274.26 87.9034C273.923 88.089 273.474 88.1818 272.913 88.1818ZM273.095 86.9773C273.633 86.9773 274.088 86.8371 274.459 86.5568C274.83 86.2727 275.112 85.8807 275.305 85.3807C275.499 84.8769 275.595 84.2955 275.595 83.6364C275.595 82.9848 275.5 82.4148 275.311 81.9261C275.122 81.4337 274.841 81.0511 274.47 80.7784C274.099 80.5019 273.641 80.3636 273.095 80.3636C272.527 80.3636 272.054 80.5095 271.675 80.8011C271.3 81.089 271.018 81.4811 270.828 81.9773C270.643 82.4697 270.55 83.0227 270.55 83.6364C270.55 84.2576 270.644 84.822 270.834 85.3295C271.027 85.8333 271.311 86.2348 271.686 86.5341C272.065 86.8295 272.535 86.9773 273.095 86.9773ZM280.419 91.2727C280.192 91.2727 279.989 91.2538 279.811 91.2159C279.633 91.1818 279.51 91.1477 279.442 91.1136L279.783 89.9318C280.108 90.0152 280.396 90.0455 280.646 90.0227C280.896 90 281.118 89.8883 281.311 89.6875C281.508 89.4905 281.688 89.1705 281.851 88.7273L282.101 88.0455L278.874 79.2727H280.328L282.737 86.2273H282.828L285.237 79.2727H286.692L282.987 89.2727C282.821 89.7235 282.614 90.0966 282.368 90.392C282.122 90.6913 281.836 90.9129 281.51 91.0568C281.188 91.2008 280.824 91.2727 280.419 91.2727Z" fill="white"/>
</g>
<rect x="0.5" y="0.5" width="341" height="107" rx="11.5" stroke="url(#paint0_linear_2023_1296)"/>
<rect x="0.5" y="0.5" width="341" height="107" rx="11.5" stroke="#3D3D3D"/>
<defs>
<linearGradient id="paint0_linear_2023_1296" x1="171" y1="0" x2="171" y2="108" gradientUnits="userSpaceOnUse">
<stop stop-color="#3D3D3D"/>
<stop offset="1" stop-color="#101010"/>
</linearGradient>
<clipPath id="clip0_2023_1296">
<rect width="342" height="108" rx="12" fill="white"/>
</clipPath>
<clipPath id="clip1_2023_1296">
<rect width="32" height="32" fill="white" transform="translate(16 12)"/>
</clipPath>
<clipPath id="clip2_2023_1296">
<rect width="28.1172" height="23.5649" fill="white" transform="translate(18.0084 16.2847)"/>
</clipPath>
</defs>
</svg>
