<svg width="585" height="102" viewBox="0 0 585 102" fill="none" xmlns="http://www.w3.org/2000/svg">
<g clip-path="url(#clip0_240_1055)">
<rect x="0.5" width="56" height="56" rx="28" fill="#FF5555"/>
<g clip-path="url(#clip1_240_1055)">
<path d="M28.4745 45.9737C38.7243 45.9737 47.0334 37.7842 47.0334 27.6819C47.0334 17.5796 38.7243 9.39014 28.4745 9.39014C18.2247 9.39014 9.91565 17.5796 9.91565 27.6819C9.91565 37.7842 18.2247 45.9737 28.4745 45.9737Z" fill="#C7B299" stroke="#161616" stroke-width="0.23431" stroke-miterlimit="10"/>
<path d="M7.80469 29.2867C7.80469 17.3504 16.3948 7.49805 29.5602 7.49805C41.8596 7.49805 49.5357 16.1318 49.5357 26.9504C49.5357 38.8842 40.9455 48.7391 27.8836 48.7391C15.5312 48.7391 7.80721 40.1054 7.80721 29.2867H7.80469ZM28.0856 45.5878C38.8094 45.5878 45.6724 37.3099 45.6724 27.1522C45.6724 24.5712 45.6194 17.2747 40.2133 14.4086C35.4031 11.8603 29.9087 14.7037 29.2345 15.0671C28.1185 14.4464 23.5381 12.0571 19.0158 13.7929C11.5064 16.6742 11.6705 28.0504 11.6705 29.0823C11.6705 38.3266 17.9224 45.5878 28.0882 45.5878H28.0856Z" fill="#161616"/>
<path d="M16.6069 35.2029C16.6069 35.6091 21.8211 38.2255 28.376 38.2255C34.931 38.2255 40.3421 35.6091 40.3421 35.2029C40.3421 34.7967 34.9285 36.7546 28.376 36.7546C21.8211 36.7546 16.6069 34.7967 16.6069 35.2029Z" fill="#161616"/>
<path d="M28.3483 36.0081C30.6493 36.0081 32.5146 34.7656 32.5146 33.2328C32.5146 31.7001 30.6493 30.4575 28.3483 30.4575C26.0473 30.4575 24.182 31.7001 24.182 33.2328C24.182 34.7656 26.0473 36.0081 28.3483 36.0081Z" fill="#161616"/>
<path d="M27.2499 34.2217C27.1691 34.4034 26.8181 34.4917 26.4696 34.4185C26.1212 34.3454 25.904 34.141 25.9874 33.9593C26.0707 33.7777 26.4191 33.6894 26.7676 33.7625C27.116 33.8357 27.3332 34.0401 27.2499 34.2217Z" fill="white"/>
<path d="M29.5249 34.2217C29.6057 34.4034 29.9567 34.4917 30.3051 34.4185C30.6536 34.3454 30.8707 34.141 30.7874 33.9593C30.7041 33.7777 30.3556 33.6894 30.0072 33.7625C29.6587 33.8357 29.4416 34.0401 29.5249 34.2217Z" fill="white"/>
<path d="M20.1798 29.2184C21.7459 29.2184 23.0154 27.9499 23.0154 26.3851C23.0154 24.8203 21.7459 23.5518 20.1798 23.5518C18.6138 23.5518 17.3442 24.8203 17.3442 26.3851C17.3442 27.9499 18.6138 29.2184 20.1798 29.2184Z" fill="white" stroke="#161616" stroke-width="0.23431" stroke-miterlimit="10"/>
<path d="M20.1799 28.3962C21.2913 28.3962 22.1923 27.4959 22.1923 26.3853C22.1923 25.2748 21.2913 24.3745 20.1799 24.3745C19.0684 24.3745 18.1674 25.2748 18.1674 26.3853C18.1674 27.4959 19.0684 28.3962 20.1799 28.3962Z" fill="#161616" stroke="#161616" stroke-width="0.23431" stroke-miterlimit="10"/>
<path d="M19.0814 26.4763C19.3338 26.4763 19.5384 26.2719 19.5384 26.0197C19.5384 25.7674 19.3338 25.563 19.0814 25.563C18.829 25.563 18.6244 25.7674 18.6244 26.0197C18.6244 26.2719 18.829 26.4763 19.0814 26.4763Z" fill="white"/>
<path d="M36.8449 29.2184C38.411 29.2184 39.6805 27.9499 39.6805 26.3851C39.6805 24.8203 38.411 23.5518 36.8449 23.5518C35.2789 23.5518 34.0093 24.8203 34.0093 26.3851C34.0093 27.9499 35.2789 29.2184 36.8449 29.2184Z" fill="white" stroke="#101010" stroke-width="0.23431" stroke-miterlimit="10"/>
<path d="M36.845 28.3962C37.9564 28.3962 38.8574 27.4959 38.8574 26.3853C38.8574 25.2748 37.9564 24.3745 36.845 24.3745C35.7335 24.3745 34.8325 25.2748 34.8325 26.3853C34.8325 27.4959 35.7335 28.3962 36.845 28.3962Z" fill="#161616" stroke="#161616" stroke-width="0.23431" stroke-miterlimit="10"/>
<path d="M35.7466 26.4763C35.999 26.4763 36.2036 26.2719 36.2036 26.0197C36.2036 25.7674 35.999 25.563 35.7466 25.563C35.4942 25.563 35.2896 25.7674 35.2896 26.0197C35.2896 26.2719 35.4942 26.4763 35.7466 26.4763Z" fill="white"/>
<path d="M53.2197 21.271H52.2097H51.0633H48.9044L29.9087 21.2786H29.4845H27.3282H25.1693L8.32993 21.2836H6.17104H4.01215V23.4408V25.5979H6.17104V27.7551H8.32993V29.9098H10.4888V32.0619H12.6477V33.0206V33.1392V34.2165H14.8066H16.9655H19.1244H21.2833V33.1417V32.0644H23.4422V29.9072H25.5985V27.7526H29.9138V25.5954H27.7549H28.621H29.9113V23.4383V25.5929V27.7475H32.0701V29.9022H34.2265V32.0543H36.3829V34.2115H38.1176V34.2165H40.2765H42.4353H44.5942V33.1392V32.0619V32.0543H46.7506V29.8997H48.907V27.7425H51.0633V25.5929H53.2222V21.276L53.2197 21.271ZM37.153 32.0543H37.5747H36.5773H37.1505H37.153Z" fill="#161616"/>
<path d="M13.6782 25.1764L11.5197 25.2163L11.5597 27.3731L13.7182 27.3332L13.6782 25.1764Z" fill="white"/>
<path d="M15.8734 27.2951L13.7148 27.335L13.7548 29.4918L15.9133 29.4519L15.8734 27.2951Z" fill="white"/>
<path d="M11.4805 23.0602L9.32196 23.1001L9.3619 25.2569L11.5204 25.217L11.4805 23.0602Z" fill="white"/>
<path d="M36.9823 24.7482L34.8237 24.7881L34.8637 26.9449L37.0222 26.905L36.9823 24.7482Z" fill="white"/>
<path d="M39.1824 26.8619L37.0239 26.9019L37.0638 29.0587L39.2223 29.0187L39.1824 26.8619Z" fill="white"/>
<path d="M34.7871 22.6295L32.6285 22.6694L32.6685 24.8262L34.827 24.7863L34.7871 22.6295Z" fill="white"/>
<path d="M13.6782 25.1764L11.5197 25.2163L11.5597 27.3731L13.7182 27.3332L13.6782 25.1764Z" fill="white"/>
<path d="M15.8734 27.2951L13.7148 27.335L13.7548 29.4918L15.9133 29.4519L15.8734 27.2951Z" fill="white"/>
<path d="M11.4376 23.0609L9.31946 23.1001L9.35865 25.2165L11.4768 25.1774L11.4376 23.0609Z" fill="white"/>
<path d="M17.9887 25.0993L15.8302 25.1392L15.8701 27.296L18.0287 27.2561L17.9887 25.0993Z" fill="white"/>
<path d="M20.1889 27.213L18.0304 27.2529L18.0703 29.4097L20.2289 29.3698L20.1889 27.213Z" fill="white"/>
<path d="M15.7936 22.983L13.6351 23.0229L13.675 25.1797L15.8335 25.1398L15.7936 22.983Z" fill="white"/>
<path d="M41.2978 24.6686L39.1393 24.7085L39.1792 26.8653L41.3377 26.8254L41.2978 24.6686Z" fill="white"/>
<path d="M43.4955 26.7819L41.337 26.8218L41.3769 28.9786L43.5354 28.9387L43.4955 26.7819Z" fill="white"/>
<path d="M39.1027 22.5524L36.9442 22.5923L36.9841 24.7491L39.1426 24.7092L39.1027 22.5524Z" fill="white"/>
</g>
</g>
<g clip-path="url(#clip2_240_1055)">
<rect x="66.5" width="518" height="102" rx="12" fill="#161616"/>
<rect x="66.5" width="518" height="50" fill="#222222"/>
<rect x="66.5" width="518" height="50" stroke="#313131"/>
<path d="M86.7159 30.6541C85.9768 30.6541 85.3404 30.4867 84.8068 30.152C84.2765 29.8139 83.8688 29.3482 83.5838 28.755C83.2988 28.1617 83.1562 27.4822 83.1562 26.7166C83.1562 25.9411 83.3021 25.2566 83.5938 24.6634C83.8854 24.0668 84.2964 23.6011 84.8267 23.2663C85.357 22.9316 85.9818 22.7642 86.701 22.7642C87.281 22.7642 87.7981 22.8719 88.2521 23.0874C88.7062 23.2995 89.0724 23.5978 89.3509 23.9822C89.6326 24.3667 89.8 24.8158 89.853 25.3295H88.4062C88.3267 24.9716 88.1444 24.6634 87.8594 24.4048C87.5777 24.1463 87.1998 24.017 86.7259 24.017C86.3116 24.017 85.9486 24.1264 85.6371 24.3452C85.3288 24.5606 85.0885 24.8688 84.9162 25.2699C84.7438 25.6676 84.6577 26.1383 84.6577 26.6818C84.6577 27.2386 84.7422 27.7192 84.9112 28.1236C85.0803 28.5279 85.3189 28.8411 85.6271 29.0632C85.9387 29.2853 86.3049 29.3963 86.7259 29.3963C87.0076 29.3963 87.2628 29.3449 87.4915 29.2422C87.7235 29.1361 87.9174 28.9853 88.0732 28.7898C88.2322 28.5942 88.3433 28.3589 88.4062 28.0838H89.853C89.8 28.5777 89.6392 29.0185 89.3707 29.4062C89.1023 29.794 88.7427 30.099 88.2919 30.321C87.8445 30.5431 87.3191 30.6541 86.7159 30.6541ZM94.6593 30.6541C93.9434 30.6541 93.3186 30.4901 92.785 30.1619C92.2514 29.8338 91.8371 29.3748 91.5421 28.7848C91.2471 28.1948 91.0996 27.5054 91.0996 26.7166C91.0996 25.9245 91.2471 25.2318 91.5421 24.6385C91.8371 24.0452 92.2514 23.5845 92.785 23.2564C93.3186 22.9283 93.9434 22.7642 94.6593 22.7642C95.3752 22.7642 95.9999 22.9283 96.5336 23.2564C97.0672 23.5845 97.4815 24.0452 97.7765 24.6385C98.0714 25.2318 98.2189 25.9245 98.2189 26.7166C98.2189 27.5054 98.0714 28.1948 97.7765 28.7848C97.4815 29.3748 97.0672 29.8338 96.5336 30.1619C95.9999 30.4901 95.3752 30.6541 94.6593 30.6541ZM94.6642 29.4062C95.1283 29.4062 95.5127 29.2836 95.8176 29.0384C96.1226 28.7931 96.348 28.4666 96.4938 28.0589C96.6429 27.6513 96.7175 27.2022 96.7175 26.7116C96.7175 26.2244 96.6429 25.777 96.4938 25.3693C96.348 24.9583 96.1226 24.6286 95.8176 24.38C95.5127 24.1314 95.1283 24.0071 94.6642 24.0071C94.1969 24.0071 93.8091 24.1314 93.5009 24.38C93.196 24.6286 92.9689 24.9583 92.8198 25.3693C92.6739 25.777 92.601 26.2244 92.601 26.7116C92.601 27.2022 92.6739 27.6513 92.8198 28.0589C92.9689 28.4666 93.196 28.7931 93.5009 29.0384C93.8091 29.2836 94.1969 29.4062 94.6642 29.4062ZM101.365 25.9659V30.5H99.8782V22.8636H101.305V24.1065H101.4C101.575 23.7022 101.85 23.3774 102.225 23.1321C102.603 22.8868 103.078 22.7642 103.652 22.7642C104.172 22.7642 104.628 22.8736 105.019 23.0923C105.41 23.3078 105.713 23.6293 105.929 24.0568C106.144 24.4844 106.252 25.013 106.252 25.6428V30.5H104.765V25.8217C104.765 25.2682 104.621 24.8357 104.333 24.5241C104.044 24.2093 103.648 24.0518 103.145 24.0518C102.8 24.0518 102.493 24.1264 102.225 24.2756C101.96 24.4247 101.749 24.6435 101.593 24.9318C101.441 25.2169 101.365 25.5616 101.365 25.9659ZM111.81 22.8636V24.0568H107.639V22.8636H111.81ZM108.757 21.0341H110.244V28.2578C110.244 28.5462 110.287 28.7633 110.373 28.9091C110.459 29.0516 110.57 29.1494 110.706 29.2024C110.846 29.2521 110.996 29.277 111.159 29.277C111.278 29.277 111.382 29.2687 111.472 29.2521C111.561 29.2356 111.631 29.2223 111.681 29.2124L111.949 30.4403C111.863 30.4735 111.74 30.5066 111.581 30.5398C111.422 30.5762 111.223 30.5961 110.985 30.5994C110.594 30.6061 110.229 30.5365 109.891 30.3906C109.553 30.2448 109.279 30.0194 109.071 29.7145C108.862 29.4096 108.757 29.0268 108.757 28.5661V21.0341ZM113.454 30.5V22.8636H114.891V24.0767H114.971C115.11 23.6657 115.355 23.3426 115.706 23.1072C116.061 22.8686 116.462 22.7493 116.91 22.7493C117.002 22.7493 117.112 22.7526 117.238 22.7592C117.367 22.7659 117.468 22.7741 117.541 22.7841V24.206C117.481 24.1894 117.375 24.1712 117.223 24.1513C117.07 24.1281 116.918 24.1165 116.765 24.1165C116.414 24.1165 116.101 24.1911 115.826 24.3402C115.554 24.486 115.339 24.6899 115.18 24.9517C115.02 25.2102 114.941 25.5052 114.941 25.8366V30.5H113.454ZM118.827 30.5V22.8636H120.314V30.5H118.827ZM119.578 21.6854C119.32 21.6854 119.098 21.5992 118.912 21.4268C118.73 21.2512 118.638 21.0424 118.638 20.8004C118.638 20.5552 118.73 20.3464 118.912 20.174C119.098 19.9983 119.32 19.9105 119.578 19.9105C119.837 19.9105 120.057 19.9983 120.239 20.174C120.425 20.3464 120.518 20.5552 120.518 20.8004C120.518 21.0424 120.425 21.2512 120.239 21.4268C120.057 21.5992 119.837 21.6854 119.578 21.6854ZM122.433 30.5V20.3182H123.92V24.1016H124.009C124.095 23.9425 124.22 23.7585 124.382 23.5497C124.544 23.3409 124.77 23.1586 125.058 23.0028C125.346 22.8438 125.728 22.7642 126.202 22.7642C126.818 22.7642 127.368 22.92 127.852 23.2315C128.336 23.5431 128.715 23.9922 128.991 24.5788C129.269 25.1655 129.408 25.8714 129.408 26.6967C129.408 27.522 129.271 28.2296 128.996 28.8196C128.72 29.4062 128.343 29.8587 127.862 30.1768C127.381 30.4917 126.833 30.6491 126.216 30.6491C125.752 30.6491 125.373 30.5713 125.078 30.4155C124.786 30.2597 124.558 30.0774 124.392 29.8686C124.226 29.6598 124.099 29.4742 124.009 29.3118H123.885V30.5H122.433ZM123.89 26.6818C123.89 27.2187 123.968 27.6894 124.123 28.0938C124.279 28.4981 124.505 28.8146 124.8 29.0433C125.095 29.2687 125.456 29.3814 125.883 29.3814C126.327 29.3814 126.699 29.2637 126.997 29.0284C127.295 28.7898 127.521 28.4666 127.673 28.0589C127.829 27.6513 127.907 27.1922 127.907 26.6818C127.907 26.178 127.831 25.7256 127.678 25.3246C127.529 24.9235 127.304 24.607 127.002 24.375C126.704 24.143 126.331 24.027 125.883 24.027C125.452 24.027 125.088 24.138 124.79 24.3601C124.495 24.5821 124.271 24.892 124.118 25.2898C123.966 25.6875 123.89 26.1515 123.89 26.6818ZM135.915 27.3331V22.8636H137.406V30.5H135.945V29.1776H135.865C135.689 29.5852 135.408 29.925 135.02 30.1967C134.635 30.4652 134.156 30.5994 133.583 30.5994C133.093 30.5994 132.658 30.4917 132.281 30.2763C131.906 30.0575 131.611 29.7344 131.396 29.3068C131.183 28.8793 131.077 28.3506 131.077 27.7209V22.8636H132.564V27.5419C132.564 28.0623 132.708 28.4766 132.996 28.7848C133.285 29.093 133.659 29.2472 134.12 29.2472C134.398 29.2472 134.675 29.1776 134.95 29.0384C135.229 28.8991 135.459 28.6887 135.641 28.407C135.827 28.1252 135.918 27.7673 135.915 27.3331ZM142.968 22.8636V24.0568H138.797V22.8636H142.968ZM139.916 21.0341H141.402V28.2578C141.402 28.5462 141.445 28.7633 141.531 28.9091C141.618 29.0516 141.729 29.1494 141.865 29.2024C142.004 29.2521 142.155 29.277 142.317 29.277C142.436 29.277 142.541 29.2687 142.63 29.2521C142.72 29.2356 142.789 29.2223 142.839 29.2124L143.107 30.4403C143.021 30.4735 142.899 30.5066 142.74 30.5398C142.58 30.5762 142.382 30.5961 142.143 30.5994C141.752 30.6061 141.387 30.5365 141.049 30.3906C140.711 30.2448 140.438 30.0194 140.229 29.7145C140.02 29.4096 139.916 29.0268 139.916 28.5661V21.0341ZM147.747 30.6541C147.031 30.6541 146.406 30.4901 145.873 30.1619C145.339 29.8338 144.925 29.3748 144.63 28.7848C144.335 28.1948 144.188 27.5054 144.188 26.7166C144.188 25.9245 144.335 25.2318 144.63 24.6385C144.925 24.0452 145.339 23.5845 145.873 23.2564C146.406 22.9283 147.031 22.7642 147.747 22.7642C148.463 22.7642 149.088 22.9283 149.621 23.2564C150.155 23.5845 150.569 24.0452 150.864 24.6385C151.159 25.2318 151.307 25.9245 151.307 26.7166C151.307 27.5054 151.159 28.1948 150.864 28.7848C150.569 29.3748 150.155 29.8338 149.621 30.1619C149.088 30.4901 148.463 30.6541 147.747 30.6541ZM147.752 29.4062C148.216 29.4062 148.601 29.2836 148.906 29.0384C149.21 28.7931 149.436 28.4666 149.582 28.0589C149.731 27.6513 149.805 27.2022 149.805 26.7116C149.805 26.2244 149.731 25.777 149.582 25.3693C149.436 24.9583 149.21 24.6286 148.906 24.38C148.601 24.1314 148.216 24.0071 147.752 24.0071C147.285 24.0071 146.897 24.1314 146.589 24.38C146.284 24.6286 146.057 24.9583 145.908 25.3693C145.762 25.777 145.689 26.2244 145.689 26.7116C145.689 27.2022 145.762 27.6513 145.908 28.0589C146.057 28.4666 146.284 28.7931 146.589 29.0384C146.897 29.2836 147.285 29.4062 147.752 29.4062ZM152.966 30.5V22.8636H154.403V24.0767H154.482C154.622 23.6657 154.867 23.3426 155.218 23.1072C155.573 22.8686 155.974 22.7493 156.421 22.7493C156.514 22.7493 156.624 22.7526 156.749 22.7592C156.879 22.7659 156.98 22.7741 157.053 22.7841V24.206C156.993 24.1894 156.887 24.1712 156.735 24.1513C156.582 24.1281 156.43 24.1165 156.277 24.1165C155.926 24.1165 155.613 24.1911 155.338 24.3402C155.066 24.486 154.85 24.6899 154.691 24.9517C154.532 25.2102 154.453 25.5052 154.453 25.8366V30.5H152.966Z" fill="white"/>
<path d="M171.378 30.1477C170.713 30.1477 170.141 29.9908 169.661 29.6768C169.18 29.3629 168.811 28.9305 168.553 28.3796C168.294 27.8287 168.165 27.1993 168.165 26.4915C168.165 25.7713 168.297 25.1358 168.562 24.5849C168.83 24.0309 169.202 23.5985 169.679 23.2876C170.159 22.9737 170.719 22.8168 171.359 22.8168C171.858 22.8168 172.307 22.9091 172.707 23.0938C173.107 23.2784 173.435 23.5369 173.691 23.8693C173.946 24.2017 174.105 24.5895 174.166 25.0327H173.077C172.994 24.7095 172.809 24.4233 172.523 24.174C172.24 23.9216 171.858 23.7955 171.378 23.7955C170.953 23.7955 170.581 23.9062 170.261 24.1278C169.944 24.3464 169.696 24.6557 169.517 25.0558C169.342 25.4528 169.254 25.919 169.254 26.4545C169.254 27.0024 169.34 27.4794 169.513 27.8857C169.688 28.2919 169.934 28.6074 170.251 28.832C170.571 29.0567 170.947 29.169 171.378 29.169C171.661 29.169 171.918 29.1198 172.149 29.0213C172.38 28.9228 172.575 28.7812 172.735 28.5966C172.895 28.4119 173.009 28.1903 173.077 27.9318H174.166C174.105 28.3504 173.952 28.7274 173.709 29.0629C173.469 29.3952 173.151 29.6599 172.754 29.8569C172.36 30.0508 171.901 30.1477 171.378 30.1477ZM178.64 30.1477C177.999 30.1477 177.438 29.9954 176.955 29.6907C176.474 29.386 176.099 28.9598 175.828 28.4119C175.56 27.8641 175.426 27.224 175.426 26.4915C175.426 25.7528 175.56 25.1081 175.828 24.5572C176.099 24.0063 176.474 23.5785 176.955 23.2738C177.438 22.9691 177.999 22.8168 178.64 22.8168C179.28 22.8168 179.84 22.9691 180.32 23.2738C180.803 23.5785 181.179 24.0063 181.446 24.5572C181.717 25.1081 181.853 25.7528 181.853 26.4915C181.853 27.224 181.717 27.8641 181.446 28.4119C181.179 28.9598 180.803 29.386 180.32 29.6907C179.84 29.9954 179.28 30.1477 178.64 30.1477ZM178.64 29.169C179.126 29.169 179.526 29.0444 179.84 28.7951C180.154 28.5458 180.386 28.218 180.537 27.8118C180.688 27.4055 180.763 26.9654 180.763 26.4915C180.763 26.0175 180.688 25.5759 180.537 25.1665C180.386 24.7572 180.154 24.4264 179.84 24.174C179.526 23.9216 179.126 23.7955 178.64 23.7955C178.153 23.7955 177.753 23.9216 177.439 24.174C177.125 24.4264 176.893 24.7572 176.742 25.1665C176.591 25.5759 176.516 26.0175 176.516 26.4915C176.516 26.9654 176.591 27.4055 176.742 27.8118C176.893 28.218 177.125 28.5458 177.439 28.7951C177.753 29.0444 178.153 29.169 178.64 29.169ZM183.516 30V22.9091H184.568V24.017H184.661C184.808 23.6385 185.047 23.3446 185.376 23.1353C185.705 22.9229 186.101 22.8168 186.563 22.8168C187.03 22.8168 187.42 22.9229 187.731 23.1353C188.044 23.3446 188.289 23.6385 188.465 24.017H188.538C188.72 23.6508 188.992 23.36 189.356 23.1445C189.719 22.926 190.154 22.8168 190.662 22.8168C191.296 22.8168 191.815 23.0153 192.218 23.4123C192.621 23.8062 192.823 24.4202 192.823 25.2543V30H191.733V25.2543C191.733 24.7311 191.59 24.3571 191.304 24.1325C191.017 23.9078 190.68 23.7955 190.293 23.7955C189.794 23.7955 189.408 23.9463 189.134 24.2479C188.86 24.5464 188.723 24.925 188.723 25.3835V30H187.615V25.1435C187.615 24.7403 187.484 24.4156 187.223 24.1694C186.961 23.9201 186.624 23.7955 186.212 23.7955C185.929 23.7955 185.664 23.8709 185.418 24.0217C185.175 24.1725 184.978 24.3817 184.827 24.6495C184.679 24.9142 184.605 25.2204 184.605 25.5682V30H183.516ZM194.815 30V22.9091H195.867V24.017H195.959C196.107 23.6385 196.346 23.3446 196.675 23.1353C197.004 22.9229 197.4 22.8168 197.861 22.8168C198.329 22.8168 198.719 22.9229 199.029 23.1353C199.343 23.3446 199.588 23.6385 199.763 24.017H199.837C200.019 23.6508 200.291 23.36 200.654 23.1445C201.018 22.926 201.453 22.8168 201.961 22.8168C202.595 22.8168 203.113 23.0153 203.517 23.4123C203.92 23.8062 204.121 24.4202 204.121 25.2543V30H203.032V25.2543C203.032 24.7311 202.889 24.3571 202.603 24.1325C202.316 23.9078 201.979 23.7955 201.592 23.7955C201.093 23.7955 200.707 23.9463 200.433 24.2479C200.159 24.5464 200.022 24.925 200.022 25.3835V30H198.914V25.1435C198.914 24.7403 198.783 24.4156 198.522 24.1694C198.26 23.9201 197.923 23.7955 197.511 23.7955C197.227 23.7955 196.963 23.8709 196.717 24.0217C196.473 24.1725 196.276 24.3817 196.126 24.6495C195.978 24.9142 195.904 25.2204 195.904 25.5682V30H194.815ZM209.086 30.1477C208.403 30.1477 207.814 29.9969 207.318 29.6953C206.826 29.3906 206.446 28.9659 206.178 28.4212C205.913 27.8733 205.781 27.2363 205.781 26.5099C205.781 25.7836 205.913 25.1435 206.178 24.5895C206.446 24.0324 206.818 23.5985 207.295 23.2876C207.775 22.9737 208.335 22.8168 208.976 22.8168C209.345 22.8168 209.71 22.8783 210.07 23.0014C210.43 23.1245 210.758 23.3246 211.053 23.6016C211.348 23.8755 211.584 24.2386 211.759 24.6911C211.935 25.1435 212.022 25.7005 212.022 26.3622V26.8239H206.557V25.8821H210.915C210.915 25.482 210.834 25.125 210.674 24.8111C210.517 24.4972 210.293 24.2494 210 24.0678C209.711 23.8862 209.37 23.7955 208.976 23.7955C208.542 23.7955 208.166 23.9032 207.849 24.1186C207.535 24.331 207.294 24.608 207.124 24.9496C206.955 25.2912 206.87 25.6574 206.87 26.0483V26.6761C206.87 27.2116 206.963 27.6656 207.147 28.038C207.335 28.4073 207.595 28.6889 207.928 28.8828C208.26 29.0736 208.646 29.169 209.086 29.169C209.373 29.169 209.631 29.129 209.862 29.049C210.096 28.9659 210.297 28.8428 210.467 28.6797C210.636 28.5135 210.767 28.3073 210.859 28.0611L211.912 28.3565C211.801 28.7135 211.615 29.0275 211.353 29.2983C211.091 29.5661 210.768 29.7753 210.384 29.9261C209.999 30.0739 209.566 30.1477 209.086 30.1477ZM214.769 25.7344V30H213.68V22.9091H214.732V24.017H214.825C214.991 23.657 215.243 23.3677 215.582 23.1491C215.92 22.9276 216.357 22.8168 216.893 22.8168C217.373 22.8168 217.793 22.9152 218.153 23.1122C218.513 23.3061 218.793 23.6016 218.993 23.9986C219.193 24.3925 219.293 24.8911 219.293 25.4943V30H218.204V25.5682C218.204 25.0111 218.059 24.5772 217.77 24.2663C217.481 23.9524 217.084 23.7955 216.579 23.7955C216.231 23.7955 215.92 23.8709 215.646 24.0217C215.376 24.1725 215.162 24.3925 215.005 24.6818C214.848 24.9711 214.769 25.322 214.769 25.7344ZM224.368 22.9091V23.8324H220.693V22.9091H224.368ZM221.764 21.2102H222.854V27.9688C222.854 28.2765 222.898 28.5073 222.988 28.6612C223.08 28.812 223.197 28.9136 223.339 28.9659C223.483 29.0152 223.636 29.0398 223.796 29.0398C223.916 29.0398 224.014 29.0336 224.091 29.0213C224.168 29.0059 224.23 28.9936 224.276 28.9844L224.497 29.9631C224.423 29.9908 224.32 30.0185 224.188 30.0462C224.056 30.0769 223.888 30.0923 223.685 30.0923C223.377 30.0923 223.075 30.0262 222.78 29.8938C222.488 29.7615 222.244 29.5599 222.051 29.2891C221.86 29.0182 221.764 28.6766 221.764 28.2642V21.2102ZM228.904 30.1477C228.221 30.1477 227.631 29.9969 227.136 29.6953C226.643 29.3906 226.263 28.9659 225.995 28.4212C225.731 27.8733 225.598 27.2363 225.598 26.5099C225.598 25.7836 225.731 25.1435 225.995 24.5895C226.263 24.0324 226.636 23.5985 227.113 23.2876C227.593 22.9737 228.153 22.8168 228.793 22.8168C229.162 22.8168 229.527 22.8783 229.887 23.0014C230.247 23.1245 230.575 23.3246 230.87 23.6016C231.166 23.8755 231.401 24.2386 231.577 24.6911C231.752 25.1435 231.84 25.7005 231.84 26.3622V26.8239H226.374V25.8821H230.732C230.732 25.482 230.652 25.125 230.492 24.8111C230.335 24.4972 230.11 24.2494 229.818 24.0678C229.529 23.8862 229.187 23.7955 228.793 23.7955C228.359 23.7955 227.984 23.9032 227.667 24.1186C227.353 24.331 227.111 24.608 226.942 24.9496C226.772 25.2912 226.688 25.6574 226.688 26.0483V26.6761C226.688 27.2116 226.78 27.6656 226.965 28.038C227.153 28.4073 227.413 28.6889 227.745 28.8828C228.077 29.0736 228.464 29.169 228.904 29.169C229.19 29.169 229.449 29.129 229.679 29.049C229.913 28.9659 230.115 28.8428 230.284 28.6797C230.453 28.5135 230.584 28.3073 230.676 28.0611L231.729 28.3565C231.618 28.7135 231.432 29.0275 231.17 29.2983C230.909 29.5661 230.586 29.7753 230.201 29.9261C229.816 30.0739 229.384 30.1477 228.904 30.1477ZM236.175 30.1477C235.584 30.1477 235.062 29.9985 234.61 29.6999C234.157 29.3983 233.803 28.9736 233.548 28.4258C233.292 27.8749 233.165 27.224 233.165 26.473C233.165 25.7282 233.292 25.0819 233.548 24.5341C233.803 23.9863 234.159 23.5631 234.614 23.2646C235.07 22.966 235.596 22.8168 236.193 22.8168C236.655 22.8168 237.02 22.8937 237.287 23.0476C237.558 23.1984 237.764 23.3707 237.906 23.5646C238.051 23.7554 238.163 23.9124 238.243 24.0355H238.335V20.5455H239.425V30H238.372V28.9105H238.243C238.163 29.0398 238.049 29.2029 237.901 29.3999C237.754 29.5937 237.543 29.7676 237.269 29.9215C236.995 30.0723 236.63 30.1477 236.175 30.1477ZM236.322 29.169C236.759 29.169 237.129 29.0552 237.43 28.8274C237.732 28.5966 237.961 28.2781 238.118 27.8718C238.275 27.4625 238.354 26.9901 238.354 26.4545C238.354 25.9252 238.277 25.462 238.123 25.065C237.969 24.6649 237.741 24.354 237.44 24.1325C237.138 23.9078 236.766 23.7955 236.322 23.7955C235.861 23.7955 235.476 23.9139 235.168 24.1509C234.864 24.3848 234.634 24.7034 234.48 25.1065C234.33 25.5066 234.254 25.956 234.254 26.4545C234.254 26.9593 234.331 27.4179 234.485 27.8303C234.642 28.2396 234.873 28.5658 235.178 28.8089C235.485 29.049 235.867 29.169 236.322 29.169ZM248.533 20.5455V30H247.388V21.7457H247.333L245.025 23.2784V22.1151L247.388 20.5455H248.533ZM257.604 30.1477C257.013 30.1477 256.492 29.9985 256.039 29.6999C255.587 29.3983 255.233 28.9736 254.978 28.4258C254.722 27.8749 254.594 27.224 254.594 26.473C254.594 25.7282 254.722 25.0819 254.978 24.5341C255.233 23.9863 255.589 23.5631 256.044 23.2646C256.5 22.966 257.026 22.8168 257.623 22.8168C258.085 22.8168 258.449 22.8937 258.717 23.0476C258.988 23.1984 259.194 23.3707 259.336 23.5646C259.48 23.7554 259.593 23.9124 259.673 24.0355H259.765V20.5455H260.854V30H259.802V28.9105H259.673C259.593 29.0398 259.479 29.2029 259.331 29.3999C259.183 29.5937 258.972 29.7676 258.699 29.9215C258.425 30.0723 258.06 30.1477 257.604 30.1477ZM257.752 29.169C258.189 29.169 258.558 29.0552 258.86 28.8274C259.162 28.5966 259.391 28.2781 259.548 27.8718C259.705 27.4625 259.783 26.9901 259.783 26.4545C259.783 25.9252 259.706 25.462 259.553 25.065C259.399 24.6649 259.171 24.354 258.869 24.1325C258.568 23.9078 258.195 23.7955 257.752 23.7955C257.29 23.7955 256.906 23.9139 256.598 24.1509C256.293 24.3848 256.064 24.7034 255.91 25.1065C255.759 25.5066 255.684 25.956 255.684 26.4545C255.684 26.9593 255.761 27.4179 255.915 27.8303C256.072 28.2396 256.303 28.5658 256.607 28.8089C256.915 29.049 257.297 29.169 257.752 29.169ZM265.088 30.1662C264.638 30.1662 264.231 30.0816 263.864 29.9123C263.498 29.7399 263.207 29.4922 262.992 29.169C262.776 28.8428 262.669 28.4489 262.669 27.9872C262.669 27.581 262.749 27.2517 262.909 26.9993C263.069 26.7438 263.283 26.5438 263.55 26.3991C263.818 26.2545 264.114 26.1468 264.437 26.076C264.763 26.0021 265.091 25.9437 265.42 25.9006C265.851 25.8452 266.2 25.8036 266.468 25.7759C266.739 25.7451 266.936 25.6944 267.059 25.6236C267.185 25.5528 267.248 25.4297 267.248 25.2543V25.2173C267.248 24.7618 267.124 24.4079 266.874 24.1555C266.628 23.9032 266.254 23.777 265.752 23.777C265.232 23.777 264.825 23.8909 264.529 24.1186C264.234 24.3464 264.026 24.5895 263.906 24.848L262.872 24.4787C263.056 24.0478 263.303 23.7124 263.61 23.4723C263.921 23.2292 264.26 23.0599 264.626 22.9645C264.995 22.866 265.359 22.8168 265.716 22.8168C265.943 22.8168 266.205 22.8445 266.5 22.8999C266.799 22.9522 267.087 23.0614 267.364 23.2276C267.644 23.3938 267.876 23.6446 268.061 23.9801C268.245 24.3156 268.338 24.7649 268.338 25.3281V30H267.248V29.0398H267.193C267.119 29.1937 266.996 29.3583 266.824 29.5337C266.651 29.7092 266.422 29.8584 266.136 29.9815C265.849 30.1046 265.5 30.1662 265.088 30.1662ZM265.254 29.1875C265.685 29.1875 266.048 29.1029 266.343 28.9336C266.642 28.7643 266.867 28.5458 267.017 28.2781C267.171 28.0103 267.248 27.7287 267.248 27.4332V26.4361C267.202 26.4915 267.1 26.5423 266.944 26.5884C266.79 26.6315 266.611 26.67 266.408 26.7038C266.208 26.7346 266.013 26.7623 265.822 26.7869C265.634 26.8085 265.482 26.8269 265.365 26.8423C265.082 26.8793 264.817 26.9393 264.571 27.0224C264.328 27.1024 264.131 27.224 263.98 27.3871C263.832 27.5471 263.758 27.7656 263.758 28.0426C263.758 28.4212 263.898 28.7074 264.178 28.9013C264.461 29.0921 264.82 29.1875 265.254 29.1875ZM270.774 32.6591C270.589 32.6591 270.425 32.6437 270.28 32.6129C270.135 32.5852 270.035 32.5575 269.98 32.5298L270.257 31.5696C270.522 31.6373 270.756 31.6619 270.959 31.6435C271.162 31.625 271.342 31.5342 271.499 31.3711C271.659 31.2111 271.805 30.951 271.937 30.5909L272.141 30.0369L269.518 22.9091H270.7L272.658 28.5597H272.731L274.689 22.9091H275.871L272.861 31.0341C272.725 31.4003 272.558 31.7035 272.358 31.9435C272.157 32.1867 271.925 32.3667 271.66 32.4837C271.399 32.6006 271.103 32.6591 270.774 32.6591ZM283.052 30.1662C282.602 30.1662 282.194 30.0816 281.828 29.9123C281.462 29.7399 281.171 29.4922 280.956 29.169C280.74 28.8428 280.633 28.4489 280.633 27.9872C280.633 27.581 280.713 27.2517 280.873 26.9993C281.033 26.7438 281.247 26.5438 281.514 26.3991C281.782 26.2545 282.078 26.1468 282.401 26.076C282.727 26.0021 283.055 25.9437 283.384 25.9006C283.815 25.8452 284.164 25.8036 284.432 25.7759C284.703 25.7451 284.9 25.6944 285.023 25.6236C285.149 25.5528 285.212 25.4297 285.212 25.2543V25.2173C285.212 24.7618 285.087 24.4079 284.838 24.1555C284.592 23.9032 284.218 23.777 283.716 23.777C283.196 23.777 282.788 23.8909 282.493 24.1186C282.198 24.3464 281.99 24.5895 281.87 24.848L280.836 24.4787C281.02 24.0478 281.267 23.7124 281.574 23.4723C281.885 23.2292 282.224 23.0599 282.59 22.9645C282.959 22.866 283.322 22.8168 283.679 22.8168C283.907 22.8168 284.169 22.8445 284.464 22.8999C284.763 22.9522 285.051 23.0614 285.328 23.2276C285.608 23.3938 285.84 23.6446 286.025 23.9801C286.209 24.3156 286.302 24.7649 286.302 25.3281V30H285.212V29.0398H285.157C285.083 29.1937 284.96 29.3583 284.787 29.5337C284.615 29.7092 284.386 29.8584 284.1 29.9815C283.813 30.1046 283.464 30.1662 283.052 30.1662ZM283.218 29.1875C283.649 29.1875 284.012 29.1029 284.307 28.9336C284.606 28.7643 284.83 28.5458 284.981 28.2781C285.135 28.0103 285.212 27.7287 285.212 27.4332V26.4361C285.166 26.4915 285.064 26.5423 284.907 26.5884C284.754 26.6315 284.575 26.67 284.372 26.7038C284.172 26.7346 283.976 26.7623 283.786 26.7869C283.598 26.8085 283.446 26.8269 283.329 26.8423C283.045 26.8793 282.781 26.9393 282.535 27.0224C282.291 27.1024 282.094 27.224 281.944 27.3871C281.796 27.5471 281.722 27.7656 281.722 28.0426C281.722 28.4212 281.862 28.7074 282.142 28.9013C282.425 29.0921 282.784 29.1875 283.218 29.1875ZM291.152 32.8068C290.626 32.8068 290.174 32.7391 289.795 32.6037C289.417 32.4714 289.101 32.2959 288.849 32.0774C288.599 31.862 288.401 31.6312 288.253 31.3849L289.121 30.7756C289.22 30.9048 289.344 31.0526 289.495 31.2188C289.646 31.388 289.852 31.5342 290.114 31.6573C290.378 31.7835 290.725 31.8466 291.152 31.8466C291.725 31.8466 292.197 31.7081 292.57 31.4311C292.942 31.1541 293.128 30.7202 293.128 30.1293V28.6889H293.036C292.956 28.8182 292.842 28.9782 292.694 29.169C292.55 29.3568 292.34 29.5245 292.066 29.6722C291.796 29.8169 291.429 29.8892 290.968 29.8892C290.395 29.8892 289.881 29.7538 289.426 29.483C288.973 29.2121 288.615 28.8182 288.35 28.3011C288.089 27.7841 287.958 27.1562 287.958 26.4176C287.958 25.6913 288.085 25.0588 288.341 24.5202C288.596 23.9786 288.952 23.56 289.407 23.2646C289.863 22.966 290.389 22.8168 290.986 22.8168C291.448 22.8168 291.814 22.8937 292.085 23.0476C292.359 23.1984 292.568 23.3707 292.713 23.5646C292.86 23.7554 292.974 23.9124 293.054 24.0355H293.165V22.9091H294.218V30.2031C294.218 30.8125 294.079 31.308 293.802 31.6896C293.528 32.0743 293.159 32.3559 292.694 32.5344C292.233 32.716 291.719 32.8068 291.152 32.8068ZM291.115 28.9105C291.552 28.9105 291.922 28.8105 292.223 28.6104C292.525 28.4104 292.754 28.1226 292.911 27.7472C293.068 27.3717 293.147 26.9223 293.147 26.3991C293.147 25.8883 293.07 25.4374 292.916 25.0465C292.762 24.6557 292.534 24.3494 292.233 24.1278C291.931 23.9062 291.559 23.7955 291.115 23.7955C290.654 23.7955 290.269 23.9124 289.961 24.1463C289.657 24.3802 289.427 24.6941 289.273 25.0881C289.123 25.482 289.047 25.919 289.047 26.3991C289.047 26.8916 289.124 27.3271 289.278 27.7056C289.435 28.0811 289.666 28.3765 289.971 28.592C290.278 28.8043 290.66 28.9105 291.115 28.9105ZM299.093 30.1477C298.453 30.1477 297.891 29.9954 297.408 29.6907C296.928 29.386 296.552 28.9598 296.281 28.4119C296.013 27.8641 295.88 27.224 295.88 26.4915C295.88 25.7528 296.013 25.1081 296.281 24.5572C296.552 24.0063 296.928 23.5785 297.408 23.2738C297.891 22.9691 298.453 22.8168 299.093 22.8168C299.733 22.8168 300.293 22.9691 300.773 23.2738C301.256 23.5785 301.632 24.0063 301.9 24.5572C302.17 25.1081 302.306 25.7528 302.306 26.4915C302.306 27.224 302.17 27.8641 301.9 28.4119C301.632 28.9598 301.256 29.386 300.773 29.6907C300.293 29.9954 299.733 30.1477 299.093 30.1477ZM299.093 29.169C299.579 29.169 299.979 29.0444 300.293 28.7951C300.607 28.5458 300.839 28.218 300.99 27.8118C301.141 27.4055 301.216 26.9654 301.216 26.4915C301.216 26.0175 301.141 25.5759 300.99 25.1665C300.839 24.7572 300.607 24.4264 300.293 24.174C299.979 23.9216 299.579 23.7955 299.093 23.7955C298.606 23.7955 298.206 23.9216 297.892 24.174C297.578 24.4264 297.346 24.7572 297.195 25.1665C297.045 25.5759 296.969 26.0175 296.969 26.4915C296.969 26.9654 297.045 27.4055 297.195 27.8118C297.346 28.218 297.578 28.5458 297.892 28.7951C298.206 29.0444 298.606 29.169 299.093 29.169Z" fill="#919399"/>
<path d="M90.4318 85.0682C89.2727 85.0682 88.2481 84.9091 87.358 84.5909C86.4678 84.2765 85.7197 83.8125 85.1136 83.1989C84.5076 82.5852 84.0492 81.8333 83.7386 80.9432C83.428 80.053 83.2727 79.0341 83.2727 77.8864C83.2727 76.7765 83.4299 75.7841 83.7443 74.9091C84.0625 74.0341 84.5227 73.2917 85.125 72.6818C85.7311 72.0682 86.4659 71.6004 87.3295 71.2784C88.197 70.9564 89.178 70.7955 90.2727 70.7955C91.3371 70.7955 92.2689 70.9697 93.0682 71.3182C93.8712 71.6629 94.5417 72.1307 95.0795 72.7216C95.6212 73.3087 96.0265 73.9697 96.2955 74.7045C96.5682 75.4394 96.7045 76.197 96.7045 76.9773C96.7045 77.5265 96.678 78.0833 96.625 78.6477C96.572 79.2121 96.4602 79.7311 96.2898 80.2045C96.1193 80.6742 95.8561 81.053 95.5 81.3409C95.1477 81.6288 94.6705 81.7727 94.0682 81.7727C93.803 81.7727 93.5114 81.7311 93.1932 81.6477C92.875 81.5644 92.5928 81.4261 92.3466 81.233C92.1004 81.0398 91.9545 80.7803 91.9091 80.4545H91.8409C91.75 80.6742 91.6098 80.8826 91.4205 81.0795C91.2348 81.2765 90.9905 81.4337 90.6875 81.5511C90.3883 81.6686 90.0227 81.7197 89.5909 81.7045C89.0985 81.6856 88.6648 81.5758 88.2898 81.375C87.9148 81.1705 87.6004 80.8939 87.3466 80.5455C87.0966 80.1932 86.9072 79.786 86.7784 79.3239C86.6534 78.858 86.5909 78.3561 86.5909 77.8182C86.5909 77.3068 86.6667 76.839 86.8182 76.4148C86.9697 75.9905 87.1799 75.6193 87.4489 75.3011C87.7216 74.983 88.0398 74.7292 88.4034 74.5398C88.7708 74.3466 89.1667 74.2273 89.5909 74.1818C89.9697 74.1439 90.3144 74.161 90.625 74.233C90.9356 74.3011 91.1913 74.4053 91.392 74.5455C91.5928 74.6818 91.7197 74.8333 91.7727 75H91.8409V74.3636H93.0455V79.5C93.0455 79.8182 93.1345 80.0985 93.3125 80.3409C93.4905 80.5833 93.75 80.7045 94.0909 80.7045C94.4773 80.7045 94.7727 80.572 94.9773 80.3068C95.1856 80.0417 95.3277 79.6326 95.4034 79.0795C95.483 78.5265 95.5227 77.8182 95.5227 76.9545C95.5227 76.447 95.4527 75.947 95.3125 75.4545C95.1761 74.9583 94.9678 74.4943 94.6875 74.0625C94.411 73.6307 94.0606 73.25 93.6364 72.9205C93.2121 72.5909 92.714 72.3333 92.142 72.1477C91.5739 71.9583 90.928 71.8636 90.2045 71.8636C89.3144 71.8636 88.517 72.0019 87.8125 72.2784C87.1117 72.5511 86.5152 72.9508 86.0227 73.4773C85.5341 74 85.161 74.6364 84.9034 75.3864C84.6496 76.1326 84.5227 76.9811 84.5227 77.9318C84.5227 78.8977 84.6496 79.7557 84.9034 80.5057C85.161 81.2557 85.5398 81.8883 86.0398 82.4034C86.5436 82.9186 87.1667 83.3087 87.9091 83.5739C88.6515 83.8428 89.5076 83.9773 90.4773 83.9773C90.8939 83.9773 91.3049 83.9375 91.7102 83.858C92.1155 83.7784 92.4735 83.6913 92.7841 83.5966C93.0947 83.5019 93.3182 83.4318 93.4545 83.3864L93.7727 84.4318C93.5379 84.5303 93.2311 84.6288 92.8523 84.7273C92.4773 84.8258 92.0758 84.9072 91.6477 84.9716C91.2235 85.036 90.8182 85.0682 90.4318 85.0682ZM89.7727 80.5455C90.2803 80.5455 90.6913 80.4432 91.0057 80.2386C91.3201 80.0341 91.5492 79.7254 91.6932 79.3125C91.8371 78.8996 91.9091 78.3788 91.9091 77.75C91.9091 77.1136 91.8295 76.6174 91.6705 76.2614C91.5114 75.9053 91.2765 75.6553 90.9659 75.5114C90.6553 75.3674 90.2727 75.2955 89.8182 75.2955C89.3864 75.2955 89.017 75.4091 88.7102 75.6364C88.4072 75.8598 88.1742 76.1591 88.0114 76.5341C87.8523 76.9053 87.7727 77.3106 87.7727 77.75C87.7727 78.2348 87.8371 78.6913 87.9659 79.1193C88.0947 79.5436 88.3049 79.8883 88.5966 80.1534C88.8883 80.4148 89.2803 80.5455 89.7727 80.5455ZM98.7116 82V73.2727H100.007V74.5909H100.098C100.257 74.1591 100.545 73.8087 100.962 73.5398C101.378 73.2708 101.848 73.1364 102.371 73.1364C102.469 73.1364 102.592 73.1383 102.74 73.142C102.888 73.1458 103 73.1515 103.075 73.1591V74.5227C103.03 74.5114 102.926 74.4943 102.763 74.4716C102.604 74.4451 102.435 74.4318 102.257 74.4318C101.833 74.4318 101.454 74.5208 101.121 74.6989C100.791 74.8731 100.53 75.1155 100.337 75.4261C100.147 75.733 100.053 76.0833 100.053 76.4773V82H98.7116ZM107.233 82.2045C106.68 82.2045 106.178 82.1004 105.727 81.892C105.277 81.6799 104.919 81.375 104.653 80.9773C104.388 80.5758 104.256 80.0909 104.256 79.5227C104.256 79.0227 104.354 78.6174 104.551 78.3068C104.748 77.9924 105.011 77.7462 105.341 77.5682C105.67 77.3902 106.034 77.2576 106.432 77.1705C106.833 77.0795 107.237 77.0076 107.642 76.9545C108.172 76.8864 108.602 76.8352 108.932 76.8011C109.265 76.7633 109.508 76.7008 109.659 76.6136C109.814 76.5265 109.892 76.375 109.892 76.1591V76.1136C109.892 75.553 109.739 75.1174 109.432 74.8068C109.129 74.4962 108.669 74.3409 108.051 74.3409C107.411 74.3409 106.909 74.4811 106.545 74.7614C106.182 75.0417 105.926 75.3409 105.778 75.6591L104.506 75.2045C104.733 74.6742 105.036 74.2614 105.415 73.9659C105.797 73.6667 106.214 73.4583 106.665 73.3409C107.119 73.2197 107.566 73.1591 108.006 73.1591C108.286 73.1591 108.608 73.1932 108.972 73.2614C109.339 73.3258 109.693 73.4602 110.034 73.6648C110.379 73.8693 110.665 74.178 110.892 74.5909C111.119 75.0038 111.233 75.5568 111.233 76.25V82H109.892V80.8182H109.824C109.733 81.0076 109.581 81.2102 109.369 81.4261C109.157 81.642 108.875 81.8258 108.523 81.9773C108.17 82.1288 107.741 82.2045 107.233 82.2045ZM107.438 81C107.968 81 108.415 80.8958 108.778 80.6875C109.146 80.4792 109.422 80.2102 109.608 79.8807C109.797 79.5511 109.892 79.2045 109.892 78.8409V77.6136C109.835 77.6818 109.71 77.7443 109.517 77.8011C109.328 77.8542 109.108 77.9015 108.858 77.9432C108.612 77.9811 108.371 78.0152 108.136 78.0455C107.905 78.072 107.718 78.0947 107.574 78.1136C107.225 78.1591 106.9 78.233 106.597 78.3352C106.297 78.4337 106.055 78.5833 105.869 78.7841C105.688 78.9811 105.597 79.25 105.597 79.5909C105.597 80.0568 105.769 80.4091 106.114 80.6477C106.462 80.8826 106.903 81 107.438 81ZM117.226 82.1818C116.408 82.1818 115.703 81.9886 115.112 81.6023C114.521 81.2159 114.067 80.6837 113.749 80.0057C113.43 79.3277 113.271 78.553 113.271 77.6818C113.271 76.7955 113.434 76.0133 113.76 75.3352C114.089 74.6534 114.548 74.1212 115.135 73.7386C115.726 73.3523 116.415 73.1591 117.203 73.1591C117.817 73.1591 118.37 73.2727 118.862 73.5C119.355 73.7273 119.758 74.0455 120.072 74.4545C120.387 74.8636 120.582 75.3409 120.658 75.8864H119.317C119.214 75.4886 118.987 75.1364 118.635 74.8295C118.286 74.5189 117.817 74.3636 117.226 74.3636C116.703 74.3636 116.245 74.5 115.851 74.7727C115.461 75.0417 115.156 75.4223 114.936 75.9148C114.72 76.4034 114.612 76.9773 114.612 77.6364C114.612 78.3106 114.718 78.8977 114.93 79.3977C115.146 79.8977 115.449 80.286 115.839 80.5625C116.233 80.839 116.696 80.9773 117.226 80.9773C117.574 80.9773 117.891 80.9167 118.175 80.7955C118.459 80.6742 118.699 80.5 118.896 80.2727C119.093 80.0455 119.233 79.7727 119.317 79.4545H120.658C120.582 79.9697 120.394 80.4337 120.095 80.8466C119.8 81.2557 119.408 81.5814 118.919 81.8239C118.434 82.0625 117.87 82.1818 117.226 82.1818ZM126.277 82.1818C125.436 82.1818 124.711 81.9962 124.101 81.625C123.495 81.25 123.027 80.7273 122.697 80.0568C122.372 79.3826 122.209 78.5985 122.209 77.7045C122.209 76.8106 122.372 76.0227 122.697 75.3409C123.027 74.6553 123.485 74.1212 124.072 73.7386C124.663 73.3523 125.353 73.1591 126.141 73.1591C126.595 73.1591 127.044 73.2348 127.487 73.3864C127.93 73.5379 128.334 73.7841 128.697 74.125C129.061 74.4621 129.351 74.9091 129.567 75.4659C129.783 76.0227 129.891 76.7083 129.891 77.5227V78.0909H123.163V76.9318H128.527C128.527 76.4394 128.429 76 128.232 75.6136C128.038 75.2273 127.762 74.9223 127.402 74.6989C127.046 74.4754 126.625 74.3636 126.141 74.3636C125.607 74.3636 125.144 74.4962 124.754 74.7614C124.368 75.0227 124.071 75.3636 123.862 75.7841C123.654 76.2045 123.55 76.6553 123.55 77.1364V77.9091C123.55 78.5682 123.663 79.1269 123.891 79.5852C124.122 80.0398 124.442 80.3864 124.851 80.625C125.26 80.8598 125.735 80.9773 126.277 80.9773C126.629 80.9773 126.947 80.928 127.232 80.8295C127.519 80.7273 127.768 80.5758 127.976 80.375C128.184 80.1705 128.345 79.9167 128.459 79.6136L129.754 79.9773C129.618 80.4167 129.389 80.803 129.067 81.1364C128.745 81.4659 128.347 81.7235 127.874 81.9091C127.4 82.0909 126.868 82.1818 126.277 82.1818ZM136.93 76.3864V77.6364H131.839V76.3864H136.93ZM142.835 82.1818C142.047 82.1818 141.356 81.9943 140.761 81.6193C140.17 81.2443 139.708 80.7197 139.375 80.0455C139.045 79.3712 138.881 78.5833 138.881 77.6818C138.881 76.7727 139.045 75.9792 139.375 75.3011C139.708 74.6231 140.17 74.0966 140.761 73.7216C141.356 73.3466 142.047 73.1591 142.835 73.1591C143.623 73.1591 144.313 73.3466 144.903 73.7216C145.498 74.0966 145.96 74.6231 146.29 75.3011C146.623 75.9792 146.79 76.7727 146.79 77.6818C146.79 78.5833 146.623 79.3712 146.29 80.0455C145.96 80.7197 145.498 81.2443 144.903 81.6193C144.313 81.9943 143.623 82.1818 142.835 82.1818ZM142.835 80.9773C143.434 80.9773 143.926 80.8239 144.312 80.517C144.699 80.2102 144.985 79.8068 145.17 79.3068C145.356 78.8068 145.449 78.2652 145.449 77.6818C145.449 77.0985 145.356 76.5549 145.17 76.0511C144.985 75.5473 144.699 75.1402 144.312 74.8295C143.926 74.5189 143.434 74.3636 142.835 74.3636C142.237 74.3636 141.744 74.5189 141.358 74.8295C140.972 75.1402 140.686 75.5473 140.5 76.0511C140.314 76.5549 140.222 77.0985 140.222 77.6818C140.222 78.2652 140.314 78.8068 140.5 79.3068C140.686 79.8068 140.972 80.2102 141.358 80.517C141.744 80.8239 142.237 80.9773 142.835 80.9773ZM152.723 73.2727V74.4091H148.018V73.2727H152.723ZM149.428 82V72.0682C149.428 71.5682 149.545 71.1515 149.78 70.8182C150.015 70.4848 150.32 70.2348 150.695 70.0682C151.07 69.9015 151.465 69.8182 151.882 69.8182C152.212 69.8182 152.481 69.8447 152.689 69.8977C152.897 69.9508 153.053 70 153.155 70.0455L152.768 71.2045C152.7 71.1818 152.606 71.1534 152.484 71.1193C152.367 71.0852 152.212 71.0682 152.018 71.0682C151.575 71.0682 151.255 71.1799 151.058 71.4034C150.865 71.6269 150.768 71.9545 150.768 72.3864V82H149.428ZM159.149 76.3864V77.6364H154.058V76.3864H159.149ZM167.69 75.2273L166.486 75.5682C166.41 75.3674 166.298 75.1723 166.151 74.983C166.007 74.7898 165.81 74.6307 165.56 74.5057C165.31 74.3807 164.99 74.3182 164.599 74.3182C164.065 74.3182 163.62 74.4413 163.264 74.6875C162.912 74.9299 162.736 75.2386 162.736 75.6136C162.736 75.947 162.857 76.2102 163.099 76.4034C163.342 76.5966 163.721 76.7576 164.236 76.8864L165.531 77.2045C166.312 77.3939 166.893 77.6837 167.276 78.0739C167.658 78.4602 167.849 78.9583 167.849 79.5682C167.849 80.0682 167.705 80.5152 167.418 80.9091C167.134 81.303 166.736 81.6136 166.224 81.8409C165.713 82.0682 165.118 82.1818 164.44 82.1818C163.55 82.1818 162.813 81.9886 162.23 81.6023C161.647 81.2159 161.277 80.6515 161.122 79.9091L162.395 79.5909C162.516 80.0606 162.745 80.4129 163.082 80.6477C163.423 80.8826 163.868 81 164.418 81C165.043 81 165.539 80.8674 165.906 80.6023C166.277 80.3333 166.463 80.0114 166.463 79.6364C166.463 79.3333 166.357 79.0795 166.145 78.875C165.933 78.6667 165.607 78.5114 165.168 78.4091L163.713 78.0682C162.914 77.8788 162.327 77.5852 161.952 77.1875C161.58 76.786 161.395 76.2841 161.395 75.6818C161.395 75.1894 161.533 74.7538 161.81 74.375C162.09 73.9962 162.471 73.6989 162.952 73.483C163.437 73.267 163.986 73.1591 164.599 73.1591C165.463 73.1591 166.141 73.3485 166.634 73.7273C167.13 74.1061 167.482 74.6061 167.69 75.2273ZM171.209 70.3636V82H169.868V70.3636H171.209ZM177.21 82.1818C176.422 82.1818 175.731 81.9943 175.136 81.6193C174.545 81.2443 174.083 80.7197 173.75 80.0455C173.42 79.3712 173.256 78.5833 173.256 77.6818C173.256 76.7727 173.42 75.9792 173.75 75.3011C174.083 74.6231 174.545 74.0966 175.136 73.7216C175.731 73.3466 176.422 73.1591 177.21 73.1591C177.998 73.1591 178.688 73.3466 179.278 73.7216C179.873 74.0966 180.335 74.6231 180.665 75.3011C180.998 75.9792 181.165 76.7727 181.165 77.6818C181.165 78.5833 180.998 79.3712 180.665 80.0455C180.335 80.7197 179.873 81.2443 179.278 81.6193C178.688 81.9943 177.998 82.1818 177.21 82.1818ZM177.21 80.9773C177.809 80.9773 178.301 80.8239 178.688 80.517C179.074 80.2102 179.36 79.8068 179.545 79.3068C179.731 78.8068 179.824 78.2652 179.824 77.6818C179.824 77.0985 179.731 76.5549 179.545 76.0511C179.36 75.5473 179.074 75.1402 178.688 74.8295C178.301 74.5189 177.809 74.3636 177.21 74.3636C176.612 74.3636 176.119 74.5189 175.733 74.8295C175.347 75.1402 175.061 75.5473 174.875 76.0511C174.689 76.5549 174.597 77.0985 174.597 77.6818C174.597 78.2652 174.689 78.8068 174.875 79.3068C175.061 79.8068 175.347 80.2102 175.733 80.517C176.119 80.8239 176.612 80.9773 177.21 80.9773ZM187.007 73.2727V74.4091H182.484V73.2727H187.007ZM183.803 71.1818H185.143V79.5C185.143 79.8788 185.198 80.1629 185.308 80.3523C185.422 80.5379 185.566 80.6629 185.74 80.7273C185.918 80.7879 186.106 80.8182 186.303 80.8182C186.45 80.8182 186.571 80.8106 186.666 80.7955C186.761 80.7765 186.837 80.7614 186.893 80.75L187.166 81.9545C187.075 81.9886 186.948 82.0227 186.786 82.0568C186.623 82.0947 186.416 82.1136 186.166 82.1136C185.787 82.1136 185.416 82.0322 185.053 81.8693C184.693 81.7064 184.393 81.4583 184.155 81.125C183.92 80.7917 183.803 80.3712 183.803 79.8636V71.1818ZM190.553 76.75V82H189.212V70.3636H190.553V74.6364H190.666C190.871 74.1856 191.178 73.8277 191.587 73.5625C192 73.2936 192.549 73.1591 193.234 73.1591C193.829 73.1591 194.35 73.2784 194.797 73.517C195.244 73.7519 195.59 74.1136 195.837 74.6023C196.087 75.0871 196.212 75.7045 196.212 76.4545V82H194.871V76.5455C194.871 75.8523 194.691 75.3163 194.331 74.9375C193.975 74.5549 193.481 74.3636 192.848 74.3636C192.409 74.3636 192.015 74.4564 191.666 74.642C191.321 74.8277 191.049 75.0985 190.848 75.4545C190.651 75.8106 190.553 76.2424 190.553 76.75ZM204.847 75.2273L203.642 75.5682C203.566 75.3674 203.455 75.1723 203.307 74.983C203.163 74.7898 202.966 74.6307 202.716 74.5057C202.466 74.3807 202.146 74.3182 201.756 74.3182C201.222 74.3182 200.777 74.4413 200.42 74.6875C200.068 74.9299 199.892 75.2386 199.892 75.6136C199.892 75.947 200.013 76.2102 200.256 76.4034C200.498 76.5966 200.877 76.7576 201.392 76.8864L202.688 77.2045C203.468 77.3939 204.049 77.6837 204.432 78.0739C204.814 78.4602 205.006 78.9583 205.006 79.5682C205.006 80.0682 204.862 80.5152 204.574 80.9091C204.29 81.303 203.892 81.6136 203.381 81.8409C202.869 82.0682 202.275 82.1818 201.597 82.1818C200.706 82.1818 199.97 81.9886 199.386 81.6023C198.803 81.2159 198.434 80.6515 198.278 79.9091L199.551 79.5909C199.672 80.0606 199.902 80.4129 200.239 80.6477C200.58 80.8826 201.025 81 201.574 81C202.199 81 202.695 80.8674 203.062 80.6023C203.434 80.3333 203.619 80.0114 203.619 79.6364C203.619 79.3333 203.513 79.0795 203.301 78.875C203.089 78.6667 202.763 78.5114 202.324 78.4091L200.869 78.0682C200.07 77.8788 199.483 77.5852 199.108 77.1875C198.737 76.786 198.551 76.2841 198.551 75.6818C198.551 75.1894 198.689 74.7538 198.966 74.375C199.246 73.9962 199.627 73.6989 200.108 73.483C200.593 73.267 201.142 73.1591 201.756 73.1591C202.619 73.1591 203.297 73.3485 203.79 73.7273C204.286 74.1061 204.638 74.6061 204.847 75.2273Z" fill="#A040FF"/>
<path d="M211.524 85.2727V73.2727H212.82V74.6591H212.979C213.077 74.5076 213.214 74.3144 213.388 74.0795C213.566 73.8409 213.82 73.6288 214.149 73.4432C214.482 73.2538 214.933 73.1591 215.501 73.1591C216.236 73.1591 216.884 73.3428 217.445 73.7102C218.005 74.0777 218.443 74.5985 218.757 75.2727C219.071 75.947 219.229 76.7424 219.229 77.6591C219.229 78.5833 219.071 79.3845 218.757 80.0625C218.443 80.7367 218.007 81.2595 217.45 81.6307C216.893 81.9981 216.251 82.1818 215.524 82.1818C214.964 82.1818 214.515 82.089 214.178 81.9034C213.84 81.714 213.581 81.5 213.399 81.2614C213.217 81.0189 213.077 80.8182 212.979 80.6591H212.865V85.2727H211.524ZM212.842 77.6364C212.842 78.2955 212.939 78.8769 213.132 79.3807C213.325 79.8807 213.607 80.2727 213.979 80.5568C214.35 80.8371 214.804 80.9773 215.342 80.9773C215.903 80.9773 216.371 80.8295 216.746 80.5341C217.125 80.2348 217.409 79.8333 217.598 79.3295C217.791 78.822 217.888 78.2576 217.888 77.6364C217.888 77.0227 217.793 76.4697 217.604 75.9773C217.418 75.4811 217.136 75.089 216.757 74.8011C216.382 74.5095 215.911 74.3636 215.342 74.3636C214.797 74.3636 214.339 74.5019 213.967 74.7784C213.596 75.0511 213.316 75.4337 213.126 75.9261C212.937 76.4148 212.842 76.9848 212.842 77.6364ZM222.615 70.3636V82H221.274V70.3636H222.615ZM228.73 82.1818C227.889 82.1818 227.164 81.9962 226.554 81.625C225.948 81.25 225.48 80.7273 225.151 80.0568C224.825 79.3826 224.662 78.5985 224.662 77.7045C224.662 76.8106 224.825 76.0227 225.151 75.3409C225.48 74.6553 225.938 74.1212 226.526 73.7386C227.116 73.3523 227.806 73.1591 228.594 73.1591C229.048 73.1591 229.497 73.2348 229.94 73.3864C230.384 73.5379 230.787 73.7841 231.151 74.125C231.514 74.4621 231.804 74.9091 232.02 75.4659C232.236 76.0227 232.344 76.7083 232.344 77.5227V78.0909H225.616V76.9318H230.98C230.98 76.4394 230.882 76 230.685 75.6136C230.491 75.2273 230.215 74.9223 229.855 74.6989C229.499 74.4754 229.079 74.3636 228.594 74.3636C228.06 74.3636 227.598 74.4962 227.207 74.7614C226.821 75.0227 226.524 75.3636 226.315 75.7841C226.107 76.2045 226.003 76.6553 226.003 77.1364V77.9091C226.003 78.5682 226.116 79.1269 226.344 79.5852C226.575 80.0398 226.895 80.3864 227.304 80.625C227.713 80.8598 228.188 80.9773 228.73 80.9773C229.082 80.9773 229.401 80.928 229.685 80.8295C229.973 80.7273 230.221 80.5758 230.429 80.375C230.637 80.1705 230.798 79.9167 230.912 79.6136L232.207 79.9773C232.071 80.4167 231.842 80.803 231.52 81.1364C231.198 81.4659 230.8 81.7235 230.327 81.9091C229.853 82.0909 229.321 82.1818 228.73 82.1818ZM236.952 82.2045C236.399 82.2045 235.897 82.1004 235.446 81.892C234.995 81.6799 234.637 81.375 234.372 80.9773C234.107 80.5758 233.974 80.0909 233.974 79.5227C233.974 79.0227 234.073 78.6174 234.27 78.3068C234.467 77.9924 234.73 77.7462 235.06 77.5682C235.389 77.3902 235.753 77.2576 236.151 77.1705C236.552 77.0795 236.955 77.0076 237.361 76.9545C237.891 76.8864 238.321 76.8352 238.651 76.8011C238.984 76.7633 239.226 76.7008 239.378 76.6136C239.533 76.5265 239.611 76.375 239.611 76.1591V76.1136C239.611 75.553 239.457 75.1174 239.151 74.8068C238.848 74.4962 238.387 74.3409 237.77 74.3409C237.13 74.3409 236.628 74.4811 236.264 74.7614C235.901 75.0417 235.645 75.3409 235.497 75.6591L234.224 75.2045C234.452 74.6742 234.755 74.2614 235.134 73.9659C235.516 73.6667 235.933 73.4583 236.384 73.3409C236.838 73.2197 237.285 73.1591 237.724 73.1591C238.005 73.1591 238.327 73.1932 238.69 73.2614C239.058 73.3258 239.412 73.4602 239.753 73.6648C240.098 73.8693 240.384 74.178 240.611 74.5909C240.838 75.0038 240.952 75.5568 240.952 76.25V82H239.611V80.8182H239.543C239.452 81.0076 239.3 81.2102 239.088 81.4261C238.876 81.642 238.594 81.8258 238.241 81.9773C237.889 82.1288 237.459 82.2045 236.952 82.2045ZM237.156 81C237.687 81 238.134 80.8958 238.497 80.6875C238.865 80.4792 239.141 80.2102 239.327 79.8807C239.516 79.5511 239.611 79.2045 239.611 78.8409V77.6136C239.554 77.6818 239.429 77.7443 239.236 77.8011C239.046 77.8542 238.827 77.9015 238.577 77.9432C238.33 77.9811 238.09 78.0152 237.855 78.0455C237.624 78.072 237.437 78.0947 237.293 78.1136C236.944 78.1591 236.618 78.233 236.315 78.3352C236.016 78.4337 235.774 78.5833 235.588 78.7841C235.406 78.9811 235.315 79.25 235.315 79.5909C235.315 80.0568 235.488 80.4091 235.832 80.6477C236.181 80.8826 236.622 81 237.156 81ZM249.581 75.2273L248.376 75.5682C248.301 75.3674 248.189 75.1723 248.041 74.983C247.897 74.7898 247.7 74.6307 247.45 74.5057C247.2 74.3807 246.88 74.3182 246.49 74.3182C245.956 74.3182 245.511 74.4413 245.155 74.6875C244.803 74.9299 244.626 75.2386 244.626 75.6136C244.626 75.947 244.748 76.2102 244.99 76.4034C245.232 76.5966 245.611 76.7576 246.126 76.8864L247.422 77.2045C248.202 77.3939 248.784 77.6837 249.166 78.0739C249.549 78.4602 249.74 78.9583 249.74 79.5682C249.74 80.0682 249.596 80.5152 249.308 80.9091C249.024 81.303 248.626 81.6136 248.115 81.8409C247.604 82.0682 247.009 82.1818 246.331 82.1818C245.441 82.1818 244.704 81.9886 244.121 81.6023C243.537 81.2159 243.168 80.6515 243.013 79.9091L244.286 79.5909C244.407 80.0606 244.636 80.4129 244.973 80.6477C245.314 80.8826 245.759 81 246.308 81C246.933 81 247.429 80.8674 247.797 80.6023C248.168 80.3333 248.354 80.0114 248.354 79.6364C248.354 79.3333 248.248 79.0795 248.036 78.875C247.823 78.6667 247.498 78.5114 247.058 78.4091L245.604 78.0682C244.804 77.8788 244.217 77.5852 243.842 77.1875C243.471 76.786 243.286 76.2841 243.286 75.6818C243.286 75.1894 243.424 74.7538 243.7 74.375C243.981 73.9962 244.361 73.6989 244.842 73.483C245.327 73.267 245.876 73.1591 246.49 73.1591C247.354 73.1591 248.032 73.3485 248.524 73.7273C249.02 74.1061 249.373 74.6061 249.581 75.2273ZM255.418 82.1818C254.577 82.1818 253.851 81.9962 253.241 81.625C252.635 81.25 252.168 80.7273 251.838 80.0568C251.512 79.3826 251.349 78.5985 251.349 77.7045C251.349 76.8106 251.512 76.0227 251.838 75.3409C252.168 74.6553 252.626 74.1212 253.213 73.7386C253.804 73.3523 254.493 73.1591 255.281 73.1591C255.736 73.1591 256.185 73.2348 256.628 73.3864C257.071 73.5379 257.474 73.7841 257.838 74.125C258.202 74.4621 258.491 74.9091 258.707 75.4659C258.923 76.0227 259.031 76.7083 259.031 77.5227V78.0909H252.304V76.9318H257.668C257.668 76.4394 257.569 76 257.372 75.6136C257.179 75.2273 256.902 74.9223 256.543 74.6989C256.187 74.4754 255.766 74.3636 255.281 74.3636C254.747 74.3636 254.285 74.4962 253.895 74.7614C253.509 75.0227 253.211 75.3636 253.003 75.7841C252.795 76.2045 252.69 76.6553 252.69 77.1364V77.9091C252.69 78.5682 252.804 79.1269 253.031 79.5852C253.262 80.0398 253.582 80.3864 253.991 80.625C254.401 80.8598 254.876 80.9773 255.418 80.9773C255.77 80.9773 256.088 80.928 256.372 80.8295C256.66 80.7273 256.908 80.5758 257.116 80.375C257.325 80.1705 257.486 79.9167 257.599 79.6136L258.895 79.9773C258.759 80.4167 258.529 80.803 258.207 81.1364C257.885 81.4659 257.488 81.7235 257.014 81.9091C256.541 82.0909 256.009 82.1818 255.418 82.1818ZM263.071 80.4091L262.98 81.0227C262.916 81.4545 262.817 81.9167 262.685 82.4091C262.556 82.9015 262.421 83.3655 262.281 83.8011C262.141 84.2367 262.026 84.5833 261.935 84.8409H260.912C260.961 84.5985 261.026 84.2784 261.105 83.8807C261.185 83.483 261.264 83.0379 261.344 82.5455C261.427 82.0568 261.495 81.5568 261.548 81.0455L261.616 80.4091H263.071ZM270.055 82V73.2727H271.396V82H270.055ZM270.737 71.8182C270.476 71.8182 270.25 71.7292 270.061 71.5511C269.875 71.3731 269.783 71.1591 269.783 70.9091C269.783 70.6591 269.875 70.4451 270.061 70.267C270.25 70.089 270.476 70 270.737 70C270.999 70 271.222 70.089 271.408 70.267C271.597 70.4451 271.692 70.6591 271.692 70.9091C271.692 71.1591 271.597 71.3731 271.408 71.5511C271.222 71.7292 270.999 71.8182 270.737 71.8182ZM275.193 76.75V82H273.852V73.2727H275.148V74.6364H275.261C275.466 74.1932 275.777 73.8371 276.193 73.5682C276.61 73.2955 277.148 73.1591 277.807 73.1591C278.398 73.1591 278.915 73.2803 279.358 73.5227C279.801 73.7614 280.146 74.125 280.392 74.6136C280.638 75.0985 280.761 75.7121 280.761 76.4545V82H279.42V76.5455C279.42 75.8598 279.242 75.3258 278.886 74.9432C278.53 74.5568 278.042 74.3636 277.42 74.3636C276.992 74.3636 276.61 74.4564 276.273 74.642C275.939 74.8277 275.676 75.0985 275.483 75.4545C275.29 75.8106 275.193 76.2424 275.193 76.75ZM286.757 82.1818C285.939 82.1818 285.234 81.9886 284.643 81.6023C284.053 81.2159 283.598 80.6837 283.28 80.0057C282.962 79.3277 282.803 78.553 282.803 77.6818C282.803 76.7955 282.965 76.0133 283.291 75.3352C283.621 74.6534 284.079 74.1212 284.666 73.7386C285.257 73.3523 285.946 73.1591 286.734 73.1591C287.348 73.1591 287.901 73.2727 288.393 73.5C288.886 73.7273 289.289 74.0455 289.604 74.4545C289.918 74.8636 290.113 75.3409 290.189 75.8864H288.848C288.746 75.4886 288.518 75.1364 288.166 74.8295C287.818 74.5189 287.348 74.3636 286.757 74.3636C286.234 74.3636 285.776 74.5 285.382 74.7727C284.992 75.0417 284.687 75.4223 284.467 75.9148C284.251 76.4034 284.143 76.9773 284.143 77.6364C284.143 78.3106 284.25 78.8977 284.462 79.3977C284.678 79.8977 284.981 80.286 285.371 80.5625C285.765 80.839 286.227 80.9773 286.757 80.9773C287.106 80.9773 287.422 80.9167 287.706 80.7955C287.99 80.6742 288.231 80.5 288.428 80.2727C288.625 80.0455 288.765 79.7727 288.848 79.4545H290.189C290.113 79.9697 289.926 80.4337 289.626 80.8466C289.331 81.2557 288.939 81.5814 288.45 81.8239C287.965 82.0625 287.401 82.1818 286.757 82.1818ZM293.49 70.3636V82H292.149V70.3636H293.49ZM301.446 78.4318V73.2727H302.787V82H301.446V80.5227H301.355C301.151 80.9659 300.832 81.3428 300.401 81.6534C299.969 81.9602 299.423 82.1136 298.764 82.1136C298.219 82.1136 297.734 81.9943 297.31 81.7557C296.885 81.5133 296.552 81.1496 296.31 80.6648C296.067 80.1761 295.946 79.5606 295.946 78.8182V73.2727H297.287V78.7273C297.287 79.3636 297.465 79.8712 297.821 80.25C298.181 80.6288 298.639 80.8182 299.196 80.8182C299.529 80.8182 299.868 80.733 300.213 80.5625C300.562 80.392 300.853 80.1307 301.088 79.7784C301.327 79.4261 301.446 78.9773 301.446 78.4318ZM308.538 82.1818C307.811 82.1818 307.169 81.9981 306.612 81.6307C306.055 81.2595 305.62 80.7367 305.305 80.0625C304.991 79.3845 304.834 78.5833 304.834 77.6591C304.834 76.7424 304.991 75.947 305.305 75.2727C305.62 74.5985 306.057 74.0777 306.618 73.7102C307.179 73.3428 307.826 73.1591 308.561 73.1591C309.129 73.1591 309.578 73.2538 309.908 73.4432C310.241 73.6288 310.495 73.8409 310.669 74.0795C310.847 74.3144 310.985 74.5076 311.084 74.6591H311.197V70.3636H312.538V82H311.243V80.6591H311.084C310.985 80.8182 310.845 81.0189 310.663 81.2614C310.482 81.5 310.222 81.714 309.885 81.9034C309.548 82.089 309.099 82.1818 308.538 82.1818ZM308.72 80.9773C309.258 80.9773 309.713 80.8371 310.084 80.5568C310.455 80.2727 310.737 79.8807 310.93 79.3807C311.124 78.8769 311.22 78.2955 311.22 77.6364C311.22 76.9848 311.125 76.4148 310.936 75.9261C310.747 75.4337 310.466 75.0511 310.095 74.7784C309.724 74.5019 309.266 74.3636 308.72 74.3636C308.152 74.3636 307.679 74.5095 307.3 74.8011C306.925 75.089 306.643 75.4811 306.453 75.9773C306.268 76.4697 306.175 77.0227 306.175 77.6364C306.175 78.2576 306.269 78.822 306.459 79.3295C306.652 79.8333 306.936 80.2348 307.311 80.5341C307.69 80.8295 308.16 80.9773 308.72 80.9773ZM318.839 82.1818C317.999 82.1818 317.273 81.9962 316.663 81.625C316.057 81.25 315.589 80.7273 315.26 80.0568C314.934 79.3826 314.771 78.5985 314.771 77.7045C314.771 76.8106 314.934 76.0227 315.26 75.3409C315.589 74.6553 316.048 74.1212 316.635 73.7386C317.226 73.3523 317.915 73.1591 318.703 73.1591C319.158 73.1591 319.607 73.2348 320.05 73.3864C320.493 73.5379 320.896 73.7841 321.26 74.125C321.624 74.4621 321.913 74.9091 322.129 75.4659C322.345 76.0227 322.453 76.7083 322.453 77.5227V78.0909H315.726V76.9318H321.089C321.089 76.4394 320.991 76 320.794 75.6136C320.601 75.2273 320.324 74.9223 319.964 74.6989C319.608 74.4754 319.188 74.3636 318.703 74.3636C318.169 74.3636 317.707 74.4962 317.317 74.7614C316.93 75.0227 316.633 75.3636 316.425 75.7841C316.216 76.2045 316.112 76.6553 316.112 77.1364V77.9091C316.112 78.5682 316.226 79.1269 316.453 79.5852C316.684 80.0398 317.004 80.3864 317.413 80.625C317.822 80.8598 318.298 80.9773 318.839 80.9773C319.192 80.9773 319.51 80.928 319.794 80.8295C320.082 80.7273 320.33 80.5758 320.538 80.375C320.747 80.1705 320.908 79.9167 321.021 79.6136L322.317 79.9773C322.18 80.4167 321.951 80.803 321.629 81.1364C321.307 81.4659 320.91 81.7235 320.436 81.9091C319.963 82.0909 319.43 82.1818 318.839 82.1818ZM328.993 82V73.2727H330.288V74.6364H330.402C330.584 74.1705 330.877 73.8087 331.283 73.5511C331.688 73.2898 332.175 73.1591 332.743 73.1591C333.319 73.1591 333.798 73.2898 334.18 73.5511C334.567 73.8087 334.868 74.1705 335.084 74.6364H335.175C335.398 74.1856 335.733 73.8277 336.18 73.5625C336.627 73.2936 337.163 73.1591 337.788 73.1591C338.569 73.1591 339.207 73.4034 339.703 73.892C340.199 74.3769 340.447 75.1326 340.447 76.1591V82H339.107V76.1591C339.107 75.5152 338.93 75.0549 338.578 74.7784C338.226 74.5019 337.811 74.3636 337.334 74.3636C336.72 74.3636 336.245 74.5492 335.908 74.9205C335.571 75.2879 335.402 75.7538 335.402 76.3182V82H334.038V76.0227C334.038 75.5265 333.877 75.1269 333.555 74.8239C333.233 74.517 332.819 74.3636 332.311 74.3636C331.963 74.3636 331.637 74.4564 331.334 74.642C331.035 74.8277 330.792 75.0852 330.607 75.4148C330.425 75.7405 330.334 76.1174 330.334 76.5455V82H328.993ZM343.45 85.2727C343.223 85.2727 343.02 85.2538 342.842 85.2159C342.664 85.1818 342.541 85.1477 342.473 85.1136L342.814 83.9318C343.14 84.0152 343.428 84.0455 343.678 84.0227C343.928 84 344.149 83.8883 344.342 83.6875C344.539 83.4905 344.719 83.1705 344.882 82.7273L345.132 82.0455L341.905 73.2727H343.359L345.768 80.2273H345.859L348.268 73.2727H349.723L346.018 83.2727C345.852 83.7235 345.645 84.0966 345.399 84.392C345.153 84.6913 344.867 84.9129 344.541 85.0568C344.219 85.2008 343.856 85.2727 343.45 85.2727ZM356.175 82V70.3636H360.107C361.019 70.3636 361.766 70.5284 362.345 70.858C362.929 71.1837 363.36 71.625 363.641 72.1818C363.921 72.7386 364.061 73.3598 364.061 74.0455C364.061 74.7311 363.921 75.3542 363.641 75.9148C363.364 76.4754 362.936 76.9223 362.357 77.2557C361.777 77.5852 361.035 77.75 360.129 77.75H357.311V76.5H360.084C360.709 76.5 361.211 76.392 361.589 76.1761C361.968 75.9602 362.243 75.6686 362.413 75.3011C362.588 74.9299 362.675 74.5114 362.675 74.0455C362.675 73.5795 362.588 73.1629 362.413 72.7955C362.243 72.428 361.966 72.1402 361.584 71.9318C361.201 71.7197 360.694 71.6136 360.061 71.6136H357.584V82H356.175ZM366.331 82V70.3636H370.263C371.172 70.3636 371.918 70.5189 372.501 70.8295C373.085 71.1364 373.517 71.5587 373.797 72.0966C374.077 72.6345 374.217 73.2462 374.217 73.9318C374.217 74.6174 374.077 75.2254 373.797 75.7557C373.517 76.286 373.087 76.7027 372.507 77.0057C371.928 77.3049 371.187 77.4545 370.286 77.4545H367.104V76.1818H370.24C370.861 76.1818 371.361 76.0909 371.74 75.9091C372.123 75.7273 372.399 75.4697 372.57 75.1364C372.744 74.7992 372.831 74.3977 372.831 73.9318C372.831 73.4659 372.744 73.0587 372.57 72.7102C372.395 72.3617 372.117 72.0928 371.734 71.9034C371.352 71.7102 370.846 71.6136 370.217 71.6136H367.74V82H366.331ZM371.808 76.7727L374.672 82H373.036L370.217 76.7727H371.808ZM380.884 82V73.2727H382.224V82H380.884ZM381.565 71.8182C381.304 71.8182 381.079 71.7292 380.889 71.5511C380.704 71.3731 380.611 71.1591 380.611 70.9091C380.611 70.6591 380.704 70.4451 380.889 70.267C381.079 70.089 381.304 70 381.565 70C381.827 70 382.05 70.089 382.236 70.267C382.425 70.4451 382.52 70.6591 382.52 70.9091C382.52 71.1591 382.425 71.3731 382.236 71.5511C382.05 71.7292 381.827 71.8182 381.565 71.8182ZM386.021 76.75V82H384.68V73.2727H385.976V74.6364H386.089C386.294 74.1932 386.605 73.8371 387.021 73.5682C387.438 73.2955 387.976 73.1591 388.635 73.1591C389.226 73.1591 389.743 73.2803 390.186 73.5227C390.629 73.7614 390.974 74.125 391.22 74.6136C391.466 75.0985 391.589 75.7121 391.589 76.4545V82H390.249V76.5455C390.249 75.8598 390.071 75.3258 389.714 74.9432C389.358 74.5568 388.87 74.3636 388.249 74.3636C387.821 74.3636 387.438 74.4564 387.101 74.642C386.768 74.8277 386.504 75.0985 386.311 75.4545C386.118 75.8106 386.021 76.2424 386.021 76.75ZM402.335 73.2727V74.4091H397.812V73.2727H402.335ZM399.131 71.1818H400.472V79.5C400.472 79.8788 400.527 80.1629 400.636 80.3523C400.75 80.5379 400.894 80.6629 401.068 80.7273C401.246 80.7879 401.434 80.8182 401.631 80.8182C401.778 80.8182 401.9 80.8106 401.994 80.7955C402.089 80.7765 402.165 80.7614 402.222 80.75L402.494 81.9545C402.403 81.9886 402.277 82.0227 402.114 82.0568C401.951 82.0947 401.744 82.1136 401.494 82.1136C401.116 82.1136 400.744 82.0322 400.381 81.8693C400.021 81.7064 399.722 81.4583 399.483 81.125C399.248 80.7917 399.131 80.3712 399.131 79.8636V71.1818ZM405.881 76.75V82H404.54V70.3636H405.881V74.6364H405.994C406.199 74.1856 406.506 73.8277 406.915 73.5625C407.328 73.2936 407.877 73.1591 408.562 73.1591C409.157 73.1591 409.678 73.2784 410.125 73.517C410.572 73.7519 410.919 74.1136 411.165 74.6023C411.415 75.0871 411.54 75.7045 411.54 76.4545V82H410.199V76.5455C410.199 75.8523 410.019 75.3163 409.659 74.9375C409.303 74.5549 408.809 74.3636 408.176 74.3636C407.737 74.3636 407.343 74.4564 406.994 74.642C406.65 74.8277 406.377 75.0985 406.176 75.4545C405.979 75.8106 405.881 76.2424 405.881 76.75ZM417.652 82.1818C416.811 82.1818 416.086 81.9962 415.476 81.625C414.87 81.25 414.402 80.7273 414.072 80.0568C413.747 79.3826 413.584 78.5985 413.584 77.7045C413.584 76.8106 413.747 76.0227 414.072 75.3409C414.402 74.6553 414.86 74.1212 415.447 73.7386C416.038 73.3523 416.728 73.1591 417.516 73.1591C417.97 73.1591 418.419 73.2348 418.862 73.3864C419.305 73.5379 419.709 73.7841 420.072 74.125C420.436 74.4621 420.726 74.9091 420.942 75.4659C421.158 76.0227 421.266 76.7083 421.266 77.5227V78.0909H414.538V76.9318H419.902C419.902 76.4394 419.804 76 419.607 75.6136C419.413 75.2273 419.137 74.9223 418.777 74.6989C418.421 74.4754 418 74.3636 417.516 74.3636C416.982 74.3636 416.519 74.4962 416.129 74.7614C415.743 75.0227 415.446 75.3636 415.237 75.7841C415.029 76.2045 414.925 76.6553 414.925 77.1364V77.9091C414.925 78.5682 415.038 79.1269 415.266 79.5852C415.497 80.0398 415.817 80.3864 416.226 80.625C416.635 80.8598 417.11 80.9773 417.652 80.9773C418.004 80.9773 418.322 80.928 418.607 80.8295C418.894 80.7273 419.143 80.5758 419.351 80.375C419.559 80.1705 419.72 79.9167 419.834 79.6136L421.129 79.9773C420.993 80.4167 420.764 80.803 420.442 81.1364C420.12 81.4659 419.722 81.7235 419.249 81.9091C418.775 82.0909 418.243 82.1818 417.652 82.1818ZM427.987 82V70.3636H431.919C432.828 70.3636 433.574 70.5189 434.158 70.8295C434.741 71.1364 435.173 71.5587 435.453 72.0966C435.733 72.6345 435.874 73.2462 435.874 73.9318C435.874 74.6174 435.733 75.2254 435.453 75.7557C435.173 76.286 434.743 76.7027 434.163 77.0057C433.584 77.3049 432.843 77.4545 431.942 77.4545H428.76V76.1818H431.896C432.518 76.1818 433.018 76.0909 433.396 75.9091C433.779 75.7273 434.055 75.4697 434.226 75.1364C434.4 74.7992 434.487 74.3977 434.487 73.9318C434.487 73.4659 434.4 73.0587 434.226 72.7102C434.052 72.3617 433.773 72.0928 433.391 71.9034C433.008 71.7102 432.502 71.6136 431.874 71.6136H429.396V82H427.987ZM433.464 76.7727L436.328 82H434.692L431.874 76.7727H433.464ZM440.608 82.2045C440.055 82.2045 439.553 82.1004 439.102 81.892C438.652 81.6799 438.294 81.375 438.028 80.9773C437.763 80.5758 437.631 80.0909 437.631 79.5227C437.631 79.0227 437.729 78.6174 437.926 78.3068C438.123 77.9924 438.386 77.7462 438.716 77.5682C439.045 77.3902 439.409 77.2576 439.807 77.1705C440.208 77.0795 440.612 77.0076 441.017 76.9545C441.547 76.8864 441.977 76.8352 442.307 76.8011C442.64 76.7633 442.883 76.7008 443.034 76.6136C443.189 76.5265 443.267 76.375 443.267 76.1591V76.1136C443.267 75.553 443.114 75.1174 442.807 74.8068C442.504 74.4962 442.044 74.3409 441.426 74.3409C440.786 74.3409 440.284 74.4811 439.92 74.7614C439.557 75.0417 439.301 75.3409 439.153 75.6591L437.881 75.2045C438.108 74.6742 438.411 74.2614 438.79 73.9659C439.172 73.6667 439.589 73.4583 440.04 73.3409C440.494 73.2197 440.941 73.1591 441.381 73.1591C441.661 73.1591 441.983 73.1932 442.347 73.2614C442.714 73.3258 443.068 73.4602 443.409 73.6648C443.754 73.8693 444.04 74.178 444.267 74.5909C444.494 75.0038 444.608 75.5568 444.608 76.25V82H443.267V80.8182H443.199C443.108 81.0076 442.956 81.2102 442.744 81.4261C442.532 81.642 442.25 81.8258 441.898 81.9773C441.545 82.1288 441.116 82.2045 440.608 82.2045ZM440.812 81C441.343 81 441.79 80.8958 442.153 80.6875C442.521 80.4792 442.797 80.2102 442.983 79.8807C443.172 79.5511 443.267 79.2045 443.267 78.8409V77.6136C443.21 77.6818 443.085 77.7443 442.892 77.8011C442.703 77.8542 442.483 77.9015 442.233 77.9432C441.987 77.9811 441.746 78.0152 441.511 78.0455C441.28 78.072 441.093 78.0947 440.949 78.1136C440.6 78.1591 440.275 78.233 439.972 78.3352C439.672 78.4337 439.43 78.5833 439.244 78.7841C439.063 78.9811 438.972 79.25 438.972 79.5909C438.972 80.0568 439.144 80.4091 439.489 80.6477C439.837 80.8826 440.278 81 440.812 81ZM450.601 82.1818C449.783 82.1818 449.078 81.9886 448.487 81.6023C447.896 81.2159 447.442 80.6837 447.124 80.0057C446.805 79.3277 446.646 78.553 446.646 77.6818C446.646 76.7955 446.809 76.0133 447.135 75.3352C447.464 74.6534 447.923 74.1212 448.51 73.7386C449.101 73.3523 449.79 73.1591 450.578 73.1591C451.192 73.1591 451.745 73.2727 452.237 73.5C452.73 73.7273 453.133 74.0455 453.447 74.4545C453.762 74.8636 453.957 75.3409 454.033 75.8864H452.692C452.589 75.4886 452.362 75.1364 452.01 74.8295C451.661 74.5189 451.192 74.3636 450.601 74.3636C450.078 74.3636 449.62 74.5 449.226 74.7727C448.836 75.0417 448.531 75.4223 448.311 75.9148C448.095 76.4034 447.987 76.9773 447.987 77.6364C447.987 78.3106 448.093 78.8977 448.305 79.3977C448.521 79.8977 448.824 80.286 449.214 80.5625C449.608 80.839 450.071 80.9773 450.601 80.9773C450.949 80.9773 451.266 80.9167 451.55 80.7955C451.834 80.6742 452.074 80.5 452.271 80.2727C452.468 80.0455 452.608 79.7727 452.692 79.4545H454.033C453.957 79.9697 453.769 80.4337 453.47 80.8466C453.175 81.2557 452.783 81.5814 452.294 81.8239C451.809 82.0625 451.245 82.1818 450.601 82.1818ZM459.652 82.1818C458.811 82.1818 458.086 81.9962 457.476 81.625C456.87 81.25 456.402 80.7273 456.072 80.0568C455.747 79.3826 455.584 78.5985 455.584 77.7045C455.584 76.8106 455.747 76.0227 456.072 75.3409C456.402 74.6553 456.86 74.1212 457.447 73.7386C458.038 73.3523 458.728 73.1591 459.516 73.1591C459.97 73.1591 460.419 73.2348 460.862 73.3864C461.305 73.5379 461.709 73.7841 462.072 74.125C462.436 74.4621 462.726 74.9091 462.942 75.4659C463.158 76.0227 463.266 76.7083 463.266 77.5227V78.0909H456.538V76.9318H461.902C461.902 76.4394 461.804 76 461.607 75.6136C461.413 75.2273 461.137 74.9223 460.777 74.6989C460.421 74.4754 460 74.3636 459.516 74.3636C458.982 74.3636 458.519 74.4962 458.129 74.7614C457.743 75.0227 457.446 75.3636 457.237 75.7841C457.029 76.2045 456.925 76.6553 456.925 77.1364V77.9091C456.925 78.5682 457.038 79.1269 457.266 79.5852C457.497 80.0398 457.817 80.3864 458.226 80.625C458.635 80.8598 459.11 80.9773 459.652 80.9773C460.004 80.9773 460.322 80.928 460.607 80.8295C460.894 80.7273 461.143 80.5758 461.351 80.375C461.559 80.1705 461.72 79.9167 461.834 79.6136L463.129 79.9773C462.993 80.4167 462.764 80.803 462.442 81.1364C462.12 81.4659 461.722 81.7235 461.249 81.9091C460.775 82.0909 460.243 82.1818 459.652 82.1818Z" fill="white"/>
</g>
<rect x="67" y="0.5" width="517" height="101" rx="11.5" stroke="#313131"/>
<defs>
<clipPath id="clip0_240_1055">
<rect width="56" height="56" fill="white" transform="translate(0.5)"/>
</clipPath>
<clipPath id="clip1_240_1055">
<rect width="49.205" height="41.2385" fill="white" transform="translate(4.01465 7.49805)"/>
</clipPath>
<clipPath id="clip2_240_1055">
<rect x="66.5" width="518" height="102" rx="12" fill="white"/>
</clipPath>
</defs>
</svg>
