<svg width="585" height="102" viewBox="0 0 585 102" fill="none" xmlns="http://www.w3.org/2000/svg">
<g clip-path="url(#clip0_240_1061)">
<rect x="0.5" width="56" height="56" rx="28" fill="#FFD400"/>
<mask id="mask0_240_1061" style="mask-type:alpha" maskUnits="userSpaceOnUse" x="0" y="0" width="57" height="56">
<rect x="0.5" width="56" height="56" rx="28" fill="#C8FF30"/>
</mask>
<g mask="url(#mask0_240_1061)">
<path d="M29.3995 45.9582C39.7187 45.9582 48.084 37.7222 48.084 27.5625C48.084 17.4028 39.7187 9.16675 29.3995 9.16675C19.0803 9.16675 10.7149 17.4028 10.7149 27.5625C10.7149 37.7222 19.0803 45.9582 29.3995 45.9582Z" fill="#C7B299" stroke="#161616" stroke-width="0.23431" stroke-miterlimit="10"/>
<path d="M8.58728 29.1762C8.58728 17.172 17.2356 7.26367 30.4902 7.26367C42.8728 7.26367 50.6009 15.9465 50.6009 26.8266C50.6009 38.8282 41.9526 48.7391 28.8022 48.7391C16.3662 48.7391 8.58982 40.0563 8.58982 29.1762H8.58728ZM29.0056 45.5699C39.802 45.5699 46.7114 37.2449 46.7114 27.0296C46.7114 24.4339 46.658 17.0959 41.2154 14.2134C36.3726 11.6507 30.841 14.5103 30.1622 14.8757C29.0386 14.2515 24.4272 11.8486 19.8743 13.5943C12.314 16.492 12.4793 27.9329 12.4793 28.9706C12.4793 38.2674 18.7736 45.5699 29.0081 45.5699H29.0056Z" fill="#161616"/>
<path d="M17.4525 35.1261C17.4525 35.5346 22.7019 38.1658 29.3013 38.1658C35.9006 38.1658 41.3484 35.5346 41.3484 35.1261C41.3484 34.7176 35.8981 36.6866 29.3013 36.6866C22.7019 36.6866 17.4525 34.7176 17.4525 35.1261Z" fill="#161616"/>
<path d="M38.3584 33.1953C43.1173 35.7072 48.1761 35.484 49.6556 32.6929C51.1351 29.9018 48.4761 25.601 43.7172 23.089C38.9584 20.5771 34.1766 18.296 32.42 23.5914C30.5109 29.3563 33.5996 30.6833 38.3584 33.1953Z" fill="#161616"/>
<path d="M26.3562 23.5915C24.6022 18.2961 19.8204 20.5746 15.0591 23.0891C10.3002 25.6011 7.64115 29.9019 9.12066 32.693C10.6002 35.4841 15.6564 35.7099 20.4178 33.1954C25.1767 30.6834 28.2679 29.3564 26.3562 23.5915Z" fill="#161616"/>
<path d="M29.2719 35.9357C31.5884 35.9357 33.4664 34.6861 33.4664 33.1446C33.4664 31.6031 31.5884 30.3535 29.2719 30.3535C26.9553 30.3535 25.0774 31.6031 25.0774 33.1446C25.0774 34.6861 26.9553 35.9357 29.2719 35.9357Z" fill="#161616"/>
<path d="M28.1664 34.1393C28.0851 34.322 27.7317 34.4108 27.3809 34.3372C27.0301 34.2636 26.8115 34.0581 26.8954 33.8754C26.9793 33.6927 27.3301 33.6039 27.6809 33.6775C28.0317 33.7511 28.2503 33.9566 28.1664 34.1393Z" fill="white"/>
<path d="M30.4541 34.1393C30.5354 34.322 30.8888 34.4108 31.2396 34.3372C31.5904 34.2636 31.809 34.0581 31.7251 33.8754C31.6413 33.6927 31.2904 33.6039 30.9396 33.6775C30.5888 33.7511 30.3702 33.9566 30.4541 34.1393Z" fill="white"/>
<path d="M23.9019 26.2582C23.9019 27.8313 22.6232 29.1076 21.0471 29.1076C19.4709 29.1076 18.1923 27.8313 18.1923 26.2582C18.1923 24.685 19.3057 24.8981 20.8818 24.8981C22.4579 24.8981 23.8993 24.6825 23.8993 26.2582H23.9019Z" fill="white" stroke="#161616" stroke-width="0.23431" stroke-miterlimit="10"/>
<path d="M21.0463 28.2804C22.1653 28.2804 23.0724 27.375 23.0724 26.2581C23.0724 25.1412 22.1653 24.2358 21.0463 24.2358C19.9274 24.2358 19.0203 25.1412 19.0203 26.2581C19.0203 27.375 19.9274 28.2804 21.0463 28.2804Z" fill="#161616" stroke="#161616" stroke-width="0.23431" stroke-miterlimit="10"/>
<path d="M19.9412 26.3497C20.1953 26.3497 20.4013 26.1441 20.4013 25.8904C20.4013 25.6368 20.1953 25.4312 19.9412 25.4312C19.6871 25.4312 19.4811 25.6368 19.4811 25.8904C19.4811 26.1441 19.6871 26.3497 19.9412 26.3497Z" fill="white"/>
<path d="M40.6782 26.2582C40.6782 27.8313 39.3995 29.1076 37.8234 29.1076C36.2473 29.1076 34.9686 27.8313 34.9686 26.2582C34.9686 24.685 36.2473 24.8981 37.8234 24.8981C39.3995 24.8981 40.6782 24.6825 40.6782 26.2582Z" fill="white" stroke="#101010" stroke-width="0.23431" stroke-miterlimit="10"/>
<path d="M37.8245 28.2804C38.9434 28.2804 39.8505 27.375 39.8505 26.2581C39.8505 25.1412 38.9434 24.2358 37.8245 24.2358C36.7055 24.2358 35.7984 25.1412 35.7984 26.2581C35.7984 27.375 36.7055 28.2804 37.8245 28.2804Z" fill="#161616" stroke="#161616" stroke-width="0.23431" stroke-miterlimit="10"/>
<path d="M36.7176 26.3497C36.9717 26.3497 37.1777 26.1441 37.1777 25.8904C37.1777 25.6368 36.9717 25.4312 36.7176 25.4312C36.4634 25.4312 36.2574 25.6368 36.2574 25.8904C36.2574 26.1441 36.4634 26.3497 36.7176 26.3497Z" fill="white"/>
<path d="M29.7604 15.7832C29.8105 15.8244 29.8612 15.8848 29.8574 15.9635C29.8574 15.9635 29.8574 15.9635 29.8574 15.9635L29.7638 15.959C29.7535 16.1764 28.8391 16.2966 27.3073 16.498C25.1053 16.7875 21.6274 17.2447 17.7242 18.3994L29.7604 15.7832ZM29.7604 15.7832C29.7072 15.7396 29.633 15.6994 29.544 15.6618M29.7604 15.7832L29.544 15.6618M29.544 15.6618C29.365 15.5862 29.1053 15.5127 28.7777 15.446M29.544 15.6618L28.7777 15.446M28.7777 15.446C28.1214 15.3125 27.1774 15.2035 26.0258 15.1648M28.7777 15.446L26.0258 15.1648M26.0258 15.1648C23.7221 15.0873 20.5791 15.2908 17.2299 16.1472M26.0258 15.1648L17.2299 16.1472M17.2299 16.1472C13.8804 17.0033 10.5432 17.9415 8.24906 18.9257M17.2299 16.1472L8.24906 18.9257M8.24906 18.9257C7.10416 19.4168 6.20702 19.9243 5.70004 20.4465M8.24906 18.9257L5.70004 20.4465M5.70004 20.4465C5.44583 20.7084 5.28236 20.9814 5.24253 21.2651M5.70004 20.4465L5.24253 21.2651M5.24253 21.2651C5.20221 21.5522 5.2906 21.8352 5.50987 22.1094L5.24253 21.2651Z" fill="#847B7B" stroke="#161616" stroke-width="0.187448" stroke-miterlimit="10"/>
<path d="M30.0431 17.0297L30.072 17.0288L30.0697 16.9359C30.0677 16.8573 30.0132 16.8006 29.9601 16.7631C29.9041 16.7234 29.8273 16.6888 29.7361 16.6579C29.5527 16.5959 29.2893 16.5423 28.959 16.5008C28.2973 16.4176 27.3516 16.3811 26.2047 16.4311C23.9105 16.5309 20.8027 16.9769 17.5372 18.0928C14.2816 19.2052 11.0333 20.4019 8.82151 21.5647C7.71763 22.145 6.86043 22.7226 6.39206 23.2846C6.15723 23.5663 6.01344 23.852 5.99321 24.1388C5.97273 24.429 6.07985 24.7055 6.31706 24.9631L6.31711 24.9632C6.52233 25.1858 6.75666 25.3244 7.02373 25.3877C7.2893 25.4505 7.58142 25.4374 7.90152 25.3663C8.53865 25.2249 9.30859 24.8482 10.2406 24.3408C10.569 24.162 10.9187 23.9663 11.2912 23.7579C13.0393 22.7797 15.2907 21.52 18.2205 20.3957L18.2205 20.3957C21.4315 19.1625 24.3761 18.4544 26.5181 17.9878C26.9021 17.9042 27.2609 17.8282 27.5911 17.7583C28.1802 17.6335 28.6781 17.5281 29.0646 17.4331C29.3659 17.3591 29.6055 17.29 29.7707 17.2212C29.8528 17.187 29.9225 17.1505 29.9729 17.1096C29.9994 17.0882 30.0252 17.0616 30.0431 17.0297Z" fill="#847B7B" stroke="#161616" stroke-width="0.187448" stroke-miterlimit="10"/>
<path d="M29.9416 17.7002C29.9319 17.6222 29.8724 17.5712 29.8157 17.5391M29.9416 17.7002L29.8486 17.7118M29.9416 17.7002C29.9416 17.7002 29.9416 17.7002 29.9416 17.7002L29.8486 17.7118M29.9416 17.7002C29.951 17.7755 29.9107 17.8376 29.8662 17.8825C29.8205 17.9286 29.7552 17.9726 29.6775 18.0155C29.521 18.1019 29.2909 18.1965 29.0004 18.3026C28.6275 18.4389 28.1456 18.5974 27.5753 18.7851C27.256 18.8902 26.9091 19.0044 26.538 19.1288C24.4668 19.8237 21.6264 20.8454 18.5756 22.4198C15.7929 23.8559 13.6951 25.3547 12.066 26.5186C11.7183 26.7671 11.3919 27.0003 11.0848 27.2143C10.2147 27.8207 9.49151 28.2792 8.87548 28.4884C8.56596 28.5936 8.27803 28.6378 8.00848 28.6031C7.73737 28.5682 7.49104 28.4543 7.26501 28.2535M29.8157 17.5391L29.8486 17.7118M29.8157 17.5391C29.7561 17.5053 29.6765 17.4789 29.5832 17.4578C29.3953 17.4154 29.1291 17.3898 28.7982 17.3835C28.135 17.3708 27.1957 17.4351 26.0661 17.6072C23.8064 17.9514 20.7771 18.7282 17.6606 20.1914C14.5423 21.6543 11.4509 23.197 9.38451 24.5942C8.35317 25.2916 7.56646 25.9596 7.16268 26.5706C6.96023 26.8769 6.84841 27.1773 6.85858 27.4653C6.86887 27.7568 7.00357 28.0213 7.26501 28.2535M29.8157 17.5391L7.32725 28.1835M29.8486 17.7118C29.8758 17.9294 29.0058 18.2157 27.5483 18.6953C25.4517 19.3853 22.1394 20.4753 18.5326 22.3365C15.7434 23.776 13.6393 25.2793 12.0102 26.4433C9.68658 28.1035 8.32904 29.0734 7.32725 28.1835M7.26501 28.2535L7.32725 28.1835M7.26501 28.2535C7.26501 28.2535 7.265 28.2535 7.265 28.2535L7.32725 28.1835" fill="#847B7B" stroke="#161616" stroke-width="0.187448" stroke-miterlimit="10"/>
<path d="M11.6466 19.5161C12.9169 18.2538 14.2518 16.8619 14.5043 14.9353C13.6979 15.7811 12.838 16.5664 11.9325 17.2867C12.2818 16.6262 12.3344 15.7649 12.0712 14.9863C11.245 16.3678 10.1938 17.5723 8.96907 18.538C9.18096 17.9041 9.08122 17.1241 8.71297 16.5021C8.02714 18.3335 6.84429 19.8884 5.33588 20.9498C5.7399 20.6377 5.94897 20.0672 5.87219 19.4979C5.07272 20.5328 4.27049 21.57 3.47102 22.6049C3.84608 22.1528 3.93585 21.4245 3.67927 20.8094C2.84801 21.7678 2.00662 22.7252 1.17536 23.6836C1.22009 23.3665 0.641943 22.7828 0.686451 22.4682C-0.0091711 24.7164 -0.473415 27.3049 -2.15392 28.7414C-2.8895 29.8351 -1.94703 26.5104 -1.82019 25.6757C-3.03474 26.9122 -3.46138 28.9667 -4.59434 30.2942C-4.65375 30.363 -4.67666 30.4527 -4.73207 30.5346C-6.07953 32.5569 -6.9348 32.9555 -7.13399 34.2526C-7.34532 35.6327 -7.83179 37.5802 -7.84293 38.9162C-7.85956 40.7685 -7.37857 43.1011 -6.55601 44.4134C-3.88848 40.8427 8.07361 32.0576 11.9954 32.232C10.841 31.4339 9.47131 31.0683 8.20088 31.2179C9.69296 30.56 11.3718 30.3177 13.0541 30.5163C11.9392 29.8845 10.6702 29.6548 9.51858 29.878C11.0157 29.0398 12.7975 28.7273 14.5715 28.9871C13.2753 28.4469 11.9109 28.1709 10.5779 28.1853C12.0209 26.7822 13.7511 25.7218 15.6397 25.0823C14.1734 24.1406 12.4591 23.7484 10.8891 23.9999C12.1021 23.354 13.4427 22.9481 14.8348 22.8088C13.4421 21.9015 11.8084 21.5211 10.3111 21.7584C11.5815 20.7965 14.0398 21.2009 15.6279 20.9458C14.6449 20.1114 12.2945 20.7525 10.8534 20.4471C12.0777 20.0594 13.9053 18.7831 15.2226 18.6528C14.6093 18.033 12.408 19.4125 11.6388 19.518" fill="#C7B299"/>
<path d="M11.7087 19.5902C13.0265 18.2784 14.3283 16.8557 14.6 14.9434C14.6117 14.8655 14.4997 14.8025 14.4437 14.8614C13.6377 15.7022 12.7803 16.4877 11.8718 17.2129L12.0237 17.3174C12.3921 16.5822 12.4122 15.7435 12.1668 14.9664C12.1447 14.8958 12.0413 14.8514 11.9939 14.9289C11.1778 16.2806 10.145 17.4791 8.90864 18.4617L9.06051 18.5662C9.27904 17.8539 9.16681 17.1008 8.80048 16.4561C8.76046 16.3865 8.65596 16.3853 8.62378 16.464C7.95408 18.2255 6.81515 19.7739 5.27313 20.8707L5.39603 21.0161C5.85714 20.6324 6.02567 20.0585 5.96285 19.4751C5.95493 19.3879 5.83841 19.378 5.78999 19.4375C4.99052 20.4724 4.1883 21.5096 3.38882 22.5445L3.54533 22.6545C3.96653 22.1096 4.00689 21.3924 3.76151 20.7655C3.73457 20.6919 3.63935 20.7017 3.59686 20.7516C2.76539 21.7124 1.92696 22.6651 1.09295 23.6257L1.26619 23.6888C1.2847 23.2294 0.75774 22.9148 0.777282 22.4734C0.780785 22.3719 0.626521 22.3257 0.591979 22.4323C0.0565773 24.1745 -0.289854 26.0652 -1.30613 27.6113C-1.56078 27.9972 -1.86263 28.3077 -2.18645 28.6368C-2.24796 28.7003 -2.31539 28.7735 -2.36488 28.8457C-2.39682 28.8914 -2.33491 28.8534 -2.33199 28.8791C-2.3347 28.8509 -2.34733 28.8192 -2.34222 28.7891C-2.30272 28.5938 -2.30542 28.3848 -2.26823 28.1868C-2.2153 27.8933 -2.15246 27.6033 -2.08687 27.3109C-1.96439 26.7687 -1.81637 26.2261 -1.72893 25.6758C-1.71722 25.5979 -1.82924 25.5349 -1.88526 25.5938C-2.88995 26.6419 -3.32108 28.0568 -4.03045 29.2929C-4.20414 29.5964 -4.40167 29.8802 -4.61671 30.1599C-4.8548 30.4708 -5.04501 30.8188 -5.27868 31.1377C-5.65635 31.6506 -6.07198 32.1298 -6.46378 32.6288C-6.73823 32.9773 -6.98906 33.3482 -7.12469 33.7747C-7.30568 34.345 -7.35352 34.9699 -7.46698 35.5562C-7.74235 36.9996 -8.016 38.4228 -7.90635 39.8988C-7.7967 41.3749 -7.46401 43.1092 -6.64592 44.4441C-6.60778 44.5059 -6.52737 44.5203 -6.48127 44.458C-5.76232 43.5004 -4.86789 42.6696 -3.97899 41.874C-2.7642 40.7852 -1.49101 39.76 -0.188313 38.7779C2.50688 36.7476 5.35355 34.7963 8.4166 33.3624C9.49767 32.8582 10.7593 32.2699 11.9827 32.315C12.0743 32.3176 12.1278 32.1974 12.0458 32.1421C10.907 31.3708 9.55616 30.9635 8.1787 31.1116L8.23738 31.2923C9.75226 30.6363 11.4036 30.4172 13.0414 30.5993C13.13 30.6068 13.1897 30.4743 13.1045 30.4264C12.0005 29.8159 10.7452 29.5466 9.4964 29.7718L9.55508 29.9525C11.0856 29.112 12.8341 28.8298 14.5586 29.0726C14.6696 29.0871 14.6958 28.9289 14.5998 28.8877C13.3228 28.3619 11.9644 28.0736 10.5813 28.0787L10.6359 28.2463C12.0726 26.8579 13.787 25.8038 15.6789 25.1544C15.7471 25.1321 15.7485 25.0253 15.6928 24.99C14.2592 24.0843 12.5597 23.6372 10.8697 23.8913L10.9284 24.072C12.1513 23.4295 13.4756 23.035 14.8503 22.8891C14.9327 22.8808 14.9531 22.7603 14.8879 22.7166C13.5257 21.8424 11.9066 21.4098 10.2917 21.6498L10.3694 21.8169C11.1199 21.2693 12.1236 21.1965 13.0222 21.1606C13.9207 21.1246 14.775 21.1588 15.6409 21.0259C15.7262 21.0128 15.738 20.9043 15.6785 20.8534C15.0838 20.3752 14.2315 20.3769 13.5087 20.3869C12.63 20.399 11.7276 20.511 10.857 20.3379L10.8901 20.519C12.3674 20.0356 13.6642 18.913 15.2359 18.7304C15.3028 18.7233 15.3445 18.6224 15.2924 18.5747C14.8618 18.1767 14.1258 18.4632 13.6548 18.6321C12.9889 18.8736 12.3204 19.2957 11.6194 19.4094C11.4978 19.4297 11.533 19.616 11.6546 19.5958C12.2313 19.5046 12.7839 19.1847 13.3177 18.9676C13.6427 18.8348 13.9724 18.7074 14.3132 18.6293C14.5681 18.5719 14.9313 18.5009 15.1466 18.6999L15.2032 18.5443C13.611 18.7277 12.3032 19.8595 10.8103 20.3467C10.7106 20.379 10.7632 20.5108 10.8434 20.5278C11.6539 20.6881 12.493 20.6013 13.311 20.5815C14.0499 20.5626 14.9618 20.5202 15.5708 21.0098L15.6084 20.8373C14.6623 20.9838 13.695 20.9273 12.7412 20.984C11.8796 21.0357 10.9643 21.1492 10.249 21.6717C10.1675 21.731 10.2389 21.8516 10.3267 21.8387C11.8875 21.6043 13.4589 22.0277 14.7777 22.8728L14.8153 22.7003C13.4252 22.8473 12.0825 23.2479 10.8461 23.8995C10.7499 23.9499 10.7962 24.0964 10.9047 24.0802C12.543 23.8345 14.1925 24.2696 15.5827 25.1462L15.5966 24.9819C13.6916 25.6353 11.9609 26.7008 10.5133 28.0984C10.4604 28.1499 10.4786 28.266 10.5679 28.266C11.9357 28.2622 13.2742 28.5436 14.5364 29.0631L14.5776 28.8782C12.8228 28.6327 11.0328 28.9216 9.47549 29.7777C9.38444 29.8285 9.42289 29.9769 9.53417 29.9583C10.7312 29.7415 11.942 29.9943 12.9971 30.5802L13.0602 30.4073C11.3897 30.22 9.70182 30.4487 8.15779 31.1175C8.0545 31.1622 8.11365 31.3073 8.21647 31.2982C9.53966 31.1582 10.8453 31.5565 11.9381 32.2985L12.0013 32.1256C10.9458 32.0871 9.87091 32.518 8.92042 32.9264C7.47186 33.5523 6.08898 34.3366 4.74848 35.1626C1.77424 36.9936 -1.07829 39.0743 -3.70457 41.3753C-4.7435 42.2854 -5.80127 43.2373 -6.63503 44.3457L-6.47038 44.3596C-7.19915 43.1749 -7.51573 41.7323 -7.66795 40.3672C-7.83126 38.9223 -7.64866 37.5499 -7.3805 36.1314C-7.17268 35.0337 -7.13047 33.843 -6.44492 32.9181C-6.11335 32.4675 -5.73875 32.051 -5.39516 31.6091C-5.16299 31.3079 -4.93039 31.0017 -4.72206 30.6806C-4.52853 30.3838 -4.31602 30.1039 -4.1227 29.8096C-3.25914 28.5001 -2.8647 26.8859 -1.75961 25.7369L-1.91594 25.6549C-2.00531 26.2279 -2.16286 26.7926 -2.28748 27.3601C-2.3571 27.67 -2.42441 27.9826 -2.47652 28.2964C-2.50439 28.4749 -2.56802 28.7139 -2.51947 28.8938C-2.49048 29.0032 -2.42469 29.0699 -2.30663 29.0315C-2.25151 29.0132 -2.21112 28.9581 -2.17455 28.9179C-2.02869 28.7622 -1.87567 28.6122 -1.73002 28.459C-1.06839 27.7562 -0.631581 26.8765 -0.292917 25.9809C0.137665 24.8434 0.419478 23.6552 0.775569 22.4937L0.590265 22.4525C0.571757 22.9118 1.09872 23.2264 1.07918 23.6678C1.07589 23.7668 1.19048 23.7995 1.25242 23.7309C2.08389 22.77 2.92232 21.8174 3.75633 20.8568L3.59168 20.8428C3.81159 21.4089 3.76731 22.052 3.39157 22.5421C3.31693 22.6402 3.47365 22.7477 3.54808 22.6522C4.34755 21.6173 5.14978 20.5801 5.94925 19.5453L5.7764 19.5077C5.83213 20.0242 5.67951 20.5308 5.27334 20.8681C5.1774 20.9466 5.29841 21.0842 5.39624 21.0135C6.96277 19.8985 8.1199 18.3159 8.80208 16.5275L8.62538 16.5355C8.96495 17.1346 9.08167 17.8346 8.87735 18.4998C8.84937 18.5891 8.95251 18.6665 9.02922 18.6043C10.2768 17.6099 11.3235 16.3974 12.1483 15.0336L11.9755 14.9961C12.2106 15.7443 12.1967 16.5401 11.841 17.2459C11.795 17.3362 11.9244 17.4058 11.9928 17.3505C12.9013 16.6253 13.7612 15.84 14.5647 14.999L14.4084 14.917C14.1439 16.7739 12.8631 18.1601 11.5841 19.4345C11.4976 19.5213 11.6205 19.6667 11.707 19.5798L11.7087 19.5902Z" fill="#161616"/>
</g>
</g>
<g clip-path="url(#clip1_240_1061)">
<rect x="66.5" width="518" height="102" rx="12" fill="#161616"/>
<rect x="66.5" width="518" height="50" fill="#222222"/>
<rect x="66.5" width="518" height="50" stroke="#313131"/>
<path d="M83.4993 30.5V22.8636H84.9261V24.1065H85.0206C85.1797 23.6856 85.4399 23.3575 85.8011 23.1222C86.1624 22.8835 86.5949 22.7642 87.0987 22.7642C87.6091 22.7642 88.0367 22.8835 88.3814 23.1222C88.7294 23.3608 88.9863 23.6889 89.152 24.1065H89.2315C89.4138 23.6989 89.7038 23.3741 90.1016 23.1321C90.4993 22.8868 90.9732 22.7642 91.5234 22.7642C92.2161 22.7642 92.7812 22.9813 93.2188 23.4155C93.6596 23.8497 93.88 24.5043 93.88 25.3793V30.5H92.3935V25.5185C92.3935 25.0014 92.2526 24.6269 91.9709 24.3949C91.6892 24.1629 91.3527 24.0469 90.9616 24.0469C90.4777 24.0469 90.1016 24.196 89.8331 24.4943C89.5646 24.7893 89.4304 25.1688 89.4304 25.6328V30.5H87.9489V25.424C87.9489 25.0097 87.8196 24.6766 87.5611 24.4247C87.3026 24.1728 86.9661 24.0469 86.5518 24.0469C86.2701 24.0469 86.0099 24.1214 85.7713 24.2706C85.536 24.4164 85.3454 24.6203 85.1996 24.8821C85.0571 25.1439 84.9858 25.4472 84.9858 25.7919V30.5H83.4993ZM98.0946 30.669C97.6107 30.669 97.1732 30.5795 96.7821 30.4006C96.391 30.2183 96.0811 29.9548 95.8525 29.6101C95.6271 29.2654 95.5144 28.8428 95.5144 28.3423C95.5144 27.9115 95.5972 27.5568 95.763 27.2784C95.9287 27 96.1524 26.7796 96.4341 26.6172C96.7158 26.4548 97.0307 26.3321 97.3787 26.2493C97.7267 26.1664 98.0814 26.1035 98.4426 26.0604C98.9 26.0073 99.2712 25.9643 99.5563 25.9311C99.8413 25.8946 100.048 25.8366 100.178 25.7571C100.307 25.6776 100.372 25.5483 100.372 25.3693V25.3345C100.372 24.9003 100.249 24.5639 100.004 24.3253C99.7618 24.0866 99.4005 23.9673 98.9199 23.9673C98.4194 23.9673 98.025 24.0784 97.7367 24.3004C97.4516 24.5192 97.2544 24.7628 97.1451 25.0312L95.748 24.7131C95.9138 24.2491 96.1557 23.8745 96.4739 23.5895C96.7954 23.3011 97.165 23.0923 97.5826 22.9631C98.0002 22.8305 98.4393 22.7642 98.9 22.7642C99.205 22.7642 99.5281 22.8007 99.8695 22.8736C100.214 22.9432 100.536 23.0724 100.834 23.2614C101.136 23.4503 101.383 23.7204 101.575 24.0717C101.767 24.4197 101.863 24.8722 101.863 25.429V30.5H100.411V29.456H100.352C100.256 29.6482 100.111 29.8371 99.9192 30.0227C99.727 30.2083 99.4801 30.3625 99.1784 30.4851C98.8768 30.6077 98.5156 30.669 98.0946 30.669ZM98.4178 29.4759C98.8288 29.4759 99.1801 29.3946 99.4718 29.2322C99.7667 29.0698 99.9905 28.8577 100.143 28.5959C100.299 28.3307 100.377 28.0473 100.377 27.7457V26.7614C100.324 26.8144 100.221 26.8641 100.068 26.9105C99.9192 26.9536 99.7485 26.9917 99.5563 27.0249C99.3641 27.0547 99.1768 27.0829 98.9945 27.1094C98.8122 27.1326 98.6597 27.1525 98.5371 27.169C98.2488 27.2055 97.9853 27.2668 97.7466 27.353C97.5113 27.4392 97.3224 27.5634 97.1799 27.7259C97.0407 27.8849 96.9711 28.0971 96.9711 28.3622C96.9711 28.7301 97.1069 29.0085 97.3787 29.1974C97.6505 29.383 97.9969 29.4759 98.4178 29.4759ZM103.843 30.5V22.8636H105.33V30.5H103.843ZM104.594 21.6854C104.335 21.6854 104.113 21.5992 103.928 21.4268C103.745 21.2512 103.654 21.0424 103.654 20.8004C103.654 20.5552 103.745 20.3464 103.928 20.174C104.113 19.9983 104.335 19.9105 104.594 19.9105C104.852 19.9105 105.073 19.9983 105.255 20.174C105.441 20.3464 105.533 20.5552 105.533 20.8004C105.533 21.0424 105.441 21.2512 105.255 21.4268C105.073 21.5992 104.852 21.6854 104.594 21.6854ZM108.816 25.9659V30.5H107.329V22.8636H108.756V24.1065H108.851C109.026 23.7022 109.301 23.3774 109.676 23.1321C110.054 22.8868 110.529 22.7642 111.103 22.7642C111.623 22.7642 112.079 22.8736 112.47 23.0923C112.861 23.3078 113.164 23.6293 113.38 24.0568C113.595 24.4844 113.703 25.013 113.703 25.6428V30.5H112.216V25.8217C112.216 25.2682 112.072 24.8357 111.784 24.5241C111.496 24.2093 111.099 24.0518 110.596 24.0518C110.251 24.0518 109.944 24.1264 109.676 24.2756C109.411 24.4247 109.2 24.6435 109.045 24.9318C108.892 25.2169 108.816 25.5616 108.816 25.9659ZM119.261 22.8636V24.0568H115.09V22.8636H119.261ZM116.209 21.0341H117.695V28.2578C117.695 28.5462 117.738 28.7633 117.824 28.9091C117.911 29.0516 118.022 29.1494 118.157 29.2024C118.297 29.2521 118.448 29.277 118.61 29.277C118.729 29.277 118.834 29.2687 118.923 29.2521C119.013 29.2356 119.082 29.2223 119.132 29.2124L119.4 30.4403C119.314 30.4735 119.192 30.5066 119.032 30.5398C118.873 30.5762 118.675 30.5961 118.436 30.5994C118.045 30.6061 117.68 30.5365 117.342 30.3906C117.004 30.2448 116.731 30.0194 116.522 29.7145C116.313 29.4096 116.209 29.0268 116.209 28.5661V21.0341ZM123.128 30.669C122.644 30.669 122.206 30.5795 121.815 30.4006C121.424 30.2183 121.114 29.9548 120.886 29.6101C120.66 29.2654 120.548 28.8428 120.548 28.3423C120.548 27.9115 120.63 27.5568 120.796 27.2784C120.962 27 121.186 26.7796 121.467 26.6172C121.749 26.4548 122.064 26.3321 122.412 26.2493C122.76 26.1664 123.115 26.1035 123.476 26.0604C123.933 26.0073 124.304 25.9643 124.589 25.9311C124.875 25.8946 125.082 25.8366 125.211 25.7571C125.34 25.6776 125.405 25.5483 125.405 25.3693V25.3345C125.405 24.9003 125.282 24.5639 125.037 24.3253C124.795 24.0866 124.434 23.9673 123.953 23.9673C123.453 23.9673 123.058 24.0784 122.77 24.3004C122.485 24.5192 122.288 24.7628 122.178 25.0312L120.781 24.7131C120.947 24.2491 121.189 23.8745 121.507 23.5895C121.829 23.3011 122.198 23.0923 122.616 22.9631C123.033 22.8305 123.473 22.7642 123.933 22.7642C124.238 22.7642 124.561 22.8007 124.903 22.8736C125.247 22.9432 125.569 23.0724 125.867 23.2614C126.169 23.4503 126.416 23.7204 126.608 24.0717C126.8 24.4197 126.896 24.8722 126.896 25.429V30.5H125.445V29.456H125.385C125.289 29.6482 125.145 29.8371 124.952 30.0227C124.76 30.2083 124.513 30.3625 124.212 30.4851C123.91 30.6077 123.549 30.669 123.128 30.669ZM123.451 29.4759C123.862 29.4759 124.213 29.3946 124.505 29.2322C124.8 29.0698 125.024 28.8577 125.176 28.5959C125.332 28.3307 125.41 28.0473 125.41 27.7457V26.7614C125.357 26.8144 125.254 26.8641 125.102 26.9105C124.952 26.9536 124.782 26.9917 124.589 27.0249C124.397 27.0547 124.21 27.0829 124.028 27.1094C123.845 27.1326 123.693 27.1525 123.57 27.169C123.282 27.2055 123.018 27.2668 122.78 27.353C122.545 27.4392 122.356 27.5634 122.213 27.7259C122.074 27.8849 122.004 28.0971 122.004 28.3622C122.004 28.7301 122.14 29.0085 122.412 29.1974C122.684 29.383 123.03 29.4759 123.451 29.4759ZM128.876 30.5V22.8636H130.363V30.5H128.876ZM129.627 21.6854C129.368 21.6854 129.146 21.5992 128.961 21.4268C128.778 21.2512 128.687 21.0424 128.687 20.8004C128.687 20.5552 128.778 20.3464 128.961 20.174C129.146 19.9983 129.368 19.9105 129.627 19.9105C129.885 19.9105 130.106 19.9983 130.288 20.174C130.474 20.3464 130.567 20.5552 130.567 20.8004C130.567 21.0424 130.474 21.2512 130.288 21.4268C130.106 21.5992 129.885 21.6854 129.627 21.6854ZM133.849 25.9659V30.5H132.363V22.8636H133.789V24.1065H133.884C134.06 23.7022 134.335 23.3774 134.709 23.1321C135.087 22.8868 135.563 22.7642 136.136 22.7642C136.656 22.7642 137.112 22.8736 137.503 23.0923C137.894 23.3078 138.198 23.6293 138.413 24.0568C138.628 24.4844 138.736 25.013 138.736 25.6428V30.5H137.25V25.8217C137.25 25.2682 137.105 24.8357 136.817 24.5241C136.529 24.2093 136.133 24.0518 135.629 24.0518C135.284 24.0518 134.978 24.1264 134.709 24.2756C134.444 24.4247 134.234 24.6435 134.078 24.9318C133.925 25.2169 133.849 25.5616 133.849 25.9659ZM144.021 30.6541C143.269 30.6541 142.621 30.4934 142.077 30.1719C141.537 29.8471 141.119 29.3913 140.824 28.8047C140.533 28.2147 140.387 27.5237 140.387 26.7315C140.387 25.9493 140.533 25.2599 140.824 24.6634C141.119 24.0668 141.53 23.6011 142.057 23.2663C142.587 22.9316 143.207 22.7642 143.917 22.7642C144.347 22.7642 144.765 22.8355 145.169 22.978C145.574 23.1205 145.937 23.3442 146.258 23.6491C146.58 23.9541 146.833 24.3501 147.019 24.8374C147.204 25.3213 147.297 25.9096 147.297 26.6023V27.1293H141.227V26.0156H145.841C145.841 25.6245 145.761 25.2782 145.602 24.9766C145.443 24.6716 145.219 24.4313 144.931 24.2557C144.646 24.08 144.311 23.9922 143.926 23.9922C143.509 23.9922 143.144 24.0949 142.833 24.3004C142.525 24.5026 142.286 24.7678 142.117 25.0959C141.951 25.4207 141.868 25.7737 141.868 26.1548V27.0249C141.868 27.5353 141.958 27.9695 142.137 28.3274C142.319 28.6854 142.573 28.9588 142.897 29.1477C143.222 29.3333 143.602 29.4261 144.036 29.4261C144.318 29.4261 144.574 29.3864 144.806 29.3068C145.038 29.224 145.239 29.1013 145.408 28.9389C145.577 28.7765 145.706 28.576 145.796 28.3374L147.203 28.5909C147.09 29.0052 146.888 29.3681 146.596 29.6797C146.308 29.9879 145.945 30.2282 145.507 30.4006C145.073 30.5696 144.578 30.6541 144.021 30.6541ZM148.947 30.5V22.8636H150.383V24.0767H150.463C150.602 23.6657 150.847 23.3426 151.199 23.1072C151.553 22.8686 151.954 22.7493 152.402 22.7493C152.495 22.7493 152.604 22.7526 152.73 22.7592C152.859 22.7659 152.96 22.7741 153.033 22.7841V24.206C152.974 24.1894 152.867 24.1712 152.715 24.1513C152.563 24.1281 152.41 24.1165 152.258 24.1165C151.906 24.1165 151.593 24.1911 151.318 24.3402C151.046 24.486 150.831 24.6899 150.672 24.9517C150.513 25.2102 150.433 25.5052 150.433 25.8366V30.5H148.947Z" fill="white"/>
<path d="M167.378 30.1477C166.713 30.1477 166.141 29.9908 165.661 29.6768C165.18 29.3629 164.811 28.9305 164.553 28.3796C164.294 27.8287 164.165 27.1993 164.165 26.4915C164.165 25.7713 164.297 25.1358 164.562 24.5849C164.83 24.0309 165.202 23.5985 165.679 23.2876C166.159 22.9737 166.719 22.8168 167.359 22.8168C167.858 22.8168 168.307 22.9091 168.707 23.0938C169.107 23.2784 169.435 23.5369 169.691 23.8693C169.946 24.2017 170.105 24.5895 170.166 25.0327H169.077C168.994 24.7095 168.809 24.4233 168.523 24.174C168.24 23.9216 167.858 23.7955 167.378 23.7955C166.953 23.7955 166.581 23.9062 166.261 24.1278C165.944 24.3464 165.696 24.6557 165.517 25.0558C165.342 25.4528 165.254 25.919 165.254 26.4545C165.254 27.0024 165.34 27.4794 165.513 27.8857C165.688 28.2919 165.934 28.6074 166.251 28.832C166.571 29.0567 166.947 29.169 167.378 29.169C167.661 29.169 167.918 29.1198 168.149 29.0213C168.38 28.9228 168.575 28.7812 168.735 28.5966C168.895 28.4119 169.009 28.1903 169.077 27.9318H170.166C170.105 28.3504 169.952 28.7274 169.709 29.0629C169.469 29.3952 169.151 29.6599 168.754 29.8569C168.36 30.0508 167.901 30.1477 167.378 30.1477ZM174.64 30.1477C173.999 30.1477 173.438 29.9954 172.955 29.6907C172.474 29.386 172.099 28.9598 171.828 28.4119C171.56 27.8641 171.426 27.224 171.426 26.4915C171.426 25.7528 171.56 25.1081 171.828 24.5572C172.099 24.0063 172.474 23.5785 172.955 23.2738C173.438 22.9691 173.999 22.8168 174.64 22.8168C175.28 22.8168 175.84 22.9691 176.32 23.2738C176.803 23.5785 177.179 24.0063 177.446 24.5572C177.717 25.1081 177.853 25.7528 177.853 26.4915C177.853 27.224 177.717 27.8641 177.446 28.4119C177.179 28.9598 176.803 29.386 176.32 29.6907C175.84 29.9954 175.28 30.1477 174.64 30.1477ZM174.64 29.169C175.126 29.169 175.526 29.0444 175.84 28.7951C176.154 28.5458 176.386 28.218 176.537 27.8118C176.688 27.4055 176.763 26.9654 176.763 26.4915C176.763 26.0175 176.688 25.5759 176.537 25.1665C176.386 24.7572 176.154 24.4264 175.84 24.174C175.526 23.9216 175.126 23.7955 174.64 23.7955C174.153 23.7955 173.753 23.9216 173.439 24.174C173.125 24.4264 172.893 24.7572 172.742 25.1665C172.591 25.5759 172.516 26.0175 172.516 26.4915C172.516 26.9654 172.591 27.4055 172.742 27.8118C172.893 28.218 173.125 28.5458 173.439 28.7951C173.753 29.0444 174.153 29.169 174.64 29.169ZM179.516 30V22.9091H180.568V24.017H180.661C180.808 23.6385 181.047 23.3446 181.376 23.1353C181.705 22.9229 182.101 22.8168 182.563 22.8168C183.03 22.8168 183.42 22.9229 183.731 23.1353C184.044 23.3446 184.289 23.6385 184.465 24.017H184.538C184.72 23.6508 184.992 23.36 185.356 23.1445C185.719 22.926 186.154 22.8168 186.662 22.8168C187.296 22.8168 187.815 23.0153 188.218 23.4123C188.621 23.8062 188.823 24.4202 188.823 25.2543V30H187.733V25.2543C187.733 24.7311 187.59 24.3571 187.304 24.1325C187.017 23.9078 186.68 23.7955 186.293 23.7955C185.794 23.7955 185.408 23.9463 185.134 24.2479C184.86 24.5464 184.723 24.925 184.723 25.3835V30H183.615V25.1435C183.615 24.7403 183.484 24.4156 183.223 24.1694C182.961 23.9201 182.624 23.7955 182.212 23.7955C181.929 23.7955 181.664 23.8709 181.418 24.0217C181.175 24.1725 180.978 24.3817 180.827 24.6495C180.679 24.9142 180.605 25.2204 180.605 25.5682V30H179.516ZM190.815 30V22.9091H191.867V24.017H191.959C192.107 23.6385 192.346 23.3446 192.675 23.1353C193.004 22.9229 193.4 22.8168 193.861 22.8168C194.329 22.8168 194.719 22.9229 195.029 23.1353C195.343 23.3446 195.588 23.6385 195.763 24.017H195.837C196.019 23.6508 196.291 23.36 196.654 23.1445C197.018 22.926 197.453 22.8168 197.961 22.8168C198.595 22.8168 199.113 23.0153 199.517 23.4123C199.92 23.8062 200.121 24.4202 200.121 25.2543V30H199.032V25.2543C199.032 24.7311 198.889 24.3571 198.603 24.1325C198.316 23.9078 197.979 23.7955 197.592 23.7955C197.093 23.7955 196.707 23.9463 196.433 24.2479C196.159 24.5464 196.022 24.925 196.022 25.3835V30H194.914V25.1435C194.914 24.7403 194.783 24.4156 194.522 24.1694C194.26 23.9201 193.923 23.7955 193.511 23.7955C193.227 23.7955 192.963 23.8709 192.717 24.0217C192.473 24.1725 192.276 24.3817 192.126 24.6495C191.978 24.9142 191.904 25.2204 191.904 25.5682V30H190.815ZM205.086 30.1477C204.403 30.1477 203.814 29.9969 203.318 29.6953C202.826 29.3906 202.446 28.9659 202.178 28.4212C201.913 27.8733 201.781 27.2363 201.781 26.5099C201.781 25.7836 201.913 25.1435 202.178 24.5895C202.446 24.0324 202.818 23.5985 203.295 23.2876C203.775 22.9737 204.335 22.8168 204.976 22.8168C205.345 22.8168 205.71 22.8783 206.07 23.0014C206.43 23.1245 206.758 23.3246 207.053 23.6016C207.348 23.8755 207.584 24.2386 207.759 24.6911C207.935 25.1435 208.022 25.7005 208.022 26.3622V26.8239H202.557V25.8821H206.915C206.915 25.482 206.834 25.125 206.674 24.8111C206.517 24.4972 206.293 24.2494 206 24.0678C205.711 23.8862 205.37 23.7955 204.976 23.7955C204.542 23.7955 204.166 23.9032 203.849 24.1186C203.535 24.331 203.294 24.608 203.124 24.9496C202.955 25.2912 202.87 25.6574 202.87 26.0483V26.6761C202.87 27.2116 202.963 27.6656 203.147 28.038C203.335 28.4073 203.595 28.6889 203.928 28.8828C204.26 29.0736 204.646 29.169 205.086 29.169C205.373 29.169 205.631 29.129 205.862 29.049C206.096 28.9659 206.297 28.8428 206.467 28.6797C206.636 28.5135 206.767 28.3073 206.859 28.0611L207.912 28.3565C207.801 28.7135 207.615 29.0275 207.353 29.2983C207.091 29.5661 206.768 29.7753 206.384 29.9261C205.999 30.0739 205.566 30.1477 205.086 30.1477ZM210.769 25.7344V30H209.68V22.9091H210.732V24.017H210.825C210.991 23.657 211.243 23.3677 211.582 23.1491C211.92 22.9276 212.357 22.8168 212.893 22.8168C213.373 22.8168 213.793 22.9152 214.153 23.1122C214.513 23.3061 214.793 23.6016 214.993 23.9986C215.193 24.3925 215.293 24.8911 215.293 25.4943V30H214.204V25.5682C214.204 25.0111 214.059 24.5772 213.77 24.2663C213.481 23.9524 213.084 23.7955 212.579 23.7955C212.231 23.7955 211.92 23.8709 211.646 24.0217C211.376 24.1725 211.162 24.3925 211.005 24.6818C210.848 24.9711 210.769 25.322 210.769 25.7344ZM220.368 22.9091V23.8324H216.693V22.9091H220.368ZM217.764 21.2102H218.854V27.9688C218.854 28.2765 218.898 28.5073 218.988 28.6612C219.08 28.812 219.197 28.9136 219.339 28.9659C219.483 29.0152 219.636 29.0398 219.796 29.0398C219.916 29.0398 220.014 29.0336 220.091 29.0213C220.168 29.0059 220.23 28.9936 220.276 28.9844L220.497 29.9631C220.423 29.9908 220.32 30.0185 220.188 30.0462C220.056 30.0769 219.888 30.0923 219.685 30.0923C219.377 30.0923 219.075 30.0262 218.78 29.8938C218.488 29.7615 218.244 29.5599 218.051 29.2891C217.86 29.0182 217.764 28.6766 217.764 28.2642V21.2102ZM224.904 30.1477C224.221 30.1477 223.631 29.9969 223.136 29.6953C222.643 29.3906 222.263 28.9659 221.995 28.4212C221.731 27.8733 221.598 27.2363 221.598 26.5099C221.598 25.7836 221.731 25.1435 221.995 24.5895C222.263 24.0324 222.636 23.5985 223.113 23.2876C223.593 22.9737 224.153 22.8168 224.793 22.8168C225.162 22.8168 225.527 22.8783 225.887 23.0014C226.247 23.1245 226.575 23.3246 226.87 23.6016C227.166 23.8755 227.401 24.2386 227.577 24.6911C227.752 25.1435 227.84 25.7005 227.84 26.3622V26.8239H222.374V25.8821H226.732C226.732 25.482 226.652 25.125 226.492 24.8111C226.335 24.4972 226.11 24.2494 225.818 24.0678C225.529 23.8862 225.187 23.7955 224.793 23.7955C224.359 23.7955 223.984 23.9032 223.667 24.1186C223.353 24.331 223.111 24.608 222.942 24.9496C222.772 25.2912 222.688 25.6574 222.688 26.0483V26.6761C222.688 27.2116 222.78 27.6656 222.965 28.038C223.153 28.4073 223.413 28.6889 223.745 28.8828C224.077 29.0736 224.464 29.169 224.904 29.169C225.19 29.169 225.449 29.129 225.679 29.049C225.913 28.9659 226.115 28.8428 226.284 28.6797C226.453 28.5135 226.584 28.3073 226.676 28.0611L227.729 28.3565C227.618 28.7135 227.432 29.0275 227.17 29.2983C226.909 29.5661 226.586 29.7753 226.201 29.9261C225.816 30.0739 225.384 30.1477 224.904 30.1477ZM232.175 30.1477C231.584 30.1477 231.062 29.9985 230.61 29.6999C230.157 29.3983 229.803 28.9736 229.548 28.4258C229.292 27.8749 229.165 27.224 229.165 26.473C229.165 25.7282 229.292 25.0819 229.548 24.5341C229.803 23.9863 230.159 23.5631 230.614 23.2646C231.07 22.966 231.596 22.8168 232.193 22.8168C232.655 22.8168 233.02 22.8937 233.287 23.0476C233.558 23.1984 233.764 23.3707 233.906 23.5646C234.051 23.7554 234.163 23.9124 234.243 24.0355H234.335V20.5455H235.425V30H234.372V28.9105H234.243C234.163 29.0398 234.049 29.2029 233.901 29.3999C233.754 29.5937 233.543 29.7676 233.269 29.9215C232.995 30.0723 232.63 30.1477 232.175 30.1477ZM232.322 29.169C232.759 29.169 233.129 29.0552 233.43 28.8274C233.732 28.5966 233.961 28.2781 234.118 27.8718C234.275 27.4625 234.354 26.9901 234.354 26.4545C234.354 25.9252 234.277 25.462 234.123 25.065C233.969 24.6649 233.741 24.354 233.44 24.1325C233.138 23.9078 232.766 23.7955 232.322 23.7955C231.861 23.7955 231.476 23.9139 231.168 24.1509C230.864 24.3848 230.634 24.7034 230.48 25.1065C230.33 25.5066 230.254 25.956 230.254 26.4545C230.254 26.9593 230.331 27.4179 230.485 27.8303C230.642 28.2396 230.873 28.5658 231.178 28.8089C231.485 29.049 231.867 29.169 232.322 29.169ZM244.533 20.5455V30H243.388V21.7457H243.333L241.025 23.2784V22.1151L243.388 20.5455H244.533ZM253.604 30.1477C253.013 30.1477 252.492 29.9985 252.039 29.6999C251.587 29.3983 251.233 28.9736 250.978 28.4258C250.722 27.8749 250.594 27.224 250.594 26.473C250.594 25.7282 250.722 25.0819 250.978 24.5341C251.233 23.9863 251.589 23.5631 252.044 23.2646C252.5 22.966 253.026 22.8168 253.623 22.8168C254.085 22.8168 254.449 22.8937 254.717 23.0476C254.988 23.1984 255.194 23.3707 255.336 23.5646C255.48 23.7554 255.593 23.9124 255.673 24.0355H255.765V20.5455H256.854V30H255.802V28.9105H255.673C255.593 29.0398 255.479 29.2029 255.331 29.3999C255.183 29.5937 254.972 29.7676 254.699 29.9215C254.425 30.0723 254.06 30.1477 253.604 30.1477ZM253.752 29.169C254.189 29.169 254.558 29.0552 254.86 28.8274C255.162 28.5966 255.391 28.2781 255.548 27.8718C255.705 27.4625 255.783 26.9901 255.783 26.4545C255.783 25.9252 255.706 25.462 255.553 25.065C255.399 24.6649 255.171 24.354 254.869 24.1325C254.568 23.9078 254.195 23.7955 253.752 23.7955C253.29 23.7955 252.906 23.9139 252.598 24.1509C252.293 24.3848 252.064 24.7034 251.91 25.1065C251.759 25.5066 251.684 25.956 251.684 26.4545C251.684 26.9593 251.761 27.4179 251.915 27.8303C252.072 28.2396 252.303 28.5658 252.607 28.8089C252.915 29.049 253.297 29.169 253.752 29.169ZM261.088 30.1662C260.638 30.1662 260.231 30.0816 259.864 29.9123C259.498 29.7399 259.207 29.4922 258.992 29.169C258.776 28.8428 258.669 28.4489 258.669 27.9872C258.669 27.581 258.749 27.2517 258.909 26.9993C259.069 26.7438 259.283 26.5438 259.55 26.3991C259.818 26.2545 260.114 26.1468 260.437 26.076C260.763 26.0021 261.091 25.9437 261.42 25.9006C261.851 25.8452 262.2 25.8036 262.468 25.7759C262.739 25.7451 262.936 25.6944 263.059 25.6236C263.185 25.5528 263.248 25.4297 263.248 25.2543V25.2173C263.248 24.7618 263.124 24.4079 262.874 24.1555C262.628 23.9032 262.254 23.777 261.752 23.777C261.232 23.777 260.825 23.8909 260.529 24.1186C260.234 24.3464 260.026 24.5895 259.906 24.848L258.872 24.4787C259.056 24.0478 259.303 23.7124 259.61 23.4723C259.921 23.2292 260.26 23.0599 260.626 22.9645C260.995 22.866 261.359 22.8168 261.716 22.8168C261.943 22.8168 262.205 22.8445 262.5 22.8999C262.799 22.9522 263.087 23.0614 263.364 23.2276C263.644 23.3938 263.876 23.6446 264.061 23.9801C264.245 24.3156 264.338 24.7649 264.338 25.3281V30H263.248V29.0398H263.193C263.119 29.1937 262.996 29.3583 262.824 29.5337C262.651 29.7092 262.422 29.8584 262.136 29.9815C261.849 30.1046 261.5 30.1662 261.088 30.1662ZM261.254 29.1875C261.685 29.1875 262.048 29.1029 262.343 28.9336C262.642 28.7643 262.867 28.5458 263.017 28.2781C263.171 28.0103 263.248 27.7287 263.248 27.4332V26.4361C263.202 26.4915 263.1 26.5423 262.944 26.5884C262.79 26.6315 262.611 26.67 262.408 26.7038C262.208 26.7346 262.013 26.7623 261.822 26.7869C261.634 26.8085 261.482 26.8269 261.365 26.8423C261.082 26.8793 260.817 26.9393 260.571 27.0224C260.328 27.1024 260.131 27.224 259.98 27.3871C259.832 27.5471 259.758 27.7656 259.758 28.0426C259.758 28.4212 259.898 28.7074 260.178 28.9013C260.461 29.0921 260.82 29.1875 261.254 29.1875ZM266.774 32.6591C266.589 32.6591 266.425 32.6437 266.28 32.6129C266.135 32.5852 266.035 32.5575 265.98 32.5298L266.257 31.5696C266.522 31.6373 266.756 31.6619 266.959 31.6435C267.162 31.625 267.342 31.5342 267.499 31.3711C267.659 31.2111 267.805 30.951 267.937 30.5909L268.141 30.0369L265.518 22.9091H266.7L268.658 28.5597H268.731L270.689 22.9091H271.871L268.861 31.0341C268.725 31.4003 268.558 31.7035 268.358 31.9435C268.157 32.1867 267.925 32.3667 267.66 32.4837C267.399 32.6006 267.103 32.6591 266.774 32.6591ZM279.052 30.1662C278.602 30.1662 278.194 30.0816 277.828 29.9123C277.462 29.7399 277.171 29.4922 276.956 29.169C276.74 28.8428 276.633 28.4489 276.633 27.9872C276.633 27.581 276.713 27.2517 276.873 26.9993C277.033 26.7438 277.247 26.5438 277.514 26.3991C277.782 26.2545 278.078 26.1468 278.401 26.076C278.727 26.0021 279.055 25.9437 279.384 25.9006C279.815 25.8452 280.164 25.8036 280.432 25.7759C280.703 25.7451 280.9 25.6944 281.023 25.6236C281.149 25.5528 281.212 25.4297 281.212 25.2543V25.2173C281.212 24.7618 281.087 24.4079 280.838 24.1555C280.592 23.9032 280.218 23.777 279.716 23.777C279.196 23.777 278.788 23.8909 278.493 24.1186C278.198 24.3464 277.99 24.5895 277.87 24.848L276.836 24.4787C277.02 24.0478 277.267 23.7124 277.574 23.4723C277.885 23.2292 278.224 23.0599 278.59 22.9645C278.959 22.866 279.322 22.8168 279.679 22.8168C279.907 22.8168 280.169 22.8445 280.464 22.8999C280.763 22.9522 281.051 23.0614 281.328 23.2276C281.608 23.3938 281.84 23.6446 282.025 23.9801C282.209 24.3156 282.302 24.7649 282.302 25.3281V30H281.212V29.0398H281.157C281.083 29.1937 280.96 29.3583 280.787 29.5337C280.615 29.7092 280.386 29.8584 280.1 29.9815C279.813 30.1046 279.464 30.1662 279.052 30.1662ZM279.218 29.1875C279.649 29.1875 280.012 29.1029 280.307 28.9336C280.606 28.7643 280.83 28.5458 280.981 28.2781C281.135 28.0103 281.212 27.7287 281.212 27.4332V26.4361C281.166 26.4915 281.064 26.5423 280.907 26.5884C280.754 26.6315 280.575 26.67 280.372 26.7038C280.172 26.7346 279.976 26.7623 279.786 26.7869C279.598 26.8085 279.446 26.8269 279.329 26.8423C279.045 26.8793 278.781 26.9393 278.535 27.0224C278.291 27.1024 278.094 27.224 277.944 27.3871C277.796 27.5471 277.722 27.7656 277.722 28.0426C277.722 28.4212 277.862 28.7074 278.142 28.9013C278.425 29.0921 278.784 29.1875 279.218 29.1875ZM287.152 32.8068C286.626 32.8068 286.174 32.7391 285.795 32.6037C285.417 32.4714 285.101 32.2959 284.849 32.0774C284.599 31.862 284.401 31.6312 284.253 31.3849L285.121 30.7756C285.22 30.9048 285.344 31.0526 285.495 31.2188C285.646 31.388 285.852 31.5342 286.114 31.6573C286.378 31.7835 286.725 31.8466 287.152 31.8466C287.725 31.8466 288.197 31.7081 288.57 31.4311C288.942 31.1541 289.128 30.7202 289.128 30.1293V28.6889H289.036C288.956 28.8182 288.842 28.9782 288.694 29.169C288.55 29.3568 288.34 29.5245 288.066 29.6722C287.796 29.8169 287.429 29.8892 286.968 29.8892C286.395 29.8892 285.881 29.7538 285.426 29.483C284.973 29.2121 284.615 28.8182 284.35 28.3011C284.089 27.7841 283.958 27.1562 283.958 26.4176C283.958 25.6913 284.085 25.0588 284.341 24.5202C284.596 23.9786 284.952 23.56 285.407 23.2646C285.863 22.966 286.389 22.8168 286.986 22.8168C287.448 22.8168 287.814 22.8937 288.085 23.0476C288.359 23.1984 288.568 23.3707 288.713 23.5646C288.86 23.7554 288.974 23.9124 289.054 24.0355H289.165V22.9091H290.218V30.2031C290.218 30.8125 290.079 31.308 289.802 31.6896C289.528 32.0743 289.159 32.3559 288.694 32.5344C288.233 32.716 287.719 32.8068 287.152 32.8068ZM287.115 28.9105C287.552 28.9105 287.922 28.8105 288.223 28.6104C288.525 28.4104 288.754 28.1226 288.911 27.7472C289.068 27.3717 289.147 26.9223 289.147 26.3991C289.147 25.8883 289.07 25.4374 288.916 25.0465C288.762 24.6557 288.534 24.3494 288.233 24.1278C287.931 23.9062 287.559 23.7955 287.115 23.7955C286.654 23.7955 286.269 23.9124 285.961 24.1463C285.657 24.3802 285.427 24.6941 285.273 25.0881C285.123 25.482 285.047 25.919 285.047 26.3991C285.047 26.8916 285.124 27.3271 285.278 27.7056C285.435 28.0811 285.666 28.3765 285.971 28.592C286.278 28.8043 286.66 28.9105 287.115 28.9105ZM295.093 30.1477C294.453 30.1477 293.891 29.9954 293.408 29.6907C292.928 29.386 292.552 28.9598 292.281 28.4119C292.013 27.8641 291.88 27.224 291.88 26.4915C291.88 25.7528 292.013 25.1081 292.281 24.5572C292.552 24.0063 292.928 23.5785 293.408 23.2738C293.891 22.9691 294.453 22.8168 295.093 22.8168C295.733 22.8168 296.293 22.9691 296.773 23.2738C297.256 23.5785 297.632 24.0063 297.9 24.5572C298.17 25.1081 298.306 25.7528 298.306 26.4915C298.306 27.224 298.17 27.8641 297.9 28.4119C297.632 28.9598 297.256 29.386 296.773 29.6907C296.293 29.9954 295.733 30.1477 295.093 30.1477ZM295.093 29.169C295.579 29.169 295.979 29.0444 296.293 28.7951C296.607 28.5458 296.839 28.218 296.99 27.8118C297.141 27.4055 297.216 26.9654 297.216 26.4915C297.216 26.0175 297.141 25.5759 296.99 25.1665C296.839 24.7572 296.607 24.4264 296.293 24.174C295.979 23.9216 295.579 23.7955 295.093 23.7955C294.606 23.7955 294.206 23.9216 293.892 24.174C293.578 24.4264 293.346 24.7572 293.195 25.1665C293.045 25.5759 292.969 26.0175 292.969 26.4915C292.969 26.9654 293.045 27.4055 293.195 27.8118C293.346 28.218 293.578 28.5458 293.892 28.7951C294.206 29.0444 294.606 29.169 295.093 29.169Z" fill="#919399"/>
<path d="M90.4318 85.0682C89.2727 85.0682 88.2481 84.9091 87.358 84.5909C86.4678 84.2765 85.7197 83.8125 85.1136 83.1989C84.5076 82.5852 84.0492 81.8333 83.7386 80.9432C83.428 80.053 83.2727 79.0341 83.2727 77.8864C83.2727 76.7765 83.4299 75.7841 83.7443 74.9091C84.0625 74.0341 84.5227 73.2917 85.125 72.6818C85.7311 72.0682 86.4659 71.6004 87.3295 71.2784C88.197 70.9564 89.178 70.7955 90.2727 70.7955C91.3371 70.7955 92.2689 70.9697 93.0682 71.3182C93.8712 71.6629 94.5417 72.1307 95.0795 72.7216C95.6212 73.3087 96.0265 73.9697 96.2955 74.7045C96.5682 75.4394 96.7045 76.197 96.7045 76.9773C96.7045 77.5265 96.678 78.0833 96.625 78.6477C96.572 79.2121 96.4602 79.7311 96.2898 80.2045C96.1193 80.6742 95.8561 81.053 95.5 81.3409C95.1477 81.6288 94.6705 81.7727 94.0682 81.7727C93.803 81.7727 93.5114 81.7311 93.1932 81.6477C92.875 81.5644 92.5928 81.4261 92.3466 81.233C92.1004 81.0398 91.9545 80.7803 91.9091 80.4545H91.8409C91.75 80.6742 91.6098 80.8826 91.4205 81.0795C91.2348 81.2765 90.9905 81.4337 90.6875 81.5511C90.3883 81.6686 90.0227 81.7197 89.5909 81.7045C89.0985 81.6856 88.6648 81.5758 88.2898 81.375C87.9148 81.1705 87.6004 80.8939 87.3466 80.5455C87.0966 80.1932 86.9072 79.786 86.7784 79.3239C86.6534 78.858 86.5909 78.3561 86.5909 77.8182C86.5909 77.3068 86.6667 76.839 86.8182 76.4148C86.9697 75.9905 87.1799 75.6193 87.4489 75.3011C87.7216 74.983 88.0398 74.7292 88.4034 74.5398C88.7708 74.3466 89.1667 74.2273 89.5909 74.1818C89.9697 74.1439 90.3144 74.161 90.625 74.233C90.9356 74.3011 91.1913 74.4053 91.392 74.5455C91.5928 74.6818 91.7197 74.8333 91.7727 75H91.8409V74.3636H93.0455V79.5C93.0455 79.8182 93.1345 80.0985 93.3125 80.3409C93.4905 80.5833 93.75 80.7045 94.0909 80.7045C94.4773 80.7045 94.7727 80.572 94.9773 80.3068C95.1856 80.0417 95.3277 79.6326 95.4034 79.0795C95.483 78.5265 95.5227 77.8182 95.5227 76.9545C95.5227 76.447 95.4527 75.947 95.3125 75.4545C95.1761 74.9583 94.9678 74.4943 94.6875 74.0625C94.411 73.6307 94.0606 73.25 93.6364 72.9205C93.2121 72.5909 92.714 72.3333 92.142 72.1477C91.5739 71.9583 90.928 71.8636 90.2045 71.8636C89.3144 71.8636 88.517 72.0019 87.8125 72.2784C87.1117 72.5511 86.5152 72.9508 86.0227 73.4773C85.5341 74 85.161 74.6364 84.9034 75.3864C84.6496 76.1326 84.5227 76.9811 84.5227 77.9318C84.5227 78.8977 84.6496 79.7557 84.9034 80.5057C85.161 81.2557 85.5398 81.8883 86.0398 82.4034C86.5436 82.9186 87.1667 83.3087 87.9091 83.5739C88.6515 83.8428 89.5076 83.9773 90.4773 83.9773C90.8939 83.9773 91.3049 83.9375 91.7102 83.858C92.1155 83.7784 92.4735 83.6913 92.7841 83.5966C93.0947 83.5019 93.3182 83.4318 93.4545 83.3864L93.7727 84.4318C93.5379 84.5303 93.2311 84.6288 92.8523 84.7273C92.4773 84.8258 92.0758 84.9072 91.6477 84.9716C91.2235 85.036 90.8182 85.0682 90.4318 85.0682ZM89.7727 80.5455C90.2803 80.5455 90.6913 80.4432 91.0057 80.2386C91.3201 80.0341 91.5492 79.7254 91.6932 79.3125C91.8371 78.8996 91.9091 78.3788 91.9091 77.75C91.9091 77.1136 91.8295 76.6174 91.6705 76.2614C91.5114 75.9053 91.2765 75.6553 90.9659 75.5114C90.6553 75.3674 90.2727 75.2955 89.8182 75.2955C89.3864 75.2955 89.017 75.4091 88.7102 75.6364C88.4072 75.8598 88.1742 76.1591 88.0114 76.5341C87.8523 76.9053 87.7727 77.3106 87.7727 77.75C87.7727 78.2348 87.8371 78.6913 87.9659 79.1193C88.0947 79.5436 88.3049 79.8883 88.5966 80.1534C88.8883 80.4148 89.2803 80.5455 89.7727 80.5455ZM98.7116 82V73.2727H100.007V74.5909H100.098C100.257 74.1591 100.545 73.8087 100.962 73.5398C101.378 73.2708 101.848 73.1364 102.371 73.1364C102.469 73.1364 102.592 73.1383 102.74 73.142C102.888 73.1458 103 73.1515 103.075 73.1591V74.5227C103.03 74.5114 102.926 74.4943 102.763 74.4716C102.604 74.4451 102.435 74.4318 102.257 74.4318C101.833 74.4318 101.454 74.5208 101.121 74.6989C100.791 74.8731 100.53 75.1155 100.337 75.4261C100.147 75.733 100.053 76.0833 100.053 76.4773V82H98.7116ZM107.233 82.2045C106.68 82.2045 106.178 82.1004 105.727 81.892C105.277 81.6799 104.919 81.375 104.653 80.9773C104.388 80.5758 104.256 80.0909 104.256 79.5227C104.256 79.0227 104.354 78.6174 104.551 78.3068C104.748 77.9924 105.011 77.7462 105.341 77.5682C105.67 77.3902 106.034 77.2576 106.432 77.1705C106.833 77.0795 107.237 77.0076 107.642 76.9545C108.172 76.8864 108.602 76.8352 108.932 76.8011C109.265 76.7633 109.508 76.7008 109.659 76.6136C109.814 76.5265 109.892 76.375 109.892 76.1591V76.1136C109.892 75.553 109.739 75.1174 109.432 74.8068C109.129 74.4962 108.669 74.3409 108.051 74.3409C107.411 74.3409 106.909 74.4811 106.545 74.7614C106.182 75.0417 105.926 75.3409 105.778 75.6591L104.506 75.2045C104.733 74.6742 105.036 74.2614 105.415 73.9659C105.797 73.6667 106.214 73.4583 106.665 73.3409C107.119 73.2197 107.566 73.1591 108.006 73.1591C108.286 73.1591 108.608 73.1932 108.972 73.2614C109.339 73.3258 109.693 73.4602 110.034 73.6648C110.379 73.8693 110.665 74.178 110.892 74.5909C111.119 75.0038 111.233 75.5568 111.233 76.25V82H109.892V80.8182H109.824C109.733 81.0076 109.581 81.2102 109.369 81.4261C109.157 81.642 108.875 81.8258 108.523 81.9773C108.17 82.1288 107.741 82.2045 107.233 82.2045ZM107.438 81C107.968 81 108.415 80.8958 108.778 80.6875C109.146 80.4792 109.422 80.2102 109.608 79.8807C109.797 79.5511 109.892 79.2045 109.892 78.8409V77.6136C109.835 77.6818 109.71 77.7443 109.517 77.8011C109.328 77.8542 109.108 77.9015 108.858 77.9432C108.612 77.9811 108.371 78.0152 108.136 78.0455C107.905 78.072 107.718 78.0947 107.574 78.1136C107.225 78.1591 106.9 78.233 106.597 78.3352C106.297 78.4337 106.055 78.5833 105.869 78.7841C105.688 78.9811 105.597 79.25 105.597 79.5909C105.597 80.0568 105.769 80.4091 106.114 80.6477C106.462 80.8826 106.903 81 107.438 81ZM117.226 82.1818C116.408 82.1818 115.703 81.9886 115.112 81.6023C114.521 81.2159 114.067 80.6837 113.749 80.0057C113.43 79.3277 113.271 78.553 113.271 77.6818C113.271 76.7955 113.434 76.0133 113.76 75.3352C114.089 74.6534 114.548 74.1212 115.135 73.7386C115.726 73.3523 116.415 73.1591 117.203 73.1591C117.817 73.1591 118.37 73.2727 118.862 73.5C119.355 73.7273 119.758 74.0455 120.072 74.4545C120.387 74.8636 120.582 75.3409 120.658 75.8864H119.317C119.214 75.4886 118.987 75.1364 118.635 74.8295C118.286 74.5189 117.817 74.3636 117.226 74.3636C116.703 74.3636 116.245 74.5 115.851 74.7727C115.461 75.0417 115.156 75.4223 114.936 75.9148C114.72 76.4034 114.612 76.9773 114.612 77.6364C114.612 78.3106 114.718 78.8977 114.93 79.3977C115.146 79.8977 115.449 80.286 115.839 80.5625C116.233 80.839 116.696 80.9773 117.226 80.9773C117.574 80.9773 117.891 80.9167 118.175 80.7955C118.459 80.6742 118.699 80.5 118.896 80.2727C119.093 80.0455 119.233 79.7727 119.317 79.4545H120.658C120.582 79.9697 120.394 80.4337 120.095 80.8466C119.8 81.2557 119.408 81.5814 118.919 81.8239C118.434 82.0625 117.87 82.1818 117.226 82.1818ZM126.277 82.1818C125.436 82.1818 124.711 81.9962 124.101 81.625C123.495 81.25 123.027 80.7273 122.697 80.0568C122.372 79.3826 122.209 78.5985 122.209 77.7045C122.209 76.8106 122.372 76.0227 122.697 75.3409C123.027 74.6553 123.485 74.1212 124.072 73.7386C124.663 73.3523 125.353 73.1591 126.141 73.1591C126.595 73.1591 127.044 73.2348 127.487 73.3864C127.93 73.5379 128.334 73.7841 128.697 74.125C129.061 74.4621 129.351 74.9091 129.567 75.4659C129.783 76.0227 129.891 76.7083 129.891 77.5227V78.0909H123.163V76.9318H128.527C128.527 76.4394 128.429 76 128.232 75.6136C128.038 75.2273 127.762 74.9223 127.402 74.6989C127.046 74.4754 126.625 74.3636 126.141 74.3636C125.607 74.3636 125.144 74.4962 124.754 74.7614C124.368 75.0227 124.071 75.3636 123.862 75.7841C123.654 76.2045 123.55 76.6553 123.55 77.1364V77.9091C123.55 78.5682 123.663 79.1269 123.891 79.5852C124.122 80.0398 124.442 80.3864 124.851 80.625C125.26 80.8598 125.735 80.9773 126.277 80.9773C126.629 80.9773 126.947 80.928 127.232 80.8295C127.519 80.7273 127.768 80.5758 127.976 80.375C128.184 80.1705 128.345 79.9167 128.459 79.6136L129.754 79.9773C129.618 80.4167 129.389 80.803 129.067 81.1364C128.745 81.4659 128.347 81.7235 127.874 81.9091C127.4 82.0909 126.868 82.1818 126.277 82.1818ZM136.93 76.3864V77.6364H131.839V76.3864H136.93ZM142.835 82.1818C142.047 82.1818 141.356 81.9943 140.761 81.6193C140.17 81.2443 139.708 80.7197 139.375 80.0455C139.045 79.3712 138.881 78.5833 138.881 77.6818C138.881 76.7727 139.045 75.9792 139.375 75.3011C139.708 74.6231 140.17 74.0966 140.761 73.7216C141.356 73.3466 142.047 73.1591 142.835 73.1591C143.623 73.1591 144.313 73.3466 144.903 73.7216C145.498 74.0966 145.96 74.6231 146.29 75.3011C146.623 75.9792 146.79 76.7727 146.79 77.6818C146.79 78.5833 146.623 79.3712 146.29 80.0455C145.96 80.7197 145.498 81.2443 144.903 81.6193C144.313 81.9943 143.623 82.1818 142.835 82.1818ZM142.835 80.9773C143.434 80.9773 143.926 80.8239 144.312 80.517C144.699 80.2102 144.985 79.8068 145.17 79.3068C145.356 78.8068 145.449 78.2652 145.449 77.6818C145.449 77.0985 145.356 76.5549 145.17 76.0511C144.985 75.5473 144.699 75.1402 144.312 74.8295C143.926 74.5189 143.434 74.3636 142.835 74.3636C142.237 74.3636 141.744 74.5189 141.358 74.8295C140.972 75.1402 140.686 75.5473 140.5 76.0511C140.314 76.5549 140.222 77.0985 140.222 77.6818C140.222 78.2652 140.314 78.8068 140.5 79.3068C140.686 79.8068 140.972 80.2102 141.358 80.517C141.744 80.8239 142.237 80.9773 142.835 80.9773ZM152.723 73.2727V74.4091H148.018V73.2727H152.723ZM149.428 82V72.0682C149.428 71.5682 149.545 71.1515 149.78 70.8182C150.015 70.4848 150.32 70.2348 150.695 70.0682C151.07 69.9015 151.465 69.8182 151.882 69.8182C152.212 69.8182 152.481 69.8447 152.689 69.8977C152.897 69.9508 153.053 70 153.155 70.0455L152.768 71.2045C152.7 71.1818 152.606 71.1534 152.484 71.1193C152.367 71.0852 152.212 71.0682 152.018 71.0682C151.575 71.0682 151.255 71.1799 151.058 71.4034C150.865 71.6269 150.768 71.9545 150.768 72.3864V82H149.428ZM159.149 76.3864V77.6364H154.058V76.3864H159.149ZM167.69 75.2273L166.486 75.5682C166.41 75.3674 166.298 75.1723 166.151 74.983C166.007 74.7898 165.81 74.6307 165.56 74.5057C165.31 74.3807 164.99 74.3182 164.599 74.3182C164.065 74.3182 163.62 74.4413 163.264 74.6875C162.912 74.9299 162.736 75.2386 162.736 75.6136C162.736 75.947 162.857 76.2102 163.099 76.4034C163.342 76.5966 163.721 76.7576 164.236 76.8864L165.531 77.2045C166.312 77.3939 166.893 77.6837 167.276 78.0739C167.658 78.4602 167.849 78.9583 167.849 79.5682C167.849 80.0682 167.705 80.5152 167.418 80.9091C167.134 81.303 166.736 81.6136 166.224 81.8409C165.713 82.0682 165.118 82.1818 164.44 82.1818C163.55 82.1818 162.813 81.9886 162.23 81.6023C161.647 81.2159 161.277 80.6515 161.122 79.9091L162.395 79.5909C162.516 80.0606 162.745 80.4129 163.082 80.6477C163.423 80.8826 163.868 81 164.418 81C165.043 81 165.539 80.8674 165.906 80.6023C166.277 80.3333 166.463 80.0114 166.463 79.6364C166.463 79.3333 166.357 79.0795 166.145 78.875C165.933 78.6667 165.607 78.5114 165.168 78.4091L163.713 78.0682C162.914 77.8788 162.327 77.5852 161.952 77.1875C161.58 76.786 161.395 76.2841 161.395 75.6818C161.395 75.1894 161.533 74.7538 161.81 74.375C162.09 73.9962 162.471 73.6989 162.952 73.483C163.437 73.267 163.986 73.1591 164.599 73.1591C165.463 73.1591 166.141 73.3485 166.634 73.7273C167.13 74.1061 167.482 74.6061 167.69 75.2273ZM171.209 70.3636V82H169.868V70.3636H171.209ZM177.21 82.1818C176.422 82.1818 175.731 81.9943 175.136 81.6193C174.545 81.2443 174.083 80.7197 173.75 80.0455C173.42 79.3712 173.256 78.5833 173.256 77.6818C173.256 76.7727 173.42 75.9792 173.75 75.3011C174.083 74.6231 174.545 74.0966 175.136 73.7216C175.731 73.3466 176.422 73.1591 177.21 73.1591C177.998 73.1591 178.688 73.3466 179.278 73.7216C179.873 74.0966 180.335 74.6231 180.665 75.3011C180.998 75.9792 181.165 76.7727 181.165 77.6818C181.165 78.5833 180.998 79.3712 180.665 80.0455C180.335 80.7197 179.873 81.2443 179.278 81.6193C178.688 81.9943 177.998 82.1818 177.21 82.1818ZM177.21 80.9773C177.809 80.9773 178.301 80.8239 178.688 80.517C179.074 80.2102 179.36 79.8068 179.545 79.3068C179.731 78.8068 179.824 78.2652 179.824 77.6818C179.824 77.0985 179.731 76.5549 179.545 76.0511C179.36 75.5473 179.074 75.1402 178.688 74.8295C178.301 74.5189 177.809 74.3636 177.21 74.3636C176.612 74.3636 176.119 74.5189 175.733 74.8295C175.347 75.1402 175.061 75.5473 174.875 76.0511C174.689 76.5549 174.597 77.0985 174.597 77.6818C174.597 78.2652 174.689 78.8068 174.875 79.3068C175.061 79.8068 175.347 80.2102 175.733 80.517C176.119 80.8239 176.612 80.9773 177.21 80.9773ZM187.007 73.2727V74.4091H182.484V73.2727H187.007ZM183.803 71.1818H185.143V79.5C185.143 79.8788 185.198 80.1629 185.308 80.3523C185.422 80.5379 185.566 80.6629 185.74 80.7273C185.918 80.7879 186.106 80.8182 186.303 80.8182C186.45 80.8182 186.571 80.8106 186.666 80.7955C186.761 80.7765 186.837 80.7614 186.893 80.75L187.166 81.9545C187.075 81.9886 186.948 82.0227 186.786 82.0568C186.623 82.0947 186.416 82.1136 186.166 82.1136C185.787 82.1136 185.416 82.0322 185.053 81.8693C184.693 81.7064 184.393 81.4583 184.155 81.125C183.92 80.7917 183.803 80.3712 183.803 79.8636V71.1818ZM190.553 76.75V82H189.212V70.3636H190.553V74.6364H190.666C190.871 74.1856 191.178 73.8277 191.587 73.5625C192 73.2936 192.549 73.1591 193.234 73.1591C193.829 73.1591 194.35 73.2784 194.797 73.517C195.244 73.7519 195.59 74.1136 195.837 74.6023C196.087 75.0871 196.212 75.7045 196.212 76.4545V82H194.871V76.5455C194.871 75.8523 194.691 75.3163 194.331 74.9375C193.975 74.5549 193.481 74.3636 192.848 74.3636C192.409 74.3636 192.015 74.4564 191.666 74.642C191.321 74.8277 191.049 75.0985 190.848 75.4545C190.651 75.8106 190.553 76.2424 190.553 76.75ZM204.847 75.2273L203.642 75.5682C203.566 75.3674 203.455 75.1723 203.307 74.983C203.163 74.7898 202.966 74.6307 202.716 74.5057C202.466 74.3807 202.146 74.3182 201.756 74.3182C201.222 74.3182 200.777 74.4413 200.42 74.6875C200.068 74.9299 199.892 75.2386 199.892 75.6136C199.892 75.947 200.013 76.2102 200.256 76.4034C200.498 76.5966 200.877 76.7576 201.392 76.8864L202.688 77.2045C203.468 77.3939 204.049 77.6837 204.432 78.0739C204.814 78.4602 205.006 78.9583 205.006 79.5682C205.006 80.0682 204.862 80.5152 204.574 80.9091C204.29 81.303 203.892 81.6136 203.381 81.8409C202.869 82.0682 202.275 82.1818 201.597 82.1818C200.706 82.1818 199.97 81.9886 199.386 81.6023C198.803 81.2159 198.434 80.6515 198.278 79.9091L199.551 79.5909C199.672 80.0606 199.902 80.4129 200.239 80.6477C200.58 80.8826 201.025 81 201.574 81C202.199 81 202.695 80.8674 203.062 80.6023C203.434 80.3333 203.619 80.0114 203.619 79.6364C203.619 79.3333 203.513 79.0795 203.301 78.875C203.089 78.6667 202.763 78.5114 202.324 78.4091L200.869 78.0682C200.07 77.8788 199.483 77.5852 199.108 77.1875C198.737 76.786 198.551 76.2841 198.551 75.6818C198.551 75.1894 198.689 74.7538 198.966 74.375C199.246 73.9962 199.627 73.6989 200.108 73.483C200.593 73.267 201.142 73.1591 201.756 73.1591C202.619 73.1591 203.297 73.3485 203.79 73.7273C204.286 74.1061 204.638 74.6061 204.847 75.2273Z" fill="#5B75F0"/>
<path d="M217.706 75.2273L216.501 75.5682C216.426 75.3674 216.314 75.1723 216.166 74.983C216.022 74.7898 215.825 74.6307 215.575 74.5057C215.325 74.3807 215.005 74.3182 214.615 74.3182C214.081 74.3182 213.636 74.4413 213.28 74.6875C212.928 74.9299 212.751 75.2386 212.751 75.6136C212.751 75.947 212.873 76.2102 213.115 76.4034C213.357 76.5966 213.736 76.7576 214.251 76.8864L215.547 77.2045C216.327 77.3939 216.909 77.6837 217.291 78.0739C217.674 78.4602 217.865 78.9583 217.865 79.5682C217.865 80.0682 217.721 80.5152 217.433 80.9091C217.149 81.303 216.751 81.6136 216.24 81.8409C215.729 82.0682 215.134 82.1818 214.456 82.1818C213.566 82.1818 212.829 81.9886 212.246 81.6023C211.662 81.2159 211.293 80.6515 211.138 79.9091L212.411 79.5909C212.532 80.0606 212.761 80.4129 213.098 80.6477C213.439 80.8826 213.884 81 214.433 81C215.058 81 215.554 80.8674 215.922 80.6023C216.293 80.3333 216.479 80.0114 216.479 79.6364C216.479 79.3333 216.373 79.0795 216.161 78.875C215.948 78.6667 215.623 78.5114 215.183 78.4091L213.729 78.0682C212.929 77.8788 212.342 77.5852 211.967 77.1875C211.596 76.786 211.411 76.2841 211.411 75.6818C211.411 75.1894 211.549 74.7538 211.825 74.375C212.106 73.9962 212.486 73.6989 212.967 73.483C213.452 73.267 214.001 73.1591 214.615 73.1591C215.479 73.1591 216.157 73.3485 216.649 73.7273C217.145 74.1061 217.498 74.6061 217.706 75.2273ZM223.429 82.1818C222.611 82.1818 221.906 81.9886 221.315 81.6023C220.724 81.2159 220.27 80.6837 219.952 80.0057C219.634 79.3277 219.474 78.553 219.474 77.6818C219.474 76.7955 219.637 76.0133 219.963 75.3352C220.293 74.6534 220.751 74.1212 221.338 73.7386C221.929 73.3523 222.618 73.1591 223.406 73.1591C224.02 73.1591 224.573 73.2727 225.065 73.5C225.558 73.7273 225.961 74.0455 226.276 74.4545C226.59 74.8636 226.785 75.3409 226.861 75.8864H225.52C225.418 75.4886 225.19 75.1364 224.838 74.8295C224.49 74.5189 224.02 74.3636 223.429 74.3636C222.906 74.3636 222.448 74.5 222.054 74.7727C221.664 75.0417 221.359 75.4223 221.139 75.9148C220.923 76.4034 220.815 76.9773 220.815 77.6364C220.815 78.3106 220.921 78.8977 221.134 79.3977C221.349 79.8977 221.652 80.286 222.043 80.5625C222.437 80.839 222.899 80.9773 223.429 80.9773C223.777 80.9773 224.094 80.9167 224.378 80.7955C224.662 80.6742 224.902 80.5 225.099 80.2727C225.296 80.0455 225.437 79.7727 225.52 79.4545H226.861C226.785 79.9697 226.598 80.4337 226.298 80.8466C226.003 81.2557 225.611 81.5814 225.122 81.8239C224.637 82.0625 224.073 82.1818 223.429 82.1818ZM232.366 82.1818C231.579 82.1818 230.887 81.9943 230.293 81.6193C229.702 81.2443 229.24 80.7197 228.906 80.0455C228.577 79.3712 228.412 78.5833 228.412 77.6818C228.412 76.7727 228.577 75.9792 228.906 75.3011C229.24 74.6231 229.702 74.0966 230.293 73.7216C230.887 73.3466 231.579 73.1591 232.366 73.1591C233.154 73.1591 233.844 73.3466 234.435 73.7216C235.029 74.0966 235.491 74.6231 235.821 75.3011C236.154 75.9792 236.321 76.7727 236.321 77.6818C236.321 78.5833 236.154 79.3712 235.821 80.0455C235.491 80.7197 235.029 81.2443 234.435 81.6193C233.844 81.9943 233.154 82.1818 232.366 82.1818ZM232.366 80.9773C232.965 80.9773 233.457 80.8239 233.844 80.517C234.23 80.2102 234.516 79.8068 234.702 79.3068C234.887 78.8068 234.98 78.2652 234.98 77.6818C234.98 77.0985 234.887 76.5549 234.702 76.0511C234.516 75.5473 234.23 75.1402 233.844 74.8295C233.457 74.5189 232.965 74.3636 232.366 74.3636C231.768 74.3636 231.276 74.5189 230.889 74.8295C230.503 75.1402 230.217 75.5473 230.031 76.0511C229.846 76.5549 229.753 77.0985 229.753 77.6818C229.753 78.2652 229.846 78.8068 230.031 79.3068C230.217 79.8068 230.503 80.2102 230.889 80.517C231.276 80.8239 231.768 80.9773 232.366 80.9773ZM238.368 82V73.2727H239.663V74.5909H239.754C239.913 74.1591 240.201 73.8087 240.618 73.5398C241.035 73.2708 241.504 73.1364 242.027 73.1364C242.125 73.1364 242.249 73.1383 242.396 73.142C242.544 73.1458 242.656 73.1515 242.732 73.1591V74.5227C242.686 74.5114 242.582 74.4943 242.419 74.4716C242.26 74.4451 242.091 74.4318 241.913 74.4318C241.489 74.4318 241.11 74.5208 240.777 74.6989C240.447 74.8731 240.186 75.1155 239.993 75.4261C239.804 75.733 239.709 76.0833 239.709 76.4773V82H238.368ZM247.714 82.1818C246.874 82.1818 246.148 81.9962 245.538 81.625C244.932 81.25 244.464 80.7273 244.135 80.0568C243.809 79.3826 243.646 78.5985 243.646 77.7045C243.646 76.8106 243.809 76.0227 244.135 75.3409C244.464 74.6553 244.923 74.1212 245.51 73.7386C246.101 73.3523 246.79 73.1591 247.578 73.1591C248.033 73.1591 248.482 73.2348 248.925 73.3864C249.368 73.5379 249.771 73.7841 250.135 74.125C250.499 74.4621 250.788 74.9091 251.004 75.4659C251.22 76.0227 251.328 76.7083 251.328 77.5227V78.0909H244.601V76.9318H249.964C249.964 76.4394 249.866 76 249.669 75.6136C249.476 75.2273 249.199 74.9223 248.839 74.6989C248.483 74.4754 248.063 74.3636 247.578 74.3636C247.044 74.3636 246.582 74.4962 246.192 74.7614C245.805 75.0227 245.508 75.3636 245.3 75.7841C245.091 76.2045 244.987 76.6553 244.987 77.1364V77.9091C244.987 78.5682 245.101 79.1269 245.328 79.5852C245.559 80.0398 245.879 80.3864 246.288 80.625C246.697 80.8598 247.173 80.9773 247.714 80.9773C248.067 80.9773 248.385 80.928 248.669 80.8295C248.957 80.7273 249.205 80.5758 249.413 80.375C249.622 80.1705 249.783 79.9167 249.896 79.6136L251.192 79.9773C251.055 80.4167 250.826 80.803 250.504 81.1364C250.182 81.4659 249.785 81.7235 249.311 81.9091C248.838 82.0909 248.305 82.1818 247.714 82.1818ZM261.482 82.1591C260.815 82.1591 260.214 82.0265 259.68 81.7614C259.146 81.4962 258.718 81.1326 258.396 80.6705C258.074 80.2083 257.898 79.6818 257.868 79.0909H259.232C259.285 79.6174 259.523 80.053 259.947 80.3977C260.375 80.7386 260.887 80.9091 261.482 80.9091C261.959 80.9091 262.383 80.7973 262.754 80.5739C263.129 80.3504 263.423 80.0436 263.635 79.6534C263.851 79.2595 263.959 78.8144 263.959 78.3182C263.959 77.8106 263.847 77.358 263.624 76.9602C263.404 76.5587 263.101 76.2424 262.714 76.0114C262.328 75.7803 261.887 75.6629 261.391 75.6591C261.035 75.6553 260.669 75.7102 260.294 75.8239C259.919 75.9337 259.61 76.0758 259.368 76.25L258.05 76.0909L258.754 70.3636H264.8V71.6136H259.936L259.527 75.0455H259.595C259.834 74.8561 260.133 74.6989 260.493 74.5739C260.853 74.4489 261.228 74.3864 261.618 74.3864C262.33 74.3864 262.964 74.5568 263.521 74.8977C264.082 75.2348 264.521 75.697 264.839 76.2841C265.161 76.8712 265.322 77.5417 265.322 78.2955C265.322 79.0379 265.156 79.7008 264.822 80.2841C264.493 80.8636 264.038 81.322 263.459 81.6591C262.879 81.9924 262.22 82.1591 261.482 82.1591Z" fill="white"/>
</g>
<rect x="67" y="0.5" width="517" height="101" rx="11.5" stroke="#313131"/>
<defs>
<clipPath id="clip0_240_1061">
<rect width="56" height="56" fill="white" transform="translate(0.5)"/>
</clipPath>
<clipPath id="clip1_240_1061">
<rect x="66.5" width="518" height="102" rx="12" fill="white"/>
</clipPath>
</defs>
</svg>
