<svg width="585" height="103" viewBox="0 0 585 103" fill="none" xmlns="http://www.w3.org/2000/svg">
<g clip-path="url(#clip0_240_1061)">
<rect x="0.5" y="0.347168" width="56" height="56" rx="28" fill="#FFC000"/>
<mask id="mask0_240_1061" style="mask-type:alpha" maskUnits="userSpaceOnUse" x="0" y="0" width="57" height="57">
<rect x="0.5" y="0.347168" width="56" height="56" rx="28" fill="#C8FF30"/>
</mask>
<g mask="url(#mask0_240_1061)">
<path d="M29.3994 46.3051C39.7186 46.3051 48.084 38.0691 48.084 27.9094C48.084 17.7497 39.7186 9.51367 29.3994 9.51367C19.0802 9.51367 10.7148 17.7497 10.7148 27.9094C10.7148 38.0691 19.0802 46.3051 29.3994 46.3051Z" fill="#C7B299" stroke="#1A1A1A" stroke-width="0.23431" stroke-miterlimit="10"/>
<path d="M8.58716 29.5233C8.58716 17.5192 17.2354 7.61084 30.49 7.61084C42.8727 7.61084 50.6007 16.2936 50.6007 27.1737C50.6007 39.1754 41.9525 49.0862 28.8021 49.0862C16.366 49.0862 8.5897 40.4034 8.5897 29.5233H8.58716ZM29.0055 45.9171C39.8018 45.9171 46.7113 37.5921 46.7113 27.3767C46.7113 24.781 46.6579 17.443 41.2152 14.5606C36.3725 11.9979 30.8409 14.8575 30.1621 15.2229C29.0385 14.5987 24.4271 12.1958 19.8742 13.9415C12.3139 16.8392 12.4791 28.28 12.4791 29.3178C12.4791 38.6146 18.7734 45.9171 29.008 45.9171H29.0055Z" fill="#1A1A1A"/>
<path d="M17.4524 35.4733C17.4524 35.8818 22.7019 38.513 29.3012 38.513C35.9005 38.513 41.3483 35.8818 41.3483 35.4733C41.3483 35.0648 35.898 37.0337 29.3012 37.0337C22.7019 37.0337 17.4524 35.0648 17.4524 35.4733Z" fill="#1A1A1A"/>
<path d="M38.3582 33.5427C43.1171 36.0547 48.1759 35.8314 49.6554 33.0403C51.1349 30.2492 48.4759 25.9484 43.717 23.4365C38.9582 20.9245 34.1765 18.6434 32.4199 23.9388C30.5107 29.7037 33.5994 31.0307 38.3582 33.5427Z" fill="#1A1A1A"/>
<path d="M26.356 23.9387C24.602 18.6433 19.8203 20.9218 15.0589 23.4363C10.3 25.9483 7.64097 30.2491 9.12048 33.0402C10.6 35.8312 15.6563 36.0571 20.4177 33.5425C25.1765 31.0306 28.2677 29.7035 26.356 23.9387Z" fill="#1A1A1A"/>
<path d="M29.2718 36.2828C31.5883 36.2828 33.4663 35.0332 33.4663 33.4918C33.4663 31.9503 31.5883 30.7007 29.2718 30.7007C26.9552 30.7007 25.0773 31.9503 25.0773 33.4918C25.0773 35.0332 26.9552 36.2828 29.2718 36.2828Z" fill="#1A1A1A"/>
<path d="M28.1663 34.4862C28.085 34.6689 27.7316 34.7577 27.3808 34.6841C27.03 34.6105 26.8114 34.405 26.8952 34.2223C26.9791 34.0396 27.33 33.9508 27.6808 34.0244C28.0316 34.098 28.2502 34.3035 28.1663 34.4862Z" fill="white"/>
<path d="M30.454 34.4862C30.5353 34.6689 30.8887 34.7577 31.2395 34.6841C31.5903 34.6105 31.8089 34.405 31.725 34.2223C31.6411 34.0396 31.2903 33.9508 30.9395 34.0244C30.5887 34.098 30.3701 34.3035 30.454 34.4862Z" fill="white"/>
<path d="M23.9017 26.6053C23.9017 28.1785 22.623 29.4548 21.0469 29.4548C19.4708 29.4548 18.1921 28.1785 18.1921 26.6053C18.1921 25.0322 19.3056 25.2453 20.8817 25.2453C22.4578 25.2453 23.8992 25.0296 23.8992 26.6053H23.9017Z" fill="white" stroke="#1A1A1A" stroke-width="0.23431" stroke-miterlimit="10"/>
<path d="M21.0462 28.6275C22.1652 28.6275 23.0723 27.7221 23.0723 26.6053C23.0723 25.4884 22.1652 24.583 21.0462 24.583C19.9272 24.583 19.0201 25.4884 19.0201 26.6053C19.0201 27.7221 19.9272 28.6275 21.0462 28.6275Z" fill="#1A1A1A" stroke="#1A1A1A" stroke-width="0.23431" stroke-miterlimit="10"/>
<path d="M19.9411 26.6968C20.1952 26.6968 20.4012 26.4912 20.4012 26.2376C20.4012 25.9839 20.1952 25.7783 19.9411 25.7783C19.687 25.7783 19.481 25.9839 19.481 26.2376C19.481 26.4912 19.687 26.6968 19.9411 26.6968Z" fill="white"/>
<path d="M40.6781 26.6053C40.6781 28.1785 39.3994 29.4548 37.8233 29.4548C36.2472 29.4548 34.9685 28.1785 34.9685 26.6053C34.9685 25.0322 36.2472 25.2453 37.8233 25.2453C39.3994 25.2453 40.6781 25.0296 40.6781 26.6053Z" fill="white" stroke="black" stroke-width="0.23431" stroke-miterlimit="10"/>
<path d="M37.8244 28.6275C38.9434 28.6275 39.8505 27.7221 39.8505 26.6053C39.8505 25.4884 38.9434 24.583 37.8244 24.583C36.7054 24.583 35.7983 25.4884 35.7983 26.6053C35.7983 27.7221 36.7054 28.6275 37.8244 28.6275Z" fill="#1A1A1A" stroke="#1A1A1A" stroke-width="0.23431" stroke-miterlimit="10"/>
<path d="M36.7174 26.6968C36.9716 26.6968 37.1776 26.4912 37.1776 26.2376C37.1776 25.9839 36.9716 25.7783 36.7174 25.7783C36.4633 25.7783 36.2573 25.9839 36.2573 26.2376C36.2573 26.4912 36.4633 26.6968 36.7174 26.6968Z" fill="white"/>
<path d="M29.7603 16.1299C29.8104 16.1711 29.8611 16.2315 29.8573 16.3102C29.8573 16.3102 29.8573 16.3102 29.8573 16.3102L29.7637 16.3057C29.7533 16.5231 28.839 16.6433 27.3072 16.8447C25.1052 17.1341 21.6272 17.5913 17.7241 18.7461L29.7603 16.1299ZM29.7603 16.1299C29.7071 16.0863 29.6329 16.0461 29.5439 16.0085M29.7603 16.1299L29.5439 16.0085M29.5439 16.0085C29.3649 15.9328 29.1051 15.8593 28.7776 15.7927M29.5439 16.0085L28.7776 15.7927M28.7776 15.7927C28.1212 15.6592 27.1773 15.5502 26.0257 15.5114M28.7776 15.7927L26.0257 15.5114M26.0257 15.5114C23.722 15.434 20.5789 15.6375 17.2298 16.4939M26.0257 15.5114L17.2298 16.4939M17.2298 16.4939C13.8803 17.3499 10.543 18.2882 8.24893 19.2723M17.2298 16.4939L8.24893 19.2723M8.24893 19.2723C7.10404 19.7635 6.20689 20.271 5.69992 20.7932M8.24893 19.2723L5.69992 20.7932M5.69992 20.7932C5.44571 21.0551 5.28223 21.3281 5.2424 21.6118M5.69992 20.7932L5.2424 21.6118M5.2424 21.6118C5.20209 21.8989 5.29048 22.1819 5.50975 22.4561L5.2424 21.6118Z" fill="#847B7B" stroke="#1A1A1A" stroke-width="0.187448" stroke-miterlimit="10"/>
<path d="M30.0431 17.3767L30.072 17.3757L30.0697 17.2829C30.0677 17.2042 30.0132 17.1475 29.9601 17.11C29.9041 17.0703 29.8273 17.0357 29.7361 17.0049C29.5527 16.9429 29.2893 16.8892 28.959 16.8477C28.2973 16.7645 27.3516 16.728 26.2047 16.778C23.9105 16.8779 20.8027 17.3238 17.5372 18.4397C14.2816 19.5521 11.0333 20.7488 8.82151 21.9116C7.71763 22.4919 6.86043 23.0695 6.39206 23.6315C6.15723 23.9132 6.01344 24.199 5.99321 24.4857C5.97273 24.7759 6.07985 25.0524 6.31706 25.3101L6.31711 25.3101C6.52233 25.5327 6.75666 25.6714 7.02373 25.7346C7.2893 25.7974 7.58142 25.7843 7.90152 25.7133C8.53865 25.5718 9.30859 25.1951 10.2406 24.6877C10.569 24.5089 10.9187 24.3133 11.2912 24.1049C13.0393 23.1267 15.2907 21.8669 18.2205 20.7426L18.2205 20.7426C21.4315 19.5094 24.3761 18.8013 26.5181 18.3348C26.9021 18.2511 27.2609 18.1751 27.5911 18.1052C28.1802 17.9804 28.6781 17.875 29.0646 17.78C29.3659 17.706 29.6055 17.637 29.7707 17.5682C29.8528 17.534 29.9225 17.4974 29.9729 17.4566C29.9994 17.4351 30.0252 17.4086 30.0431 17.3767Z" fill="#847B7B" stroke="#1A1A1A" stroke-width="0.187448" stroke-miterlimit="10"/>
<path d="M29.9415 18.0469C29.9318 17.9689 29.8722 17.9179 29.8156 17.8858M29.9415 18.0469L29.8485 18.0585M29.9415 18.0469C29.9415 18.0469 29.9415 18.0469 29.9415 18.0469L29.8485 18.0585M29.9415 18.0469C29.9509 18.1222 29.9106 18.1842 29.8661 18.2292C29.8204 18.2753 29.7551 18.3193 29.6773 18.3622C29.5209 18.4486 29.2908 18.5432 29.0003 18.6493C28.6274 18.7855 28.1455 18.9441 27.5752 19.1318C27.2559 19.2369 26.9089 19.3511 26.5379 19.4755C24.4667 20.1704 21.6263 21.1921 18.5755 22.7665C15.7928 24.2026 13.695 25.7014 12.0659 26.8653C11.7181 27.1137 11.3918 27.3469 11.0846 27.561C10.2146 28.1674 9.49139 28.6259 8.87536 28.8351C8.56584 28.9402 8.27791 28.9844 8.00836 28.9498C7.73725 28.9149 7.49092 28.801 7.26489 28.6002M29.8156 17.8858L29.8485 18.0585M29.8156 17.8858C29.756 17.852 29.6764 17.8256 29.583 17.8045C29.3951 17.762 29.129 17.7365 28.7981 17.7302C28.1349 17.7175 27.1956 17.7818 26.066 17.9539C23.8063 18.2981 20.777 19.0749 17.6605 20.5381C14.5422 22.001 11.4508 23.5437 9.38439 24.9409C8.35305 25.6383 7.56634 26.3063 7.16256 26.9172C6.96011 27.2236 6.84828 27.5239 6.85845 27.812C6.86875 28.1035 7.00345 28.368 7.26489 28.6002M29.8156 17.8858L7.32713 28.5301M29.8485 18.0585C29.8756 18.2761 29.0057 18.5624 27.5482 19.042C25.4516 19.732 22.1392 20.822 18.5325 22.6832C15.7432 24.1227 13.6392 25.626 12.0101 26.79C9.68646 28.4501 8.32892 29.4201 7.32713 28.5301M7.26489 28.6002L7.32713 28.5301M7.26489 28.6002C7.26488 28.6002 7.26488 28.6002 7.26488 28.6002L7.32713 28.5301" fill="#847B7B" stroke="#1A1A1A" stroke-width="0.187448" stroke-miterlimit="10"/>
<path d="M11.6466 19.8628C12.9169 18.6004 14.2518 17.2086 14.5043 15.282C13.6979 16.1278 12.838 16.9131 11.9325 17.6334C12.2818 16.9729 12.3344 16.1116 12.0712 15.333C11.245 16.7145 10.1938 17.919 8.96907 18.8847C9.18096 18.2508 9.08122 17.4708 8.71297 16.8488C8.02714 18.6801 6.84429 20.2351 5.33588 21.2965C5.7399 20.9844 5.94897 20.4139 5.87219 19.8446C5.07272 20.8795 4.27049 21.9167 3.47102 22.9515C3.84608 22.4995 3.93585 21.7712 3.67927 21.1561C2.84801 22.1144 2.00662 23.0719 1.17536 24.0302C1.22009 23.7132 0.641943 23.1294 0.686451 22.8149C-0.0091711 25.063 -0.473415 27.6516 -2.15392 29.088C-2.8895 30.1818 -1.94703 26.8571 -1.82019 26.0224C-3.03474 27.2589 -3.46138 29.3134 -4.59434 30.6408C-4.65375 30.7097 -4.67666 30.7994 -4.73207 30.8813C-6.07953 32.9036 -6.9348 33.3022 -7.13399 34.5993C-7.34532 35.9794 -7.83179 37.9269 -7.84293 39.2628C-7.85956 41.1152 -7.37857 43.4478 -6.55601 44.7601C-3.88848 41.1894 8.07361 32.4043 11.9954 32.5787C10.841 31.7806 9.47131 31.415 8.20088 31.5645C9.69296 30.9067 11.3718 30.6644 13.0541 30.8629C11.9392 30.2312 10.6702 30.0014 9.51858 30.2247C11.0157 29.3865 12.7975 29.074 14.5715 29.3338C13.2753 28.7936 11.9109 28.5176 10.5779 28.532C12.0209 27.1289 13.7511 26.0685 15.6397 25.4289C14.1734 24.4873 12.4591 24.095 10.8891 24.3465C12.1021 23.7007 13.4427 23.2948 14.8348 23.1555C13.4421 22.2481 11.8084 21.8678 10.3111 22.1051C11.5815 21.1432 14.0398 21.5476 15.6279 21.2925C14.6449 20.458 12.2945 21.0992 10.8534 20.7938C12.0777 20.406 13.9053 19.1298 15.2226 18.9995C14.6093 18.3797 12.408 19.7592 11.6388 19.8647" fill="#C7B299"/>
<path d="M11.7086 19.9368C13.0265 18.625 14.3282 17.2024 14.6 15.2901C14.6117 15.2122 14.4997 15.1492 14.4436 15.2081C13.6376 16.0489 12.7802 16.8344 11.8718 17.5596L12.0236 17.6641C12.3921 16.9288 12.4121 16.0902 12.1667 15.3131C12.1446 15.2425 12.0412 15.1981 11.9938 15.2756C11.1777 16.6273 10.145 17.8258 8.90858 18.8083L9.06045 18.9129C9.27898 18.2006 9.16675 17.4475 8.80042 16.8028C8.7604 16.7332 8.6559 16.732 8.62371 16.8107C7.95402 18.5721 6.81509 20.1206 5.27307 21.2174L5.39597 21.3627C5.85708 20.9791 6.02561 20.4051 5.96279 19.8218C5.95487 19.7345 5.83835 19.7247 5.78993 19.7842C4.99046 20.8191 4.18824 21.8563 3.38876 22.8911L3.54527 23.0012C3.96647 22.4563 4.00683 21.739 3.76145 21.1122C3.73451 21.0386 3.63929 21.0484 3.5968 21.0982C2.76532 22.0591 1.9269 23.0117 1.09289 23.9724L1.26613 24.0354C1.28464 23.5761 0.757679 23.2615 0.777221 22.8201C0.780724 22.7185 0.62646 22.6724 0.591918 22.7789C0.0565163 24.5212 -0.289915 26.4118 -1.30619 27.958C-1.56084 28.3438 -1.86269 28.6544 -2.18651 28.9835C-2.24802 29.047 -2.31546 29.1202 -2.36494 29.1924C-2.39688 29.2381 -2.33498 29.2001 -2.33205 29.2258C-2.33476 29.1975 -2.34739 29.1659 -2.34229 29.1358C-2.30278 28.9405 -2.30548 28.7315 -2.26829 28.5334C-2.21536 28.24 -2.15252 27.9499 -2.08693 27.6576C-1.96445 27.1154 -1.81643 26.5728 -1.72899 26.0225C-1.71728 25.9446 -1.8293 25.8816 -1.88532 25.9405C-2.89001 26.9886 -3.32114 28.4035 -4.03051 29.6395C-4.2042 29.9431 -4.40173 30.2269 -4.61677 30.5066C-4.85486 30.8174 -5.04507 31.1655 -5.27874 31.4843C-5.65641 31.9973 -6.07204 32.4764 -6.46384 32.9754C-6.73829 33.324 -6.98912 33.6949 -7.12475 34.1214C-7.30574 34.6917 -7.35358 35.3166 -7.46704 35.9029C-7.74241 37.3463 -8.01607 38.7695 -7.90641 40.2455C-7.79676 41.7216 -7.46408 43.4559 -6.64598 44.7907C-6.60785 44.8525 -6.52743 44.867 -6.48133 44.8047C-5.76239 43.847 -4.86795 43.0163 -3.97905 42.2207C-2.76426 41.1319 -1.49107 40.1066 -0.188374 39.1246C2.50682 37.0943 5.35348 35.143 8.41654 33.7091C9.49761 33.2049 10.7593 32.6166 11.9826 32.6617C12.0742 32.6643 12.1278 32.5441 12.0457 32.4888C10.9069 31.7175 9.55609 31.3102 8.17864 31.4583L8.23732 31.639C9.7522 30.983 11.4035 30.7639 13.0413 30.9459C13.13 30.9535 13.1897 30.821 13.1044 30.773C12.0005 30.1626 10.7451 29.8932 9.49634 30.1185L9.55502 30.2991C11.0855 29.4586 12.8341 29.1764 14.5585 29.4193C14.6696 29.4338 14.6957 29.2756 14.5997 29.2344C13.3227 28.7085 11.9644 28.4203 10.5812 28.4253L10.6359 28.5929C12.0725 27.2046 13.7869 26.1505 15.6788 25.5011C15.7471 25.4788 15.7485 25.372 15.6928 25.3367C14.2592 24.4309 12.5597 23.9839 10.8697 24.238L10.9283 24.4187C12.1512 23.7762 13.4756 23.3816 14.8503 23.2358C14.9326 23.2275 14.953 23.107 14.8879 23.0633C13.5256 22.189 11.9065 21.7565 10.2916 21.9965L10.3693 22.1635C11.1199 21.616 12.1236 21.5431 13.0221 21.5072C13.9206 21.4713 14.7749 21.5055 15.6409 21.3726C15.7262 21.3595 15.7379 21.251 15.6784 21.2001C15.0837 20.7219 14.2314 20.7235 13.5086 20.7336C12.6299 20.7457 11.7275 20.8577 10.8569 20.6846L10.89 20.8657C12.3674 20.3823 13.6641 19.2596 15.2358 19.0771C15.3027 19.07 15.3445 18.9691 15.2924 18.9214C14.8618 18.5234 14.1257 18.8098 13.6547 18.9787C12.9888 19.2203 12.3203 19.6424 11.6193 19.7561C11.4977 19.7764 11.5329 19.9627 11.6546 19.9424C12.2312 19.8512 12.7839 19.5314 13.3176 19.3143C13.6427 19.1814 13.9724 19.054 14.3132 18.976C14.5681 18.9186 14.9313 18.8475 15.1466 19.0466L15.2031 18.8909C13.6109 19.0743 12.3032 20.2062 10.8103 20.6934C10.7106 20.7257 10.7632 20.8575 10.8434 20.8745C11.6538 21.0348 12.4929 20.948 13.311 20.9282C14.0499 20.9093 14.9617 20.8669 15.5708 21.3565L15.6084 21.184C14.6622 21.3304 13.695 21.2739 12.7411 21.3306C11.8795 21.3824 10.9642 21.4958 10.249 22.0184C10.1674 22.0777 10.2388 22.1983 10.3267 22.1854C11.8875 21.9509 13.4589 22.3744 14.7777 23.2195L14.8153 23.047C13.4251 23.194 12.0824 23.5946 10.846 24.2462C10.7499 24.2966 10.7961 24.4431 10.9047 24.4268C12.543 24.1811 14.1925 24.6163 15.5826 25.4929L15.5965 25.3286C13.6915 25.982 11.9608 27.0475 10.5132 28.445C10.4604 28.4966 10.4786 28.6127 10.5679 28.6126C11.9357 28.6089 13.2742 28.8903 14.5364 29.4098L14.5776 29.2248C12.8227 28.9794 11.0328 29.2683 9.47543 30.1243C9.38438 30.1752 9.42283 30.3236 9.53411 30.305C10.7312 30.0881 11.942 30.341 12.997 30.9269L13.0601 30.754C11.3896 30.5666 9.70176 30.7954 8.15773 31.4642C8.05444 31.5089 8.11359 31.6539 8.21641 31.6448C9.5396 31.5048 10.8452 31.9032 11.9381 32.6452L12.0012 32.4723C10.9457 32.4337 9.87085 32.8647 8.92036 33.2731C7.4718 33.899 6.08892 34.6833 4.74842 35.5093C1.77418 37.3403 -1.07835 39.421 -3.70463 41.722C-4.74356 42.6321 -5.80133 43.584 -6.63509 44.6924L-6.47044 44.7063C-7.19921 43.5216 -7.51579 42.0789 -7.66801 40.7139C-7.83133 39.269 -7.64872 37.8966 -7.38056 36.4781C-7.17274 35.3803 -7.13054 34.1896 -6.44498 33.2648C-6.11341 32.8142 -5.73881 32.3977 -5.39522 31.9557C-5.16305 31.6546 -4.93046 31.3483 -4.72212 31.0273C-4.52859 30.7305 -4.31608 30.4506 -4.12277 30.1563C-3.2592 28.8467 -2.86476 27.2326 -1.75967 26.0836L-1.916 26.0016C-2.00538 26.5746 -2.16292 27.1393 -2.28754 27.7068C-2.35717 28.0166 -2.42447 28.3292 -2.47658 28.6431C-2.50445 28.8216 -2.56808 29.0606 -2.51953 29.2404C-2.49054 29.3498 -2.42475 29.4165 -2.3067 29.3782C-2.25157 29.3599 -2.21118 29.3048 -2.17461 29.2646C-2.02876 29.1089 -1.87573 28.9589 -1.73009 28.8057C-1.06845 28.1029 -0.631642 27.2232 -0.292978 26.3275C0.137604 25.1901 0.419417 24.0019 0.775508 22.8403L0.590204 22.7992C0.571696 23.2585 1.09866 23.5731 1.07912 24.0145C1.07583 24.1135 1.19042 24.1462 1.25236 24.0776C2.08383 23.1167 2.92226 22.1641 3.75627 21.2034L3.59162 21.1895C3.81153 21.7556 3.76725 22.3986 3.39151 22.8888C3.31687 22.9869 3.47359 23.0944 3.54802 22.9988C4.34749 21.964 5.14971 20.9268 5.94919 19.8919L5.77634 19.8544C5.83207 20.3709 5.67945 20.8775 5.27328 21.2148C5.17734 21.2933 5.29835 21.4309 5.39618 21.3602C6.96271 20.2452 8.11984 18.6626 8.80202 16.8742L8.62532 16.8822C8.96489 17.4813 9.08161 18.1813 8.87729 18.8464C8.84931 18.9357 8.95245 19.0132 9.02916 18.951C10.2768 17.9566 11.3235 16.7441 12.1482 15.3803L11.9754 15.3428C12.2105 16.091 12.1966 16.8868 11.8409 17.5926C11.795 17.6829 11.9243 17.7524 11.9928 17.6971C12.9012 16.972 13.7612 16.1867 14.5646 15.3457L14.4083 15.2637C14.1438 17.1205 12.863 18.5068 11.584 19.7811C11.4976 19.868 11.6205 20.0134 11.7069 19.9265L11.7086 19.9368Z" fill="#1A1A1A"/>
</g>
</g>
<g clip-path="url(#clip1_240_1061)">
<rect x="66.5" y="0.347168" width="518" height="102" rx="12" fill="#161616"/>
<rect x="66.5" y="0.347168" width="518" height="50" fill="#222222"/>
<rect x="66.5" y="0.347168" width="518" height="50" stroke="#3D3D3D"/>
<path d="M83.4993 30.8472V23.2108H84.9261V24.4537H85.0206C85.1797 24.0328 85.4399 23.7046 85.8011 23.4693C86.1624 23.2307 86.5949 23.1114 87.0987 23.1114C87.6091 23.1114 88.0367 23.2307 88.3814 23.4693C88.7294 23.708 88.9863 24.0361 89.152 24.4537H89.2315C89.4138 24.046 89.7038 23.7212 90.1016 23.4793C90.4993 23.234 90.9732 23.1114 91.5234 23.1114C92.2161 23.1114 92.7812 23.3285 93.2188 23.7627C93.6596 24.1968 93.88 24.8514 93.88 25.7264V30.8472H92.3935V25.8656C92.3935 25.3486 92.2526 24.9741 91.9709 24.7421C91.6892 24.51 91.3527 24.394 90.9616 24.394C90.4777 24.394 90.1016 24.5432 89.8331 24.8415C89.5646 25.1365 89.4304 25.516 89.4304 25.98V30.8472H87.9489V25.7712C87.9489 25.3569 87.8196 25.0238 87.5611 24.7719C87.3026 24.52 86.9661 24.394 86.5518 24.394C86.2701 24.394 86.0099 24.4686 85.7713 24.6178C85.536 24.7636 85.3454 24.9674 85.1996 25.2293C85.0571 25.4911 84.9858 25.7944 84.9858 26.1391V30.8472H83.4993ZM98.0946 31.0162C97.6107 31.0162 97.1732 30.9267 96.7821 30.7477C96.391 30.5654 96.0811 30.302 95.8525 29.9573C95.6271 29.6126 95.5144 29.19 95.5144 28.6895C95.5144 28.2586 95.5972 27.904 95.763 27.6256C95.9287 27.3472 96.1524 27.1268 96.4341 26.9644C96.7158 26.802 97.0307 26.6793 97.3787 26.5965C97.7267 26.5136 98.0814 26.4506 98.4426 26.4075C98.9 26.3545 99.2712 26.3114 99.5563 26.2783C99.8413 26.2418 100.048 26.1838 100.178 26.1043C100.307 26.0247 100.372 25.8955 100.372 25.7165V25.6817C100.372 25.2475 100.249 24.9111 100.004 24.6725C99.7618 24.4338 99.4005 24.3145 98.9199 24.3145C98.4194 24.3145 98.025 24.4255 97.7367 24.6476C97.4516 24.8663 97.2544 25.11 97.1451 25.3784L95.748 25.0602C95.9138 24.5962 96.1557 24.2217 96.4739 23.9367C96.7954 23.6483 97.165 23.4395 97.5826 23.3102C98.0002 23.1777 98.4393 23.1114 98.9 23.1114C99.205 23.1114 99.5281 23.1478 99.8695 23.2207C100.214 23.2903 100.536 23.4196 100.834 23.6085C101.136 23.7975 101.383 24.0676 101.575 24.4189C101.767 24.7669 101.863 25.2193 101.863 25.7761V30.8472H100.411V29.8031H100.352C100.256 29.9954 100.111 30.1843 99.9192 30.3699C99.727 30.5555 99.4801 30.7096 99.1784 30.8323C98.8768 30.9549 98.5156 31.0162 98.0946 31.0162ZM98.4178 29.823C98.8288 29.823 99.1801 29.7418 99.4718 29.5794C99.7667 29.417 99.9905 29.2049 100.143 28.943C100.299 28.6779 100.377 28.3945 100.377 28.0929V27.1085C100.324 27.1616 100.221 27.2113 100.068 27.2577C99.9192 27.3008 99.7485 27.3389 99.5563 27.372C99.3641 27.4019 99.1768 27.43 98.9945 27.4565C98.8122 27.4797 98.6597 27.4996 98.5371 27.5162C98.2488 27.5527 97.9853 27.614 97.7466 27.7002C97.5113 27.7863 97.3224 27.9106 97.1799 28.073C97.0407 28.2321 96.9711 28.4442 96.9711 28.7094C96.9711 29.0773 97.1069 29.3557 97.3787 29.5446C97.6505 29.7302 97.9969 29.823 98.4178 29.823ZM103.843 30.8472V23.2108H105.33V30.8472H103.843ZM104.594 22.0325C104.335 22.0325 104.113 21.9464 103.928 21.774C103.745 21.5984 103.654 21.3895 103.654 21.1476C103.654 20.9023 103.745 20.6935 103.928 20.5212C104.113 20.3455 104.335 20.2577 104.594 20.2577C104.852 20.2577 105.073 20.3455 105.255 20.5212C105.441 20.6935 105.533 20.9023 105.533 21.1476C105.533 21.3895 105.441 21.5984 105.255 21.774C105.073 21.9464 104.852 22.0325 104.594 22.0325ZM108.816 26.3131V30.8472H107.329V23.2108H108.756V24.4537H108.851C109.026 24.0493 109.301 23.7245 109.676 23.4793C110.054 23.234 110.529 23.1114 111.103 23.1114C111.623 23.1114 112.079 23.2207 112.47 23.4395C112.861 23.6549 113.164 23.9764 113.38 24.404C113.595 24.8315 113.703 25.3602 113.703 25.9899V30.8472H112.216V26.1689C112.216 25.6154 112.072 25.1829 111.784 24.8713C111.496 24.5564 111.099 24.399 110.596 24.399C110.251 24.399 109.944 24.4736 109.676 24.6227C109.411 24.7719 109.2 24.9906 109.045 25.279C108.892 25.564 108.816 25.9087 108.816 26.3131ZM119.261 23.2108V24.404H115.09V23.2108H119.261ZM116.209 21.3813H117.695V28.605C117.695 28.8933 117.738 29.1104 117.824 29.2563C117.911 29.3988 118.022 29.4966 118.157 29.5496C118.297 29.5993 118.448 29.6242 118.61 29.6242C118.729 29.6242 118.834 29.6159 118.923 29.5993C119.013 29.5827 119.082 29.5695 119.132 29.5595L119.4 30.7875C119.314 30.8207 119.192 30.8538 119.032 30.8869C118.873 30.9234 118.675 30.9433 118.436 30.9466C118.045 30.9532 117.68 30.8836 117.342 30.7378C117.004 30.592 116.731 30.3666 116.522 30.0617C116.313 29.7567 116.209 29.3739 116.209 28.9132V21.3813ZM123.128 31.0162C122.644 31.0162 122.206 30.9267 121.815 30.7477C121.424 30.5654 121.114 30.302 120.886 29.9573C120.66 29.6126 120.548 29.19 120.548 28.6895C120.548 28.2586 120.63 27.904 120.796 27.6256C120.962 27.3472 121.186 27.1268 121.467 26.9644C121.749 26.802 122.064 26.6793 122.412 26.5965C122.76 26.5136 123.115 26.4506 123.476 26.4075C123.933 26.3545 124.304 26.3114 124.589 26.2783C124.875 26.2418 125.082 26.1838 125.211 26.1043C125.34 26.0247 125.405 25.8955 125.405 25.7165V25.6817C125.405 25.2475 125.282 24.9111 125.037 24.6725C124.795 24.4338 124.434 24.3145 123.953 24.3145C123.453 24.3145 123.058 24.4255 122.77 24.6476C122.485 24.8663 122.288 25.11 122.178 25.3784L120.781 25.0602C120.947 24.5962 121.189 24.2217 121.507 23.9367C121.829 23.6483 122.198 23.4395 122.616 23.3102C123.033 23.1777 123.473 23.1114 123.933 23.1114C124.238 23.1114 124.561 23.1478 124.903 23.2207C125.247 23.2903 125.569 23.4196 125.867 23.6085C126.169 23.7975 126.416 24.0676 126.608 24.4189C126.8 24.7669 126.896 25.2193 126.896 25.7761V30.8472H125.445V29.8031H125.385C125.289 29.9954 125.145 30.1843 124.952 30.3699C124.76 30.5555 124.513 30.7096 124.212 30.8323C123.91 30.9549 123.549 31.0162 123.128 31.0162ZM123.451 29.823C123.862 29.823 124.213 29.7418 124.505 29.5794C124.8 29.417 125.024 29.2049 125.176 28.943C125.332 28.6779 125.41 28.3945 125.41 28.0929V27.1085C125.357 27.1616 125.254 27.2113 125.102 27.2577C124.952 27.3008 124.782 27.3389 124.589 27.372C124.397 27.4019 124.21 27.43 124.028 27.4565C123.845 27.4797 123.693 27.4996 123.57 27.5162C123.282 27.5527 123.018 27.614 122.78 27.7002C122.545 27.7863 122.356 27.9106 122.213 28.073C122.074 28.2321 122.004 28.4442 122.004 28.7094C122.004 29.0773 122.14 29.3557 122.412 29.5446C122.684 29.7302 123.03 29.823 123.451 29.823ZM128.876 30.8472V23.2108H130.363V30.8472H128.876ZM129.627 22.0325C129.368 22.0325 129.146 21.9464 128.961 21.774C128.778 21.5984 128.687 21.3895 128.687 21.1476C128.687 20.9023 128.778 20.6935 128.961 20.5212C129.146 20.3455 129.368 20.2577 129.627 20.2577C129.885 20.2577 130.106 20.3455 130.288 20.5212C130.474 20.6935 130.567 20.9023 130.567 21.1476C130.567 21.3895 130.474 21.5984 130.288 21.774C130.106 21.9464 129.885 22.0325 129.627 22.0325ZM133.849 26.3131V30.8472H132.363V23.2108H133.789V24.4537H133.884C134.06 24.0493 134.335 23.7245 134.709 23.4793C135.087 23.234 135.563 23.1114 136.136 23.1114C136.656 23.1114 137.112 23.2207 137.503 23.4395C137.894 23.6549 138.198 23.9764 138.413 24.404C138.628 24.8315 138.736 25.3602 138.736 25.9899V30.8472H137.25V26.1689C137.25 25.6154 137.105 25.1829 136.817 24.8713C136.529 24.5564 136.133 24.399 135.629 24.399C135.284 24.399 134.978 24.4736 134.709 24.6227C134.444 24.7719 134.234 24.9906 134.078 25.279C133.925 25.564 133.849 25.9087 133.849 26.3131ZM144.021 31.0013C143.269 31.0013 142.621 30.8405 142.077 30.519C141.537 30.1942 141.119 29.7385 140.824 29.1519C140.533 28.5619 140.387 27.8708 140.387 27.0787C140.387 26.2965 140.533 25.6071 140.824 25.0105C141.119 24.4139 141.53 23.9483 142.057 23.6135C142.587 23.2787 143.207 23.1114 143.917 23.1114C144.347 23.1114 144.765 23.1826 145.169 23.3252C145.574 23.4677 145.937 23.6914 146.258 23.9963C146.58 24.3012 146.833 24.6973 147.019 25.1845C147.204 25.6684 147.297 26.2567 147.297 26.9494V27.4764H141.227V26.3628H145.841C145.841 25.9717 145.761 25.6253 145.602 25.3237C145.443 25.0188 145.219 24.7785 144.931 24.6028C144.646 24.4272 144.311 24.3394 143.926 24.3394C143.509 24.3394 143.144 24.4421 142.833 24.6476C142.525 24.8498 142.286 25.1149 142.117 25.443C141.951 25.7679 141.868 26.1208 141.868 26.502V27.372C141.868 27.8824 141.958 28.3166 142.137 28.6746C142.319 29.0325 142.573 29.306 142.897 29.4949C143.222 29.6805 143.602 29.7733 144.036 29.7733C144.318 29.7733 144.574 29.7335 144.806 29.654C145.038 29.5711 145.239 29.4485 145.408 29.2861C145.577 29.1237 145.706 28.9232 145.796 28.6845L147.203 28.9381C147.09 29.3524 146.888 29.7153 146.596 30.0269C146.308 30.3351 145.945 30.5754 145.507 30.7477C145.073 30.9168 144.578 31.0013 144.021 31.0013ZM148.947 30.8472V23.2108H150.383V24.4239H150.463C150.602 24.0129 150.847 23.6897 151.199 23.4544C151.553 23.2158 151.954 23.0965 152.402 23.0965C152.495 23.0965 152.604 23.0998 152.73 23.1064C152.859 23.113 152.96 23.1213 153.033 23.1313V24.5531C152.974 24.5366 152.867 24.5183 152.715 24.4984C152.563 24.4752 152.41 24.4636 152.258 24.4636C151.906 24.4636 151.593 24.5382 151.318 24.6874C151.046 24.8332 150.831 25.037 150.672 25.2989C150.513 25.5574 150.433 25.8524 150.433 26.1838V30.8472H148.947Z" fill="white"/>
<path d="M167.378 30.4949C166.713 30.4949 166.141 30.3379 165.661 30.024C165.18 29.7101 164.811 29.2777 164.553 28.7268C164.294 28.1759 164.165 27.5465 164.165 26.8386C164.165 26.1185 164.297 25.4829 164.562 24.932C164.83 24.3781 165.202 23.9457 165.679 23.6348C166.159 23.3209 166.719 23.1639 167.359 23.1639C167.858 23.1639 168.307 23.2563 168.707 23.4409C169.107 23.6256 169.435 23.8841 169.691 24.2165C169.946 24.5489 170.105 24.9367 170.166 25.3798H169.077C168.994 25.0567 168.809 24.7705 168.523 24.5212C168.24 24.2688 167.858 24.1426 167.378 24.1426C166.953 24.1426 166.581 24.2534 166.261 24.475C165.944 24.6935 165.696 25.0028 165.517 25.4029C165.342 25.7999 165.254 26.2662 165.254 26.8017C165.254 27.3495 165.34 27.8266 165.513 28.2328C165.688 28.6391 165.934 28.9545 166.251 29.1792C166.571 29.4039 166.947 29.5162 167.378 29.5162C167.661 29.5162 167.918 29.467 168.149 29.3685C168.38 29.27 168.575 29.1284 168.735 28.9438C168.895 28.7591 169.009 28.5375 169.077 28.279H170.166C170.105 28.6975 169.952 29.0746 169.709 29.41C169.469 29.7424 169.151 30.0071 168.754 30.2041C168.36 30.3979 167.901 30.4949 167.378 30.4949ZM174.64 30.4949C173.999 30.4949 173.438 30.3426 172.955 30.0379C172.474 29.7332 172.099 29.3069 171.828 28.7591C171.56 28.2113 171.426 27.5711 171.426 26.8386C171.426 26.1 171.56 25.4552 171.828 24.9043C172.099 24.3534 172.474 23.9256 172.955 23.621C173.438 23.3163 173.999 23.1639 174.64 23.1639C175.28 23.1639 175.84 23.3163 176.32 23.621C176.803 23.9256 177.179 24.3534 177.446 24.9043C177.717 25.4552 177.853 26.1 177.853 26.8386C177.853 27.5711 177.717 28.2113 177.446 28.7591C177.179 29.3069 176.803 29.7332 176.32 30.0379C175.84 30.3426 175.28 30.4949 174.64 30.4949ZM174.64 29.5162C175.126 29.5162 175.526 29.3916 175.84 29.1423C176.154 28.893 176.386 28.5652 176.537 28.159C176.688 27.7527 176.763 27.3126 176.763 26.8386C176.763 26.3647 176.688 25.923 176.537 25.5137C176.386 25.1044 176.154 24.7735 175.84 24.5212C175.526 24.2688 175.126 24.1426 174.64 24.1426C174.153 24.1426 173.753 24.2688 173.439 24.5212C173.125 24.7735 172.893 25.1044 172.742 25.5137C172.591 25.923 172.516 26.3647 172.516 26.8386C172.516 27.3126 172.591 27.7527 172.742 28.159C172.893 28.5652 173.125 28.893 173.439 29.1423C173.753 29.3916 174.153 29.5162 174.64 29.5162ZM179.516 30.3472V23.2563H180.568V24.3642H180.661C180.808 23.9857 181.047 23.6917 181.376 23.4825C181.705 23.2701 182.101 23.1639 182.563 23.1639C183.03 23.1639 183.42 23.2701 183.731 23.4825C184.044 23.6917 184.289 23.9857 184.465 24.3642H184.538C184.72 23.998 184.992 23.7071 185.356 23.4917C185.719 23.2732 186.154 23.1639 186.662 23.1639C187.296 23.1639 187.815 23.3624 188.218 23.7595C188.621 24.1534 188.823 24.7674 188.823 25.6014V30.3472H187.733V25.6014C187.733 25.0782 187.59 24.7043 187.304 24.4796C187.017 24.255 186.68 24.1426 186.293 24.1426C185.794 24.1426 185.408 24.2934 185.134 24.595C184.86 24.8936 184.723 25.2721 184.723 25.7307V30.3472H183.615V25.4906C183.615 25.0875 183.484 24.7628 183.223 24.5166C182.961 24.2673 182.624 24.1426 182.212 24.1426C181.929 24.1426 181.664 24.218 181.418 24.3688C181.175 24.5196 180.978 24.7289 180.827 24.9967C180.679 25.2613 180.605 25.5676 180.605 25.9153V30.3472H179.516ZM190.815 30.3472V23.2563H191.867V24.3642H191.959C192.107 23.9857 192.346 23.6917 192.675 23.4825C193.004 23.2701 193.4 23.1639 193.861 23.1639C194.329 23.1639 194.719 23.2701 195.029 23.4825C195.343 23.6917 195.588 23.9857 195.763 24.3642H195.837C196.019 23.998 196.291 23.7071 196.654 23.4917C197.018 23.2732 197.453 23.1639 197.961 23.1639C198.595 23.1639 199.113 23.3624 199.517 23.7595C199.92 24.1534 200.121 24.7674 200.121 25.6014V30.3472H199.032V25.6014C199.032 25.0782 198.889 24.7043 198.603 24.4796C198.316 24.255 197.979 24.1426 197.592 24.1426C197.093 24.1426 196.707 24.2934 196.433 24.595C196.159 24.8936 196.022 25.2721 196.022 25.7307V30.3472H194.914V25.4906C194.914 25.0875 194.783 24.7628 194.522 24.5166C194.26 24.2673 193.923 24.1426 193.511 24.1426C193.227 24.1426 192.963 24.218 192.717 24.3688C192.473 24.5196 192.276 24.7289 192.126 24.9967C191.978 25.2613 191.904 25.5676 191.904 25.9153V30.3472H190.815ZM205.086 30.4949C204.403 30.4949 203.814 30.3441 203.318 30.0425C202.826 29.7378 202.446 29.3131 202.178 28.7683C201.913 28.2205 201.781 27.5834 201.781 26.8571C201.781 26.1308 201.913 25.4906 202.178 24.9367C202.446 24.3796 202.818 23.9457 203.295 23.6348C203.775 23.3209 204.335 23.1639 204.976 23.1639C205.345 23.1639 205.71 23.2255 206.07 23.3486C206.43 23.4717 206.758 23.6717 207.053 23.9487C207.348 24.2226 207.584 24.5858 207.759 25.0382C207.935 25.4906 208.022 26.0477 208.022 26.7094V27.171H202.557V26.2293H206.915C206.915 25.8292 206.834 25.4722 206.674 25.1582C206.517 24.8443 206.293 24.5966 206 24.415C205.711 24.2334 205.37 24.1426 204.976 24.1426C204.542 24.1426 204.166 24.2503 203.849 24.4658C203.535 24.6781 203.294 24.9551 203.124 25.2967C202.955 25.6384 202.87 26.0046 202.87 26.3955V27.0233C202.87 27.5588 202.963 28.0128 203.147 28.3852C203.335 28.7545 203.595 29.0361 203.928 29.23C204.26 29.4208 204.646 29.5162 205.086 29.5162C205.373 29.5162 205.631 29.4762 205.862 29.3962C206.096 29.3131 206.297 29.19 206.467 29.0269C206.636 28.8607 206.767 28.6545 206.859 28.4082L207.912 28.7037C207.801 29.0607 207.615 29.3746 207.353 29.6455C207.091 29.9132 206.768 30.1225 206.384 30.2733C205.999 30.421 205.566 30.4949 205.086 30.4949ZM210.769 26.0815V30.3472H209.68V23.2563H210.732V24.3642H210.825C210.991 24.0041 211.243 23.7148 211.582 23.4963C211.92 23.2747 212.357 23.1639 212.893 23.1639C213.373 23.1639 213.793 23.2624 214.153 23.4594C214.513 23.6533 214.793 23.9487 214.993 24.3457C215.193 24.7397 215.293 25.2383 215.293 25.8415V30.3472H214.204V25.9153C214.204 25.3583 214.059 24.9243 213.77 24.6135C213.481 24.2996 213.084 24.1426 212.579 24.1426C212.231 24.1426 211.92 24.218 211.646 24.3688C211.376 24.5196 211.162 24.7397 211.005 25.029C210.848 25.3183 210.769 25.6691 210.769 26.0815ZM220.368 23.2563V24.1796H216.693V23.2563H220.368ZM217.764 21.5574H218.854V28.3159C218.854 28.6237 218.898 28.8545 218.988 29.0084C219.08 29.1592 219.197 29.2608 219.339 29.3131C219.483 29.3623 219.636 29.3869 219.796 29.3869C219.916 29.3869 220.014 29.3808 220.091 29.3685C220.168 29.3531 220.23 29.3408 220.276 29.3315L220.497 30.3102C220.423 30.3379 220.32 30.3656 220.188 30.3933C220.056 30.4241 219.888 30.4395 219.685 30.4395C219.377 30.4395 219.075 30.3733 218.78 30.241C218.488 30.1086 218.244 29.9071 218.051 29.6362C217.86 29.3654 217.764 29.0238 217.764 28.6114V21.5574ZM224.904 30.4949C224.221 30.4949 223.631 30.3441 223.136 30.0425C222.643 29.7378 222.263 29.3131 221.995 28.7683C221.731 28.2205 221.598 27.5834 221.598 26.8571C221.598 26.1308 221.731 25.4906 221.995 24.9367C222.263 24.3796 222.636 23.9457 223.113 23.6348C223.593 23.3209 224.153 23.1639 224.793 23.1639C225.162 23.1639 225.527 23.2255 225.887 23.3486C226.247 23.4717 226.575 23.6717 226.87 23.9487C227.166 24.2226 227.401 24.5858 227.577 25.0382C227.752 25.4906 227.84 26.0477 227.84 26.7094V27.171H222.374V26.2293H226.732C226.732 25.8292 226.652 25.4722 226.492 25.1582C226.335 24.8443 226.11 24.5966 225.818 24.415C225.529 24.2334 225.187 24.1426 224.793 24.1426C224.359 24.1426 223.984 24.2503 223.667 24.4658C223.353 24.6781 223.111 24.9551 222.942 25.2967C222.772 25.6384 222.688 26.0046 222.688 26.3955V27.0233C222.688 27.5588 222.78 28.0128 222.965 28.3852C223.153 28.7545 223.413 29.0361 223.745 29.23C224.077 29.4208 224.464 29.5162 224.904 29.5162C225.19 29.5162 225.449 29.4762 225.679 29.3962C225.913 29.3131 226.115 29.19 226.284 29.0269C226.453 28.8607 226.584 28.6545 226.676 28.4082L227.729 28.7037C227.618 29.0607 227.432 29.3746 227.17 29.6455C226.909 29.9132 226.586 30.1225 226.201 30.2733C225.816 30.421 225.384 30.4949 224.904 30.4949ZM232.175 30.4949C231.584 30.4949 231.062 30.3456 230.61 30.0471C230.157 29.7455 229.803 29.3208 229.548 28.7729C229.292 28.222 229.165 27.5711 229.165 26.8202C229.165 26.0754 229.292 25.4291 229.548 24.8813C229.803 24.3334 230.159 23.9103 230.614 23.6117C231.07 23.3132 231.596 23.1639 232.193 23.1639C232.655 23.1639 233.02 23.2409 233.287 23.3948C233.558 23.5456 233.764 23.7179 233.906 23.9118C234.051 24.1026 234.163 24.2596 234.243 24.3827H234.335V20.8926H235.425V30.3472H234.372V29.2577H234.243C234.163 29.3869 234.049 29.5501 233.901 29.747C233.754 29.9409 233.543 30.1148 233.269 30.2687C232.995 30.4195 232.63 30.4949 232.175 30.4949ZM232.322 29.5162C232.759 29.5162 233.129 29.4023 233.43 29.1746C233.732 28.9438 233.961 28.6252 234.118 28.219C234.275 27.8096 234.354 27.3372 234.354 26.8017C234.354 26.2724 234.277 25.8092 234.123 25.4122C233.969 25.0121 233.741 24.7012 233.44 24.4796C233.138 24.255 232.766 24.1426 232.322 24.1426C231.861 24.1426 231.476 24.2611 231.168 24.4981C230.864 24.732 230.634 25.0505 230.48 25.4537C230.33 25.8538 230.254 26.3031 230.254 26.8017C230.254 27.3064 230.331 27.765 230.485 28.1774C230.642 28.5868 230.873 28.913 231.178 29.1561C231.485 29.3962 231.867 29.5162 232.322 29.5162ZM244.533 20.8926V30.3472H243.388V22.0929H243.333L241.025 23.6256V22.4622L243.388 20.8926H244.533ZM253.604 30.4949C253.013 30.4949 252.492 30.3456 252.039 30.0471C251.587 29.7455 251.233 29.3208 250.978 28.7729C250.722 28.222 250.594 27.5711 250.594 26.8202C250.594 26.0754 250.722 25.4291 250.978 24.8813C251.233 24.3334 251.589 23.9103 252.044 23.6117C252.5 23.3132 253.026 23.1639 253.623 23.1639C254.085 23.1639 254.449 23.2409 254.717 23.3948C254.988 23.5456 255.194 23.7179 255.336 23.9118C255.48 24.1026 255.593 24.2596 255.673 24.3827H255.765V20.8926H256.854V30.3472H255.802V29.2577H255.673C255.593 29.3869 255.479 29.5501 255.331 29.747C255.183 29.9409 254.972 30.1148 254.699 30.2687C254.425 30.4195 254.06 30.4949 253.604 30.4949ZM253.752 29.5162C254.189 29.5162 254.558 29.4023 254.86 29.1746C255.162 28.9438 255.391 28.6252 255.548 28.219C255.705 27.8096 255.783 27.3372 255.783 26.8017C255.783 26.2724 255.706 25.8092 255.553 25.4122C255.399 25.0121 255.171 24.7012 254.869 24.4796C254.568 24.255 254.195 24.1426 253.752 24.1426C253.29 24.1426 252.906 24.2611 252.598 24.4981C252.293 24.732 252.064 25.0505 251.91 25.4537C251.759 25.8538 251.684 26.3031 251.684 26.8017C251.684 27.3064 251.761 27.765 251.915 28.1774C252.072 28.5868 252.303 28.913 252.607 29.1561C252.915 29.3962 253.297 29.5162 253.752 29.5162ZM261.088 30.5134C260.638 30.5134 260.231 30.4287 259.864 30.2595C259.498 30.0871 259.207 29.8394 258.992 29.5162C258.776 29.19 258.669 28.796 258.669 28.3344C258.669 27.9281 258.749 27.5988 258.909 27.3465C259.069 27.091 259.283 26.891 259.55 26.7463C259.818 26.6017 260.114 26.4939 260.437 26.4232C260.763 26.3493 261.091 26.2908 261.42 26.2477C261.851 26.1923 262.2 26.1508 262.468 26.1231C262.739 26.0923 262.936 26.0415 263.059 25.9707C263.185 25.9 263.248 25.7769 263.248 25.6014V25.5645C263.248 25.109 263.124 24.7551 262.874 24.5027C262.628 24.2503 262.254 24.1242 261.752 24.1242C261.232 24.1242 260.825 24.238 260.529 24.4658C260.234 24.6935 260.026 24.9367 259.906 25.1952L258.872 24.8259C259.056 24.395 259.303 24.0595 259.61 23.8195C259.921 23.5763 260.26 23.4071 260.626 23.3117C260.995 23.2132 261.359 23.1639 261.716 23.1639C261.943 23.1639 262.205 23.1916 262.5 23.247C262.799 23.2993 263.087 23.4086 263.364 23.5748C263.644 23.741 263.876 23.9918 264.061 24.3273C264.245 24.6627 264.338 25.1121 264.338 25.6753V30.3472H263.248V29.3869H263.193C263.119 29.5408 262.996 29.7055 262.824 29.8809C262.651 30.0563 262.422 30.2056 262.136 30.3287C261.849 30.4518 261.5 30.5134 261.088 30.5134ZM261.254 29.5347C261.685 29.5347 262.048 29.45 262.343 29.2808C262.642 29.1115 262.867 28.893 263.017 28.6252C263.171 28.3575 263.248 28.0759 263.248 27.7804V26.7832C263.202 26.8386 263.1 26.8894 262.944 26.9356C262.79 26.9787 262.611 27.0171 262.408 27.051C262.208 27.0818 262.013 27.1095 261.822 27.1341C261.634 27.1556 261.482 27.1741 261.365 27.1895C261.082 27.2264 260.817 27.2864 260.571 27.3695C260.328 27.4496 260.131 27.5711 259.98 27.7342C259.832 27.8943 259.758 28.1128 259.758 28.3898C259.758 28.7683 259.898 29.0546 260.178 29.2484C260.461 29.4393 260.82 29.5347 261.254 29.5347ZM266.774 33.0063C266.589 33.0063 266.425 32.9909 266.28 32.9601C266.135 32.9324 266.035 32.9047 265.98 32.877L266.257 31.9168C266.522 31.9845 266.756 32.0091 266.959 31.9906C267.162 31.9722 267.342 31.8814 267.499 31.7183C267.659 31.5582 267.805 31.2982 267.937 30.9381L268.141 30.3841L265.518 23.2563H266.7L268.658 28.9068H268.731L270.689 23.2563H271.871L268.861 31.3813C268.725 31.7475 268.558 32.0506 268.358 32.2907C268.157 32.5338 267.925 32.7139 267.66 32.8308C267.399 32.9478 267.103 33.0063 266.774 33.0063ZM279.052 30.5134C278.602 30.5134 278.194 30.4287 277.828 30.2595C277.462 30.0871 277.171 29.8394 276.956 29.5162C276.74 29.19 276.633 28.796 276.633 28.3344C276.633 27.9281 276.713 27.5988 276.873 27.3465C277.033 27.091 277.247 26.891 277.514 26.7463C277.782 26.6017 278.078 26.4939 278.401 26.4232C278.727 26.3493 279.055 26.2908 279.384 26.2477C279.815 26.1923 280.164 26.1508 280.432 26.1231C280.703 26.0923 280.9 26.0415 281.023 25.9707C281.149 25.9 281.212 25.7769 281.212 25.6014V25.5645C281.212 25.109 281.087 24.7551 280.838 24.5027C280.592 24.2503 280.218 24.1242 279.716 24.1242C279.196 24.1242 278.788 24.238 278.493 24.4658C278.198 24.6935 277.99 24.9367 277.87 25.1952L276.836 24.8259C277.02 24.395 277.267 24.0595 277.574 23.8195C277.885 23.5763 278.224 23.4071 278.59 23.3117C278.959 23.2132 279.322 23.1639 279.679 23.1639C279.907 23.1639 280.169 23.1916 280.464 23.247C280.763 23.2993 281.051 23.4086 281.328 23.5748C281.608 23.741 281.84 23.9918 282.025 24.3273C282.209 24.6627 282.302 25.1121 282.302 25.6753V30.3472H281.212V29.3869H281.157C281.083 29.5408 280.96 29.7055 280.787 29.8809C280.615 30.0563 280.386 30.2056 280.1 30.3287C279.813 30.4518 279.464 30.5134 279.052 30.5134ZM279.218 29.5347C279.649 29.5347 280.012 29.45 280.307 29.2808C280.606 29.1115 280.83 28.893 280.981 28.6252C281.135 28.3575 281.212 28.0759 281.212 27.7804V26.7832C281.166 26.8386 281.064 26.8894 280.907 26.9356C280.754 26.9787 280.575 27.0171 280.372 27.051C280.172 27.0818 279.976 27.1095 279.786 27.1341C279.598 27.1556 279.446 27.1741 279.329 27.1895C279.045 27.2264 278.781 27.2864 278.535 27.3695C278.291 27.4496 278.094 27.5711 277.944 27.7342C277.796 27.8943 277.722 28.1128 277.722 28.3898C277.722 28.7683 277.862 29.0546 278.142 29.2484C278.425 29.4393 278.784 29.5347 279.218 29.5347ZM287.152 33.154C286.626 33.154 286.174 33.0863 285.795 32.9509C285.417 32.8185 285.101 32.6431 284.849 32.4246C284.599 32.2091 284.401 31.9783 284.253 31.7321L285.121 31.1227C285.22 31.252 285.344 31.3997 285.495 31.5659C285.646 31.7352 285.852 31.8814 286.114 32.0045C286.378 32.1307 286.725 32.1938 287.152 32.1938C287.725 32.1938 288.197 32.0553 288.57 31.7783C288.942 31.5013 289.128 31.0673 289.128 30.4764V29.0361H289.036C288.956 29.1653 288.842 29.3254 288.694 29.5162C288.55 29.7039 288.34 29.8717 288.066 30.0194C287.796 30.164 287.429 30.2364 286.968 30.2364C286.395 30.2364 285.881 30.101 285.426 29.8301C284.973 29.5593 284.615 29.1653 284.35 28.6483C284.089 28.1313 283.958 27.5034 283.958 26.7648C283.958 26.0385 284.085 25.406 284.341 24.8674C284.596 24.3257 284.952 23.9072 285.407 23.6117C285.863 23.3132 286.389 23.1639 286.986 23.1639C287.448 23.1639 287.814 23.2409 288.085 23.3948C288.359 23.5456 288.568 23.7179 288.713 23.9118C288.86 24.1026 288.974 24.2596 289.054 24.3827H289.165V23.2563H290.218V30.5503C290.218 31.1597 290.079 31.6552 289.802 32.0368C289.528 32.4215 289.159 32.7031 288.694 32.8816C288.233 33.0632 287.719 33.154 287.152 33.154ZM287.115 29.2577C287.552 29.2577 287.922 29.1577 288.223 28.9576C288.525 28.7576 288.754 28.4698 288.911 28.0943C289.068 27.7189 289.147 27.2695 289.147 26.7463C289.147 26.2354 289.07 25.7845 288.916 25.3937C288.762 25.0028 288.534 24.6966 288.233 24.475C287.931 24.2534 287.559 24.1426 287.115 24.1426C286.654 24.1426 286.269 24.2596 285.961 24.4935C285.657 24.7274 285.427 25.0413 285.273 25.4352C285.123 25.8292 285.047 26.2662 285.047 26.7463C285.047 27.2387 285.124 27.6742 285.278 28.0528C285.435 28.4283 285.666 28.7237 285.971 28.9391C286.278 29.1515 286.66 29.2577 287.115 29.2577ZM295.093 30.4949C294.453 30.4949 293.891 30.3426 293.408 30.0379C292.928 29.7332 292.552 29.3069 292.281 28.7591C292.013 28.2113 291.88 27.5711 291.88 26.8386C291.88 26.1 292.013 25.4552 292.281 24.9043C292.552 24.3534 292.928 23.9256 293.408 23.621C293.891 23.3163 294.453 23.1639 295.093 23.1639C295.733 23.1639 296.293 23.3163 296.773 23.621C297.256 23.9256 297.632 24.3534 297.9 24.9043C298.17 25.4552 298.306 26.1 298.306 26.8386C298.306 27.5711 298.17 28.2113 297.9 28.7591C297.632 29.3069 297.256 29.7332 296.773 30.0379C296.293 30.3426 295.733 30.4949 295.093 30.4949ZM295.093 29.5162C295.579 29.5162 295.979 29.3916 296.293 29.1423C296.607 28.893 296.839 28.5652 296.99 28.159C297.141 27.7527 297.216 27.3126 297.216 26.8386C297.216 26.3647 297.141 25.923 296.99 25.5137C296.839 25.1044 296.607 24.7735 296.293 24.5212C295.979 24.2688 295.579 24.1426 295.093 24.1426C294.606 24.1426 294.206 24.2688 293.892 24.5212C293.578 24.7735 293.346 25.1044 293.195 25.5137C293.045 25.923 292.969 26.3647 292.969 26.8386C292.969 27.3126 293.045 27.7527 293.195 28.159C293.346 28.5652 293.578 28.893 293.892 29.1423C294.206 29.3916 294.606 29.5162 295.093 29.5162Z" fill="white" fill-opacity="0.5"/>
<path d="M90.4318 85.4153C89.2727 85.4153 88.2481 85.2563 87.358 84.9381C86.4678 84.6237 85.7197 84.1597 85.1136 83.546C84.5076 82.9324 84.0492 82.1805 83.7386 81.2903C83.428 80.4002 83.2727 79.3813 83.2727 78.2335C83.2727 77.1237 83.4299 76.1313 83.7443 75.2563C84.0625 74.3813 84.5227 73.6388 85.125 73.029C85.7311 72.4153 86.4659 71.9475 87.3295 71.6256C88.197 71.3036 89.178 71.1426 90.2727 71.1426C91.3371 71.1426 92.2689 71.3169 93.0682 71.6653C93.8712 72.01 94.5417 72.4778 95.0795 73.0688C95.6212 73.6559 96.0265 74.3169 96.2955 75.0517C96.5682 75.7866 96.7045 76.5441 96.7045 77.3244C96.7045 77.8737 96.678 78.4305 96.625 78.9949C96.572 79.5593 96.4602 80.0782 96.2898 80.5517C96.1193 81.0214 95.8561 81.4002 95.5 81.6881C95.1477 81.976 94.6705 82.1199 94.0682 82.1199C93.803 82.1199 93.5114 82.0782 93.1932 81.9949C92.875 81.9116 92.5928 81.7733 92.3466 81.5801C92.1004 81.3869 91.9545 81.1275 91.9091 80.8017H91.8409C91.75 81.0214 91.6098 81.2297 91.4205 81.4267C91.2348 81.6237 90.9905 81.7809 90.6875 81.8983C90.3883 82.0157 90.0227 82.0669 89.5909 82.0517C89.0985 82.0328 88.6648 81.9229 88.2898 81.7222C87.9148 81.5176 87.6004 81.2411 87.3466 80.8926C87.0966 80.5403 86.9072 80.1332 86.7784 79.671C86.6534 79.2051 86.5909 78.7032 86.5909 78.1653C86.5909 77.654 86.6667 77.1862 86.8182 76.7619C86.9697 76.3377 87.1799 75.9665 87.4489 75.6483C87.7216 75.3301 88.0398 75.0763 88.4034 74.8869C88.7708 74.6938 89.1667 74.5744 89.5909 74.529C89.9697 74.4911 90.3144 74.5082 90.625 74.5801C90.9356 74.6483 91.1913 74.7525 91.392 74.8926C91.5928 75.029 91.7197 75.1805 91.7727 75.3472H91.8409V74.7108H93.0455V79.8472C93.0455 80.1653 93.1345 80.4457 93.3125 80.6881C93.4905 80.9305 93.75 81.0517 94.0909 81.0517C94.4773 81.0517 94.7727 80.9191 94.9773 80.654C95.1856 80.3888 95.3277 79.9797 95.4034 79.4267C95.483 78.8737 95.5227 78.1653 95.5227 77.3017C95.5227 76.7941 95.4527 76.2941 95.3125 75.8017C95.1761 75.3055 94.9678 74.8415 94.6875 74.4097C94.411 73.9778 94.0606 73.5972 93.6364 73.2676C93.2121 72.9381 92.714 72.6805 92.142 72.4949C91.5739 72.3055 90.928 72.2108 90.2045 72.2108C89.3144 72.2108 88.517 72.3491 87.8125 72.6256C87.1117 72.8983 86.5152 73.2979 86.0227 73.8244C85.5341 74.3472 85.161 74.9835 84.9034 75.7335C84.6496 76.4797 84.5227 77.3282 84.5227 78.279C84.5227 79.2449 84.6496 80.1028 84.9034 80.8528C85.161 81.6028 85.5398 82.2354 86.0398 82.7506C86.5436 83.2657 87.1667 83.6559 87.9091 83.921C88.6515 84.19 89.5076 84.3244 90.4773 84.3244C90.8939 84.3244 91.3049 84.2847 91.7102 84.2051C92.1155 84.1256 92.4735 84.0385 92.7841 83.9438C93.0947 83.8491 93.3182 83.779 93.4545 83.7335L93.7727 84.779C93.5379 84.8775 93.2311 84.976 92.8523 85.0744C92.4773 85.1729 92.0758 85.2544 91.6477 85.3188C91.2235 85.3832 90.8182 85.4153 90.4318 85.4153ZM89.7727 80.8926C90.2803 80.8926 90.6913 80.7903 91.0057 80.5858C91.3201 80.3813 91.5492 80.0725 91.6932 79.6597C91.8371 79.2468 91.9091 78.726 91.9091 78.0972C91.9091 77.4608 91.8295 76.9646 91.6705 76.6085C91.5114 76.2525 91.2765 76.0025 90.9659 75.8585C90.6553 75.7146 90.2727 75.6426 89.8182 75.6426C89.3864 75.6426 89.017 75.7563 88.7102 75.9835C88.4072 76.207 88.1742 76.5063 88.0114 76.8813C87.8523 77.2525 87.7727 77.6578 87.7727 78.0972C87.7727 78.582 87.8371 79.0385 87.9659 79.4665C88.0947 79.8907 88.3049 80.2354 88.5966 80.5006C88.8883 80.7619 89.2803 80.8926 89.7727 80.8926ZM98.7116 82.3472V73.6199H100.007V74.9381H100.098C100.257 74.5063 100.545 74.1559 100.962 73.8869C101.378 73.618 101.848 73.4835 102.371 73.4835C102.469 73.4835 102.592 73.4854 102.74 73.4892C102.888 73.493 103 73.4987 103.075 73.5063V74.8699C103.03 74.8585 102.926 74.8415 102.763 74.8188C102.604 74.7922 102.435 74.779 102.257 74.779C101.833 74.779 101.454 74.868 101.121 75.046C100.791 75.2203 100.53 75.4627 100.337 75.7733C100.147 76.0801 100.053 76.4305 100.053 76.8244V82.3472H98.7116ZM107.233 82.5517C106.68 82.5517 106.178 82.4475 105.727 82.2392C105.277 82.0271 104.919 81.7222 104.653 81.3244C104.388 80.9229 104.256 80.4381 104.256 79.8699C104.256 79.3699 104.354 78.9646 104.551 78.654C104.748 78.3396 105.011 78.0934 105.341 77.9153C105.67 77.7373 106.034 77.6047 106.432 77.5176C106.833 77.4267 107.237 77.3547 107.642 77.3017C108.172 77.2335 108.602 77.1824 108.932 77.1483C109.265 77.1104 109.508 77.0479 109.659 76.9608C109.814 76.8737 109.892 76.7222 109.892 76.5063V76.4608C109.892 75.9002 109.739 75.4646 109.432 75.154C109.129 74.8434 108.669 74.6881 108.051 74.6881C107.411 74.6881 106.909 74.8282 106.545 75.1085C106.182 75.3888 105.926 75.6881 105.778 76.0063L104.506 75.5517C104.733 75.0214 105.036 74.6085 105.415 74.3131C105.797 74.0138 106.214 73.8055 106.665 73.6881C107.119 73.5669 107.566 73.5063 108.006 73.5063C108.286 73.5063 108.608 73.5403 108.972 73.6085C109.339 73.6729 109.693 73.8074 110.034 74.0119C110.379 74.2165 110.665 74.5252 110.892 74.9381C111.119 75.351 111.233 75.904 111.233 76.5972V82.3472H109.892V81.1653H109.824C109.733 81.3547 109.581 81.5574 109.369 81.7733C109.157 81.9892 108.875 82.1729 108.523 82.3244C108.17 82.476 107.741 82.5517 107.233 82.5517ZM107.438 81.3472C107.968 81.3472 108.415 81.243 108.778 81.0347C109.146 80.8263 109.422 80.5574 109.608 80.2278C109.797 79.8983 109.892 79.5517 109.892 79.1881V77.9608C109.835 78.029 109.71 78.0915 109.517 78.1483C109.328 78.2013 109.108 78.2487 108.858 78.2903C108.612 78.3282 108.371 78.3623 108.136 78.3926C107.905 78.4191 107.718 78.4419 107.574 78.4608C107.225 78.5063 106.9 78.5801 106.597 78.6824C106.297 78.7809 106.055 78.9305 105.869 79.1313C105.688 79.3282 105.597 79.5972 105.597 79.9381C105.597 80.404 105.769 80.7563 106.114 80.9949C106.462 81.2297 106.903 81.3472 107.438 81.3472ZM117.226 82.529C116.408 82.529 115.703 82.3358 115.112 81.9494C114.521 81.5631 114.067 81.0309 113.749 80.3528C113.43 79.6748 113.271 78.9002 113.271 78.029C113.271 77.1426 113.434 76.3604 113.76 75.6824C114.089 75.0006 114.548 74.4684 115.135 74.0858C115.726 73.6994 116.415 73.5063 117.203 73.5063C117.817 73.5063 118.37 73.6199 118.862 73.8472C119.355 74.0744 119.758 74.3926 120.072 74.8017C120.387 75.2108 120.582 75.6881 120.658 76.2335H119.317C119.214 75.8358 118.987 75.4835 118.635 75.1767C118.286 74.8661 117.817 74.7108 117.226 74.7108C116.703 74.7108 116.245 74.8472 115.851 75.1199C115.461 75.3888 115.156 75.7695 114.936 76.2619C114.72 76.7506 114.612 77.3244 114.612 77.9835C114.612 78.6578 114.718 79.2449 114.93 79.7449C115.146 80.2449 115.449 80.6332 115.839 80.9097C116.233 81.1862 116.696 81.3244 117.226 81.3244C117.574 81.3244 117.891 81.2638 118.175 81.1426C118.459 81.0214 118.699 80.8472 118.896 80.6199C119.093 80.3926 119.233 80.1199 119.317 79.8017H120.658C120.582 80.3169 120.394 80.7809 120.095 81.1938C119.8 81.6028 119.408 81.9286 118.919 82.171C118.434 82.4097 117.87 82.529 117.226 82.529ZM126.277 82.529C125.436 82.529 124.711 82.3434 124.101 81.9722C123.495 81.5972 123.027 81.0744 122.697 80.404C122.372 79.7297 122.209 78.9457 122.209 78.0517C122.209 77.1578 122.372 76.3699 122.697 75.6881C123.027 75.0025 123.485 74.4684 124.072 74.0858C124.663 73.6994 125.353 73.5063 126.141 73.5063C126.595 73.5063 127.044 73.582 127.487 73.7335C127.93 73.885 128.334 74.1313 128.697 74.4722C129.061 74.8093 129.351 75.2563 129.567 75.8131C129.783 76.3699 129.891 77.0555 129.891 77.8699V78.4381H123.163V77.279H128.527C128.527 76.7866 128.429 76.3472 128.232 75.9608C128.038 75.5744 127.762 75.2695 127.402 75.046C127.046 74.8225 126.625 74.7108 126.141 74.7108C125.607 74.7108 125.144 74.8434 124.754 75.1085C124.368 75.3699 124.071 75.7108 123.862 76.1313C123.654 76.5517 123.55 77.0025 123.55 77.4835V78.2563C123.55 78.9153 123.663 79.4741 123.891 79.9324C124.122 80.3869 124.442 80.7335 124.851 80.9722C125.26 81.207 125.735 81.3244 126.277 81.3244C126.629 81.3244 126.947 81.2752 127.232 81.1767C127.519 81.0744 127.768 80.9229 127.976 80.7222C128.184 80.5176 128.345 80.2638 128.459 79.9608L129.754 80.3244C129.618 80.7638 129.389 81.1502 129.067 81.4835C128.745 81.8131 128.347 82.0707 127.874 82.2563C127.4 82.4381 126.868 82.529 126.277 82.529ZM136.93 76.7335V77.9835H131.839V76.7335H136.93ZM142.835 82.529C142.047 82.529 141.356 82.3415 140.761 81.9665C140.17 81.5915 139.708 81.0669 139.375 80.3926C139.045 79.7184 138.881 78.9305 138.881 78.029C138.881 77.1199 139.045 76.3263 139.375 75.6483C139.708 74.9703 140.17 74.4438 140.761 74.0688C141.356 73.6938 142.047 73.5063 142.835 73.5063C143.623 73.5063 144.313 73.6938 144.903 74.0688C145.498 74.4438 145.96 74.9703 146.29 75.6483C146.623 76.3263 146.79 77.1199 146.79 78.029C146.79 78.9305 146.623 79.7184 146.29 80.3926C145.96 81.0669 145.498 81.5915 144.903 81.9665C144.313 82.3415 143.623 82.529 142.835 82.529ZM142.835 81.3244C143.434 81.3244 143.926 81.171 144.312 80.8642C144.699 80.5574 144.985 80.154 145.17 79.654C145.356 79.154 145.449 78.6123 145.449 78.029C145.449 77.4457 145.356 76.9021 145.17 76.3983C144.985 75.8945 144.699 75.4873 144.312 75.1767C143.926 74.8661 143.434 74.7108 142.835 74.7108C142.237 74.7108 141.744 74.8661 141.358 75.1767C140.972 75.4873 140.686 75.8945 140.5 76.3983C140.314 76.9021 140.222 77.4457 140.222 78.029C140.222 78.6123 140.314 79.154 140.5 79.654C140.686 80.154 140.972 80.5574 141.358 80.8642C141.744 81.171 142.237 81.3244 142.835 81.3244ZM152.723 73.6199V74.7563H148.018V73.6199H152.723ZM149.428 82.3472V72.4153C149.428 71.9153 149.545 71.4987 149.78 71.1653C150.015 70.832 150.32 70.582 150.695 70.4153C151.07 70.2487 151.465 70.1653 151.882 70.1653C152.212 70.1653 152.481 70.1919 152.689 70.2449C152.897 70.2979 153.053 70.3472 153.155 70.3926L152.768 71.5517C152.7 71.529 152.606 71.5006 152.484 71.4665C152.367 71.4324 152.212 71.4153 152.018 71.4153C151.575 71.4153 151.255 71.5271 151.058 71.7506C150.865 71.9741 150.768 72.3017 150.768 72.7335V82.3472H149.428ZM159.149 76.7335V77.9835H154.058V76.7335H159.149ZM167.69 75.5744L166.486 75.9153C166.41 75.7146 166.298 75.5195 166.151 75.3301C166.007 75.1369 165.81 74.9778 165.56 74.8528C165.31 74.7278 164.99 74.6653 164.599 74.6653C164.065 74.6653 163.62 74.7885 163.264 75.0347C162.912 75.2771 162.736 75.5858 162.736 75.9608C162.736 76.2941 162.857 76.5574 163.099 76.7506C163.342 76.9438 163.721 77.1047 164.236 77.2335L165.531 77.5517C166.312 77.7411 166.893 78.0309 167.276 78.421C167.658 78.8074 167.849 79.3055 167.849 79.9153C167.849 80.4153 167.705 80.8623 167.418 81.2563C167.134 81.6502 166.736 81.9608 166.224 82.1881C165.713 82.4153 165.118 82.529 164.44 82.529C163.55 82.529 162.813 82.3358 162.23 81.9494C161.647 81.5631 161.277 80.9987 161.122 80.2563L162.395 79.9381C162.516 80.4078 162.745 80.76 163.082 80.9949C163.423 81.2297 163.868 81.3472 164.418 81.3472C165.043 81.3472 165.539 81.2146 165.906 80.9494C166.277 80.6805 166.463 80.3585 166.463 79.9835C166.463 79.6805 166.357 79.4267 166.145 79.2222C165.933 79.0138 165.607 78.8585 165.168 78.7563L163.713 78.4153C162.914 78.226 162.327 77.9324 161.952 77.5347C161.58 77.1332 161.395 76.6313 161.395 76.029C161.395 75.5366 161.533 75.101 161.81 74.7222C162.09 74.3434 162.471 74.046 162.952 73.8301C163.437 73.6142 163.986 73.5063 164.599 73.5063C165.463 73.5063 166.141 73.6957 166.634 74.0744C167.13 74.4532 167.482 74.9532 167.69 75.5744ZM171.209 70.7108V82.3472H169.868V70.7108H171.209ZM177.21 82.529C176.422 82.529 175.731 82.3415 175.136 81.9665C174.545 81.5915 174.083 81.0669 173.75 80.3926C173.42 79.7184 173.256 78.9305 173.256 78.029C173.256 77.1199 173.42 76.3263 173.75 75.6483C174.083 74.9703 174.545 74.4438 175.136 74.0688C175.731 73.6938 176.422 73.5063 177.21 73.5063C177.998 73.5063 178.688 73.6938 179.278 74.0688C179.873 74.4438 180.335 74.9703 180.665 75.6483C180.998 76.3263 181.165 77.1199 181.165 78.029C181.165 78.9305 180.998 79.7184 180.665 80.3926C180.335 81.0669 179.873 81.5915 179.278 81.9665C178.688 82.3415 177.998 82.529 177.21 82.529ZM177.21 81.3244C177.809 81.3244 178.301 81.171 178.688 80.8642C179.074 80.5574 179.36 80.154 179.545 79.654C179.731 79.154 179.824 78.6123 179.824 78.029C179.824 77.4457 179.731 76.9021 179.545 76.3983C179.36 75.8945 179.074 75.4873 178.688 75.1767C178.301 74.8661 177.809 74.7108 177.21 74.7108C176.612 74.7108 176.119 74.8661 175.733 75.1767C175.347 75.4873 175.061 75.8945 174.875 76.3983C174.689 76.9021 174.597 77.4457 174.597 78.029C174.597 78.6123 174.689 79.154 174.875 79.654C175.061 80.154 175.347 80.5574 175.733 80.8642C176.119 81.171 176.612 81.3244 177.21 81.3244ZM187.007 73.6199V74.7563H182.484V73.6199H187.007ZM183.803 71.529H185.143V79.8472C185.143 80.226 185.198 80.51 185.308 80.6994C185.422 80.885 185.566 81.01 185.74 81.0744C185.918 81.135 186.106 81.1653 186.303 81.1653C186.45 81.1653 186.571 81.1578 186.666 81.1426C186.761 81.1237 186.837 81.1085 186.893 81.0972L187.166 82.3017C187.075 82.3358 186.948 82.3699 186.786 82.404C186.623 82.4419 186.416 82.4608 186.166 82.4608C185.787 82.4608 185.416 82.3794 185.053 82.2165C184.693 82.0536 184.393 81.8055 184.155 81.4722C183.92 81.1388 183.803 80.7184 183.803 80.2108V71.529ZM190.553 77.0972V82.3472H189.212V70.7108H190.553V74.9835H190.666C190.871 74.5328 191.178 74.1748 191.587 73.9097C192 73.6407 192.549 73.5063 193.234 73.5063C193.829 73.5063 194.35 73.6256 194.797 73.8642C195.244 74.0991 195.59 74.4608 195.837 74.9494C196.087 75.4343 196.212 76.0517 196.212 76.8017V82.3472H194.871V76.8926C194.871 76.1994 194.691 75.6635 194.331 75.2847C193.975 74.9021 193.481 74.7108 192.848 74.7108C192.409 74.7108 192.015 74.8036 191.666 74.9892C191.321 75.1748 191.049 75.4457 190.848 75.8017C190.651 76.1578 190.553 76.5896 190.553 77.0972ZM204.847 75.5744L203.642 75.9153C203.566 75.7146 203.455 75.5195 203.307 75.3301C203.163 75.1369 202.966 74.9778 202.716 74.8528C202.466 74.7278 202.146 74.6653 201.756 74.6653C201.222 74.6653 200.777 74.7885 200.42 75.0347C200.068 75.2771 199.892 75.5858 199.892 75.9608C199.892 76.2941 200.013 76.5574 200.256 76.7506C200.498 76.9438 200.877 77.1047 201.392 77.2335L202.688 77.5517C203.468 77.7411 204.049 78.0309 204.432 78.421C204.814 78.8074 205.006 79.3055 205.006 79.9153C205.006 80.4153 204.862 80.8623 204.574 81.2563C204.29 81.6502 203.892 81.9608 203.381 82.1881C202.869 82.4153 202.275 82.529 201.597 82.529C200.706 82.529 199.97 82.3358 199.386 81.9494C198.803 81.5631 198.434 80.9987 198.278 80.2563L199.551 79.9381C199.672 80.4078 199.902 80.76 200.239 80.9949C200.58 81.2297 201.025 81.3472 201.574 81.3472C202.199 81.3472 202.695 81.2146 203.062 80.9494C203.434 80.6805 203.619 80.3585 203.619 79.9835C203.619 79.6805 203.513 79.4267 203.301 79.2222C203.089 79.0138 202.763 78.8585 202.324 78.7563L200.869 78.4153C200.07 78.226 199.483 77.9324 199.108 77.5347C198.737 77.1332 198.551 76.6313 198.551 76.029C198.551 75.5366 198.689 75.101 198.966 74.7222C199.246 74.3434 199.627 74.046 200.108 73.8301C200.593 73.6142 201.142 73.5063 201.756 73.5063C202.619 73.5063 203.297 73.6957 203.79 74.0744C204.286 74.4532 204.638 74.9532 204.847 75.5744Z" fill="#5B75F0"/>
<path d="M217.706 75.5744L216.501 75.9153C216.426 75.7146 216.314 75.5195 216.166 75.3301C216.022 75.1369 215.825 74.9778 215.575 74.8528C215.325 74.7278 215.005 74.6653 214.615 74.6653C214.081 74.6653 213.636 74.7885 213.28 75.0347C212.928 75.2771 212.751 75.5858 212.751 75.9608C212.751 76.2941 212.873 76.5574 213.115 76.7506C213.357 76.9438 213.736 77.1047 214.251 77.2335L215.547 77.5517C216.327 77.7411 216.909 78.0309 217.291 78.421C217.674 78.8074 217.865 79.3055 217.865 79.9153C217.865 80.4153 217.721 80.8623 217.433 81.2563C217.149 81.6502 216.751 81.9608 216.24 82.1881C215.729 82.4153 215.134 82.529 214.456 82.529C213.566 82.529 212.829 82.3358 212.246 81.9494C211.662 81.5631 211.293 80.9987 211.138 80.2563L212.411 79.9381C212.532 80.4078 212.761 80.76 213.098 80.9949C213.439 81.2297 213.884 81.3472 214.433 81.3472C215.058 81.3472 215.554 81.2146 215.922 80.9494C216.293 80.6805 216.479 80.3585 216.479 79.9835C216.479 79.6805 216.373 79.4267 216.161 79.2222C215.948 79.0138 215.623 78.8585 215.183 78.7563L213.729 78.4153C212.929 78.226 212.342 77.9324 211.967 77.5347C211.596 77.1332 211.411 76.6313 211.411 76.029C211.411 75.5366 211.549 75.101 211.825 74.7222C212.106 74.3434 212.486 74.046 212.967 73.8301C213.452 73.6142 214.001 73.5063 214.615 73.5063C215.479 73.5063 216.157 73.6957 216.649 74.0744C217.145 74.4532 217.498 74.9532 217.706 75.5744ZM223.429 82.529C222.611 82.529 221.906 82.3358 221.315 81.9494C220.724 81.5631 220.27 81.0309 219.952 80.3528C219.634 79.6748 219.474 78.9002 219.474 78.029C219.474 77.1426 219.637 76.3604 219.963 75.6824C220.293 75.0006 220.751 74.4684 221.338 74.0858C221.929 73.6994 222.618 73.5063 223.406 73.5063C224.02 73.5063 224.573 73.6199 225.065 73.8472C225.558 74.0744 225.961 74.3926 226.276 74.8017C226.59 75.2108 226.785 75.6881 226.861 76.2335H225.52C225.418 75.8358 225.19 75.4835 224.838 75.1767C224.49 74.8661 224.02 74.7108 223.429 74.7108C222.906 74.7108 222.448 74.8472 222.054 75.1199C221.664 75.3888 221.359 75.7695 221.139 76.2619C220.923 76.7506 220.815 77.3244 220.815 77.9835C220.815 78.6578 220.921 79.2449 221.134 79.7449C221.349 80.2449 221.652 80.6332 222.043 80.9097C222.437 81.1862 222.899 81.3244 223.429 81.3244C223.777 81.3244 224.094 81.2638 224.378 81.1426C224.662 81.0214 224.902 80.8472 225.099 80.6199C225.296 80.3926 225.437 80.1199 225.52 79.8017H226.861C226.785 80.3169 226.598 80.7809 226.298 81.1938C226.003 81.6028 225.611 81.9286 225.122 82.171C224.637 82.4097 224.073 82.529 223.429 82.529ZM232.366 82.529C231.579 82.529 230.887 82.3415 230.293 81.9665C229.702 81.5915 229.24 81.0669 228.906 80.3926C228.577 79.7184 228.412 78.9305 228.412 78.029C228.412 77.1199 228.577 76.3263 228.906 75.6483C229.24 74.9703 229.702 74.4438 230.293 74.0688C230.887 73.6938 231.579 73.5063 232.366 73.5063C233.154 73.5063 233.844 73.6938 234.435 74.0688C235.029 74.4438 235.491 74.9703 235.821 75.6483C236.154 76.3263 236.321 77.1199 236.321 78.029C236.321 78.9305 236.154 79.7184 235.821 80.3926C235.491 81.0669 235.029 81.5915 234.435 81.9665C233.844 82.3415 233.154 82.529 232.366 82.529ZM232.366 81.3244C232.965 81.3244 233.457 81.171 233.844 80.8642C234.23 80.5574 234.516 80.154 234.702 79.654C234.887 79.154 234.98 78.6123 234.98 78.029C234.98 77.4457 234.887 76.9021 234.702 76.3983C234.516 75.8945 234.23 75.4873 233.844 75.1767C233.457 74.8661 232.965 74.7108 232.366 74.7108C231.768 74.7108 231.276 74.8661 230.889 75.1767C230.503 75.4873 230.217 75.8945 230.031 76.3983C229.846 76.9021 229.753 77.4457 229.753 78.029C229.753 78.6123 229.846 79.154 230.031 79.654C230.217 80.154 230.503 80.5574 230.889 80.8642C231.276 81.171 231.768 81.3244 232.366 81.3244ZM238.368 82.3472V73.6199H239.663V74.9381H239.754C239.913 74.5063 240.201 74.1559 240.618 73.8869C241.035 73.618 241.504 73.4835 242.027 73.4835C242.125 73.4835 242.249 73.4854 242.396 73.4892C242.544 73.493 242.656 73.4987 242.732 73.5063V74.8699C242.686 74.8585 242.582 74.8415 242.419 74.8188C242.26 74.7922 242.091 74.779 241.913 74.779C241.489 74.779 241.11 74.868 240.777 75.046C240.447 75.2203 240.186 75.4627 239.993 75.7733C239.804 76.0801 239.709 76.4305 239.709 76.8244V82.3472H238.368ZM247.714 82.529C246.874 82.529 246.148 82.3434 245.538 81.9722C244.932 81.5972 244.464 81.0744 244.135 80.404C243.809 79.7297 243.646 78.9457 243.646 78.0517C243.646 77.1578 243.809 76.3699 244.135 75.6881C244.464 75.0025 244.923 74.4684 245.51 74.0858C246.101 73.6994 246.79 73.5063 247.578 73.5063C248.033 73.5063 248.482 73.582 248.925 73.7335C249.368 73.885 249.771 74.1313 250.135 74.4722C250.499 74.8093 250.788 75.2563 251.004 75.8131C251.22 76.3699 251.328 77.0555 251.328 77.8699V78.4381H244.601V77.279H249.964C249.964 76.7866 249.866 76.3472 249.669 75.9608C249.476 75.5744 249.199 75.2695 248.839 75.046C248.483 74.8225 248.063 74.7108 247.578 74.7108C247.044 74.7108 246.582 74.8434 246.192 75.1085C245.805 75.3699 245.508 75.7108 245.3 76.1313C245.091 76.5517 244.987 77.0025 244.987 77.4835V78.2563C244.987 78.9153 245.101 79.4741 245.328 79.9324C245.559 80.3869 245.879 80.7335 246.288 80.9722C246.697 81.207 247.173 81.3244 247.714 81.3244C248.067 81.3244 248.385 81.2752 248.669 81.1767C248.957 81.0744 249.205 80.9229 249.413 80.7222C249.622 80.5176 249.783 80.2638 249.896 79.9608L251.192 80.3244C251.055 80.7638 250.826 81.1502 250.504 81.4835C250.182 81.8131 249.785 82.0707 249.311 82.2563C248.838 82.4381 248.305 82.529 247.714 82.529ZM261.482 82.5063C260.815 82.5063 260.214 82.3737 259.68 82.1085C259.146 81.8434 258.718 81.4797 258.396 81.0176C258.074 80.5555 257.898 80.029 257.868 79.4381H259.232C259.285 79.9646 259.523 80.4002 259.947 80.7449C260.375 81.0858 260.887 81.2563 261.482 81.2563C261.959 81.2563 262.383 81.1445 262.754 80.921C263.129 80.6975 263.423 80.3907 263.635 80.0006C263.851 79.6066 263.959 79.1616 263.959 78.6653C263.959 78.1578 263.847 77.7051 263.624 77.3074C263.404 76.9059 263.101 76.5896 262.714 76.3585C262.328 76.1275 261.887 76.01 261.391 76.0063C261.035 76.0025 260.669 76.0574 260.294 76.171C259.919 76.2809 259.61 76.4229 259.368 76.5972L258.05 76.4381L258.754 70.7108H264.8V71.9608H259.936L259.527 75.3926H259.595C259.834 75.2032 260.133 75.046 260.493 74.921C260.853 74.796 261.228 74.7335 261.618 74.7335C262.33 74.7335 262.964 74.904 263.521 75.2449C264.082 75.582 264.521 76.0441 264.839 76.6313C265.161 77.2184 265.322 77.8888 265.322 78.6426C265.322 79.385 265.156 80.0479 264.822 80.6313C264.493 81.2108 264.038 81.6691 263.459 82.0063C262.879 82.3396 262.22 82.5063 261.482 82.5063Z" fill="white"/>
</g>
<rect x="67" y="0.847168" width="517" height="101" rx="11.5" stroke="url(#paint0_linear_240_1061)"/>
<rect x="67" y="0.847168" width="517" height="101" rx="11.5" stroke="#3D3D3D"/>
<defs>
<linearGradient id="paint0_linear_240_1061" x1="325.5" y1="0.347168" x2="325.5" y2="102.347" gradientUnits="userSpaceOnUse">
<stop stop-color="#3D3D3D"/>
<stop offset="1" stop-color="#101010"/>
</linearGradient>
<clipPath id="clip0_240_1061">
<rect width="56" height="56" fill="white" transform="translate(0.5 0.347168)"/>
</clipPath>
<clipPath id="clip1_240_1061">
<rect x="66.5" y="0.347168" width="518" height="102" rx="12" fill="white"/>
</clipPath>
</defs>
</svg>
