<svg width="342" height="109" viewBox="0 0 342 109" fill="none" xmlns="http://www.w3.org/2000/svg">
<g clip-path="url(#clip0_2023_1361)">
<rect y="0.607422" width="342" height="108" rx="12" fill="#161616"/>
<rect y="0.607422" width="342" height="56" fill="#222222"/>
<rect y="0.607422" width="342" height="56" stroke="#313131"/>
<g clip-path="url(#clip1_2023_1361)">
<rect x="16" y="12.6074" width="32" height="32" rx="16" fill="#FFD400"/>
<mask id="mask0_2023_1361" style="mask-type:alpha" maskUnits="userSpaceOnUse" x="16" y="12" width="32" height="33">
<rect x="16" y="12.6074" width="32" height="32" rx="16" fill="#C8FF30"/>
</mask>
<g mask="url(#mask0_2023_1361)">
<path d="M32.514 38.8691C38.4107 38.8691 43.1909 34.1628 43.1909 28.3573C43.1909 22.5518 38.4107 17.8455 32.514 17.8455C26.6173 17.8455 21.8371 22.5518 21.8371 28.3573C21.8371 34.1628 26.6173 38.8691 32.514 38.8691Z" fill="#C7B299" stroke="#161616" stroke-width="0.133891" stroke-miterlimit="10"/>
<path d="M20.6213 29.2795C20.6213 22.42 25.5632 16.7581 33.1372 16.7581C40.213 16.7581 44.6291 21.7196 44.6291 27.9369C44.6291 34.7949 39.6872 40.4583 32.1727 40.4583C25.0664 40.4583 20.6228 35.4967 20.6228 29.2795H20.6213ZM32.2889 38.6473C38.4583 38.6473 42.4065 33.8902 42.4065 28.0529C42.4065 26.5696 42.376 22.3765 39.2659 20.7294C36.4987 19.2649 33.3377 20.899 32.9499 21.1078C32.3078 20.7511 29.6727 19.378 27.071 20.3756C22.7509 22.0314 22.8453 28.569 22.8453 29.162C22.8453 34.4745 26.442 38.6473 32.2904 38.6473H32.2889Z" fill="#161616"/>
<path d="M25.6871 32.6796C25.6871 32.913 28.6868 34.4166 32.4579 34.4166C36.2289 34.4166 39.3419 32.913 39.3419 32.6796C39.3419 32.4461 36.2275 33.5713 32.4579 33.5713C28.6868 33.5713 25.6871 32.4461 25.6871 32.6796Z" fill="#161616"/>
<path d="M37.6334 31.5762C40.3527 33.0116 43.2435 32.884 44.0889 31.2891C44.9343 29.6942 43.4149 27.2366 40.6955 25.8012C37.9762 24.3658 35.2438 23.0623 34.24 26.0883C33.1491 29.3825 34.914 30.1408 37.6334 31.5762Z" fill="#161616"/>
<path d="M30.775 26.0883C29.7727 23.0623 27.0402 24.3643 24.3195 25.8012C21.6001 27.2366 20.0807 29.6942 20.9261 31.2891C21.7715 32.884 24.6608 33.013 27.3816 31.5762C30.101 30.1408 31.8674 29.3825 30.775 26.0883Z" fill="#161616"/>
<path d="M32.4411 33.1422C33.7648 33.1422 34.8379 32.4281 34.8379 31.5473C34.8379 30.6665 33.7648 29.9524 32.4411 29.9524C31.1173 29.9524 30.0442 30.6665 30.0442 31.5473C30.0442 32.4281 31.1173 33.1422 32.4411 33.1422Z" fill="#161616"/>
<path d="M31.8094 32.1156C31.7629 32.22 31.561 32.2707 31.3605 32.2287C31.1601 32.1866 31.0351 32.0692 31.0831 31.9648C31.131 31.8604 31.3315 31.8096 31.5319 31.8517C31.7324 31.8937 31.8573 32.0112 31.8094 32.1156Z" fill="white"/>
<path d="M33.1166 32.1156C33.1631 32.22 33.365 32.2707 33.5655 32.2287C33.7659 32.1866 33.8909 32.0692 33.8429 31.9648C33.795 31.8604 33.5945 31.8096 33.3941 31.8517C33.1936 31.8937 33.0687 32.0112 33.1166 32.1156Z" fill="white"/>
<path d="M29.3725 27.6122C29.3725 28.5111 28.6418 29.2404 27.7412 29.2404C26.8406 29.2404 26.1099 28.5111 26.1099 27.6122C26.1099 26.7132 26.7461 26.835 27.6468 26.835C28.5474 26.835 29.3711 26.7118 29.3711 27.6122H29.3725Z" fill="white" stroke="#161616" stroke-width="0.133891" stroke-miterlimit="10"/>
<path d="M27.7408 28.7677C28.3802 28.7677 28.8985 28.2503 28.8985 27.6121C28.8985 26.9739 28.3802 26.4565 27.7408 26.4565C27.1014 26.4565 26.583 26.9739 26.583 27.6121C26.583 28.2503 27.1014 28.7677 27.7408 28.7677Z" fill="#161616" stroke="#161616" stroke-width="0.133891" stroke-miterlimit="10"/>
<path d="M27.1093 27.6643C27.2545 27.6643 27.3722 27.5468 27.3722 27.4018C27.3722 27.2569 27.2545 27.1394 27.1093 27.1394C26.9641 27.1394 26.8463 27.2569 26.8463 27.4018C26.8463 27.5468 26.9641 27.6643 27.1093 27.6643Z" fill="white"/>
<path d="M38.959 27.6122C38.959 28.5111 38.2283 29.2404 37.3277 29.2404C36.427 29.2404 35.6964 28.5111 35.6964 27.6122C35.6964 26.7132 36.427 26.835 37.3277 26.835C38.2283 26.835 38.959 26.7118 38.959 27.6122Z" fill="white" stroke="#101010" stroke-width="0.133891" stroke-miterlimit="10"/>
<path d="M37.3283 28.7677C37.9677 28.7677 38.486 28.2503 38.486 27.6121C38.486 26.9739 37.9677 26.4565 37.3283 26.4565C36.6889 26.4565 36.1705 26.9739 36.1705 27.6121C36.1705 28.2503 36.6889 28.7677 37.3283 28.7677Z" fill="#161616" stroke="#161616" stroke-width="0.133891" stroke-miterlimit="10"/>
<path d="M36.6957 27.6643C36.841 27.6643 36.9587 27.5468 36.9587 27.4018C36.9587 27.2569 36.841 27.1394 36.6957 27.1394C36.5505 27.1394 36.4328 27.2569 36.4328 27.4018C36.4328 27.5468 36.5505 27.6643 36.6957 27.6643Z" fill="white"/>
<path d="M32.7757 21.7293C32.7778 21.6844 32.7489 21.6498 32.7202 21.6263L18.9046 25.2078L18.8628 25.2412C18.971 25.3767 19.0992 25.4658 19.2492 25.5135C19.3984 25.5609 19.5659 25.5665 19.7519 25.5403C20.122 25.4882 20.5778 25.3083 21.1317 25.0613C21.3272 24.9741 21.5356 24.8783 21.7576 24.7761C22.7974 24.2978 24.1364 23.6819 25.8576 23.1726C27.7448 22.6143 29.4581 22.3418 30.7024 22.171C30.9249 22.1405 31.1328 22.1132 31.3241 22.088C31.6668 22.043 31.9564 22.0049 32.1817 21.9679C32.357 21.9391 32.4969 21.9104 32.5942 21.8786C32.6425 21.8628 32.6839 21.8452 32.7144 21.8242C32.7441 21.8038 32.7736 21.7731 32.7757 21.7293ZM32.7757 21.7293L32.7222 21.7268L32.7757 21.7293C32.7757 21.7293 32.7757 21.7293 32.7757 21.7293Z" fill="#847B7B" stroke="#161616" stroke-width="0.107113" stroke-miterlimit="10"/>
<path d="M32.8818 22.3387L32.8983 22.3381L32.897 22.2851C32.8959 22.2402 32.8647 22.2078 32.8344 22.1863C32.8024 22.1636 32.7585 22.1439 32.7064 22.1262C32.6015 22.0908 32.451 22.0602 32.2623 22.0364C31.8842 21.9889 31.3438 21.9681 30.6884 21.9966C29.3775 22.0537 27.6016 22.3085 25.7355 22.9461C23.8752 23.5818 22.0191 24.2657 20.7552 24.9301C20.1244 25.2617 19.6346 25.5917 19.3669 25.9129C19.2327 26.0739 19.1506 26.2372 19.139 26.401C19.1273 26.5668 19.1885 26.7248 19.3241 26.8721L19.3241 26.8721C19.4414 26.9993 19.5753 27.0785 19.7279 27.1147C19.8796 27.1506 20.0466 27.1431 20.2295 27.1025C20.5935 27.0216 21.0335 26.8064 21.5661 26.5165C21.7538 26.4143 21.9536 26.3025 22.1664 26.1834C23.1653 25.6244 24.4518 24.9046 26.126 24.2621L26.126 24.2621C27.9609 23.5574 29.6435 23.1528 30.8675 22.8862C31.0869 22.8384 31.292 22.795 31.4806 22.755C31.8173 22.6837 32.1018 22.6235 32.3226 22.5692C32.4948 22.5269 32.6318 22.4874 32.7261 22.4481C32.773 22.4286 32.8129 22.4077 32.8417 22.3844C32.8568 22.3721 32.8716 22.3569 32.8818 22.3387Z" fill="#847B7B" stroke="#161616" stroke-width="0.107113" stroke-miterlimit="10"/>
<path d="M32.7518 22.6297C32.7842 22.648 32.8182 22.6771 32.8238 22.7217L32.7518 22.6297ZM32.7518 22.6297C32.7178 22.6104 32.6723 22.5953 32.6189 22.5832M32.7518 22.6297L32.6189 22.5832M32.6189 22.5832C32.5116 22.5589 32.3595 22.5444 32.1704 22.5407M32.6189 22.5832L32.1704 22.5407M32.1704 22.5407C31.7914 22.5335 31.2547 22.5703 30.6092 22.6686M32.1704 22.5407L30.6092 22.6686M30.6092 22.6686C29.318 22.8653 27.5869 23.3091 25.806 24.1452M30.6092 22.6686L25.806 24.1452M25.806 24.1452C24.0242 24.9812 22.2577 25.8628 21.0769 26.6612M25.806 24.1452L21.0769 26.6612M21.0769 26.6612C20.4875 27.0596 20.038 27.4414 19.8072 27.7905M21.0769 26.6612L19.8072 27.7905M19.8072 27.7905C19.6916 27.9655 19.6276 28.1372 19.6335 28.3018M19.8072 27.7905L19.6335 28.3018M19.6335 28.3018C19.6393 28.4684 19.7163 28.6195 19.8657 28.7522M19.6335 28.3018L19.8657 28.7522M19.8657 28.7522C19.9949 28.8669 20.1356 28.932 20.2905 28.9519M19.8657 28.7522C19.8657 28.7522 19.8657 28.7522 19.8657 28.7522L20.2905 28.9519M20.2905 28.9519C20.4446 28.9717 20.6091 28.9465 20.786 28.8864M20.2905 28.9519L20.786 28.8864M20.786 28.8864C21.138 28.7669 21.5513 28.5049 22.0484 28.1584M20.786 28.8864L22.0484 28.1584M22.0484 28.1584C22.2239 28.036 22.4104 27.9028 22.6091 27.7608M22.0484 28.1584L22.6091 27.7608M22.6091 27.7608C23.54 27.0957 24.7388 26.2393 26.3289 25.4186M22.6091 27.7608L26.3289 25.4186M26.3289 25.4186C28.0722 24.519 29.6953 23.9351 30.8789 23.5381M26.3289 25.4186L30.8789 23.5381M30.8789 23.5381C31.0909 23.467 31.2891 23.4017 31.4716 23.3417M30.8789 23.5381L31.4716 23.3417M31.4716 23.3417C31.7975 23.2344 32.0729 23.1438 32.2859 23.066M31.4716 23.3417L32.2859 23.066M32.2859 23.066C32.4519 23.0053 32.5834 22.9513 32.6728 22.9019M32.2859 23.066L32.6728 22.9019M32.6728 22.9019C32.7173 22.8774 32.7546 22.8523 32.7807 22.8259M32.6728 22.9019L32.7807 22.8259M32.7807 22.8259C32.8061 22.8002 32.8291 22.7648 32.8238 22.7217L32.7807 22.8259Z" fill="#847B7B" stroke="#161616" stroke-width="0.107113" stroke-miterlimit="10"/>
<path d="M22.3695 23.7594C23.0954 23.0381 23.8582 22.2428 24.0025 21.1418C23.5417 21.6252 23.0503 22.0739 22.5328 22.4855C22.7325 22.1081 22.7625 21.6159 22.6121 21.171C22.14 21.9604 21.5393 22.6487 20.8395 23.2006C20.9606 22.8383 20.9036 22.3926 20.6931 22.0372C20.3012 23.0836 19.6253 23.9722 18.7634 24.5787C18.9942 24.4004 19.1137 24.0744 19.0698 23.7491C18.613 24.3404 18.1546 24.9331 17.6977 25.5244C17.912 25.2661 17.9633 24.85 17.8167 24.4985C17.3417 25.0461 16.8609 25.5932 16.3859 26.1409C16.4115 25.9597 16.0811 25.6261 16.1065 25.4464C15.709 26.731 15.4438 28.2102 14.4835 29.031C14.0631 29.656 14.6017 27.7562 14.6742 27.2792C13.9802 27.9858 13.7364 29.1598 13.0889 29.9183C13.055 29.9577 13.0419 30.0089 13.0102 30.0557C12.2403 31.2113 11.7515 31.4391 11.6377 32.1803C11.517 32.9689 11.239 34.0818 11.2326 34.8452C11.2231 35.9037 11.498 37.2366 11.968 37.9865C13.4923 35.9461 20.3278 30.926 22.5688 31.0257C21.9091 30.5696 21.1265 30.3607 20.4005 30.4462C21.2531 30.0702 22.2125 29.9318 23.1738 30.0453C22.5367 29.6842 21.8116 29.553 21.1535 29.6805C22.009 29.2015 23.0271 29.023 24.0409 29.1714C23.3002 28.8628 22.5205 28.705 21.7588 28.7133C22.5834 27.9115 23.5721 27.3056 24.6512 26.9401C23.8134 26.402 22.8337 26.1779 21.9367 26.3216C22.6298 25.9525 23.3959 25.7206 24.1913 25.641C23.3955 25.1225 22.4619 24.9052 21.6064 25.0408C22.3323 24.4911 23.737 24.7222 24.6445 24.5764C24.0828 24.0996 22.7397 24.466 21.9162 24.2914C22.6158 24.0699 23.6602 23.3406 24.4129 23.2661C24.0624 22.912 22.8046 23.7003 22.365 23.7605" fill="#C7B299"/>
<path d="M22.405 23.8018C23.158 23.0522 23.9019 22.2393 24.0572 21.1465C24.0638 21.102 23.9998 21.066 23.9678 21.0997C23.5073 21.5801 23.0173 22.029 22.4982 22.4434L22.585 22.5031C22.7955 22.0829 22.8069 21.6037 22.6667 21.1597C22.6541 21.1193 22.595 21.0939 22.5679 21.1382C22.1016 21.9106 21.5115 22.5955 20.8049 23.1569L20.8917 23.2167C21.0166 22.8096 20.9525 22.3793 20.7431 22.0109C20.7203 21.9711 20.6605 21.9704 20.6422 22.0154C20.2595 23.022 19.6087 23.9068 18.7275 24.5335L18.7977 24.6166C19.0612 24.3974 19.1575 24.0694 19.1216 23.7361C19.1171 23.6862 19.0505 23.6806 19.0229 23.7146C18.566 24.3059 18.1076 24.8986 17.6508 25.49L17.7402 25.5528C17.9809 25.2415 18.0039 24.8316 17.8637 24.4734C17.8483 24.4314 17.7939 24.437 17.7696 24.4655C17.2945 25.0145 16.8154 25.5589 16.3388 26.1078L16.4378 26.1439C16.4484 25.8814 16.1473 25.7016 16.1584 25.4494C16.1604 25.3913 16.0723 25.365 16.0526 25.4259C15.7466 26.4214 15.5487 27.5018 14.9679 28.3853C14.8224 28.6058 14.6499 28.7833 14.4649 28.9713C14.4297 29.0076 14.3912 29.0494 14.3629 29.0907C14.3447 29.1168 14.38 29.0951 14.3817 29.1098C14.3802 29.0936 14.373 29.0755 14.3759 29.0583C14.3984 28.9467 14.3969 28.8273 14.4182 28.7141C14.4484 28.5465 14.4843 28.3807 14.5218 28.2136C14.5918 27.9038 14.6764 27.5938 14.7263 27.2793C14.733 27.2348 14.669 27.1988 14.637 27.2325C14.0629 27.8314 13.8165 28.6399 13.4112 29.3462C13.3119 29.5197 13.199 29.6818 13.0762 29.8416C12.9401 30.0193 12.8314 30.2182 12.6979 30.4004C12.4821 30.6935 12.2446 30.9673 12.0207 31.2524C11.8639 31.4516 11.7205 31.6635 11.643 31.9072C11.5396 32.2332 11.5123 32.5902 11.4474 32.9253C11.2901 33.7501 11.1337 34.5633 11.1964 35.4068C11.259 36.2502 11.4491 37.2412 11.9166 38.004C11.9384 38.0393 11.9844 38.0476 12.0107 38.012C12.4215 37.4648 12.9326 36.9901 13.4406 36.5354C14.1347 35.9133 14.8623 35.3274 15.6067 34.7662C17.1468 33.606 18.7735 32.491 20.5238 31.6717C21.1415 31.3835 21.8625 31.0474 22.5615 31.0731C22.6139 31.0746 22.6445 31.0059 22.5976 30.9743C21.9468 30.5336 21.1749 30.3008 20.3878 30.3855L20.4214 30.4887C21.287 30.1139 22.2306 29.9887 23.1665 30.0927C23.2172 30.097 23.2513 30.0213 23.2026 29.9939C22.5717 29.6451 21.8544 29.4912 21.1408 29.6199L21.1743 29.7231C22.0489 29.2428 23.0481 29.0816 24.0335 29.2204C24.0969 29.2286 24.1119 29.1382 24.057 29.1147C23.3273 28.8142 22.5511 28.6495 21.7607 28.6524L21.792 28.7481C22.6129 27.9548 23.5926 27.3525 24.6737 26.9813C24.7126 26.9686 24.7134 26.9076 24.6816 26.8874C23.8624 26.3699 22.8913 26.1144 21.9255 26.2596L21.9591 26.3628C22.6579 25.9957 23.4146 25.7703 24.2002 25.6869C24.2472 25.6822 24.2589 25.6133 24.2217 25.5883C23.4432 25.0888 22.518 24.8416 21.5953 24.9788L21.6397 25.0742C22.0685 24.7613 22.6421 24.7197 23.1555 24.6992C23.669 24.6786 24.1571 24.6982 24.6519 24.6222C24.7007 24.6147 24.7074 24.5527 24.6734 24.5237C24.3336 24.2504 23.8466 24.2513 23.4335 24.2571C22.9314 24.264 22.4158 24.328 21.9183 24.2291L21.9372 24.3326C22.7814 24.0563 23.5224 23.4148 24.4205 23.3105C24.4587 23.3065 24.4826 23.2488 24.4528 23.2216C24.2068 22.9941 23.7862 23.1578 23.517 23.2543C23.1365 23.3923 22.7545 23.6335 22.3539 23.6985C22.2844 23.7101 22.3046 23.8166 22.3741 23.805C22.7036 23.7529 23.0194 23.5701 23.3244 23.4461C23.5101 23.3701 23.6985 23.2973 23.8933 23.2527C24.0389 23.22 24.2465 23.1793 24.3695 23.2931L24.4018 23.2041C23.492 23.3089 22.7447 23.9557 21.8916 24.2341C21.8346 24.2526 21.8647 24.3279 21.9105 24.3376C22.3737 24.4292 22.8531 24.3796 23.3206 24.3683C23.7428 24.3575 24.2639 24.3333 24.6119 24.613L24.6334 24.5144C24.0927 24.5981 23.54 24.5659 22.995 24.5983C22.5026 24.6278 21.9796 24.6927 21.5709 24.9912C21.5243 25.0251 21.5651 25.0941 21.6153 25.0867C22.5072 24.9527 23.4051 25.1947 24.1587 25.6776L24.1802 25.579C23.3858 25.663 22.6186 25.892 21.912 26.2643C21.8571 26.2931 21.8835 26.3768 21.9456 26.3675C22.8817 26.2271 23.8243 26.4758 24.6187 26.9767L24.6266 26.8828C23.538 27.2562 22.5491 27.865 21.7219 28.6636C21.6917 28.6931 21.7021 28.7594 21.7531 28.7594C22.5347 28.7572 23.2996 28.9181 24.0208 29.2149L24.0444 29.1092C23.0416 28.969 22.0188 29.134 21.1289 29.6232C21.0768 29.6523 21.0988 29.7371 21.1624 29.7265C21.8464 29.6025 22.5383 29.747 23.1412 30.0818L23.1772 29.983C22.2227 29.876 21.2582 30.0067 20.3759 30.3888C20.3169 30.4144 20.3507 30.4973 20.4094 30.4921C21.1655 30.4121 21.9116 30.6397 22.5361 31.0637L22.5722 30.9649C21.969 30.9429 21.3548 31.1891 20.8117 31.4225C19.9839 31.7802 19.1937 32.2283 18.4277 32.7004C16.7281 33.7466 15.0981 34.9356 13.5974 36.2504C13.0037 36.7705 12.3993 37.3145 11.9228 37.9478L12.0169 37.9558C11.6005 37.2788 11.4196 36.4544 11.3326 35.6744C11.2393 34.8487 11.3436 34.0645 11.4969 33.2539C11.6156 32.6267 11.6397 31.9463 12.0315 31.4178C12.2209 31.1603 12.435 30.9223 12.6313 30.6697C12.764 30.4976 12.8969 30.3227 13.016 30.1392C13.1266 29.9696 13.248 29.8096 13.3585 29.6415C13.8519 28.8932 14.0773 27.9708 14.7088 27.3142L14.6195 27.2674C14.5684 27.5948 14.4784 27.9175 14.4072 28.2418C14.3674 28.4188 14.3289 28.5975 14.2991 28.7768C14.2832 28.8788 14.2468 29.0154 14.2746 29.1181C14.2912 29.1807 14.3287 29.2188 14.3962 29.1968C14.4277 29.1864 14.4508 29.1549 14.4717 29.1319C14.555 29.043 14.6425 28.9572 14.7257 28.8697C15.1038 28.4681 15.3534 27.9654 15.5469 27.4536C15.7929 26.8037 15.954 26.1247 16.1575 25.4609L16.0516 25.4374C16.041 25.6999 16.3421 25.8796 16.331 26.1319C16.3291 26.1885 16.3946 26.2071 16.43 26.1679C16.9051 25.6189 17.3842 25.0745 17.8608 24.5256L17.7667 24.5176C17.8923 24.8411 17.867 25.2085 17.6523 25.4886C17.6097 25.5447 17.6992 25.6061 17.7418 25.5515C18.1986 24.9602 18.657 24.3675 19.1139 23.7761L19.0151 23.7547C19.0469 24.0498 18.9597 24.3393 18.7276 24.5321C18.6728 24.5769 18.7419 24.6555 18.7978 24.6151C19.693 23.978 20.3542 23.0736 20.744 22.0517L20.6431 22.0563C20.8371 22.3986 20.9038 22.7986 20.7871 23.1787C20.7711 23.2297 20.83 23.274 20.8738 23.2384C21.5868 22.6702 22.1849 21.9774 22.6562 21.1981L22.5574 21.1766C22.6917 21.6042 22.6838 22.0589 22.4805 22.4622C22.4543 22.5138 22.5282 22.5536 22.5673 22.522C23.0864 22.1076 23.5779 21.6589 24.037 21.1783L23.9476 21.1314C23.7965 22.1925 23.0646 22.9846 22.3338 23.7128C22.2844 23.7625 22.3546 23.8455 22.404 23.7959L22.405 23.8018Z" fill="#161616"/>
</g>
</g>
<path d="M58.9993 34.1074V26.4711H60.4261V27.714H60.5206C60.6797 27.293 60.9399 26.9649 61.3011 26.7296C61.6624 26.4909 62.0949 26.3716 62.5987 26.3716C63.1091 26.3716 63.5367 26.4909 63.8814 26.7296C64.2294 26.9682 64.4863 27.2963 64.652 27.714H64.7315C64.9138 27.3063 65.2038 26.9815 65.6016 26.7395C65.9993 26.4943 66.4732 26.3716 67.0234 26.3716C67.7161 26.3716 68.2812 26.5887 68.7188 27.0229C69.1596 27.4571 69.38 28.1117 69.38 28.9867V34.1074H67.8935V29.1259C67.8935 28.6088 67.7526 28.2343 67.4709 28.0023C67.1892 27.7703 66.8527 27.6543 66.4616 27.6543C65.9777 27.6543 65.6016 27.8034 65.3331 28.1017C65.0646 28.3967 64.9304 28.7762 64.9304 29.2402V34.1074H63.4489V29.0314C63.4489 28.6171 63.3196 28.284 63.0611 28.0321C62.8026 27.7802 62.4661 27.6543 62.0518 27.6543C61.7701 27.6543 61.5099 27.7289 61.2713 27.878C61.036 28.0239 60.8454 28.2277 60.6996 28.4895C60.5571 28.7514 60.4858 29.0546 60.4858 29.3993V34.1074H58.9993ZM73.5946 34.2765C73.1107 34.2765 72.6732 34.187 72.2821 34.008C71.891 33.8257 71.5811 33.5622 71.3525 33.2175C71.1271 32.8728 71.0144 32.4502 71.0144 31.9498C71.0144 31.5189 71.0972 31.1642 71.263 30.8858C71.4287 30.6074 71.6524 30.387 71.9341 30.2246C72.2158 30.0622 72.5307 29.9396 72.8787 29.8567C73.2267 29.7739 73.5814 29.7109 73.9426 29.6678C74.4 29.6148 74.7712 29.5717 75.0563 29.5385C75.3413 29.5021 75.5485 29.4441 75.6777 29.3645C75.807 29.285 75.8716 29.1557 75.8716 28.9767V28.9419C75.8716 28.5078 75.749 28.1713 75.5037 27.9327C75.2618 27.6941 74.9005 27.5748 74.4199 27.5748C73.9194 27.5748 73.525 27.6858 73.2367 27.9078C72.9516 28.1266 72.7544 28.3702 72.6451 28.6387L71.248 28.3205C71.4138 27.8565 71.6557 27.4819 71.9739 27.1969C72.2954 26.9086 72.665 26.6998 73.0826 26.5705C73.5002 26.4379 73.9393 26.3716 74.4 26.3716C74.705 26.3716 75.0281 26.4081 75.3695 26.481C75.7142 26.5506 76.0357 26.6799 76.334 26.8688C76.6356 27.0577 76.8825 27.3278 77.0748 27.6792C77.267 28.0272 77.3631 28.4796 77.3631 29.0364V34.1074H75.9114V33.0634H75.8517C75.7556 33.2556 75.6114 33.4445 75.4192 33.6301C75.227 33.8158 74.9801 33.9699 74.6784 34.0925C74.3768 34.2151 74.0156 34.2765 73.5946 34.2765ZM73.9178 33.0833C74.3288 33.0833 74.6801 33.0021 74.9718 32.8397C75.2667 32.6773 75.4905 32.4651 75.6429 32.2033C75.7987 31.9382 75.8766 31.6548 75.8766 31.3532V30.3688C75.8236 30.4218 75.7208 30.4715 75.5684 30.5179C75.4192 30.561 75.2485 30.5991 75.0563 30.6323C74.8641 30.6621 74.6768 30.6903 74.4945 30.7168C74.3122 30.74 74.1597 30.7599 74.0371 30.7765C73.7488 30.8129 73.4853 30.8742 73.2466 30.9604C73.0113 31.0466 72.8224 31.1709 72.6799 31.3333C72.5407 31.4924 72.4711 31.7045 72.4711 31.9696C72.4711 32.3375 72.6069 32.6159 72.8787 32.8049C73.1505 32.9905 73.4969 33.0833 73.9178 33.0833ZM79.343 34.1074V26.4711H80.8295V34.1074H79.343ZM80.0938 25.2928C79.8352 25.2928 79.6132 25.2066 79.4276 25.0343C79.2453 24.8586 79.1541 24.6498 79.1541 24.4078C79.1541 24.1626 79.2453 23.9538 79.4276 23.7814C79.6132 23.6058 79.8352 23.5179 80.0938 23.5179C80.3523 23.5179 80.5727 23.6058 80.755 23.7814C80.9406 23.9538 81.0334 24.1626 81.0334 24.4078C81.0334 24.6498 80.9406 24.8586 80.755 25.0343C80.5727 25.2066 80.3523 25.2928 80.0938 25.2928ZM84.3159 29.5733V34.1074H82.8294V26.4711H84.2562V27.714H84.3507C84.5263 27.3096 84.8014 26.9848 85.176 26.7395C85.5538 26.4943 86.0294 26.3716 86.6028 26.3716C87.1232 26.3716 87.5789 26.481 87.97 26.6998C88.3611 26.9152 88.6644 27.2367 88.8798 27.6642C89.0952 28.0918 89.2029 28.6204 89.2029 29.2502V34.1074H87.7164V29.4292C87.7164 28.8757 87.5723 28.4431 87.2839 28.1316C86.9956 27.8167 86.5995 27.6593 86.0957 27.6593C85.751 27.6593 85.4444 27.7338 85.176 27.883C84.9108 28.0321 84.7003 28.2509 84.5446 28.5392C84.3921 28.8243 84.3159 29.169 84.3159 29.5733ZM94.7612 26.4711V27.6642H90.59V26.4711H94.7612ZM91.7086 24.6415H93.1951V31.8652C93.1951 32.1536 93.2382 32.3707 93.3244 32.5165C93.4106 32.659 93.5216 32.7568 93.6575 32.8098C93.7967 32.8596 93.9475 32.8844 94.1099 32.8844C94.2292 32.8844 94.3336 32.8761 94.4231 32.8596C94.5126 32.843 94.5822 32.8297 94.6319 32.8198L94.9004 34.0478C94.8142 34.0809 94.6916 34.1141 94.5325 34.1472C94.3734 34.1837 94.1745 34.2035 93.9359 34.2069C93.5448 34.2135 93.1802 34.1439 92.8422 33.998C92.5041 33.8522 92.2306 33.6268 92.0218 33.3219C91.813 33.017 91.7086 32.6342 91.7086 32.1735V24.6415ZM98.6278 34.2765C98.1439 34.2765 97.7064 34.187 97.3153 34.008C96.9242 33.8257 96.6143 33.5622 96.3857 33.2175C96.1603 32.8728 96.0476 32.4502 96.0476 31.9498C96.0476 31.5189 96.1304 31.1642 96.2962 30.8858C96.4619 30.6074 96.6856 30.387 96.9673 30.2246C97.2491 30.0622 97.5639 29.9396 97.9119 29.8567C98.2599 29.7739 98.6146 29.7109 98.9759 29.6678C99.4332 29.6148 99.8045 29.5717 100.089 29.5385C100.375 29.5021 100.582 29.4441 100.711 29.3645C100.84 29.285 100.905 29.1557 100.905 28.9767V28.9419C100.905 28.5078 100.782 28.1713 100.537 27.9327C100.295 27.6941 99.9337 27.5748 99.4531 27.5748C98.9527 27.5748 98.5582 27.6858 98.2699 27.9078C97.9848 28.1266 97.7876 28.3702 97.6783 28.6387L96.2812 28.3205C96.447 27.8565 96.6889 27.4819 97.0071 27.1969C97.3286 26.9086 97.6982 26.6998 98.1158 26.5705C98.5334 26.4379 98.9725 26.3716 99.4332 26.3716C99.7382 26.3716 100.061 26.4081 100.403 26.481C100.747 26.5506 101.069 26.6799 101.367 26.8688C101.669 27.0577 101.916 27.3278 102.108 27.6792C102.3 28.0272 102.396 28.4796 102.396 29.0364V34.1074H100.945V33.0634H100.885C100.789 33.2556 100.645 33.4445 100.452 33.6301C100.26 33.8158 100.013 33.9699 99.7116 34.0925C99.41 34.2151 99.0488 34.2765 98.6278 34.2765ZM98.951 33.0833C99.362 33.0833 99.7133 33.0021 100.005 32.8397C100.3 32.6773 100.524 32.4651 100.676 32.2033C100.832 31.9382 100.91 31.6548 100.91 31.3532V30.3688C100.857 30.4218 100.754 30.4715 100.602 30.5179C100.452 30.561 100.282 30.5991 100.089 30.6323C99.8973 30.6621 99.71 30.6903 99.5277 30.7168C99.3454 30.74 99.1929 30.7599 99.0703 30.7765C98.782 30.8129 98.5185 30.8742 98.2798 30.9604C98.0445 31.0466 97.8556 31.1709 97.7131 31.3333C97.5739 31.4924 97.5043 31.7045 97.5043 31.9696C97.5043 32.3375 97.6402 32.6159 97.9119 32.8049C98.1837 32.9905 98.5301 33.0833 98.951 33.0833ZM104.376 34.1074V26.4711H105.863V34.1074H104.376ZM105.127 25.2928C104.868 25.2928 104.646 25.2066 104.461 25.0343C104.278 24.8586 104.187 24.6498 104.187 24.4078C104.187 24.1626 104.278 23.9538 104.461 23.7814C104.646 23.6058 104.868 23.5179 105.127 23.5179C105.385 23.5179 105.606 23.6058 105.788 23.7814C105.974 23.9538 106.067 24.1626 106.067 24.4078C106.067 24.6498 105.974 24.8586 105.788 25.0343C105.606 25.2066 105.385 25.2928 105.127 25.2928ZM109.349 29.5733V34.1074H107.863V26.4711H109.289V27.714H109.384C109.56 27.3096 109.835 26.9848 110.209 26.7395C110.587 26.4943 111.063 26.3716 111.636 26.3716C112.156 26.3716 112.612 26.481 113.003 26.6998C113.394 26.9152 113.698 27.2367 113.913 27.6642C114.128 28.0918 114.236 28.6204 114.236 29.2502V34.1074H112.75V29.4292C112.75 28.8757 112.605 28.4431 112.317 28.1316C112.029 27.8167 111.633 27.6593 111.129 27.6593C110.784 27.6593 110.478 27.7338 110.209 27.883C109.944 28.0321 109.734 28.2509 109.578 28.5392C109.425 28.8243 109.349 29.169 109.349 29.5733ZM119.521 34.2615C118.769 34.2615 118.121 34.1008 117.577 33.7793C117.037 33.4545 116.619 32.9988 116.324 32.4121C116.033 31.8221 115.887 31.1311 115.887 30.339C115.887 29.5568 116.033 28.8674 116.324 28.2708C116.619 27.6742 117.03 27.2085 117.557 26.8738C118.087 26.539 118.707 26.3716 119.417 26.3716C119.847 26.3716 120.265 26.4429 120.669 26.5854C121.074 26.7279 121.437 26.9516 121.758 27.2566C122.08 27.5615 122.333 27.9576 122.519 28.4448C122.704 28.9287 122.797 29.517 122.797 30.2097V30.7367H116.727V29.623H121.341C121.341 29.2319 121.261 28.8856 121.102 28.584C120.943 28.2791 120.719 28.0388 120.431 27.8631C120.146 27.6874 119.811 27.5996 119.426 27.5996C119.009 27.5996 118.644 27.7024 118.333 27.9078C118.025 28.11 117.786 28.3752 117.617 28.7033C117.451 29.0281 117.368 29.3811 117.368 29.7623V30.6323C117.368 31.1427 117.458 31.5769 117.637 31.9348C117.819 32.2928 118.073 32.5662 118.397 32.7551C118.722 32.9408 119.102 33.0336 119.536 33.0336C119.818 33.0336 120.074 32.9938 120.306 32.9142C120.538 32.8314 120.739 32.7087 120.908 32.5463C121.077 32.3839 121.206 32.1834 121.296 31.9448L122.703 32.1983C122.59 32.6126 122.388 32.9756 122.096 33.2871C121.808 33.5953 121.445 33.8356 121.007 34.008C120.573 34.177 120.078 34.2615 119.521 34.2615ZM124.447 34.1074V26.4711H125.883V27.6841H125.963C126.102 27.2731 126.347 26.95 126.699 26.7147C127.053 26.476 127.454 26.3567 127.902 26.3567C127.995 26.3567 128.104 26.36 128.23 26.3667C128.359 26.3733 128.46 26.3816 128.533 26.3915V27.8134C128.474 27.7968 128.367 27.7786 128.215 27.7587C128.063 27.7355 127.91 27.7239 127.758 27.7239C127.406 27.7239 127.093 27.7985 126.818 27.9476C126.546 28.0935 126.331 28.2973 126.172 28.5591C126.013 28.8176 125.933 29.1126 125.933 29.4441V34.1074H124.447Z" fill="white"/>
<path d="M142.878 33.7551C142.213 33.7551 141.641 33.5982 141.161 33.2843C140.68 32.9703 140.311 32.5379 140.053 31.987C139.794 31.4361 139.665 30.8068 139.665 30.0989C139.665 29.3787 139.797 28.7432 140.062 28.1923C140.33 27.6383 140.702 27.2059 141.179 26.8951C141.659 26.5811 142.219 26.4242 142.859 26.4242C143.358 26.4242 143.807 26.5165 144.207 26.7012C144.607 26.8858 144.935 27.1444 145.191 27.4767C145.446 27.8091 145.605 28.1969 145.666 28.6401H144.577C144.494 28.3169 144.309 28.0307 144.023 27.7814C143.74 27.5291 143.358 27.4029 142.878 27.4029C142.453 27.4029 142.081 27.5137 141.761 27.7353C141.444 27.9538 141.196 28.2631 141.017 28.6632C140.842 29.0602 140.754 29.5265 140.754 30.062C140.754 30.6098 140.84 31.0868 141.013 31.4931C141.188 31.8993 141.434 32.2148 141.751 32.4395C142.071 32.6641 142.447 32.7765 142.878 32.7765C143.161 32.7765 143.418 32.7272 143.649 32.6287C143.88 32.5302 144.075 32.3887 144.235 32.204C144.395 32.0194 144.509 31.7978 144.577 31.5392H145.666C145.605 31.9578 145.452 32.3348 145.209 32.6703C144.969 33.0027 144.651 33.2673 144.254 33.4643C143.86 33.6582 143.401 33.7551 142.878 33.7551ZM150.14 33.7551C149.499 33.7551 148.938 33.6028 148.455 33.2981C147.974 32.9934 147.599 32.5672 147.328 32.0194C147.06 31.4715 146.926 30.8314 146.926 30.0989C146.926 29.3603 147.06 28.7155 147.328 28.1646C147.599 27.6137 147.974 27.1859 148.455 26.8812C148.938 26.5765 149.499 26.4242 150.14 26.4242C150.78 26.4242 151.34 26.5765 151.82 26.8812C152.303 27.1859 152.679 27.6137 152.946 28.1646C153.217 28.7155 153.353 29.3603 153.353 30.0989C153.353 30.8314 153.217 31.4715 152.946 32.0194C152.679 32.5672 152.303 32.9934 151.82 33.2981C151.34 33.6028 150.78 33.7551 150.14 33.7551ZM150.14 32.7765C150.626 32.7765 151.026 32.6518 151.34 32.4025C151.654 32.1532 151.886 31.8255 152.037 31.4192C152.188 31.013 152.263 30.5729 152.263 30.0989C152.263 29.6249 152.188 29.1833 152.037 28.774C151.886 28.3646 151.654 28.0338 151.34 27.7814C151.026 27.5291 150.626 27.4029 150.14 27.4029C149.653 27.4029 149.253 27.5291 148.939 27.7814C148.625 28.0338 148.393 28.3646 148.242 28.774C148.091 29.1833 148.016 29.6249 148.016 30.0989C148.016 30.5729 148.091 31.013 148.242 31.4192C148.393 31.8255 148.625 32.1532 148.939 32.4025C149.253 32.6518 149.653 32.7765 150.14 32.7765ZM155.016 33.6074V26.5165H156.068V27.6245H156.161C156.308 27.2459 156.547 26.952 156.876 26.7427C157.205 26.5304 157.601 26.4242 158.063 26.4242C158.53 26.4242 158.92 26.5304 159.231 26.7427C159.544 26.952 159.789 27.2459 159.965 27.6245H160.038C160.22 27.2582 160.492 26.9674 160.856 26.752C161.219 26.5334 161.654 26.4242 162.162 26.4242C162.796 26.4242 163.315 26.6227 163.718 27.0197C164.121 27.4136 164.323 28.0276 164.323 28.8617V33.6074H163.233V28.8617C163.233 28.3385 163.09 27.9645 162.804 27.7399C162.517 27.5152 162.18 27.4029 161.793 27.4029C161.294 27.4029 160.908 27.5537 160.634 27.8553C160.36 28.1538 160.223 28.5324 160.223 28.9909V33.6074H159.115V28.7509C159.115 28.3477 158.984 28.023 158.723 27.7768C158.461 27.5275 158.124 27.4029 157.712 27.4029C157.429 27.4029 157.164 27.4783 156.918 27.6291C156.675 27.7799 156.478 27.9892 156.327 28.2569C156.179 28.5216 156.105 28.8278 156.105 29.1756V33.6074H155.016ZM166.315 33.6074V26.5165H167.367V27.6245H167.459C167.607 27.2459 167.846 26.952 168.175 26.7427C168.504 26.5304 168.9 26.4242 169.361 26.4242C169.829 26.4242 170.219 26.5304 170.529 26.7427C170.843 26.952 171.088 27.2459 171.263 27.6245H171.337C171.519 27.2582 171.791 26.9674 172.154 26.752C172.518 26.5334 172.953 26.4242 173.461 26.4242C174.095 26.4242 174.613 26.6227 175.017 27.0197C175.42 27.4136 175.621 28.0276 175.621 28.8617V33.6074H174.532V28.8617C174.532 28.3385 174.389 27.9645 174.103 27.7399C173.816 27.5152 173.479 27.4029 173.092 27.4029C172.593 27.4029 172.207 27.5537 171.933 27.8553C171.659 28.1538 171.522 28.5324 171.522 28.9909V33.6074H170.414V28.7509C170.414 28.3477 170.283 28.023 170.022 27.7768C169.76 27.5275 169.423 27.4029 169.011 27.4029C168.727 27.4029 168.463 27.4783 168.217 27.6291C167.973 27.7799 167.776 27.9892 167.626 28.2569C167.478 28.5216 167.404 28.8278 167.404 29.1756V33.6074H166.315ZM180.586 33.7551C179.903 33.7551 179.314 33.6043 178.818 33.3027C178.326 32.998 177.946 32.5733 177.678 32.0286C177.413 31.4808 177.281 30.8437 177.281 30.1174C177.281 29.391 177.413 28.7509 177.678 28.1969C177.946 27.6399 178.318 27.2059 178.795 26.8951C179.275 26.5811 179.835 26.4242 180.476 26.4242C180.845 26.4242 181.21 26.4857 181.57 26.6088C181.93 26.7319 182.258 26.932 182.553 27.209C182.848 27.4829 183.084 27.8461 183.259 28.2985C183.435 28.7509 183.522 29.3079 183.522 29.9696V30.4313H178.057V29.4895H182.415C182.415 29.0894 182.334 28.7324 182.174 28.4185C182.017 28.1046 181.793 27.8568 181.5 27.6752C181.211 27.4937 180.87 27.4029 180.476 27.4029C180.042 27.4029 179.666 27.5106 179.349 27.726C179.035 27.9384 178.794 28.2154 178.624 28.557C178.455 28.8986 178.37 29.2649 178.37 29.6557V30.2836C178.37 30.8191 178.463 31.273 178.647 31.6454C178.835 32.0147 179.095 32.2963 179.428 32.4902C179.76 32.681 180.146 32.7765 180.586 32.7765C180.873 32.7765 181.131 32.7364 181.362 32.6564C181.596 32.5733 181.797 32.4502 181.967 32.2871C182.136 32.1209 182.267 31.9147 182.359 31.6685L183.412 31.964C183.301 32.321 183.115 32.6349 182.853 32.9057C182.591 33.1735 182.268 33.3828 181.884 33.5336C181.499 33.6813 181.066 33.7551 180.586 33.7551ZM186.269 29.3418V33.6074H185.18V26.5165H186.232V27.6245H186.325C186.491 27.2644 186.743 26.9751 187.082 26.7566C187.42 26.535 187.857 26.4242 188.393 26.4242C188.873 26.4242 189.293 26.5227 189.653 26.7196C190.013 26.9135 190.293 27.209 190.493 27.606C190.693 27.9999 190.793 28.4985 190.793 29.1017V33.6074H189.704V29.1756C189.704 28.6185 189.559 28.1846 189.27 27.8738C188.981 27.5598 188.584 27.4029 188.079 27.4029C187.731 27.4029 187.42 27.4783 187.146 27.6291C186.876 27.7799 186.662 27.9999 186.505 28.2892C186.348 28.5785 186.269 28.9294 186.269 29.3418ZM195.868 26.5165V27.4398H192.193V26.5165H195.868ZM193.264 24.8176H194.354V31.5762C194.354 31.8839 194.398 32.1148 194.488 32.2686C194.58 32.4194 194.697 32.521 194.839 32.5733C194.983 32.6226 195.136 32.6472 195.296 32.6472C195.416 32.6472 195.514 32.641 195.591 32.6287C195.668 32.6133 195.73 32.601 195.776 32.5918L195.997 33.5705C195.923 33.5982 195.82 33.6259 195.688 33.6536C195.556 33.6844 195.388 33.6998 195.185 33.6998C194.877 33.6998 194.575 33.6336 194.28 33.5012C193.988 33.3689 193.744 33.1673 193.551 32.8965C193.36 32.6257 193.264 32.284 193.264 31.8716V24.8176ZM200.404 33.7551C199.721 33.7551 199.131 33.6043 198.636 33.3027C198.143 32.998 197.763 32.5733 197.495 32.0286C197.231 31.4808 197.098 30.8437 197.098 30.1174C197.098 29.391 197.231 28.7509 197.495 28.1969C197.763 27.6399 198.136 27.2059 198.613 26.8951C199.093 26.5811 199.653 26.4242 200.293 26.4242C200.662 26.4242 201.027 26.4857 201.387 26.6088C201.747 26.7319 202.075 26.932 202.37 27.209C202.666 27.4829 202.901 27.8461 203.077 28.2985C203.252 28.7509 203.34 29.3079 203.34 29.9696V30.4313H197.874V29.4895H202.232C202.232 29.0894 202.152 28.7324 201.992 28.4185C201.835 28.1046 201.61 27.8568 201.318 27.6752C201.029 27.4937 200.687 27.4029 200.293 27.4029C199.859 27.4029 199.484 27.5106 199.167 27.726C198.853 27.9384 198.611 28.2154 198.442 28.557C198.272 28.8986 198.188 29.2649 198.188 29.6557V30.2836C198.188 30.8191 198.28 31.273 198.465 31.6454C198.653 32.0147 198.913 32.2963 199.245 32.4902C199.577 32.681 199.964 32.7765 200.404 32.7765C200.69 32.7765 200.949 32.7364 201.179 32.6564C201.413 32.5733 201.615 32.4502 201.784 32.2871C201.953 32.1209 202.084 31.9147 202.176 31.6685L203.229 31.964C203.118 32.321 202.932 32.6349 202.67 32.9057C202.409 33.1735 202.086 33.3828 201.701 33.5336C201.316 33.6813 200.884 33.7551 200.404 33.7551ZM207.675 33.7551C207.084 33.7551 206.562 33.6059 206.11 33.3074C205.657 33.0057 205.303 32.581 205.048 32.0332C204.792 31.4823 204.665 30.8314 204.665 30.0804C204.665 29.3356 204.792 28.6893 205.048 28.1415C205.303 27.5937 205.659 27.1705 206.114 26.872C206.57 26.5734 207.096 26.4242 207.693 26.4242C208.155 26.4242 208.52 26.5011 208.787 26.655C209.058 26.8058 209.264 26.9782 209.406 27.1721C209.551 27.3629 209.663 27.5198 209.743 27.6429H209.835V24.1529H210.925V33.6074H209.872V32.5179H209.743C209.663 32.6472 209.549 32.8103 209.401 33.0073C209.254 33.2012 209.043 33.3751 208.769 33.5289C208.495 33.6797 208.13 33.7551 207.675 33.7551ZM207.822 32.7765C208.259 32.7765 208.629 32.6626 208.93 32.4348C209.232 32.204 209.461 31.8855 209.618 31.4792C209.775 31.0699 209.854 30.5975 209.854 30.062C209.854 29.5326 209.777 29.0694 209.623 28.6724C209.469 28.2723 209.241 27.9615 208.94 27.7399C208.638 27.5152 208.266 27.4029 207.822 27.4029C207.361 27.4029 206.976 27.5214 206.668 27.7583C206.364 27.9922 206.134 28.3108 205.98 28.714C205.83 29.1141 205.754 29.5634 205.754 30.062C205.754 30.5667 205.831 31.0253 205.985 31.4377C206.142 31.847 206.373 32.1732 206.678 32.4164C206.985 32.6564 207.367 32.7765 207.822 32.7765ZM220.033 24.1529V33.6074H218.888V25.3532H218.833L216.525 26.8858V25.7225L218.888 24.1529H220.033ZM229.104 33.7551C228.513 33.7551 227.992 33.6059 227.539 33.3074C227.087 33.0057 226.733 32.581 226.478 32.0332C226.222 31.4823 226.094 30.8314 226.094 30.0804C226.094 29.3356 226.222 28.6893 226.478 28.1415C226.733 27.5937 227.089 27.1705 227.544 26.872C228 26.5734 228.526 26.4242 229.123 26.4242C229.585 26.4242 229.949 26.5011 230.217 26.655C230.488 26.8058 230.694 26.9782 230.836 27.1721C230.98 27.3629 231.093 27.5198 231.173 27.6429H231.265V24.1529H232.354V33.6074H231.302V32.5179H231.173C231.093 32.6472 230.979 32.8103 230.831 33.0073C230.683 33.2012 230.472 33.3751 230.199 33.5289C229.925 33.6797 229.56 33.7551 229.104 33.7551ZM229.252 32.7765C229.689 32.7765 230.058 32.6626 230.36 32.4348C230.662 32.204 230.891 31.8855 231.048 31.4792C231.205 31.0699 231.283 30.5975 231.283 30.062C231.283 29.5326 231.206 29.0694 231.053 28.6724C230.899 28.2723 230.671 27.9615 230.369 27.7399C230.068 27.5152 229.695 27.4029 229.252 27.4029C228.79 27.4029 228.406 27.5214 228.098 27.7583C227.793 27.9922 227.564 28.3108 227.41 28.714C227.259 29.1141 227.184 29.5634 227.184 30.062C227.184 30.5667 227.261 31.0253 227.415 31.4377C227.572 31.847 227.803 32.1732 228.107 32.4164C228.415 32.6564 228.797 32.7765 229.252 32.7765ZM236.588 33.7736C236.138 33.7736 235.731 33.689 235.364 33.5197C234.998 33.3474 234.707 33.0996 234.492 32.7765C234.276 32.4502 234.169 32.0563 234.169 31.5946C234.169 31.1884 234.249 30.8591 234.409 30.6067C234.569 30.3513 234.783 30.1512 235.05 30.0066C235.318 29.8619 235.614 29.7542 235.937 29.6834C236.263 29.6096 236.591 29.5511 236.92 29.508C237.351 29.4526 237.7 29.411 237.968 29.3833C238.239 29.3526 238.436 29.3018 238.559 29.231C238.685 29.1602 238.748 29.0371 238.748 28.8617V28.8248C238.748 28.3693 238.624 28.0153 238.374 27.763C238.128 27.5106 237.754 27.3844 237.252 27.3844C236.732 27.3844 236.325 27.4983 236.029 27.726C235.734 27.9538 235.526 28.1969 235.406 28.4554L234.372 28.0861C234.556 27.6552 234.803 27.3198 235.11 27.0797C235.421 26.8366 235.76 26.6673 236.126 26.5719C236.495 26.4734 236.859 26.4242 237.216 26.4242C237.443 26.4242 237.705 26.4519 238 26.5073C238.299 26.5596 238.587 26.6689 238.864 26.835C239.144 27.0012 239.376 27.2521 239.561 27.5875C239.745 27.923 239.838 28.3723 239.838 28.9355V33.6074H238.748V32.6472H238.693C238.619 32.8011 238.496 32.9657 238.324 33.1412C238.151 33.3166 237.922 33.4658 237.636 33.589C237.349 33.7121 237 33.7736 236.588 33.7736ZM236.754 32.7949C237.185 32.7949 237.548 32.7103 237.843 32.541C238.142 32.3717 238.367 32.1532 238.517 31.8855C238.671 31.6177 238.748 31.3361 238.748 31.0407V30.0435C238.702 30.0989 238.6 30.1497 238.444 30.1958C238.29 30.2389 238.111 30.2774 237.908 30.3113C237.708 30.342 237.513 30.3697 237.322 30.3944C237.134 30.4159 236.982 30.4344 236.865 30.4498C236.582 30.4867 236.317 30.5467 236.071 30.6298C235.828 30.7098 235.631 30.8314 235.48 30.9945C235.332 31.1545 235.258 31.373 235.258 31.65C235.258 32.0286 235.398 32.3148 235.678 32.5087C235.961 32.6995 236.32 32.7949 236.754 32.7949ZM242.274 36.2665C242.089 36.2665 241.925 36.2511 241.78 36.2203C241.635 36.1926 241.535 36.165 241.48 36.1373L241.757 35.177C242.022 35.2447 242.256 35.2694 242.459 35.2509C242.662 35.2324 242.842 35.1416 242.999 34.9785C243.159 34.8185 243.305 34.5584 243.437 34.1983L243.641 33.6444L241.018 26.5165H242.2L244.158 32.1671H244.231L246.189 26.5165H247.371L244.361 34.6415C244.225 35.0078 244.058 35.3109 243.858 35.551C243.657 35.7941 243.425 35.9741 243.16 36.0911C242.899 36.208 242.603 36.2665 242.274 36.2665ZM254.552 33.7736C254.102 33.7736 253.694 33.689 253.328 33.5197C252.962 33.3474 252.671 33.0996 252.456 32.7765C252.24 32.4502 252.133 32.0563 252.133 31.5946C252.133 31.1884 252.213 30.8591 252.373 30.6067C252.533 30.3513 252.747 30.1512 253.014 30.0066C253.282 29.8619 253.578 29.7542 253.901 29.6834C254.227 29.6096 254.555 29.5511 254.884 29.508C255.315 29.4526 255.664 29.411 255.932 29.3833C256.203 29.3526 256.4 29.3018 256.523 29.231C256.649 29.1602 256.712 29.0371 256.712 28.8617V28.8248C256.712 28.3693 256.587 28.0153 256.338 27.763C256.092 27.5106 255.718 27.3844 255.216 27.3844C254.696 27.3844 254.288 27.4983 253.993 27.726C253.698 27.9538 253.49 28.1969 253.37 28.4554L252.336 28.0861C252.52 27.6552 252.767 27.3198 253.074 27.0797C253.385 26.8366 253.724 26.6673 254.09 26.5719C254.459 26.4734 254.822 26.4242 255.179 26.4242C255.407 26.4242 255.669 26.4519 255.964 26.5073C256.263 26.5596 256.551 26.6689 256.828 26.835C257.108 27.0012 257.34 27.2521 257.525 27.5875C257.709 27.923 257.802 28.3723 257.802 28.9355V33.6074H256.712V32.6472H256.657C256.583 32.8011 256.46 32.9657 256.287 33.1412C256.115 33.3166 255.886 33.4658 255.6 33.589C255.313 33.7121 254.964 33.7736 254.552 33.7736ZM254.718 32.7949C255.149 32.7949 255.512 32.7103 255.807 32.541C256.106 32.3717 256.33 32.1532 256.481 31.8855C256.635 31.6177 256.712 31.3361 256.712 31.0407V30.0435C256.666 30.0989 256.564 30.1497 256.407 30.1958C256.254 30.2389 256.075 30.2774 255.872 30.3113C255.672 30.342 255.476 30.3697 255.286 30.3944C255.098 30.4159 254.946 30.4344 254.829 30.4498C254.545 30.4867 254.281 30.5467 254.035 30.6298C253.791 30.7098 253.594 30.8314 253.444 30.9945C253.296 31.1545 253.222 31.373 253.222 31.65C253.222 32.0286 253.362 32.3148 253.642 32.5087C253.925 32.6995 254.284 32.7949 254.718 32.7949ZM262.652 36.4142C262.126 36.4142 261.674 36.3465 261.295 36.2111C260.917 36.0788 260.601 35.9033 260.349 35.6848C260.099 35.4694 259.901 35.2386 259.753 34.9924L260.621 34.383C260.72 34.5123 260.844 34.66 260.995 34.8262C261.146 34.9954 261.352 35.1416 261.614 35.2647C261.878 35.3909 262.225 35.454 262.652 35.454C263.225 35.454 263.697 35.3155 264.07 35.0385C264.442 34.7615 264.628 34.3276 264.628 33.7367V32.2963H264.536C264.456 32.4256 264.342 32.5856 264.194 32.7765C264.05 32.9642 263.84 33.1319 263.566 33.2797C263.296 33.4243 262.929 33.4966 262.468 33.4966C261.895 33.4966 261.381 33.3612 260.926 33.0904C260.473 32.8195 260.115 32.4256 259.85 31.9086C259.589 31.3915 259.458 30.7637 259.458 30.025C259.458 29.2987 259.585 28.6663 259.841 28.1277C260.096 27.586 260.452 27.1674 260.907 26.872C261.363 26.5734 261.889 26.4242 262.486 26.4242C262.948 26.4242 263.314 26.5011 263.585 26.655C263.859 26.8058 264.068 26.9782 264.213 27.1721C264.36 27.3629 264.474 27.5198 264.554 27.6429H264.665V26.5165H265.718V33.8105C265.718 34.4199 265.579 34.9154 265.302 35.2971C265.028 35.6818 264.659 35.9634 264.194 36.1419C263.733 36.3234 263.219 36.4142 262.652 36.4142ZM262.615 32.5179C263.052 32.5179 263.422 32.4179 263.723 32.2179C264.025 32.0178 264.254 31.7301 264.411 31.3546C264.568 30.9791 264.647 30.5298 264.647 30.0066C264.647 29.4957 264.57 29.0448 264.416 28.6539C264.262 28.2631 264.034 27.9569 263.733 27.7353C263.431 27.5137 263.059 27.4029 262.615 27.4029C262.154 27.4029 261.769 27.5198 261.461 27.7537C261.157 27.9876 260.927 28.3016 260.773 28.6955C260.623 29.0894 260.547 29.5265 260.547 30.0066C260.547 30.499 260.624 30.9345 260.778 31.313C260.935 31.6885 261.166 31.984 261.471 32.1994C261.778 32.4118 262.16 32.5179 262.615 32.5179ZM270.593 33.7551C269.953 33.7551 269.391 33.6028 268.908 33.2981C268.428 32.9934 268.052 32.5672 267.781 32.0194C267.513 31.4715 267.38 30.8314 267.38 30.0989C267.38 29.3603 267.513 28.7155 267.781 28.1646C268.052 27.6137 268.428 27.1859 268.908 26.8812C269.391 26.5765 269.953 26.4242 270.593 26.4242C271.233 26.4242 271.793 26.5765 272.273 26.8812C272.756 27.1859 273.132 27.6137 273.4 28.1646C273.67 28.7155 273.806 29.3603 273.806 30.0989C273.806 30.8314 273.67 31.4715 273.4 32.0194C273.132 32.5672 272.756 32.9934 272.273 33.2981C271.793 33.6028 271.233 33.7551 270.593 33.7551ZM270.593 32.7765C271.079 32.7765 271.479 32.6518 271.793 32.4025C272.107 32.1532 272.339 31.8255 272.49 31.4192C272.641 31.013 272.716 30.5729 272.716 30.0989C272.716 29.6249 272.641 29.1833 272.49 28.774C272.339 28.3646 272.107 28.0338 271.793 27.7814C271.479 27.5291 271.079 27.4029 270.593 27.4029C270.106 27.4029 269.706 27.5291 269.392 27.7814C269.078 28.0338 268.846 28.3646 268.695 28.774C268.545 29.1833 268.469 29.6249 268.469 30.0989C268.469 30.5729 268.545 31.013 268.695 31.4192C268.846 31.8255 269.078 32.1532 269.392 32.4025C269.706 32.6518 270.106 32.7765 270.593 32.7765Z" fill="#919399"/>
<path d="M23.9318 91.6756C22.7727 91.6756 21.7481 91.5165 20.858 91.1983C19.9678 90.8839 19.2197 90.4199 18.6136 89.8063C18.0076 89.1926 17.5492 88.4408 17.2386 87.5506C16.928 86.6605 16.7727 85.6415 16.7727 84.4938C16.7727 83.3839 16.9299 82.3915 17.2443 81.5165C17.5625 80.6415 18.0227 79.8991 18.625 79.2892C19.2311 78.6756 19.9659 78.2078 20.8295 77.8858C21.697 77.5639 22.678 77.4029 23.7727 77.4029C24.8371 77.4029 25.7689 77.5771 26.5682 77.9256C27.3712 78.2703 28.0417 78.7381 28.5795 79.329C29.1212 79.9161 29.5265 80.5771 29.7955 81.312C30.0682 82.0468 30.2045 82.8044 30.2045 83.5847C30.2045 84.1339 30.178 84.6908 30.125 85.2551C30.072 85.8195 29.9602 86.3385 29.7898 86.812C29.6193 87.2817 29.3561 87.6605 29 87.9483C28.6477 88.2362 28.1705 88.3801 27.5682 88.3801C27.303 88.3801 27.0114 88.3385 26.6932 88.2551C26.375 88.1718 26.0928 88.0336 25.8466 87.8404C25.6004 87.6472 25.4545 87.3877 25.4091 87.062H25.3409C25.25 87.2817 25.1098 87.49 24.9205 87.687C24.7348 87.8839 24.4905 88.0411 24.1875 88.1586C23.8883 88.276 23.5227 88.3271 23.0909 88.312C22.5985 88.293 22.1648 88.1832 21.7898 87.9824C21.4148 87.7779 21.1004 87.5014 20.8466 87.1529C20.5966 86.8006 20.4072 86.3934 20.2784 85.9313C20.1534 85.4654 20.0909 84.9635 20.0909 84.4256C20.0909 83.9142 20.1667 83.4464 20.3182 83.0222C20.4697 82.598 20.6799 82.2267 20.9489 81.9086C21.2216 81.5904 21.5398 81.3366 21.9034 81.1472C22.2708 80.954 22.6667 80.8347 23.0909 80.7892C23.4697 80.7514 23.8144 80.7684 24.125 80.8404C24.4356 80.9086 24.6913 81.0127 24.892 81.1529C25.0928 81.2892 25.2197 81.4408 25.2727 81.6074H25.3409V80.9711H26.5455V86.1074C26.5455 86.4256 26.6345 86.7059 26.8125 86.9483C26.9905 87.1908 27.25 87.312 27.5909 87.312C27.9773 87.312 28.2727 87.1794 28.4773 86.9142C28.6856 86.6491 28.8277 86.24 28.9034 85.687C28.983 85.1339 29.0227 84.4256 29.0227 83.562C29.0227 83.0544 28.9527 82.5544 28.8125 82.062C28.6761 81.5658 28.4678 81.1017 28.1875 80.6699C27.911 80.2381 27.5606 79.8574 27.1364 79.5279C26.7121 79.1983 26.214 78.9408 25.642 78.7551C25.0739 78.5658 24.428 78.4711 23.7045 78.4711C22.8144 78.4711 22.017 78.6093 21.3125 78.8858C20.6117 79.1586 20.0152 79.5582 19.5227 80.0847C19.0341 80.6074 18.661 81.2438 18.4034 81.9938C18.1496 82.74 18.0227 83.5885 18.0227 84.5392C18.0227 85.5051 18.1496 86.3631 18.4034 87.1131C18.661 87.8631 19.0398 88.4957 19.5398 89.0108C20.0436 89.526 20.6667 89.9161 21.4091 90.1813C22.1515 90.4502 23.0076 90.5847 23.9773 90.5847C24.3939 90.5847 24.8049 90.5449 25.2102 90.4654C25.6155 90.3858 25.9735 90.2987 26.2841 90.204C26.5947 90.1093 26.8182 90.0392 26.9545 89.9938L27.2727 91.0392C27.0379 91.1377 26.7311 91.2362 26.3523 91.3347C25.9773 91.4332 25.5758 91.5146 25.1477 91.579C24.7235 91.6434 24.3182 91.6756 23.9318 91.6756ZM23.2727 87.1529C23.7803 87.1529 24.1913 87.0506 24.5057 86.8461C24.8201 86.6415 25.0492 86.3328 25.1932 85.9199C25.3371 85.507 25.4091 84.9862 25.4091 84.3574C25.4091 83.7211 25.3295 83.2248 25.1705 82.8688C25.0114 82.5127 24.7765 82.2627 24.4659 82.1188C24.1553 81.9748 23.7727 81.9029 23.3182 81.9029C22.8864 81.9029 22.517 82.0165 22.2102 82.2438C21.9072 82.4673 21.6742 82.7665 21.5114 83.1415C21.3523 83.5127 21.2727 83.918 21.2727 84.3574C21.2727 84.8423 21.3371 85.2987 21.4659 85.7267C21.5947 86.151 21.8049 86.4957 22.0966 86.7608C22.3883 87.0222 22.7803 87.1529 23.2727 87.1529ZM32.2116 88.6074V79.8801H33.5071V81.1983H33.598C33.7571 80.7665 34.045 80.4161 34.4616 80.1472C34.8783 79.8783 35.348 79.7438 35.8707 79.7438C35.9692 79.7438 36.0923 79.7457 36.2401 79.7495C36.3878 79.7533 36.4995 79.7589 36.5753 79.7665V81.1301C36.5298 81.1188 36.4257 81.1017 36.2628 81.079C36.1037 81.0525 35.9351 81.0392 35.7571 81.0392C35.3329 81.0392 34.9541 81.1283 34.6207 81.3063C34.2912 81.4805 34.0298 81.723 33.8366 82.0336C33.6473 82.3404 33.5526 82.6908 33.5526 83.0847V88.6074H32.2116ZM40.733 88.812C40.1799 88.812 39.678 88.7078 39.2273 88.4995C38.7765 88.2873 38.4186 87.9824 38.1534 87.5847C37.8883 87.1832 37.7557 86.6983 37.7557 86.1301C37.7557 85.6301 37.8542 85.2248 38.0511 84.9142C38.2481 84.5998 38.5114 84.3536 38.8409 84.1756C39.1705 83.9976 39.5341 83.865 39.9318 83.7779C40.3333 83.687 40.7367 83.615 41.142 83.562C41.6723 83.4938 42.1023 83.4426 42.4318 83.4086C42.7652 83.3707 43.0076 83.3082 43.1591 83.2211C43.3144 83.1339 43.392 82.9824 43.392 82.7665V82.7211C43.392 82.1605 43.2386 81.7248 42.9318 81.4142C42.6288 81.1036 42.1686 80.9483 41.5511 80.9483C40.911 80.9483 40.4091 81.0885 40.0455 81.3688C39.6818 81.6491 39.4261 81.9483 39.2784 82.2665L38.0057 81.812C38.233 81.2817 38.536 80.8688 38.9148 80.5733C39.2973 80.2741 39.714 80.0658 40.1648 79.9483C40.6193 79.8271 41.0663 79.7665 41.5057 79.7665C41.786 79.7665 42.108 79.8006 42.4716 79.8688C42.839 79.9332 43.1932 80.0676 43.5341 80.2722C43.8788 80.4767 44.1648 80.7855 44.392 81.1983C44.6193 81.6112 44.733 82.1642 44.733 82.8574V88.6074H43.392V87.4256H43.3239C43.233 87.615 43.0814 87.8176 42.8693 88.0336C42.6572 88.2495 42.375 88.4332 42.0227 88.5847C41.6705 88.7362 41.2405 88.812 40.733 88.812ZM40.9375 87.6074C41.4678 87.6074 41.9148 87.5033 42.2784 87.2949C42.6458 87.0866 42.9223 86.8176 43.108 86.4881C43.2973 86.1586 43.392 85.812 43.392 85.4483V84.2211C43.3352 84.2892 43.2102 84.3517 43.017 84.4086C42.8277 84.4616 42.608 84.5089 42.358 84.5506C42.1117 84.5885 41.8712 84.6226 41.6364 84.6529C41.4053 84.6794 41.2178 84.7021 41.0739 84.7211C40.7254 84.7665 40.3996 84.8404 40.0966 84.9426C39.7973 85.0411 39.5549 85.1908 39.3693 85.3915C39.1875 85.5885 39.0966 85.8574 39.0966 86.1983C39.0966 86.6642 39.2689 87.0165 39.6136 87.2551C39.9621 87.49 40.4034 87.6074 40.9375 87.6074ZM50.7259 88.7892C49.9077 88.7892 49.2031 88.5961 48.6122 88.2097C48.0213 87.8233 47.5668 87.2911 47.2486 86.6131C46.9304 85.9351 46.7713 85.1605 46.7713 84.2892C46.7713 83.4029 46.9342 82.6207 47.2599 81.9426C47.5895 81.2608 48.0478 80.7286 48.6349 80.3461C49.2259 79.9597 49.9152 79.7665 50.7031 79.7665C51.3168 79.7665 51.8698 79.8801 52.3622 80.1074C52.8546 80.3347 53.258 80.6529 53.5724 81.062C53.8868 81.4711 54.0819 81.9483 54.1577 82.4938H52.8168C52.7145 82.0961 52.4872 81.7438 52.1349 81.437C51.7865 81.1264 51.3168 80.9711 50.7259 80.9711C50.2031 80.9711 49.7448 81.1074 49.3509 81.3801C48.9607 81.6491 48.6558 82.0298 48.4361 82.5222C48.2202 83.0108 48.1122 83.5847 48.1122 84.2438C48.1122 84.918 48.2183 85.5051 48.4304 86.0051C48.6463 86.5051 48.9493 86.8934 49.3395 87.1699C49.7334 87.4464 50.1955 87.5847 50.7259 87.5847C51.0743 87.5847 51.3906 87.5241 51.6747 87.4029C51.9588 87.2817 52.1993 87.1074 52.3963 86.8801C52.5933 86.6529 52.7334 86.3801 52.8168 86.062H54.1577C54.0819 86.5771 53.8944 87.0411 53.5952 87.454C53.2997 87.8631 52.9077 88.1889 52.419 88.4313C51.9342 88.6699 51.3698 88.7892 50.7259 88.7892ZM59.777 88.7892C58.9361 88.7892 58.2107 88.6036 57.6009 88.2324C56.9948 87.8574 56.527 87.3347 56.1974 86.6642C55.8717 85.99 55.7088 85.2059 55.7088 84.312C55.7088 83.418 55.8717 82.6301 56.1974 81.9483C56.527 81.2627 56.9853 80.7286 57.5724 80.3461C58.1634 79.9597 58.8527 79.7665 59.6406 79.7665C60.0952 79.7665 60.544 79.8423 60.9872 79.9938C61.4304 80.1453 61.8338 80.3915 62.1974 80.7324C62.5611 81.0695 62.8509 81.5165 63.0668 82.0733C63.2827 82.6301 63.3906 83.3158 63.3906 84.1301V84.6983H56.6634V83.5392H62.027C62.027 83.0468 61.9285 82.6074 61.7315 82.2211C61.5384 81.8347 61.2618 81.5298 60.902 81.3063C60.5459 81.0828 60.1255 80.9711 59.6406 80.9711C59.1065 80.9711 58.6444 81.1036 58.2543 81.3688C57.8679 81.6301 57.5705 81.9711 57.3622 82.3915C57.1539 82.812 57.0497 83.2627 57.0497 83.7438V84.5165C57.0497 85.1756 57.1634 85.7343 57.3906 86.1926C57.6217 86.6472 57.9418 86.9938 58.3509 87.2324C58.7599 87.4673 59.2353 87.5847 59.777 87.5847C60.1293 87.5847 60.4474 87.5355 60.7315 87.437C61.0194 87.3347 61.2675 87.1832 61.4759 86.9824C61.6842 86.7779 61.8452 86.5241 61.9588 86.2211L63.2543 86.5847C63.1179 87.0241 62.8887 87.4105 62.5668 87.7438C62.2448 88.0733 61.8471 88.3309 61.3736 88.5165C60.9001 88.6983 60.3679 88.7892 59.777 88.7892ZM70.4304 82.9938V84.2438H65.3395V82.9938H70.4304ZM76.3352 88.7892C75.5473 88.7892 74.8561 88.6017 74.2614 88.2267C73.6705 87.8517 73.2083 87.3271 72.875 86.6529C72.5455 85.9786 72.3807 85.1908 72.3807 84.2892C72.3807 83.3801 72.5455 82.5866 72.875 81.9086C73.2083 81.2305 73.6705 80.704 74.2614 80.329C74.8561 79.954 75.5473 79.7665 76.3352 79.7665C77.1231 79.7665 77.8125 79.954 78.4034 80.329C78.9981 80.704 79.4602 81.2305 79.7898 81.9086C80.1231 82.5866 80.2898 83.3801 80.2898 84.2892C80.2898 85.1908 80.1231 85.9786 79.7898 86.6529C79.4602 87.3271 78.9981 87.8517 78.4034 88.2267C77.8125 88.6017 77.1231 88.7892 76.3352 88.7892ZM76.3352 87.5847C76.9337 87.5847 77.4261 87.4313 77.8125 87.1245C78.1989 86.8176 78.4848 86.4142 78.6705 85.9142C78.8561 85.4142 78.9489 84.8726 78.9489 84.2892C78.9489 83.7059 78.8561 83.1623 78.6705 82.6586C78.4848 82.1548 78.1989 81.7476 77.8125 81.437C77.4261 81.1264 76.9337 80.9711 76.3352 80.9711C75.7367 80.9711 75.2443 81.1264 74.858 81.437C74.4716 81.7476 74.1856 82.1548 74 82.6586C73.8144 83.1623 73.7216 83.7059 73.7216 84.2892C73.7216 84.8726 73.8144 85.4142 74 85.9142C74.1856 86.4142 74.4716 86.8176 74.858 87.1245C75.2443 87.4313 75.7367 87.5847 76.3352 87.5847ZM86.223 79.8801V81.0165H81.5185V79.8801H86.223ZM82.9276 88.6074V78.6756C82.9276 78.1756 83.045 77.7589 83.2798 77.4256C83.5147 77.0923 83.8196 76.8423 84.1946 76.6756C84.5696 76.5089 84.9654 76.4256 85.3821 76.4256C85.7116 76.4256 85.9806 76.4521 86.1889 76.5051C86.3973 76.5582 86.5526 76.6074 86.6548 76.6529L86.2685 77.812C86.2003 77.7892 86.1056 77.7608 85.9844 77.7267C85.867 77.6926 85.7116 77.6756 85.5185 77.6756C85.0753 77.6756 84.7552 77.7873 84.5582 78.0108C84.3651 78.2343 84.2685 78.562 84.2685 78.9938V88.6074H82.9276ZM92.6491 82.9938V84.2438H87.5582V82.9938H92.6491ZM101.19 81.8347L99.9858 82.1756C99.91 81.9748 99.7983 81.7798 99.6506 81.5904C99.5066 81.3972 99.3097 81.2381 99.0597 81.1131C98.8097 80.9881 98.4896 80.9256 98.0994 80.9256C97.5653 80.9256 97.1203 81.0487 96.7642 81.2949C96.4119 81.5373 96.2358 81.8461 96.2358 82.2211C96.2358 82.5544 96.357 82.8176 96.5994 83.0108C96.8419 83.204 97.2206 83.365 97.7358 83.4938L99.0312 83.812C99.8116 84.0014 100.393 84.2911 100.776 84.6813C101.158 85.0676 101.349 85.5658 101.349 86.1756C101.349 86.6756 101.205 87.1226 100.918 87.5165C100.634 87.9105 100.236 88.2211 99.7244 88.4483C99.2131 88.6756 98.6184 88.7892 97.9403 88.7892C97.0502 88.7892 96.3134 88.5961 95.7301 88.2097C95.1468 87.8233 94.7775 87.2589 94.6222 86.5165L95.8949 86.1983C96.0161 86.668 96.2453 87.0203 96.5824 87.2551C96.9233 87.49 97.3684 87.6074 97.9176 87.6074C98.5426 87.6074 99.0388 87.4748 99.4062 87.2097C99.7775 86.9408 99.9631 86.6188 99.9631 86.2438C99.9631 85.9408 99.857 85.687 99.6449 85.4824C99.4328 85.2741 99.107 85.1188 98.6676 85.0165L97.2131 84.6756C96.4138 84.4862 95.8267 84.1926 95.4517 83.7949C95.0805 83.3934 94.8949 82.8915 94.8949 82.2892C94.8949 81.7968 95.0331 81.3612 95.3097 80.9824C95.59 80.6036 95.9706 80.3063 96.4517 80.0904C96.9366 79.8745 97.4858 79.7665 98.0994 79.7665C98.9631 79.7665 99.6411 79.9559 100.134 80.3347C100.63 80.7135 100.982 81.2135 101.19 81.8347ZM104.709 76.9711V88.6074H103.368V76.9711H104.709ZM110.71 88.7892C109.922 88.7892 109.231 88.6017 108.636 88.2267C108.045 87.8517 107.583 87.3271 107.25 86.6529C106.92 85.9786 106.756 85.1908 106.756 84.2892C106.756 83.3801 106.92 82.5866 107.25 81.9086C107.583 81.2305 108.045 80.704 108.636 80.329C109.231 79.954 109.922 79.7665 110.71 79.7665C111.498 79.7665 112.188 79.954 112.778 80.329C113.373 80.704 113.835 81.2305 114.165 81.9086C114.498 82.5866 114.665 83.3801 114.665 84.2892C114.665 85.1908 114.498 85.9786 114.165 86.6529C113.835 87.3271 113.373 87.8517 112.778 88.2267C112.188 88.6017 111.498 88.7892 110.71 88.7892ZM110.71 87.5847C111.309 87.5847 111.801 87.4313 112.188 87.1245C112.574 86.8176 112.86 86.4142 113.045 85.9142C113.231 85.4142 113.324 84.8726 113.324 84.2892C113.324 83.7059 113.231 83.1623 113.045 82.6586C112.86 82.1548 112.574 81.7476 112.188 81.437C111.801 81.1264 111.309 80.9711 110.71 80.9711C110.112 80.9711 109.619 81.1264 109.233 81.437C108.847 81.7476 108.561 82.1548 108.375 82.6586C108.189 83.1623 108.097 83.7059 108.097 84.2892C108.097 84.8726 108.189 85.4142 108.375 85.9142C108.561 86.4142 108.847 86.8176 109.233 87.1245C109.619 87.4313 110.112 87.5847 110.71 87.5847ZM120.507 79.8801V81.0165H115.984V79.8801H120.507ZM117.303 77.7892H118.643V86.1074C118.643 86.4862 118.698 86.7703 118.808 86.9597C118.922 87.1453 119.066 87.2703 119.24 87.3347C119.418 87.3953 119.606 87.4256 119.803 87.4256C119.95 87.4256 120.071 87.418 120.166 87.4029C120.261 87.3839 120.337 87.3688 120.393 87.3574L120.666 88.562C120.575 88.5961 120.448 88.6301 120.286 88.6642C120.123 88.7021 119.916 88.7211 119.666 88.7211C119.287 88.7211 118.916 88.6396 118.553 88.4767C118.193 88.3139 117.893 88.0658 117.655 87.7324C117.42 87.3991 117.303 86.9786 117.303 86.4711V77.7892ZM124.053 83.3574V88.6074H122.712V76.9711H124.053V81.2438H124.166C124.371 80.793 124.678 80.4351 125.087 80.1699C125.5 79.901 126.049 79.7665 126.734 79.7665C127.329 79.7665 127.85 79.8858 128.297 80.1245C128.744 80.3593 129.09 80.7211 129.337 81.2097C129.587 81.6945 129.712 82.312 129.712 83.062V88.6074H128.371V83.1529C128.371 82.4597 128.191 81.9237 127.831 81.5449C127.475 81.1623 126.981 80.9711 126.348 80.9711C125.909 80.9711 125.515 81.0639 125.166 81.2495C124.821 81.4351 124.549 81.7059 124.348 82.062C124.151 82.418 124.053 82.8498 124.053 83.3574ZM138.347 81.8347L137.142 82.1756C137.066 81.9748 136.955 81.7798 136.807 81.5904C136.663 81.3972 136.466 81.2381 136.216 81.1131C135.966 80.9881 135.646 80.9256 135.256 80.9256C134.722 80.9256 134.277 81.0487 133.92 81.2949C133.568 81.5373 133.392 81.8461 133.392 82.2211C133.392 82.5544 133.513 82.8176 133.756 83.0108C133.998 83.204 134.377 83.365 134.892 83.4938L136.188 83.812C136.968 84.0014 137.549 84.2911 137.932 84.6813C138.314 85.0676 138.506 85.5658 138.506 86.1756C138.506 86.6756 138.362 87.1226 138.074 87.5165C137.79 87.9105 137.392 88.2211 136.881 88.4483C136.369 88.6756 135.775 88.7892 135.097 88.7892C134.206 88.7892 133.47 88.5961 132.886 88.2097C132.303 87.8233 131.934 87.2589 131.778 86.5165L133.051 86.1983C133.172 86.668 133.402 87.0203 133.739 87.2551C134.08 87.49 134.525 87.6074 135.074 87.6074C135.699 87.6074 136.195 87.4748 136.562 87.2097C136.934 86.9408 137.119 86.6188 137.119 86.2438C137.119 85.9408 137.013 85.687 136.801 85.4824C136.589 85.2741 136.263 85.1188 135.824 85.0165L134.369 84.6756C133.57 84.4862 132.983 84.1926 132.608 83.7949C132.237 83.3934 132.051 82.8915 132.051 82.2892C132.051 81.7968 132.189 81.3612 132.466 80.9824C132.746 80.6036 133.127 80.3063 133.608 80.0904C134.093 79.8745 134.642 79.7665 135.256 79.7665C136.119 79.7665 136.797 79.9559 137.29 80.3347C137.786 80.7135 138.138 81.2135 138.347 81.8347Z" fill="#5B75F0"/>
<path d="M151.206 81.8347L150.001 82.1756C149.926 81.9748 149.814 81.7798 149.666 81.5904C149.522 81.3972 149.325 81.2381 149.075 81.1131C148.825 80.9881 148.505 80.9256 148.115 80.9256C147.581 80.9256 147.136 81.0487 146.78 81.2949C146.428 81.5373 146.251 81.8461 146.251 82.2211C146.251 82.5544 146.373 82.8176 146.615 83.0108C146.857 83.204 147.236 83.365 147.751 83.4938L149.047 83.812C149.827 84.0014 150.409 84.2911 150.791 84.6813C151.174 85.0676 151.365 85.5658 151.365 86.1756C151.365 86.6756 151.221 87.1226 150.933 87.5165C150.649 87.9105 150.251 88.2211 149.74 88.4483C149.229 88.6756 148.634 88.7892 147.956 88.7892C147.066 88.7892 146.329 88.5961 145.746 88.2097C145.162 87.8233 144.793 87.2589 144.638 86.5165L145.911 86.1983C146.032 86.668 146.261 87.0203 146.598 87.2551C146.939 87.49 147.384 87.6074 147.933 87.6074C148.558 87.6074 149.054 87.4748 149.422 87.2097C149.793 86.9408 149.979 86.6188 149.979 86.2438C149.979 85.9408 149.873 85.687 149.661 85.4824C149.448 85.2741 149.123 85.1188 148.683 85.0165L147.229 84.6756C146.429 84.4862 145.842 84.1926 145.467 83.7949C145.096 83.3934 144.911 82.8915 144.911 82.2892C144.911 81.7968 145.049 81.3612 145.325 80.9824C145.606 80.6036 145.986 80.3063 146.467 80.0904C146.952 79.8745 147.501 79.7665 148.115 79.7665C148.979 79.7665 149.657 79.9559 150.149 80.3347C150.645 80.7135 150.998 81.2135 151.206 81.8347ZM156.929 88.7892C156.111 88.7892 155.406 88.5961 154.815 88.2097C154.224 87.8233 153.77 87.2911 153.452 86.6131C153.134 85.9351 152.974 85.1605 152.974 84.2892C152.974 83.4029 153.137 82.6207 153.463 81.9426C153.793 81.2608 154.251 80.7286 154.838 80.3461C155.429 79.9597 156.118 79.7665 156.906 79.7665C157.52 79.7665 158.073 79.8801 158.565 80.1074C159.058 80.3347 159.461 80.6529 159.776 81.062C160.09 81.4711 160.285 81.9483 160.361 82.4938H159.02C158.918 82.0961 158.69 81.7438 158.338 81.437C157.99 81.1264 157.52 80.9711 156.929 80.9711C156.406 80.9711 155.948 81.1074 155.554 81.3801C155.164 81.6491 154.859 82.0298 154.639 82.5222C154.423 83.0108 154.315 83.5847 154.315 84.2438C154.315 84.918 154.421 85.5051 154.634 86.0051C154.849 86.5051 155.152 86.8934 155.543 87.1699C155.937 87.4464 156.399 87.5847 156.929 87.5847C157.277 87.5847 157.594 87.5241 157.878 87.4029C158.162 87.2817 158.402 87.1074 158.599 86.8801C158.796 86.6529 158.937 86.3801 159.02 86.062H160.361C160.285 86.5771 160.098 87.0411 159.798 87.454C159.503 87.8631 159.111 88.1889 158.622 88.4313C158.137 88.6699 157.573 88.7892 156.929 88.7892ZM165.866 88.7892C165.079 88.7892 164.387 88.6017 163.793 88.2267C163.202 87.8517 162.74 87.3271 162.406 86.6529C162.077 85.9786 161.912 85.1908 161.912 84.2892C161.912 83.3801 162.077 82.5866 162.406 81.9086C162.74 81.2305 163.202 80.704 163.793 80.329C164.387 79.954 165.079 79.7665 165.866 79.7665C166.654 79.7665 167.344 79.954 167.935 80.329C168.529 80.704 168.991 81.2305 169.321 81.9086C169.654 82.5866 169.821 83.3801 169.821 84.2892C169.821 85.1908 169.654 85.9786 169.321 86.6529C168.991 87.3271 168.529 87.8517 167.935 88.2267C167.344 88.6017 166.654 88.7892 165.866 88.7892ZM165.866 87.5847C166.465 87.5847 166.957 87.4313 167.344 87.1245C167.73 86.8176 168.016 86.4142 168.202 85.9142C168.387 85.4142 168.48 84.8726 168.48 84.2892C168.48 83.7059 168.387 83.1623 168.202 82.6586C168.016 82.1548 167.73 81.7476 167.344 81.437C166.957 81.1264 166.465 80.9711 165.866 80.9711C165.268 80.9711 164.776 81.1264 164.389 81.437C164.003 81.7476 163.717 82.1548 163.531 82.6586C163.346 83.1623 163.253 83.7059 163.253 84.2892C163.253 84.8726 163.346 85.4142 163.531 85.9142C163.717 86.4142 164.003 86.8176 164.389 87.1245C164.776 87.4313 165.268 87.5847 165.866 87.5847ZM171.868 88.6074V79.8801H173.163V81.1983H173.254C173.413 80.7665 173.701 80.4161 174.118 80.1472C174.535 79.8783 175.004 79.7438 175.527 79.7438C175.625 79.7438 175.749 79.7457 175.896 79.7495C176.044 79.7533 176.156 79.7589 176.232 79.7665V81.1301C176.186 81.1188 176.082 81.1017 175.919 81.079C175.76 81.0525 175.591 81.0392 175.413 81.0392C174.989 81.0392 174.61 81.1283 174.277 81.3063C173.947 81.4805 173.686 81.723 173.493 82.0336C173.304 82.3404 173.209 82.6908 173.209 83.0847V88.6074H171.868ZM181.214 88.7892C180.374 88.7892 179.648 88.6036 179.038 88.2324C178.432 87.8574 177.964 87.3347 177.635 86.6642C177.309 85.99 177.146 85.2059 177.146 84.312C177.146 83.418 177.309 82.6301 177.635 81.9483C177.964 81.2627 178.423 80.7286 179.01 80.3461C179.601 79.9597 180.29 79.7665 181.078 79.7665C181.533 79.7665 181.982 79.8423 182.425 79.9938C182.868 80.1453 183.271 80.3915 183.635 80.7324C183.999 81.0695 184.288 81.5165 184.504 82.0733C184.72 82.6301 184.828 83.3158 184.828 84.1301V84.6983H178.101V83.5392H183.464C183.464 83.0468 183.366 82.6074 183.169 82.2211C182.976 81.8347 182.699 81.5298 182.339 81.3063C181.983 81.0828 181.563 80.9711 181.078 80.9711C180.544 80.9711 180.082 81.1036 179.692 81.3688C179.305 81.6301 179.008 81.9711 178.8 82.3915C178.591 82.812 178.487 83.2627 178.487 83.7438V84.5165C178.487 85.1756 178.601 85.7343 178.828 86.1926C179.059 86.6472 179.379 86.9938 179.788 87.2324C180.197 87.4673 180.673 87.5847 181.214 87.5847C181.567 87.5847 181.885 87.5355 182.169 87.437C182.457 87.3347 182.705 87.1832 182.913 86.9824C183.122 86.7779 183.283 86.5241 183.396 86.2211L184.692 86.5847C184.555 87.0241 184.326 87.4105 184.004 87.7438C183.682 88.0733 183.285 88.3309 182.811 88.5165C182.338 88.6983 181.805 88.7892 181.214 88.7892ZM194.982 88.7665C194.315 88.7665 193.714 88.6339 193.18 88.3688C192.646 88.1036 192.218 87.74 191.896 87.2779C191.574 86.8158 191.398 86.2892 191.368 85.6983H192.732C192.785 86.2248 193.023 86.6605 193.447 87.0051C193.875 87.3461 194.387 87.5165 194.982 87.5165C195.459 87.5165 195.883 87.4048 196.254 87.1813C196.629 86.9578 196.923 86.651 197.135 86.2608C197.351 85.8669 197.459 85.4218 197.459 84.9256C197.459 84.418 197.347 83.9654 197.124 83.5676C196.904 83.1661 196.601 82.8498 196.214 82.6188C195.828 82.3877 195.387 82.2703 194.891 82.2665C194.535 82.2627 194.169 82.3176 193.794 82.4313C193.419 82.5411 193.11 82.6832 192.868 82.8574L191.55 82.6983L192.254 76.9711H198.3V78.2211H193.436L193.027 81.6529H193.095C193.334 81.4635 193.633 81.3063 193.993 81.1813C194.353 81.0563 194.728 80.9938 195.118 80.9938C195.83 80.9938 196.464 81.1642 197.021 81.5051C197.582 81.8423 198.021 82.3044 198.339 82.8915C198.661 83.4786 198.822 84.1491 198.822 84.9029C198.822 85.6453 198.656 86.3082 198.322 86.8915C197.993 87.4711 197.538 87.9294 196.959 88.2665C196.379 88.5998 195.72 88.7665 194.982 88.7665Z" fill="white"/>
</g>
<rect x="0.5" y="1.10742" width="341" height="107" rx="11.5" stroke="url(#paint0_linear_2023_1361)"/>
<rect x="0.5" y="1.10742" width="341" height="107" rx="11.5" stroke="#3D3D3D"/>
<defs>
<linearGradient id="paint0_linear_2023_1361" x1="171" y1="0.607422" x2="171" y2="108.607" gradientUnits="userSpaceOnUse">
<stop stop-color="#3D3D3D"/>
<stop offset="1" stop-color="#101010"/>
</linearGradient>
<clipPath id="clip0_2023_1361">
<rect y="0.607422" width="342" height="108" rx="12" fill="white"/>
</clipPath>
<clipPath id="clip1_2023_1361">
<rect width="32" height="32" fill="white" transform="translate(16 12.6074)"/>
</clipPath>
</defs>
</svg>
