<svg width="41" height="41" viewBox="0 0 41 41" fill="none" xmlns="http://www.w3.org/2000/svg">
<path fill-rule="evenodd" clip-rule="evenodd" d="M11.7511 22.6252L7.09984 20.8809C6.21185 20.5479 5.52172 19.8318 5.22182 18.9321L3.66355 14.2573C2.9852 12.2222 4.49994 10.1206 6.64509 10.1206H12.119V12.2158H6.64509C5.93004 12.2158 5.42513 12.9163 5.65124 13.5947L7.20951 18.2695C7.30948 18.5694 7.53952 18.8081 7.83552 18.9191L12.4868 20.6634L11.7511 22.6252Z" fill="url(#paint0_linear_2164_6623)"/>
<path fill-rule="evenodd" clip-rule="evenodd" d="M29.2489 22.6252L33.9002 20.8809C34.7881 20.5479 35.4783 19.8318 35.7782 18.9321L37.3364 14.2573C38.0148 12.2222 36.5001 10.1206 34.3549 10.1206H28.881V12.2158H34.3549C35.07 12.2158 35.5749 12.9163 35.3488 13.5947L33.7905 18.2695C33.6905 18.5694 33.4605 18.8081 33.1645 18.9191L28.5132 20.6634L29.2489 22.6252Z" fill="url(#paint1_linear_2164_6623)"/>
<rect x="17.3574" y="28.9775" width="6.28563" height="3.14281" fill="#BC460F"/>
<path d="M6.17406 6.59103C5.6178 5.9064 6.105 4.88281 6.98712 4.88281H34.0133C34.8954 4.88281 35.3826 5.9064 34.8263 6.59103L33.3764 8.37557C32.1626 9.86946 31.5 11.7356 31.5 13.6605V19.142C31.5 25.1527 26.6274 30.0253 20.6167 30.0253C14.7208 30.0253 9.897 25.3304 9.73738 19.4366L9.57747 13.5323C9.52746 11.6859 8.86892 9.90778 7.70419 8.47427L6.17406 6.59103Z" fill="url(#paint2_radial_2164_6623)"/>
<path d="M6.17406 6.59103C5.6178 5.9064 6.105 4.88281 6.98712 4.88281H34.0133C34.8954 4.88281 35.3826 5.9064 34.8263 6.59103L33.3764 8.37557C32.1626 9.86946 31.5 11.7356 31.5 13.6605V19.142C31.5 25.1527 26.6274 30.0253 20.6167 30.0253C14.7208 30.0253 9.897 25.3304 9.73738 19.4366L9.57747 13.5323C9.52746 11.6859 8.86892 9.90778 7.70419 8.47427L6.17406 6.59103Z" fill="url(#paint3_linear_2164_6623)"/>
<rect x="5.8335" y="4.88281" width="29.3329" height="2.09521" rx="1.0476" fill="url(#paint4_linear_2164_6623)"/>
<path d="M17.3572 31.0728H23.6428L28.8808 34.7394H12.1191L17.3572 31.0728Z" fill="url(#paint5_linear_2164_6623)"/>
<rect x="11.0718" y="34.2153" width="18.8569" height="2.09521" rx="1.0476" fill="url(#paint6_linear_2164_6623)"/>
<defs>
<linearGradient id="paint0_linear_2164_6623" x1="7.92861" y1="11.1682" x2="7.92861" y2="21.6443" gradientUnits="userSpaceOnUse">
<stop stop-color="#FFC45A"/>
<stop offset="1" stop-color="#BE621C"/>
</linearGradient>
<linearGradient id="paint1_linear_2164_6623" x1="33.0714" y1="11.1682" x2="33.0714" y2="21.6443" gradientUnits="userSpaceOnUse">
<stop stop-color="#FFC45A"/>
<stop offset="1" stop-color="#BE621C"/>
</linearGradient>
<radialGradient id="paint2_radial_2164_6623" cx="0" cy="0" r="1" gradientUnits="userSpaceOnUse" gradientTransform="translate(20.5002 11.1684) rotate(90) scale(20.9521 11.5796)">
<stop stop-color="#ECAD34"/>
<stop offset="0.761268" stop-color="#F3C23D"/>
<stop offset="1" stop-color="#D46813"/>
</radialGradient>
<linearGradient id="paint3_linear_2164_6623" x1="19.4526" y1="14.8351" x2="19.4526" y2="6.45422" gradientUnits="userSpaceOnUse">
<stop stop-color="#ECAD34" stop-opacity="0"/>
<stop offset="1" stop-color="#D46813"/>
</linearGradient>
<linearGradient id="paint4_linear_2164_6623" x1="5.8335" y1="5.93042" x2="35.1664" y2="5.93042" gradientUnits="userSpaceOnUse">
<stop stop-color="#FBE670"/>
<stop offset="1" stop-color="#E69A2B"/>
</linearGradient>
<linearGradient id="paint5_linear_2164_6623" x1="19.9413" y1="32.5241" x2="19.9413" y2="31.3019" gradientUnits="userSpaceOnUse">
<stop stop-color="#ECAD34"/>
<stop offset="1" stop-color="#D46813"/>
</linearGradient>
<linearGradient id="paint6_linear_2164_6623" x1="11.0718" y1="35.2629" x2="29.9287" y2="35.2629" gradientUnits="userSpaceOnUse">
<stop stop-color="#FBE670"/>
<stop offset="1" stop-color="#E69A2B"/>
</linearGradient>
</defs>
</svg>
