<svg width="85" height="30" viewBox="0 0 85 30" fill="none" xmlns="http://www.w3.org/2000/svg">
<g id="Frame 120">
<g id="Group 5">
<path id="Vector" d="M83.6793 19.1084C83.6886 19.1271 83.6983 19.1477 83.7079 19.1701L84.0054 19.2329L83.7123 19.8132C83.5762 20.0826 83.3149 20.1719 83.1471 20.2032C82.9695 20.2363 82.7685 20.2308 82.5695 20.2104C82.1655 20.1691 81.6269 20.0499 80.9853 19.8824C80.1585 19.6666 79.1081 19.356 77.8703 18.9901C77.182 18.7866 76.4357 18.5659 75.6377 18.335C71.1518 17.0364 64.927 15.3782 57.6806 14.4292L57.6805 14.4292C51.0731 13.5636 45.6058 13.6364 41.342 13.6932C40.4305 13.7053 39.574 13.7167 38.7731 13.7181C36.5182 13.7219 34.6537 13.6472 33.2689 13.2518C32.5684 13.0518 31.9617 12.7623 31.4824 12.3361C30.997 11.9044 30.6664 11.3538 30.4902 10.6751C30.286 9.88847 30.3608 9.17324 30.7408 8.56621C31.1109 7.97482 31.7297 7.5523 32.4839 7.24925C33.982 6.6473 36.2179 6.43676 38.8757 6.47013C44.2163 6.53719 51.5394 7.5985 58.7927 8.82557C66.0768 10.0577 72.3888 12.3881 76.8206 14.5409C79.0355 15.6168 80.7908 16.6531 81.9678 17.4927C82.5533 17.9104 83.0127 18.2913 83.3148 18.6143C83.4637 18.7735 83.5952 18.9404 83.6793 19.1084Z" fill="#847B7B" stroke="#151515"/>
<path id="Vector_2" d="M34.9425 20.1068C34.8636 20.094 34.7876 20.0811 34.7147 20.0683C34.339 20.0021 34.021 19.9319 33.8003 19.8561C33.7017 19.8223 33.5645 19.7688 33.455 19.6798C33.4008 19.6358 33.2969 19.5384 33.2538 19.3767C33.2014 19.1802 33.2669 19.0052 33.3585 18.8916L33.5819 18.6144L33.9169 18.7349L34.7703 19.0416C34.8918 19.0696 35.0128 19.0973 35.1334 19.1247C35.8435 19.239 36.8171 19.3553 37.9532 19.4621C40.4964 19.7012 43.8122 19.8886 46.7151 19.903C48.1671 19.9102 49.5074 19.874 50.5922 19.7808C51.7046 19.6852 52.4683 19.5348 52.8273 19.3552C52.8334 19.3522 52.8392 19.3492 52.8447 19.3464C52.8227 19.3256 52.7949 19.3013 52.7598 19.2733C52.3452 18.9435 51.3852 18.4861 49.6462 17.9L49.6462 17.9C42.0412 15.3366 36.3814 15.2794 32.5715 15.2633C32.5183 15.263 32.4653 15.2628 32.4127 15.2626C31.5247 15.2589 30.726 15.2557 30.0314 15.2192C29.2983 15.1808 28.6462 15.1042 28.1002 14.9366C27.547 14.7668 27.0725 14.4944 26.7359 14.0462C26.4011 13.6007 26.2452 13.038 26.2184 12.3683L26.2184 12.3683C26.1861 11.558 26.4105 10.8674 26.8926 10.326C27.3648 9.7958 28.0437 9.45412 28.8418 9.24833C30.4263 8.83976 32.6493 8.92453 35.2379 9.33454C40.4371 10.1581 47.3644 12.3385 54.227 14.9428C55.9519 15.5974 57.3451 16.2486 58.4105 16.8796C59.4669 17.5053 60.2387 18.1328 60.6782 18.7551C61.1301 19.3949 61.2706 20.1036 60.8839 20.7524C60.5345 21.3388 59.8214 21.746 58.923 22.0302C57.1004 22.6067 54.0904 22.807 50.0228 22.5185C46.0328 22.2355 40.9794 21.4782 34.9425 20.1068ZM52.9488 19.2775C52.9486 19.2774 52.9469 19.279 52.9445 19.2823C52.9478 19.2791 52.949 19.2775 52.9488 19.2775Z" fill="#847B7B" stroke="#151515"/>
<path id="Vector_3" d="M27.819 22.4298L28.034 22.1631L28.3603 22.2672C28.8926 22.4371 29.4172 22.6006 29.9339 22.7581C30.6039 22.8723 31.4551 22.991 32.4248 23.1059C34.9676 23.4073 38.2834 23.6779 41.1866 23.7753C42.6387 23.824 43.9798 23.829 45.0657 23.7741C46.1146 23.7211 46.8567 23.6141 47.2411 23.4715C47.2354 23.467 47.2294 23.4624 47.2231 23.4577C46.8047 23.1405 45.8396 22.6922 44.1001 22.1059L44.1 22.1059C36.495 19.5425 30.8352 19.4853 27.0254 19.4691C26.9721 19.4689 26.9192 19.4687 26.8665 19.4685C25.9785 19.4648 25.1798 19.4615 24.4853 19.4251C23.7522 19.3866 23.1001 19.3101 22.5541 19.1425C22.0009 18.9727 21.5264 18.7002 21.1897 18.2521C20.855 17.8065 20.6991 17.2438 20.6723 16.5742L20.6723 16.5741C20.6399 15.7639 20.8636 15.0693 21.3393 14.5169C21.8061 13.9748 22.4792 13.6115 23.2754 13.3807C24.8562 12.9224 27.0752 12.9429 29.6615 13.2909C34.8551 13.9899 41.7759 16.0469 48.6434 18.6531C50.3733 19.3096 51.7819 19.9978 52.8673 20.6878C53.9463 21.3737 54.7356 22.0801 55.191 22.7854C55.6534 23.5015 55.7972 24.2672 55.4623 24.9764C55.1427 25.6532 54.4435 26.1509 53.5211 26.4982C51.6704 27.1949 48.5855 27.414 44.3606 26.9518C40.4752 26.5268 35.5789 25.5202 29.7027 23.733C29.5082 23.6994 29.3278 23.666 29.1632 23.6329C28.7876 23.5575 28.4699 23.4793 28.2495 23.3978C28.1505 23.3611 28.015 23.3043 27.9076 23.2133C27.8544 23.1682 27.7549 23.0708 27.7136 22.9126C27.6634 22.7202 27.7253 22.546 27.819 22.4298ZM47.4251 23.3801C47.4247 23.38 47.4218 23.3822 47.4175 23.3869C47.4233 23.3826 47.4255 23.3802 47.4251 23.3801Z" fill="#847B7B" stroke="#151515"/>
<g id="Vector_4">
<mask id="path-4-outside-1_343_841" maskUnits="userSpaceOnUse" x="-4.28226" y="-9.68622" width="59.4013" height="47.0752" fill="black">
<rect fill="white" x="-4.28226" y="-9.68622" width="59.4013" height="47.0752"/>
<path d="M37.9442 10.4318C40.9913 10.1747 44.2624 9.82328 46.6464 7.69881C44.665 7.91713 42.6756 8.00578 40.6919 7.96558C41.8605 7.50842 42.8445 6.49619 43.3193 5.26129C40.7434 6.12121 38.0499 6.53064 35.3807 6.46827C36.3381 5.90007 37.0338 4.83376 37.1956 3.68431C34.3312 5.24371 31.0902 5.95453 27.936 5.715C28.8077 5.74398 29.6953 5.25475 30.1959 4.46868C28.0208 4.92782 25.846 5.38764 23.6702 5.84706C24.654 5.67071 25.5485 4.86572 25.8545 3.84233C23.7219 4.17351 21.5726 4.4942 19.4403 4.82606C19.8345 4.47917 19.6765 3.16469 20.0714 2.81753C16.7526 4.88366 13.3806 7.61099 9.59722 7.65941C7.448 8.25819 12.2428 5.11029 13.2975 4.20748C10.3515 4.49036 7.59818 6.5937 4.66834 7.07372C4.515 7.09888 4.35386 7.12793 4.22928 7.22944C3.76301 7.61038 4.24876 8.33796 4.64233 8.77668C6.20566 10.5157 8.40259 12.7417 8.17538 15.1934C7.94555 17.6679 8.17537 20.0532 5.10514 23.1593C11.8844 21.7299 19.0414 22.9416 24.9345 26.5172C24.2275 24.3433 22.7727 22.482 20.9068 21.3618C23.6089 22.0807 26.1248 23.5059 28.1806 25.482C27.3516 23.5554 25.8874 21.9681 24.1 21.0592C27.0027 21.5625 29.7306 23.0044 31.8414 25.1506C30.6703 23.1478 29.1254 21.4061 27.3195 20.0532C30.7479 19.7985 34.2002 20.2638 37.4214 21.4143C36.4491 18.7429 34.5566 16.4962 32.1803 15.1934C34.4991 15.6405 36.7321 16.5177 38.7515 17.7757C37.843 15.222 36.0454 13.0711 33.7816 11.8286C36.5095 11.9446 39.3896 14.9721 41.7935 16.2856C41.3557 14.2433 37.515 12.6218 35.8988 10.7633C37.956 11.5425 41.7691 11.8412 43.6813 13.033C43.5126 11.635 39.0876 11.0822 37.9406 10.4208"/>
</mask>
<path d="M37.9442 10.4318C40.9913 10.1747 44.2624 9.82328 46.6464 7.69881C44.665 7.91713 42.6756 8.00578 40.6919 7.96558C41.8605 7.50842 42.8445 6.49619 43.3193 5.26129C40.7434 6.12121 38.0499 6.53064 35.3807 6.46827C36.3381 5.90007 37.0338 4.83376 37.1956 3.68431C34.3312 5.24371 31.0902 5.95453 27.936 5.715C28.8077 5.74398 29.6953 5.25475 30.1959 4.46868C28.0208 4.92782 25.846 5.38764 23.6702 5.84706C24.654 5.67071 25.5485 4.86572 25.8545 3.84233C23.7219 4.17351 21.5726 4.4942 19.4403 4.82606C19.8345 4.47917 19.6765 3.16469 20.0714 2.81753C16.7526 4.88366 13.3806 7.61099 9.59722 7.65941C7.448 8.25819 12.2428 5.11029 13.2975 4.20748C10.3515 4.49036 7.59818 6.5937 4.66834 7.07372C4.515 7.09888 4.35386 7.12793 4.22928 7.22944C3.76301 7.61038 4.24876 8.33796 4.64233 8.77668C6.20566 10.5157 8.40259 12.7417 8.17538 15.1934C7.94555 17.6679 8.17537 20.0532 5.10514 23.1593C11.8844 21.7299 19.0414 22.9416 24.9345 26.5172C24.2275 24.3433 22.7727 22.482 20.9068 21.3618C23.6089 22.0807 26.1248 23.5059 28.1806 25.482C27.3516 23.5554 25.8874 21.9681 24.1 21.0592C27.0027 21.5625 29.7306 23.0044 31.8414 25.1506C30.6703 23.1478 29.1254 21.4061 27.3195 20.0532C30.7479 19.7985 34.2002 20.2638 37.4214 21.4143C36.4491 18.7429 34.5566 16.4962 32.1803 15.1934C34.4991 15.6405 36.7321 16.5177 38.7515 17.7757C37.843 15.222 36.0454 13.0711 33.7816 11.8286C36.5095 11.9446 39.3896 14.9721 41.7935 16.2856C41.3557 14.2433 37.515 12.6218 35.8988 10.7633C37.956 11.5425 41.7691 11.8412 43.6813 13.033C43.5126 11.635 39.0876 11.0822 37.9406 10.4208" fill="#C7B299"/>
<path d="M46.6464 7.69881L46.5369 6.70483L49.6499 6.36183L47.3117 8.4454L46.6464 7.69881ZM40.6919 7.96558L40.6716 8.96537L40.3276 7.03429L40.6919 7.96558ZM43.3193 5.26129L43.0027 4.31274L45.0135 3.64149L44.2527 5.62015L43.3193 5.26129ZM35.3807 6.46827L35.3573 7.468L31.8741 7.38662L34.8703 5.60833L35.3807 6.46827ZM37.1956 3.68431L36.7175 2.80603L38.4629 1.85579L38.1859 3.82372L37.1956 3.68431ZM27.936 5.715L27.8603 6.71213L27.9692 4.71555L27.936 5.715ZM30.1959 4.46868L29.9894 3.49024L32.3176 2.99878L31.0394 5.00584L30.1959 4.46868ZM23.6702 5.84706L23.8466 6.83137L23.4636 4.86863L23.6702 5.84706ZM25.8545 3.84233L25.701 2.85418L27.2664 2.61108L26.8126 4.12882L25.8545 3.84233ZM19.4403 4.82606L19.5941 5.81416L16.2039 6.34178L18.7797 4.0753L19.4403 4.82606ZM20.0714 2.81753L19.5429 1.9686L20.7316 3.56859L20.0714 2.81753ZM9.59722 7.65941L9.32884 6.6961L9.45425 6.66116L9.58443 6.65949L9.59722 7.65941ZM13.2975 4.20748L13.2019 3.21206L16.3514 2.90962L13.9477 4.96716L13.2975 4.20748ZM4.66834 7.07372L4.50638 6.08692L4.50665 6.08687L4.66834 7.07372ZM4.22928 7.22944L3.59661 6.45503L3.59755 6.45426L4.22928 7.22944ZM4.64233 8.77668L3.89866 9.44522L3.89797 9.44445L4.64233 8.77668ZM8.17538 15.1934L9.17111 15.2857L9.17109 15.2859L8.17538 15.1934ZM5.10514 23.1593L5.31145 24.1378L2.05273 24.8248L4.39394 22.4563L5.10514 23.1593ZM24.9345 26.5172L25.8855 26.2079L26.7186 28.7693L24.4158 27.3721L24.9345 26.5172ZM20.9068 21.3618L20.3921 22.2192L21.1639 20.3954L20.9068 21.3618ZM28.1806 25.482L29.0991 25.0868L27.4876 26.2029L28.1806 25.482ZM24.1 21.0592L23.6467 21.9506L24.2708 20.0739L24.1 21.0592ZM31.8414 25.1506L32.7047 24.6458L31.1285 25.8518L31.8414 25.1506ZM27.3195 20.0532L26.7199 20.8535L24.5844 19.2536L27.2454 19.0559L27.3195 20.0532ZM37.4214 21.4143L38.3611 21.0723L39.0888 23.0717L37.085 22.356L37.4214 21.4143ZM32.1803 15.1934L31.6996 16.0703L32.3696 14.2115L32.1803 15.1934ZM38.7515 17.7757L39.6936 17.4406L40.6535 20.1388L38.2227 18.6245L38.7515 17.7757ZM33.7816 11.8286L33.3005 12.7052L33.8241 10.8295L33.7816 11.8286ZM41.7935 16.2856L42.7713 16.076L43.2286 18.2093L41.314 17.1632L41.7935 16.2856ZM35.8988 10.7633L35.1442 11.4195L36.253 9.8281L35.8988 10.7633ZM43.6813 13.033L44.6741 12.9133L44.9242 14.986L43.1524 13.8817L43.6813 13.033ZM37.8601 9.4353C40.9559 9.17413 43.8823 8.8225 45.9811 6.95223L47.3117 8.4454C44.6424 10.8241 41.0267 11.1753 38.0282 11.4282L37.8601 9.4353ZM46.756 8.6928C44.7314 8.91587 42.6987 9.00645 40.6716 8.96537L40.7121 6.96578C42.6526 7.00511 44.5986 6.9184 46.5369 6.70483L46.756 8.6928ZM40.3276 7.03429C41.2192 6.68549 42.0059 5.89077 42.3859 4.90242L44.2527 5.62015C43.6831 7.10161 42.5018 8.33135 41.0562 8.89686L40.3276 7.03429ZM43.636 6.20983C40.9524 7.10569 38.144 7.53311 35.3573 7.468L35.4041 5.46855C37.9559 5.52817 40.5344 5.13673 43.0027 4.31274L43.636 6.20983ZM34.8703 5.60833C35.5545 5.20228 36.0839 4.40812 36.2054 3.54489L38.1859 3.82372C37.9837 5.2594 37.1216 6.59787 35.8911 7.32822L34.8703 5.60833ZM37.6738 4.56259C34.6456 6.21114 31.2129 6.96673 27.8603 6.71213L28.0117 4.71787C30.9675 4.94233 34.0168 4.27628 36.7175 2.80603L37.6738 4.56259ZM27.9692 4.71555C28.4594 4.73184 29.0262 4.44388 29.3525 3.93152L31.0394 5.00584C30.3645 6.06561 29.1561 6.75611 27.9028 6.71445L27.9692 4.71555ZM30.4025 5.44711C28.2271 5.90633 26.0532 6.36593 23.8768 6.82548L23.4636 4.86863C25.6387 4.40936 27.8146 3.94932 29.9894 3.49024L30.4025 5.44711ZM23.4937 4.86274C24.0896 4.75595 24.6935 4.23437 24.8964 3.55585L26.8126 4.12882C26.4034 5.49707 25.2185 6.58547 23.8466 6.83137L23.4937 4.86274ZM26.0079 4.83049C23.8335 5.16817 21.7602 5.47705 19.5941 5.81416L19.2865 3.83795C21.3851 3.51136 23.6103 3.17886 25.701 2.85418L26.0079 4.83049ZM18.7797 4.0753C18.6431 4.19551 18.6461 4.29872 18.6828 4.1597C18.7117 4.04978 18.7338 3.90414 18.7656 3.68096C18.793 3.48861 18.83 3.21881 18.8948 2.97366C18.9519 2.75747 19.0773 2.36 19.4112 2.06647L20.7316 3.56859C20.8681 3.44864 20.8651 3.34566 20.8285 3.48442C20.7995 3.59421 20.7774 3.7398 20.7456 3.96283C20.7183 4.15502 20.6812 4.42474 20.6166 4.6697C20.5597 4.88555 20.4346 5.28316 20.1009 5.57681L18.7797 4.0753ZM20.5999 3.66646C19.0237 4.64774 17.2443 5.91254 15.4882 6.87256C13.6951 7.85277 11.7374 8.6321 9.61002 8.65933L9.58443 6.65949C11.2404 6.6383 12.8604 6.02975 14.5289 5.11766C16.2343 4.18538 17.8003 3.05345 19.5429 1.9686L20.5999 3.66646ZM9.86561 8.62272C9.70661 8.66702 9.54375 8.70449 9.38853 8.72255C9.27361 8.73591 8.99526 8.76268 8.70786 8.64167C8.53714 8.5698 8.32756 8.42979 8.18654 8.17968C8.04659 7.93147 8.03568 7.68386 8.05895 7.50881C8.09849 7.21129 8.25179 6.99368 8.31181 6.9112C8.46362 6.7026 8.68509 6.4933 8.88505 6.31745C9.10132 6.12726 9.35961 5.91876 9.63236 5.70686C10.1775 5.28335 10.8225 4.81387 11.3817 4.40479C11.9612 3.98092 12.4199 3.64231 12.6472 3.4478L13.9477 4.96716C13.6476 5.22406 13.1115 5.61749 12.5625 6.01905C11.9933 6.43541 11.3761 6.88475 10.8594 7.28623C10.6012 7.48682 10.3786 7.66734 10.2058 7.81932C10.1196 7.89513 10.0517 7.95866 10.0009 8.00989C9.9468 8.0645 9.92806 8.08923 9.92893 8.08803C9.92986 8.08675 9.94599 8.06486 9.96591 8.02509C9.98338 7.9902 10.0244 7.90134 10.0415 7.77232C10.0598 7.63449 10.0536 7.41898 9.92869 7.19738C9.80267 6.97389 9.6184 6.855 9.48394 6.79839C9.26906 6.70792 9.10705 6.7418 9.1575 6.73593C9.16765 6.73475 9.21919 6.72665 9.32884 6.6961L9.86561 8.62272ZM13.393 5.2029C12.1017 5.3269 10.8166 5.85462 9.37699 6.48313C7.99281 7.08747 6.44524 7.79593 4.83002 8.06056L4.50665 6.08687C5.82127 5.87149 7.11531 5.28827 8.57674 4.65021C9.98279 4.03633 11.5473 3.37094 13.2019 3.21206L13.393 5.2029ZM4.83029 8.06051C4.7928 8.06667 4.77022 8.0706 4.75172 8.07436C4.73419 8.07792 4.72935 8.07958 4.73225 8.07869C4.73795 8.07693 4.79407 8.05919 4.86102 8.00463L3.59755 6.45426C3.95937 6.1594 4.38945 6.10611 4.50638 6.08692L4.83029 8.06051ZM4.86196 8.00386C4.89928 7.97337 4.94334 7.92531 4.97897 7.85863C5.01432 7.79249 5.0305 7.72843 5.03599 7.6775C5.04571 7.58748 5.02108 7.55742 5.0434 7.61393C5.06306 7.66368 5.10316 7.73953 5.16967 7.83607C5.23412 7.92962 5.31031 8.02376 5.38669 8.1089L3.89797 9.44445C3.67293 9.19361 3.36051 8.79729 3.18332 8.34886C3.0933 8.12101 3.01006 7.81021 3.04754 7.46292C3.0887 7.08148 3.27008 6.72179 3.59661 6.45503L4.86196 8.00386ZM5.386 8.10813C6.13923 8.94601 7.14591 10.007 7.91377 11.1652C8.68388 12.3268 9.31529 13.73 9.17111 15.2857L7.17964 15.1012C7.26267 14.2052 6.90922 13.2695 6.24684 12.2704C5.58221 11.2679 4.70876 10.3464 3.89866 9.44522L5.386 8.10813ZM9.17109 15.2859C9.06656 16.4114 9.0558 17.7973 8.66976 19.2041C8.26548 20.6774 7.46141 22.198 5.81634 23.8623L4.39394 22.4563C5.81911 21.0145 6.43524 19.7894 6.74106 18.6749C7.06513 17.4939 7.05437 16.4499 7.17966 15.1009L9.17109 15.2859ZM4.89884 22.1808C11.9253 20.6993 19.3417 21.9541 25.4533 25.6622L24.4158 27.3721C18.7412 23.9291 11.8436 22.7605 5.31145 24.1378L4.89884 22.1808ZM23.9836 26.8265C23.3471 24.8696 22.0404 23.2087 20.3921 22.2192L21.4215 20.5044C23.505 21.7552 25.1079 23.8171 25.8855 26.2079L23.9836 26.8265ZM21.1639 20.3954C24.0331 21.1588 26.6982 22.67 28.8736 24.7611L27.4876 26.2029C25.5514 24.3418 23.1847 23.0026 20.6497 22.3282L21.1639 20.3954ZM27.262 25.8772C26.5208 24.1545 25.2156 22.7484 23.6467 21.9506L24.5533 20.1678C26.5593 21.1879 28.1825 22.9563 29.0991 25.0868L27.262 25.8772ZM24.2708 20.0739C27.3843 20.6137 30.3005 22.1577 32.5544 24.4493L31.1285 25.8518C29.1608 23.8511 26.6211 22.5112 23.9291 22.0445L24.2708 20.0739ZM30.9782 25.6553C29.8724 23.7643 28.416 22.1242 26.7199 20.8535L27.9191 19.2529C29.8348 20.6881 31.4682 22.5313 32.7047 24.6458L30.9782 25.6553ZM27.2454 19.0559C30.8124 18.791 34.4045 19.2748 37.7577 20.4725L37.085 22.356C33.9959 21.2527 30.6835 20.806 27.3936 21.0504L27.2454 19.0559ZM36.4817 21.7563C35.588 19.3007 33.8518 17.2502 31.6996 16.0703L32.661 14.3166C35.2614 15.7421 37.3103 18.1852 38.3611 21.0723L36.4817 21.7563ZM32.3696 14.2115C34.8095 14.6819 37.1575 15.6046 39.2802 16.927L38.2227 18.6245C36.3066 17.4308 34.1886 16.599 31.991 16.1754L32.3696 14.2115ZM37.8093 18.1109C36.9786 15.7756 35.3381 13.8237 33.3005 12.7052L34.2628 10.952C36.7527 12.3186 38.7075 14.6684 39.6936 17.4406L37.8093 18.1109ZM33.8241 10.8295C35.5004 10.9008 37.1121 11.847 38.4754 12.7839C39.1685 13.2601 39.8687 13.7868 40.4969 14.2409C41.1437 14.7085 41.7312 15.112 42.273 15.4081L41.314 17.1632C40.6538 16.8024 39.9799 16.335 39.3253 15.8618C38.6522 15.3753 38.0111 14.8915 37.3427 14.4322C35.9831 13.4979 34.7907 12.8724 33.7392 12.8277L33.8241 10.8295ZM40.8157 16.4952C40.7619 16.2441 40.5812 15.9211 40.1916 15.5129C39.808 15.1109 39.2951 14.701 38.6965 14.2618C38.1488 13.8599 37.4167 13.3551 36.8404 12.9232C36.2322 12.4674 35.6199 11.9664 35.1442 11.4195L36.6534 10.107C36.9858 10.4894 37.4597 10.888 38.0398 11.3228C38.6519 11.7815 39.2105 12.1582 39.8797 12.6493C40.498 13.103 41.1283 13.5976 41.6385 14.1321C42.1426 14.6604 42.6062 15.306 42.7713 16.076L40.8157 16.4952ZM36.253 9.8281C37.1923 10.1839 38.5397 10.4302 40.0607 10.7671C41.4867 11.083 43.0864 11.4839 44.2103 12.1844L43.1524 13.8817C42.364 13.3903 41.101 13.046 39.6281 12.7198C38.2502 12.4146 36.6624 12.1219 35.5445 11.6984L36.253 9.8281ZM42.6885 13.1528C42.7084 13.3177 42.8023 13.2367 42.3813 12.998C42.0224 12.7946 41.5027 12.5992 40.8806 12.4055C40.256 12.211 39.6342 12.0489 39.021 11.8723C38.4687 11.7133 37.8528 11.5245 37.441 11.287L38.4401 9.55448C38.6018 9.64772 38.9692 9.77613 39.5745 9.95044C40.1188 10.1072 40.829 10.2947 41.4751 10.4959C42.1237 10.6978 42.8136 10.9441 43.3676 11.2581C43.8596 11.537 44.5699 12.0494 44.6741 12.9133L42.6885 13.1528Z" fill="#1A1A1A" mask="url(#path-4-outside-1_343_841)"/>
</g>
</g>
</g>
</svg>
