<svg width="613" height="444" viewBox="0 0 613 444" fill="none" xmlns="http://www.w3.org/2000/svg">
<path d="M101.219 298.255L56.7225 317.244C52.2544 319.151 50.1815 324.315 52.0925 328.779L67.3749 364.474C69.2859 368.937 74.4572 371.01 78.9253 369.103L123.421 350.114C127.89 348.207 129.963 343.043 128.052 338.58L112.769 302.884C110.858 298.421 105.687 296.348 101.219 298.255Z" fill="#222222" stroke="url(#paint0_linear_281_1391)" stroke-width="1.18485"/>
<path d="M170.774 268.874L126.278 287.863C121.81 289.77 119.737 294.934 121.648 299.397L136.93 335.093C138.841 339.556 144.013 341.629 148.481 339.722L192.977 320.733C197.445 318.826 199.518 313.662 197.607 309.198L182.324 273.503C180.413 269.04 175.242 266.967 170.774 268.874Z" fill="#222222" stroke="url(#paint1_linear_281_1391)" stroke-width="1.18485"/>
<path d="M116.162 221.788L71.6655 240.777C67.1974 242.684 65.1245 247.848 67.0355 252.312L82.3179 288.007C84.2289 292.471 89.4002 294.543 93.8683 292.636L138.364 273.647C142.833 271.741 144.906 266.576 142.995 262.113L127.712 226.418C125.801 221.954 120.63 219.882 116.162 221.788Z" fill="#222222" stroke="url(#paint2_linear_281_1391)" stroke-width="1.18485"/>
<path d="M185.85 192.349L141.354 211.338C136.885 213.245 134.812 218.409 136.723 222.872L152.006 258.568C153.917 263.031 159.088 265.104 163.556 263.197L208.052 244.208C212.521 242.301 214.594 237.137 212.683 232.673L197.4 196.978C195.489 192.515 190.318 190.442 185.85 192.349Z" fill="#222222" stroke="url(#paint3_linear_281_1391)" stroke-width="1.18485"/>
<path d="M368.234 184.799L323.738 203.788C319.27 205.694 317.197 210.859 319.108 215.322L334.39 251.017C336.301 255.481 341.472 257.553 345.94 255.647L390.437 236.658C394.905 234.751 396.978 229.587 395.067 225.123L379.784 189.428C377.873 184.964 372.702 182.892 368.234 184.799Z" fill="#222222" stroke="url(#paint4_linear_281_1391)" stroke-width="1.18485"/>
<path d="M342.574 124.86L298.078 143.849C293.61 145.756 291.537 150.92 293.448 155.383L308.73 191.078C310.641 195.542 315.812 197.614 320.281 195.708L364.777 176.719C369.245 174.812 371.318 169.648 369.407 165.184L354.124 129.489C352.213 125.025 347.042 122.953 342.574 124.86Z" fill="#222222" stroke="url(#paint5_linear_281_1391)" stroke-width="1.18485"/>
<path d="M393.605 244.065L349.109 263.054C344.641 264.961 342.568 270.125 344.479 274.589L359.761 310.284C361.672 314.747 366.844 316.82 371.312 314.913L415.808 295.924C420.276 294.017 422.349 288.853 420.438 284.39L405.156 248.695C403.245 244.231 398.073 242.158 393.605 244.065Z" fill="#222222" stroke="url(#paint6_linear_281_1391)" stroke-width="1.18485"/>
<path d="M95.5864 371.467L51.0902 390.456C46.6221 392.362 44.5492 397.527 46.4602 401.99L61.7426 437.685C63.6536 442.149 68.8249 444.221 73.293 442.315L117.789 423.326C122.257 421.419 124.33 416.255 122.419 411.791L107.137 376.096C105.226 371.632 100.054 369.56 95.5864 371.467Z" fill="#222222" stroke="url(#paint7_linear_281_1391)" stroke-width="1.18485"/>
<path d="M165.175 341.767L120.679 360.756C116.211 362.663 114.138 367.827 116.049 372.291L131.331 407.986C133.242 412.45 138.414 414.522 142.882 412.615L187.378 393.626C191.846 391.72 193.919 386.555 192.008 382.092L176.725 346.397C174.814 341.933 169.643 339.861 165.175 341.767Z" fill="#222222" stroke="url(#paint8_linear_281_1391)" stroke-width="1.18485"/>
<path d="M323.989 273.989L279.493 292.978C275.025 294.885 272.952 300.049 274.863 304.513L290.146 340.208C292.057 344.671 297.228 346.744 301.696 344.837L346.192 325.848C350.66 323.941 352.733 318.777 350.822 314.314L335.54 278.618C333.629 274.155 328.457 272.082 323.989 273.989Z" fill="#222222" stroke="url(#paint9_linear_281_1391)" stroke-width="1.18485"/>
<path d="M298.432 214.591L195.794 258.392C191.326 260.299 189.253 265.463 191.164 269.927L206.447 305.622C208.358 310.085 213.529 312.158 217.997 310.251L320.635 266.45C325.103 264.543 327.176 259.379 325.265 254.915L309.983 219.22C308.072 214.756 302.9 212.684 298.432 214.591Z" fill="#222222" stroke="url(#paint10_linear_281_1391)" stroke-width="1.18485"/>
<path d="M271.709 155.892L210.042 182.21C205.573 184.116 203.5 189.281 205.411 193.744L220.694 229.439C222.605 233.903 227.776 235.975 232.244 234.069L293.912 207.751C298.38 205.845 300.453 200.68 298.542 196.217L283.26 160.522C281.349 156.058 276.177 153.986 271.709 155.892Z" fill="#222222" stroke="url(#paint11_linear_281_1391)" stroke-width="1.18485"/>
<path d="M254.406 303.69L190.271 331.06C185.803 332.967 183.73 338.131 185.641 342.595L200.924 378.29C202.835 382.753 208.006 384.826 212.474 382.919L276.609 355.549C281.077 353.642 283.15 348.478 281.239 344.014L265.957 308.319C264.046 303.856 258.874 301.783 254.406 303.69Z" fill="#222222" stroke="url(#paint12_linear_281_1391)" stroke-width="1.18485"/>
<path d="M77.241 322.37C77.0225 321.865 77.2367 321.351 77.7342 321.139C78.2318 320.927 78.7638 321.122 78.9823 321.628C79.2009 322.133 78.965 322.643 78.4687 322.847C77.9712 323.06 77.4596 322.875 77.241 322.37ZM80.285 329.8C81.2583 329.372 81.2737 328.543 81.0432 328.021C81.0109 327.948 80.9859 327.877 80.9258 327.837C80.866 328.013 80.6774 328.159 80.4926 328.238C80.0422 328.436 79.5665 328.303 79.3312 327.765C79.1187 327.268 79.3222 326.731 79.9634 326.461C80.7012 326.149 81.4706 326.652 81.8265 327.486C82.3854 328.785 81.9155 329.923 80.5846 330.528L80.2765 329.806L80.285 329.8Z" fill="#C099A0"/>
<path d="M86.0599 318.611C85.8413 318.105 86.0556 317.592 86.5531 317.38C87.0506 317.168 87.5826 317.363 87.8012 317.868C88.0198 318.374 87.7838 318.883 87.2875 319.088C86.79 319.3 86.2785 319.116 86.0599 318.611ZM88.3301 323.91C88.1115 323.405 88.3258 322.891 88.8233 322.679C89.3208 322.467 89.8528 322.662 90.0714 323.168C90.29 323.673 90.054 324.183 89.5578 324.388C89.0615 324.592 88.5486 324.416 88.3301 323.91Z" fill="#C099A0"/>
<path d="M145.772 289.357C144.799 289.785 144.784 290.614 145.007 291.135C145.039 291.208 145.064 291.279 145.124 291.319C145.184 291.143 145.373 290.997 145.558 290.918C146.007 290.727 146.484 290.853 146.719 291.391C146.932 291.888 146.728 292.425 146.087 292.695C145.349 293.007 144.58 292.504 144.225 291.663C143.666 290.364 144.136 289.226 145.467 288.621L145.775 289.342L145.772 289.357Z" fill="#C099A0"/>
<path d="M154.591 285.597C153.618 286.025 153.603 286.855 153.833 287.377C153.865 287.449 153.89 287.52 153.942 287.566C154.002 287.391 154.19 287.245 154.375 287.165C154.824 286.974 155.301 287.1 155.537 287.639C155.749 288.136 155.546 288.673 154.904 288.942C154.167 289.254 153.397 288.751 153.041 287.918C152.482 286.618 152.952 285.48 154.283 284.876L154.591 285.597ZM157.465 284.365C156.492 284.793 156.477 285.622 156.707 286.145C156.739 286.217 156.764 286.288 156.824 286.328C156.884 286.153 157.073 286.007 157.258 285.927C157.707 285.736 158.184 285.862 158.419 286.4C158.632 286.897 158.428 287.435 157.787 287.704C157.049 288.016 156.28 287.513 155.924 286.679C155.365 285.38 155.835 284.242 157.166 283.638L157.474 284.359L157.465 284.365Z" fill="#C099A0"/>
<path d="M93.4938 255.488L88.2906 243.327L92.5521 241.508L92.988 242.526L89.858 243.863L94.1966 253.989L97.3266 252.652L97.7625 253.67L93.501 255.489L93.4938 255.488Z" fill="#FEDF81"/>
<path d="M103.333 238.106C102.514 238.456 102.182 239.098 102.528 239.9C102.585 240.043 102.676 240.207 102.797 240.369L103.622 241.506C103.748 241.684 103.859 241.859 103.932 242.042C104.263 242.804 104.09 243.51 103.426 243.999C104.201 243.819 104.866 244.237 105.206 245.031C105.286 245.216 105.355 245.421 105.394 245.673L105.649 247.054C105.682 247.252 105.753 247.443 105.806 247.571C106.157 248.389 106.839 248.58 107.665 248.23L109.166 247.588L109.601 248.606L108.141 249.226C106.625 249.873 105.312 249.544 104.771 248.271C104.691 248.086 104.622 247.881 104.572 247.65L104.27 246.201C104.229 246.001 104.165 245.812 104.103 245.652C103.795 244.931 103.148 244.754 101.91 245.255L101.501 244.294C102.735 243.732 103.046 243.131 102.743 242.426C102.68 242.274 102.568 242.099 102.449 241.929L101.607 240.716C101.477 240.522 101.376 240.327 101.29 240.134C100.754 238.876 101.423 237.705 102.932 237.056L104.392 236.437L104.828 237.455L103.327 238.097L103.333 238.106Z" fill="#FEDF81"/>
<path d="M104.962 270.08L105.732 269.751L108.56 276.357L107.886 276.643L107.453 275.915C107.324 276.495 106.967 277.102 106.155 277.454C104.823 278.021 103.462 277.543 102.785 275.978C102.152 274.503 102.712 273.098 104.044 272.531C104.854 272.186 105.545 272.282 106.038 272.619L104.952 270.093L104.962 270.08ZM106.771 274.29C106.32 273.232 105.364 272.771 104.418 273.174C103.462 273.583 103.135 274.582 103.581 275.631C104.026 276.681 104.983 277.134 105.938 276.726C106.884 276.323 107.212 275.324 106.77 274.297L106.771 274.29Z" fill="#6C6C7D"/>
<path d="M109.65 273.244L109.672 273.293C110.09 274.196 110.944 274.595 111.86 274.202C112.542 273.91 112.917 273.328 112.812 272.634L113.598 272.3C113.822 273.341 113.331 274.387 112.215 274.864C110.771 275.479 109.405 274.897 108.772 273.421C108.144 271.961 108.644 270.561 110 269.983C111.363 269.406 112.614 269.88 113.265 271.292C113.297 271.364 113.358 271.531 113.397 271.649L109.657 273.246L109.65 273.244ZM109.409 272.564L112.291 271.333C111.862 270.532 111.097 270.312 110.294 270.657C109.587 270.96 109.148 271.747 109.409 272.564Z" fill="#6C6C7D"/>
<path d="M118.346 271.336L118.649 272.042L114.958 273.617L114.654 272.912L116.107 272.291L113.885 267.104L112.432 267.724L112.128 267.019L114.359 266.07L116.885 271.963L118.346 271.336Z" fill="#6C6C7D"/>
<path d="M173.739 245.891L173.761 245.939C174.179 246.843 175.033 247.242 175.949 246.848C176.631 246.556 177.006 245.974 176.901 245.28L177.687 244.947C177.911 245.988 177.42 247.033 176.304 247.511C174.86 248.126 173.487 247.542 172.861 246.068C172.233 244.608 172.733 243.208 174.089 242.63C175.452 242.053 176.703 242.527 177.354 243.939C177.386 244.011 177.447 244.177 177.486 244.295L173.747 245.892L173.739 245.891ZM173.506 245.212L176.387 243.981C175.957 243.187 175.193 242.96 174.39 243.305C173.683 243.608 173.251 244.396 173.506 245.212Z" fill="#6C6C7D"/>
<path d="M182.692 241.434L183.877 244.207L183.107 244.536L181.936 241.81C181.539 240.872 180.868 240.572 180.075 240.904C179.225 241.264 178.95 242.131 179.391 243.165L180.458 245.666L179.688 245.994L177.624 241.184L178.291 240.896L178.671 241.504C178.799 241.013 179.13 240.468 179.9 240.146C180.936 239.699 182.031 239.909 182.685 241.432L182.692 241.434Z" fill="#6C6C7D"/>
<path d="M186.152 235.428L186.923 235.099L189.751 241.705L189.077 241.991L188.643 241.263C188.514 241.843 188.158 242.45 187.346 242.802C186.014 243.369 184.653 242.891 183.975 241.326C183.343 239.851 183.903 238.446 185.235 237.879C186.045 237.534 186.735 237.63 187.228 237.967L186.143 235.441L186.152 235.428ZM187.969 239.639C187.517 238.581 186.562 238.121 185.615 238.523C184.66 238.932 184.333 239.931 184.779 240.981C185.224 242.03 186.18 242.484 187.136 242.075C188.082 241.672 188.409 240.673 187.968 239.646L187.969 239.639Z" fill="#6C6C7D"/>
<path d="M162.772 211.539L167.975 223.7L163.714 225.52L163.278 224.501L166.408 223.164L162.069 213.039L158.939 214.375L158.503 213.357L162.765 211.538L162.772 211.539Z" fill="#FEDF81"/>
<path d="M177.672 212.936C176.454 213.493 176.138 214.078 176.446 214.799C176.509 214.951 176.605 215.131 176.725 215.3L177.566 216.514C177.697 216.707 177.797 216.902 177.878 217.08C178.419 218.354 177.75 219.525 176.241 220.173L174.781 220.792L174.345 219.774L175.846 219.132C176.665 218.782 177.003 218.156 176.653 217.331C176.6 217.203 176.504 217.023 176.383 216.861L175.559 215.725C175.408 215.52 175.306 215.332 175.226 215.148C174.885 214.354 175.039 213.585 175.709 213.15C174.903 213.294 174.274 212.927 173.943 212.164C173.863 211.98 173.814 211.786 173.77 211.57L173.515 210.189C173.475 209.989 173.423 209.809 173.358 209.672C173.011 208.87 172.325 208.663 171.499 209.012L169.998 209.654L169.562 208.636L171.022 208.017C172.539 207.37 173.852 207.698 174.388 208.956C174.472 209.157 174.542 209.362 174.592 209.586L174.896 211.027C174.929 211.226 174.984 211.428 175.047 211.58C175.351 212.286 176.002 212.479 177.257 211.973L177.665 212.935L177.672 212.936Z" fill="#FEDF81"/>
<path d="M246.033 190.013L244.885 190.5L235.803 180.358L236.95 179.871L246.033 190.013Z" fill="#87A126"/>
<path d="M252.749 187.149L247.678 175.301L248.841 174.809L253.912 186.657L252.749 187.149Z" fill="#87A126"/>
<path d="M343.859 208.327C344.583 210.011 343.944 211.618 342.419 212.271C341.488 212.669 340.703 212.557 340.144 212.172L341.424 215.169L340.542 215.546L337.261 207.889L338.032 207.561L338.528 208.396C338.679 207.731 339.081 207.034 340.011 206.643C341.535 205.998 343.094 206.539 343.859 208.327ZM342.952 208.714C342.443 207.52 341.349 206.999 340.257 207.466C339.181 207.928 338.801 209.067 339.306 210.245C339.82 211.455 340.914 211.976 341.996 211.523C343.088 211.055 343.461 209.916 342.952 208.714Z" fill="#FEDF81"/>
<path d="M351.181 207.492L351.526 208.301L351.044 208.508C350.307 208.821 349.925 208.614 349.689 208.083C349.556 208.729 349.184 209.379 348.237 209.789C347.025 210.303 345.952 210.052 345.521 209.05C345.054 207.952 345.55 207.011 347.003 206.391L348.623 205.702L348.464 205.326C348.162 204.613 347.47 204.398 346.603 204.769C345.825 205.097 345.464 205.689 345.597 206.299L344.715 206.675C344.38 205.541 344.985 204.53 346.308 203.969C347.713 203.369 348.82 203.722 349.367 205.004L350.399 207.41C350.521 207.698 350.664 207.73 350.913 207.624L351.193 207.509L351.181 207.492ZM348.929 206.438L347.227 207.165C346.441 207.498 346.121 207.978 346.386 208.603C346.614 209.14 347.239 209.314 347.97 209C349.07 208.527 349.433 207.624 349.039 206.709L348.922 206.436L348.929 206.438Z" fill="#FEDF81"/>
<path d="M354.748 200.427L355.518 200.098L357.756 205.325C358.437 206.912 357.983 208.172 356.09 208.978C354.686 209.577 353.424 209.339 352.765 208.193L353.672 207.806C354.115 208.432 354.897 208.558 355.818 208.173C356.974 207.68 357.373 206.871 356.856 205.676L356.58 205.027C356.483 205.813 356.053 206.453 355.123 206.843C353.599 207.489 352.041 206.948 351.275 205.16C350.559 203.477 351.191 201.869 352.716 201.216C353.647 200.818 354.426 200.959 355.039 201.42L354.749 200.419L354.748 200.427ZM355.829 203.242C355.314 202.032 354.22 201.51 353.138 201.964C352.047 202.431 351.673 203.571 352.182 204.773C352.692 205.967 353.786 206.488 354.87 206.02C355.946 205.557 356.327 204.419 355.821 203.24L355.829 203.242Z" fill="#FEDF81"/>
<path d="M359.114 202.043L359.134 202.098C359.612 203.131 360.584 203.58 361.635 203.135C362.412 202.807 362.839 202.138 362.722 201.345L363.62 200.963C363.877 202.159 363.317 203.348 362.04 203.895C360.387 204.601 358.829 203.926 358.104 202.249C357.385 200.58 357.955 198.984 359.512 198.322C361.069 197.659 362.5 198.208 363.244 199.814C363.281 199.902 363.347 200.085 363.391 200.218L359.114 202.043ZM358.844 201.268L362.135 199.862C361.643 198.954 360.771 198.7 359.849 199.092C359.039 199.437 358.542 200.34 358.844 201.268Z" fill="#FEDF81"/>
<path d="M351.655 212.9L352.538 212.523L354.893 218.023L354.129 218.353L353.696 217.67C353.55 218.217 353.185 218.831 352.31 219.201C351.146 219.7 349.908 219.459 349.158 217.711L347.803 214.544L348.685 214.168L350.019 217.286C350.477 218.352 351.235 218.705 352.11 218.327C353.081 217.914 353.376 216.931 352.876 215.761L351.654 212.907L351.655 212.9Z" fill="#FEDF81"/>
<path d="M360.813 212.245C361.53 213.927 360.897 215.536 359.372 216.189C358.441 216.587 357.657 216.475 357.098 216.089L358.378 219.087L357.495 219.464L354.222 211.808L354.985 211.478L355.482 212.314C355.633 211.648 356.035 210.952 356.965 210.561C358.489 209.915 360.048 210.457 360.813 212.245ZM359.906 212.632C359.396 211.438 358.303 210.916 357.211 211.383C356.135 211.846 355.753 212.992 356.259 214.163C356.774 215.373 357.868 215.894 358.95 215.44C360.041 214.973 360.415 213.833 359.906 212.632Z" fill="#FEDF81"/>
<path d="M316.626 148.555L317.981 151.721L317.098 152.098L315.764 148.98C315.307 147.913 314.533 147.565 313.609 147.965C312.614 148.389 312.302 149.39 312.802 150.553L314.025 153.407L313.142 153.784L309.91 146.24L310.792 145.863L312 148.677C312.163 147.985 312.662 147.416 313.416 147.092C314.764 146.52 315.958 146.977 316.634 148.549L316.626 148.555Z" fill="#FF65AF"/>
<path d="M318.098 148.427C317.379 146.759 318.014 145.136 319.627 144.447C321.232 143.763 322.845 144.425 323.564 146.093C324.282 147.762 323.648 149.384 322.042 150.075C320.437 150.759 318.824 150.097 318.105 148.429L318.098 148.427ZM322.657 146.48C322.15 145.309 321.053 144.765 319.969 145.233C318.884 145.701 318.507 146.863 319.012 148.041C319.519 149.213 320.616 149.757 321.707 149.29C322.799 148.823 323.169 147.66 322.664 146.482L322.657 146.48Z" fill="#FF65AF"/>
<path d="M331.618 141.713L333.14 145.257L332.257 145.634L330.752 142.122C330.438 141.392 329.886 141.053 329.204 141.345C328.482 141.652 328.297 142.386 328.605 143.107L330.088 146.57L329.205 146.947L327.701 143.435C327.408 142.754 326.899 142.34 326.121 142.667C325.407 142.969 325.244 143.706 325.585 144.493L327.038 147.876L326.155 148.253L323.8 142.753L324.546 142.435L324.87 142.981C324.98 142.465 325.348 142.008 325.974 141.743C326.632 141.462 327.29 141.575 327.757 141.974C327.867 141.331 328.245 140.772 328.976 140.459C330.068 139.992 331.096 140.457 331.634 141.708L331.618 141.713Z" fill="#FF65AF"/>
<path d="M334.266 141.757L334.287 141.813C334.765 142.845 335.737 143.294 336.787 142.849C337.565 142.522 337.992 141.852 337.875 141.059L338.773 140.678C339.031 141.866 338.469 143.063 337.193 143.61C335.54 144.315 333.98 143.647 333.257 141.963C332.538 140.295 333.108 138.698 334.665 138.036C336.221 137.373 337.652 137.923 338.397 139.529C338.434 139.617 338.498 139.806 338.542 139.94L334.265 141.764L334.266 141.757ZM333.998 140.976L337.289 139.57C336.797 138.661 335.925 138.408 335.003 138.8C334.193 139.144 333.696 140.047 333.991 140.974L333.998 140.976Z" fill="#FF65AF"/>
<path d="M368.557 267.881C369.28 269.565 368.641 271.172 367.116 271.825C366.185 272.223 365.4 272.111 364.841 271.726L366.122 274.724L365.239 275.1L361.958 267.444L362.729 267.115L363.226 267.95C363.377 267.285 363.778 266.588 364.708 266.198C366.232 265.552 367.791 266.093 368.557 267.881ZM367.657 268.27C367.147 267.075 366.053 266.554 364.962 267.021C363.886 267.484 363.504 268.629 364.01 269.801C364.525 271.011 365.618 271.532 366.7 271.078C367.792 270.611 368.166 269.471 367.656 268.277L367.657 268.27Z" fill="#9E9DBA"/>
<path d="M375.886 267.047L376.231 267.857L375.749 268.064C375.011 268.376 374.63 268.17 374.393 267.639C374.26 268.285 373.889 268.935 372.941 269.345C371.73 269.858 370.657 269.608 370.226 268.605C369.759 267.508 370.254 266.567 371.707 265.946L373.327 265.258L373.169 264.881C372.867 264.168 372.174 263.953 371.307 264.325C370.53 264.653 370.168 265.245 370.302 265.855L369.419 266.231C369.085 265.097 369.689 264.085 371.013 263.524C372.417 262.925 373.525 263.278 374.072 264.56L375.103 266.966C375.225 267.254 375.369 267.286 375.617 267.18L375.899 267.057L375.886 267.047ZM373.633 265.993L371.932 266.72C371.146 267.054 370.825 267.534 371.09 268.159C371.319 268.696 371.943 268.87 372.674 268.556C373.774 268.083 374.137 267.179 373.743 266.265L373.626 265.992L373.633 265.993Z" fill="#9E9DBA"/>
<path d="M379.452 259.982L380.223 259.653L382.461 264.88C383.141 266.468 382.688 267.728 380.794 268.533C379.39 269.133 378.129 268.895 377.469 267.749L378.376 267.362C378.819 267.987 379.601 268.114 380.523 267.729C381.678 267.236 382.077 266.427 381.56 265.232L381.284 264.583C381.187 265.368 380.757 266.008 379.826 266.406C378.302 267.052 376.744 266.51 375.978 264.723C375.262 263.04 375.894 261.432 377.419 260.779C378.35 260.381 379.129 260.521 379.742 260.983L379.452 259.982ZM380.533 262.797C380.018 261.587 378.925 261.066 377.843 261.52C376.751 261.987 376.378 263.127 376.886 264.328C377.396 265.522 378.49 266.044 379.574 265.576C380.65 265.113 381.031 263.975 380.526 262.796L380.533 262.797Z" fill="#9E9DBA"/>
<path d="M383.818 261.598L383.838 261.654C384.316 262.687 385.288 263.135 386.339 262.691C387.117 262.363 387.544 261.693 387.426 260.9L388.325 260.519C388.583 261.707 388.021 262.904 386.745 263.451C385.091 264.157 383.532 263.489 382.808 261.805C382.089 260.136 382.66 258.54 384.216 257.877C385.773 257.215 387.204 257.764 387.949 259.37C387.986 259.458 388.051 259.64 388.095 259.774L383.818 261.598ZM383.549 260.824L386.839 259.418C386.347 258.509 385.476 258.256 384.553 258.648C383.743 258.992 383.246 259.896 383.549 260.824Z" fill="#9E9DBA"/>
<path d="M369.029 273.163L369.912 272.786L373.145 280.331L372.374 280.66L371.877 279.824C371.727 280.489 371.325 281.186 370.395 281.577C368.871 282.222 367.312 281.681 366.547 279.893C365.823 278.209 366.462 276.602 367.987 275.949C368.918 275.551 369.703 275.663 370.262 276.048L369.022 273.162L369.029 273.163ZM371.1 277.975C370.586 276.765 369.492 276.244 368.41 276.698C367.318 277.165 366.945 278.304 367.453 279.506C367.963 280.7 369.057 281.222 370.149 280.754C371.225 280.292 371.605 279.154 371.1 277.975Z" fill="#9E9DBA"/>
<path d="M373.377 276.975C372.658 275.307 373.292 273.684 374.906 272.994C376.51 272.31 378.123 272.973 378.842 274.641C379.561 276.309 378.926 277.932 377.313 278.622C375.708 279.306 374.096 278.644 373.377 276.975ZM377.934 275.035C377.429 273.857 376.33 273.32 375.239 273.787C374.147 274.254 373.777 275.417 374.282 276.595C374.787 277.774 375.886 278.311 376.978 277.844C378.069 277.377 378.439 276.214 377.933 275.043L377.934 275.035Z" fill="#9E9DBA"/>
<path d="M382.022 276.537L378.462 271.559L379.344 271.183L382.188 275.258L381.715 271.024L382.509 270.684L385.215 273.963L384.257 269.081L385.1 268.72L386.219 274.744L385.16 275.194L382.657 272.173L383.072 276.092L382.013 276.543L382.022 276.537Z" fill="#9E9DBA"/>
<path d="M392.031 268.516L393.386 271.682L392.503 272.059L391.169 268.941C390.712 267.874 389.954 267.522 389.047 267.909C388.076 268.322 387.758 269.315 388.264 270.487L389.487 273.341L388.604 273.718L386.249 268.218L387.02 267.889L387.459 268.581C387.607 268.019 387.988 267.401 388.864 267.023C390.052 266.513 391.299 266.749 392.049 268.497L392.031 268.516Z" fill="#9E9DBA"/>
<path d="M214.671 334.664L215.578 334.277C215.886 334.909 216.665 335.139 217.58 334.746C218.358 334.418 218.768 333.849 218.55 333.337C218.252 332.647 217.629 332.852 216.767 333.106C215.476 333.479 214.383 333.649 213.893 332.51C213.462 331.508 214.101 330.473 215.344 329.943C216.597 329.406 217.759 329.613 218.328 330.72L217.421 331.108C217.119 330.573 216.417 330.371 215.662 330.695C214.892 331.024 214.516 331.569 214.734 332.075C214.996 332.677 215.605 332.506 216.45 332.264C217.766 331.88 218.869 331.69 219.39 332.908C219.825 333.933 219.116 334.986 217.897 335.506C216.468 336.116 215.202 335.862 214.663 334.663L214.671 334.664Z" fill="#A6A5C4"/>
<path d="M224.886 328.699L226.241 331.866L225.359 332.242L224.025 329.124C223.567 328.058 222.794 327.71 221.87 328.109C220.875 328.533 220.562 329.535 221.063 330.698L222.285 333.552L221.403 333.928L218.17 326.384L219.053 326.008L220.26 328.822C220.423 328.129 220.922 327.561 221.677 327.237C223.026 326.657 224.218 327.121 224.894 328.693L224.886 328.699Z" fill="#A6A5C4"/>
<path d="M231.385 328.718L231.73 329.528L227.509 331.325L227.164 330.515L228.826 329.804L227.161 325.923L225.499 326.634L225.154 325.825L227.699 324.737L229.709 329.427L231.379 328.71L231.385 328.718ZM225.896 323.574C225.738 323.198 225.914 322.775 226.291 322.616C226.668 322.458 227.086 322.619 227.245 322.995C227.415 323.396 227.242 323.797 226.865 323.956C226.489 324.114 226.067 323.968 225.898 323.567L225.896 323.574Z" fill="#A6A5C4"/>
<path d="M233.126 328.934L231.116 324.244L229.672 324.859L229.326 324.05L230.771 323.435L230.504 322.817C230.09 321.847 230.303 321.208 231.323 320.773L232.767 320.158L233.112 320.967L231.723 321.562C231.281 321.754 231.195 321.999 231.375 322.424L231.646 323.057L233.645 322.203L233.99 323.012L231.991 323.866L234.001 328.557L233.118 328.933L233.126 328.934Z" fill="#A6A5C4"/>
<path d="M239.707 326.122C238.648 326.572 238.074 326.274 237.66 325.304L236.267 322.049L234.807 322.669L234.462 321.859L235.922 321.24L235.263 319.7L236.146 319.324L236.805 320.863L238.738 320.042L239.083 320.852L237.15 321.673L238.536 324.919C238.732 325.383 238.968 325.483 239.449 325.283L240.829 324.694L241.174 325.504L239.706 326.129L239.707 326.122Z" fill="#A6A5C4"/>
<path d="M141.698 369.333L140.884 359L141.758 358.629L142.572 368.962L141.698 369.333Z" fill="#B3B3B3"/>
<path d="M150.558 361.457L150.4 361.081C150.027 360.215 150.441 359.624 150.877 358.941C151.217 358.39 151.37 357.888 151.114 357.295C150.822 356.613 150.046 356.362 149.228 356.712C148.288 357.116 147.959 358.041 148.378 359.026L147.471 359.413C146.881 358.034 147.344 356.546 148.861 355.899C150.274 355.294 151.526 355.716 152 356.815C152.408 357.776 152.116 358.484 151.734 359.11C151.333 359.754 151.054 360.212 151.31 360.805L151.426 361.085L150.551 361.456L150.558 361.457ZM151.1 363.251C150.935 362.866 151.099 362.471 151.476 362.312C151.853 362.154 152.26 362.298 152.424 362.683C152.589 363.067 152.412 363.453 152.034 363.619C151.657 363.777 151.263 363.643 151.1 363.251Z" fill="#B3B3B3"/>
<path d="M81.4379 393.535L81.0497 392.629L83.8467 389.586L79.7158 389.511L79.317 388.581L84.699 388.691L85.0811 389.589L81.4319 393.527L81.4379 393.535Z" fill="#B3B3B3"/>
<path d="M71.834 394.664C71.6692 394.279 71.8336 393.884 72.2103 393.725C72.5871 393.567 72.9939 393.711 73.1587 394.095C73.3235 394.48 73.146 394.866 72.768 395.032C72.3912 395.19 71.9976 395.056 71.834 394.664Z" fill="#B3B3B3"/>
<path d="M258.286 240.855L260.306 245.57C260.337 245.649 258.612 241.602 258.334 240.968L258.286 240.855Z" stroke="#C8FF30" stroke-width="1.18485" stroke-miterlimit="10"/>
<path d="M241.95 253.025C246.789 250.963 254.927 247.488 260.104 245.275L260.505 245.106C258.667 245.892 244.085 252.113 241.95 253.025Z" stroke="#C8FF30" stroke-width="1.18485" stroke-miterlimit="10"/>
<path d="M242.788 255.695L240.47 250.284L236.935 254.991L242.788 255.695Z" fill="#C8FF30" stroke="#C8FF30" stroke-width="1.18485" stroke-miterlimit="10" stroke-linecap="round"/>
<path d="M216.79 268.707C216.197 268.841 215.843 268.785 215.632 268.659L215.555 268.595C215.365 268.436 215.199 268.067 215.244 267.298C215.288 266.55 215.528 265.542 215.983 264.282C216.891 261.768 218.616 258.358 221.136 254.208C226.172 245.916 234.343 234.742 245.365 222.003C267.409 196.524 300.831 164.816 343.332 137.398C386.024 109.855 429.356 83.3456 462.738 68.5215C479.44 61.1043 493.589 56.6418 503.898 56.4017C509.047 56.2818 513.182 57.2169 516.199 59.3081C519.2 61.3887 521.159 64.6588 521.875 69.3534C522.495 73.4194 521.98 77.0152 520.431 80.3178C518.878 83.6278 516.274 86.6718 512.672 89.6051C505.456 95.4823 494.334 100.841 479.965 106.979C474.928 109.13 469.496 111.376 463.704 113.77C436.495 125.019 401.315 139.562 361.484 163.201C317.844 189.099 282.689 216.71 257.704 237.212C253.212 240.898 249.051 244.352 245.229 247.524C238.417 253.179 232.682 257.939 228.072 261.522C224.473 264.32 221.585 266.379 219.42 267.583C218.335 268.186 217.462 268.557 216.79 268.707Z" fill="#847B7B" stroke="#151515"/>
<path d="M242.289 318.02C235.737 313.67 276.349 237.16 355.146 173.84C434.205 110.308 516.408 50.4996 526.53 87.9361C535.296 120.344 466.711 131.375 376.754 198.273C295.487 258.706 248.817 322.36 242.289 318.02Z" fill="#847B7B" stroke="#151515"/>
<path d="M271.485 317.8C270.871 317.937 270.507 317.876 270.289 317.74L270.222 317.685C270.025 317.525 269.853 317.158 269.886 316.398C269.919 315.657 270.144 314.658 270.583 313.408C271.458 310.913 273.141 307.527 275.615 303.407C280.559 295.173 288.615 284.075 299.521 271.421C321.33 246.114 354.504 214.614 396.887 187.368C439.459 159.999 482.693 133.655 516.087 118.918C532.795 111.545 546.978 107.106 557.36 106.862C562.546 106.741 566.729 107.667 569.804 109.745C572.863 111.812 574.886 115.06 575.68 119.719C576.367 123.755 575.904 127.322 574.396 130.599C572.884 133.884 570.31 136.906 566.728 139.82C559.551 145.658 548.432 150.984 534.055 157.085C529.015 159.224 523.581 161.455 517.786 163.835C490.554 175.017 455.343 189.476 415.59 212.969C372.036 238.707 337.055 266.139 312.206 286.508C307.738 290.17 303.6 293.602 299.8 296.754C293.026 302.372 287.324 307.101 282.737 310.66C279.155 313.44 276.278 315.486 274.117 316.682C273.033 317.281 272.16 317.65 271.485 317.8Z" fill="#847B7B" stroke="#151515"/>
<mask id="path-63-outside-1_281_1391" maskUnits="userSpaceOnUse" x="345.637" y="-48.2448" width="423.699" height="295.415" fill="black">
<rect fill="white" x="345.637" y="-48.2448" width="423.699" height="295.415"/>
<path d="M445.953 98.3784C419.974 101.629 391.953 104.487 368.217 90.9206C385.2 89.2353 402.02 86.4497 418.565 82.5949C407.965 80.8384 397.928 74.1052 391.762 64.6038C414.862 67.2381 438.148 65.8908 460.395 60.6347C451.369 57.5733 443.65 49.8759 440.256 40.5353C467.013 48.5167 495.421 48.7226 521.415 41.1226C514.164 42.9113 505.862 40.3877 500.275 34.6915C519.308 34.6798 538.34 34.6742 557.379 34.6635C548.825 34.9313 539.906 29.775 535.528 21.746C553.978 20.7379 572.548 19.6124 590.997 18.6104C587.08 16.404 586.072 5.11384 582.149 2.90648C613.611 14.3263 646.691 31.19 678.466 24.886C697.529 26.0898 651.786 8.22667 641.351 2.53526C666.528 -0.319767 693.32 12.4145 718.711 11.2392C720.04 11.1781 721.441 11.1355 722.664 11.7649C727.245 14.1287 724.467 21.0842 721.949 25.4568C711.938 42.795 717.727 65.8516 723.978 85.9836C730.291 106.302 736.822 126.557 743.579 146.744C684.262 146.795 626.465 169.636 583.446 210.036C585.513 190.574 594.397 172.403 608.039 159.712C586.681 170.526 568.136 186.924 554.422 207.122C557.948 189.515 567.397 173.623 580.756 162.84C557.336 172.204 537.045 189.119 523.171 210.838C529.428 191.986 539.28 174.658 552.006 160.124C522.838 164.071 494.748 174.09 469.808 189.439C473.214 165.34 485.081 143.165 502.675 128.04C484.046 135.896 466.898 147.204 452.215 161.322C455.295 138.321 466.538 117.118 483.295 102.696C460.652 108.505 441.898 138.971 424.093 154.236C424.137 136.353 453.431 115.961 463.672 97.5275C447.824 107.703 416.415 116.967 402.512 130.341C401.446 118.332 437.529 105.854 445.963 98.2798"/>
</mask>
<path d="M445.953 98.3784C419.974 101.629 391.953 104.487 368.217 90.9206C385.2 89.2353 402.02 86.4497 418.565 82.5949C407.965 80.8384 397.928 74.1052 391.762 64.6038C414.862 67.2381 438.148 65.8908 460.395 60.6347C451.369 57.5733 443.65 49.8759 440.256 40.5353C467.013 48.5167 495.421 48.7226 521.415 41.1226C514.164 42.9113 505.862 40.3877 500.275 34.6915C519.308 34.6798 538.34 34.6742 557.379 34.6635C548.825 34.9313 539.906 29.775 535.528 21.746C553.978 20.7379 572.548 19.6124 590.997 18.6104C587.08 16.404 586.072 5.11384 582.149 2.90648C613.611 14.3263 646.691 31.19 678.466 24.886C697.529 26.0898 651.786 8.22667 641.351 2.53526C666.528 -0.319767 693.32 12.4145 718.711 11.2392C720.04 11.1781 721.441 11.1355 722.664 11.7649C727.245 14.1287 724.467 21.0842 721.949 25.4568C711.938 42.795 717.727 65.8516 723.978 85.9836C730.291 106.302 736.822 126.557 743.579 146.744C684.262 146.795 626.465 169.636 583.446 210.036C585.513 190.574 594.397 172.403 608.039 159.712C586.681 170.526 568.136 186.924 554.422 207.122C557.948 189.515 567.397 173.623 580.756 162.84C557.336 172.204 537.045 189.119 523.171 210.838C529.428 191.986 539.28 174.658 552.006 160.124C522.838 164.071 494.748 174.09 469.808 189.439C473.214 165.34 485.081 143.165 502.675 128.04C484.046 135.896 466.898 147.204 452.215 161.322C455.295 138.321 466.538 117.118 483.295 102.696C460.652 108.505 441.898 138.971 424.093 154.236C424.137 136.353 453.431 115.961 463.672 97.5275C447.824 107.703 416.415 116.967 402.512 130.341C401.446 118.332 437.529 105.854 445.963 98.2798" fill="#C7B299"/>
<path d="M368.217 90.9206L368.02 88.9304L361.786 89.5489L367.225 92.657L368.217 90.9206ZM418.565 82.5949L419.019 84.5427L418.892 80.6218L418.565 82.5949ZM391.762 64.6038L391.988 62.6167L387.776 62.1363L390.084 65.6927L391.762 64.6038ZM460.395 60.6347L460.855 62.5811L467.636 60.9788L461.037 58.7406L460.395 60.6347ZM440.256 40.5353L440.828 38.6187L437.019 37.4826L438.376 41.2183L440.256 40.5353ZM521.415 41.1226L521.976 43.0423L520.936 39.1809L521.415 41.1226ZM500.275 34.6915L500.274 32.6915L495.515 32.6944L498.848 36.0919L500.275 34.6915ZM557.379 34.6635L557.441 36.6626L557.378 32.6635L557.379 34.6635ZM535.528 21.746L535.419 19.749L532.255 19.9218L533.772 22.7034L535.528 21.746ZM590.997 18.6104L591.105 20.6074L597.957 20.2353L591.978 16.8678L590.997 18.6104ZM582.149 2.90648L582.831 1.02649L581.168 4.64954L582.149 2.90648ZM678.466 24.886L678.592 22.89L678.332 22.8736L678.077 22.9242L678.466 24.886ZM641.351 2.53526L641.126 0.548L634.838 1.26104L640.394 4.29108L641.351 2.53526ZM718.711 11.2392L718.619 9.24133L718.618 9.24135L718.711 11.2392ZM722.664 11.7649L723.581 9.98758L723.579 9.98646L722.664 11.7649ZM721.949 25.4568L723.681 26.4568L723.682 26.455L721.949 25.4568ZM723.978 85.9836L722.068 86.5766L722.068 86.577L723.978 85.9836ZM743.579 146.744L743.581 148.744L746.357 148.742L745.475 146.109L743.579 146.744ZM583.446 210.036L581.457 209.824L580.888 215.181L584.815 211.493L583.446 210.036ZM608.039 159.712L609.401 161.176L607.135 157.928L608.039 159.712ZM554.422 207.122L552.461 206.729L556.076 208.245L554.422 207.122ZM580.756 162.84L582.013 164.397L580.014 160.983L580.756 162.84ZM523.171 210.838L521.273 210.208L524.857 211.915L523.171 210.838ZM552.006 160.124L553.511 161.441L557.027 157.426L551.738 158.142L552.006 160.124ZM469.808 189.439L467.828 189.159L467.232 193.373L470.856 191.142L469.808 189.439ZM502.675 128.04L503.978 129.556L501.897 126.197L502.675 128.04ZM452.215 161.322L450.232 161.057L449.472 166.734L453.601 162.764L452.215 161.322ZM483.295 102.696L484.599 104.212L482.798 100.759L483.295 102.696ZM424.093 154.236L422.093 154.231L422.082 158.594L425.394 155.754L424.093 154.236ZM463.672 97.5275L465.421 98.4989L462.592 95.8446L463.672 97.5275ZM402.512 130.341L400.52 130.518L400.89 134.677L403.899 131.782L402.512 130.341ZM445.704 96.3938C419.629 99.6568 392.282 102.371 369.209 89.1842L367.225 92.657C391.624 106.602 420.319 103.602 446.201 100.363L445.704 96.3938ZM368.415 92.9108C385.484 91.2169 402.39 88.4172 419.019 84.5427L418.111 80.6471C401.651 84.4822 384.917 87.2536 368.02 88.9304L368.415 92.9108ZM418.892 80.6218C408.879 78.9626 399.318 72.5732 393.439 63.515L390.084 65.6927C396.538 75.6372 407.051 82.7143 418.238 84.568L418.892 80.6218ZM391.535 66.5909C414.861 69.2509 438.38 67.8912 460.855 62.5811L459.935 58.6883C437.917 63.8904 414.863 65.2253 391.988 62.6167L391.535 66.5909ZM461.037 58.7406C452.613 55.8834 445.332 48.6495 442.136 39.8523L438.376 41.2183C441.968 51.1023 450.124 59.2633 459.752 62.5287L461.037 58.7406ZM439.684 42.4518C466.799 50.5399 495.6 50.754 521.976 43.0423L520.853 39.203C495.241 46.6913 467.228 46.4936 440.828 38.6187L439.684 42.4518ZM520.936 39.1809C514.427 40.7866 506.836 38.5239 501.703 33.291L498.848 36.0919C504.889 42.2515 513.902 45.036 521.894 43.0644L520.936 39.1809ZM500.277 36.6915C519.31 36.6798 538.34 36.6742 557.38 36.6635L557.378 32.6635C538.34 32.6742 519.306 32.6798 500.274 32.6915L500.277 36.6915ZM557.316 32.6645C549.551 32.9076 541.317 28.1855 537.284 20.7885L533.772 22.7034C538.495 31.3645 548.1 36.955 557.441 36.6626L557.316 32.6645ZM535.637 23.743C554.172 22.7303 572.588 21.6132 591.105 20.6074L590.888 16.6133C572.508 17.6116 553.784 18.7455 535.419 19.749L535.637 23.743ZM591.978 16.8678C591.545 16.6236 590.971 15.969 590.3 14.6367C589.656 13.3583 589.08 11.7894 588.454 10.0729C587.848 8.41489 587.192 6.60931 586.422 5.08095C585.678 3.6061 584.656 2.02233 583.129 1.16342L581.168 4.64954C581.603 4.8943 582.178 5.54958 582.85 6.88141C583.494 8.15972 584.07 9.72848 584.696 11.4447C585.302 13.1024 585.958 14.9078 586.727 16.4358C587.469 17.91 588.49 19.4939 590.015 20.353L591.978 16.8678ZM581.466 4.78647C597.013 10.4295 613.385 17.5862 629.615 22.4582C645.926 27.3545 662.505 30.0915 678.855 26.8478L678.077 22.9242C662.652 25.9845 646.804 23.4417 630.765 18.6271C614.646 13.7884 598.746 6.80329 582.831 1.02649L581.466 4.78647ZM678.34 26.882C679.582 26.9605 680.636 26.9669 681.491 26.8873C682.265 26.8152 683.189 26.6503 683.913 26.1472C684.324 25.8622 684.743 25.4164 684.945 24.773C685.146 24.1338 685.058 23.5386 684.899 23.0896C684.616 22.2916 684.006 21.6576 683.515 21.2156C682.453 20.2594 680.778 19.1959 678.832 18.1009C676.849 16.9846 674.45 15.7618 671.844 14.497C666.633 11.968 660.501 9.22524 655.054 6.77408C649.562 4.30236 644.834 2.15636 642.309 0.779443L640.394 4.29108C643.087 5.75986 647.989 7.98104 653.413 10.4217C658.882 12.883 664.951 15.5979 670.097 18.0956C672.67 19.3442 674.988 20.5271 676.87 21.5866C678.791 22.6675 680.13 23.5501 680.838 24.1882C681.233 24.5433 681.197 24.6185 681.129 24.4265C681.077 24.2806 681.007 23.9625 681.129 23.5728C681.253 23.1789 681.498 22.9549 681.631 22.8621C681.802 22.7434 681.765 22.8444 681.12 22.9045C680.555 22.9571 679.732 22.962 678.592 22.89L678.34 26.882ZM641.577 4.52253C653.802 3.13613 666.492 5.52912 679.547 8.21628C692.484 10.8791 705.803 13.8388 718.803 13.2371L718.618 9.24135C706.227 9.81493 693.455 6.9952 680.354 4.29842C667.371 1.62601 654.077 -0.920628 641.126 0.548L641.577 4.52253ZM718.803 13.2371C720.205 13.1726 721.07 13.194 721.749 13.5434L723.579 9.98646C721.811 9.07706 719.874 9.18357 718.619 9.24133L718.803 13.2371ZM721.747 13.5423C722.411 13.8846 722.752 14.3389 722.938 14.9084C723.146 15.5432 723.184 16.4151 722.997 17.5239C722.619 19.7569 721.433 22.3456 720.216 24.4586L723.682 26.455C724.983 24.1954 726.445 21.1201 726.941 18.1912C727.19 16.7191 727.221 15.1356 726.74 13.6648C726.238 12.1286 725.208 10.8272 723.581 9.98758L721.747 13.5423ZM720.217 24.4568C714.928 33.6171 713.875 44.1819 714.874 54.8588C715.872 65.5289 718.938 76.4959 722.068 86.5766L725.888 85.3905C722.767 75.3393 719.813 64.7119 718.857 54.4863C717.901 44.2673 718.959 34.6347 723.681 26.4568L720.217 24.4568ZM722.068 86.577C728.385 106.909 734.921 127.178 741.682 147.379L745.475 146.109C738.724 125.936 732.197 105.695 725.888 85.3901L722.068 86.577ZM743.577 144.744C683.755 144.795 625.468 167.828 582.077 208.578L584.815 211.493C627.461 171.444 684.768 148.794 743.581 148.744L743.577 144.744ZM585.435 210.247C587.453 191.239 596.131 173.522 609.401 161.176L606.677 158.248C592.663 171.285 583.572 189.909 581.457 209.824L585.435 210.247ZM607.135 157.928C585.469 168.898 566.668 185.526 552.767 205.998L556.076 208.245C569.604 188.322 587.893 172.154 608.942 161.496L607.135 157.928ZM556.383 207.515C559.822 190.343 569.035 174.872 582.013 164.397L579.5 161.284C565.759 172.375 556.074 188.687 552.461 206.729L556.383 207.515ZM580.014 160.983C556.197 170.505 535.579 187.698 521.486 209.761L524.857 211.915C538.511 190.54 558.476 173.902 581.499 164.697L580.014 160.983ZM525.07 211.468C531.245 192.862 540.965 175.77 553.511 161.441L550.502 158.806C537.594 173.547 527.612 191.11 521.273 210.208L525.07 211.468ZM551.738 158.142C522.295 162.126 493.939 172.24 468.76 187.736L470.856 191.142C495.557 175.94 523.382 166.015 552.274 162.106L551.738 158.142ZM471.788 189.719C475.13 166.075 486.773 144.349 503.978 129.556L501.371 126.523C483.39 141.982 471.298 164.606 467.828 189.159L471.788 189.719ZM501.897 126.197C483.041 134.149 465.687 145.593 450.829 159.881L453.601 162.764C468.109 148.814 485.05 137.643 503.452 129.882L501.897 126.197ZM454.197 161.588C457.216 139.046 468.233 118.297 484.599 104.212L481.99 101.18C464.842 115.939 453.374 137.596 450.232 161.057L454.197 161.588ZM482.798 100.759C470.871 103.819 460.178 113.288 450.43 123.542C445.537 128.689 440.767 134.164 436.188 139.217C431.579 144.303 427.14 148.989 422.791 152.718L425.394 155.754C429.948 151.85 434.53 147.004 439.153 141.903C443.805 136.768 448.478 131.402 453.329 126.298C463.071 116.05 473.076 107.382 483.792 104.633L482.798 100.759ZM426.093 154.241C426.103 150.301 427.732 146.048 430.557 141.474C433.373 136.916 437.262 132.221 441.55 127.421C445.754 122.714 450.521 117.717 454.679 112.968C458.889 108.158 462.754 103.298 465.421 98.4989L461.924 96.5562C459.47 100.974 455.833 105.576 451.669 110.333C447.452 115.15 442.972 119.825 438.567 124.756C434.246 129.593 430.163 134.502 427.154 139.372C424.154 144.228 422.105 149.23 422.093 154.231L426.093 154.241ZM462.592 95.8446C454.828 100.829 443.24 105.594 431.535 110.914C420.008 116.154 408.362 121.938 401.126 128.899L403.899 131.782C410.565 125.369 421.576 119.835 433.19 114.555C444.628 109.356 456.668 104.401 464.753 99.2105L462.592 95.8446ZM404.504 130.164C404.33 128.194 405.687 125.751 408.991 122.828C412.187 120 416.705 117.163 421.652 114.392C426.603 111.62 431.79 109.018 436.405 106.562C440.909 104.165 444.976 101.854 447.3 99.7679L444.627 96.7918C442.733 98.4925 439.127 100.582 434.526 103.031C430.037 105.42 424.688 108.108 419.698 110.902C414.703 113.7 409.873 116.707 406.34 119.832C402.914 122.863 400.162 126.483 400.52 130.518L404.504 130.164Z" fill="#1A1A1A" mask="url(#path-63-outside-1_281_1391)"/>
<defs>
<linearGradient id="paint0_linear_281_1391" x1="55.6609" y1="323.313" x2="162.853" y2="355.429" gradientUnits="userSpaceOnUse">
<stop stop-color="#3D3D3D"/>
<stop offset="1" stop-color="#101010" stop-opacity="0"/>
</linearGradient>
<linearGradient id="paint1_linear_281_1391" x1="125.216" y1="293.932" x2="232.408" y2="326.048" gradientUnits="userSpaceOnUse">
<stop stop-color="#3D3D3D"/>
<stop offset="1" stop-color="#101010" stop-opacity="0"/>
</linearGradient>
<linearGradient id="paint2_linear_281_1391" x1="70.6039" y1="246.846" x2="177.796" y2="278.962" gradientUnits="userSpaceOnUse">
<stop stop-color="#3D3D3D"/>
<stop offset="1" stop-color="#101010" stop-opacity="0"/>
</linearGradient>
<linearGradient id="paint3_linear_281_1391" x1="140.292" y1="217.407" x2="247.484" y2="249.523" gradientUnits="userSpaceOnUse">
<stop stop-color="#3D3D3D"/>
<stop offset="1" stop-color="#101010" stop-opacity="0"/>
</linearGradient>
<linearGradient id="paint4_linear_281_1391" x1="322.676" y1="209.857" x2="429.868" y2="241.973" gradientUnits="userSpaceOnUse">
<stop stop-color="#3D3D3D"/>
<stop offset="1" stop-color="#101010" stop-opacity="0"/>
</linearGradient>
<linearGradient id="paint5_linear_281_1391" x1="297.016" y1="149.918" x2="404.208" y2="182.034" gradientUnits="userSpaceOnUse">
<stop stop-color="#3D3D3D"/>
<stop offset="1" stop-color="#101010" stop-opacity="0"/>
</linearGradient>
<linearGradient id="paint6_linear_281_1391" x1="348.047" y1="269.123" x2="455.239" y2="301.239" gradientUnits="userSpaceOnUse">
<stop stop-color="#3D3D3D"/>
<stop offset="1" stop-color="#101010" stop-opacity="0"/>
</linearGradient>
<linearGradient id="paint7_linear_281_1391" x1="50.0286" y1="396.525" x2="157.22" y2="428.641" gradientUnits="userSpaceOnUse">
<stop stop-color="#3D3D3D"/>
<stop offset="1" stop-color="#101010" stop-opacity="0"/>
</linearGradient>
<linearGradient id="paint8_linear_281_1391" x1="119.617" y1="366.825" x2="226.809" y2="398.941" gradientUnits="userSpaceOnUse">
<stop stop-color="#3D3D3D"/>
<stop offset="1" stop-color="#101010" stop-opacity="0"/>
</linearGradient>
<linearGradient id="paint9_linear_281_1391" x1="278.432" y1="299.047" x2="385.623" y2="331.163" gradientUnits="userSpaceOnUse">
<stop stop-color="#3D3D3D"/>
<stop offset="1" stop-color="#101010" stop-opacity="0"/>
</linearGradient>
<linearGradient id="paint10_linear_281_1391" x1="199.52" y1="262.418" x2="320.975" y2="348.708" gradientUnits="userSpaceOnUse">
<stop stop-color="#3D3D3D"/>
<stop offset="1" stop-color="#101010" stop-opacity="0"/>
</linearGradient>
<linearGradient id="paint11_linear_281_1391" x1="210.394" y1="187.675" x2="327.187" y2="239.178" gradientUnits="userSpaceOnUse">
<stop stop-color="#3D3D3D"/>
<stop offset="1" stop-color="#101010" stop-opacity="0"/>
</linearGradient>
<linearGradient id="paint12_linear_281_1391" x1="190.827" y1="336.439" x2="308.475" y2="390.522" gradientUnits="userSpaceOnUse">
<stop stop-color="#3D3D3D"/>
<stop offset="1" stop-color="#101010" stop-opacity="0"/>
</linearGradient>
</defs>
</svg>
