<svg width="1025" height="82" viewBox="0 0 1025 82" fill="none" xmlns="http://www.w3.org/2000/svg">
<rect x="1" y="1" width="1023" height="80" rx="8" fill="url(#paint0_radial_3106_5003)"/>
<rect x="1" y="1" width="1023" height="80" rx="8" stroke="#30363D"/>
<g clip-path="url(#clip0_3106_5003)">
<path d="M31 43L43.1244 50L34.6244 64.7224L30.5237 57.8249L22.5 57.7224L31 43Z" fill="url(#paint1_linear_3106_5003)"/>
<path d="M52 43L39.8756 50L48.3756 64.7224L52.4763 57.8249L60.5 57.7224L52 43Z" fill="url(#paint2_linear_3106_5003)"/>
<path d="M37.925 19.4181C39.4856 17.4149 42.5144 17.4149 44.075 19.4181C45.1994 20.8613 47.0887 21.4752 48.8467 20.9685C51.2867 20.2652 53.737 22.0454 53.8221 24.5834C53.8834 26.4118 55.0511 28.019 56.7712 28.6424C59.1586 29.5076 60.0945 32.3881 58.6716 34.4914C57.6465 36.0067 57.6465 37.9933 58.6716 39.5086C60.0945 41.6119 59.1586 44.4924 56.7712 45.3576C55.0511 45.981 53.8834 47.5882 53.8221 49.4166C53.737 51.9546 51.2867 53.7348 48.8467 53.0315C47.0887 52.5248 45.1994 53.1387 44.075 54.5819C42.5144 56.5851 39.4856 56.5851 37.925 54.5819C36.8006 53.1387 34.9113 52.5248 33.1533 53.0315C30.7133 53.7348 28.263 51.9546 28.1779 49.4166C28.1166 47.5882 26.9489 45.981 25.2288 45.3576C22.8414 44.4924 21.9055 41.6119 23.3284 39.5086C24.3535 37.9933 24.3535 36.0067 23.3284 34.4914C21.9055 32.3881 22.8414 29.5076 25.2288 28.6424C26.9489 28.019 28.1166 26.4118 28.1779 24.5834C28.263 22.0454 30.7133 20.2652 33.1533 20.9685C34.9113 21.4752 36.8006 20.8613 37.925 19.4181Z" fill="url(#paint3_linear_3106_5003)" stroke="url(#paint4_linear_3106_5003)" stroke-width="0.578947"/>
<path fill-rule="evenodd" clip-rule="evenodd" d="M41.0002 50.8949C48.6741 50.8949 54.8949 44.6741 54.8949 37.0002C54.8949 29.3264 48.6741 23.1055 41.0002 23.1055C33.3264 23.1055 27.1055 29.3264 27.1055 37.0002C27.1055 39.5775 27.8072 41.9909 29.03 44.0598C34.6405 34.6208 41.173 28.8783 41.7831 29.1342C42.0489 29.2455 41.1727 30.5436 39.6648 32.7776C37.5769 35.8707 34.278 40.7578 31.123 46.7728C31.3867 47.0393 31.661 47.2952 31.9455 47.5397C37.7796 36.8632 45.2371 30.2432 45.8931 30.5197C46.159 30.6317 45.2818 31.9311 43.7729 34.1664C41.5486 37.4614 37.9516 42.7899 34.6195 49.3465C34.9168 49.5005 35.2205 49.644 35.5299 49.7767C41.3166 39.4133 48.5399 33.0192 49.1811 33.2906C49.446 33.4032 48.5709 34.6988 47.0652 36.9281C45.0037 39.9802 41.7601 44.7826 38.6413 50.6955C39.408 50.8266 40.1961 50.8949 41.0002 50.8949Z" fill="url(#paint5_linear_3106_5003)"/>
</g>
<path d="M91.7809 52.18C86.3209 52.18 83.0509 48.04 83.0509 41.5C83.0509 34.87 86.1409 30.82 91.8109 30.82C96.1009 30.82 99.0109 33.1 99.8209 37.84H97.0309C96.4009 34.69 94.6309 33.22 91.7509 33.22C87.7309 33.22 85.7209 36.25 85.7209 41.5C85.7209 46.75 87.8209 49.78 91.8109 49.78C95.2909 49.78 97.3609 47.47 97.3609 43.75V43.03H92.2009V40.63H99.9109V52H97.6609L97.4809 49.15C96.5209 50.98 94.6909 52.18 91.7809 52.18ZM111.207 52.18C106.737 52.18 103.617 49 103.617 44.35C103.617 39.7 106.737 36.52 111.207 36.52C115.677 36.52 118.797 39.7 118.797 44.35C118.797 49 115.677 52.18 111.207 52.18ZM111.207 49.99C114.237 49.99 116.277 47.62 116.277 44.35C116.277 41.08 114.237 38.71 111.207 38.71C108.177 38.71 106.137 41.08 106.137 44.35C106.137 47.62 108.177 49.99 111.207 49.99ZM127.768 49.75H132.418V52H120.688V49.75H125.308V33.25H120.688V31H127.768V49.75ZM146.745 39.04V31H149.205V52H147.075L146.745 49.54C145.725 50.95 144.075 52.18 141.495 52.18C137.265 52.18 134.145 49.33 134.145 44.35C134.145 39.67 137.265 36.52 141.495 36.52C144.075 36.52 145.815 37.57 146.745 39.04ZM141.735 49.99C144.735 49.99 146.775 47.68 146.775 44.41C146.775 41.05 144.735 38.71 141.735 38.71C138.705 38.71 136.665 41.02 136.665 44.35C136.665 47.68 138.705 49.99 141.735 49.99Z" fill="#FFD700"/>
<path d="M870.627 46.56H869.027V42.66H865.347V41.2H869.027V37.3H870.627V41.2H874.327V42.66H870.627V46.56ZM881.908 34V46.44H885.448V48H876.568V46.44H880.248V38.18C880.048 38.32 879.808 38.38 879.508 38.38H876.608V36.88H879.328C879.948 36.88 880.268 36.36 880.268 35.68V34H881.908ZM892.396 38.62C895.056 38.62 896.896 40.54 896.896 43.32C896.896 46.42 894.676 48.1 892.136 48.1C889.096 48.1 887.356 46.08 887.216 43.64H888.876C889.036 45.26 890.196 46.6 892.136 46.6C893.696 46.6 895.196 45.5 895.196 43.34C895.196 41.44 894.016 40.1 892.156 40.1C891.336 40.1 889.676 40.34 889.096 42L887.476 41.96L887.936 34H896.096V35.54H889.476L889.156 39.96C889.976 38.94 891.156 38.62 892.396 38.62ZM901.775 40.66C900.095 40.66 898.975 39.42 898.975 37.26C898.975 35.1 900.075 33.88 901.775 33.88C903.455 33.88 904.575 35.1 904.575 37.26C904.575 39.42 903.475 40.66 901.775 40.66ZM902.235 48H900.815L908.175 34H909.615L902.235 48ZM901.775 39.38C902.635 39.38 903.175 38.68 903.175 37.26C903.175 35.84 902.635 35.16 901.775 35.16C900.915 35.16 900.395 35.84 900.395 37.26C900.395 38.68 900.915 39.38 901.775 39.38ZM908.655 48.12C906.975 48.12 905.855 46.9 905.855 44.74C905.855 42.56 906.955 41.34 908.655 41.34C910.335 41.34 911.435 42.56 911.435 44.74C911.435 46.9 910.355 48.12 908.655 48.12ZM908.655 46.84C909.515 46.84 910.035 46.14 910.035 44.74C910.035 43.3 909.515 42.62 908.655 42.62C907.795 42.62 907.255 43.3 907.255 44.74C907.255 46.14 907.795 46.84 908.655 46.84ZM925.92 48.12C922.64 48.12 920.54 46.26 920.44 43.42H922.24C922.38 45.32 923.86 46.54 925.94 46.54C927.82 46.54 929.08 45.64 929.08 44.16C929.08 42.7 927.96 42.14 925.32 41.7C922.42 41.22 920.78 40.14 920.78 37.86C920.78 35.48 922.7 33.88 925.52 33.88C928.5 33.88 930.48 35.56 930.64 38.14H928.84C928.66 36.5 927.34 35.46 925.52 35.46C923.66 35.46 922.52 36.3 922.52 37.76C922.52 39.2 923.62 39.7 926.3 40.14C929.16 40.6 930.82 41.76 930.82 44C930.82 46.42 928.8 48.12 925.92 48.12ZM935.278 48H933.538V34H938.658C941.498 34 943.378 35.68 943.378 38.3C943.378 40.92 941.498 42.62 938.658 42.62H935.278V48ZM935.278 35.6V41.02H938.498C940.378 41.02 941.598 39.96 941.598 38.3C941.598 36.64 940.398 35.6 938.518 35.6H935.278ZM957.817 37.68C960.637 37.68 962.717 39.58 962.717 42.9C962.717 46.02 960.637 48.12 957.817 48.12C956.097 48.12 954.937 47.42 954.317 46.44L954.097 48H952.677V34H954.317V39.44C954.997 38.5 956.097 37.68 957.817 37.68ZM957.657 46.66C959.677 46.66 961.037 45.12 961.037 42.9C961.037 40.68 959.677 39.14 957.657 39.14C955.657 39.14 954.297 40.68 954.297 42.86C954.297 45.1 955.657 46.66 957.657 46.66ZM969.893 48.12C966.913 48.12 964.833 46 964.833 42.9C964.833 39.8 966.913 37.68 969.893 37.68C972.873 37.68 974.953 39.8 974.953 42.9C974.953 46 972.873 48.12 969.893 48.12ZM969.893 46.66C971.913 46.66 973.273 45.08 973.273 42.9C973.273 40.72 971.913 39.14 969.893 39.14C967.873 39.14 966.513 40.72 966.513 42.9C966.513 45.08 967.873 46.66 969.893 46.66ZM982.14 48.12C979.16 48.12 977.08 46 977.08 42.9C977.08 39.8 979.16 37.68 982.14 37.68C985.12 37.68 987.2 39.8 987.2 42.9C987.2 46 985.12 48.12 982.14 48.12ZM982.14 46.66C984.16 46.66 985.52 45.08 985.52 42.9C985.52 40.72 984.16 39.14 982.14 39.14C980.12 39.14 978.76 40.72 978.76 42.9C978.76 45.08 980.12 46.66 982.14 46.66ZM993.627 48.12C990.987 48.12 989.167 46.88 989.127 44.64H990.807C990.867 45.84 991.927 46.72 993.627 46.72C995.067 46.72 996.087 46.1 996.087 45.16C996.087 43.88 994.967 43.78 993.447 43.6C991.167 43.32 989.347 42.86 989.347 40.74C989.347 38.88 991.047 37.68 993.347 37.68C995.667 37.68 997.347 38.78 997.507 40.9H995.827C995.707 39.86 994.747 39.08 993.347 39.08C991.927 39.08 990.967 39.68 990.967 40.62C990.967 41.74 992.047 41.88 993.527 42.06C995.847 42.34 997.707 42.78 997.707 45.04C997.707 46.94 995.887 48.12 993.627 48.12ZM1007.08 48H1004.36C1002.4 48 1001.7 47.14 1001.7 45.34V39.3H998.998V37.8H1001.7V34.94H1003.34V37.8H1006.92V39.3H1003.34V45.32C1003.34 46.18 1003.64 46.5 1004.52 46.5H1007.08V48Z" fill="#FFD700"/>
<defs>
<radialGradient id="paint0_radial_3106_5003" cx="0" cy="0" r="1" gradientUnits="userSpaceOnUse" gradientTransform="translate(512.5 -30) rotate(90) scale(111 1100.15)">
<stop stop-color="#DEA005" stop-opacity="0.55"/>
<stop offset="1" stop-color="#161B22"/>
</radialGradient>
<linearGradient id="paint1_linear_3106_5003" x1="37.0622" y1="46.5" x2="28.5622" y2="61.2224" gradientUnits="userSpaceOnUse">
<stop stop-color="#4D0404"/>
<stop offset="1" stop-color="#F21916"/>
</linearGradient>
<linearGradient id="paint2_linear_3106_5003" x1="45.9378" y1="46.5" x2="54.4378" y2="61.2224" gradientUnits="userSpaceOnUse">
<stop stop-color="#4D0404"/>
<stop offset="1" stop-color="#F21916"/>
</linearGradient>
<linearGradient id="paint3_linear_3106_5003" x1="41" y1="15" x2="41" y2="59" gradientUnits="userSpaceOnUse">
<stop stop-color="#FFC100"/>
<stop offset="1" stop-color="#CF9107"/>
</linearGradient>
<linearGradient id="paint4_linear_3106_5003" x1="41" y1="15" x2="41" y2="59" gradientUnits="userSpaceOnUse">
<stop stop-color="white" stop-opacity="0.52"/>
<stop offset="1" stop-color="white" stop-opacity="0"/>
</linearGradient>
<linearGradient id="paint5_linear_3106_5003" x1="41.0002" y1="23.1055" x2="41.0002" y2="50.8949" gradientUnits="userSpaceOnUse">
<stop stop-color="#FFD65B"/>
<stop offset="1" stop-color="#FFC408"/>
</linearGradient>
<clipPath id="clip0_3106_5003">
<rect width="48" height="48" fill="white" transform="translate(17 17)"/>
</clipPath>
</defs>
</svg>
