<svg width="1025" height="262" viewBox="0 0 1025 262" fill="none" xmlns="http://www.w3.org/2000/svg">
<rect x="64.5" y="1" width="240" height="112" rx="8" fill="#161B22"/>
<rect x="64.5" y="1" width="240" height="112" rx="8" stroke="#30363D"/>
<g filter="url(#filter0_d_3106_5121)">
<rect x="95" y="17" width="80" height="80" rx="40" fill="#EA860D" fill-opacity="0.65" shape-rendering="crispEdges"/>
</g>
<g filter="url(#filter1_d_3106_5121)">
<rect x="100.75" y="22.7422" width="68.5083" height="68.5083" rx="34.2541" fill="#EA860D" fill-opacity="0.65" shape-rendering="crispEdges"/>
</g>
<g filter="url(#filter2_d_3106_5121)">
<rect x="106.484" y="28.4883" width="57.0166" height="57.0166" rx="28.5083" fill="#EA860D"/>
</g>
<g clip-path="url(#clip0_3106_5121)">
<path d="M134.813 73.9217C144.637 73.9217 152.602 66.0631 152.602 56.3691C152.602 46.675 144.637 38.8164 134.813 38.8164C124.988 38.8164 117.023 46.675 117.023 56.3691C117.023 66.0631 124.988 73.9217 134.813 73.9217Z" fill="#C7B299" stroke="#161616" stroke-width="0.23431" stroke-miterlimit="10"/>
<path d="M115 57.9083C115 46.4542 123.234 37 135.853 37C147.642 37 155 45.2849 155 55.6664C155 67.118 146.766 76.5746 134.246 76.5746C122.406 76.5722 115 68.2873 115 57.9083ZM134.44 73.5507C144.719 73.5507 151.297 65.6072 151.297 55.86C151.297 53.3833 151.246 46.3816 146.064 43.6313C141.454 41.186 136.187 43.9145 135.541 44.2632C134.471 43.6676 130.081 41.3749 125.746 43.0405C118.548 45.8054 118.705 56.7219 118.705 57.7121C118.705 66.5829 124.698 73.5507 134.442 73.5507H134.44Z" fill="#161616"/>
<path d="M143.344 61.7438C147.874 64.1406 152.691 63.9275 154.099 61.2644C155.508 58.6012 152.976 54.4975 148.446 52.1007C143.915 49.7038 139.362 47.5273 137.69 52.58C135.872 58.0807 138.813 59.3469 143.344 61.7438ZM143.002 55.7056C141.666 55.7056 140.553 54.9938 140.514 54.1223C140.476 53.2507 141.09 53.5969 142.426 53.5993C143.762 53.6017 145.314 53.2579 145.352 54.1319C145.391 55.0035 144.338 55.7081 143.002 55.7056Z" fill="#161616"/>
<path d="M131.916 52.5808C130.246 47.5281 125.694 49.7022 121.161 52.1015C116.63 54.4983 114.098 58.602 115.507 61.2652C116.915 63.9283 121.729 64.1438 126.262 61.7446C130.793 59.3477 133.736 58.0815 131.916 52.5808ZM124.251 54.1327C124.29 53.2612 125.841 53.605 127.177 53.6001C128.513 53.5977 129.128 53.2515 129.089 54.1231C129.051 54.9946 127.937 55.704 126.601 55.7064C125.265 55.7089 124.213 55.0043 124.251 54.1327Z" fill="#161616"/>
<path d="M134.692 64.3568C136.897 64.3568 138.685 63.1646 138.685 61.694C138.685 60.2234 136.897 59.0312 134.692 59.0312C132.487 59.0312 130.699 60.2234 130.699 61.694C130.699 63.1646 132.487 64.3568 134.692 64.3568Z" fill="#161616"/>
<path d="M133.637 62.6447C133.559 62.8189 133.223 62.9036 132.889 62.8335C132.555 62.7633 132.347 62.5673 132.427 62.3931C132.507 62.2189 132.841 62.1342 133.175 62.2044C133.508 62.2745 133.716 62.4705 133.637 62.6447Z" fill="white"/>
<path d="M135.818 62.6447C135.895 62.8189 136.231 62.9036 136.565 62.8335C136.899 62.7633 137.107 62.5673 137.027 62.3931C136.947 62.2189 136.614 62.1342 136.28 62.2044C135.946 62.2745 135.738 62.4705 135.818 62.6447Z" fill="white"/>
<path d="M126.927 58.2998C128.809 58.2998 130.335 56.7741 130.335 54.8921C130.335 53.0101 128.809 51.4844 126.927 51.4844C125.045 51.4844 123.52 53.0101 123.52 54.8921C123.52 56.7741 125.045 58.2998 126.927 58.2998Z" fill="white" stroke="#161616" stroke-width="0.23431" stroke-miterlimit="10"/>
<path d="M126.928 57.4487C128.183 57.4487 129.2 56.368 129.2 55.0349C129.2 53.7018 128.183 52.6211 126.928 52.6211C125.673 52.6211 124.656 53.7018 124.656 55.0349C124.656 56.368 125.673 57.4487 126.928 57.4487Z" fill="#161616" stroke="#161616" stroke-width="0.23431" stroke-miterlimit="10"/>
<path d="M132.469 67.602C133.253 67.602 135.45 66.9661 135.45 66.1819C135.45 65.3977 134.456 66.1816 132.894 66.1819C132.11 66.1819 130.055 64.5457 130.055 65.3299C130.055 66.1141 131.684 67.602 132.469 67.602Z" fill="#161616" stroke="#161616" stroke-width="0.23431" stroke-miterlimit="10"/>
<path d="M125.509 55.1746C125.823 55.1746 126.077 54.9204 126.077 54.6068C126.077 54.2933 125.823 54.0391 125.509 54.0391C125.196 54.0391 124.941 54.2933 124.941 54.6068C124.941 54.9204 125.196 55.1746 125.509 55.1746Z" fill="white"/>
<path d="M142.833 58.2998C144.715 58.2998 146.241 56.7741 146.241 54.8921C146.241 53.0101 144.715 51.4844 142.833 51.4844C140.951 51.4844 139.426 53.0101 139.426 54.8921C139.426 56.7741 140.951 58.2998 142.833 58.2998Z" fill="white" stroke="#101010" stroke-width="0.23431" stroke-miterlimit="10"/>
<path d="M142.691 57.4487C144.024 57.4487 145.105 56.368 145.105 55.0349C145.105 53.7018 144.024 52.6211 142.691 52.6211C141.358 52.6211 140.277 53.7018 140.277 55.0349C140.277 56.368 141.358 57.4487 142.691 57.4487Z" fill="#161616" stroke="#161616" stroke-width="0.23431" stroke-miterlimit="10"/>
<path d="M141.412 55.1746C141.725 55.1746 141.979 54.9204 141.979 54.6068C141.979 54.2933 141.725 54.0391 141.412 54.0391C141.098 54.0391 140.844 54.2933 140.844 54.6068C140.844 54.9204 141.098 55.1746 141.412 55.1746Z" fill="white"/>
</g>
<path d="M199.034 49.5H193.346V32.7H198.866C202.49 32.7 204.386 34.428 204.386 37.14C204.386 39.036 203.306 40.236 201.674 40.788C203.498 41.124 205.106 42.276 205.106 44.7C205.106 47.676 203.09 49.5 199.034 49.5ZM195.434 34.596V39.996H198.962C201.17 39.996 202.298 38.988 202.298 37.284C202.298 35.604 201.194 34.596 198.962 34.596H195.434ZM195.434 41.868V47.604H199.034C201.698 47.604 202.97 46.524 202.97 44.796C202.97 42.9 201.578 41.868 199.034 41.868H195.434ZM216.287 37.26H217.607V39.18H216.023C213.167 39.18 212.327 41.364 212.327 43.308V47.7H215.903V49.5H207.623V47.7H210.359V39.06H207.623V37.26H212.231L212.303 39.324C212.855 38.364 213.959 37.26 216.287 37.26ZM225.559 49.644C221.983 49.644 219.487 47.1 219.487 43.38C219.487 39.66 221.983 37.116 225.559 37.116C229.135 37.116 231.631 39.66 231.631 43.38C231.631 47.1 229.135 49.644 225.559 49.644ZM225.559 47.892C227.983 47.892 229.615 45.996 229.615 43.38C229.615 40.764 227.983 38.868 225.559 38.868C223.135 38.868 221.503 40.764 221.503 43.38C221.503 45.996 223.135 47.892 225.559 47.892ZM240.638 37.116C243.278 37.116 245.438 38.556 245.438 42.444V49.5H243.47V42.564C243.47 40.188 242.318 38.916 240.302 38.916C238.142 38.916 236.75 40.524 236.75 43.14V49.5H234.782V37.26H236.486L236.75 38.916C237.47 37.98 238.694 37.116 240.638 37.116ZM259.037 49.5H248.309V47.916L256.157 39.06H248.573V37.26H258.773V38.844L250.901 47.7H259.037V49.5ZM272.258 43.812H262.754V43.932C262.826 46.26 264.29 47.892 266.618 47.892C268.346 47.892 269.69 46.98 270.098 45.396H272.09C271.61 47.844 269.594 49.644 266.762 49.644C263.09 49.644 260.69 47.124 260.69 43.38C260.69 39.66 263.042 37.116 266.498 37.116C269.954 37.116 272.21 39.3 272.306 42.924C272.306 43.116 272.282 43.524 272.258 43.812ZM266.522 38.844C264.722 38.844 263.066 40.14 262.874 42.132H270.194C270.002 40.02 268.562 38.844 266.522 38.844Z" fill="#EA860D"/>
<path d="M205.166 66.9V78.096H208.352V79.5H200.36V78.096H203.672V70.662C203.492 70.788 203.276 70.842 203.006 70.842H200.396V69.492H202.844C203.402 69.492 203.69 69.024 203.69 68.412V66.9H205.166ZM223.62 71.724L223.818 70.32H225.096V83.1H223.62V78.024C223.008 78.87 222.018 79.608 220.47 79.608C217.932 79.608 216.06 77.898 216.06 74.91C216.06 72.102 217.932 70.212 220.47 70.212C222.018 70.212 223.062 70.842 223.62 71.724ZM220.614 78.294C222.414 78.294 223.638 76.908 223.638 74.946C223.638 72.93 222.414 71.526 220.614 71.526C218.796 71.526 217.572 72.912 217.572 74.91C217.572 76.908 218.796 78.294 220.614 78.294ZM234.237 75.09V70.32H235.713V79.5H234.435L234.237 78.276C233.697 78.96 232.815 79.608 231.357 79.608C229.413 79.608 227.811 78.528 227.811 75.612V70.32H229.287V75.522C229.287 77.304 230.151 78.258 231.609 78.258C233.229 78.258 234.237 77.052 234.237 75.09ZM246.744 75.234H239.616V75.324C239.67 77.07 240.768 78.294 242.514 78.294C243.81 78.294 244.818 77.61 245.124 76.422H246.618C246.258 78.258 244.746 79.608 242.622 79.608C239.868 79.608 238.068 77.718 238.068 74.91C238.068 72.12 239.832 70.212 242.424 70.212C245.016 70.212 246.708 71.85 246.78 74.568C246.78 74.712 246.762 75.018 246.744 75.234ZM242.442 71.508C241.092 71.508 239.85 72.48 239.706 73.974H245.196C245.052 72.39 243.972 71.508 242.442 71.508ZM252.556 79.608C250.18 79.608 248.542 78.492 248.506 76.476H250.018C250.072 77.556 251.026 78.348 252.556 78.348C253.852 78.348 254.77 77.79 254.77 76.944C254.77 75.792 253.762 75.702 252.394 75.54C250.342 75.288 248.704 74.874 248.704 72.966C248.704 71.292 250.234 70.212 252.304 70.212C254.392 70.212 255.904 71.202 256.048 73.11H254.536C254.428 72.174 253.564 71.472 252.304 71.472C251.026 71.472 250.162 72.012 250.162 72.858C250.162 73.866 251.134 73.992 252.466 74.154C254.554 74.406 256.228 74.802 256.228 76.836C256.228 78.546 254.59 79.608 252.556 79.608ZM264.662 79.5H262.214C260.45 79.5 259.82 78.726 259.82 77.106V71.67H257.39V70.32H259.82V67.746H261.296V70.32H264.518V71.67H261.296V77.088C261.296 77.862 261.566 78.15 262.358 78.15H264.662V79.5Z" fill="white"/>
<rect x="392.5" y="1" width="240" height="112" rx="8" fill="#161B22"/>
<rect x="392.5" y="1" width="240" height="112" rx="8" stroke="#30363D"/>
<g filter="url(#filter3_d_3106_5121)">
<rect x="426.5" y="17" width="80" height="80" rx="40" fill="#A6A5C4" fill-opacity="0.65" shape-rendering="crispEdges"/>
</g>
<g filter="url(#filter4_d_3106_5121)">
<rect x="432.246" y="22.7461" width="68.5083" height="68.5083" rx="34.2541" fill="#A6A5C4" fill-opacity="0.65" shape-rendering="crispEdges"/>
</g>
<g filter="url(#filter5_d_3106_5121)">
<rect x="437.992" y="28.4922" width="57.0166" height="57.0166" rx="28.5083" fill="#A6A5C4"/>
</g>
<g clip-path="url(#clip1_3106_5121)">
<path d="M466.313 73.4228C476.137 73.4228 484.102 65.6706 484.102 56.1079C484.102 46.5451 476.137 38.793 466.313 38.793C456.488 38.793 448.523 46.5451 448.523 56.1079C448.523 65.6706 456.488 73.4228 466.313 73.4228Z" fill="#C7B299" stroke="#161616" stroke-width="0.23431" stroke-miterlimit="10"/>
<path d="M446.5 57.625C446.5 46.3262 454.734 37 467.353 37C479.142 37 486.5 45.1726 486.5 55.4135C486.5 66.71 478.266 76.0385 465.746 76.0385C453.906 76.0362 446.5 67.8635 446.5 57.625ZM465.94 73.0556C476.219 73.0556 482.797 65.2197 482.797 55.6046C482.797 53.1614 482.746 46.2545 477.564 43.5415C472.954 41.1293 467.687 43.8209 467.041 44.1648C465.971 43.5773 461.581 41.3156 457.246 42.9587C450.048 45.6861 450.205 56.4548 450.205 57.4316C450.205 66.1822 456.198 73.0556 465.942 73.0556H465.94Z" fill="#161616"/>
<path d="M454.938 63.2244C454.938 63.6089 459.935 66.0855 466.218 66.0855C472.501 66.0855 477.688 63.6089 477.688 63.2244C477.688 62.8399 472.499 64.6932 466.218 64.6932C459.935 64.6932 454.938 62.8399 454.938 63.2244Z" fill="#161616"/>
<path d="M474.844 61.4062C479.374 63.7706 484.191 63.5604 485.599 60.9333C487.008 58.3062 484.476 54.2581 479.946 51.8937C475.415 49.5294 470.862 47.3823 469.19 52.3666C467.372 57.7927 470.313 59.0418 474.844 61.4062ZM474.502 55.4499C473.166 55.4499 472.053 54.7477 472.014 53.8879C471.976 53.0282 472.59 53.3697 473.926 53.3721C475.262 53.3745 476.814 53.0353 476.852 53.8975C476.891 54.7573 475.838 55.4522 474.502 55.4499Z" fill="#161616"/>
<path d="M463.416 52.3674C461.746 47.3831 457.194 49.5278 452.661 51.8945C448.13 54.2589 445.598 58.307 447.007 60.9341C448.415 63.5612 453.229 63.7737 457.762 61.407C462.293 59.0426 465.236 57.7935 463.416 52.3674ZM455.751 53.8983C455.79 53.0385 457.341 53.3776 458.677 53.3729C460.013 53.3705 460.628 53.0289 460.589 53.8887C460.551 54.7485 459.437 55.4483 458.101 55.4506C456.765 55.453 455.713 54.7581 455.751 53.8983Z" fill="#161616"/>
<path d="M466.193 63.9886C468.398 63.9886 470.186 62.8124 470.186 61.3615C470.186 59.9106 468.398 58.7344 466.193 58.7344C463.987 58.7344 462.199 59.9106 462.199 61.3615C462.199 62.8124 463.987 63.9886 466.193 63.9886Z" fill="#161616"/>
<path d="M465.137 62.2949C465.06 62.4669 464.723 62.5505 464.39 62.4812C464.056 62.412 463.847 62.2185 463.927 62.0466C464.007 61.8746 464.341 61.791 464.675 61.8603C465.009 61.9295 465.217 62.123 465.137 62.2949Z" fill="white"/>
<path d="M467.318 62.2949C467.395 62.4669 467.732 62.5505 468.066 62.4812C468.4 62.412 468.608 62.2185 468.528 62.0466C468.448 61.8746 468.114 61.791 467.78 61.8603C467.446 61.9295 467.238 62.123 467.318 62.2949Z" fill="white"/>
<path d="M458.363 57.5593C459.864 57.5593 461.08 56.3586 461.08 54.8773C461.08 53.3961 459.864 52.1953 458.363 52.1953C456.861 52.1953 455.645 53.3961 455.645 54.8773C455.645 56.3586 456.861 57.5593 458.363 57.5593Z" fill="white" stroke="#161616" stroke-width="0.23431" stroke-miterlimit="10"/>
<path d="M458.363 56.7835C459.428 56.7835 460.292 55.9313 460.292 54.88C460.292 53.8288 459.428 52.9766 458.363 52.9766C457.297 52.9766 456.434 53.8288 456.434 54.88C456.434 55.9313 457.297 56.7835 458.363 56.7835Z" fill="#161616" stroke="#161616" stroke-width="0.23431" stroke-miterlimit="10"/>
<path d="M457.309 54.9661C457.551 54.9661 457.747 54.7726 457.747 54.5338C457.747 54.2951 457.551 54.1016 457.309 54.1016C457.067 54.1016 456.871 54.2951 456.871 54.5338C456.871 54.7726 457.067 54.9661 457.309 54.9661Z" fill="white"/>
<path d="M474.335 57.5593C475.836 57.5593 477.053 56.3586 477.053 54.8773C477.053 53.3961 475.836 52.1953 474.335 52.1953C472.834 52.1953 471.617 53.3961 471.617 54.8773C471.617 56.3586 472.834 57.5593 474.335 57.5593Z" fill="white" stroke="#101010" stroke-width="0.23431" stroke-miterlimit="10"/>
<path d="M474.335 56.7835C475.401 56.7835 476.264 55.9313 476.264 54.88C476.264 53.8288 475.401 52.9766 474.335 52.9766C473.27 52.9766 472.406 53.8288 472.406 54.88C472.406 55.9313 473.27 56.7835 474.335 56.7835Z" fill="#161616" stroke="#161616" stroke-width="0.23431" stroke-miterlimit="10"/>
<path d="M473.282 54.9661C473.524 54.9661 473.72 54.7726 473.72 54.5338C473.72 54.2951 473.524 54.1016 473.282 54.1016C473.04 54.1016 472.844 54.2951 472.844 54.5338C472.844 54.7726 473.04 54.9661 473.282 54.9661Z" fill="white"/>
</g>
<path d="M531.061 49.644C527.125 49.644 524.605 47.412 524.485 44.004H526.645C526.813 46.284 528.589 47.748 531.085 47.748C533.341 47.748 534.853 46.668 534.853 44.892C534.853 43.14 533.509 42.468 530.341 41.94C526.861 41.364 524.893 40.068 524.893 37.332C524.893 34.476 527.197 32.556 530.581 32.556C534.157 32.556 536.533 34.572 536.725 37.668H534.565C534.349 35.7 532.765 34.452 530.581 34.452C528.349 34.452 526.981 35.46 526.981 37.212C526.981 38.94 528.301 39.54 531.517 40.068C534.949 40.62 536.941 42.012 536.941 44.7C536.941 47.604 534.517 49.644 531.061 49.644ZM544.065 35.124C543.225 35.124 542.553 34.5 542.553 33.612C542.553 32.772 543.225 32.124 544.065 32.124C544.905 32.124 545.553 32.772 545.553 33.612C545.553 34.5 544.905 35.124 544.065 35.124ZM545.025 47.7H548.745V49.5H539.361V47.7H543.057V39.06H539.361V37.26H545.025V47.7ZM555.968 47.7H559.688V49.5H550.304V47.7H554V34.5H550.304V32.7H555.968V47.7ZM567.075 49.5H564.699L559.923 37.26H562.035L565.923 47.268L569.787 37.26H571.851L567.075 49.5ZM584.52 43.812H575.016V43.932C575.088 46.26 576.552 47.892 578.88 47.892C580.608 47.892 581.952 46.98 582.36 45.396H584.352C583.872 47.844 581.856 49.644 579.024 49.644C575.352 49.644 572.952 47.124 572.952 43.38C572.952 39.66 575.304 37.116 578.76 37.116C582.216 37.116 584.472 39.3 584.568 42.924C584.568 43.116 584.544 43.524 584.52 43.812ZM578.784 38.844C576.984 38.844 575.328 40.14 575.136 42.132H582.456C582.264 40.02 580.824 38.844 578.784 38.844ZM595.58 37.26H596.9V39.18H595.316C592.46 39.18 591.62 41.364 591.62 43.308V47.7H595.196V49.5H586.916V47.7H589.652V39.06H586.916V37.26H591.524L591.596 39.324C592.148 38.364 593.252 37.26 595.58 37.26Z" fill="#A6A5C4"/>
<path d="M531.81 79.5H523.368V78.222L528.12 73.974C529.272 72.948 530.172 71.976 530.172 70.626C530.172 69.042 529.128 68.142 527.544 68.142C525.996 68.142 524.952 69.222 524.952 70.95V71.184H523.44V70.86C523.44 68.484 525.06 66.792 527.544 66.792C530.172 66.792 531.72 68.286 531.72 70.554C531.72 72.426 530.55 73.632 529.092 74.91L525.456 78.114H531.81V79.5ZM547.279 71.724L547.477 70.32H548.755V83.1H547.279V78.024C546.667 78.87 545.677 79.608 544.129 79.608C541.591 79.608 539.719 77.898 539.719 74.91C539.719 72.102 541.591 70.212 544.129 70.212C545.677 70.212 546.721 70.842 547.279 71.724ZM544.273 78.294C546.073 78.294 547.297 76.908 547.297 74.946C547.297 72.93 546.073 71.526 544.273 71.526C542.455 71.526 541.231 72.912 541.231 74.91C541.231 76.908 542.455 78.294 544.273 78.294ZM557.895 75.09V70.32H559.371V79.5H558.093L557.895 78.276C557.355 78.96 556.473 79.608 555.015 79.608C553.071 79.608 551.469 78.528 551.469 75.612V70.32H552.945V75.522C552.945 77.304 553.809 78.258 555.267 78.258C556.887 78.258 557.895 77.052 557.895 75.09ZM570.402 75.234H563.274V75.324C563.328 77.07 564.426 78.294 566.172 78.294C567.468 78.294 568.476 77.61 568.782 76.422H570.276C569.916 78.258 568.404 79.608 566.28 79.608C563.526 79.608 561.726 77.718 561.726 74.91C561.726 72.12 563.49 70.212 566.082 70.212C568.674 70.212 570.366 71.85 570.438 74.568C570.438 74.712 570.42 75.018 570.402 75.234ZM566.1 71.508C564.75 71.508 563.508 72.48 563.364 73.974H568.854C568.71 72.39 567.63 71.508 566.1 71.508ZM576.214 79.608C573.838 79.608 572.2 78.492 572.164 76.476H573.676C573.73 77.556 574.684 78.348 576.214 78.348C577.51 78.348 578.428 77.79 578.428 76.944C578.428 75.792 577.42 75.702 576.052 75.54C574 75.288 572.362 74.874 572.362 72.966C572.362 71.292 573.892 70.212 575.962 70.212C578.05 70.212 579.562 71.202 579.706 73.11H578.194C578.086 72.174 577.222 71.472 575.962 71.472C574.684 71.472 573.82 72.012 573.82 72.858C573.82 73.866 574.792 73.992 576.124 74.154C578.212 74.406 579.886 74.802 579.886 76.836C579.886 78.546 578.248 79.608 576.214 79.608ZM588.32 79.5H585.872C584.108 79.5 583.478 78.726 583.478 77.106V71.67H581.048V70.32H583.478V67.746H584.954V70.32H588.176V71.67H584.954V77.088C584.954 77.862 585.224 78.15 586.016 78.15H588.32V79.5ZM593.986 79.608C591.61 79.608 589.972 78.492 589.936 76.476H591.448C591.502 77.556 592.456 78.348 593.986 78.348C595.282 78.348 596.2 77.79 596.2 76.944C596.2 75.792 595.192 75.702 593.824 75.54C591.772 75.288 590.134 74.874 590.134 72.966C590.134 71.292 591.664 70.212 593.734 70.212C595.822 70.212 597.334 71.202 597.478 73.11H595.966C595.858 72.174 594.994 71.472 593.734 71.472C592.456 71.472 591.592 72.012 591.592 72.858C591.592 73.866 592.564 73.992 593.896 74.154C595.984 74.406 597.658 74.802 597.658 76.836C597.658 78.546 596.02 79.608 593.986 79.608Z" fill="white"/>
<rect x="720.5" y="1" width="240" height="112" rx="8" fill="#161B22"/>
<rect x="720.5" y="1" width="240" height="112" rx="8" stroke="#30363D"/>
<g filter="url(#filter6_d_3106_5121)">
<rect x="754" y="17" width="80" height="80" rx="40" fill="#FFD700" fill-opacity="0.65" shape-rendering="crispEdges"/>
</g>
<g filter="url(#filter7_d_3106_5121)">
<rect x="759.742" y="22.7461" width="68.5083" height="68.5083" rx="34.2541" fill="#FFD700" fill-opacity="0.65" shape-rendering="crispEdges"/>
</g>
<g filter="url(#filter8_d_3106_5121)">
<rect x="765.492" y="28.4922" width="57.0166" height="57.0166" rx="28.5083" fill="#FFD700"/>
</g>
<g clip-path="url(#clip2_3106_5121)">
<path d="M793.626 74.3208C803.527 74.3208 811.553 66.3772 811.553 56.5784C811.553 46.7795 803.527 38.8359 793.626 38.8359C783.725 38.8359 775.699 46.7795 775.699 56.5784C775.699 66.3772 783.725 74.3208 793.626 74.3208Z" fill="#C7B299" stroke="#161616" stroke-width="0.23431" stroke-miterlimit="10"/>
<path d="M773.66 58.1343C773.66 46.5564 781.958 37 794.675 37C806.555 37 813.97 45.3744 813.97 55.8682C813.97 67.4436 805.672 77.0024 793.055 77.0024C781.124 77.0024 773.663 68.628 773.663 58.1343H773.66ZM793.25 73.9459C803.609 73.9459 810.238 65.9165 810.238 56.0639C810.238 53.5604 810.187 46.483 804.965 43.703C800.319 41.2313 795.011 43.9893 794.36 44.3417C793.282 43.7397 788.858 41.4221 784.489 43.1058C777.236 45.9006 777.394 56.9351 777.394 57.9361C777.394 66.9027 783.433 73.9459 793.253 73.9459H793.25Z" fill="#161616"/>
<path d="M782.164 63.8741C782.164 64.2681 787.201 66.8059 793.532 66.8059C799.864 66.8059 805.091 64.2681 805.091 63.8741C805.091 63.4801 799.862 65.3792 793.532 65.3792C787.201 65.3792 782.164 63.4801 782.164 63.8741Z" fill="#161616"/>
<path d="M793.505 64.6534C795.727 64.6534 797.529 63.4482 797.529 61.9615C797.529 60.4748 795.727 59.2695 793.505 59.2695C791.282 59.2695 789.48 60.4748 789.48 61.9615C789.48 63.4482 791.282 64.6534 793.505 64.6534Z" fill="#161616"/>
<path d="M792.444 62.9196C792.366 63.0958 792.027 63.1814 791.69 63.1104C791.354 63.0395 791.144 62.8413 791.224 62.6651C791.305 62.4888 791.641 62.4032 791.978 62.4742C792.314 62.5451 792.524 62.7434 792.444 62.9196Z" fill="#FFF9EF"/>
<path d="M794.642 62.9196C794.72 63.0958 795.059 63.1814 795.396 63.1104C795.732 63.0395 795.942 62.8413 795.862 62.6651C795.781 62.4888 795.445 62.4032 795.108 62.4742C794.771 62.5451 794.562 62.7434 794.642 62.9196Z" fill="#FFF9EF"/>
<path d="M785.614 58.0668C787.127 58.0668 788.353 56.8364 788.353 55.3186C788.353 53.8007 787.127 52.5703 785.614 52.5703C784.101 52.5703 782.875 53.8007 782.875 55.3186C782.875 56.8364 784.101 58.0668 785.614 58.0668Z" fill="#FFF9EF" stroke="#161616" stroke-width="0.23431" stroke-miterlimit="10"/>
<path d="M785.616 57.272C786.689 57.272 787.56 56.3987 787.56 55.3215C787.56 54.2443 786.689 53.3711 785.616 53.3711C784.542 53.3711 783.672 54.2443 783.672 55.3215C783.672 56.3987 784.542 57.272 785.616 57.272Z" fill="#161616" stroke="#161616" stroke-width="0.23431" stroke-miterlimit="10"/>
<path d="M784.555 55.4093C784.799 55.4093 784.996 55.211 784.996 54.9664C784.996 54.7218 784.799 54.5234 784.555 54.5234C784.311 54.5234 784.113 54.7218 784.113 54.9664C784.113 55.211 784.311 55.4093 784.555 55.4093Z" fill="#FFF9EF"/>
<path d="M801.712 58.0668C803.224 58.0668 804.451 56.8364 804.451 55.3186C804.451 53.8007 803.224 52.5703 801.712 52.5703C800.199 52.5703 798.973 53.8007 798.973 55.3186C798.973 56.8364 800.199 58.0668 801.712 58.0668Z" fill="#FFF9EF" stroke="#101010" stroke-width="0.23431" stroke-miterlimit="10"/>
<path d="M801.713 57.272C802.787 57.272 803.657 56.3987 803.657 55.3215C803.657 54.2443 802.787 53.3711 801.713 53.3711C800.64 53.3711 799.77 54.2443 799.77 55.3215C799.77 56.3987 800.64 57.272 801.713 57.272Z" fill="#161616" stroke="#161616" stroke-width="0.23431" stroke-miterlimit="10"/>
<path d="M800.652 55.4093C800.896 55.4093 801.094 55.211 801.094 54.9664C801.094 54.7218 800.896 54.5234 800.652 54.5234C800.409 54.5234 800.211 54.7218 800.211 54.9664C800.211 55.211 800.409 55.4093 800.652 55.4093Z" fill="#FFF9EF"/>
<path d="M817.528 50.3594H816.552H815.445H813.36L795.011 50.3667H794.601H792.518H790.433L774.167 50.3716H772.081H769.996V52.464V54.5564H772.081V56.6488H774.167V58.7387H776.252V60.8262H778.338V61.7561V61.8712V62.9161H780.423H782.508H784.594H786.679V61.8736V60.8286H788.764V58.7362H790.847V56.6463H795.016V54.5539H792.93H793.767H795.013V52.4615V54.5515V56.6414H797.099V58.7314H799.182V60.8188H801.264V62.9112H802.94V62.9161H805.025H807.111H809.196V61.8712V60.8262V60.8188H811.279V58.7289H813.362V56.6365H815.445V54.5515H817.53V50.3643L817.528 50.3594ZM802.008 60.8188H802.416H801.452H802.006H802.008Z" fill="#161616"/>
<path d="M779.335 54.1488L777.25 54.1875L777.289 56.2795L779.374 56.2408L779.335 54.1488Z" fill="#FFF9EF"/>
<path d="M781.456 56.2035L779.371 56.2422L779.41 58.3342L781.495 58.2955L781.456 56.2035Z" fill="#FFF9EF"/>
<path d="M777.21 52.0941L775.125 52.1328L775.164 54.2248L777.249 54.1861L777.21 52.0941Z" fill="#FFF9EF"/>
<path d="M801.847 53.7308L799.762 53.7695L799.8 55.8616L801.885 55.8228L801.847 53.7308Z" fill="#FFF9EF"/>
<path d="M803.972 55.7816L801.887 55.8203L801.925 57.9123L804.01 57.8736L803.972 55.7816Z" fill="#FFF9EF"/>
<path d="M799.726 51.6761L797.641 51.7148L797.679 53.8069L799.764 53.7682L799.726 51.6761Z" fill="#FFF9EF"/>
<path d="M779.335 54.1488L777.25 54.1875L777.289 56.2795L779.374 56.2408L779.335 54.1488Z" fill="#FFF9EF"/>
<path d="M781.456 56.2035L779.371 56.2422L779.41 58.3342L781.495 58.2955L781.456 56.2035Z" fill="#FFF9EF"/>
<path d="M777.171 52.0948L775.125 52.1328L775.163 54.1857L777.209 54.1477L777.171 52.0948Z" fill="#FFF9EF"/>
<path d="M783.499 54.0707L781.414 54.1094L781.453 56.2014L783.538 56.1627L783.499 54.0707Z" fill="#FFF9EF"/>
<path d="M785.624 56.1214L783.539 56.1602L783.578 58.2522L785.663 58.2135L785.624 56.1214Z" fill="#FFF9EF"/>
<path d="M781.378 52.0199L779.293 52.0586L779.332 54.1506L781.417 54.1119L781.378 52.0199Z" fill="#FFF9EF"/>
<path d="M806.015 53.6566L803.93 53.6953L803.968 55.7873L806.053 55.7486L806.015 53.6566Z" fill="#FFF9EF"/>
<path d="M808.136 55.7035L806.051 55.7422L806.089 57.8342L808.174 57.7955L808.136 55.7035Z" fill="#FFF9EF"/>
<path d="M803.894 51.6019L801.809 51.6406L801.847 53.7326L803.932 53.6939L803.894 51.6019Z" fill="#FFF9EF"/>
</g>
<path d="M868.725 49.644C864.357 49.644 861.741 46.332 861.741 41.1C861.741 35.796 864.213 32.556 868.749 32.556C872.181 32.556 874.509 34.38 875.157 38.172H872.925C872.421 35.652 871.005 34.476 868.701 34.476C865.485 34.476 863.877 36.9 863.877 41.1C863.877 45.3 865.557 47.724 868.749 47.724C871.533 47.724 873.189 45.876 873.189 42.9V42.324H869.061V40.404H875.229V49.5H873.429L873.285 47.22C872.517 48.684 871.053 49.644 868.725 49.644ZM884.266 49.644C880.69 49.644 878.194 47.1 878.194 43.38C878.194 39.66 880.69 37.116 884.266 37.116C887.842 37.116 890.338 39.66 890.338 43.38C890.338 47.1 887.842 49.644 884.266 49.644ZM884.266 47.892C886.69 47.892 888.322 45.996 888.322 43.38C888.322 40.764 886.69 38.868 884.266 38.868C881.842 38.868 880.21 40.764 880.21 43.38C880.21 45.996 881.842 47.892 884.266 47.892ZM897.515 47.7H901.235V49.5H891.851V47.7H895.547V34.5H891.851V32.7H897.515V47.7ZM912.696 39.132V32.7H914.664V49.5H912.96L912.696 47.532C911.88 48.66 910.56 49.644 908.496 49.644C905.112 49.644 902.616 47.364 902.616 43.38C902.616 39.636 905.112 37.116 908.496 37.116C910.56 37.116 911.952 37.956 912.696 39.132ZM908.688 47.892C911.088 47.892 912.72 46.044 912.72 43.428C912.72 40.74 911.088 38.868 908.688 38.868C906.264 38.868 904.632 40.716 904.632 43.38C904.632 46.044 906.264 47.892 908.688 47.892Z" fill="#FFD700"/>
<path d="M857.529 72.948C858.627 73.164 859.725 74.082 859.725 76.008C859.725 78.15 858.087 79.608 855.423 79.608C852.777 79.608 851.139 78.114 851.139 75.612H852.633C852.651 77.268 853.803 78.258 855.513 78.258C857.079 78.258 858.177 77.34 858.177 75.9C858.177 74.586 857.331 73.758 855.459 73.758H854.361V72.408H855.297C857.079 72.408 857.943 71.49 857.943 70.212C857.943 68.934 856.863 68.142 855.423 68.142C853.965 68.142 852.831 69.096 852.813 70.536H851.319C851.355 68.232 853.083 66.792 855.405 66.792C857.925 66.792 859.491 68.142 859.491 70.158C859.491 71.706 858.663 72.624 857.529 72.948ZM875.49 71.724L875.688 70.32H876.966V83.1H875.49V78.024C874.878 78.87 873.888 79.608 872.34 79.608C869.802 79.608 867.93 77.898 867.93 74.91C867.93 72.102 869.802 70.212 872.34 70.212C873.888 70.212 874.932 70.842 875.49 71.724ZM872.484 78.294C874.284 78.294 875.508 76.908 875.508 74.946C875.508 72.93 874.284 71.526 872.484 71.526C870.666 71.526 869.442 72.912 869.442 74.91C869.442 76.908 870.666 78.294 872.484 78.294ZM886.106 75.09V70.32H887.582V79.5H886.304L886.106 78.276C885.566 78.96 884.684 79.608 883.226 79.608C881.282 79.608 879.68 78.528 879.68 75.612V70.32H881.156V75.522C881.156 77.304 882.02 78.258 883.478 78.258C885.098 78.258 886.106 77.052 886.106 75.09ZM898.613 75.234H891.485V75.324C891.539 77.07 892.637 78.294 894.383 78.294C895.679 78.294 896.687 77.61 896.993 76.422H898.487C898.127 78.258 896.615 79.608 894.491 79.608C891.737 79.608 889.937 77.718 889.937 74.91C889.937 72.12 891.701 70.212 894.293 70.212C896.885 70.212 898.577 71.85 898.649 74.568C898.649 74.712 898.631 75.018 898.613 75.234ZM894.311 71.508C892.961 71.508 891.719 72.48 891.575 73.974H897.065C896.921 72.39 895.841 71.508 894.311 71.508ZM904.425 79.608C902.049 79.608 900.411 78.492 900.375 76.476H901.887C901.941 77.556 902.895 78.348 904.425 78.348C905.721 78.348 906.639 77.79 906.639 76.944C906.639 75.792 905.631 75.702 904.263 75.54C902.211 75.288 900.573 74.874 900.573 72.966C900.573 71.292 902.103 70.212 904.173 70.212C906.261 70.212 907.773 71.202 907.917 73.11H906.405C906.297 72.174 905.433 71.472 904.173 71.472C902.895 71.472 902.031 72.012 902.031 72.858C902.031 73.866 903.003 73.992 904.335 74.154C906.423 74.406 908.097 74.802 908.097 76.836C908.097 78.546 906.459 79.608 904.425 79.608ZM916.531 79.5H914.083C912.319 79.5 911.689 78.726 911.689 77.106V71.67H909.259V70.32H911.689V67.746H913.165V70.32H916.387V71.67H913.165V77.088C913.165 77.862 913.435 78.15 914.227 78.15H916.531V79.5ZM922.197 79.608C919.821 79.608 918.183 78.492 918.147 76.476H919.659C919.713 77.556 920.667 78.348 922.197 78.348C923.493 78.348 924.411 77.79 924.411 76.944C924.411 75.792 923.403 75.702 922.035 75.54C919.983 75.288 918.345 74.874 918.345 72.966C918.345 71.292 919.875 70.212 921.945 70.212C924.033 70.212 925.545 71.202 925.689 73.11H924.177C924.069 72.174 923.205 71.472 921.945 71.472C920.667 71.472 919.803 72.012 919.803 72.858C919.803 73.866 920.775 73.992 922.107 74.154C924.195 74.406 925.869 74.802 925.869 76.836C925.869 78.546 924.231 79.608 922.197 79.608Z" fill="white"/>
<rect x="228.5" y="149" width="240" height="112" rx="8" fill="#161B22"/>
<rect x="228.5" y="149" width="240" height="112" rx="8" stroke="#30363D"/>
<g filter="url(#filter9_d_3106_5121)">
<rect x="245.5" y="165" width="80" height="80" rx="40" fill="#E5E4E2" fill-opacity="0.65" shape-rendering="crispEdges"/>
</g>
<g filter="url(#filter10_d_3106_5121)">
<rect x="251.246" y="170.746" width="68.5083" height="68.5083" rx="34.2541" fill="#E5E4E2" fill-opacity="0.65" shape-rendering="crispEdges"/>
</g>
<g filter="url(#filter11_d_3106_5121)">
<rect x="256.992" y="176.492" width="57.0166" height="57.0166" rx="28.5083" fill="#E5E4E2"/>
</g>
<path d="M285.352 220.863C294.592 220.863 302.083 213.488 302.083 204.39C302.083 195.293 294.592 187.918 285.352 187.918C276.112 187.918 268.621 195.293 268.621 204.39C268.621 213.488 276.112 220.863 285.352 220.863Z" fill="#C7B299" stroke="#161616" stroke-width="0.23431" stroke-miterlimit="10"/>
<path d="M266.715 205.836C266.715 195.087 274.459 186.215 286.328 186.215C297.416 186.215 304.336 193.99 304.336 203.732C304.336 214.479 296.591 223.354 284.816 223.354C273.68 223.354 266.717 215.579 266.717 205.836H266.715ZM284.998 220.516C294.666 220.516 300.853 213.061 300.853 203.914C300.853 201.59 300.805 195.019 295.931 192.438C291.595 190.143 286.642 192.704 286.034 193.031C285.028 192.472 280.899 190.32 276.822 191.884C270.052 194.478 270.2 204.723 270.2 205.652C270.2 213.977 275.836 220.516 285 220.516H284.998Z" fill="#161616"/>
<path d="M277.52 211.078C277.52 211.448 280.861 213.829 285.061 213.829C289.261 213.829 292.728 211.448 292.728 211.078C292.728 210.708 289.259 212.49 285.061 212.49C280.861 212.49 277.52 210.708 277.52 211.078Z" fill="#161616"/>
<path d="M293.377 209.436C297.638 211.685 302.168 211.486 303.493 208.986C304.818 206.487 302.437 202.636 298.176 200.387C293.914 198.137 289.633 196.095 288.06 200.837C286.35 205.999 289.116 207.187 293.377 209.436Z" fill="#161616"/>
<path d="M282.632 200.837C281.061 196.096 276.779 198.136 272.516 200.387C268.255 202.637 265.874 206.488 267.198 208.987C268.523 211.486 273.051 211.689 277.314 209.437C281.576 207.188 284.344 205.999 282.632 200.837Z" fill="#161616"/>
<path d="M285.24 211.889C287.315 211.889 288.996 210.77 288.996 209.39C288.996 208.01 287.315 206.891 285.24 206.891C283.166 206.891 281.484 208.01 281.484 209.39C281.484 210.77 283.166 211.889 285.24 211.889Z" fill="#161616"/>
<path d="M284.244 210.28C284.171 210.444 283.855 210.523 283.541 210.458C283.227 210.392 283.031 210.208 283.106 210.044C283.181 209.881 283.495 209.801 283.809 209.867C284.123 209.933 284.319 210.117 284.244 210.28Z" fill="white"/>
<path d="M286.293 210.28C286.366 210.444 286.683 210.523 286.997 210.458C287.311 210.392 287.507 210.208 287.431 210.044C287.356 209.881 287.042 209.801 286.728 209.867C286.414 209.933 286.218 210.117 286.293 210.28Z" fill="white"/>
<path d="M280.429 203.223C280.429 204.631 279.284 205.774 277.873 205.774C276.461 205.774 275.316 204.631 275.316 203.223C275.316 201.814 276.313 202.005 277.725 202.005C279.136 202.005 280.426 201.812 280.426 203.223H280.429Z" fill="white" stroke="#161616" stroke-width="0.23431" stroke-miterlimit="10"/>
<path d="M277.869 205.035C278.871 205.035 279.683 204.225 279.683 203.225C279.683 202.225 278.871 201.414 277.869 201.414C276.867 201.414 276.055 202.225 276.055 203.225C276.055 204.225 276.867 205.035 277.869 205.035Z" fill="#161616" stroke="#161616" stroke-width="0.23431" stroke-miterlimit="10"/>
<path d="M276.885 203.307C277.112 203.307 277.297 203.123 277.297 202.896C277.297 202.668 277.112 202.484 276.885 202.484C276.657 202.484 276.473 202.668 276.473 202.896C276.473 203.123 276.657 203.307 276.885 203.307Z" fill="white"/>
<path d="M295.452 203.223C295.452 204.631 294.307 205.774 292.896 205.774C291.485 205.774 290.34 204.631 290.34 203.223C290.34 201.814 291.485 202.005 292.896 202.005C294.307 202.005 295.452 201.812 295.452 203.223Z" fill="white" stroke="#101010" stroke-width="0.23431" stroke-miterlimit="10"/>
<path d="M292.896 205.035C293.898 205.035 294.71 204.225 294.71 203.225C294.71 202.225 293.898 201.414 292.896 201.414C291.894 201.414 291.082 202.225 291.082 203.225C291.082 204.225 291.894 205.035 292.896 205.035Z" fill="#161616" stroke="#161616" stroke-width="0.23431" stroke-miterlimit="10"/>
<path d="M291.904 203.307C292.132 203.307 292.316 203.123 292.316 202.896C292.316 202.668 292.132 202.484 291.904 202.484C291.677 202.484 291.492 202.668 291.492 202.896C291.492 203.123 291.677 203.307 291.904 203.307Z" fill="white"/>
<path d="M345.664 197.5H343.576V180.7H349.72C353.128 180.7 355.384 182.716 355.384 185.86C355.384 189.004 353.128 191.044 349.72 191.044H345.664V197.5ZM345.664 182.62V189.124H349.528C351.784 189.124 353.248 187.852 353.248 185.86C353.248 183.868 351.808 182.62 349.552 182.62H345.664ZM363.14 195.7H366.86V197.5H357.476V195.7H361.172V182.5H357.476V180.7H363.14V195.7ZM379.779 195.7H380.403V197.5H379.323C377.691 197.5 377.139 196.804 377.115 195.604C376.347 196.708 375.123 197.644 373.011 197.644C370.323 197.644 368.499 196.3 368.499 194.068C368.499 191.62 370.203 190.252 373.419 190.252H377.019V189.412C377.019 187.828 375.891 186.868 373.971 186.868C372.243 186.868 371.091 187.684 370.851 188.932H368.883C369.171 186.532 371.115 185.116 374.067 185.116C377.187 185.116 378.987 186.676 378.987 189.532V194.884C378.987 195.532 379.227 195.7 379.779 195.7ZM377.019 192.508V191.908H373.227C371.475 191.908 370.491 192.556 370.491 193.948C370.491 195.148 371.523 195.964 373.155 195.964C375.603 195.964 377.019 194.548 377.019 192.508ZM391.137 197.5H387.873C385.521 197.5 384.681 196.468 384.681 194.308V187.06H381.441V185.26H384.681V181.828H386.649V185.26H390.945V187.06H386.649V194.284C386.649 195.316 387.009 195.7 388.065 195.7H391.137V197.5ZM398.229 183.124C397.389 183.124 396.717 182.5 396.717 181.612C396.717 180.772 397.389 180.124 398.229 180.124C399.069 180.124 399.717 180.772 399.717 181.612C399.717 182.5 399.069 183.124 398.229 183.124ZM399.189 195.7H402.909V197.5H393.525V195.7H397.221V187.06H393.525V185.26H399.189V195.7ZM411.47 185.116C414.11 185.116 416.27 186.556 416.27 190.444V197.5H414.302V190.564C414.302 188.188 413.15 186.916 411.134 186.916C408.974 186.916 407.582 188.524 407.582 191.14V197.5H405.614V185.26H407.318L407.582 186.916C408.302 185.98 409.526 185.116 411.47 185.116ZM428.336 191.62V185.26H430.304V197.5H428.6L428.336 195.868C427.616 196.78 426.44 197.644 424.496 197.644C421.904 197.644 419.768 196.204 419.768 192.316V185.26H421.736V192.196C421.736 194.572 422.888 195.844 424.832 195.844C426.992 195.844 428.336 194.236 428.336 191.62ZM445.612 185.116C448.036 185.116 449.596 186.82 449.596 189.604V197.5H447.628V189.676C447.628 188.044 446.86 186.964 445.348 186.964C443.74 186.964 442.804 188.188 442.804 189.796V197.5H440.836V189.676C440.836 188.164 440.212 186.964 438.484 186.964C436.9 186.964 436.012 188.212 436.012 189.964V197.5H434.044V185.26H435.7L435.868 186.556C436.492 185.668 437.548 185.116 438.94 185.116C440.404 185.116 441.556 185.86 442.108 186.988C442.828 185.86 444.004 185.116 445.612 185.116Z" fill="#E5E4E2"/>
<path d="M366.423 227.5H364.911V224.422H358.665V223.072L364.731 214.9H366.423V223.036H368.295V224.422H366.423V227.5ZM364.911 216.898L360.357 223.036H364.911V216.898ZM383.604 219.724L383.802 218.32H385.08V231.1H383.604V226.024C382.992 226.87 382.002 227.608 380.454 227.608C377.916 227.608 376.044 225.898 376.044 222.91C376.044 220.102 377.916 218.212 380.454 218.212C382.002 218.212 383.046 218.842 383.604 219.724ZM380.598 226.294C382.398 226.294 383.622 224.908 383.622 222.946C383.622 220.93 382.398 219.526 380.598 219.526C378.78 219.526 377.556 220.912 377.556 222.91C377.556 224.908 378.78 226.294 380.598 226.294ZM394.22 223.09V218.32H395.696V227.5H394.418L394.22 226.276C393.68 226.96 392.798 227.608 391.34 227.608C389.396 227.608 387.794 226.528 387.794 223.612V218.32H389.27V223.522C389.27 225.304 390.134 226.258 391.592 226.258C393.212 226.258 394.22 225.052 394.22 223.09ZM406.728 223.234H399.6V223.324C399.654 225.07 400.752 226.294 402.498 226.294C403.794 226.294 404.802 225.61 405.108 224.422H406.602C406.242 226.258 404.73 227.608 402.606 227.608C399.852 227.608 398.052 225.718 398.052 222.91C398.052 220.12 399.816 218.212 402.408 218.212C405 218.212 406.692 219.85 406.764 222.568C406.764 222.712 406.746 223.018 406.728 223.234ZM402.426 219.508C401.076 219.508 399.834 220.48 399.69 221.974H405.18C405.036 220.39 403.956 219.508 402.426 219.508ZM412.54 227.608C410.164 227.608 408.526 226.492 408.49 224.476H410.002C410.056 225.556 411.01 226.348 412.54 226.348C413.836 226.348 414.754 225.79 414.754 224.944C414.754 223.792 413.746 223.702 412.378 223.54C410.326 223.288 408.688 222.874 408.688 220.966C408.688 219.292 410.218 218.212 412.288 218.212C414.376 218.212 415.888 219.202 416.032 221.11H414.52C414.412 220.174 413.548 219.472 412.288 219.472C411.01 219.472 410.146 220.012 410.146 220.858C410.146 221.866 411.118 221.992 412.45 222.154C414.538 222.406 416.212 222.802 416.212 224.836C416.212 226.546 414.574 227.608 412.54 227.608ZM424.646 227.5H422.198C420.434 227.5 419.804 226.726 419.804 225.106V219.67H417.374V218.32H419.804V215.746H421.28V218.32H424.502V219.67H421.28V225.088C421.28 225.862 421.55 226.15 422.342 226.15H424.646V227.5ZM430.311 227.608C427.935 227.608 426.297 226.492 426.261 224.476H427.773C427.827 225.556 428.781 226.348 430.311 226.348C431.607 226.348 432.525 225.79 432.525 224.944C432.525 223.792 431.517 223.702 430.149 223.54C428.097 223.288 426.459 222.874 426.459 220.966C426.459 219.292 427.989 218.212 430.059 218.212C432.147 218.212 433.659 219.202 433.803 221.11H432.291C432.183 220.174 431.319 219.472 430.059 219.472C428.781 219.472 427.917 220.012 427.917 220.858C427.917 221.866 428.889 221.992 430.221 222.154C432.309 222.406 433.983 222.802 433.983 224.836C433.983 226.546 432.345 227.608 430.311 227.608Z" fill="white"/>
<rect x="556.5" y="149" width="240" height="112" rx="8" fill="#161B22"/>
<rect x="556.5" y="149" width="240" height="112" rx="8" stroke="#30363D"/>
<g filter="url(#filter12_d_3106_5121)">
<rect x="590" y="165" width="80" height="80" rx="40" fill="#BE621C" fill-opacity="0.65" shape-rendering="crispEdges"/>
</g>
<g filter="url(#filter13_d_3106_5121)">
<rect x="595.746" y="170.742" width="68.5083" height="68.5083" rx="34.2542" fill="#BE621C" fill-opacity="0.65" shape-rendering="crispEdges"/>
</g>
<g filter="url(#filter14_d_3106_5121)">
<rect x="601.488" y="176.492" width="57.0166" height="57.0166" rx="28.5083" fill="#BE621C"/>
</g>
<path d="M629.509 220.723C638.491 220.723 645.773 213.546 645.773 204.692C645.773 195.838 638.491 188.66 629.509 188.66C620.527 188.66 613.246 195.838 613.246 204.692C613.246 213.546 620.527 220.723 629.509 220.723Z" fill="#C7B299" stroke="#161616" stroke-width="0.23431" stroke-miterlimit="10"/>
<path d="M611.395 206.096C611.395 195.635 618.922 187 630.459 187C641.237 187 647.964 194.567 647.964 204.049C647.964 214.508 640.436 223.145 628.99 223.145C618.165 223.145 611.397 215.578 611.397 206.096H611.395ZM629.167 220.383C638.564 220.383 644.578 213.128 644.578 204.226C644.578 201.964 644.532 195.569 639.794 193.057C635.579 190.823 630.513 192.354 630.114 194.462C629.715 192.354 625.182 190.996 621.219 192.517C614.638 195.042 614.782 205.013 614.782 205.917C614.782 214.019 620.261 220.383 629.169 220.383H629.167Z" fill="#161616"/>
<path d="M619.109 211.283C619.109 211.639 623.679 213.932 629.423 213.932C635.167 213.932 639.909 211.639 639.909 211.283C639.909 210.927 635.165 212.643 629.423 212.643C623.679 212.643 619.109 210.927 619.109 211.283Z" fill="#161616"/>
<path d="M629.401 211.986C631.418 211.986 633.052 210.897 633.052 209.554C633.052 208.21 631.418 207.121 629.401 207.121C627.385 207.121 625.75 208.21 625.75 209.554C625.75 210.897 627.385 211.986 629.401 211.986Z" fill="#161616"/>
<path d="M628.439 210.421C628.368 210.58 628.06 210.658 627.755 210.594C627.449 210.53 627.259 210.35 627.332 210.191C627.405 210.032 627.71 209.954 628.016 210.019C628.321 210.083 628.512 210.262 628.439 210.421Z" fill="#FFF9EF"/>
<path d="M630.43 210.421C630.501 210.58 630.808 210.658 631.114 210.594C631.419 210.53 631.609 210.35 631.536 210.191C631.463 210.032 631.158 209.954 630.852 210.019C630.547 210.083 630.357 210.262 630.43 210.421Z" fill="#FFF9EF"/>
<path d="M622.243 206.038C623.616 206.038 624.729 204.926 624.729 203.554C624.729 202.182 623.616 201.07 622.243 201.07C620.871 201.07 619.758 202.182 619.758 203.554C619.758 204.926 620.871 206.038 622.243 206.038Z" fill="#FFF9EF" stroke="#161616" stroke-width="0.23431" stroke-miterlimit="10"/>
<path d="M622.241 205.319C623.215 205.319 624.005 204.529 624.005 203.556C624.005 202.582 623.215 201.793 622.241 201.793C621.266 201.793 620.477 202.582 620.477 203.556C620.477 204.529 621.266 205.319 622.241 205.319Z" fill="#161616" stroke="#161616" stroke-width="0.23431" stroke-miterlimit="10"/>
<path d="M621.28 203.633C621.501 203.633 621.68 203.453 621.68 203.232C621.68 203.011 621.501 202.832 621.28 202.832C621.058 202.832 620.879 203.011 620.879 203.232C620.879 203.453 621.058 203.633 621.28 203.633Z" fill="#FFF9EF"/>
<path d="M636.845 206.038C638.218 206.038 639.331 204.926 639.331 203.554C639.331 202.182 638.218 201.07 636.845 201.07C635.472 201.07 634.359 202.182 634.359 203.554C634.359 204.926 635.472 206.038 636.845 206.038Z" fill="#FFF9EF" stroke="#101010" stroke-width="0.23431" stroke-miterlimit="10"/>
<path d="M636.846 205.319C637.82 205.319 638.61 204.529 638.61 203.556C638.61 202.582 637.82 201.793 636.846 201.793C635.872 201.793 635.082 202.582 635.082 203.556C635.082 204.529 635.872 205.319 636.846 205.319Z" fill="#161616" stroke="#161616" stroke-width="0.23431" stroke-miterlimit="10"/>
<path d="M635.881 203.633C636.102 203.633 636.282 203.453 636.282 203.232C636.282 203.011 636.102 202.832 635.881 202.832C635.66 202.832 635.48 203.011 635.48 203.232C635.48 203.453 635.66 203.633 635.881 203.633Z" fill="#FFF9EF"/>
<path d="M653.7 197.824H652.7H651.566H649.429L630.629 197.832H630.209H628.075H625.939L609.273 197.837H607.137H605V199.972V202.107H607.137V204.242H609.273V206.375H611.41V208.505H613.546V209.454V209.572V210.638H615.683H617.82H619.956H622.093V209.574V208.508H624.229V206.373H626.364V204.24H630.634V202.105H628.498H629.355H630.632V199.969V202.102V204.235H632.768V206.368H634.902V208.498H637.037V210.633H638.753V210.638H640.89H643.027H645.163V209.572V208.505V208.498H647.297V206.365H649.431V204.23H651.566V202.102H653.702V197.829L653.7 197.824ZM637.799 208.498H638.216H637.229H637.796H637.799Z" fill="#161616"/>
<path d="M614.567 201.691L612.43 201.73L612.469 203.866L614.606 203.826L614.567 201.691Z" fill="#FFF9EF"/>
<path d="M616.738 203.789L614.602 203.828L614.641 205.964L616.778 205.924L616.738 203.789Z" fill="#FFF9EF"/>
<path d="M612.391 199.593L610.254 199.633L610.293 201.768L612.43 201.729L612.391 199.593Z" fill="#FFF9EF"/>
<path d="M637.629 201.265L635.492 201.305L635.532 203.44L637.669 203.401L637.629 201.265Z" fill="#FFF9EF"/>
<path d="M639.809 203.359L637.672 203.398L637.711 205.534L639.848 205.494L639.809 203.359Z" fill="#FFF9EF"/>
<path d="M635.457 199.168L633.32 199.207L633.36 201.343L635.497 201.303L635.457 199.168Z" fill="#FFF9EF"/>
<path d="M614.567 201.691L612.43 201.73L612.469 203.866L614.606 203.826L614.567 201.691Z" fill="#FFF9EF"/>
<path d="M616.738 203.789L614.602 203.828L614.641 205.964L616.778 205.924L616.738 203.789Z" fill="#FFF9EF"/>
<path d="M612.351 199.594L610.254 199.633L610.293 201.728L612.39 201.69L612.351 199.594Z" fill="#FFF9EF"/>
<path d="M618.832 201.613L616.695 201.652L616.735 203.788L618.872 203.748L618.832 201.613Z" fill="#FFF9EF"/>
<path d="M621.012 203.707L618.875 203.746L618.915 205.882L621.051 205.842L621.012 203.707Z" fill="#FFF9EF"/>
<path d="M616.66 199.519L614.523 199.559L614.563 201.694L616.7 201.655L616.66 199.519Z" fill="#FFF9EF"/>
<path d="M641.902 201.187L639.766 201.227L639.805 203.362L641.942 203.323L641.902 201.187Z" fill="#FFF9EF"/>
<path d="M644.078 203.281L641.941 203.32L641.981 205.456L644.118 205.416L644.078 203.281Z" fill="#FFF9EF"/>
<path d="M639.731 199.093L637.594 199.133L637.633 201.268L639.77 201.229L639.731 199.093Z" fill="#FFF9EF"/>
<path d="M629.346 226.232C628.96 225.098 628.524 223.57 628.186 221.698C628.195 221.216 628.17 220.693 628.104 220.124C627.861 218.041 628.392 217.086 628.789 216.655C629.002 216.424 629.221 216.294 629.378 216.222C629.385 216.22 629.391 216.217 629.397 216.214C629.403 216.217 629.409 216.22 629.415 216.222C629.572 216.294 629.791 216.424 630.004 216.655C630.401 217.086 630.932 218.041 630.689 220.124C630.645 220.502 630.62 220.861 630.61 221.2C630.165 223.388 629.715 225.047 629.346 226.232Z" fill="white" stroke="white" stroke-width="2"/>
<path d="M702.059 197.5H699.971V180.7H705.971C709.379 180.7 711.659 182.716 711.659 185.86C711.659 188.212 710.195 190.036 707.987 190.636L711.827 197.5H709.475L705.851 191.044H702.059V197.5ZM702.059 182.62V189.124H705.803C708.059 189.124 709.523 187.828 709.523 185.86C709.523 183.892 708.059 182.62 705.827 182.62H702.059ZM723.418 191.62V185.26H725.386V197.5H723.682L723.418 195.868C722.698 196.78 721.522 197.644 719.578 197.644C716.986 197.644 714.85 196.204 714.85 192.316V185.26H716.818V192.196C716.818 194.572 717.97 195.844 719.914 195.844C722.074 195.844 723.418 194.236 723.418 191.62ZM733.734 197.644C730.566 197.644 728.382 196.156 728.334 193.468H730.35C730.422 194.908 731.694 195.964 733.734 195.964C735.462 195.964 736.686 195.22 736.686 194.092C736.686 192.556 735.342 192.436 733.518 192.22C730.782 191.884 728.598 191.332 728.598 188.788C728.598 186.556 730.638 185.116 733.398 185.116C736.182 185.116 738.198 186.436 738.39 188.98H736.374C736.23 187.732 735.078 186.796 733.398 186.796C731.694 186.796 730.542 187.516 730.542 188.644C730.542 189.988 731.838 190.156 733.614 190.372C736.398 190.708 738.63 191.236 738.63 193.948C738.63 196.228 736.446 197.644 733.734 197.644ZM749.875 197.5H746.611C744.259 197.5 743.419 196.468 743.419 194.308V187.06H740.179V185.26H743.419V181.828H745.387V185.26H749.683V187.06H745.387V194.284C745.387 195.316 745.747 195.7 746.803 195.7H749.875V197.5Z" fill="#BE621C"/>
<path d="M691.928 219.058C694.322 219.058 695.978 220.786 695.978 223.288C695.978 226.078 693.98 227.59 691.694 227.59C688.958 227.59 687.392 225.772 687.266 223.576H688.76C688.904 225.034 689.948 226.24 691.694 226.24C693.098 226.24 694.448 225.25 694.448 223.306C694.448 221.596 693.386 220.39 691.712 220.39C690.974 220.39 689.48 220.606 688.958 222.1L687.5 222.064L687.914 214.9H695.258V216.286H689.3L689.012 220.264C689.75 219.346 690.812 219.058 691.928 219.058ZM711.507 219.724L711.705 218.32H712.983V231.1H711.507V226.024C710.895 226.87 709.905 227.608 708.357 227.608C705.819 227.608 703.947 225.898 703.947 222.91C703.947 220.102 705.819 218.212 708.357 218.212C709.905 218.212 710.949 218.842 711.507 219.724ZM708.501 226.294C710.301 226.294 711.525 224.908 711.525 222.946C711.525 220.93 710.301 219.526 708.501 219.526C706.683 219.526 705.459 220.912 705.459 222.91C705.459 224.908 706.683 226.294 708.501 226.294ZM722.124 223.09V218.32H723.6V227.5H722.322L722.124 226.276C721.584 226.96 720.702 227.608 719.244 227.608C717.3 227.608 715.698 226.528 715.698 223.612V218.32H717.174V223.522C717.174 225.304 718.038 226.258 719.496 226.258C721.116 226.258 722.124 225.052 722.124 223.09ZM734.631 223.234H727.503V223.324C727.557 225.07 728.655 226.294 730.401 226.294C731.697 226.294 732.705 225.61 733.011 224.422H734.505C734.145 226.258 732.633 227.608 730.509 227.608C727.755 227.608 725.955 225.718 725.955 222.91C725.955 220.12 727.719 218.212 730.311 218.212C732.903 218.212 734.595 219.85 734.667 222.568C734.667 222.712 734.649 223.018 734.631 223.234ZM730.329 219.508C728.979 219.508 727.737 220.48 727.593 221.974H733.083C732.939 220.39 731.859 219.508 730.329 219.508ZM740.443 227.608C738.067 227.608 736.429 226.492 736.393 224.476H737.905C737.959 225.556 738.913 226.348 740.443 226.348C741.739 226.348 742.657 225.79 742.657 224.944C742.657 223.792 741.649 223.702 740.281 223.54C738.229 223.288 736.591 222.874 736.591 220.966C736.591 219.292 738.121 218.212 740.191 218.212C742.279 218.212 743.791 219.202 743.935 221.11H742.423C742.315 220.174 741.451 219.472 740.191 219.472C738.913 219.472 738.049 220.012 738.049 220.858C738.049 221.866 739.021 221.992 740.353 222.154C742.441 222.406 744.115 222.802 744.115 224.836C744.115 226.546 742.477 227.608 740.443 227.608ZM752.549 227.5H750.101C748.337 227.5 747.707 226.726 747.707 225.106V219.67H745.277V218.32H747.707V215.746H749.183V218.32H752.405V219.67H749.183V225.088C749.183 225.862 749.453 226.15 750.245 226.15H752.549V227.5ZM758.214 227.608C755.838 227.608 754.2 226.492 754.164 224.476H755.676C755.73 225.556 756.684 226.348 758.214 226.348C759.51 226.348 760.428 225.79 760.428 224.944C760.428 223.792 759.42 223.702 758.052 223.54C756 223.288 754.362 222.874 754.362 220.966C754.362 219.292 755.892 218.212 757.962 218.212C760.05 218.212 761.562 219.202 761.706 221.11H760.194C760.086 220.174 759.222 219.472 757.962 219.472C756.684 219.472 755.82 220.012 755.82 220.858C755.82 221.866 756.792 221.992 758.124 222.154C760.212 222.406 761.886 222.802 761.886 224.836C761.886 226.546 760.248 227.608 758.214 227.608Z" fill="white"/>
<defs>
<filter id="filter0_d_3106_5121" x="93" y="15" width="84" height="84" filterUnits="userSpaceOnUse" color-interpolation-filters="sRGB">
<feFlood flood-opacity="0" result="BackgroundImageFix"/>
<feColorMatrix in="SourceAlpha" type="matrix" values="0 0 0 0 0 0 0 0 0 0 0 0 0 0 0 0 0 0 127 0" result="hardAlpha"/>
<feOffset/>
<feGaussianBlur stdDeviation="1"/>
<feComposite in2="hardAlpha" operator="out"/>
<feColorMatrix type="matrix" values="0 0 0 0 0.545098 0 0 0 0 0.305882 0 0 0 0 0.0470588 0 0 0 1 0"/>
<feBlend mode="normal" in2="BackgroundImageFix" result="effect1_dropShadow_3106_5121"/>
<feBlend mode="normal" in="SourceGraphic" in2="effect1_dropShadow_3106_5121" result="shape"/>
</filter>
<filter id="filter1_d_3106_5121" x="98.75" y="20.7422" width="72.5078" height="72.5078" filterUnits="userSpaceOnUse" color-interpolation-filters="sRGB">
<feFlood flood-opacity="0" result="BackgroundImageFix"/>
<feColorMatrix in="SourceAlpha" type="matrix" values="0 0 0 0 0 0 0 0 0 0 0 0 0 0 0 0 0 0 127 0" result="hardAlpha"/>
<feOffset/>
<feGaussianBlur stdDeviation="1"/>
<feComposite in2="hardAlpha" operator="out"/>
<feColorMatrix type="matrix" values="0 0 0 0 0.545098 0 0 0 0 0.305882 0 0 0 0 0.0470588 0 0 0 1 0"/>
<feBlend mode="normal" in2="BackgroundImageFix" result="effect1_dropShadow_3106_5121"/>
<feBlend mode="normal" in="SourceGraphic" in2="effect1_dropShadow_3106_5121" result="shape"/>
</filter>
<filter id="filter2_d_3106_5121" x="104.484" y="26.4883" width="61.0156" height="61.0156" filterUnits="userSpaceOnUse" color-interpolation-filters="sRGB">
<feFlood flood-opacity="0" result="BackgroundImageFix"/>
<feColorMatrix in="SourceAlpha" type="matrix" values="0 0 0 0 0 0 0 0 0 0 0 0 0 0 0 0 0 0 127 0" result="hardAlpha"/>
<feOffset/>
<feGaussianBlur stdDeviation="1"/>
<feComposite in2="hardAlpha" operator="out"/>
<feColorMatrix type="matrix" values="0 0 0 0 0.545098 0 0 0 0 0.305882 0 0 0 0 0.0470588 0 0 0 1 0"/>
<feBlend mode="normal" in2="BackgroundImageFix" result="effect1_dropShadow_3106_5121"/>
<feBlend mode="normal" in="SourceGraphic" in2="effect1_dropShadow_3106_5121" result="shape"/>
</filter>
<filter id="filter3_d_3106_5121" x="424.5" y="15" width="84" height="84" filterUnits="userSpaceOnUse" color-interpolation-filters="sRGB">
<feFlood flood-opacity="0" result="BackgroundImageFix"/>
<feColorMatrix in="SourceAlpha" type="matrix" values="0 0 0 0 0 0 0 0 0 0 0 0 0 0 0 0 0 0 127 0" result="hardAlpha"/>
<feOffset/>
<feGaussianBlur stdDeviation="1"/>
<feComposite in2="hardAlpha" operator="out"/>
<feColorMatrix type="matrix" values="0 0 0 0 0.389974 0 0 0 0 0.386032 0 0 0 0 0.386032 0 0 0 1 0"/>
<feBlend mode="normal" in2="BackgroundImageFix" result="effect1_dropShadow_3106_5121"/>
<feBlend mode="normal" in="SourceGraphic" in2="effect1_dropShadow_3106_5121" result="shape"/>
</filter>
<filter id="filter4_d_3106_5121" x="430.246" y="20.7461" width="72.5078" height="72.5078" filterUnits="userSpaceOnUse" color-interpolation-filters="sRGB">
<feFlood flood-opacity="0" result="BackgroundImageFix"/>
<feColorMatrix in="SourceAlpha" type="matrix" values="0 0 0 0 0 0 0 0 0 0 0 0 0 0 0 0 0 0 127 0" result="hardAlpha"/>
<feOffset/>
<feGaussianBlur stdDeviation="1"/>
<feComposite in2="hardAlpha" operator="out"/>
<feColorMatrix type="matrix" values="0 0 0 0 0.389974 0 0 0 0 0.386032 0 0 0 0 0.386032 0 0 0 1 0"/>
<feBlend mode="normal" in2="BackgroundImageFix" result="effect1_dropShadow_3106_5121"/>
<feBlend mode="normal" in="SourceGraphic" in2="effect1_dropShadow_3106_5121" result="shape"/>
</filter>
<filter id="filter5_d_3106_5121" x="435.992" y="26.4922" width="61.0156" height="61.0156" filterUnits="userSpaceOnUse" color-interpolation-filters="sRGB">
<feFlood flood-opacity="0" result="BackgroundImageFix"/>
<feColorMatrix in="SourceAlpha" type="matrix" values="0 0 0 0 0 0 0 0 0 0 0 0 0 0 0 0 0 0 127 0" result="hardAlpha"/>
<feOffset/>
<feGaussianBlur stdDeviation="1"/>
<feComposite in2="hardAlpha" operator="out"/>
<feColorMatrix type="matrix" values="0 0 0 0 0.389974 0 0 0 0 0.386032 0 0 0 0 0.386032 0 0 0 1 0"/>
<feBlend mode="normal" in2="BackgroundImageFix" result="effect1_dropShadow_3106_5121"/>
<feBlend mode="normal" in="SourceGraphic" in2="effect1_dropShadow_3106_5121" result="shape"/>
</filter>
<filter id="filter6_d_3106_5121" x="752" y="15" width="84" height="84" filterUnits="userSpaceOnUse" color-interpolation-filters="sRGB">
<feFlood flood-opacity="0" result="BackgroundImageFix"/>
<feColorMatrix in="SourceAlpha" type="matrix" values="0 0 0 0 0 0 0 0 0 0 0 0 0 0 0 0 0 0 127 0" result="hardAlpha"/>
<feOffset/>
<feGaussianBlur stdDeviation="1"/>
<feComposite in2="hardAlpha" operator="out"/>
<feColorMatrix type="matrix" values="0 0 0 0 0.755225 0 0 0 0 0.536552 0 0 0 0 0.0434893 0 0 0 1 0"/>
<feBlend mode="normal" in2="BackgroundImageFix" result="effect1_dropShadow_3106_5121"/>
<feBlend mode="normal" in="SourceGraphic" in2="effect1_dropShadow_3106_5121" result="shape"/>
</filter>
<filter id="filter7_d_3106_5121" x="757.742" y="20.7461" width="72.5078" height="72.5078" filterUnits="userSpaceOnUse" color-interpolation-filters="sRGB">
<feFlood flood-opacity="0" result="BackgroundImageFix"/>
<feColorMatrix in="SourceAlpha" type="matrix" values="0 0 0 0 0 0 0 0 0 0 0 0 0 0 0 0 0 0 127 0" result="hardAlpha"/>
<feOffset/>
<feGaussianBlur stdDeviation="1"/>
<feComposite in2="hardAlpha" operator="out"/>
<feColorMatrix type="matrix" values="0 0 0 0 0.755225 0 0 0 0 0.536552 0 0 0 0 0.0434893 0 0 0 1 0"/>
<feBlend mode="normal" in2="BackgroundImageFix" result="effect1_dropShadow_3106_5121"/>
<feBlend mode="normal" in="SourceGraphic" in2="effect1_dropShadow_3106_5121" result="shape"/>
</filter>
<filter id="filter8_d_3106_5121" x="763.492" y="26.4922" width="61.0156" height="61.0156" filterUnits="userSpaceOnUse" color-interpolation-filters="sRGB">
<feFlood flood-opacity="0" result="BackgroundImageFix"/>
<feColorMatrix in="SourceAlpha" type="matrix" values="0 0 0 0 0 0 0 0 0 0 0 0 0 0 0 0 0 0 127 0" result="hardAlpha"/>
<feOffset/>
<feGaussianBlur stdDeviation="1"/>
<feComposite in2="hardAlpha" operator="out"/>
<feColorMatrix type="matrix" values="0 0 0 0 0.755225 0 0 0 0 0.536552 0 0 0 0 0.0434893 0 0 0 1 0"/>
<feBlend mode="normal" in2="BackgroundImageFix" result="effect1_dropShadow_3106_5121"/>
<feBlend mode="normal" in="SourceGraphic" in2="effect1_dropShadow_3106_5121" result="shape"/>
</filter>
<filter id="filter9_d_3106_5121" x="243.5" y="163" width="84" height="84" filterUnits="userSpaceOnUse" color-interpolation-filters="sRGB">
<feFlood flood-opacity="0" result="BackgroundImageFix"/>
<feColorMatrix in="SourceAlpha" type="matrix" values="0 0 0 0 0 0 0 0 0 0 0 0 0 0 0 0 0 0 127 0" result="hardAlpha"/>
<feOffset/>
<feGaussianBlur stdDeviation="1"/>
<feComposite in2="hardAlpha" operator="out"/>
<feColorMatrix type="matrix" values="0 0 0 0 0.623529 0 0 0 0 0.623529 0 0 0 0 0.623529 0 0 0 1 0"/>
<feBlend mode="normal" in2="BackgroundImageFix" result="effect1_dropShadow_3106_5121"/>
<feBlend mode="normal" in="SourceGraphic" in2="effect1_dropShadow_3106_5121" result="shape"/>
</filter>
<filter id="filter10_d_3106_5121" x="249.246" y="168.746" width="72.5078" height="72.5078" filterUnits="userSpaceOnUse" color-interpolation-filters="sRGB">
<feFlood flood-opacity="0" result="BackgroundImageFix"/>
<feColorMatrix in="SourceAlpha" type="matrix" values="0 0 0 0 0 0 0 0 0 0 0 0 0 0 0 0 0 0 127 0" result="hardAlpha"/>
<feOffset/>
<feGaussianBlur stdDeviation="1"/>
<feComposite in2="hardAlpha" operator="out"/>
<feColorMatrix type="matrix" values="0 0 0 0 0.623529 0 0 0 0 0.623529 0 0 0 0 0.623529 0 0 0 1 0"/>
<feBlend mode="normal" in2="BackgroundImageFix" result="effect1_dropShadow_3106_5121"/>
<feBlend mode="normal" in="SourceGraphic" in2="effect1_dropShadow_3106_5121" result="shape"/>
</filter>
<filter id="filter11_d_3106_5121" x="254.992" y="174.492" width="61.0156" height="61.0156" filterUnits="userSpaceOnUse" color-interpolation-filters="sRGB">
<feFlood flood-opacity="0" result="BackgroundImageFix"/>
<feColorMatrix in="SourceAlpha" type="matrix" values="0 0 0 0 0 0 0 0 0 0 0 0 0 0 0 0 0 0 127 0" result="hardAlpha"/>
<feOffset/>
<feGaussianBlur stdDeviation="1"/>
<feComposite in2="hardAlpha" operator="out"/>
<feColorMatrix type="matrix" values="0 0 0 0 0.623529 0 0 0 0 0.623529 0 0 0 0 0.623529 0 0 0 1 0"/>
<feBlend mode="normal" in2="BackgroundImageFix" result="effect1_dropShadow_3106_5121"/>
<feBlend mode="normal" in="SourceGraphic" in2="effect1_dropShadow_3106_5121" result="shape"/>
</filter>
<filter id="filter12_d_3106_5121" x="588" y="163" width="84" height="84" filterUnits="userSpaceOnUse" color-interpolation-filters="sRGB">
<feFlood flood-opacity="0" result="BackgroundImageFix"/>
<feColorMatrix in="SourceAlpha" type="matrix" values="0 0 0 0 0 0 0 0 0 0 0 0 0 0 0 0 0 0 127 0" result="hardAlpha"/>
<feOffset/>
<feGaussianBlur stdDeviation="1"/>
<feComposite in2="hardAlpha" operator="out"/>
<feColorMatrix type="matrix" values="0 0 0 0 0.337255 0 0 0 0 0.14902 0 0 0 0 0.0117647 0 0 0 1 0"/>
<feBlend mode="normal" in2="BackgroundImageFix" result="effect1_dropShadow_3106_5121"/>
<feBlend mode="normal" in="SourceGraphic" in2="effect1_dropShadow_3106_5121" result="shape"/>
</filter>
<filter id="filter13_d_3106_5121" x="593.746" y="168.742" width="72.5078" height="72.5078" filterUnits="userSpaceOnUse" color-interpolation-filters="sRGB">
<feFlood flood-opacity="0" result="BackgroundImageFix"/>
<feColorMatrix in="SourceAlpha" type="matrix" values="0 0 0 0 0 0 0 0 0 0 0 0 0 0 0 0 0 0 127 0" result="hardAlpha"/>
<feOffset/>
<feGaussianBlur stdDeviation="1"/>
<feComposite in2="hardAlpha" operator="out"/>
<feColorMatrix type="matrix" values="0 0 0 0 0.337255 0 0 0 0 0.14902 0 0 0 0 0.0117647 0 0 0 1 0"/>
<feBlend mode="normal" in2="BackgroundImageFix" result="effect1_dropShadow_3106_5121"/>
<feBlend mode="normal" in="SourceGraphic" in2="effect1_dropShadow_3106_5121" result="shape"/>
</filter>
<filter id="filter14_d_3106_5121" x="599.488" y="174.492" width="61.0156" height="61.0156" filterUnits="userSpaceOnUse" color-interpolation-filters="sRGB">
<feFlood flood-opacity="0" result="BackgroundImageFix"/>
<feColorMatrix in="SourceAlpha" type="matrix" values="0 0 0 0 0 0 0 0 0 0 0 0 0 0 0 0 0 0 127 0" result="hardAlpha"/>
<feOffset/>
<feGaussianBlur stdDeviation="1"/>
<feComposite in2="hardAlpha" operator="out"/>
<feColorMatrix type="matrix" values="0 0 0 0 0.337255 0 0 0 0 0.14902 0 0 0 0 0.0117647 0 0 0 1 0"/>
<feBlend mode="normal" in2="BackgroundImageFix" result="effect1_dropShadow_3106_5121"/>
<feBlend mode="normal" in="SourceGraphic" in2="effect1_dropShadow_3106_5121" result="shape"/>
</filter>
<clipPath id="clip0_3106_5121">
<rect x="115" y="37" width="40" height="39.5722" rx="19.7861" fill="white"/>
</clipPath>
<clipPath id="clip1_3106_5121">
<rect width="40" height="39.0362" fill="white" transform="translate(446.5 37)"/>
</clipPath>
<clipPath id="clip2_3106_5121">
<rect width="47.5294" height="40" fill="white" transform="translate(770 37)"/>
</clipPath>
</defs>
</svg>
