<svg width="1025" height="180" viewBox="0 0 1025 180" fill="none" xmlns="http://www.w3.org/2000/svg">
<path d="M136.558 43.752C126.31 43.752 119.982 36.472 119.982 27.176C119.982 17.88 126.31 10.656 136.558 10.656C146.694 10.656 153.022 17.88 153.022 27.176C153.022 36.528 146.694 43.752 136.558 43.752ZM136.558 40.896C144.846 40.896 149.998 35.296 149.998 27.176C149.998 19.056 144.846 13.456 136.558 13.456C128.214 13.456 123.006 19.112 123.006 27.176C123.006 35.24 128.214 40.896 136.558 40.896ZM142.102 35.632H131.63V32.944H135.494V24.6C135.326 24.768 135.046 24.88 134.654 24.88H131.574V22.192H134.318C135.102 22.192 135.55 21.632 135.55 20.904V18.776H138.35V32.888H142.102V35.632Z" fill="white"/>
<path d="M76.1394 68.843C76.1394 73.9003 72.2711 78 67.4994 78C62.7276 78 58.8594 73.9003 58.8594 68.843C58.8594 64.9411 64.0027 57.6844 66.3527 54.5725C66.9291 53.8092 68.0697 53.8092 68.6461 54.5725C70.996 57.6844 76.1394 64.9411 76.1394 68.843Z" fill="url(#paint0_linear_3106_5105)"/>
<path d="M76.1394 68.843C76.1394 73.9003 72.2711 78 67.4994 78C62.7276 78 58.8594 73.9003 58.8594 68.843C58.8594 64.9411 64.0027 57.6844 66.3527 54.5725C66.9291 53.8092 68.0697 53.8092 68.6461 54.5725C70.996 57.6844 76.1394 64.9411 76.1394 68.843Z" fill="url(#paint1_linear_3106_5105)"/>
<path d="M73.1342 72.6135C73.1342 75.5884 70.6114 78 67.4994 78C64.3874 78 61.8646 75.5884 61.8646 72.6135C61.8646 70.4798 64.7634 66.6407 66.4027 64.6402C66.9708 63.9469 68.0279 63.9469 68.596 64.6402C70.2353 66.6407 73.1342 70.4798 73.1342 72.6135Z" fill="url(#paint2_linear_3106_5105)"/>
<path d="M90.2066 63.414C92.6726 63.414 94.3286 65.16 94.3286 67.734C94.3286 70.632 92.2226 72.108 89.6846 72.108C86.8406 72.108 85.0946 70.254 84.9866 67.95H87.5606C87.6866 69.084 88.4246 69.984 89.7026 69.984C90.7286 69.984 91.7186 69.228 91.7186 67.734C91.7186 66.402 90.9266 65.466 89.6846 65.466C89.0366 65.466 88.1006 65.736 87.6686 66.78H85.1666L85.5266 59.4H93.5906V61.578H87.8846L87.7406 64.332C88.3346 63.738 89.1446 63.414 90.2066 63.414ZM102.562 67.914H96.2618V65.844H102.562V67.914ZM108.195 72H105.765L103.803 62.748H106.215L107.349 69.102L108.753 63.954H110.409L111.795 69.102L112.929 62.748H115.269L113.289 72H110.877L109.545 67.302L108.195 72ZM121.169 72.108C118.145 72.108 116.327 70.254 116.327 67.392C116.327 64.512 118.181 62.64 121.007 62.64C123.725 62.64 125.579 64.368 125.597 67.086C125.597 67.32 125.579 67.662 125.525 67.968H118.973V68.076C119.027 69.39 119.855 70.182 121.079 70.182C122.069 70.182 122.753 69.732 122.969 68.868H125.471C125.201 70.668 123.617 72.108 121.169 72.108ZM119.027 66.294H123.059C122.879 65.16 122.123 64.53 121.025 64.53C119.963 64.53 119.171 65.196 119.027 66.294ZM131.997 72.108C128.973 72.108 127.155 70.254 127.155 67.392C127.155 64.512 129.009 62.64 131.835 62.64C134.553 62.64 136.407 64.368 136.425 67.086C136.425 67.32 136.407 67.662 136.353 67.968H129.801V68.076C129.855 69.39 130.683 70.182 131.907 70.182C132.897 70.182 133.581 69.732 133.797 68.868H136.299C136.029 70.668 134.445 72.108 131.997 72.108ZM129.855 66.294H133.887C133.707 65.16 132.951 64.53 131.853 64.53C130.791 64.53 129.999 65.196 129.855 66.294ZM141.025 72H138.487V59.4H141.025V66.672L144.643 62.748H147.505L144.157 66.402L147.649 72H144.697L142.375 68.256L141.025 69.732V72ZM158.755 72.108C156.217 72.108 154.507 70.902 154.417 68.922H156.829C156.901 69.732 157.567 70.29 158.773 70.29C159.781 70.29 160.393 69.948 160.393 69.3C160.393 68.544 159.763 68.472 158.359 68.292C156.235 68.04 154.597 67.554 154.597 65.646C154.597 63.81 156.163 62.622 158.503 62.622C160.933 62.622 162.607 63.72 162.715 65.61H160.303C160.213 64.872 159.565 64.422 158.575 64.422C157.639 64.422 157.027 64.782 157.027 65.376C157.027 66.078 157.801 66.168 159.079 66.312C161.095 66.528 162.859 67.014 162.859 69.102C162.859 70.938 161.185 72.108 158.755 72.108ZM171.803 72H168.851C167.087 72 166.205 71.118 166.205 69.354V64.89H164.027V62.748H166.205V60.156H168.743V62.748H171.767V64.89H168.743V68.94C168.743 69.588 168.995 69.858 169.661 69.858H171.803V72ZM181.433 65.052H179.921C178.337 65.052 177.725 66.078 177.725 67.464V69.858H180.263V72H173.315V69.858H175.187V64.89H173.315V62.748H177.545L177.617 64.35C178.121 63.432 178.895 62.748 180.371 62.748H181.433V65.052ZM187.456 72.108C184.432 72.108 182.614 70.254 182.614 67.392C182.614 64.512 184.468 62.64 187.294 62.64C190.012 62.64 191.866 64.368 191.884 67.086C191.884 67.32 191.866 67.662 191.812 67.968H185.26V68.076C185.314 69.39 186.142 70.182 187.366 70.182C188.356 70.182 189.04 69.732 189.256 68.868H191.758C191.488 70.668 189.904 72.108 187.456 72.108ZM185.314 66.294H189.346C189.166 65.16 188.41 64.53 187.312 64.53C186.25 64.53 185.458 65.196 185.314 66.294ZM202.388 69.858H202.658V72H201.416C200.21 72 199.76 71.442 199.742 70.65C199.076 71.586 198.104 72.108 196.79 72.108C194.846 72.108 193.406 71.136 193.406 69.372C193.406 67.41 194.864 66.312 197.6 66.312H199.346V65.862C199.346 65.034 198.788 64.494 197.726 64.494C196.808 64.494 196.16 64.944 196.07 65.628H193.604C193.784 63.864 195.368 62.64 197.834 62.64C200.39 62.64 201.866 63.792 201.866 66.006V69.282C201.866 69.732 201.992 69.858 202.388 69.858ZM199.346 68.256V68.004H197.564C196.538 68.004 195.962 68.436 195.962 69.21C195.962 69.858 196.466 70.272 197.276 70.272C198.536 70.272 199.346 69.462 199.346 68.256ZM206.978 72H204.44V59.4H206.978V66.672L210.596 62.748H213.458L210.11 66.402L213.602 72H210.65L208.328 68.256L206.978 69.732V72Z" fill="white"/>
<path d="M360.5 43L355.5 40.1132V45.8868L360.5 43ZM288.5 43.5L356 43.5V42.5L288.5 42.5V43.5Z" fill="#313131"/>
<path d="M512.558 43.752C502.31 43.752 495.982 36.472 495.982 27.176C495.982 17.88 502.31 10.656 512.558 10.656C522.694 10.656 529.022 17.88 529.022 27.176C529.022 36.528 522.694 43.752 512.558 43.752ZM512.558 40.896C520.846 40.896 525.998 35.296 525.998 27.176C525.998 19.056 520.846 13.456 512.558 13.456C504.214 13.456 499.006 19.112 499.006 27.176C499.006 35.24 504.214 40.896 512.558 40.896ZM518.718 35.632H506.174V33.112L513.006 27.736C514.238 26.784 515.526 25.552 515.526 23.928C515.526 22.304 514.126 21.184 512.39 21.184C510.43 21.184 509.086 22.416 509.086 24.544V24.712H506.174V24.376C506.174 20.848 508.918 18.496 512.334 18.496C515.974 18.496 518.55 20.68 518.55 23.872C518.55 26.56 516.646 28.072 515.246 29.192L510.542 32.944H518.718V35.632Z" fill="white"/>
<path d="M447.139 68.843C447.139 73.9003 443.271 78 438.499 78C433.728 78 429.859 73.9003 429.859 68.843C429.859 64.9411 435.003 57.6844 437.353 54.5725C437.929 53.8092 439.07 53.8092 439.646 54.5725C441.996 57.6844 447.139 64.9411 447.139 68.843Z" fill="url(#paint3_linear_3106_5105)"/>
<path d="M447.139 68.843C447.139 73.9003 443.271 78 438.499 78C433.728 78 429.859 73.9003 429.859 68.843C429.859 64.9411 435.003 57.6844 437.353 54.5725C437.929 53.8092 439.07 53.8092 439.646 54.5725C441.996 57.6844 447.139 64.9411 447.139 68.843Z" fill="url(#paint4_linear_3106_5105)"/>
<path d="M444.134 72.6135C444.134 75.5884 441.611 78 438.499 78C435.387 78 432.865 75.5884 432.865 72.6135C432.865 70.4798 435.763 66.6407 437.403 64.6402C437.971 63.9469 439.028 63.9469 439.596 64.6402C441.235 66.6407 444.134 70.4798 444.134 72.6135Z" fill="url(#paint5_linear_3106_5105)"/>
<path d="M461.513 59.4V69.804H464.303V72H455.951V69.804H458.939V63.972C458.759 64.026 458.543 64.044 458.327 64.044H456.005V61.902H458.039C458.669 61.902 458.975 61.308 458.975 60.624V59.4H461.513ZM470.058 59.292C473.028 59.292 474.828 61.632 474.828 65.412V65.988C474.828 69.876 473.028 72.108 470.058 72.108C467.088 72.108 465.288 69.876 465.288 65.988V65.412C465.288 61.632 467.088 59.292 470.058 59.292ZM467.826 65.502V65.898C467.826 66.258 467.844 66.618 467.862 66.924L471.804 62.514C471.426 61.722 470.85 61.326 470.058 61.326C468.564 61.326 467.826 62.748 467.826 65.502ZM472.29 65.898V65.502C472.29 65.142 472.272 64.8 472.254 64.476L468.33 68.904C468.708 69.66 469.284 70.056 470.058 70.056C471.552 70.056 472.29 68.652 472.29 65.898ZM483.247 67.914H476.947V65.844H483.247V67.914ZM488.88 72H486.45L484.488 62.748H486.9L488.034 69.102L489.438 63.954H491.094L492.48 69.102L493.614 62.748H495.954L493.974 72H491.562L490.23 67.302L488.88 72ZM501.854 72.108C498.83 72.108 497.012 70.254 497.012 67.392C497.012 64.512 498.866 62.64 501.692 62.64C504.41 62.64 506.264 64.368 506.282 67.086C506.282 67.32 506.264 67.662 506.21 67.968H499.658V68.076C499.712 69.39 500.54 70.182 501.764 70.182C502.754 70.182 503.438 69.732 503.654 68.868H506.156C505.886 70.668 504.302 72.108 501.854 72.108ZM499.712 66.294H503.744C503.564 65.16 502.808 64.53 501.71 64.53C500.648 64.53 499.856 65.196 499.712 66.294ZM512.682 72.108C509.658 72.108 507.84 70.254 507.84 67.392C507.84 64.512 509.694 62.64 512.52 62.64C515.238 62.64 517.092 64.368 517.11 67.086C517.11 67.32 517.092 67.662 517.038 67.968H510.486V68.076C510.54 69.39 511.368 70.182 512.592 70.182C513.582 70.182 514.266 69.732 514.482 68.868H516.984C516.714 70.668 515.13 72.108 512.682 72.108ZM510.54 66.294H514.572C514.392 65.16 513.636 64.53 512.538 64.53C511.476 64.53 510.684 65.196 510.54 66.294ZM521.711 72H519.173V59.4H521.711V66.672L525.329 62.748H528.191L524.843 66.402L528.335 72H525.383L523.061 68.256L521.711 69.732V72ZM539.44 72.108C536.902 72.108 535.192 70.902 535.102 68.922H537.514C537.586 69.732 538.252 70.29 539.458 70.29C540.466 70.29 541.078 69.948 541.078 69.3C541.078 68.544 540.448 68.472 539.044 68.292C536.92 68.04 535.282 67.554 535.282 65.646C535.282 63.81 536.848 62.622 539.188 62.622C541.618 62.622 543.292 63.72 543.4 65.61H540.988C540.898 64.872 540.25 64.422 539.26 64.422C538.324 64.422 537.712 64.782 537.712 65.376C537.712 66.078 538.486 66.168 539.764 66.312C541.78 66.528 543.544 67.014 543.544 69.102C543.544 70.938 541.87 72.108 539.44 72.108ZM552.488 72H549.536C547.772 72 546.89 71.118 546.89 69.354V64.89H544.712V62.748H546.89V60.156H549.428V62.748H552.452V64.89H549.428V68.94C549.428 69.588 549.68 69.858 550.346 69.858H552.488V72ZM562.118 65.052H560.606C559.022 65.052 558.41 66.078 558.41 67.464V69.858H560.948V72H554V69.858H555.872V64.89H554V62.748H558.23L558.302 64.35C558.806 63.432 559.58 62.748 561.056 62.748H562.118V65.052ZM568.141 72.108C565.117 72.108 563.299 70.254 563.299 67.392C563.299 64.512 565.153 62.64 567.979 62.64C570.697 62.64 572.551 64.368 572.569 67.086C572.569 67.32 572.551 67.662 572.497 67.968H565.945V68.076C565.999 69.39 566.827 70.182 568.051 70.182C569.041 70.182 569.725 69.732 569.941 68.868H572.443C572.173 70.668 570.589 72.108 568.141 72.108ZM565.999 66.294H570.031C569.851 65.16 569.095 64.53 567.997 64.53C566.935 64.53 566.143 65.196 565.999 66.294ZM583.074 69.858H583.344V72H582.102C580.896 72 580.446 71.442 580.428 70.65C579.762 71.586 578.79 72.108 577.476 72.108C575.532 72.108 574.092 71.136 574.092 69.372C574.092 67.41 575.55 66.312 578.286 66.312H580.032V65.862C580.032 65.034 579.474 64.494 578.412 64.494C577.494 64.494 576.846 64.944 576.756 65.628H574.29C574.47 63.864 576.054 62.64 578.52 62.64C581.076 62.64 582.552 63.792 582.552 66.006V69.282C582.552 69.732 582.678 69.858 583.074 69.858ZM580.032 68.256V68.004H578.25C577.224 68.004 576.648 68.436 576.648 69.21C576.648 69.858 577.152 70.272 577.962 70.272C579.222 70.272 580.032 69.462 580.032 68.256ZM587.664 72H585.126V59.4H587.664V66.672L591.282 62.748H594.144L590.796 66.402L594.288 72H591.336L589.014 68.256L587.664 69.732V72Z" fill="white"/>
<path d="M736.5 43L731.5 40.1132V45.8868L736.5 43ZM664.5 43.5L732 43.5V42.5L664.5 42.5V43.5Z" fill="#313131"/>
<path d="M888.558 43.752C878.31 43.752 871.982 36.472 871.982 27.176C871.982 17.88 878.31 10.656 888.558 10.656C898.694 10.656 905.022 17.88 905.022 27.176C905.022 36.528 898.694 43.752 888.558 43.752ZM888.558 40.896C896.846 40.896 901.998 35.296 901.998 27.176C901.998 19.056 896.846 13.456 888.558 13.456C880.214 13.456 875.006 19.112 875.006 27.176C875.006 35.24 880.214 40.896 888.558 40.896ZM888.39 35.912C884.358 35.912 881.894 33.952 881.838 30.256H884.694C884.694 32.048 886.038 33.392 888.39 33.392C890.63 33.392 891.918 32.272 891.918 30.592C891.918 29.024 890.518 28.184 888.278 28.184H887.214V25.776H888.222C890.238 25.776 891.582 24.936 891.582 23.368C891.582 22.024 890.406 21.016 888.446 21.016C886.262 21.016 885.142 22.192 885.142 23.872H882.286C882.342 20.512 884.862 18.496 888.502 18.496C892.086 18.496 894.494 20.456 894.494 23.144C894.494 24.992 893.094 26.392 891.694 26.784C893.71 27.176 894.942 28.856 894.942 30.76C894.942 33.84 892.31 35.912 888.39 35.912Z" fill="white"/>
<path d="M823.139 68.843C823.139 73.9003 819.271 78 814.499 78C809.728 78 805.859 73.9003 805.859 68.843C805.859 64.9411 811.003 57.6844 813.353 54.5725C813.929 53.8092 815.07 53.8092 815.646 54.5725C817.996 57.6844 823.139 64.9411 823.139 68.843Z" fill="url(#paint6_linear_3106_5105)"/>
<path d="M823.139 68.843C823.139 73.9003 819.271 78 814.499 78C809.728 78 805.859 73.9003 805.859 68.843C805.859 64.9411 811.003 57.6844 813.353 54.5725C813.929 53.8092 815.07 53.8092 815.646 54.5725C817.996 57.6844 823.139 64.9411 823.139 68.843Z" fill="url(#paint7_linear_3106_5105)"/>
<path d="M820.134 72.6135C820.134 75.5884 817.611 78 814.499 78C811.387 78 808.865 75.5884 808.865 72.6135C808.865 70.4798 811.763 66.6407 813.403 64.6402C813.971 63.9469 815.028 63.9469 815.596 64.6402C817.235 66.6407 820.134 70.4798 820.134 72.6135Z" fill="url(#paint8_linear_3106_5105)"/>
<path d="M837.513 59.4V69.804H840.303V72H831.951V69.804H834.939V63.972C834.759 64.026 834.543 64.044 834.327 64.044H832.005V61.902H834.039C834.669 61.902 834.975 61.308 834.975 60.624V59.4H837.513ZM846.945 63.414C849.411 63.414 851.067 65.16 851.067 67.734C851.067 70.632 848.961 72.108 846.423 72.108C843.579 72.108 841.833 70.254 841.725 67.95H844.299C844.425 69.084 845.163 69.984 846.441 69.984C847.467 69.984 848.457 69.228 848.457 67.734C848.457 66.402 847.665 65.466 846.423 65.466C845.775 65.466 844.839 65.736 844.407 66.78H841.905L842.265 59.4H850.329V61.578H844.623L844.479 64.332C845.073 63.738 845.883 63.414 846.945 63.414ZM859.3 67.914H853V65.844H859.3V67.914ZM864.933 72H862.503L860.541 62.748H862.953L864.087 69.102L865.491 63.954H867.147L868.533 69.102L869.667 62.748H872.007L870.027 72H867.615L866.283 67.302L864.933 72ZM877.907 72.108C874.883 72.108 873.065 70.254 873.065 67.392C873.065 64.512 874.919 62.64 877.745 62.64C880.463 62.64 882.317 64.368 882.335 67.086C882.335 67.32 882.317 67.662 882.263 67.968H875.711V68.076C875.765 69.39 876.593 70.182 877.817 70.182C878.807 70.182 879.491 69.732 879.707 68.868H882.209C881.939 70.668 880.355 72.108 877.907 72.108ZM875.765 66.294H879.797C879.617 65.16 878.861 64.53 877.763 64.53C876.701 64.53 875.909 65.196 875.765 66.294ZM888.735 72.108C885.711 72.108 883.893 70.254 883.893 67.392C883.893 64.512 885.747 62.64 888.573 62.64C891.291 62.64 893.145 64.368 893.163 67.086C893.163 67.32 893.145 67.662 893.091 67.968H886.539V68.076C886.593 69.39 887.421 70.182 888.645 70.182C889.635 70.182 890.319 69.732 890.535 68.868H893.037C892.767 70.668 891.183 72.108 888.735 72.108ZM886.593 66.294H890.625C890.445 65.16 889.689 64.53 888.591 64.53C887.529 64.53 886.737 65.196 886.593 66.294ZM897.763 72H895.225V59.4H897.763V66.672L901.381 62.748H904.243L900.895 66.402L904.387 72H901.435L899.113 68.256L897.763 69.732V72ZM915.493 72.108C912.955 72.108 911.245 70.902 911.155 68.922H913.567C913.639 69.732 914.305 70.29 915.511 70.29C916.519 70.29 917.131 69.948 917.131 69.3C917.131 68.544 916.501 68.472 915.097 68.292C912.973 68.04 911.335 67.554 911.335 65.646C911.335 63.81 912.901 62.622 915.241 62.622C917.671 62.622 919.345 63.72 919.453 65.61H917.041C916.951 64.872 916.303 64.422 915.313 64.422C914.377 64.422 913.765 64.782 913.765 65.376C913.765 66.078 914.539 66.168 915.817 66.312C917.833 66.528 919.597 67.014 919.597 69.102C919.597 70.938 917.923 72.108 915.493 72.108ZM928.541 72H925.589C923.825 72 922.943 71.118 922.943 69.354V64.89H920.765V62.748H922.943V60.156H925.481V62.748H928.505V64.89H925.481V68.94C925.481 69.588 925.733 69.858 926.399 69.858H928.541V72ZM938.171 65.052H936.659C935.075 65.052 934.463 66.078 934.463 67.464V69.858H937.001V72H930.053V69.858H931.925V64.89H930.053V62.748H934.283L934.355 64.35C934.859 63.432 935.633 62.748 937.109 62.748H938.171V65.052ZM944.194 72.108C941.17 72.108 939.352 70.254 939.352 67.392C939.352 64.512 941.206 62.64 944.032 62.64C946.75 62.64 948.604 64.368 948.622 67.086C948.622 67.32 948.604 67.662 948.55 67.968H941.998V68.076C942.052 69.39 942.88 70.182 944.104 70.182C945.094 70.182 945.778 69.732 945.994 68.868H948.496C948.226 70.668 946.642 72.108 944.194 72.108ZM942.052 66.294H946.084C945.904 65.16 945.148 64.53 944.05 64.53C942.988 64.53 942.196 65.196 942.052 66.294ZM959.126 69.858H959.396V72H958.154C956.948 72 956.498 71.442 956.48 70.65C955.814 71.586 954.842 72.108 953.528 72.108C951.584 72.108 950.144 71.136 950.144 69.372C950.144 67.41 951.602 66.312 954.338 66.312H956.084V65.862C956.084 65.034 955.526 64.494 954.464 64.494C953.546 64.494 952.898 64.944 952.808 65.628H950.342C950.522 63.864 952.106 62.64 954.572 62.64C957.128 62.64 958.604 63.792 958.604 66.006V69.282C958.604 69.732 958.73 69.858 959.126 69.858ZM956.084 68.256V68.004H954.302C953.276 68.004 952.7 68.436 952.7 69.21C952.7 69.858 953.204 70.272 954.014 70.272C955.274 70.272 956.084 69.462 956.084 68.256ZM963.716 72H961.178V59.4H963.716V66.672L967.334 62.748H970.196L966.848 66.402L970.34 72H967.388L965.066 68.256L963.716 69.732V72Z" fill="white"/>
<path d="M324.558 137.752C314.31 137.752 307.982 130.472 307.982 121.176C307.982 111.88 314.31 104.656 324.558 104.656C334.694 104.656 341.022 111.88 341.022 121.176C341.022 130.528 334.694 137.752 324.558 137.752ZM324.558 134.896C332.846 134.896 337.998 129.296 337.998 121.176C337.998 113.056 332.846 107.456 324.558 107.456C316.214 107.456 311.006 113.112 311.006 121.176C311.006 129.24 316.214 134.896 324.558 134.896ZM328.086 129.632H325.23V125.544H316.774V122.968L324.502 112.776H328.086V123.024H330.774V125.544H328.086V129.632ZM325.23 115.576L319.63 123.024H325.23V115.576Z" fill="white"/>
<path d="M252.068 162.843C252.068 167.9 248.296 172 243.643 172C238.99 172 235.219 167.9 235.219 162.843C235.219 158.941 240.234 151.684 242.525 148.572C243.087 147.809 244.199 147.809 244.761 148.572C247.053 151.684 252.068 158.941 252.068 162.843Z" fill="url(#paint9_linear_3106_5105)"/>
<path d="M252.068 162.843C252.068 167.9 248.296 172 243.643 172C238.99 172 235.219 167.9 235.219 162.843C235.219 158.941 240.234 151.684 242.525 148.572C243.087 147.809 244.199 147.809 244.761 148.572C247.053 151.684 252.068 158.941 252.068 162.843Z" fill="url(#paint10_linear_3106_5105)"/>
<path d="M249.137 166.614C249.137 169.588 246.678 172 243.643 172C240.609 172 238.149 169.588 238.149 166.614C238.149 164.48 240.976 160.641 242.574 158.64C243.128 157.947 244.159 157.947 244.712 158.64C246.311 160.641 249.137 164.48 249.137 166.614Z" fill="url(#paint11_linear_3106_5105)"/>
<path d="M266.847 157.176C269.313 157.176 270.969 158.922 270.969 161.496C270.969 164.394 268.863 165.87 266.325 165.87C263.481 165.87 261.735 164.016 261.627 161.712H264.201C264.327 162.846 265.065 163.746 266.343 163.746C267.369 163.746 268.359 162.99 268.359 161.496C268.359 160.164 267.567 159.228 266.325 159.228C265.677 159.228 264.741 159.498 264.309 160.542H261.807L262.167 153.162H270.231V155.34H264.525L264.381 158.094C264.975 157.5 265.785 157.176 266.847 157.176ZM279.202 161.676H272.902V159.606H279.202V161.676ZM291.037 156.384C292.963 156.384 294.115 157.644 294.115 159.822V165.762H291.685V160.164C291.685 159.246 291.307 158.58 290.443 158.58C289.579 158.58 289.111 159.264 289.111 160.182V165.762H286.663V160.164C286.663 159.318 286.393 158.58 285.403 158.58C284.539 158.58 284.089 159.246 284.089 160.164V165.762H281.659V156.51H283.711L283.837 157.41C284.377 156.744 285.169 156.384 286.087 156.384C287.131 156.384 288.013 156.87 288.463 157.716C289.057 156.87 289.921 156.384 291.037 156.384ZM300.778 165.87C297.934 165.87 296.026 163.98 296.026 161.136C296.026 158.292 297.934 156.402 300.778 156.402C303.64 156.402 305.548 158.292 305.548 161.136C305.548 163.98 303.64 165.87 300.778 165.87ZM300.778 163.8C302.11 163.8 302.956 162.702 302.956 161.136C302.956 159.57 302.11 158.472 300.778 158.472C299.464 158.472 298.618 159.588 298.618 161.136C298.618 162.684 299.464 163.8 300.778 163.8ZM312.752 156.402C314.696 156.402 316.352 157.446 316.352 160.56V165.762H313.814V160.848C313.814 159.39 313.292 158.58 312.05 158.58C310.826 158.58 310.142 159.408 310.142 160.992V165.762H307.604V156.51H309.818L310.052 157.644C310.61 156.924 311.402 156.402 312.752 156.402ZM325.539 165.762H322.587C320.823 165.762 319.941 164.88 319.941 163.116V158.652H317.763V156.51H319.941V153.918H322.479V156.51H325.503V158.652H322.479V162.702C322.479 163.35 322.731 163.62 323.397 163.62H325.539V165.762ZM332.757 156.402C334.827 156.402 336.411 157.572 336.411 160.56V165.762H333.873V160.794C333.873 159.48 333.369 158.58 332.091 158.58C330.849 158.58 330.111 159.462 330.111 160.938V165.762H327.573V153.162H330.111V157.572C330.723 156.852 331.551 156.402 332.757 156.402ZM342.62 165.87C340.082 165.87 338.372 164.664 338.282 162.684H340.694C340.766 163.494 341.432 164.052 342.638 164.052C343.646 164.052 344.258 163.71 344.258 163.062C344.258 162.306 343.628 162.234 342.224 162.054C340.1 161.802 338.462 161.316 338.462 159.408C338.462 157.572 340.028 156.384 342.368 156.384C344.798 156.384 346.472 157.482 346.58 159.372H344.168C344.078 158.634 343.43 158.184 342.44 158.184C341.504 158.184 340.892 158.544 340.892 159.138C340.892 159.84 341.666 159.93 342.944 160.074C344.96 160.29 346.724 160.776 346.724 162.864C346.724 164.7 345.05 165.87 342.62 165.87ZM358.353 165.87C355.815 165.87 354.105 164.664 354.015 162.684H356.427C356.499 163.494 357.165 164.052 358.371 164.052C359.379 164.052 359.991 163.71 359.991 163.062C359.991 162.306 359.361 162.234 357.957 162.054C355.833 161.802 354.195 161.316 354.195 159.408C354.195 157.572 355.761 156.384 358.101 156.384C360.531 156.384 362.205 157.482 362.312 159.372H359.901C359.811 158.634 359.163 158.184 358.173 158.184C357.237 158.184 356.625 158.544 356.625 159.138C356.625 159.84 357.399 159.93 358.677 160.074C360.693 160.29 362.457 160.776 362.457 162.864C362.457 164.7 360.783 165.87 358.353 165.87ZM371.4 165.762H368.448C366.684 165.762 365.802 164.88 365.802 163.116V158.652H363.624V156.51H365.802V153.918H368.34V156.51H371.364V158.652H368.34V162.702C368.34 163.35 368.592 163.62 369.258 163.62H371.4V165.762ZM381.03 158.814H379.518C377.934 158.814 377.322 159.84 377.322 161.226V163.62H379.86V165.762H372.912V163.62H374.784V158.652H372.912V156.51H377.142L377.214 158.112C377.718 157.194 378.492 156.51 379.968 156.51H381.03V158.814ZM387.054 165.87C384.03 165.87 382.212 164.016 382.212 161.154C382.212 158.274 384.066 156.402 386.892 156.402C389.61 156.402 391.464 158.13 391.482 160.848C391.482 161.082 391.464 161.424 391.41 161.73H384.858V161.838C384.912 163.152 385.74 163.944 386.964 163.944C387.954 163.944 388.638 163.494 388.854 162.63H391.355C391.086 164.43 389.502 165.87 387.054 165.87ZM384.912 160.056H388.944C388.764 158.922 388.008 158.292 386.91 158.292C385.848 158.292 385.056 158.958 384.912 160.056ZM401.986 163.62H402.256V165.762H401.014C399.808 165.762 399.358 165.204 399.34 164.412C398.674 165.348 397.702 165.87 396.388 165.87C394.444 165.87 393.004 164.898 393.004 163.134C393.004 161.172 394.462 160.074 397.198 160.074H398.944V159.624C398.944 158.796 398.386 158.256 397.324 158.256C396.406 158.256 395.758 158.706 395.668 159.39H393.202C393.382 157.626 394.966 156.402 397.432 156.402C399.988 156.402 401.464 157.554 401.464 159.768V163.044C401.464 163.494 401.59 163.62 401.986 163.62ZM398.944 162.018V161.766H397.162C396.136 161.766 395.56 162.198 395.56 162.972C395.56 163.62 396.064 164.034 396.874 164.034C398.134 164.034 398.944 163.224 398.944 162.018ZM406.576 165.762H404.038V153.162H406.576V160.434L410.194 156.51H413.056L409.708 160.164L413.2 165.762H410.248L407.926 162.018L406.576 163.494V165.762Z" fill="white"/>
<path d="M548.854 137.354C549.049 137.158 549.049 136.842 548.854 136.646L545.672 133.464C545.476 133.269 545.16 133.269 544.964 133.464C544.769 133.66 544.769 133.976 544.964 134.172L547.793 137L544.964 139.828C544.769 140.024 544.769 140.34 544.964 140.536C545.16 140.731 545.476 140.731 545.672 140.536L548.854 137.354ZM476.5 137.5H548.5V136.5H476.5V137.5Z" fill="#313131"/>
<path d="M700.558 137.752C690.31 137.752 683.982 130.472 683.982 121.176C683.982 111.88 690.31 104.656 700.558 104.656C710.694 104.656 717.022 111.88 717.022 121.176C717.022 130.528 710.694 137.752 700.558 137.752ZM700.558 134.896C708.846 134.896 713.998 129.296 713.998 121.176C713.998 113.056 708.846 107.456 700.558 107.456C692.214 107.456 687.006 113.112 687.006 121.176C687.006 129.24 692.214 134.896 700.558 134.896ZM700.614 129.912C697.478 129.912 694.846 128.008 694.51 124.872H697.31C697.59 126.272 699.046 127.28 700.67 127.28C702.462 127.28 703.918 125.88 703.918 124.032C703.918 122.184 702.518 120.784 700.67 120.784C699.494 120.784 698.094 121.4 697.422 122.576H694.79L695.238 112.776H705.878V115.296H697.478L697.198 120.112C698.094 119.048 699.494 118.376 701.23 118.376C704.534 118.376 706.83 120.728 706.83 124.032C706.83 127.504 704.142 129.912 700.614 129.912Z" fill="white"/>
<path d="M623.068 162.843C623.068 167.9 619.296 172 614.643 172C609.99 172 606.219 167.9 606.219 162.843C606.219 158.941 611.234 151.684 613.525 148.572C614.087 147.809 615.199 147.809 615.761 148.572C618.053 151.684 623.068 158.941 623.068 162.843Z" fill="url(#paint12_linear_3106_5105)"/>
<path d="M623.068 162.843C623.068 167.9 619.296 172 614.643 172C609.99 172 606.219 167.9 606.219 162.843C606.219 158.941 611.234 151.684 613.525 148.572C614.087 147.809 615.199 147.809 615.761 148.572C618.053 151.684 623.068 158.941 623.068 162.843Z" fill="url(#paint13_linear_3106_5105)"/>
<path d="M620.137 166.614C620.137 169.588 617.678 172 614.643 172C611.609 172 609.149 169.588 609.149 166.614C609.149 164.48 611.976 160.641 613.574 158.64C614.128 157.947 615.159 157.947 615.712 158.64C617.311 160.641 620.137 164.48 620.137 166.614Z" fill="url(#paint14_linear_3106_5105)"/>
<path d="M638.153 153.162V163.566H640.943V165.762H632.591V163.566H635.579V157.734C635.399 157.788 635.183 157.806 634.967 157.806H632.645V155.664H634.679C635.309 155.664 635.615 155.07 635.615 154.386V153.162H638.153ZM646.699 153.054C649.669 153.054 651.469 155.394 651.469 159.174V159.75C651.469 163.638 649.669 165.87 646.699 165.87C643.729 165.87 641.929 163.638 641.929 159.75V159.174C641.929 155.394 643.729 153.054 646.699 153.054ZM644.467 159.264V159.66C644.467 160.02 644.485 160.38 644.503 160.686L648.445 156.276C648.067 155.484 647.491 155.088 646.699 155.088C645.205 155.088 644.467 156.51 644.467 159.264ZM648.931 159.66V159.264C648.931 158.904 648.913 158.562 648.895 158.238L644.971 162.666C645.349 163.422 645.925 163.818 646.699 163.818C648.193 163.818 648.931 162.414 648.931 159.66ZM659.888 161.676H653.588V159.606H659.888V161.676ZM671.722 156.384C673.648 156.384 674.8 157.644 674.8 159.822V165.762H672.37V160.164C672.37 159.246 671.992 158.58 671.128 158.58C670.264 158.58 669.796 159.264 669.796 160.182V165.762H667.348V160.164C667.348 159.318 667.078 158.58 666.088 158.58C665.224 158.58 664.774 159.246 664.774 160.164V165.762H662.344V156.51H664.396L664.522 157.41C665.062 156.744 665.854 156.384 666.772 156.384C667.816 156.384 668.698 156.87 669.148 157.716C669.742 156.87 670.606 156.384 671.722 156.384ZM681.464 165.87C678.62 165.87 676.712 163.98 676.712 161.136C676.712 158.292 678.62 156.402 681.464 156.402C684.326 156.402 686.234 158.292 686.234 161.136C686.234 163.98 684.326 165.87 681.464 165.87ZM681.464 163.8C682.796 163.8 683.642 162.702 683.642 161.136C683.642 159.57 682.796 158.472 681.464 158.472C680.15 158.472 679.304 159.588 679.304 161.136C679.304 162.684 680.15 163.8 681.464 163.8ZM693.438 156.402C695.382 156.402 697.038 157.446 697.038 160.56V165.762H694.5V160.848C694.5 159.39 693.978 158.58 692.736 158.58C691.512 158.58 690.828 159.408 690.828 160.992V165.762H688.29V156.51H690.504L690.738 157.644C691.296 156.924 692.088 156.402 693.438 156.402ZM706.224 165.762H703.272C701.508 165.762 700.626 164.88 700.626 163.116V158.652H698.448V156.51H700.626V153.918H703.164V156.51H706.188V158.652H703.164V162.702C703.164 163.35 703.416 163.62 704.082 163.62H706.224V165.762ZM713.442 156.402C715.512 156.402 717.096 157.572 717.096 160.56V165.762H714.558V160.794C714.558 159.48 714.054 158.58 712.776 158.58C711.534 158.58 710.796 159.462 710.796 160.938V165.762H708.258V153.162H710.796V157.572C711.408 156.852 712.236 156.402 713.442 156.402ZM723.306 165.87C720.768 165.87 719.058 164.664 718.968 162.684H721.38C721.452 163.494 722.118 164.052 723.324 164.052C724.332 164.052 724.944 163.71 724.944 163.062C724.944 162.306 724.314 162.234 722.91 162.054C720.786 161.802 719.148 161.316 719.148 159.408C719.148 157.572 720.714 156.384 723.054 156.384C725.484 156.384 727.158 157.482 727.266 159.372H724.854C724.764 158.634 724.116 158.184 723.126 158.184C722.19 158.184 721.578 158.544 721.578 159.138C721.578 159.84 722.352 159.93 723.63 160.074C725.646 160.29 727.41 160.776 727.41 162.864C727.41 164.7 725.736 165.87 723.306 165.87ZM739.038 165.87C736.5 165.87 734.79 164.664 734.7 162.684H737.112C737.184 163.494 737.85 164.052 739.056 164.052C740.064 164.052 740.676 163.71 740.676 163.062C740.676 162.306 740.046 162.234 738.642 162.054C736.518 161.802 734.88 161.316 734.88 159.408C734.88 157.572 736.446 156.384 738.786 156.384C741.216 156.384 742.89 157.482 742.998 159.372H740.586C740.496 158.634 739.848 158.184 738.858 158.184C737.922 158.184 737.31 158.544 737.31 159.138C737.31 159.84 738.084 159.93 739.362 160.074C741.378 160.29 743.142 160.776 743.142 162.864C743.142 164.7 741.468 165.87 739.038 165.87ZM752.086 165.762H749.134C747.37 165.762 746.488 164.88 746.488 163.116V158.652H744.31V156.51H746.488V153.918H749.026V156.51H752.05V158.652H749.026V162.702C749.026 163.35 749.278 163.62 749.944 163.62H752.086V165.762ZM761.716 158.814H760.204C758.62 158.814 758.008 159.84 758.008 161.226V163.62H760.546V165.762H753.598V163.62H755.47V158.652H753.598V156.51H757.828L757.9 158.112C758.404 157.194 759.178 156.51 760.654 156.51H761.716V158.814ZM767.739 165.87C764.715 165.87 762.897 164.016 762.897 161.154C762.897 158.274 764.751 156.402 767.577 156.402C770.295 156.402 772.149 158.13 772.167 160.848C772.167 161.082 772.149 161.424 772.095 161.73H765.543V161.838C765.597 163.152 766.425 163.944 767.649 163.944C768.639 163.944 769.323 163.494 769.539 162.63H772.041C771.771 164.43 770.187 165.87 767.739 165.87ZM765.597 160.056H769.629C769.449 158.922 768.693 158.292 767.595 158.292C766.533 158.292 765.741 158.958 765.597 160.056ZM782.671 163.62H782.941V165.762H781.699C780.493 165.762 780.043 165.204 780.025 164.412C779.359 165.348 778.387 165.87 777.073 165.87C775.129 165.87 773.689 164.898 773.689 163.134C773.689 161.172 775.147 160.074 777.883 160.074H779.629V159.624C779.629 158.796 779.071 158.256 778.009 158.256C777.091 158.256 776.443 158.706 776.353 159.39H773.887C774.067 157.626 775.651 156.402 778.117 156.402C780.673 156.402 782.149 157.554 782.149 159.768V163.044C782.149 163.494 782.275 163.62 782.671 163.62ZM779.629 162.018V161.766H777.847C776.821 161.766 776.245 162.198 776.245 162.972C776.245 163.62 776.749 164.034 777.559 164.034C778.819 164.034 779.629 163.224 779.629 162.018ZM787.261 165.762H784.723V153.162H787.261V160.434L790.879 156.51H793.741L790.393 160.164L793.885 165.762H790.933L788.611 162.018L787.261 163.494V165.762Z" fill="white"/>
<defs>
<linearGradient id="paint0_linear_3106_5105" x1="67.4994" y1="54" x2="67.4994" y2="78" gradientUnits="userSpaceOnUse">
<stop stop-color="#FF6C59"/>
<stop offset="1" stop-color="#E11E0F"/>
</linearGradient>
<linearGradient id="paint1_linear_3106_5105" x1="67.4994" y1="54" x2="67.4994" y2="78" gradientUnits="userSpaceOnUse">
<stop stop-color="#FF6C59"/>
<stop offset="1" stop-color="#E11E0F"/>
</linearGradient>
<linearGradient id="paint2_linear_3106_5105" x1="67.4994" y1="63.3487" x2="67.4994" y2="77.9998" gradientUnits="userSpaceOnUse">
<stop stop-color="#FFE12E"/>
<stop offset="1" stop-color="#F36A07"/>
</linearGradient>
<linearGradient id="paint3_linear_3106_5105" x1="438.499" y1="54" x2="438.499" y2="78" gradientUnits="userSpaceOnUse">
<stop stop-color="#FF6C59"/>
<stop offset="1" stop-color="#E11E0F"/>
</linearGradient>
<linearGradient id="paint4_linear_3106_5105" x1="438.499" y1="54" x2="438.499" y2="78" gradientUnits="userSpaceOnUse">
<stop stop-color="#FF6C59"/>
<stop offset="1" stop-color="#E11E0F"/>
</linearGradient>
<linearGradient id="paint5_linear_3106_5105" x1="438.499" y1="63.3487" x2="438.499" y2="77.9998" gradientUnits="userSpaceOnUse">
<stop stop-color="#FFE12E"/>
<stop offset="1" stop-color="#F36A07"/>
</linearGradient>
<linearGradient id="paint6_linear_3106_5105" x1="814.499" y1="54" x2="814.499" y2="78" gradientUnits="userSpaceOnUse">
<stop stop-color="#FF6C59"/>
<stop offset="1" stop-color="#E11E0F"/>
</linearGradient>
<linearGradient id="paint7_linear_3106_5105" x1="814.499" y1="54" x2="814.499" y2="78" gradientUnits="userSpaceOnUse">
<stop stop-color="#FF6C59"/>
<stop offset="1" stop-color="#E11E0F"/>
</linearGradient>
<linearGradient id="paint8_linear_3106_5105" x1="814.499" y1="63.3487" x2="814.499" y2="77.9998" gradientUnits="userSpaceOnUse">
<stop stop-color="#FFE12E"/>
<stop offset="1" stop-color="#F36A07"/>
</linearGradient>
<linearGradient id="paint9_linear_3106_5105" x1="243.643" y1="148" x2="243.643" y2="172" gradientUnits="userSpaceOnUse">
<stop stop-color="#2943EE"/>
<stop offset="1" stop-color="#182686"/>
</linearGradient>
<linearGradient id="paint10_linear_3106_5105" x1="243.643" y1="148" x2="243.643" y2="172" gradientUnits="userSpaceOnUse">
<stop stop-color="#2943EE"/>
<stop offset="1" stop-color="#182686"/>
</linearGradient>
<linearGradient id="paint11_linear_3106_5105" x1="243.643" y1="157.349" x2="243.643" y2="172" gradientUnits="userSpaceOnUse">
<stop stop-color="#4F83F2"/>
<stop offset="1" stop-color="#113E9E"/>
</linearGradient>
<linearGradient id="paint12_linear_3106_5105" x1="614.643" y1="148" x2="614.643" y2="172" gradientUnits="userSpaceOnUse">
<stop stop-color="#2943EE"/>
<stop offset="1" stop-color="#182686"/>
</linearGradient>
<linearGradient id="paint13_linear_3106_5105" x1="614.643" y1="148" x2="614.643" y2="172" gradientUnits="userSpaceOnUse">
<stop stop-color="#2943EE"/>
<stop offset="1" stop-color="#182686"/>
</linearGradient>
<linearGradient id="paint14_linear_3106_5105" x1="614.643" y1="157.349" x2="614.643" y2="172" gradientUnits="userSpaceOnUse">
<stop stop-color="#4F83F2"/>
<stop offset="1" stop-color="#113E9E"/>
</linearGradient>
</defs>
</svg>
