<svg width="1023" height="82" viewBox="0 0 1023 82" fill="none" xmlns="http://www.w3.org/2000/svg">
<rect x="1" y="1" width="1021" height="80" rx="8" fill="url(#paint0_radial_3157_5720)"/>
<rect x="1" y="1" width="1021" height="80" rx="8" stroke="#30363D"/>
<g clip-path="url(#clip0_3157_5720)">
<path d="M31 43L43.1244 50L34.6244 64.7224L30.5237 57.8249L22.5 57.7224L31 43Z" fill="#530908"/>
<path d="M52 43L39.8756 50L48.3756 64.7224L52.4763 57.8249L60.5 57.7224L52 43Z" fill="#530908"/>
<path d="M43.4922 51.6484L52.5989 41.0151L65.5108 52.0733L57.9778 54.838L56.4041 62.7066L43.4922 51.6484Z" fill="url(#paint1_linear_3157_5720)"/>
<path d="M41.0195 51.6484L31.9128 41.0151L19.0009 52.0733L26.5339 54.838L28.1076 62.7066L41.0195 51.6484Z" fill="url(#paint2_linear_3157_5720)"/>
<path d="M40.0186 18.5202C40.3535 17.606 41.6465 17.606 41.9814 18.5202C42.4324 19.7512 44.0807 19.9682 44.8349 18.8959C45.3951 18.0995 46.644 18.4342 46.7309 19.4039C46.8479 20.7096 48.3839 21.3459 49.3899 20.5053C50.1371 19.8811 51.2569 20.5276 51.0898 21.4868C50.8649 22.7783 52.1839 23.7904 53.3732 23.2388C54.2565 22.8292 55.1708 23.7435 54.7612 24.6268C54.2096 25.8161 55.2217 27.1351 56.5132 26.9102C57.4724 26.7431 58.1189 27.8629 57.4947 28.6101C56.6541 29.6161 57.2904 31.1521 58.5961 31.2691C59.5658 31.356 59.9005 32.6049 59.1041 33.1651C58.0318 33.9193 58.2488 35.5676 59.4798 36.0186C60.394 36.3535 60.394 37.6465 59.4798 37.9814C58.2488 38.4324 58.0318 40.0807 59.1041 40.8349C59.9005 41.3951 59.5658 42.644 58.5961 42.7309C57.2904 42.8479 56.6541 44.3839 57.4947 45.3899C58.1189 46.1371 57.4724 47.2569 56.5132 47.0898C55.2217 46.8649 54.2096 48.1839 54.7612 49.3732C55.1708 50.2565 54.2565 51.1708 53.3732 50.7612C52.1839 50.2096 50.8649 51.2217 51.0898 52.5132C51.2569 53.4724 50.1371 54.1189 49.3899 53.4947C48.3839 52.6541 46.8479 53.2904 46.7309 54.5961C46.644 55.5658 45.3951 55.9005 44.8349 55.1041C44.0807 54.0318 42.4324 54.2488 41.9814 55.4798C41.6465 56.394 40.3535 56.394 40.0186 55.4798C39.5676 54.2488 37.9193 54.0318 37.1651 55.1041C36.6049 55.9005 35.356 55.5658 35.2691 54.5961C35.1521 53.2904 33.6161 52.6541 32.6101 53.4947C31.8629 54.1189 30.7431 53.4724 30.9102 52.5132C31.1351 51.2217 29.8161 50.2096 28.6268 50.7612C27.7435 51.1708 26.8292 50.2565 27.2388 49.3732C27.7904 48.1839 26.7783 46.8649 25.4868 47.0898C24.5276 47.2569 23.8811 46.1371 24.5053 45.3899C25.3459 44.3839 24.7096 42.8479 23.4039 42.7309C22.4342 42.644 22.0995 41.3951 22.8959 40.8349C23.9682 40.0807 23.7512 38.4324 22.5202 37.9814C21.606 37.6465 21.606 36.3535 22.5202 36.0186C23.7512 35.5676 23.9682 33.9193 22.8959 33.1651C22.0995 32.6049 22.4342 31.356 23.4039 31.2691C24.7096 31.1521 25.3459 29.6161 24.5053 28.6101C23.8811 27.8629 24.5276 26.7431 25.4868 26.9102C26.7783 27.1351 27.7904 25.8161 27.2388 24.6268C26.8292 23.7435 27.7435 22.8292 28.6268 23.2388C29.8161 23.7904 31.1351 22.7783 30.9102 21.4868C30.7431 20.5276 31.8629 19.8811 32.6101 20.5053C33.6161 21.3459 35.1521 20.7096 35.2691 19.4039C35.356 18.4342 36.6049 18.0995 37.1651 18.8959C37.9193 19.9682 39.5676 19.7512 40.0186 18.5202Z" fill="url(#paint3_linear_3157_5720)"/>
<path d="M40.0186 18.5202C40.3535 17.606 41.6465 17.606 41.9814 18.5202C42.4324 19.7512 44.0807 19.9682 44.8349 18.8959C45.3951 18.0995 46.644 18.4342 46.7309 19.4039C46.8479 20.7096 48.3839 21.3459 49.3899 20.5053C50.1371 19.8811 51.2569 20.5276 51.0898 21.4868C50.8649 22.7783 52.1839 23.7904 53.3732 23.2388C54.2565 22.8292 55.1708 23.7435 54.7612 24.6268C54.2096 25.8161 55.2217 27.1351 56.5132 26.9102C57.4724 26.7431 58.1189 27.8629 57.4947 28.6101C56.6541 29.6161 57.2904 31.1521 58.5961 31.2691C59.5658 31.356 59.9005 32.6049 59.1041 33.1651C58.0318 33.9193 58.2488 35.5676 59.4798 36.0186C60.394 36.3535 60.394 37.6465 59.4798 37.9814C58.2488 38.4324 58.0318 40.0807 59.1041 40.8349C59.9005 41.3951 59.5658 42.644 58.5961 42.7309C57.2904 42.8479 56.6541 44.3839 57.4947 45.3899C58.1189 46.1371 57.4724 47.2569 56.5132 47.0898C55.2217 46.8649 54.2096 48.1839 54.7612 49.3732C55.1708 50.2565 54.2565 51.1708 53.3732 50.7612C52.1839 50.2096 50.8649 51.2217 51.0898 52.5132C51.2569 53.4724 50.1371 54.1189 49.3899 53.4947C48.3839 52.6541 46.8479 53.2904 46.7309 54.5961C46.644 55.5658 45.3951 55.9005 44.8349 55.1041C44.0807 54.0318 42.4324 54.2488 41.9814 55.4798C41.6465 56.394 40.3535 56.394 40.0186 55.4798C39.5676 54.2488 37.9193 54.0318 37.1651 55.1041C36.6049 55.9005 35.356 55.5658 35.2691 54.5961C35.1521 53.2904 33.6161 52.6541 32.6101 53.4947C31.8629 54.1189 30.7431 53.4724 30.9102 52.5132C31.1351 51.2217 29.8161 50.2096 28.6268 50.7612C27.7435 51.1708 26.8292 50.2565 27.2388 49.3732C27.7904 48.1839 26.7783 46.8649 25.4868 47.0898C24.5276 47.2569 23.8811 46.1371 24.5053 45.3899C25.3459 44.3839 24.7096 42.8479 23.4039 42.7309C22.4342 42.644 22.0995 41.3951 22.8959 40.8349C23.9682 40.0807 23.7512 38.4324 22.5202 37.9814C21.606 37.6465 21.606 36.3535 22.5202 36.0186C23.7512 35.5676 23.9682 33.9193 22.8959 33.1651C22.0995 32.6049 22.4342 31.356 23.4039 31.2691C24.7096 31.1521 25.3459 29.6161 24.5053 28.6101C23.8811 27.8629 24.5276 26.7431 25.4868 26.9102C26.7783 27.1351 27.7904 25.8161 27.2388 24.6268C26.8292 23.7435 27.7435 22.8292 28.6268 23.2388C29.8161 23.7904 31.1351 22.7783 30.9102 21.4868C30.7431 20.5276 31.8629 19.8811 32.6101 20.5053C33.6161 21.3459 35.1521 20.7096 35.2691 19.4039C35.356 18.4342 36.6049 18.0995 37.1651 18.8959C37.9193 19.9682 39.5676 19.7512 40.0186 18.5202Z" stroke="url(#paint4_linear_3157_5720)" stroke-width="0.578947" style="mix-blend-mode:soft-light"/>
<circle cx="41.0002" cy="37.0002" r="13.8947" fill="url(#paint5_linear_3157_5720)"/>
<mask id="path-8-inside-1_3157_5720" fill="white">
<path fill-rule="evenodd" clip-rule="evenodd" d="M41 48C47.0751 48 52 43.0751 52 37C52 30.9249 47.0751 26 41 26C34.9249 26 30 30.9249 30 37C30 38.3731 30.2516 39.6875 30.7112 40.8995C35.5436 33.9664 40.2682 29.918 40.7826 30.1337C41.0485 30.245 40.1722 31.5431 38.6643 33.7771C37.0617 36.1513 34.7457 39.5824 32.3288 43.7692C32.5954 44.1101 32.8815 44.4349 33.1857 44.7419C38.5324 36.3197 44.3184 31.2772 44.8926 31.5192C45.1585 31.6312 44.2813 32.9306 42.7724 35.1659C40.9892 37.8075 38.3237 41.7561 35.6197 46.5967C35.9737 46.7955 36.3398 46.9754 36.7166 47.1348C41.9946 38.9397 47.6184 34.0521 48.1806 34.2901C48.4455 34.4028 47.5704 35.6983 46.0647 37.9276C44.4611 40.3019 42.1421 43.7353 39.723 47.9267C40.1419 47.9751 40.5681 48 41 48Z"/>
</mask>
<path fill-rule="evenodd" clip-rule="evenodd" d="M41 48C47.0751 48 52 43.0751 52 37C52 30.9249 47.0751 26 41 26C34.9249 26 30 30.9249 30 37C30 38.3731 30.2516 39.6875 30.7112 40.8995C35.5436 33.9664 40.2682 29.918 40.7826 30.1337C41.0485 30.245 40.1722 31.5431 38.6643 33.7771C37.0617 36.1513 34.7457 39.5824 32.3288 43.7692C32.5954 44.1101 32.8815 44.4349 33.1857 44.7419C38.5324 36.3197 44.3184 31.2772 44.8926 31.5192C45.1585 31.6312 44.2813 32.9306 42.7724 35.1659C40.9892 37.8075 38.3237 41.7561 35.6197 46.5967C35.9737 46.7955 36.3398 46.9754 36.7166 47.1348C41.9946 38.9397 47.6184 34.0521 48.1806 34.2901C48.4455 34.4028 47.5704 35.6983 46.0647 37.9276C44.4611 40.3019 42.1421 43.7353 39.723 47.9267C40.1419 47.9751 40.5681 48 41 48Z" fill="url(#paint6_linear_3157_5720)"/>
<path d="M30.7112 40.8995L30.1699 41.1047L30.5588 42.1305L31.1861 41.2305L30.7112 40.8995ZM40.7826 30.1337L40.5587 30.6676L40.559 30.6677L40.7826 30.1337ZM38.6643 33.7771L38.1844 33.4532L38.6643 33.7771ZM32.3288 43.7692L31.8274 43.4797L31.6322 43.818L31.8727 44.1258L32.3288 43.7692ZM33.1857 44.7419L32.7744 45.1493L33.2854 45.6651L33.6745 45.0522L33.1857 44.7419ZM44.8926 31.5192L44.6678 32.0527L44.8926 31.5192ZM42.7724 35.1659L42.2926 34.842L42.7724 35.1659ZM35.6197 46.5967L35.1143 46.3143L34.8327 46.8185L35.3361 47.1014L35.6197 46.5967ZM36.7166 47.1348L36.491 47.668L36.9396 47.8579L37.2033 47.4483L36.7166 47.1348ZM48.1806 34.2901L48.4073 33.7573L48.4063 33.757L48.1806 34.2901ZM46.0647 37.9276L45.5849 37.6036L46.0647 37.9276ZM39.723 47.9267L39.2216 47.6373L38.781 48.4006L39.6565 48.5018L39.723 47.9267ZM51.4211 37C51.4211 42.7554 46.7554 47.4211 41 47.4211V48.5789C47.3949 48.5789 52.5789 43.3949 52.5789 37H51.4211ZM41 26.5789C46.7554 26.5789 51.4211 31.2446 51.4211 37H52.5789C52.5789 30.6051 47.3949 25.4211 41 25.4211V26.5789ZM30.5789 37C30.5789 31.2446 35.2446 26.5789 41 26.5789V25.4211C34.6051 25.4211 29.4211 30.6051 29.4211 37H30.5789ZM31.2525 40.6942C30.8174 39.5467 30.5789 38.3019 30.5789 37H29.4211C29.4211 38.4443 29.6858 39.8282 30.1699 41.1047L31.2525 40.6942ZM31.1861 41.2305C33.5829 37.7919 35.9503 35.0726 37.7758 33.2449C38.6896 32.33 39.4606 31.6455 40.026 31.2076C40.3108 30.987 40.5296 30.8399 40.6799 30.757C40.7567 30.7146 40.7966 30.6997 40.8064 30.6967C40.8454 30.6849 40.7239 30.7368 40.5587 30.6676L41.0065 29.5998C40.7771 29.5036 40.5584 29.5619 40.4692 29.589C40.3509 29.625 40.2319 29.6818 40.1208 29.743C39.8954 29.8673 39.623 30.0552 39.317 30.2922C38.7008 30.7694 37.8922 31.4899 36.9565 32.4267C35.083 34.3025 32.6719 37.074 30.2362 40.5684L31.1861 41.2305ZM40.559 30.6677C40.4443 30.6197 40.3512 30.5304 40.298 30.4204C40.2518 30.3249 40.2502 30.2444 40.2511 30.2138C40.2526 30.1607 40.2652 30.1528 40.2377 30.2223C40.1886 30.3461 40.079 30.5532 39.8935 30.8594C39.5284 31.4619 38.9423 32.3304 38.1844 33.4532L39.1441 34.101C39.8942 32.9899 40.5002 32.0924 40.8837 31.4595C41.0725 31.148 41.2264 30.87 41.314 30.6492C41.3548 30.5465 41.404 30.4015 41.4085 30.2473C41.4108 30.1662 41.4022 30.0442 41.3404 29.9164C41.2716 29.7741 41.1542 29.6616 41.0062 29.5997L40.559 30.6677ZM38.1844 33.4532C36.5814 35.828 34.2554 39.2738 31.8274 43.4797L32.8302 44.0586C35.236 39.891 37.542 36.4746 39.1441 34.101L38.1844 33.4532ZM33.597 44.3344C33.3087 44.0435 33.0375 43.7357 32.785 43.4126L31.8727 44.1258C32.1532 44.4845 32.4544 44.8263 32.7744 45.1493L33.597 44.3344ZM33.6745 45.0522C36.3261 40.8752 39.0853 37.539 41.2469 35.2819C42.3286 34.1525 43.2544 33.2998 43.9366 32.7493C44.2798 32.4724 44.5486 32.2823 44.737 32.1718C44.833 32.1154 44.8894 32.091 44.9124 32.0831C44.9731 32.0624 44.8452 32.1274 44.6678 32.0527L45.1174 30.9856C44.8682 30.8806 44.6279 30.9567 44.5381 30.9874C44.4107 31.0309 44.2787 31.0982 44.1511 31.173C43.8922 31.3249 43.573 31.5548 43.2095 31.8482C42.4782 32.4383 41.5156 33.3273 40.4107 34.481C38.1992 36.7902 35.3919 40.1864 32.6969 44.4316L33.6745 45.0522ZM44.6678 32.0527C44.5532 32.0044 44.4605 31.915 44.4076 31.8053C44.3617 31.71 44.3602 31.6298 44.3611 31.5993C44.3626 31.5465 44.3751 31.5389 44.3475 31.6084C44.2984 31.7324 44.1887 31.9398 44.0029 32.2463C43.6375 32.8493 43.051 33.7185 42.2926 34.842L43.2523 35.4898C44.0028 34.378 44.6093 33.4798 44.9932 32.8464C45.1821 32.5346 45.3362 32.2564 45.4239 32.0354C45.4647 31.9324 45.5139 31.7874 45.5184 31.6333C45.5208 31.5523 45.5123 31.4305 45.4508 31.3028C45.3823 31.1606 45.2653 31.0479 45.1174 30.9856L44.6678 32.0527ZM42.2926 34.842C40.5088 37.4844 37.8312 41.4506 35.1143 46.3143L36.1252 46.879C38.8162 42.0616 41.4696 38.1306 43.2523 35.4898L42.2926 34.842ZM36.9422 46.6017C36.5854 46.4507 36.2386 46.2803 35.9033 46.0919L35.3361 47.1014C35.7088 47.3108 36.0942 47.5001 36.491 47.668L36.9422 46.6017ZM37.2033 47.4483C39.821 43.3839 42.5227 40.1426 44.6339 37.9518C45.6904 36.8554 46.5926 36.0288 47.2568 35.4957C47.5909 35.2276 47.852 35.0441 48.0344 34.9379C48.1274 34.8837 48.1812 34.8608 48.2021 34.8537C48.2598 34.8343 48.1317 34.8981 47.9549 34.8232L48.4063 33.757C48.1593 33.6524 47.9214 33.7265 47.8323 33.7565C47.7065 33.7989 47.5766 33.8645 47.4518 33.9372C47.1984 34.0848 46.8866 34.3081 46.532 34.5927C45.8186 35.1653 44.8796 36.0281 43.8001 37.1483C41.6394 39.3906 38.8902 42.6906 36.2299 46.8214L37.2033 47.4483ZM47.954 34.8228C47.8395 34.7741 47.7473 34.6845 47.6949 34.5751C47.6494 34.4802 47.6479 34.4003 47.6488 34.3699C47.6504 34.3172 47.6629 34.3096 47.6354 34.3789C47.5863 34.5025 47.4769 34.7093 47.2916 35.015C46.9269 35.6164 46.3417 36.4831 45.5849 37.6036L46.5445 38.2517C47.2934 37.1428 47.8986 36.2471 48.2817 35.6153C48.4702 35.3043 48.624 35.0267 48.7116 34.8061C48.7524 34.7033 48.8016 34.5586 48.8062 34.4047C48.8086 34.3238 48.8002 34.2023 48.7392 34.0749C48.6713 33.9331 48.5549 33.8201 48.4073 33.7573L47.954 34.8228ZM45.5849 37.6036C43.9809 39.9784 41.6518 43.4266 39.2216 47.6373L40.2244 48.2161C42.6324 44.0439 44.9413 40.6253 46.5445 38.2517L45.5849 37.6036ZM41 47.4211C40.5903 47.4211 40.1864 47.3974 39.7895 47.3516L39.6565 48.5018C40.0975 48.5528 40.5458 48.5789 41 48.5789V47.4211Z" fill="url(#paint7_linear_3157_5720)" style="mix-blend-mode:soft-light" mask="url(#path-8-inside-1_3157_5720)"/>
</g>
<path d="M86.4485 52H83.8385V31H91.3385C95.5985 31 98.4485 33.52 98.4485 37.45C98.4485 40.39 96.6185 42.67 93.8585 43.42L98.6585 52H95.7185L91.1885 43.93H86.4485V52ZM86.4485 33.4V41.53H91.1285C93.9485 41.53 95.7785 39.91 95.7785 37.45C95.7785 34.99 93.9485 33.4 91.1585 33.4H86.4485ZM113.147 44.65V36.7H115.607V52H113.477L113.147 49.96C112.247 51.1 110.777 52.18 108.347 52.18C105.107 52.18 102.437 50.38 102.437 45.52V36.7H104.897V45.37C104.897 48.34 106.337 49.93 108.767 49.93C111.467 49.93 113.147 47.92 113.147 44.65ZM126.042 52.18C122.082 52.18 119.352 50.32 119.292 46.96H121.812C121.902 48.76 123.492 50.08 126.042 50.08C128.202 50.08 129.732 49.15 129.732 47.74C129.732 45.82 128.052 45.67 125.772 45.4C122.352 44.98 119.622 44.29 119.622 41.11C119.622 38.32 122.172 36.52 125.622 36.52C129.102 36.52 131.622 38.17 131.862 41.35H129.342C129.162 39.79 127.722 38.62 125.622 38.62C123.492 38.62 122.052 39.52 122.052 40.93C122.052 42.61 123.672 42.82 125.892 43.09C129.372 43.51 132.162 44.17 132.162 47.56C132.162 50.41 129.432 52.18 126.042 52.18ZM146.219 52H142.139C139.199 52 138.149 50.71 138.149 48.01V38.95H134.099V36.7H138.149V32.41H140.609V36.7H145.979V38.95H140.609V47.98C140.609 49.27 141.059 49.75 142.379 49.75H146.219V52Z" fill="#BE621C"/>
<path d="M867.766 46.56H866.166V42.66H862.486V41.2H866.166V37.3H867.766V41.2H871.466V42.66H867.766V46.56ZM883.087 48H873.707V46.58L878.987 41.86C880.267 40.72 881.267 39.64 881.267 38.14C881.267 36.38 880.107 35.38 878.347 35.38C876.627 35.38 875.467 36.58 875.467 38.5V38.76H873.787V38.4C873.787 35.76 875.587 33.88 878.347 33.88C881.267 33.88 882.987 35.54 882.987 38.06C882.987 40.14 881.687 41.48 880.067 42.9L876.027 46.46H883.087V48ZM890.258 38.62C892.918 38.62 894.758 40.54 894.758 43.32C894.758 46.42 892.538 48.1 889.998 48.1C886.958 48.1 885.218 46.08 885.078 43.64H886.738C886.898 45.26 888.058 46.6 889.998 46.6C891.558 46.6 893.058 45.5 893.058 43.34C893.058 41.44 891.878 40.1 890.018 40.1C889.198 40.1 887.538 40.34 886.958 42L885.338 41.96L885.798 34H893.958V35.54H887.338L887.018 39.96C887.838 38.94 889.018 38.62 890.258 38.62ZM899.636 40.66C897.956 40.66 896.836 39.42 896.836 37.26C896.836 35.1 897.936 33.88 899.636 33.88C901.316 33.88 902.436 35.1 902.436 37.26C902.436 39.42 901.336 40.66 899.636 40.66ZM900.096 48H898.676L906.036 34H907.476L900.096 48ZM899.636 39.38C900.496 39.38 901.036 38.68 901.036 37.26C901.036 35.84 900.496 35.16 899.636 35.16C898.776 35.16 898.256 35.84 898.256 37.26C898.256 38.68 898.776 39.38 899.636 39.38ZM906.516 48.12C904.836 48.12 903.716 46.9 903.716 44.74C903.716 42.56 904.816 41.34 906.516 41.34C908.196 41.34 909.296 42.56 909.296 44.74C909.296 46.9 908.216 48.12 906.516 48.12ZM906.516 46.84C907.376 46.84 907.896 46.14 907.896 44.74C907.896 43.3 907.376 42.62 906.516 42.62C905.656 42.62 905.116 43.3 905.116 44.74C905.116 46.14 905.656 46.84 906.516 46.84ZM923.782 48.12C920.502 48.12 918.402 46.26 918.302 43.42H920.102C920.242 45.32 921.722 46.54 923.802 46.54C925.682 46.54 926.942 45.64 926.942 44.16C926.942 42.7 925.822 42.14 923.182 41.7C920.282 41.22 918.642 40.14 918.642 37.86C918.642 35.48 920.562 33.88 923.382 33.88C926.362 33.88 928.342 35.56 928.502 38.14H926.702C926.522 36.5 925.202 35.46 923.382 35.46C921.522 35.46 920.382 36.3 920.382 37.76C920.382 39.2 921.482 39.7 924.162 40.14C927.022 40.6 928.682 41.76 928.682 44C928.682 46.42 926.662 48.12 923.782 48.12ZM933.139 48H931.399V34H936.519C939.359 34 941.239 35.68 941.239 38.3C941.239 40.92 939.359 42.62 936.519 42.62H933.139V48ZM933.139 35.6V41.02H936.359C938.239 41.02 939.459 39.96 939.459 38.3C939.459 36.64 938.259 35.6 936.379 35.6H933.139ZM955.679 37.68C958.499 37.68 960.579 39.58 960.579 42.9C960.579 46.02 958.499 48.12 955.679 48.12C953.959 48.12 952.799 47.42 952.179 46.44L951.959 48H950.539V34H952.179V39.44C952.859 38.5 953.959 37.68 955.679 37.68ZM955.519 46.66C957.539 46.66 958.899 45.12 958.899 42.9C958.899 40.68 957.539 39.14 955.519 39.14C953.519 39.14 952.159 40.68 952.159 42.86C952.159 45.1 953.519 46.66 955.519 46.66ZM967.755 48.12C964.775 48.12 962.695 46 962.695 42.9C962.695 39.8 964.775 37.68 967.755 37.68C970.735 37.68 972.815 39.8 972.815 42.9C972.815 46 970.735 48.12 967.755 48.12ZM967.755 46.66C969.775 46.66 971.135 45.08 971.135 42.9C971.135 40.72 969.775 39.14 967.755 39.14C965.735 39.14 964.375 40.72 964.375 42.9C964.375 45.08 965.735 46.66 967.755 46.66ZM980.001 48.12C977.021 48.12 974.941 46 974.941 42.9C974.941 39.8 977.021 37.68 980.001 37.68C982.981 37.68 985.061 39.8 985.061 42.9C985.061 46 982.981 48.12 980.001 48.12ZM980.001 46.66C982.021 46.66 983.381 45.08 983.381 42.9C983.381 40.72 982.021 39.14 980.001 39.14C977.981 39.14 976.621 40.72 976.621 42.9C976.621 45.08 977.981 46.66 980.001 46.66ZM991.488 48.12C988.848 48.12 987.028 46.88 986.988 44.64H988.668C988.728 45.84 989.788 46.72 991.488 46.72C992.928 46.72 993.948 46.1 993.948 45.16C993.948 43.88 992.828 43.78 991.308 43.6C989.028 43.32 987.208 42.86 987.208 40.74C987.208 38.88 988.908 37.68 991.208 37.68C993.528 37.68 995.208 38.78 995.368 40.9H993.688C993.568 39.86 992.608 39.08 991.208 39.08C989.788 39.08 988.828 39.68 988.828 40.62C988.828 41.74 989.908 41.88 991.388 42.06C993.708 42.34 995.568 42.78 995.568 45.04C995.568 46.94 993.748 48.12 991.488 48.12ZM1004.94 48H1002.22C1000.26 48 999.559 47.14 999.559 45.34V39.3H996.859V37.8H999.559V34.94H1001.2V37.8H1004.78V39.3H1001.2V45.32C1001.2 46.18 1001.5 46.5 1002.38 46.5H1004.94V48Z" fill="#BE621C"/>
<defs>
<radialGradient id="paint0_radial_3157_5720" cx="0" cy="0" r="1" gradientUnits="userSpaceOnUse" gradientTransform="translate(514.384 1) rotate(90) scale(80 1108.08)">
<stop stop-color="#461E02"/>
<stop offset="0.865" stop-color="#161B22"/>
</radialGradient>
<linearGradient id="paint1_linear_3157_5720" x1="48.0455" y1="46.3318" x2="60.9574" y2="57.3899" gradientUnits="userSpaceOnUse">
<stop stop-color="#350100"/>
<stop offset="1" stop-color="#BD0000"/>
</linearGradient>
<linearGradient id="paint2_linear_3157_5720" x1="36.4662" y1="46.3318" x2="23.5543" y2="57.3899" gradientUnits="userSpaceOnUse">
<stop stop-color="#350100"/>
<stop offset="1" stop-color="#BD0000"/>
</linearGradient>
<linearGradient id="paint3_linear_3157_5720" x1="41" y1="15" x2="41" y2="59" gradientUnits="userSpaceOnUse">
<stop stop-color="#D57E40"/>
<stop offset="1" stop-color="#7A2500"/>
</linearGradient>
<linearGradient id="paint4_linear_3157_5720" x1="41" y1="15" x2="41" y2="59" gradientUnits="userSpaceOnUse">
<stop stop-color="white" stop-opacity="0.52"/>
<stop offset="1" stop-color="white" stop-opacity="0"/>
</linearGradient>
<linearGradient id="paint5_linear_3157_5720" x1="41.0002" y1="23.1055" x2="41.0002" y2="50.8949" gradientUnits="userSpaceOnUse">
<stop stop-color="#934207"/>
<stop offset="1" stop-color="#351600"/>
</linearGradient>
<linearGradient id="paint6_linear_3157_5720" x1="41" y1="26" x2="41" y2="48" gradientUnits="userSpaceOnUse">
<stop stop-color="#D59040"/>
<stop offset="1" stop-color="#7A3F00"/>
</linearGradient>
<linearGradient id="paint7_linear_3157_5720" x1="41" y1="26" x2="41" y2="48" gradientUnits="userSpaceOnUse">
<stop stop-color="white" stop-opacity="0.52"/>
<stop offset="1" stop-color="white" stop-opacity="0"/>
</linearGradient>
<clipPath id="clip0_3157_5720">
<rect width="48" height="48" fill="white" transform="translate(17 17)"/>
</clipPath>
</defs>
</svg>
