<svg width="1025" height="82" viewBox="0 0 1025 82" fill="none" xmlns="http://www.w3.org/2000/svg">
<rect x="1" y="1" width="1023" height="80" rx="8" fill="url(#paint0_radial_3106_5062)"/>
<rect x="1" y="1" width="1023" height="80" rx="8" stroke="#30363D"/>
<g clip-path="url(#clip0_3106_5062)">
<path d="M31 48H51V65L41 61.0769L31 65V48Z" fill="url(#paint1_linear_3106_5062)"/>
<path d="M36.8437 20.0351C39.0674 17.5724 42.9326 17.5724 45.1563 20.0351C46.4015 21.4142 48.2013 22.1597 50.0571 22.0651C53.3708 21.896 56.104 24.6292 55.9349 27.9429C55.8403 29.7987 56.5858 31.5985 57.9649 32.8437C60.4276 35.0674 60.4276 38.9326 57.9649 41.1563C56.5858 42.4015 55.8403 44.2013 55.9349 46.0571C56.104 49.3708 53.3708 52.104 50.0571 51.9349C48.2013 51.8403 46.4015 52.5858 45.1563 53.9649C42.9326 56.4276 39.0674 56.4276 36.8437 53.9649C35.5985 52.5858 33.7987 51.8403 31.9429 51.9349C28.6292 52.104 25.896 49.3708 26.0651 46.0571C26.1597 44.2013 25.4142 42.4015 24.0351 41.1563C21.5724 38.9326 21.5724 35.0674 24.0351 32.8437C25.4142 31.5985 26.1597 29.7987 26.0651 27.9429C25.896 24.6292 28.6292 21.896 31.9429 22.0651C33.7987 22.1597 35.5985 21.4142 36.8437 20.0351Z" fill="url(#paint2_linear_3106_5062)"/>
<path d="M36.8437 20.0351C39.0674 17.5724 42.9326 17.5724 45.1563 20.0351C46.4015 21.4142 48.2013 22.1597 50.0571 22.0651C53.3708 21.896 56.104 24.6292 55.9349 27.9429C55.8403 29.7987 56.5858 31.5985 57.9649 32.8437C60.4276 35.0674 60.4276 38.9326 57.9649 41.1563C56.5858 42.4015 55.8403 44.2013 55.9349 46.0571C56.104 49.3708 53.3708 52.104 50.0571 51.9349C48.2013 51.8403 46.4015 52.5858 45.1563 53.9649C42.9326 56.4276 39.0674 56.4276 36.8437 53.9649C35.5985 52.5858 33.7987 51.8403 31.9429 51.9349C28.6292 52.104 25.896 49.3708 26.0651 46.0571C26.1597 44.2013 25.4142 42.4015 24.0351 41.1563C21.5724 38.9326 21.5724 35.0674 24.0351 32.8437C25.4142 31.5985 26.1597 29.7987 26.0651 27.9429C25.896 24.6292 28.6292 21.896 31.9429 22.0651C33.7987 22.1597 35.5985 21.4142 36.8437 20.0351Z" stroke="url(#paint3_linear_3106_5062)" stroke-width="0.578947" style="mix-blend-mode:soft-light"/>
<path fill-rule="evenodd" clip-rule="evenodd" d="M41.0002 50.8949C48.6741 50.8949 54.8949 44.6741 54.8949 37.0002C54.8949 29.3264 48.6741 23.1055 41.0002 23.1055C33.3264 23.1055 27.1055 29.3264 27.1055 37.0002C27.1055 39.5775 27.8072 41.9909 29.03 44.0598C34.6405 34.6208 41.173 28.8783 41.7831 29.1342C42.0489 29.2455 41.1727 30.5436 39.6648 32.7776C37.5769 35.8707 34.278 40.7578 31.123 46.7728C31.3867 47.0393 31.661 47.2952 31.9455 47.5397C37.7796 36.8632 45.2371 30.2432 45.8931 30.5197C46.159 30.6317 45.2818 31.9311 43.7729 34.1664C41.5486 37.4614 37.9516 42.7899 34.6195 49.3465C34.9168 49.5005 35.2205 49.644 35.5299 49.7767C41.3166 39.4133 48.5399 33.0192 49.1811 33.2906C49.446 33.4032 48.5709 34.6988 47.0652 36.9281C45.0037 39.9802 41.7601 44.7826 38.6413 50.6955C39.408 50.8266 40.1961 50.8949 41.0002 50.8949Z" fill="url(#paint4_linear_3106_5062)"/>
</g>
<path d="M90.6672 52H83.5572V31H90.4572C94.9872 31 97.3572 33.16 97.3572 36.55C97.3572 38.92 96.0072 40.42 93.9672 41.11C96.2472 41.53 98.2572 42.97 98.2572 46C98.2572 49.72 95.7372 52 90.6672 52ZM86.1672 33.37V40.12H90.5772C93.3372 40.12 94.7472 38.86 94.7472 36.73C94.7472 34.63 93.3672 33.37 90.5772 33.37H86.1672ZM86.1672 42.46V49.63H90.6672C93.9972 49.63 95.5872 48.28 95.5872 46.12C95.5872 43.75 93.8472 42.46 90.6672 42.46H86.1672ZM112.234 36.7H113.884V39.1H111.904C108.334 39.1 107.284 41.83 107.284 44.26V49.75H111.754V52H101.404V49.75H104.824V38.95H101.404V36.7H107.164L107.254 39.28C107.944 38.08 109.324 36.7 112.234 36.7ZM123.824 52.18C119.354 52.18 116.234 49 116.234 44.35C116.234 39.7 119.354 36.52 123.824 36.52C128.294 36.52 131.414 39.7 131.414 44.35C131.414 49 128.294 52.18 123.824 52.18ZM123.824 49.99C126.854 49.99 128.894 47.62 128.894 44.35C128.894 41.08 126.854 38.71 123.824 38.71C120.794 38.71 118.754 41.08 118.754 44.35C118.754 47.62 120.794 49.99 123.824 49.99ZM142.673 36.52C145.973 36.52 148.673 38.32 148.673 43.18V52H146.213V43.33C146.213 40.36 144.773 38.77 142.253 38.77C139.553 38.77 137.813 40.78 137.813 44.05V52H135.353V36.7H137.483L137.813 38.77C138.713 37.6 140.243 36.52 142.673 36.52ZM165.671 52H152.261V50.02L162.071 38.95H152.591V36.7H165.341V38.68L155.501 49.75H165.671V52ZM182.197 44.89H170.317V45.04C170.407 47.95 172.237 49.99 175.147 49.99C177.307 49.99 178.987 48.85 179.497 46.87H181.987C181.387 49.93 178.867 52.18 175.327 52.18C170.737 52.18 167.737 49.03 167.737 44.35C167.737 39.7 170.677 36.52 174.997 36.52C179.317 36.52 182.137 39.25 182.257 43.78C182.257 44.02 182.227 44.53 182.197 44.89ZM175.027 38.68C172.777 38.68 170.707 40.3 170.467 42.79H179.617C179.377 40.15 177.577 38.68 175.027 38.68Z" fill="#EA860D"/>
<path d="M880.881 46.56H879.281V42.66H875.601V41.2H879.281V37.3H880.881V41.2H884.581V42.66H880.881V46.56ZM892.142 38.62C894.802 38.62 896.642 40.54 896.642 43.32C896.642 46.42 894.422 48.1 891.882 48.1C888.842 48.1 887.102 46.08 886.962 43.64H888.622C888.782 45.26 889.942 46.6 891.882 46.6C893.442 46.6 894.942 45.5 894.942 43.34C894.942 41.44 893.762 40.1 891.902 40.1C891.082 40.1 889.422 40.34 888.842 42L887.222 41.96L887.682 34H895.842V35.54H889.222L888.902 39.96C889.722 38.94 890.902 38.62 892.142 38.62ZM901.521 40.66C899.841 40.66 898.721 39.42 898.721 37.26C898.721 35.1 899.821 33.88 901.521 33.88C903.201 33.88 904.321 35.1 904.321 37.26C904.321 39.42 903.221 40.66 901.521 40.66ZM901.981 48H900.561L907.921 34H909.361L901.981 48ZM901.521 39.38C902.381 39.38 902.921 38.68 902.921 37.26C902.921 35.84 902.381 35.16 901.521 35.16C900.661 35.16 900.141 35.84 900.141 37.26C900.141 38.68 900.661 39.38 901.521 39.38ZM908.401 48.12C906.721 48.12 905.601 46.9 905.601 44.74C905.601 42.56 906.701 41.34 908.401 41.34C910.081 41.34 911.181 42.56 911.181 44.74C911.181 46.9 910.101 48.12 908.401 48.12ZM908.401 46.84C909.261 46.84 909.781 46.14 909.781 44.74C909.781 43.3 909.261 42.62 908.401 42.62C907.541 42.62 907.001 43.3 907.001 44.74C907.001 46.14 907.541 46.84 908.401 46.84ZM925.666 48.12C922.386 48.12 920.286 46.26 920.186 43.42H921.986C922.126 45.32 923.606 46.54 925.686 46.54C927.566 46.54 928.826 45.64 928.826 44.16C928.826 42.7 927.706 42.14 925.066 41.7C922.166 41.22 920.526 40.14 920.526 37.86C920.526 35.48 922.446 33.88 925.266 33.88C928.246 33.88 930.226 35.56 930.386 38.14H928.586C928.406 36.5 927.086 35.46 925.266 35.46C923.406 35.46 922.266 36.3 922.266 37.76C922.266 39.2 923.366 39.7 926.046 40.14C928.906 40.6 930.566 41.76 930.566 44C930.566 46.42 928.546 48.12 925.666 48.12ZM935.024 48H933.284V34H938.404C941.244 34 943.124 35.68 943.124 38.3C943.124 40.92 941.244 42.62 938.404 42.62H935.024V48ZM935.024 35.6V41.02H938.244C940.124 41.02 941.344 39.96 941.344 38.3C941.344 36.64 940.144 35.6 938.264 35.6H935.024ZM957.563 37.68C960.383 37.68 962.463 39.58 962.463 42.9C962.463 46.02 960.383 48.12 957.563 48.12C955.843 48.12 954.683 47.42 954.063 46.44L953.843 48H952.423V34H954.063V39.44C954.743 38.5 955.843 37.68 957.563 37.68ZM957.403 46.66C959.423 46.66 960.783 45.12 960.783 42.9C960.783 40.68 959.423 39.14 957.403 39.14C955.403 39.14 954.043 40.68 954.043 42.86C954.043 45.1 955.403 46.66 957.403 46.66ZM969.64 48.12C966.66 48.12 964.58 46 964.58 42.9C964.58 39.8 966.66 37.68 969.64 37.68C972.62 37.68 974.7 39.8 974.7 42.9C974.7 46 972.62 48.12 969.64 48.12ZM969.64 46.66C971.66 46.66 973.02 45.08 973.02 42.9C973.02 40.72 971.66 39.14 969.64 39.14C967.62 39.14 966.26 40.72 966.26 42.9C966.26 45.08 967.62 46.66 969.64 46.66ZM981.886 48.12C978.906 48.12 976.826 46 976.826 42.9C976.826 39.8 978.906 37.68 981.886 37.68C984.866 37.68 986.946 39.8 986.946 42.9C986.946 46 984.866 48.12 981.886 48.12ZM981.886 46.66C983.906 46.66 985.266 45.08 985.266 42.9C985.266 40.72 983.906 39.14 981.886 39.14C979.866 39.14 978.506 40.72 978.506 42.9C978.506 45.08 979.866 46.66 981.886 46.66ZM993.373 48.12C990.733 48.12 988.913 46.88 988.873 44.64H990.553C990.613 45.84 991.673 46.72 993.373 46.72C994.813 46.72 995.833 46.1 995.833 45.16C995.833 43.88 994.713 43.78 993.193 43.6C990.913 43.32 989.093 42.86 989.093 40.74C989.093 38.88 990.793 37.68 993.093 37.68C995.413 37.68 997.093 38.78 997.253 40.9H995.573C995.453 39.86 994.493 39.08 993.093 39.08C991.673 39.08 990.713 39.68 990.713 40.62C990.713 41.74 991.793 41.88 993.273 42.06C995.593 42.34 997.453 42.78 997.453 45.04C997.453 46.94 995.633 48.12 993.373 48.12ZM1006.82 48H1004.1C1002.14 48 1001.44 47.14 1001.44 45.34V39.3H998.744V37.8H1001.44V34.94H1003.08V37.8H1006.66V39.3H1003.08V45.32C1003.08 46.18 1003.38 46.5 1004.26 46.5H1006.82V48Z" fill="#EA860D"/>
<defs>
<radialGradient id="paint0_radial_3106_5062" cx="0" cy="0" r="1" gradientUnits="userSpaceOnUse" gradientTransform="translate(512.5 -48.5) rotate(90) scale(129.5 1655.98)">
<stop stop-color="#A5651E" stop-opacity="0.75"/>
<stop offset="1" stop-color="#161B22"/>
</radialGradient>
<linearGradient id="paint1_linear_3106_5062" x1="41" y1="48" x2="41" y2="65" gradientUnits="userSpaceOnUse">
<stop stop-color="#1E0A01"/>
<stop offset="1" stop-color="#842A04"/>
</linearGradient>
<linearGradient id="paint2_linear_3106_5062" x1="41" y1="15" x2="41" y2="59" gradientUnits="userSpaceOnUse">
<stop stop-color="#D59040"/>
<stop offset="1" stop-color="#7A3F00"/>
</linearGradient>
<linearGradient id="paint3_linear_3106_5062" x1="41" y1="15" x2="41" y2="59" gradientUnits="userSpaceOnUse">
<stop stop-color="white" stop-opacity="0.52"/>
<stop offset="1" stop-color="white" stop-opacity="0"/>
</linearGradient>
<linearGradient id="paint4_linear_3106_5062" x1="41.0002" y1="23.1055" x2="41.0002" y2="50.8949" gradientUnits="userSpaceOnUse">
<stop stop-color="#F6BB78"/>
<stop offset="1" stop-color="#CE771B"/>
</linearGradient>
<clipPath id="clip0_3106_5062">
<rect width="48" height="48" fill="white" transform="translate(17 17)"/>
</clipPath>
</defs>
</svg>
