<svg width="341" height="527" viewBox="0 0 341 527" fill="none" xmlns="http://www.w3.org/2000/svg">
<path d="M170.558 44.5332C160.31 44.5332 153.982 37.2532 153.982 27.9572C153.982 18.6612 160.31 11.4372 170.558 11.4372C180.694 11.4372 187.022 18.6612 187.022 27.9572C187.022 37.3092 180.694 44.5332 170.558 44.5332ZM170.558 41.6772C178.846 41.6772 183.998 36.0772 183.998 27.9572C183.998 19.8372 178.846 14.2372 170.558 14.2372C162.214 14.2372 157.006 19.8932 157.006 27.9572C157.006 36.0212 162.214 41.6772 170.558 41.6772ZM176.102 36.4132H165.63V33.7252H169.494V25.3812C169.326 25.5492 169.046 25.6612 168.654 25.6612H165.574V22.9732H168.318C169.102 22.9732 169.55 22.4132 169.55 21.6852V19.5572H172.35V33.6692H176.102V36.4132Z" fill="white"/>
<path d="M110.139 69.6243C110.139 74.6815 106.271 78.7812 101.499 78.7812C96.7276 78.7812 92.8594 74.6815 92.8594 69.6243C92.8594 65.7223 98.0027 58.4656 100.353 55.3537C100.929 54.5904 102.07 54.5904 102.646 55.3537C104.996 58.4656 110.139 65.7223 110.139 69.6243Z" fill="url(#paint0_linear_3170_6288)"/>
<path d="M110.139 69.6243C110.139 74.6815 106.271 78.7812 101.499 78.7812C96.7276 78.7812 92.8594 74.6815 92.8594 69.6243C92.8594 65.7223 98.0027 58.4656 100.353 55.3537C100.929 54.5904 102.07 54.5904 102.646 55.3537C104.996 58.4656 110.139 65.7223 110.139 69.6243Z" fill="url(#paint1_linear_3170_6288)"/>
<path d="M107.134 73.3948C107.134 76.3697 104.611 78.7812 101.499 78.7812C98.3874 78.7812 95.8646 76.3697 95.8646 73.3948C95.8646 71.2611 98.7634 67.4219 100.403 65.4215C100.971 64.7282 102.028 64.7282 102.596 65.4215C104.235 67.4219 107.134 71.2611 107.134 73.3948Z" fill="url(#paint2_linear_3170_6288)"/>
<path d="M124.207 64.1952C126.673 64.1952 128.329 65.9412 128.329 68.5152C128.329 71.4132 126.223 72.8893 123.685 72.8893C120.841 72.8893 119.095 71.0352 118.987 68.7312H121.561C121.687 69.8652 122.425 70.7652 123.703 70.7652C124.729 70.7652 125.719 70.0092 125.719 68.5152C125.719 67.1832 124.927 66.2472 123.685 66.2472C123.037 66.2472 122.101 66.5172 121.669 67.5612H119.167L119.527 60.1812H127.591V62.3592H121.885L121.741 65.1132C122.335 64.5192 123.145 64.1952 124.207 64.1952ZM136.562 68.6952H130.262V66.6252H136.562V68.6952ZM142.195 72.7812H139.765L137.803 63.5293H140.215L141.349 69.8832L142.753 64.7352H144.409L145.795 69.8832L146.929 63.5293H149.269L147.289 72.7812H144.877L143.545 68.0832L142.195 72.7812ZM155.169 72.8893C152.145 72.8893 150.327 71.0352 150.327 68.1732C150.327 65.2932 152.181 63.4212 155.007 63.4212C157.725 63.4212 159.579 65.1492 159.597 67.8672C159.597 68.1012 159.579 68.4432 159.525 68.7492H152.973V68.8572C153.027 70.1712 153.855 70.9632 155.079 70.9632C156.069 70.9632 156.753 70.5132 156.969 69.6492H159.471C159.201 71.4492 157.617 72.8893 155.169 72.8893ZM153.027 67.0752H157.059C156.879 65.9412 156.123 65.3112 155.025 65.3112C153.963 65.3112 153.171 65.9772 153.027 67.0752ZM165.997 72.8893C162.973 72.8893 161.155 71.0352 161.155 68.1732C161.155 65.2932 163.009 63.4212 165.835 63.4212C168.553 63.4212 170.407 65.1492 170.425 67.8672C170.425 68.1012 170.407 68.4432 170.353 68.7492H163.801V68.8572C163.855 70.1712 164.683 70.9632 165.907 70.9632C166.897 70.9632 167.581 70.5132 167.797 69.6492H170.299C170.029 71.4492 168.445 72.8893 165.997 72.8893ZM163.855 67.0752H167.887C167.707 65.9412 166.951 65.3112 165.853 65.3112C164.791 65.3112 163.999 65.9772 163.855 67.0752ZM175.025 72.7812H172.487V60.1812H175.025V67.4532L178.643 63.5293H181.505L178.157 67.1832L181.649 72.7812H178.697L176.375 69.0372L175.025 70.5132V72.7812ZM192.755 72.8893C190.217 72.8893 188.507 71.6832 188.417 69.7032H190.829C190.901 70.5132 191.567 71.0712 192.773 71.0712C193.781 71.0712 194.393 70.7292 194.393 70.0812C194.393 69.3252 193.763 69.2532 192.359 69.0732C190.235 68.8212 188.597 68.3352 188.597 66.4272C188.597 64.5912 190.163 63.4032 192.503 63.4032C194.933 63.4032 196.607 64.5012 196.715 66.3912H194.303C194.213 65.6532 193.565 65.2032 192.575 65.2032C191.639 65.2032 191.027 65.5632 191.027 66.1572C191.027 66.8592 191.801 66.9492 193.079 67.0932C195.095 67.3092 196.859 67.7952 196.859 69.8832C196.859 71.7192 195.185 72.8893 192.755 72.8893ZM205.803 72.7812H202.851C201.087 72.7812 200.205 71.8992 200.205 70.1353V65.6712H198.027V63.5293H200.205V60.9372H202.743V63.5293H205.767V65.6712H202.743V69.7212C202.743 70.3692 202.995 70.6392 203.661 70.6392H205.803V72.7812ZM215.433 65.8332H213.921C212.337 65.8332 211.725 66.8592 211.725 68.2452V70.6392H214.263V72.7812H207.315V70.6392H209.187V65.6712H207.315V63.5293H211.545L211.617 65.1312C212.121 64.2132 212.895 63.5293 214.371 63.5293H215.433V65.8332ZM221.456 72.8893C218.432 72.8893 216.614 71.0352 216.614 68.1732C216.614 65.2932 218.468 63.4212 221.294 63.4212C224.012 63.4212 225.866 65.1492 225.884 67.8672C225.884 68.1012 225.866 68.4432 225.812 68.7492H219.26V68.8572C219.314 70.1712 220.142 70.9632 221.366 70.9632C222.356 70.9632 223.04 70.5132 223.256 69.6492H225.758C225.488 71.4492 223.904 72.8893 221.456 72.8893ZM219.314 67.0752H223.346C223.166 65.9412 222.41 65.3112 221.312 65.3112C220.25 65.3112 219.458 65.9772 219.314 67.0752ZM236.388 70.6392H236.658V72.7812H235.416C234.21 72.7812 233.76 72.2232 233.742 71.4312C233.076 72.3672 232.104 72.8893 230.79 72.8893C228.846 72.8893 227.406 71.9172 227.406 70.1532C227.406 68.1912 228.864 67.0932 231.6 67.0932H233.346V66.6432C233.346 65.8152 232.788 65.2752 231.726 65.2752C230.808 65.2752 230.16 65.7252 230.07 66.4092H227.604C227.784 64.6452 229.368 63.4212 231.834 63.4212C234.39 63.4212 235.866 64.5732 235.866 66.7872V70.0632C235.866 70.5132 235.992 70.6392 236.388 70.6392ZM233.346 69.0372V68.7852H231.564C230.538 68.7852 229.962 69.2172 229.962 69.9912C229.962 70.6392 230.466 71.0532 231.276 71.0532C232.536 71.0532 233.346 70.2432 233.346 69.0372ZM240.978 72.7812H238.44V60.1812H240.978V67.4532L244.596 63.5293H247.458L244.11 67.1832L247.602 72.7812H244.65L242.328 69.0372L240.978 70.5132V72.7812Z" fill="white"/>
<path d="M170.5 110.781L173.387 105.781H167.613L170.5 110.781ZM170 86.7812V106.281H171V86.7812H170Z" fill="#313131"/>
<path d="M170.558 154.533C160.31 154.533 153.982 147.253 153.982 137.957C153.982 128.661 160.31 121.437 170.558 121.437C180.694 121.437 187.022 128.661 187.022 137.957C187.022 147.309 180.694 154.533 170.558 154.533ZM170.558 151.677C178.846 151.677 183.998 146.077 183.998 137.957C183.998 129.837 178.846 124.237 170.558 124.237C162.214 124.237 157.006 129.893 157.006 137.957C157.006 146.021 162.214 151.677 170.558 151.677ZM176.718 146.413H164.174V143.893L171.006 138.517C172.238 137.565 173.526 136.333 173.526 134.709C173.526 133.085 172.126 131.965 170.39 131.965C168.43 131.965 167.086 133.197 167.086 135.325V135.493H164.174V135.157C164.174 131.629 166.918 129.277 170.334 129.277C173.974 129.277 176.55 131.461 176.55 134.653C176.55 137.341 174.646 138.853 173.246 139.973L168.542 143.725H176.718V146.413Z" fill="white"/>
<path d="M105.139 179.624C105.139 184.682 101.271 188.781 96.4994 188.781C91.7276 188.781 87.8594 184.682 87.8594 179.624C87.8594 175.722 93.0027 168.466 95.3527 165.354C95.9291 164.59 97.0697 164.59 97.6461 165.354C99.996 168.466 105.139 175.722 105.139 179.624Z" fill="url(#paint3_linear_3170_6288)"/>
<path d="M105.139 179.624C105.139 184.682 101.271 188.781 96.4994 188.781C91.7276 188.781 87.8594 184.682 87.8594 179.624C87.8594 175.722 93.0027 168.466 95.3527 165.354C95.9291 164.59 97.0697 164.59 97.6461 165.354C99.996 168.466 105.139 175.722 105.139 179.624Z" fill="url(#paint4_linear_3170_6288)"/>
<path d="M102.134 183.395C102.134 186.37 99.6114 188.781 96.4994 188.781C93.3874 188.781 90.8646 186.37 90.8646 183.395C90.8646 181.261 93.7634 177.422 95.4027 175.421C95.9708 174.728 97.0279 174.728 97.596 175.421C99.2353 177.422 102.134 181.261 102.134 183.395Z" fill="url(#paint5_linear_3170_6288)"/>
<path d="M119.513 170.181V180.585H122.303V182.781H113.951V180.585H116.939V174.753C116.759 174.807 116.543 174.825 116.327 174.825H114.005V172.683H116.039C116.669 172.683 116.975 172.089 116.975 171.405V170.181H119.513ZM128.058 170.073C131.028 170.073 132.828 172.413 132.828 176.193V176.769C132.828 180.657 131.028 182.889 128.058 182.889C125.088 182.889 123.288 180.657 123.288 176.769V176.193C123.288 172.413 125.088 170.073 128.058 170.073ZM125.826 176.283V176.679C125.826 177.039 125.844 177.399 125.862 177.705L129.804 173.295C129.426 172.503 128.85 172.107 128.058 172.107C126.564 172.107 125.826 173.529 125.826 176.283ZM130.29 176.679V176.283C130.29 175.923 130.272 175.581 130.254 175.257L126.33 179.685C126.708 180.441 127.284 180.837 128.058 180.837C129.552 180.837 130.29 179.433 130.29 176.679ZM141.247 178.695H134.947V176.625H141.247V178.695ZM146.88 182.781H144.45L142.488 173.529H144.9L146.034 179.883L147.438 174.735H149.094L150.48 179.883L151.614 173.529H153.954L151.974 182.781H149.562L148.23 178.083L146.88 182.781ZM159.854 182.889C156.83 182.889 155.012 181.035 155.012 178.173C155.012 175.293 156.866 173.421 159.692 173.421C162.41 173.421 164.264 175.149 164.282 177.867C164.282 178.101 164.264 178.443 164.21 178.749H157.658V178.857C157.712 180.171 158.54 180.963 159.764 180.963C160.754 180.963 161.438 180.513 161.654 179.649H164.156C163.886 181.449 162.302 182.889 159.854 182.889ZM157.712 177.075H161.744C161.564 175.941 160.808 175.311 159.71 175.311C158.648 175.311 157.856 175.977 157.712 177.075ZM170.682 182.889C167.658 182.889 165.84 181.035 165.84 178.173C165.84 175.293 167.694 173.421 170.52 173.421C173.238 173.421 175.092 175.149 175.11 177.867C175.11 178.101 175.092 178.443 175.038 178.749H168.486V178.857C168.54 180.171 169.368 180.963 170.592 180.963C171.582 180.963 172.266 180.513 172.482 179.649H174.984C174.714 181.449 173.13 182.889 170.682 182.889ZM168.54 177.075H172.572C172.392 175.941 171.636 175.311 170.538 175.311C169.476 175.311 168.684 175.977 168.54 177.075ZM179.711 182.781H177.173V170.181H179.711V177.453L183.329 173.529H186.191L182.843 177.183L186.335 182.781H183.383L181.061 179.037L179.711 180.513V182.781ZM197.44 182.889C194.902 182.889 193.192 181.683 193.102 179.703H195.514C195.586 180.513 196.252 181.071 197.458 181.071C198.466 181.071 199.078 180.729 199.078 180.081C199.078 179.325 198.448 179.253 197.044 179.073C194.92 178.821 193.282 178.335 193.282 176.427C193.282 174.591 194.848 173.403 197.188 173.403C199.618 173.403 201.292 174.501 201.4 176.391H198.988C198.898 175.653 198.25 175.203 197.26 175.203C196.324 175.203 195.712 175.563 195.712 176.157C195.712 176.859 196.486 176.949 197.764 177.093C199.78 177.309 201.544 177.795 201.544 179.883C201.544 181.719 199.87 182.889 197.44 182.889ZM210.488 182.781H207.536C205.772 182.781 204.89 181.899 204.89 180.135V175.671H202.712V173.529H204.89V170.937H207.428V173.529H210.452V175.671H207.428V179.721C207.428 180.369 207.68 180.639 208.346 180.639H210.488V182.781ZM220.118 175.833H218.606C217.022 175.833 216.41 176.859 216.41 178.245V180.639H218.948V182.781H212V180.639H213.872V175.671H212V173.529H216.23L216.302 175.131C216.806 174.213 217.58 173.529 219.056 173.529H220.118V175.833ZM226.141 182.889C223.117 182.889 221.299 181.035 221.299 178.173C221.299 175.293 223.153 173.421 225.979 173.421C228.697 173.421 230.551 175.149 230.569 177.867C230.569 178.101 230.551 178.443 230.497 178.749H223.945V178.857C223.999 180.171 224.827 180.963 226.051 180.963C227.041 180.963 227.725 180.513 227.941 179.649H230.443C230.173 181.449 228.589 182.889 226.141 182.889ZM223.999 177.075H228.031C227.851 175.941 227.095 175.311 225.997 175.311C224.935 175.311 224.143 175.977 223.999 177.075ZM241.074 180.639H241.344V182.781H240.102C238.896 182.781 238.446 182.223 238.428 181.431C237.762 182.367 236.79 182.889 235.476 182.889C233.532 182.889 232.092 181.917 232.092 180.153C232.092 178.191 233.55 177.093 236.286 177.093H238.032V176.643C238.032 175.815 237.474 175.275 236.412 175.275C235.494 175.275 234.846 175.725 234.756 176.409H232.29C232.47 174.645 234.054 173.421 236.52 173.421C239.076 173.421 240.552 174.573 240.552 176.787V180.063C240.552 180.513 240.678 180.639 241.074 180.639ZM238.032 179.037V178.785H236.25C235.224 178.785 234.648 179.217 234.648 179.991C234.648 180.639 235.152 181.053 235.962 181.053C237.222 181.053 238.032 180.243 238.032 179.037ZM245.664 182.781H243.126V170.181H245.664V177.453L249.282 173.529H252.144L248.796 177.183L252.288 182.781H249.336L247.014 179.037L245.664 180.513V182.781Z" fill="white"/>
<path d="M170.5 220.781L173.387 215.781H167.613L170.5 220.781ZM170 196.781V216.281H171V196.781H170Z" fill="#313131"/>
<path d="M170.558 264.533C160.31 264.533 153.982 257.253 153.982 247.957C153.982 238.661 160.31 231.437 170.558 231.437C180.694 231.437 187.022 238.661 187.022 247.957C187.022 257.309 180.694 264.533 170.558 264.533ZM170.558 261.677C178.846 261.677 183.998 256.077 183.998 247.957C183.998 239.837 178.846 234.237 170.558 234.237C162.214 234.237 157.006 239.893 157.006 247.957C157.006 256.021 162.214 261.677 170.558 261.677ZM170.39 256.693C166.358 256.693 163.894 254.733 163.838 251.037H166.694C166.694 252.829 168.038 254.173 170.39 254.173C172.63 254.173 173.918 253.053 173.918 251.373C173.918 249.805 172.518 248.965 170.278 248.965H169.214V246.557H170.222C172.238 246.557 173.582 245.717 173.582 244.149C173.582 242.805 172.406 241.797 170.446 241.797C168.262 241.797 167.142 242.973 167.142 244.653H164.286C164.342 241.293 166.862 239.277 170.502 239.277C174.086 239.277 176.494 241.237 176.494 243.925C176.494 245.773 175.094 247.173 173.694 247.565C175.71 247.957 176.942 249.637 176.942 251.541C176.942 254.621 174.31 256.693 170.39 256.693Z" fill="white"/>
<path d="M105.139 289.624C105.139 294.682 101.271 298.781 96.4994 298.781C91.7276 298.781 87.8594 294.682 87.8594 289.624C87.8594 285.722 93.0027 278.466 95.3527 275.354C95.9291 274.59 97.0697 274.59 97.6461 275.354C99.996 278.466 105.139 285.722 105.139 289.624Z" fill="url(#paint6_linear_3170_6288)"/>
<path d="M105.139 289.624C105.139 294.682 101.271 298.781 96.4994 298.781C91.7276 298.781 87.8594 294.682 87.8594 289.624C87.8594 285.722 93.0027 278.466 95.3527 275.354C95.9291 274.59 97.0697 274.59 97.6461 275.354C99.996 278.466 105.139 285.722 105.139 289.624Z" fill="url(#paint7_linear_3170_6288)"/>
<path d="M102.134 293.395C102.134 296.37 99.6114 298.781 96.4994 298.781C93.3874 298.781 90.8646 296.37 90.8646 293.395C90.8646 291.261 93.7634 287.422 95.4027 285.421C95.9708 284.728 97.0279 284.728 97.596 285.421C99.2353 287.422 102.134 291.261 102.134 293.395Z" fill="url(#paint8_linear_3170_6288)"/>
<path d="M119.513 280.181V290.585H122.303V292.781H113.951V290.585H116.939V284.753C116.759 284.807 116.543 284.825 116.327 284.825H114.005V282.683H116.039C116.669 282.683 116.975 282.089 116.975 281.405V280.181H119.513ZM128.945 284.195C131.411 284.195 133.067 285.941 133.067 288.515C133.067 291.413 130.961 292.889 128.423 292.889C125.579 292.889 123.833 291.035 123.725 288.731H126.299C126.425 289.865 127.163 290.765 128.441 290.765C129.467 290.765 130.457 290.009 130.457 288.515C130.457 287.183 129.665 286.247 128.423 286.247C127.775 286.247 126.839 286.517 126.407 287.561H123.905L124.265 280.181H132.329V282.359H126.623L126.479 285.113C127.073 284.519 127.883 284.195 128.945 284.195ZM141.3 288.695H135V286.625H141.3V288.695ZM146.933 292.781H144.503L142.541 283.529H144.953L146.087 289.883L147.491 284.735H149.147L150.533 289.883L151.667 283.529H154.007L152.027 292.781H149.615L148.283 288.083L146.933 292.781ZM159.907 292.889C156.883 292.889 155.065 291.035 155.065 288.173C155.065 285.293 156.919 283.421 159.745 283.421C162.463 283.421 164.317 285.149 164.335 287.867C164.335 288.101 164.317 288.443 164.263 288.749H157.711V288.857C157.765 290.171 158.593 290.963 159.817 290.963C160.807 290.963 161.491 290.513 161.707 289.649H164.209C163.939 291.449 162.355 292.889 159.907 292.889ZM157.765 287.075H161.797C161.617 285.941 160.861 285.311 159.763 285.311C158.701 285.311 157.909 285.977 157.765 287.075ZM170.735 292.889C167.711 292.889 165.893 291.035 165.893 288.173C165.893 285.293 167.747 283.421 170.573 283.421C173.291 283.421 175.145 285.149 175.163 287.867C175.163 288.101 175.145 288.443 175.091 288.749H168.539V288.857C168.593 290.171 169.421 290.963 170.645 290.963C171.635 290.963 172.319 290.513 172.535 289.649H175.037C174.767 291.449 173.183 292.889 170.735 292.889ZM168.593 287.075H172.625C172.445 285.941 171.689 285.311 170.591 285.311C169.529 285.311 168.737 285.977 168.593 287.075ZM179.763 292.781H177.225V280.181H179.763V287.453L183.381 283.529H186.243L182.895 287.183L186.387 292.781H183.435L181.113 289.037L179.763 290.513V292.781ZM197.493 292.889C194.955 292.889 193.245 291.683 193.155 289.703H195.567C195.639 290.513 196.305 291.071 197.511 291.071C198.519 291.071 199.131 290.729 199.131 290.081C199.131 289.325 198.501 289.253 197.097 289.073C194.973 288.821 193.335 288.335 193.335 286.427C193.335 284.591 194.901 283.403 197.241 283.403C199.671 283.403 201.345 284.501 201.453 286.391H199.041C198.951 285.653 198.303 285.203 197.313 285.203C196.377 285.203 195.765 285.563 195.765 286.157C195.765 286.859 196.539 286.949 197.817 287.093C199.833 287.309 201.597 287.795 201.597 289.883C201.597 291.719 199.923 292.889 197.493 292.889ZM210.541 292.781H207.589C205.825 292.781 204.943 291.899 204.943 290.135V285.671H202.765V283.529H204.943V280.937H207.481V283.529H210.505V285.671H207.481V289.721C207.481 290.369 207.733 290.639 208.399 290.639H210.541V292.781ZM220.171 285.833H218.659C217.075 285.833 216.463 286.859 216.463 288.245V290.639H219.001V292.781H212.053V290.639H213.925V285.671H212.053V283.529H216.283L216.355 285.131C216.859 284.213 217.633 283.529 219.109 283.529H220.171V285.833ZM226.194 292.889C223.17 292.889 221.352 291.035 221.352 288.173C221.352 285.293 223.206 283.421 226.032 283.421C228.75 283.421 230.604 285.149 230.622 287.867C230.622 288.101 230.604 288.443 230.55 288.749H223.998V288.857C224.052 290.171 224.88 290.963 226.104 290.963C227.094 290.963 227.778 290.513 227.994 289.649H230.496C230.226 291.449 228.642 292.889 226.194 292.889ZM224.052 287.075H228.084C227.904 285.941 227.148 285.311 226.05 285.311C224.988 285.311 224.196 285.977 224.052 287.075ZM241.126 290.639H241.396V292.781H240.154C238.948 292.781 238.498 292.223 238.48 291.431C237.814 292.367 236.842 292.889 235.528 292.889C233.584 292.889 232.144 291.917 232.144 290.153C232.144 288.191 233.602 287.093 236.338 287.093H238.084V286.643C238.084 285.815 237.526 285.275 236.464 285.275C235.546 285.275 234.898 285.725 234.808 286.409H232.342C232.522 284.645 234.106 283.421 236.572 283.421C239.128 283.421 240.604 284.573 240.604 286.787V290.063C240.604 290.513 240.73 290.639 241.126 290.639ZM238.084 289.037V288.785H236.302C235.276 288.785 234.7 289.217 234.7 289.991C234.7 290.639 235.204 291.053 236.014 291.053C237.274 291.053 238.084 290.243 238.084 289.037ZM245.716 292.781H243.178V280.181H245.716V287.453L249.334 283.529H252.196L248.848 287.183L252.34 292.781H249.388L247.066 289.037L245.716 290.513V292.781Z" fill="white"/>
<path d="M170.5 330.781L173.387 325.781H167.613L170.5 330.781ZM170 306.781V326.281H171V306.781H170Z" fill="#313131"/>
<path d="M170.558 374.533C160.31 374.533 153.982 367.253 153.982 357.957C153.982 348.661 160.31 341.437 170.558 341.437C180.694 341.437 187.022 348.661 187.022 357.957C187.022 367.309 180.694 374.533 170.558 374.533ZM170.558 371.677C178.846 371.677 183.998 366.077 183.998 357.957C183.998 349.837 178.846 344.237 170.558 344.237C162.214 344.237 157.006 349.893 157.006 357.957C157.006 366.021 162.214 371.677 170.558 371.677ZM174.086 366.413H171.23V362.325H162.774V359.749L170.502 349.557H174.086V359.805H176.774V362.325H174.086V366.413ZM171.23 352.357L165.63 359.805H171.23V352.357Z" fill="white"/>
<path d="M98.0676 399.624C98.0676 404.682 94.2958 408.781 89.6432 408.781C84.9905 408.781 81.2188 404.682 81.2188 399.624C81.2188 395.722 86.2338 388.466 88.5251 385.354C89.0871 384.59 90.1992 384.59 90.7612 385.354C93.0526 388.466 98.0676 395.722 98.0676 399.624Z" fill="url(#paint9_linear_3170_6288)"/>
<path d="M98.0676 399.624C98.0676 404.682 94.2958 408.781 89.6432 408.781C84.9905 408.781 81.2188 404.682 81.2188 399.624C81.2188 395.722 86.2338 388.466 88.5251 385.354C89.0871 384.59 90.1992 384.59 90.7612 385.354C93.0526 388.466 98.0676 395.722 98.0676 399.624Z" fill="url(#paint10_linear_3170_6288)"/>
<path d="M95.1373 403.395C95.1373 406.37 92.6775 408.781 89.6432 408.781C86.6088 408.781 84.149 406.37 84.149 403.395C84.149 401.261 86.9755 397.422 88.5739 395.421C89.1278 394.728 90.1585 394.728 90.7125 395.421C92.3108 397.422 95.1373 401.261 95.1373 403.395Z" fill="url(#paint11_linear_3170_6288)"/>
<path d="M112.847 393.957C115.313 393.957 116.969 395.703 116.969 398.277C116.969 401.175 114.863 402.651 112.325 402.651C109.481 402.651 107.735 400.797 107.627 398.493H110.201C110.327 399.627 111.065 400.527 112.343 400.527C113.369 400.527 114.359 399.771 114.359 398.277C114.359 396.945 113.567 396.009 112.325 396.009C111.677 396.009 110.741 396.279 110.309 397.323H107.807L108.167 389.943H116.231V392.121H110.525L110.381 394.875C110.975 394.281 111.785 393.957 112.847 393.957ZM125.202 398.457H118.902V396.387H125.202V398.457ZM137.037 393.165C138.963 393.165 140.115 394.425 140.115 396.603V402.543H137.685V396.945C137.685 396.027 137.307 395.361 136.443 395.361C135.579 395.361 135.111 396.045 135.111 396.963V402.543H132.663V396.945C132.663 396.099 132.393 395.361 131.403 395.361C130.539 395.361 130.089 396.027 130.089 396.945V402.543H127.659V393.291H129.711L129.837 394.191C130.377 393.525 131.169 393.165 132.087 393.165C133.131 393.165 134.013 393.651 134.463 394.497C135.057 393.651 135.921 393.165 137.037 393.165ZM146.778 402.651C143.934 402.651 142.026 400.761 142.026 397.917C142.026 395.073 143.934 393.183 146.778 393.183C149.64 393.183 151.548 395.073 151.548 397.917C151.548 400.761 149.64 402.651 146.778 402.651ZM146.778 400.581C148.11 400.581 148.956 399.483 148.956 397.917C148.956 396.351 148.11 395.253 146.778 395.253C145.464 395.253 144.618 396.369 144.618 397.917C144.618 399.465 145.464 400.581 146.778 400.581ZM158.752 393.183C160.696 393.183 162.352 394.227 162.352 397.341V402.543H159.814V397.629C159.814 396.171 159.292 395.361 158.05 395.361C156.826 395.361 156.142 396.189 156.142 397.773V402.543H153.604V393.291H155.818L156.052 394.425C156.61 393.705 157.402 393.183 158.752 393.183ZM171.539 402.543H168.587C166.823 402.543 165.941 401.661 165.941 399.897V395.433H163.763V393.291H165.941V390.699H168.479V393.291H171.503V395.433H168.479V399.483C168.479 400.131 168.731 400.401 169.397 400.401H171.539V402.543ZM178.757 393.183C180.827 393.183 182.411 394.353 182.411 397.341V402.543H179.873V397.575C179.873 396.261 179.369 395.361 178.091 395.361C176.849 395.361 176.111 396.243 176.111 397.719V402.543H173.573V389.943H176.111V394.353C176.723 393.633 177.551 393.183 178.757 393.183ZM188.62 402.651C186.082 402.651 184.372 401.445 184.282 399.465H186.694C186.766 400.275 187.432 400.833 188.638 400.833C189.646 400.833 190.258 400.491 190.258 399.843C190.258 399.087 189.628 399.015 188.224 398.835C186.1 398.583 184.462 398.097 184.462 396.189C184.462 394.353 186.028 393.165 188.368 393.165C190.798 393.165 192.472 394.263 192.58 396.153H190.168C190.078 395.415 189.43 394.965 188.44 394.965C187.504 394.965 186.892 395.325 186.892 395.919C186.892 396.621 187.666 396.711 188.944 396.855C190.96 397.071 192.724 397.557 192.724 399.645C192.724 401.481 191.05 402.651 188.62 402.651ZM204.353 402.651C201.815 402.651 200.105 401.445 200.015 399.465H202.427C202.499 400.275 203.165 400.833 204.371 400.833C205.379 400.833 205.991 400.491 205.991 399.843C205.991 399.087 205.361 399.015 203.957 398.835C201.833 398.583 200.195 398.097 200.195 396.189C200.195 394.353 201.761 393.165 204.101 393.165C206.531 393.165 208.205 394.263 208.312 396.153H205.901C205.811 395.415 205.163 394.965 204.173 394.965C203.237 394.965 202.625 395.325 202.625 395.919C202.625 396.621 203.399 396.711 204.677 396.855C206.693 397.071 208.457 397.557 208.457 399.645C208.457 401.481 206.783 402.651 204.353 402.651ZM217.4 402.543H214.448C212.684 402.543 211.802 401.661 211.802 399.897V395.433H209.624V393.291H211.802V390.699H214.34V393.291H217.364V395.433H214.34V399.483C214.34 400.131 214.592 400.401 215.258 400.401H217.4V402.543ZM227.03 395.595H225.518C223.934 395.595 223.322 396.621 223.322 398.007V400.401H225.86V402.543H218.912V400.401H220.784V395.433H218.912V393.291H223.142L223.214 394.893C223.718 393.975 224.492 393.291 225.968 393.291H227.03V395.595ZM233.054 402.651C230.03 402.651 228.212 400.797 228.212 397.935C228.212 395.055 230.066 393.183 232.892 393.183C235.61 393.183 237.464 394.911 237.482 397.629C237.482 397.863 237.464 398.205 237.41 398.511H230.858V398.619C230.912 399.933 231.74 400.725 232.964 400.725C233.954 400.725 234.638 400.275 234.854 399.411H237.355C237.086 401.211 235.502 402.651 233.054 402.651ZM230.912 396.837H234.944C234.764 395.703 234.008 395.073 232.91 395.073C231.848 395.073 231.056 395.739 230.912 396.837ZM247.986 400.401H248.256V402.543H247.014C245.808 402.543 245.358 401.985 245.34 401.193C244.674 402.129 243.702 402.651 242.388 402.651C240.444 402.651 239.004 401.679 239.004 399.915C239.004 397.953 240.462 396.855 243.198 396.855H244.944V396.405C244.944 395.577 244.386 395.037 243.324 395.037C242.406 395.037 241.758 395.487 241.668 396.171H239.202C239.382 394.407 240.966 393.183 243.432 393.183C245.988 393.183 247.464 394.335 247.464 396.549V399.825C247.464 400.275 247.59 400.401 247.986 400.401ZM244.944 398.799V398.547H243.162C242.136 398.547 241.56 398.979 241.56 399.753C241.56 400.401 242.064 400.815 242.874 400.815C244.134 400.815 244.944 400.005 244.944 398.799ZM252.576 402.543H250.038V389.943H252.576V397.215L256.194 393.291H259.056L255.708 396.945L259.2 402.543H256.248L253.926 398.799L252.576 400.275V402.543Z" fill="white"/>
<path d="M170.146 441.135C170.342 441.33 170.658 441.33 170.854 441.135L174.036 437.953C174.231 437.758 174.231 437.441 174.036 437.246C173.84 437.05 173.524 437.05 173.328 437.246L170.5 440.074L167.672 437.246C167.476 437.05 167.16 437.05 166.964 437.246C166.769 437.441 166.769 437.758 166.964 437.953L170.146 441.135ZM170 416.781V440.781H171V416.781H170Z" fill="#313131"/>
<path d="M170.558 484.533C160.31 484.533 153.982 477.253 153.982 467.957C153.982 458.661 160.31 451.437 170.558 451.437C180.694 451.437 187.022 458.661 187.022 467.957C187.022 477.309 180.694 484.533 170.558 484.533ZM170.558 481.677C178.846 481.677 183.998 476.077 183.998 467.957C183.998 459.837 178.846 454.237 170.558 454.237C162.214 454.237 157.006 459.893 157.006 467.957C157.006 476.021 162.214 481.677 170.558 481.677ZM170.614 476.693C167.478 476.693 164.846 474.789 164.51 471.653H167.31C167.59 473.053 169.046 474.061 170.67 474.061C172.462 474.061 173.918 472.661 173.918 470.813C173.918 468.965 172.518 467.565 170.67 467.565C169.494 467.565 168.094 468.181 167.422 469.357H164.79L165.238 459.557H175.878V462.077H167.478L167.198 466.893C168.094 465.829 169.494 465.157 171.23 465.157C174.534 465.157 176.83 467.509 176.83 470.813C176.83 474.285 174.142 476.693 170.614 476.693Z" fill="white"/>
<path d="M93.0676 509.624C93.0676 514.682 89.2958 518.781 84.6432 518.781C79.9905 518.781 76.2188 514.682 76.2188 509.624C76.2188 505.722 81.2338 498.466 83.5251 495.354C84.0871 494.59 85.1992 494.59 85.7612 495.354C88.0526 498.466 93.0676 505.722 93.0676 509.624Z" fill="url(#paint12_linear_3170_6288)"/>
<path d="M93.0676 509.624C93.0676 514.682 89.2958 518.781 84.6432 518.781C79.9905 518.781 76.2188 514.682 76.2188 509.624C76.2188 505.722 81.2338 498.466 83.5251 495.354C84.0871 494.59 85.1992 494.59 85.7612 495.354C88.0526 498.466 93.0676 505.722 93.0676 509.624Z" fill="url(#paint13_linear_3170_6288)"/>
<path d="M90.1373 513.395C90.1373 516.37 87.6775 518.781 84.6432 518.781C81.6088 518.781 79.149 516.37 79.149 513.395C79.149 511.261 81.9755 507.422 83.5739 505.421C84.1278 504.728 85.1585 504.728 85.7125 505.421C87.3108 507.422 90.1373 511.261 90.1373 513.395Z" fill="url(#paint14_linear_3170_6288)"/>
<path d="M108.153 499.943V510.347H110.943V512.543H102.591V510.347H105.579V504.515C105.399 504.569 105.183 504.587 104.967 504.587H102.645V502.445H104.679C105.309 502.445 105.615 501.851 105.615 501.167V499.943H108.153ZM116.699 499.835C119.669 499.835 121.469 502.175 121.469 505.955V506.531C121.469 510.419 119.669 512.651 116.699 512.651C113.729 512.651 111.929 510.419 111.929 506.531V505.955C111.929 502.175 113.729 499.835 116.699 499.835ZM114.467 506.045V506.441C114.467 506.801 114.485 507.161 114.503 507.467L118.445 503.057C118.067 502.265 117.491 501.869 116.699 501.869C115.205 501.869 114.467 503.291 114.467 506.045ZM118.931 506.441V506.045C118.931 505.685 118.913 505.343 118.895 505.019L114.971 509.447C115.349 510.203 115.925 510.599 116.699 510.599C118.193 510.599 118.931 509.195 118.931 506.441ZM129.888 508.457H123.588V506.387H129.888V508.457ZM141.722 503.165C143.648 503.165 144.8 504.425 144.8 506.603V512.543H142.37V506.945C142.37 506.027 141.992 505.361 141.128 505.361C140.264 505.361 139.796 506.045 139.796 506.963V512.543H137.348V506.945C137.348 506.099 137.078 505.361 136.088 505.361C135.224 505.361 134.774 506.027 134.774 506.945V512.543H132.344V503.291H134.396L134.522 504.191C135.062 503.525 135.854 503.165 136.772 503.165C137.816 503.165 138.698 503.651 139.148 504.497C139.742 503.651 140.606 503.165 141.722 503.165ZM151.464 512.651C148.62 512.651 146.712 510.761 146.712 507.917C146.712 505.073 148.62 503.183 151.464 503.183C154.326 503.183 156.234 505.073 156.234 507.917C156.234 510.761 154.326 512.651 151.464 512.651ZM151.464 510.581C152.796 510.581 153.642 509.483 153.642 507.917C153.642 506.351 152.796 505.253 151.464 505.253C150.15 505.253 149.304 506.369 149.304 507.917C149.304 509.465 150.15 510.581 151.464 510.581ZM163.438 503.183C165.382 503.183 167.038 504.227 167.038 507.341V512.543H164.5V507.629C164.5 506.171 163.978 505.361 162.736 505.361C161.512 505.361 160.828 506.189 160.828 507.773V512.543H158.29V503.291H160.504L160.738 504.425C161.296 503.705 162.088 503.183 163.438 503.183ZM176.224 512.543H173.272C171.508 512.543 170.626 511.661 170.626 509.897V505.433H168.448V503.291H170.626V500.699H173.164V503.291H176.188V505.433H173.164V509.483C173.164 510.131 173.416 510.401 174.082 510.401H176.224V512.543ZM183.442 503.183C185.512 503.183 187.096 504.353 187.096 507.341V512.543H184.558V507.575C184.558 506.261 184.054 505.361 182.776 505.361C181.534 505.361 180.796 506.243 180.796 507.719V512.543H178.258V499.943H180.796V504.353C181.408 503.633 182.236 503.183 183.442 503.183ZM193.306 512.651C190.768 512.651 189.058 511.445 188.968 509.465H191.38C191.452 510.275 192.118 510.833 193.324 510.833C194.332 510.833 194.944 510.491 194.944 509.843C194.944 509.087 194.314 509.015 192.91 508.835C190.786 508.583 189.148 508.097 189.148 506.189C189.148 504.353 190.714 503.165 193.054 503.165C195.484 503.165 197.158 504.263 197.266 506.153H194.854C194.764 505.415 194.116 504.965 193.126 504.965C192.19 504.965 191.578 505.325 191.578 505.919C191.578 506.621 192.352 506.711 193.63 506.855C195.646 507.071 197.41 507.557 197.41 509.645C197.41 511.481 195.736 512.651 193.306 512.651ZM209.038 512.651C206.5 512.651 204.79 511.445 204.7 509.465H207.112C207.184 510.275 207.85 510.833 209.056 510.833C210.064 510.833 210.676 510.491 210.676 509.843C210.676 509.087 210.046 509.015 208.642 508.835C206.518 508.583 204.88 508.097 204.88 506.189C204.88 504.353 206.446 503.165 208.786 503.165C211.216 503.165 212.89 504.263 212.998 506.153H210.586C210.496 505.415 209.848 504.965 208.858 504.965C207.922 504.965 207.31 505.325 207.31 505.919C207.31 506.621 208.084 506.711 209.362 506.855C211.378 507.071 213.142 507.557 213.142 509.645C213.142 511.481 211.468 512.651 209.038 512.651ZM222.086 512.543H219.134C217.37 512.543 216.488 511.661 216.488 509.897V505.433H214.31V503.291H216.488V500.699H219.026V503.291H222.05V505.433H219.026V509.483C219.026 510.131 219.278 510.401 219.944 510.401H222.086V512.543ZM231.716 505.595H230.204C228.62 505.595 228.008 506.621 228.008 508.007V510.401H230.546V512.543H223.598V510.401H225.47V505.433H223.598V503.291H227.828L227.9 504.893C228.404 503.975 229.178 503.291 230.654 503.291H231.716V505.595ZM237.739 512.651C234.715 512.651 232.897 510.797 232.897 507.935C232.897 505.055 234.751 503.183 237.577 503.183C240.295 503.183 242.149 504.911 242.167 507.629C242.167 507.863 242.149 508.205 242.095 508.511H235.543V508.619C235.597 509.933 236.425 510.725 237.649 510.725C238.639 510.725 239.323 510.275 239.539 509.411H242.041C241.771 511.211 240.187 512.651 237.739 512.651ZM235.597 506.837H239.629C239.449 505.703 238.693 505.073 237.595 505.073C236.533 505.073 235.741 505.739 235.597 506.837ZM252.671 510.401H252.941V512.543H251.699C250.493 512.543 250.043 511.985 250.025 511.193C249.359 512.129 248.387 512.651 247.073 512.651C245.129 512.651 243.689 511.679 243.689 509.915C243.689 507.953 245.147 506.855 247.883 506.855H249.629V506.405C249.629 505.577 249.071 505.037 248.009 505.037C247.091 505.037 246.443 505.487 246.353 506.171H243.887C244.067 504.407 245.651 503.183 248.117 503.183C250.673 503.183 252.149 504.335 252.149 506.549V509.825C252.149 510.275 252.275 510.401 252.671 510.401ZM249.629 508.799V508.547H247.847C246.821 508.547 246.245 508.979 246.245 509.753C246.245 510.401 246.749 510.815 247.559 510.815C248.819 510.815 249.629 510.005 249.629 508.799ZM257.261 512.543H254.723V499.943H257.261V507.215L260.879 503.291H263.741L260.393 506.945L263.885 512.543H260.933L258.611 508.799L257.261 510.275V512.543Z" fill="white"/>
<defs>
<linearGradient id="paint0_linear_3170_6288" x1="101.499" y1="54.7812" x2="101.499" y2="78.7812" gradientUnits="userSpaceOnUse">
<stop stop-color="#FF6C59"/>
<stop offset="1" stop-color="#E11E0F"/>
</linearGradient>
<linearGradient id="paint1_linear_3170_6288" x1="101.499" y1="54.7812" x2="101.499" y2="78.7812" gradientUnits="userSpaceOnUse">
<stop stop-color="#FF6C59"/>
<stop offset="1" stop-color="#E11E0F"/>
</linearGradient>
<linearGradient id="paint2_linear_3170_6288" x1="101.499" y1="64.1299" x2="101.499" y2="78.7811" gradientUnits="userSpaceOnUse">
<stop stop-color="#FFE12E"/>
<stop offset="1" stop-color="#F36A07"/>
</linearGradient>
<linearGradient id="paint3_linear_3170_6288" x1="96.4994" y1="164.781" x2="96.4994" y2="188.781" gradientUnits="userSpaceOnUse">
<stop stop-color="#FF6C59"/>
<stop offset="1" stop-color="#E11E0F"/>
</linearGradient>
<linearGradient id="paint4_linear_3170_6288" x1="96.4994" y1="164.781" x2="96.4994" y2="188.781" gradientUnits="userSpaceOnUse">
<stop stop-color="#FF6C59"/>
<stop offset="1" stop-color="#E11E0F"/>
</linearGradient>
<linearGradient id="paint5_linear_3170_6288" x1="96.4994" y1="174.13" x2="96.4994" y2="188.781" gradientUnits="userSpaceOnUse">
<stop stop-color="#FFE12E"/>
<stop offset="1" stop-color="#F36A07"/>
</linearGradient>
<linearGradient id="paint6_linear_3170_6288" x1="96.4994" y1="274.781" x2="96.4994" y2="298.781" gradientUnits="userSpaceOnUse">
<stop stop-color="#FF6C59"/>
<stop offset="1" stop-color="#E11E0F"/>
</linearGradient>
<linearGradient id="paint7_linear_3170_6288" x1="96.4994" y1="274.781" x2="96.4994" y2="298.781" gradientUnits="userSpaceOnUse">
<stop stop-color="#FF6C59"/>
<stop offset="1" stop-color="#E11E0F"/>
</linearGradient>
<linearGradient id="paint8_linear_3170_6288" x1="96.4994" y1="284.13" x2="96.4994" y2="298.781" gradientUnits="userSpaceOnUse">
<stop stop-color="#FFE12E"/>
<stop offset="1" stop-color="#F36A07"/>
</linearGradient>
<linearGradient id="paint9_linear_3170_6288" x1="89.6432" y1="384.781" x2="89.6432" y2="408.781" gradientUnits="userSpaceOnUse">
<stop stop-color="#2943EE"/>
<stop offset="1" stop-color="#182686"/>
</linearGradient>
<linearGradient id="paint10_linear_3170_6288" x1="89.6432" y1="384.781" x2="89.6432" y2="408.781" gradientUnits="userSpaceOnUse">
<stop stop-color="#2943EE"/>
<stop offset="1" stop-color="#182686"/>
</linearGradient>
<linearGradient id="paint11_linear_3170_6288" x1="89.6432" y1="394.13" x2="89.6432" y2="408.781" gradientUnits="userSpaceOnUse">
<stop stop-color="#4F83F2"/>
<stop offset="1" stop-color="#113E9E"/>
</linearGradient>
<linearGradient id="paint12_linear_3170_6288" x1="84.6432" y1="494.781" x2="84.6432" y2="518.781" gradientUnits="userSpaceOnUse">
<stop stop-color="#2943EE"/>
<stop offset="1" stop-color="#182686"/>
</linearGradient>
<linearGradient id="paint13_linear_3170_6288" x1="84.6432" y1="494.781" x2="84.6432" y2="518.781" gradientUnits="userSpaceOnUse">
<stop stop-color="#2943EE"/>
<stop offset="1" stop-color="#182686"/>
</linearGradient>
<linearGradient id="paint14_linear_3170_6288" x1="84.6432" y1="504.13" x2="84.6432" y2="518.781" gradientUnits="userSpaceOnUse">
<stop stop-color="#4F83F2"/>
<stop offset="1" stop-color="#113E9E"/>
</linearGradient>
</defs>
</svg>
