<svg width="1025" height="82" viewBox="0 0 1025 82" fill="none" xmlns="http://www.w3.org/2000/svg">
<rect x="1" y="1" width="1023" height="80" rx="8" fill="url(#paint0_radial_3106_5030)"/>
<rect x="1" y="1" width="1023" height="80" rx="8" stroke="#30363D"/>
<g clip-path="url(#clip0_3106_5030)">
<path d="M31 48H51V65L41 61.0769L31 65V48Z" fill="url(#paint1_linear_3106_5030)"/>
<path d="M37.925 19.4181C39.4856 17.4149 42.5144 17.4149 44.075 19.4181C45.1994 20.8613 47.0887 21.4752 48.8467 20.9685C51.2867 20.2652 53.737 22.0454 53.8221 24.5834C53.8834 26.4118 55.0511 28.019 56.7712 28.6424C59.1586 29.5076 60.0945 32.3881 58.6716 34.4914C57.6465 36.0067 57.6465 37.9933 58.6716 39.5086C60.0945 41.6119 59.1586 44.4924 56.7712 45.3576C55.0511 45.981 53.8834 47.5882 53.8221 49.4166C53.737 51.9546 51.2867 53.7348 48.8467 53.0315C47.0887 52.5248 45.1994 53.1387 44.075 54.5819C42.5144 56.5851 39.4856 56.5851 37.925 54.5819C36.8006 53.1387 34.9113 52.5248 33.1533 53.0315C30.7133 53.7348 28.263 51.9546 28.1779 49.4166C28.1166 47.5882 26.9489 45.981 25.2288 45.3576C22.8414 44.4924 21.9055 41.6119 23.3284 39.5086C24.3535 37.9933 24.3535 36.0067 23.3284 34.4914C21.9055 32.3881 22.8414 29.5076 25.2288 28.6424C26.9489 28.019 28.1166 26.4118 28.1779 24.5834C28.263 22.0454 30.7133 20.2652 33.1533 20.9685C34.9113 21.4752 36.8006 20.8613 37.925 19.4181Z" fill="url(#paint2_linear_3106_5030)" stroke="url(#paint3_linear_3106_5030)" stroke-width="0.578947"/>
<path fill-rule="evenodd" clip-rule="evenodd" d="M41.0002 50.8949C48.6741 50.8949 54.8949 44.6741 54.8949 37.0002C54.8949 29.3264 48.6741 23.1055 41.0002 23.1055C33.3264 23.1055 27.1055 29.3264 27.1055 37.0002C27.1055 39.5775 27.8072 41.9909 29.03 44.0598C34.6405 34.6208 41.173 28.8783 41.7831 29.1342C42.0489 29.2455 41.1727 30.5436 39.6648 32.7776C37.5769 35.8707 34.278 40.7578 31.123 46.7728C31.3867 47.0393 31.661 47.2952 31.9455 47.5397C37.7796 36.8632 45.2371 30.2432 45.8931 30.5197C46.159 30.6317 45.2818 31.9311 43.7729 34.1664C41.5486 37.4614 37.9516 42.7899 34.6195 49.3465C34.9168 49.5005 35.2205 49.644 35.5299 49.7767C41.3166 39.4133 48.5399 33.0192 49.1811 33.2906C49.446 33.4032 48.5709 34.6988 47.0652 36.9281C45.0037 39.9802 41.7601 44.7826 38.6413 50.6955C39.408 50.8266 40.1961 50.8949 41.0002 50.8949Z" fill="url(#paint4_linear_3106_5030)"/>
</g>
<path d="M91.2008 52.18C86.2808 52.18 83.1308 49.39 82.9808 45.13H85.6808C85.8908 47.98 88.1108 49.81 91.2308 49.81C94.0508 49.81 95.9408 48.46 95.9408 46.24C95.9408 44.05 94.2608 43.21 90.3008 42.55C85.9508 41.83 83.4908 40.21 83.4908 36.79C83.4908 33.22 86.3708 30.82 90.6008 30.82C95.0708 30.82 98.0408 33.34 98.2808 37.21H95.5808C95.3108 34.75 93.3308 33.19 90.6008 33.19C87.8108 33.19 86.1008 34.45 86.1008 36.64C86.1008 38.8 87.7508 39.55 91.7708 40.21C96.0608 40.9 98.5508 42.64 98.5508 46C98.5508 49.63 95.5208 52.18 91.2008 52.18ZM107.457 34.03C106.407 34.03 105.567 33.25 105.567 32.14C105.567 31.09 106.407 30.28 107.457 30.28C108.507 30.28 109.317 31.09 109.317 32.14C109.317 33.25 108.507 34.03 107.457 34.03ZM108.657 49.75H113.307V52H101.577V49.75H106.197V38.95H101.577V36.7H108.657V49.75ZM122.335 49.75H126.985V52H115.255V49.75H119.875V33.25H115.255V31H122.335V49.75ZM136.218 52H133.248L127.278 36.7H129.918L134.778 49.21L139.608 36.7H142.188L136.218 52ZM158.025 44.89H146.145V45.04C146.235 47.95 148.065 49.99 150.975 49.99C153.135 49.99 154.815 48.85 155.325 46.87H157.815C157.215 49.93 154.695 52.18 151.155 52.18C146.565 52.18 143.565 49.03 143.565 44.35C143.565 39.7 146.505 36.52 150.825 36.52C155.145 36.52 157.965 39.25 158.085 43.78C158.085 44.02 158.055 44.53 158.025 44.89ZM150.855 38.68C148.605 38.68 146.535 40.3 146.295 42.79H155.445C155.205 40.15 153.405 38.68 150.855 38.68ZM171.85 36.7H173.5V39.1H171.52C167.95 39.1 166.9 41.83 166.9 44.26V49.75H171.37V52H161.02V49.75H164.44V38.95H161.02V36.7H166.78L166.87 39.28C167.56 38.08 168.94 36.7 171.85 36.7Z" fill="#A6A5C4"/>
<path d="M870.079 46.56H868.479V42.66H864.799V41.2H868.479V37.3H870.079V41.2H873.779V42.66H870.079V46.56ZM881.36 34V46.44H884.9V48H876.02V46.44H879.7V38.18C879.5 38.32 879.26 38.38 878.96 38.38H876.06V36.88H878.78C879.4 36.88 879.72 36.36 879.72 35.68V34H881.36ZM891.222 33.88C894.282 33.88 896.182 36.42 896.182 40.68V41.32C896.182 45.58 894.282 48.12 891.222 48.12C888.162 48.12 886.262 45.58 886.262 41.32V40.68C886.262 36.42 888.162 33.88 891.222 33.88ZM887.922 40.74V41.26C887.922 42.04 887.982 42.74 888.102 43.34L893.802 37.06C893.242 35.96 892.362 35.38 891.222 35.38C889.142 35.38 887.922 37.34 887.922 40.74ZM894.522 41.26V40.74C894.522 39.96 894.462 39.26 894.342 38.64L888.642 44.96C889.222 46.02 890.102 46.6 891.222 46.6C893.302 46.6 894.522 44.66 894.522 41.26ZM901.323 40.66C899.643 40.66 898.523 39.42 898.523 37.26C898.523 35.1 899.623 33.88 901.323 33.88C903.003 33.88 904.123 35.1 904.123 37.26C904.123 39.42 903.023 40.66 901.323 40.66ZM901.783 48H900.363L907.723 34H909.163L901.783 48ZM901.323 39.38C902.183 39.38 902.723 38.68 902.723 37.26C902.723 35.84 902.183 35.16 901.323 35.16C900.463 35.16 899.943 35.84 899.943 37.26C899.943 38.68 900.463 39.38 901.323 39.38ZM908.203 48.12C906.523 48.12 905.403 46.9 905.403 44.74C905.403 42.56 906.503 41.34 908.203 41.34C909.883 41.34 910.983 42.56 910.983 44.74C910.983 46.9 909.903 48.12 908.203 48.12ZM908.203 46.84C909.063 46.84 909.583 46.14 909.583 44.74C909.583 43.3 909.063 42.62 908.203 42.62C907.343 42.62 906.803 43.3 906.803 44.74C906.803 46.14 907.343 46.84 908.203 46.84ZM925.469 48.12C922.189 48.12 920.089 46.26 919.989 43.42H921.789C921.929 45.32 923.409 46.54 925.489 46.54C927.369 46.54 928.629 45.64 928.629 44.16C928.629 42.7 927.509 42.14 924.869 41.7C921.969 41.22 920.329 40.14 920.329 37.86C920.329 35.48 922.249 33.88 925.069 33.88C928.049 33.88 930.029 35.56 930.189 38.14H928.389C928.209 36.5 926.889 35.46 925.069 35.46C923.209 35.46 922.069 36.3 922.069 37.76C922.069 39.2 923.169 39.7 925.849 40.14C928.709 40.6 930.369 41.76 930.369 44C930.369 46.42 928.349 48.12 925.469 48.12ZM934.826 48H933.086V34H938.206C941.046 34 942.926 35.68 942.926 38.3C942.926 40.92 941.046 42.62 938.206 42.62H934.826V48ZM934.826 35.6V41.02H938.046C939.926 41.02 941.146 39.96 941.146 38.3C941.146 36.64 939.946 35.6 938.066 35.6H934.826ZM957.366 37.68C960.186 37.68 962.266 39.58 962.266 42.9C962.266 46.02 960.186 48.12 957.366 48.12C955.646 48.12 954.486 47.42 953.866 46.44L953.646 48H952.226V34H953.866V39.44C954.546 38.5 955.646 37.68 957.366 37.68ZM957.206 46.66C959.226 46.66 960.586 45.12 960.586 42.9C960.586 40.68 959.226 39.14 957.206 39.14C955.206 39.14 953.846 40.68 953.846 42.86C953.846 45.1 955.206 46.66 957.206 46.66ZM969.442 48.12C966.462 48.12 964.382 46 964.382 42.9C964.382 39.8 966.462 37.68 969.442 37.68C972.422 37.68 974.502 39.8 974.502 42.9C974.502 46 972.422 48.12 969.442 48.12ZM969.442 46.66C971.462 46.66 972.822 45.08 972.822 42.9C972.822 40.72 971.462 39.14 969.442 39.14C967.422 39.14 966.062 40.72 966.062 42.9C966.062 45.08 967.422 46.66 969.442 46.66ZM981.688 48.12C978.708 48.12 976.628 46 976.628 42.9C976.628 39.8 978.708 37.68 981.688 37.68C984.668 37.68 986.748 39.8 986.748 42.9C986.748 46 984.668 48.12 981.688 48.12ZM981.688 46.66C983.708 46.66 985.068 45.08 985.068 42.9C985.068 40.72 983.708 39.14 981.688 39.14C979.668 39.14 978.308 40.72 978.308 42.9C978.308 45.08 979.668 46.66 981.688 46.66ZM993.175 48.12C990.535 48.12 988.715 46.88 988.675 44.64H990.355C990.415 45.84 991.475 46.72 993.175 46.72C994.615 46.72 995.635 46.1 995.635 45.16C995.635 43.88 994.515 43.78 992.995 43.6C990.715 43.32 988.895 42.86 988.895 40.74C988.895 38.88 990.595 37.68 992.895 37.68C995.215 37.68 996.895 38.78 997.055 40.9H995.375C995.255 39.86 994.295 39.08 992.895 39.08C991.475 39.08 990.515 39.68 990.515 40.62C990.515 41.74 991.595 41.88 993.075 42.06C995.395 42.34 997.255 42.78 997.255 45.04C997.255 46.94 995.435 48.12 993.175 48.12ZM1006.63 48H1003.91C1001.95 48 1001.25 47.14 1001.25 45.34V39.3H998.546V37.8H1001.25V34.94H1002.89V37.8H1006.47V39.3H1002.89V45.32C1002.89 46.18 1003.19 46.5 1004.07 46.5H1006.63V48Z" fill="#A6A5C4"/>
<defs>
<radialGradient id="paint0_radial_3106_5030" cx="0" cy="0" r="1" gradientUnits="userSpaceOnUse" gradientTransform="translate(512.5 -91) rotate(90) scale(166 2122.73)">
<stop stop-color="#9B9B9B" stop-opacity="0.92"/>
<stop offset="1" stop-color="#161B22"/>
</radialGradient>
<linearGradient id="paint1_linear_3106_5030" x1="41" y1="48" x2="41" y2="65" gradientUnits="userSpaceOnUse">
<stop stop-color="#0811DF"/>
<stop offset="1" stop-color="#696FFD"/>
</linearGradient>
<linearGradient id="paint2_linear_3106_5030" x1="41" y1="15" x2="41" y2="59" gradientUnits="userSpaceOnUse">
<stop stop-color="#AFAFAF"/>
<stop offset="1" stop-color="#949494"/>
</linearGradient>
<linearGradient id="paint3_linear_3106_5030" x1="41" y1="15" x2="41" y2="59" gradientUnits="userSpaceOnUse">
<stop stop-color="white" stop-opacity="0.52"/>
<stop offset="1" stop-color="white" stop-opacity="0"/>
</linearGradient>
<linearGradient id="paint4_linear_3106_5030" x1="41.0002" y1="23.1055" x2="41.0002" y2="50.8949" gradientUnits="userSpaceOnUse">
<stop stop-color="#F3F3F3"/>
<stop offset="1" stop-color="#B3B3B3"/>
</linearGradient>
<clipPath id="clip0_3106_5030">
<rect width="48" height="48" fill="white" transform="translate(17 17)"/>
</clipPath>
</defs>
</svg>
