<svg width="442" height="403" viewBox="0 0 442 403" fill="none" xmlns="http://www.w3.org/2000/svg">
    <rect x="257" y="75" width="135.562" height="135.562" rx="67.7811" fill="#FFD700" fill-opacity="0.65" />
    <g filter="url(#filter0_d_3106_4761)">
        <rect x="266.73" y="84.7383" width="116.089" height="116.089" rx="58.0446" fill="#FFD700" fill-opacity="0.65"
            shape-rendering="crispEdges" />
    </g>
    <g filter="url(#filter1_d_3106_4761)">
        <rect x="276.477" y="94.4727" width="96.6162" height="96.6162" rx="48.3081" fill="#FFD700" />
    </g>
    <g clip-path="url(#clip0_3106_4761)">
        <path
            d="M324.571 168.851C340.328 168.851 353.102 156.208 353.102 140.613C353.102 125.018 340.328 112.375 324.571 112.375C308.813 112.375 296.039 125.018 296.039 140.613C296.039 156.208 308.813 168.851 324.571 168.851Z"
            fill="#C7B299" stroke="#161616" stroke-width="0.23431" stroke-miterlimit="10" />
        <path
            d="M292.797 143.089C292.797 124.663 306.003 109.453 326.243 109.453C345.151 109.453 356.952 122.781 356.952 139.483C356.952 157.905 343.746 173.119 323.665 173.119C304.675 173.119 292.801 159.791 292.801 143.089H292.797ZM323.976 168.254C340.462 168.254 351.013 155.475 351.013 139.794C351.013 135.81 350.931 124.546 342.62 120.121C335.225 116.187 326.778 120.577 325.742 121.138C324.026 120.18 316.985 116.491 310.032 119.171C298.488 123.619 298.74 141.181 298.74 142.774C298.74 157.045 308.351 168.254 323.98 168.254H323.976Z"
            fill="#161616" />
        <path
            d="M306.328 152.222C306.328 152.849 314.344 156.888 324.421 156.888C334.499 156.888 342.817 152.849 342.817 152.222C342.817 151.595 334.495 154.618 324.421 154.618C314.344 154.618 306.328 151.595 306.328 152.222Z"
            fill="#161616" />
        <path
            d="M324.378 153.467C327.915 153.467 330.783 151.549 330.783 149.183C330.783 146.817 327.915 144.898 324.378 144.898C320.84 144.898 317.973 146.817 317.973 149.183C317.973 151.549 320.84 153.467 324.378 153.467Z"
            fill="#161616" />
        <path
            d="M322.691 150.71C322.567 150.99 322.027 151.126 321.491 151.013C320.956 150.9 320.622 150.585 320.75 150.304C320.878 150.024 321.414 149.888 321.95 150.001C322.485 150.114 322.819 150.429 322.691 150.71Z"
            fill="#FFF9EF" />
        <path
            d="M326.188 150.71C326.312 150.99 326.851 151.126 327.387 151.013C327.923 150.9 328.257 150.585 328.128 150.304C328 150.024 327.465 149.888 326.929 150.001C326.393 150.114 326.059 150.429 326.188 150.71Z"
            fill="#FFF9EF" />
        <path
            d="M311.82 142.982C314.228 142.982 316.18 141.024 316.18 138.608C316.18 136.193 314.228 134.234 311.82 134.234C309.413 134.234 307.461 136.193 307.461 138.608C307.461 141.024 309.413 142.982 311.82 142.982Z"
            fill="#FFF9EF" stroke="#161616" stroke-width="0.23431" stroke-miterlimit="10" />
        <path
            d="M311.82 141.716C313.529 141.716 314.914 140.326 314.914 138.612C314.914 136.898 313.529 135.508 311.82 135.508C310.112 135.508 308.727 136.898 308.727 138.612C308.727 140.326 310.112 141.716 311.82 141.716Z"
            fill="#161616" stroke="#161616" stroke-width="0.23431" stroke-miterlimit="10" />
        <path
            d="M310.132 138.75C310.52 138.75 310.835 138.434 310.835 138.045C310.835 137.655 310.52 137.34 310.132 137.34C309.744 137.34 309.43 137.655 309.43 138.045C309.43 138.434 309.744 138.75 310.132 138.75Z"
            fill="#FFF9EF" />
        <path
            d="M337.441 142.982C339.849 142.982 341.801 141.024 341.801 138.608C341.801 136.193 339.849 134.234 337.441 134.234C335.034 134.234 333.082 136.193 333.082 138.608C333.082 141.024 335.034 142.982 337.441 142.982Z"
            fill="#FFF9EF" stroke="#101010" stroke-width="0.23431" stroke-miterlimit="10" />
        <path
            d="M337.441 141.716C339.15 141.716 340.535 140.326 340.535 138.612C340.535 136.898 339.15 135.508 337.441 135.508C335.733 135.508 334.348 136.898 334.348 138.612C334.348 140.326 335.733 141.716 337.441 141.716Z"
            fill="#161616" stroke="#161616" stroke-width="0.23431" stroke-miterlimit="10" />
        <path
            d="M335.753 138.75C336.141 138.75 336.456 138.434 336.456 138.045C336.456 137.655 336.141 137.34 335.753 137.34C335.365 137.34 335.051 137.655 335.051 138.045C335.051 138.434 335.365 138.75 335.753 138.75Z"
            fill="#FFF9EF" />
        <path
            d="M362.614 130.715H361.061H359.299H355.98L326.777 130.727H326.125H322.81H319.491L293.603 130.734H290.284H286.965V134.064V137.395H290.284V140.725H293.603V144.051H296.922V147.373H300.241V148.853V149.036V150.699H303.56H306.879H310.198H313.517V149.04V147.377H316.836V144.047H320.151V140.721H326.785V137.391H323.466H324.797H326.781V134.061V137.387V140.713H330.1V144.039H333.415V147.362H336.73V150.692H339.397V150.699H342.716H346.035H349.354V149.036V147.373V147.362H352.669V144.035H355.984V140.705H359.299V137.387H362.618V130.723L362.614 130.715ZM337.914 147.362H338.562H337.029H337.91H337.914Z"
            fill="#161616" />
        <path d="M301.826 136.743L298.508 136.805L298.569 140.134L301.888 140.073L301.826 136.743Z" fill="#FFF9EF" />
        <path d="M305.201 140.017L301.883 140.078L301.944 143.408L305.263 143.346L305.201 140.017Z" fill="#FFF9EF" />
        <path d="M298.447 133.477L295.129 133.539L295.19 136.869L298.509 136.807L298.447 133.477Z" fill="#FFF9EF" />
        <path d="M337.65 136.083L334.332 136.145L334.393 139.474L337.712 139.412L337.65 136.083Z" fill="#FFF9EF" />
        <path d="M341.033 139.345L337.715 139.406L337.776 142.736L341.095 142.674L341.033 139.345Z" fill="#FFF9EF" />
        <path d="M334.275 132.813L330.957 132.875L331.018 136.205L334.337 136.143L334.275 132.813Z" fill="#FFF9EF" />
        <path d="M301.826 136.743L298.508 136.805L298.569 140.134L301.888 140.073L301.826 136.743Z" fill="#FFF9EF" />
        <path d="M305.201 140.017L301.883 140.078L301.944 143.408L305.263 143.346L305.201 140.017Z" fill="#FFF9EF" />
        <path d="M298.381 133.479L295.125 133.539L295.185 136.806L298.442 136.746L298.381 133.479Z" fill="#FFF9EF" />
        <path d="M308.451 136.626L305.133 136.688L305.194 140.017L308.513 139.955L308.451 136.626Z" fill="#FFF9EF" />
        <path d="M311.834 139.888L308.516 139.949L308.577 143.279L311.895 143.217L311.834 139.888Z" fill="#FFF9EF" />
        <path d="M305.076 133.356L301.758 133.418L301.819 136.748L305.138 136.686L305.076 133.356Z" fill="#FFF9EF" />
        <path d="M344.287 135.958L340.969 136.02L341.03 139.349L344.349 139.287L344.287 135.958Z" fill="#FFF9EF" />
        <path d="M347.666 139.224L344.348 139.285L344.409 142.615L347.727 142.553L347.666 139.224Z" fill="#FFF9EF" />
        <path d="M340.912 132.692L337.594 132.754L337.655 136.083L340.974 136.022L340.912 132.692Z" fill="#FFF9EF" />
    </g>
    <rect x="2" y="77" width="95.7185" height="95.7185" rx="47.8592" fill="#EA860D" fill-opacity="0.65" />
    <g filter="url(#filter2_d_3106_4761)">
        <rect x="8.875" y="83.875" width="81.9688" height="81.9688" rx="40.9844" fill="#EA860D" fill-opacity="0.65"
            shape-rendering="crispEdges" />
    </g>
    <g filter="url(#filter3_d_3106_4761)">
        <rect x="15.75" y="90.75" width="68.2192" height="68.2192" rx="34.1096" fill="#EA860D" />
    </g>
    <g clip-path="url(#clip1_3106_4761)">
        <path
            d="M50.0494 144.161C61.0254 144.161 69.9231 135.381 69.9231 124.551C69.9231 113.721 61.0254 104.941 50.0494 104.941C39.0735 104.941 30.1758 113.721 30.1758 124.551C30.1758 135.381 39.0735 144.161 50.0494 144.161Z"
            fill="#C7B299" stroke="#161616" stroke-width="0.23431" stroke-miterlimit="10" />
        <path
            d="M27.9141 126.272C27.9141 113.476 37.1127 102.914 51.2109 102.914C64.3816 102.914 72.6014 112.17 72.6014 123.768C72.6014 136.561 63.4027 147.126 49.4155 147.126C36.188 147.123 27.9141 137.868 27.9141 126.272ZM49.6318 143.748C61.1152 143.748 68.4644 134.874 68.4644 123.984C68.4644 121.217 68.4077 113.395 62.6186 110.322C57.4677 107.591 51.584 110.639 50.8621 111.028C49.6669 110.363 44.7621 107.802 39.9194 109.662C31.878 112.751 32.0537 124.947 32.0537 126.053C32.0537 135.964 38.7486 143.748 49.6345 143.748H49.6318Z"
            fill="#161616" />
        <path
            d="M59.5778 130.556C64.6395 133.234 70.0202 132.996 71.5939 130.021C73.1676 127.045 70.3393 122.461 65.2776 119.783C60.2159 117.105 55.1299 114.674 53.2615 120.319C51.2308 126.464 54.5161 127.878 59.5778 130.556ZM59.1965 123.81C57.704 123.81 56.4602 123.015 56.4169 122.041C56.3737 121.068 57.0605 121.455 58.553 121.457C60.0456 121.46 61.7788 121.076 61.822 122.052C61.8653 123.026 60.6891 123.813 59.1965 123.81Z"
            fill="#161616" />
        <path
            d="M46.8145 120.319C44.9488 114.675 39.8628 117.103 34.7984 119.784C29.7367 122.462 26.9084 127.046 28.4821 130.021C30.0558 132.997 35.4338 133.237 40.4982 130.557C45.5599 127.879 48.8479 126.465 46.8145 120.319ZM38.2513 122.053C38.2945 121.079 40.0277 121.464 41.5203 121.458C43.0128 121.455 43.6996 121.069 43.6564 122.042C43.6131 123.016 42.3693 123.809 40.8768 123.811C39.3842 123.814 38.208 123.027 38.2513 122.053Z"
            fill="#161616" />
        <path
            d="M49.9146 133.478C52.3785 133.478 54.376 132.146 54.376 130.503C54.376 128.859 52.3785 127.527 49.9146 127.527C47.4506 127.527 45.4531 128.859 45.4531 130.503C45.4531 132.146 47.4506 133.478 49.9146 133.478Z"
            fill="#161616" />
        <path
            d="M48.7382 131.563C48.6517 131.758 48.2758 131.852 47.9027 131.774C47.5296 131.695 47.297 131.476 47.3863 131.282C47.4755 131.087 47.8486 130.992 48.2218 131.071C48.5949 131.149 48.8274 131.368 48.7382 131.563Z"
            fill="white" />
        <path
            d="M51.1714 131.563C51.2579 131.758 51.6338 131.852 52.0069 131.774C52.3801 131.695 52.6126 131.476 52.5234 131.282C52.4341 131.087 52.061 130.992 51.6879 131.071C51.3147 131.149 51.0822 131.368 51.1714 131.563Z"
            fill="white" />
        <path
            d="M41.2412 126.713C43.344 126.713 45.0488 125.008 45.0488 122.905C45.0488 120.802 43.344 119.098 41.2412 119.098C39.1383 119.098 37.4336 120.802 37.4336 122.905C37.4336 125.008 39.1383 126.713 41.2412 126.713Z"
            fill="white" stroke="#161616" stroke-width="0.23431" stroke-miterlimit="10" />
        <path
            d="M41.2415 125.761C42.6434 125.761 43.7799 124.554 43.7799 123.064C43.7799 121.575 42.6434 120.367 41.2415 120.367C39.8396 120.367 38.7031 121.575 38.7031 123.064C38.7031 124.554 39.8396 125.761 41.2415 125.761Z"
            fill="#161616" stroke="#161616" stroke-width="0.23431" stroke-miterlimit="10" />
        <path
            d="M47.4275 137.104C48.3037 137.104 50.7591 136.394 50.7591 135.518C50.7591 134.642 49.6486 135.517 47.9035 135.518C47.0273 135.518 44.7305 133.69 44.7305 134.566C44.7305 135.442 46.5513 137.104 47.4275 137.104Z"
            fill="#161616" stroke="#161616" stroke-width="0.23431" stroke-miterlimit="10" />
        <path
            d="M39.6541 123.222C40.0046 123.222 40.2887 122.938 40.2887 122.588C40.2887 122.237 40.0046 121.953 39.6541 121.953C39.3037 121.953 39.0195 122.237 39.0195 122.588C39.0195 122.938 39.3037 123.222 39.6541 123.222Z"
            fill="white" />
        <path
            d="M59.0107 126.713C61.1136 126.713 62.8183 125.008 62.8183 122.905C62.8183 120.802 61.1136 119.098 59.0107 119.098C56.9078 119.098 55.2031 120.802 55.2031 122.905C55.2031 125.008 56.9078 126.713 59.0107 126.713Z"
            fill="white" stroke="#101010" stroke-width="0.23431" stroke-miterlimit="10" />
        <path
            d="M58.8494 125.761C60.3389 125.761 61.5464 124.554 61.5464 123.064C61.5464 121.575 60.3389 120.367 58.8494 120.367C57.3598 120.367 56.1523 121.575 56.1523 123.064C56.1523 124.554 57.3598 125.761 58.8494 125.761Z"
            fill="#161616" stroke="#161616" stroke-width="0.23431" stroke-miterlimit="10" />
        <path
            d="M57.4237 123.222C57.7741 123.222 58.0583 122.938 58.0583 122.588C58.0583 122.237 57.7741 121.953 57.4237 121.953C57.0732 121.953 56.7891 122.237 56.7891 122.588C56.7891 122.938 57.0732 123.222 57.4237 123.222Z"
            fill="white" />
    </g>
    <rect x="267" y="228" width="174.418" height="174.418" rx="87.209" fill="#BE621C" fill-opacity="0.65" />
    <g filter="url(#filter4_d_3106_4761)">
        <rect x="279.527" y="240.523" width="149.363" height="149.363" rx="74.6817" fill="#BE621C" fill-opacity="0.65"
            shape-rendering="crispEdges" />
    </g>
    <g filter="url(#filter5_d_3106_4761)">
        <rect x="292.051" y="253.055" width="124.309" height="124.309" rx="62.1545" fill="#BE621C" />
    </g>
    <path
        d="M354.552 345.057C373.923 345.057 389.627 329.577 389.627 310.482C389.627 291.386 373.923 275.906 354.552 275.906C335.18 275.906 319.477 291.386 319.477 310.482C319.477 329.577 335.18 345.057 354.552 345.057Z"
        fill="#C7B299" stroke="#161616" stroke-width="0.23431" stroke-miterlimit="10" />
    <path
        d="M315.488 313.514C315.488 290.951 331.723 272.328 356.605 272.328C379.85 272.328 394.357 288.648 394.357 309.097C394.357 331.655 378.122 350.283 353.436 350.283C330.091 350.283 315.493 333.963 315.493 313.514H315.488ZM353.818 344.326C374.085 344.326 387.056 328.679 387.056 309.479C387.056 304.6 386.955 290.808 376.738 285.391C367.647 280.574 356.721 283.876 355.861 288.421C355.001 283.876 345.223 280.946 336.676 284.227C322.484 289.673 322.794 311.177 322.794 313.127C322.794 330.601 334.61 344.326 353.823 344.326H353.818Z"
        fill="#161616" />
    <path
        d="M332.121 324.699C332.121 325.466 341.976 330.412 354.364 330.412C366.752 330.412 376.979 325.466 376.979 324.699C376.979 323.931 366.748 327.632 354.364 327.632C341.976 327.632 332.121 323.931 332.121 324.699Z"
        fill="#161616" />
    <path
        d="M354.311 326.218C358.66 326.218 362.185 323.87 362.185 320.973C362.185 318.075 358.66 315.727 354.311 315.727C349.963 315.727 346.438 318.075 346.438 320.973C346.438 323.87 349.963 326.218 354.311 326.218Z"
        fill="#161616" />
    <path
        d="M352.236 322.842C352.083 323.186 351.42 323.353 350.762 323.214C350.103 323.076 349.693 322.69 349.85 322.346C350.008 322.003 350.666 321.836 351.325 321.974C351.983 322.113 352.394 322.499 352.236 322.842Z"
        fill="#FFF9EF" />
    <path
        d="M356.538 322.842C356.69 323.186 357.354 323.353 358.012 323.214C358.671 323.076 359.081 322.69 358.924 322.346C358.766 322.003 358.108 321.836 357.449 321.974C356.79 322.113 356.38 322.499 356.538 322.842Z"
        fill="#FFF9EF" />
    <path
        d="M338.875 313.383C341.834 313.383 344.234 310.985 344.234 308.028C344.234 305.07 341.834 302.672 338.875 302.672C335.915 302.672 333.516 305.07 333.516 308.028C333.516 310.985 335.915 313.383 338.875 313.383Z"
        fill="#FFF9EF" stroke="#161616" stroke-width="0.23431" stroke-miterlimit="10" />
    <path
        d="M338.878 311.828C340.978 311.828 342.681 310.127 342.681 308.027C342.681 305.928 340.978 304.227 338.878 304.227C336.777 304.227 335.074 305.928 335.074 308.027C335.074 310.127 336.777 311.828 338.878 311.828Z"
        fill="#161616" stroke="#161616" stroke-width="0.23431" stroke-miterlimit="10" />
    <path
        d="M336.801 308.199C337.278 308.199 337.665 307.813 337.665 307.336C337.665 306.859 337.278 306.473 336.801 306.473C336.324 306.473 335.938 306.859 335.938 307.336C335.938 307.813 336.324 308.199 336.801 308.199Z"
        fill="#FFF9EF" />
    <path
        d="M370.371 313.383C373.331 313.383 375.73 310.985 375.73 308.028C375.73 305.07 373.331 302.672 370.371 302.672C367.411 302.672 365.012 305.07 365.012 308.028C365.012 310.985 367.411 313.383 370.371 313.383Z"
        fill="#FFF9EF" stroke="#101010" stroke-width="0.23431" stroke-miterlimit="10" />
    <path
        d="M370.37 311.828C372.47 311.828 374.173 310.127 374.173 308.027C374.173 305.928 372.47 304.227 370.37 304.227C368.269 304.227 366.566 305.928 366.566 308.027C366.566 310.127 368.269 311.828 370.37 311.828Z"
        fill="#161616" stroke="#161616" stroke-width="0.23431" stroke-miterlimit="10" />
    <path
        d="M368.293 308.199C368.77 308.199 369.157 307.813 369.157 307.336C369.157 306.859 368.77 306.473 368.293 306.473C367.816 306.473 367.43 306.859 367.43 307.336C367.43 307.813 367.816 308.199 368.293 308.199Z"
        fill="#FFF9EF" />
    <path
        d="M406.722 295.668H404.566H402.12H397.512L356.966 295.684H356.061H351.458H346.85L310.907 295.695H306.299H301.691V300.3V304.905H306.299V309.51H310.907V314.11H315.516V318.704H320.124V320.751V321.004V323.304H324.732H329.34H333.948H338.556V321.009V318.71H343.164V314.104H347.766V309.505H356.977V304.9H352.369H354.218H356.972V300.295V304.894V309.494H361.58V314.094H366.182V318.688H370.785V323.293H374.488V323.304H379.096H383.704H388.312V321.004V318.704V318.688H392.914V314.088H397.517V309.483H402.12V304.894H406.728V295.679L406.722 295.668ZM372.429 318.688H373.329H371.2H372.423H372.429Z"
        fill="#161616" />
    <path d="M322.322 304.005L317.715 304.09L317.8 308.694L322.407 308.609L322.322 304.005Z" fill="#FFF9EF" />
    <path d="M327.01 308.528L322.402 308.613L322.488 313.218L327.095 313.132L327.01 308.528Z" fill="#FFF9EF" />
    <path d="M317.631 299.489L313.023 299.574L313.109 304.179L317.716 304.093L317.631 299.489Z" fill="#FFF9EF" />
    <path d="M372.064 303.091L367.457 303.176L367.542 307.78L372.15 307.695L372.064 303.091Z" fill="#FFF9EF" />
    <path d="M376.76 307.602L372.152 307.688L372.238 312.292L376.845 312.207L376.76 307.602Z" fill="#FFF9EF" />
    <path d="M367.377 298.567L362.77 298.652L362.855 303.257L367.462 303.171L367.377 298.567Z" fill="#FFF9EF" />
    <path d="M322.322 304.005L317.715 304.09L317.8 308.694L322.407 308.609L322.322 304.005Z" fill="#FFF9EF" />
    <path d="M327.01 308.528L322.402 308.613L322.488 313.218L327.095 313.132L327.01 308.528Z" fill="#FFF9EF" />
    <path d="M317.541 299.491L313.02 299.574L313.103 304.092L317.624 304.009L317.541 299.491Z" fill="#FFF9EF" />
    <path d="M331.525 303.841L326.918 303.926L327.003 308.53L331.61 308.445L331.525 303.841Z" fill="#FFF9EF" />
    <path d="M336.221 308.352L331.613 308.438L331.699 313.042L336.306 312.957L336.221 308.352Z" fill="#FFF9EF" />
    <path d="M326.838 299.321L322.23 299.406L322.316 304.011L326.923 303.925L326.838 299.321Z" fill="#FFF9EF" />
    <path d="M381.275 302.919L376.668 303.004L376.753 307.608L381.36 307.523L381.275 302.919Z" fill="#FFF9EF" />
    <path d="M385.967 307.43L381.359 307.516L381.445 312.12L386.052 312.035L385.967 307.43Z" fill="#FFF9EF" />
    <path d="M376.592 298.403L371.984 298.488L372.07 303.093L376.677 303.007L376.592 298.403Z" fill="#FFF9EF" />
    <mask id="path-81-inside-1_3106_4761" fill="white">
        <path
            d="M330.059 344.442C330.059 340.388 329.609 337.317 330.427 334.491C331.923 329.332 340.069 323.581 347.789 325.929C342.71 325.929 336.852 328.918 334.859 332.157C333.498 334.369 332.575 337.44 332.27 340.388C331.901 343.951 331.902 345.249 331.042 347.882C330.182 350.514 329.076 352.059 327.645 354.128C329.028 350.799 330.059 348.496 330.059 344.442Z" />
        <path
            d="M378.128 344.455C378.128 340.401 378.578 337.329 377.759 334.504C376.264 329.344 368.118 323.593 360.398 325.941C365.476 325.941 371.334 328.931 373.328 332.17C374.688 334.381 375.612 337.452 375.917 340.401C376.285 343.963 376.285 345.262 377.145 347.894C378.005 350.527 379.11 352.071 380.542 354.14C379.159 350.811 378.128 348.508 378.128 344.455Z" />
        <path
            d="M341.546 281.04C341.546 281.04 342.406 284.634 349.053 284.716C355.138 284.791 355.814 288.341 355.884 288.94C355.889 288.996 355.892 289.025 355.892 289.025C355.892 289.025 355.896 288.988 355.899 288.919C355.962 288.262 356.579 284.79 362.596 284.716C369.242 284.633 370.103 281.04 370.103 281.04C370.103 281.04 369.824 282.194 362.486 282.537C356.862 282.8 355.985 286.471 355.883 288.171C355.743 286.471 354.787 282.8 349.163 282.537C341.824 282.194 341.546 281.04 341.546 281.04Z" />
        <path
            d="M341.546 280.302C341.546 280.302 342.406 283.895 349.053 283.978C355.138 284.053 355.814 287.603 355.884 288.202C355.889 288.257 355.892 288.287 355.892 288.287C355.892 288.287 355.896 288.25 355.899 288.181C355.962 287.524 356.579 284.052 362.596 283.978C369.242 283.895 370.103 280.302 370.103 280.302C370.103 280.302 369.824 281.456 362.486 281.799C356.862 282.062 355.985 285.732 355.883 287.433C355.743 285.733 354.787 282.062 349.163 281.799C341.824 281.456 341.546 280.302 341.546 280.302Z" />
        <path
            d="M341.552 278.84C341.552 278.84 342.412 282.433 349.058 282.516C355.144 282.591 355.672 286.115 355.742 286.714C355.747 286.77 355.888 287.801 355.888 287.801C355.888 287.801 355.985 286.783 355.988 286.714C356.111 286.1 356.584 282.59 362.601 282.516C369.248 282.433 370.108 278.84 370.108 278.84C370.108 278.84 369.83 279.994 362.491 280.337C356.868 280.6 355.991 284.27 355.888 285.971C355.748 284.271 354.792 280.6 349.168 280.337C341.83 279.994 341.552 278.84 341.552 278.84Z" />
        <path
            d="M359.235 344.016C358.082 353.941 363.272 355.914 363.272 355.914C363.272 355.914 361.606 355.277 362.503 344.271C363.4 333.264 354.301 333.073 354.301 333.073C354.301 333.073 360.389 334.091 359.235 344.016Z" />
        <path
            d="M349.374 344.016C350.527 353.941 345.337 355.914 345.337 355.914C345.337 355.914 347.003 355.277 346.106 344.271C345.208 333.264 354.308 333.073 354.308 333.073C354.308 333.073 348.22 334.091 349.374 344.016Z" />
        <path
            d="M359.202 345.681C356.821 357.728 354.3 362.911 354.3 362.911C354.3 362.911 350.956 356.592 349.258 345.681C347.297 333.073 354.3 333.073 354.3 333.073C354.3 333.073 361.584 333.634 359.202 345.681Z" />
    </mask>
    <path
        d="M330.059 344.442C330.059 340.388 329.609 337.317 330.427 334.491C331.923 329.332 340.069 323.581 347.789 325.929C342.71 325.929 336.852 328.918 334.859 332.157C333.498 334.369 332.575 337.44 332.27 340.388C331.901 343.951 331.902 345.249 331.042 347.882C330.182 350.514 329.076 352.059 327.645 354.128C329.028 350.799 330.059 348.496 330.059 344.442Z"
        fill="white" />
    <path
        d="M378.128 344.455C378.128 340.401 378.578 337.329 377.759 334.504C376.264 329.344 368.118 323.593 360.398 325.941C365.476 325.941 371.334 328.931 373.328 332.17C374.688 334.381 375.612 337.452 375.917 340.401C376.285 343.963 376.285 345.262 377.145 347.894C378.005 350.527 379.11 352.071 380.542 354.14C379.159 350.811 378.128 348.508 378.128 344.455Z"
        fill="white" />
    <path
        d="M341.546 281.04C341.546 281.04 342.406 284.634 349.053 284.716C355.138 284.791 355.814 288.341 355.884 288.94C355.889 288.996 355.892 289.025 355.892 289.025C355.892 289.025 355.896 288.988 355.899 288.919C355.962 288.262 356.579 284.79 362.596 284.716C369.242 284.633 370.103 281.04 370.103 281.04C370.103 281.04 369.824 282.194 362.486 282.537C356.862 282.8 355.985 286.471 355.883 288.171C355.743 286.471 354.787 282.8 349.163 282.537C341.824 282.194 341.546 281.04 341.546 281.04Z"
        fill="white" />
    <path
        d="M341.546 280.302C341.546 280.302 342.406 283.895 349.053 283.978C355.138 284.053 355.814 287.603 355.884 288.202C355.889 288.257 355.892 288.287 355.892 288.287C355.892 288.287 355.896 288.25 355.899 288.181C355.962 287.524 356.579 284.052 362.596 283.978C369.242 283.895 370.103 280.302 370.103 280.302C370.103 280.302 369.824 281.456 362.486 281.799C356.862 282.062 355.985 285.732 355.883 287.433C355.743 285.733 354.787 282.062 349.163 281.799C341.824 281.456 341.546 280.302 341.546 280.302Z"
        fill="white" />
    <path
        d="M341.552 278.84C341.552 278.84 342.412 282.433 349.058 282.516C355.144 282.591 355.672 286.115 355.742 286.714C355.747 286.77 355.888 287.801 355.888 287.801C355.888 287.801 355.985 286.783 355.988 286.714C356.111 286.1 356.584 282.59 362.601 282.516C369.248 282.433 370.108 278.84 370.108 278.84C370.108 278.84 369.83 279.994 362.491 280.337C356.868 280.6 355.991 284.27 355.888 285.971C355.748 284.271 354.792 280.6 349.168 280.337C341.83 279.994 341.552 278.84 341.552 278.84Z"
        fill="white" />
    <path
        d="M359.235 344.016C358.082 353.941 363.272 355.914 363.272 355.914C363.272 355.914 361.606 355.277 362.503 344.271C363.4 333.264 354.301 333.073 354.301 333.073C354.301 333.073 360.389 334.091 359.235 344.016Z"
        fill="white" />
    <path
        d="M349.374 344.016C350.527 353.941 345.337 355.914 345.337 355.914C345.337 355.914 347.003 355.277 346.106 344.271C345.208 333.264 354.308 333.073 354.308 333.073C354.308 333.073 348.22 334.091 349.374 344.016Z"
        fill="white" />
    <path
        d="M359.202 345.681C356.821 357.728 354.3 362.911 354.3 362.911C354.3 362.911 350.956 356.592 349.258 345.681C347.297 333.073 354.3 333.073 354.3 333.073C354.3 333.073 361.584 333.634 359.202 345.681Z"
        fill="white" />
    <path
        d="M356.892 289.04L356.892 289.04L354.892 289.01L354.892 289.01L356.892 289.04ZM356.892 288.306L356.892 288.306L354.892 288.268L354.892 288.269L356.892 288.306ZM356.767 287.323L356.371 286.595L354.614 287.549L355.01 288.278L356.767 287.323ZM330.427 334.491L332.348 335.048L330.427 334.491ZM347.789 325.929V327.929L348.371 324.015L347.789 325.929ZM334.859 332.157L336.562 333.206L334.859 332.157ZM332.27 340.388L334.259 340.594L332.27 340.388ZM327.645 354.128L325.798 353.36L329.289 355.266L327.645 354.128ZM377.759 334.504L375.838 335.061L377.759 334.504ZM360.398 325.941L359.816 324.028L360.398 327.941V325.941ZM373.328 332.17L371.624 333.218L373.328 332.17ZM375.917 340.401L373.927 340.607L375.917 340.401ZM380.542 354.14L378.897 355.278L382.389 353.373L380.542 354.14ZM349.053 284.716L349.028 286.716L349.053 284.716ZM341.546 281.04L343.49 280.571L339.601 281.506L341.546 281.04ZM355.884 288.94L357.878 288.788L357.875 288.747L357.87 288.706L355.884 288.94ZM355.892 289.025L353.907 289.266L357.882 289.224L355.892 289.025ZM355.899 288.919L353.908 288.728L353.904 288.775L353.902 288.822L355.899 288.919ZM362.596 284.716L362.62 286.715L362.596 284.716ZM370.103 281.04L372.048 281.505L368.158 280.571L370.103 281.04ZM362.486 282.537L362.579 284.535L362.486 282.537ZM355.883 288.171L353.889 288.335L357.879 288.292L355.883 288.171ZM349.163 282.537L349.069 284.535L349.163 282.537ZM349.053 283.978L349.028 285.977L349.053 283.978ZM341.546 280.302L343.49 279.833L339.601 280.768L341.546 280.302ZM355.884 288.202L357.878 288.05L357.875 288.009L357.87 287.968L355.884 288.202ZM355.892 288.287L353.907 288.528L357.882 288.486L355.892 288.287ZM355.899 288.181L353.908 287.99L353.904 288.037L353.902 288.084L355.899 288.181ZM362.596 283.978L362.62 285.977L362.596 283.978ZM370.103 280.302L372.048 280.767L368.158 279.833L370.103 280.302ZM362.486 281.799L362.579 283.797L362.486 281.799ZM355.883 287.433L353.889 287.597L357.879 287.554L355.883 287.433ZM349.163 281.799L349.069 283.797L349.163 281.799ZM349.058 282.516L349.034 284.515H349.034L349.058 282.516ZM341.552 278.84L343.496 278.371L339.607 279.306L341.552 278.84ZM355.742 286.714L357.737 286.562L357.733 286.521L357.729 286.48L355.742 286.714ZM355.888 287.801L353.907 288.073L357.879 287.989L355.888 287.801ZM355.988 286.714L354.027 286.322L353.998 286.468L353.99 286.617L355.988 286.714ZM362.601 282.516L362.626 284.515L362.601 282.516ZM370.108 278.84L372.053 279.305L368.164 278.371L370.108 278.84ZM362.491 280.337L362.585 282.335L362.491 280.337ZM355.888 285.971L353.895 286.135L357.885 286.092L355.888 285.971ZM349.168 280.337L349.075 282.335L349.168 280.337ZM359.235 344.016L357.248 343.785L359.235 344.016ZM363.272 355.914L362.562 357.783L363.986 354.045L363.272 355.914ZM354.301 333.073L354.343 331.074L353.971 335.046L354.301 333.073ZM349.374 344.016L351.36 343.785L349.374 344.016ZM345.337 355.914L344.623 354.045L346.047 357.783L345.337 355.914ZM354.308 333.073L354.638 335.046L354.266 331.074L354.308 333.073ZM354.3 362.911L352.533 363.846L354.376 367.328L356.099 363.785L354.3 362.911ZM349.258 345.681L351.235 345.373L349.258 345.681ZM354.3 333.073L354.454 331.079L354.377 331.073H354.3L354.3 333.073ZM332.059 344.442C332.059 343.394 332.03 342.414 332 341.509C331.97 340.594 331.941 339.774 331.936 338.994C331.926 337.433 332.019 336.185 332.348 335.048L328.506 333.935C328.017 335.623 327.925 337.324 327.936 339.019C327.941 339.866 327.973 340.75 328.002 341.64C328.032 342.539 328.059 343.464 328.059 344.442H332.059ZM332.348 335.048C332.907 333.12 334.868 330.758 337.753 329.139C340.586 327.549 343.988 326.863 347.207 327.842L348.371 324.015C343.87 322.646 339.338 323.662 335.795 325.651C332.303 327.61 329.443 330.703 328.506 333.935L332.348 335.048ZM347.789 323.929C344.886 323.929 341.852 324.774 339.286 326.033C336.755 327.275 334.425 329.046 333.156 331.109L336.562 333.206C337.286 332.029 338.882 330.686 341.048 329.624C343.179 328.578 345.613 327.929 347.789 327.929V323.929ZM333.156 331.109C331.602 333.633 330.609 337.01 330.28 340.183L334.259 340.594C334.541 337.869 335.394 335.104 336.562 333.206L333.156 331.109ZM330.28 340.183C329.901 343.854 329.917 344.883 329.14 347.261L332.943 348.503C333.886 345.615 333.902 344.047 334.259 340.594L330.28 340.183ZM329.14 347.261C328.382 349.582 327.44 350.908 326 352.99L329.289 355.266C330.712 353.209 331.981 351.446 332.943 348.503L329.14 347.261ZM329.491 354.895C330.871 351.574 332.059 348.938 332.059 344.442H328.059C328.059 348.054 327.184 350.023 325.798 353.36L329.491 354.895ZM380.128 344.455C380.128 343.476 380.155 342.552 380.184 341.652C380.213 340.763 380.245 339.878 380.25 339.031C380.261 337.336 380.169 335.636 379.68 333.947L375.838 335.061C376.168 336.198 376.26 337.446 376.25 339.006C376.246 339.787 376.216 340.607 376.186 341.522C376.157 342.426 376.128 343.406 376.128 344.455H380.128ZM379.68 333.947C378.744 330.716 375.884 327.623 372.391 325.663C368.848 323.675 364.316 322.659 359.816 324.028L360.98 327.854C364.199 326.875 367.6 327.561 370.434 329.151C373.319 330.77 375.279 333.132 375.838 335.061L379.68 333.947ZM360.398 327.941C362.574 327.941 365.007 328.59 367.139 329.636C369.304 330.699 370.9 332.042 371.624 333.218L375.031 331.122C373.761 329.059 371.432 327.287 368.901 326.045C366.335 324.786 363.3 323.941 360.398 323.941V327.941ZM371.624 333.218C372.792 335.116 373.645 337.882 373.927 340.607L377.906 340.195C377.578 337.023 376.584 333.646 375.031 331.122L371.624 333.218ZM373.927 340.607C374.285 344.06 374.3 345.627 375.244 348.515L379.046 347.273C378.27 344.896 378.286 343.867 377.906 340.195L373.927 340.607ZM375.244 348.515C376.205 351.459 377.474 353.221 378.897 355.278L382.187 353.002C380.746 350.921 379.805 349.595 379.046 347.273L375.244 348.515ZM382.389 353.373C381.002 350.036 380.128 348.066 380.128 344.455H376.128C376.128 348.95 377.315 351.587 378.695 354.908L382.389 353.373ZM349.078 282.716C346.129 282.679 344.739 281.876 344.119 281.337C343.794 281.056 343.623 280.798 343.54 280.645C343.498 280.567 343.477 280.515 343.471 280.499C343.468 280.491 343.469 280.492 343.473 280.504C343.474 280.51 343.477 280.519 343.48 280.531C343.482 280.536 343.483 280.543 343.485 280.55C343.486 280.554 343.487 280.558 343.488 280.562C343.489 280.564 343.489 280.566 343.49 280.568C343.49 280.569 343.49 280.571 343.49 280.571C343.491 280.573 343.491 280.574 341.546 281.04C339.601 281.506 339.601 281.507 339.602 281.509C339.602 281.51 339.602 281.511 339.603 281.512C339.603 281.515 339.604 281.517 339.604 281.52C339.606 281.524 339.607 281.53 339.608 281.535C339.611 281.546 339.614 281.557 339.617 281.57C339.624 281.595 339.632 281.624 339.642 281.656C339.662 281.721 339.687 281.8 339.721 281.89C339.788 282.071 339.886 282.3 340.029 282.561C340.314 283.084 340.774 283.73 341.495 284.357C342.967 285.635 345.33 286.67 349.028 286.716L349.078 282.716ZM357.87 288.706C357.805 288.154 357.512 286.639 356.163 285.242C354.774 283.804 352.528 282.758 349.078 282.716L349.028 286.716C351.663 286.748 352.797 287.515 353.285 288.021C353.813 288.567 353.892 289.127 353.898 289.174L357.87 288.706ZM353.89 289.092C353.893 289.136 353.897 289.172 353.9 289.202C353.901 289.216 353.902 289.229 353.904 289.24C353.904 289.245 353.905 289.25 353.905 289.254C353.906 289.256 353.906 289.259 353.906 289.26C353.906 289.261 353.906 289.262 353.906 289.263C353.906 289.264 353.906 289.264 353.906 289.265C353.907 289.265 353.907 289.265 353.907 289.265C353.907 289.265 353.907 289.266 353.907 289.266C353.907 289.266 353.907 289.266 353.907 289.266C353.907 289.266 353.907 289.266 355.892 289.025C357.878 288.785 357.878 288.785 357.878 288.785C357.878 288.785 357.878 288.785 357.878 288.785C357.878 288.785 357.878 288.785 357.878 288.785C357.878 288.786 357.878 288.786 357.878 288.786C357.878 288.786 357.878 288.787 357.878 288.787C357.878 288.788 357.878 288.789 357.878 288.79C357.878 288.791 357.879 288.792 357.879 288.794C357.879 288.796 357.879 288.798 357.879 288.8C357.88 288.804 357.88 288.805 357.88 288.805C357.88 288.806 357.879 288.8 357.878 288.788L353.89 289.092ZM353.902 288.822C353.901 288.838 353.9 288.847 353.9 288.848C353.9 288.849 353.9 288.847 353.9 288.844C353.901 288.842 353.901 288.84 353.901 288.837C353.901 288.836 353.901 288.834 353.901 288.833C353.902 288.832 353.902 288.831 353.902 288.83C353.902 288.83 353.902 288.829 353.902 288.829C353.902 288.828 353.902 288.828 353.902 288.828C353.902 288.828 353.902 288.828 353.902 288.828C353.902 288.828 353.902 288.827 353.902 288.827C353.902 288.827 353.902 288.827 355.892 289.025C357.882 289.224 357.882 289.223 357.882 289.223C357.882 289.223 357.882 289.223 357.882 289.223C357.882 289.223 357.882 289.223 357.882 289.223C357.882 289.223 357.882 289.222 357.882 289.222C357.882 289.222 357.883 289.221 357.883 289.22C357.883 289.219 357.883 289.218 357.883 289.217C357.883 289.215 357.883 289.213 357.884 289.21C357.884 289.205 357.885 289.199 357.885 289.193C357.886 289.18 357.887 289.165 357.889 289.148C357.891 289.113 357.894 289.068 357.897 289.015L353.902 288.822ZM357.89 289.109C357.897 289.036 357.968 288.498 358.463 287.978C358.919 287.499 360.012 286.748 362.62 286.715L362.571 282.716C359.163 282.758 356.938 283.779 355.567 285.219C354.233 286.618 353.964 288.144 353.908 288.728L357.89 289.109ZM362.62 286.715C366.319 286.67 368.682 285.635 370.153 284.357C370.875 283.73 371.334 283.084 371.62 282.561C371.762 282.3 371.861 282.071 371.928 281.89C371.961 281.8 371.987 281.721 372.007 281.656C372.016 281.624 372.024 281.595 372.031 281.57C372.035 281.557 372.038 281.546 372.04 281.535C372.042 281.529 372.043 281.524 372.044 281.519C372.045 281.517 372.045 281.515 372.046 281.512C372.046 281.511 372.047 281.509 372.047 281.509C372.047 281.507 372.048 281.505 370.103 281.04C368.158 280.574 368.158 280.573 368.158 280.571C368.158 280.57 368.159 280.569 368.159 280.568C368.16 280.566 368.16 280.564 368.161 280.562C368.162 280.558 368.163 280.554 368.163 280.55C368.165 280.543 368.167 280.536 368.169 280.53C368.172 280.519 368.174 280.51 368.176 280.504C368.18 280.492 368.18 280.491 368.177 280.499C368.171 280.515 368.151 280.567 368.109 280.645C368.025 280.797 367.854 281.055 367.53 281.337C366.91 281.876 365.52 282.679 362.571 282.716L362.62 286.715ZM370.103 281.04C368.158 280.571 368.16 280.565 368.161 280.56C368.162 280.558 368.163 280.552 368.164 280.549C368.166 280.541 368.168 280.534 368.17 280.526C368.174 280.511 368.178 280.497 368.182 280.482C368.19 280.453 368.2 280.424 368.209 280.396C368.229 280.339 368.25 280.286 368.273 280.234C368.319 280.131 368.371 280.041 368.423 279.964C368.528 279.811 368.63 279.716 368.689 279.669C368.795 279.583 368.769 279.643 368.41 279.764C367.683 280.008 365.995 280.371 362.392 280.539L362.579 284.535C366.316 284.36 368.436 283.974 369.683 283.556C370.311 283.345 370.813 283.095 371.2 282.782C371.4 282.621 371.581 282.434 371.729 282.216C371.804 282.107 371.869 281.992 371.922 281.872C371.949 281.812 371.973 281.751 371.994 281.691C372.004 281.66 372.014 281.63 372.023 281.599C372.027 281.584 372.031 281.569 372.035 281.554C372.037 281.546 372.039 281.539 372.041 281.531C372.042 281.528 372.044 281.522 372.044 281.52C372.046 281.514 372.047 281.509 370.103 281.04ZM362.392 280.539C359.111 280.693 356.909 281.877 355.555 283.562C354.259 285.174 353.951 286.985 353.886 288.051L357.879 288.292C357.917 287.657 358.099 286.782 358.673 286.068C359.188 285.426 360.237 284.644 362.579 284.535L362.392 280.539ZM349.069 284.535C351.412 284.644 352.492 285.428 353.037 286.088C353.637 286.815 353.837 287.702 353.889 288.335L357.876 288.007C357.788 286.94 357.441 285.141 356.122 283.542C354.748 281.876 352.538 280.693 349.256 280.539L349.069 284.535ZM341.546 281.04C339.602 281.509 339.603 281.514 339.605 281.52C339.605 281.522 339.606 281.528 339.607 281.531C339.609 281.539 339.611 281.546 339.613 281.554C339.617 281.569 339.622 281.584 339.626 281.599C339.635 281.63 339.644 281.66 339.655 281.691C339.676 281.751 339.699 281.812 339.726 281.872C339.78 281.992 339.845 282.107 339.919 282.216C340.068 282.434 340.249 282.621 340.449 282.782C340.836 283.095 341.338 283.345 341.966 283.556C343.213 283.974 345.333 284.36 349.069 284.535L349.256 280.539C345.654 280.371 343.966 280.008 343.239 279.764C342.88 279.643 342.854 279.584 342.96 279.669C343.019 279.716 343.121 279.811 343.225 279.965C343.278 280.041 343.33 280.131 343.376 280.234C343.399 280.286 343.42 280.34 343.439 280.396C343.449 280.424 343.458 280.453 343.467 280.482C343.471 280.497 343.475 280.512 343.479 280.526C343.481 280.534 343.483 280.541 343.485 280.549C343.486 280.552 343.487 280.558 343.488 280.56C343.489 280.566 343.49 280.571 341.546 281.04ZM349.078 281.978C346.129 281.941 344.739 281.138 344.119 280.599C343.794 280.317 343.623 280.059 343.54 279.907C343.498 279.829 343.477 279.777 343.471 279.761C343.468 279.753 343.469 279.754 343.473 279.766C343.474 279.772 343.477 279.781 343.48 279.793C343.482 279.798 343.483 279.805 343.485 279.812C343.486 279.816 343.487 279.82 343.488 279.824C343.489 279.826 343.489 279.828 343.49 279.83C343.49 279.831 343.49 279.833 343.49 279.833C343.491 279.835 343.491 279.836 341.546 280.302C339.601 280.768 339.601 280.769 339.602 280.771C339.602 280.771 339.602 280.773 339.603 280.774C339.603 280.777 339.604 280.779 339.604 280.782C339.606 280.786 339.607 280.792 339.608 280.797C339.611 280.808 339.614 280.819 339.617 280.832C339.624 280.857 339.632 280.886 339.642 280.918C339.662 280.983 339.687 281.062 339.721 281.152C339.788 281.333 339.886 281.562 340.029 281.823C340.314 282.346 340.774 282.992 341.495 283.619C342.967 284.897 345.33 285.932 349.028 285.977L349.078 281.978ZM357.87 287.968C357.805 287.416 357.512 285.901 356.163 284.504C354.774 283.066 352.528 282.02 349.078 281.978L349.028 285.977C351.663 286.01 352.797 286.777 353.285 287.283C353.813 287.829 353.892 288.389 353.898 288.436L357.87 287.968ZM353.89 288.354C353.893 288.398 353.897 288.434 353.9 288.463C353.901 288.478 353.902 288.491 353.904 288.501C353.904 288.507 353.905 288.512 353.905 288.516C353.905 288.518 353.906 288.52 353.906 288.522C353.906 288.523 353.906 288.524 353.906 288.525C353.906 288.526 353.906 288.526 353.906 288.526C353.906 288.527 353.907 288.527 353.907 288.527C353.907 288.527 353.907 288.527 353.907 288.527C353.907 288.528 353.907 288.528 353.907 288.528C353.907 288.528 353.907 288.528 355.892 288.287C357.878 288.047 357.878 288.047 357.878 288.047C357.878 288.047 357.878 288.047 357.878 288.047C357.878 288.047 357.878 288.047 357.878 288.047C357.878 288.048 357.878 288.048 357.878 288.048C357.878 288.049 357.878 288.049 357.878 288.049C357.878 288.05 357.878 288.051 357.878 288.052C357.878 288.053 357.879 288.055 357.879 288.056C357.879 288.058 357.879 288.06 357.879 288.062C357.88 288.066 357.88 288.067 357.88 288.067C357.88 288.068 357.879 288.062 357.878 288.05L353.89 288.354ZM353.902 288.084C353.901 288.1 353.9 288.109 353.9 288.11C353.9 288.111 353.9 288.109 353.9 288.106C353.901 288.104 353.901 288.102 353.901 288.099C353.901 288.098 353.901 288.096 353.901 288.095C353.902 288.094 353.902 288.093 353.902 288.092C353.902 288.091 353.902 288.091 353.902 288.091C353.902 288.09 353.902 288.09 353.902 288.09C353.902 288.09 353.902 288.09 353.902 288.089C353.902 288.089 353.902 288.089 353.902 288.089C353.902 288.089 353.902 288.089 355.892 288.287C357.882 288.486 357.882 288.485 357.882 288.485C357.882 288.485 357.882 288.485 357.882 288.485C357.882 288.485 357.882 288.485 357.882 288.485C357.882 288.485 357.882 288.484 357.882 288.484C357.882 288.484 357.883 288.483 357.883 288.483C357.883 288.481 357.883 288.48 357.883 288.479C357.883 288.477 357.883 288.475 357.884 288.472C357.884 288.467 357.885 288.461 357.885 288.455C357.886 288.442 357.887 288.427 357.889 288.41C357.891 288.375 357.894 288.33 357.897 288.277L353.902 288.084ZM357.89 288.371C357.897 288.298 357.968 287.76 358.463 287.24C358.919 286.761 360.012 286.01 362.62 285.977L362.571 281.978C359.163 282.02 356.938 283.041 355.567 284.481C354.233 285.88 353.964 287.406 353.908 287.99L357.89 288.371ZM362.62 285.977C366.319 285.932 368.682 284.897 370.153 283.619C370.875 282.992 371.334 282.346 371.62 281.822C371.762 281.562 371.861 281.333 371.928 281.152C371.961 281.061 371.987 280.983 372.007 280.918C372.016 280.886 372.024 280.857 372.031 280.832C372.035 280.819 372.038 280.808 372.04 280.797C372.042 280.791 372.043 280.786 372.044 280.781C372.045 280.779 372.045 280.777 372.046 280.774C372.046 280.773 372.047 280.771 372.047 280.771C372.047 280.769 372.048 280.767 370.103 280.302C368.158 279.836 368.158 279.835 368.158 279.833C368.158 279.832 368.159 279.831 368.159 279.83C368.16 279.828 368.16 279.826 368.161 279.824C368.162 279.82 368.163 279.816 368.163 279.812C368.165 279.805 368.167 279.798 368.169 279.792C368.172 279.781 368.174 279.772 368.176 279.766C368.18 279.754 368.18 279.753 368.177 279.761C368.171 279.777 368.151 279.829 368.109 279.907C368.025 280.059 367.854 280.317 367.53 280.599C366.91 281.138 365.52 281.941 362.571 281.978L362.62 285.977ZM370.103 280.302C368.158 279.833 368.16 279.827 368.161 279.822C368.162 279.82 368.163 279.814 368.164 279.811C368.166 279.803 368.168 279.796 368.17 279.788C368.174 279.773 368.178 279.759 368.182 279.744C368.19 279.715 368.2 279.686 368.209 279.658C368.229 279.601 368.25 279.547 368.273 279.496C368.319 279.393 368.371 279.303 368.423 279.226C368.528 279.073 368.63 278.978 368.689 278.931C368.795 278.845 368.769 278.905 368.41 279.026C367.683 279.27 365.995 279.633 362.392 279.801L362.579 283.797C366.316 283.622 368.436 283.236 369.683 282.818C370.311 282.607 370.813 282.357 371.2 282.044C371.4 281.883 371.581 281.696 371.729 281.478C371.804 281.369 371.869 281.254 371.922 281.134C371.949 281.074 371.973 281.013 371.994 280.952C372.004 280.922 372.014 280.892 372.023 280.861C372.027 280.846 372.031 280.831 372.035 280.816C372.037 280.808 372.039 280.801 372.041 280.793C372.042 280.789 372.044 280.784 372.044 280.782C372.046 280.776 372.047 280.771 370.103 280.302ZM362.392 279.801C359.111 279.954 356.909 281.139 355.555 282.824C354.259 284.436 353.951 286.246 353.886 287.313L357.879 287.554C357.917 286.919 358.099 286.044 358.673 285.33C359.188 284.688 360.237 283.906 362.579 283.797L362.392 279.801ZM349.069 283.797C351.412 283.906 352.492 284.69 353.037 285.35C353.637 286.077 353.837 286.964 353.889 287.597L357.876 287.269C357.788 286.202 357.441 284.403 356.122 282.804C354.748 281.138 352.538 279.955 349.256 279.801L349.069 283.797ZM341.546 280.302C339.602 280.771 339.603 280.776 339.605 280.782C339.605 280.784 339.606 280.79 339.607 280.793C339.609 280.801 339.611 280.808 339.613 280.816C339.617 280.831 339.622 280.846 339.626 280.861C339.635 280.892 339.644 280.922 339.655 280.953C339.676 281.013 339.699 281.074 339.726 281.134C339.78 281.254 339.845 281.369 339.919 281.478C340.068 281.696 340.249 281.883 340.449 282.044C340.836 282.357 341.338 282.607 341.966 282.818C343.213 283.236 345.333 283.622 349.069 283.797L349.256 279.801C345.654 279.633 343.966 279.27 343.239 279.026C342.88 278.905 342.854 278.846 342.96 278.931C343.019 278.978 343.121 279.073 343.225 279.226C343.278 279.303 343.33 279.393 343.376 279.496C343.399 279.548 343.42 279.602 343.439 279.658C343.449 279.686 343.458 279.715 343.467 279.744C343.471 279.759 343.475 279.773 343.479 279.788C343.481 279.796 343.483 279.803 343.485 279.811C343.486 279.814 343.487 279.82 343.488 279.822C343.489 279.828 343.49 279.833 341.546 280.302ZM349.083 280.516C346.135 280.479 344.745 279.676 344.124 279.137C343.8 278.856 343.629 278.597 343.546 278.445C343.503 278.367 343.483 278.315 343.477 278.299C343.474 278.291 343.475 278.292 343.478 278.304C343.48 278.31 343.482 278.319 343.486 278.331C343.487 278.336 343.489 278.343 343.491 278.35C343.492 278.354 343.493 278.358 343.494 278.362C343.494 278.364 343.495 278.366 343.495 278.368C343.495 278.369 343.496 278.371 343.496 278.371C343.496 278.373 343.497 278.374 341.552 278.84C339.607 279.306 339.607 279.307 339.607 279.309C339.608 279.309 339.608 279.311 339.608 279.312C339.609 279.315 339.609 279.317 339.61 279.32C339.611 279.324 339.612 279.33 339.614 279.335C339.617 279.346 339.62 279.357 339.623 279.37C339.63 279.395 339.638 279.424 339.648 279.456C339.667 279.521 339.693 279.6 339.726 279.69C339.793 279.871 339.892 280.1 340.034 280.361C340.32 280.884 340.779 281.53 341.501 282.157C342.972 283.435 345.336 284.47 349.034 284.515L349.083 280.516ZM357.729 286.48C357.672 286.002 357.442 284.472 356.118 283.054C354.756 281.595 352.527 280.558 349.083 280.516L349.034 284.515C351.675 284.548 352.753 285.311 353.194 285.784C353.673 286.296 353.742 286.827 353.756 286.948L357.729 286.48ZM353.748 286.866C353.756 286.972 353.808 287.346 353.835 287.548C353.853 287.681 353.871 287.812 353.885 287.91C353.891 287.959 353.897 288 353.901 288.028C353.903 288.042 353.904 288.054 353.905 288.061C353.906 288.065 353.906 288.068 353.907 288.07C353.907 288.071 353.907 288.072 353.907 288.072C353.907 288.072 353.907 288.073 353.907 288.073C353.907 288.073 353.907 288.073 353.907 288.073C353.907 288.073 353.907 288.073 353.907 288.073C353.907 288.073 353.907 288.073 355.888 287.801C357.87 287.528 357.87 287.528 357.87 287.528C357.87 287.528 357.87 287.528 357.87 287.528C357.87 287.528 357.87 287.528 357.87 287.528C357.87 287.528 357.87 287.528 357.87 287.528C357.87 287.527 357.869 287.526 357.869 287.525C357.869 287.523 357.869 287.521 357.868 287.517C357.867 287.509 357.866 287.498 357.864 287.484C357.86 287.456 357.854 287.416 357.848 287.367C357.834 287.27 357.817 287.14 357.799 287.009C357.781 286.877 357.763 286.745 357.75 286.644C357.743 286.593 357.737 286.552 357.734 286.523C357.726 286.461 357.732 286.504 357.737 286.562L353.748 286.866ZM353.99 286.617C353.992 286.593 353.974 286.79 353.946 287.098C353.933 287.228 353.921 287.357 353.912 287.453C353.908 287.501 353.904 287.541 353.901 287.569C353.9 287.583 353.899 287.593 353.898 287.601C353.898 287.605 353.898 287.607 353.897 287.609C353.897 287.61 353.897 287.611 353.897 287.611C353.897 287.612 353.897 287.612 353.897 287.612C353.897 287.612 353.897 287.612 353.897 287.612C353.897 287.612 353.897 287.612 353.897 287.612C353.897 287.612 353.897 287.612 355.888 287.801C357.879 287.989 357.879 287.989 357.879 287.989C357.879 287.989 357.879 287.989 357.879 287.989C357.879 287.989 357.879 287.989 357.879 287.989C357.879 287.989 357.879 287.989 357.879 287.988C357.88 287.988 357.88 287.987 357.88 287.986C357.88 287.984 357.88 287.981 357.881 287.978C357.881 287.97 357.882 287.959 357.884 287.945C357.886 287.917 357.89 287.877 357.895 287.828C357.904 287.731 357.916 287.601 357.928 287.469C357.949 287.251 357.981 286.904 357.986 286.811L353.99 286.617ZM357.949 287.106C358.012 286.791 358.087 286.277 358.557 285.766C358.982 285.303 360.025 284.548 362.626 284.515L362.577 280.516C359.161 280.558 356.958 281.595 355.612 283.059C354.31 284.475 354.087 286.023 354.027 286.322L357.949 287.106ZM362.626 284.515C366.324 284.47 368.688 283.435 370.159 282.157C370.881 281.53 371.34 280.884 371.626 280.36C371.768 280.1 371.866 279.871 371.933 279.69C371.967 279.599 371.993 279.521 372.012 279.456C372.022 279.424 372.03 279.395 372.037 279.37C372.04 279.357 372.043 279.346 372.046 279.335C372.047 279.329 372.049 279.324 372.05 279.319C372.05 279.317 372.051 279.315 372.052 279.312C372.052 279.311 372.052 279.309 372.052 279.309C372.053 279.307 372.053 279.305 370.108 278.84C368.163 278.374 368.163 278.373 368.164 278.371C368.164 278.37 368.164 278.369 368.165 278.368C368.165 278.366 368.166 278.364 368.166 278.362C368.167 278.358 368.168 278.354 368.169 278.35C368.171 278.343 368.173 278.336 368.174 278.33C368.177 278.319 368.18 278.31 368.182 278.304C368.185 278.292 368.186 278.291 368.183 278.299C368.177 278.315 368.156 278.367 368.114 278.445C368.031 278.597 367.86 278.855 367.536 279.137C366.915 279.676 365.525 280.479 362.577 280.516L362.626 284.515ZM370.108 278.84C368.164 278.371 368.165 278.365 368.167 278.36C368.167 278.358 368.168 278.352 368.169 278.349C368.171 278.341 368.173 278.334 368.175 278.326C368.179 278.311 368.183 278.297 368.188 278.282C368.196 278.253 368.205 278.224 368.215 278.196C368.234 278.139 368.255 278.085 368.278 278.034C368.325 277.931 368.376 277.841 368.429 277.764C368.533 277.611 368.636 277.516 368.694 277.469C368.8 277.383 368.774 277.443 368.415 277.564C367.689 277.808 366 278.171 362.398 278.339L362.585 282.335C366.321 282.16 368.441 281.774 369.688 281.356C370.316 281.145 370.818 280.895 371.206 280.582C371.405 280.421 371.586 280.234 371.735 280.016C371.809 279.907 371.874 279.792 371.928 279.672C371.955 279.612 371.979 279.551 371.999 279.49C372.01 279.46 372.019 279.43 372.028 279.399C372.033 279.384 372.037 279.369 372.041 279.354C372.043 279.346 372.045 279.339 372.047 279.331C372.048 279.327 372.049 279.322 372.05 279.32C372.051 279.314 372.052 279.309 370.108 278.84ZM362.398 278.339C359.117 278.493 356.915 279.677 355.561 281.362C354.265 282.974 353.956 284.784 353.892 285.851L357.885 286.092C357.923 285.457 358.104 284.582 358.678 283.868C359.194 283.226 360.242 282.444 362.585 282.335L362.398 278.339ZM349.075 282.335C351.417 282.444 352.498 283.228 353.042 283.888C353.642 284.615 353.843 285.502 353.895 286.135L357.882 285.807C357.794 284.74 357.446 282.941 356.128 281.342C354.753 279.676 352.543 278.493 349.262 278.339L349.075 282.335ZM341.552 278.84C339.607 279.309 339.609 279.314 339.61 279.32C339.611 279.322 339.612 279.328 339.613 279.331C339.615 279.339 339.617 279.346 339.619 279.354C339.623 279.369 339.627 279.384 339.631 279.399C339.64 279.43 339.65 279.46 339.66 279.491C339.681 279.551 339.705 279.612 339.732 279.672C339.786 279.792 339.85 279.907 339.925 280.016C340.073 280.234 340.255 280.421 340.454 280.582C340.841 280.895 341.344 281.145 341.971 281.356C343.219 281.774 345.339 282.16 349.075 282.335L349.262 278.339C345.659 278.171 343.971 277.808 343.245 277.564C342.886 277.443 342.86 277.384 342.965 277.469C343.024 277.516 343.126 277.611 343.231 277.764C343.283 277.841 343.335 277.931 343.381 278.034C343.404 278.086 343.426 278.14 343.445 278.196C343.455 278.224 343.464 278.253 343.472 278.282C343.477 278.297 343.481 278.311 343.485 278.326C343.487 278.334 343.488 278.341 343.49 278.349C343.491 278.352 343.493 278.358 343.493 278.36C343.495 278.366 343.496 278.371 341.552 278.84ZM357.248 343.785C356.628 349.12 357.69 352.592 359.156 354.795C359.879 355.881 360.665 356.605 361.305 357.069C361.624 357.3 361.905 357.466 362.122 357.58C362.231 357.637 362.324 357.682 362.398 357.715C362.435 357.731 362.468 357.745 362.495 357.757C362.509 357.762 362.521 357.767 362.532 357.772C362.538 357.774 362.543 357.776 362.548 357.778C362.551 357.779 362.553 357.78 362.555 357.781C362.556 357.781 362.558 357.782 362.559 357.782C362.56 357.783 362.562 357.783 363.272 355.914C363.983 354.044 363.984 354.045 363.986 354.045C363.986 354.045 363.988 354.046 363.989 354.046C363.991 354.047 363.993 354.048 363.995 354.049C363.998 354.05 364.002 354.051 364.005 354.053C364.011 354.055 364.016 354.057 364.02 354.059C364.028 354.062 364.031 354.063 364.03 354.063C364.029 354.063 364.012 354.055 363.981 354.039C363.919 354.006 363.804 353.94 363.654 353.832C363.356 353.616 362.917 353.227 362.486 352.579C361.645 351.314 360.688 348.837 361.222 344.247L357.248 343.785ZM363.272 355.914C363.986 354.045 363.991 354.047 363.997 354.049C363.998 354.05 364.004 354.052 364.007 354.054C364.014 354.056 364.022 354.059 364.029 354.062C364.043 354.068 364.057 354.074 364.071 354.08C364.098 354.092 364.125 354.104 364.151 354.117C364.204 354.143 364.253 354.17 364.299 354.199C364.391 354.255 364.468 354.314 364.53 354.369C364.655 354.48 364.715 354.57 364.73 354.596C364.754 354.634 364.638 354.459 364.513 353.831C364.262 352.565 364.054 349.87 364.497 344.433L360.51 344.108C360.056 349.678 360.232 352.805 360.59 354.609C360.769 355.515 361.014 356.187 361.321 356.689C361.479 356.946 361.663 357.172 361.875 357.36C361.981 357.455 362.092 357.538 362.208 357.609C362.266 357.644 362.325 357.677 362.384 357.706C362.413 357.72 362.442 357.734 362.472 357.746C362.486 357.753 362.501 357.759 362.515 357.765C362.523 357.768 362.53 357.771 362.537 357.774C362.541 357.775 362.546 357.777 362.548 357.778C362.553 357.78 362.559 357.782 363.272 355.914ZM364.497 344.433C364.743 341.406 364.313 338.972 363.414 337.036C362.512 335.092 361.19 333.764 359.838 332.874C358.502 331.994 357.151 331.551 356.15 331.324C355.645 331.21 355.217 331.148 354.905 331.115C354.749 331.098 354.621 331.088 354.525 331.082C354.478 331.079 354.438 331.077 354.408 331.076C354.392 331.075 354.379 331.075 354.368 331.074C354.363 331.074 354.358 331.074 354.354 331.074C354.352 331.074 354.35 331.074 354.348 331.074C354.347 331.074 354.346 331.074 354.345 331.074C354.344 331.074 354.343 331.074 354.301 333.073C354.259 335.073 354.258 335.073 354.256 335.073C354.256 335.073 354.255 335.073 354.254 335.073C354.253 335.073 354.252 335.073 354.251 335.073C354.249 335.073 354.247 335.073 354.246 335.073C354.244 335.072 354.244 335.072 354.246 335.073C354.249 335.073 354.261 335.073 354.28 335.074C354.318 335.077 354.384 335.082 354.475 335.091C354.657 335.111 354.933 335.15 355.267 335.226C355.944 335.379 356.812 335.671 357.639 336.215C358.45 336.749 359.235 337.532 359.786 338.72C360.341 339.915 360.712 341.633 360.51 344.108L364.497 344.433ZM354.301 333.073C353.971 335.046 353.969 335.046 353.968 335.045C353.967 335.045 353.966 335.045 353.965 335.045C353.963 335.045 353.961 335.044 353.959 335.044C353.956 335.043 353.953 335.043 353.95 335.042C353.944 335.041 353.94 335.04 353.937 335.04C353.931 335.039 353.93 335.038 353.934 335.039C353.941 335.041 353.966 335.047 354.007 335.059C354.09 335.082 354.231 335.129 354.408 335.209C354.763 335.37 355.254 335.662 355.73 336.178C356.624 337.149 357.775 339.257 357.248 343.785L361.222 344.247C361.849 338.85 360.532 335.487 358.671 333.468C357.769 332.489 356.81 331.906 356.06 331.566C355.685 331.396 355.359 331.285 355.113 331.214C354.989 331.179 354.885 331.153 354.804 331.135C354.763 331.126 354.728 331.119 354.699 331.113C354.685 331.11 354.672 331.108 354.66 331.106C354.654 331.105 354.649 331.104 354.644 331.103C354.642 331.103 354.639 331.102 354.637 331.102C354.636 331.102 354.634 331.101 354.634 331.101C354.632 331.101 354.631 331.101 354.301 333.073ZM347.387 344.247C347.921 348.838 346.964 351.314 346.123 352.579C345.692 353.227 345.253 353.616 344.955 353.832C344.805 353.94 344.69 354.006 344.628 354.039C344.597 354.055 344.58 354.063 344.578 354.063C344.578 354.063 344.581 354.062 344.589 354.059C344.593 354.057 344.598 354.055 344.604 354.053C344.607 354.051 344.611 354.05 344.614 354.049C344.616 354.048 344.618 354.047 344.62 354.046C344.621 354.046 344.623 354.045 344.623 354.045C344.625 354.045 344.626 354.044 345.337 355.914C346.047 357.783 346.049 357.783 346.05 357.782C346.051 357.782 346.052 357.781 346.054 357.781C346.056 357.78 346.058 357.779 346.061 357.778C346.066 357.776 346.071 357.774 346.076 357.772C346.088 357.767 346.1 357.762 346.114 357.757C346.141 357.745 346.174 357.732 346.211 357.715C346.285 357.682 346.378 357.637 346.487 357.58C346.704 357.466 346.985 357.301 347.304 357.069C347.944 356.605 348.73 355.881 349.453 354.795C350.918 352.592 351.98 349.12 351.36 343.785L347.387 344.247ZM345.337 355.914C346.05 357.782 346.055 357.78 346.061 357.778C346.063 357.777 346.068 357.775 346.072 357.774C346.079 357.771 346.086 357.768 346.094 357.765C346.108 357.759 346.123 357.753 346.137 357.746C346.167 357.734 346.196 357.72 346.225 357.706C346.284 357.677 346.342 357.644 346.4 357.609C346.517 357.538 346.628 357.455 346.734 357.36C346.946 357.172 347.129 356.946 347.287 356.689C347.595 356.187 347.839 355.515 348.019 354.609C348.377 352.805 348.553 349.678 348.099 344.108L344.112 344.433C344.555 349.87 344.347 352.565 344.096 353.831C343.971 354.459 343.855 354.634 343.878 354.596C343.894 354.57 343.954 354.48 344.079 354.369C344.141 354.314 344.217 354.255 344.31 354.199C344.356 354.171 344.405 354.143 344.457 354.117C344.484 354.104 344.511 354.092 344.538 354.08C344.552 354.074 344.566 354.068 344.58 354.062C344.587 354.059 344.594 354.056 344.601 354.054C344.605 354.052 344.61 354.05 344.612 354.049C344.618 354.047 344.623 354.045 345.337 355.914ZM348.099 344.108C347.897 341.633 348.268 339.915 348.823 338.72C349.374 337.532 350.159 336.749 350.97 336.215C351.797 335.671 352.664 335.379 353.342 335.226C353.676 335.15 353.952 335.111 354.134 335.091C354.225 335.082 354.291 335.077 354.329 335.074C354.348 335.073 354.359 335.073 354.363 335.073C354.365 335.073 354.365 335.073 354.363 335.073C354.362 335.073 354.36 335.073 354.358 335.073C354.357 335.073 354.356 335.073 354.354 335.073C354.354 335.073 354.353 335.073 354.352 335.073C354.351 335.073 354.35 335.073 354.308 333.073C354.266 331.074 354.265 331.074 354.264 331.074C354.263 331.074 354.262 331.074 354.261 331.074C354.259 331.074 354.257 331.074 354.255 331.074C354.251 331.074 354.246 331.074 354.24 331.074C354.229 331.075 354.216 331.075 354.201 331.076C354.17 331.077 354.131 331.079 354.083 331.082C353.988 331.088 353.86 331.098 353.704 331.115C353.392 331.148 352.964 331.21 352.459 331.324C351.458 331.551 350.107 331.995 348.771 332.874C347.419 333.764 346.097 335.092 345.195 337.036C344.296 338.972 343.865 341.406 344.112 344.433L348.099 344.108ZM354.308 333.073C353.978 331.101 353.977 331.101 353.975 331.101C353.975 331.101 353.973 331.102 353.972 331.102C353.969 331.102 353.967 331.103 353.965 331.103C353.96 331.104 353.954 331.105 353.949 331.106C353.937 331.108 353.924 331.11 353.91 331.113C353.881 331.119 353.845 331.126 353.805 331.135C353.723 331.153 353.619 331.179 353.496 331.214C353.25 331.285 352.924 331.396 352.549 331.566C351.799 331.906 350.84 332.489 349.938 333.468C348.076 335.487 346.76 338.85 347.387 344.247L351.36 343.785C350.834 339.258 351.985 337.149 352.879 336.178C353.355 335.662 353.845 335.37 354.201 335.209C354.378 335.129 354.519 335.082 354.601 335.059C354.642 335.047 354.668 335.041 354.675 335.039C354.679 335.038 354.678 335.039 354.672 335.04C354.669 335.041 354.664 335.041 354.659 335.042C354.656 335.043 354.653 335.043 354.649 335.044C354.648 335.044 354.646 335.045 354.644 335.045C354.643 335.045 354.641 335.045 354.641 335.045C354.639 335.046 354.638 335.046 354.308 333.073ZM357.24 345.293C356.065 351.238 354.86 355.465 353.96 358.184C353.509 359.544 353.135 360.528 352.878 361.161C352.75 361.477 352.651 361.706 352.586 361.851C352.554 361.923 352.53 361.975 352.516 362.005C352.509 362.021 352.504 362.031 352.502 362.036C352.501 362.038 352.5 362.04 352.5 362.04C352.5 362.04 352.5 362.039 352.5 362.039C352.501 362.038 352.501 362.038 352.501 362.038C352.501 362.037 352.501 362.037 352.501 362.037C352.502 362.036 352.502 362.036 354.3 362.911C356.099 363.785 356.099 363.785 356.099 363.784C356.099 363.784 356.1 363.784 356.1 363.783C356.1 363.782 356.101 363.781 356.101 363.781C356.102 363.779 356.103 363.776 356.104 363.774C356.107 363.769 356.11 363.762 356.114 363.755C356.121 363.74 356.13 363.719 356.142 363.694C356.166 363.642 356.199 363.571 356.24 363.478C356.323 363.292 356.44 363.022 356.585 362.664C356.875 361.949 357.279 360.884 357.757 359.442C358.712 356.558 359.958 352.17 361.164 346.068L357.24 345.293ZM354.3 362.911C356.068 361.975 356.068 361.975 356.068 361.976C356.068 361.976 356.069 361.976 356.069 361.976C356.069 361.977 356.069 361.977 356.069 361.977C356.069 361.978 356.069 361.978 356.069 361.977C356.069 361.977 356.068 361.974 356.066 361.971C356.062 361.963 356.055 361.949 356.045 361.93C356.025 361.89 355.993 361.827 355.951 361.74C355.866 361.566 355.738 361.298 355.578 360.939C355.257 360.22 354.806 359.137 354.3 357.717C353.288 354.876 352.062 350.69 351.235 345.373L347.282 345.988C348.153 351.583 349.447 356.012 350.532 359.059C351.074 360.582 351.565 361.761 351.925 362.567C352.104 362.971 352.252 363.281 352.356 363.495C352.408 363.602 352.45 363.686 352.48 363.744C352.495 363.773 352.507 363.797 352.516 363.814C352.52 363.822 352.524 363.829 352.527 363.835C352.528 363.837 352.529 363.84 352.53 363.842C352.531 363.843 352.531 363.843 352.532 363.844C352.532 363.845 352.532 363.845 352.532 363.845C352.532 363.846 352.533 363.846 354.3 362.911ZM351.235 345.373C350.304 339.387 351.586 336.977 352.49 336.031C352.967 335.532 353.468 335.294 353.837 335.178C354.024 335.119 354.174 335.093 354.263 335.081C354.308 335.075 354.335 335.073 354.343 335.073C354.347 335.073 354.346 335.073 354.339 335.073C354.335 335.073 354.33 335.073 354.324 335.073C354.321 335.073 354.317 335.073 354.313 335.073C354.311 335.073 354.309 335.073 354.307 335.073C354.306 335.073 354.304 335.073 354.304 335.073C354.302 335.073 354.3 335.073 354.3 333.073C354.3 331.073 354.299 331.073 354.297 331.073C354.296 331.073 354.294 331.073 354.293 331.073C354.29 331.073 354.288 331.073 354.285 331.073C354.279 331.073 354.273 331.073 354.267 331.074C354.254 331.074 354.239 331.074 354.222 331.075C354.189 331.076 354.148 331.077 354.101 331.08C354.007 331.086 353.887 331.096 353.743 331.115C353.457 331.152 353.076 331.224 352.636 331.363C351.754 331.64 350.627 332.191 349.598 333.268C347.49 335.474 346.252 339.367 347.282 345.988L351.235 345.373ZM354.3 333.073C354.147 335.067 354.145 335.067 354.144 335.067C354.143 335.067 354.142 335.067 354.141 335.067C354.139 335.067 354.137 335.067 354.135 335.066C354.132 335.066 354.129 335.066 354.126 335.066C354.12 335.065 354.116 335.065 354.114 335.065C354.109 335.064 354.11 335.064 354.117 335.065C354.13 335.067 354.165 335.072 354.217 335.082C354.322 335.103 354.493 335.145 354.702 335.223C355.121 335.379 355.67 335.671 356.176 336.218C357.117 337.234 358.356 339.647 357.24 345.293L361.164 346.068C362.43 339.667 361.218 335.777 359.112 333.501C358.095 332.402 356.973 331.801 356.1 331.475C355.664 331.312 355.284 331.216 355 331.16C354.858 331.131 354.739 331.112 354.646 331.1C354.6 331.094 354.561 331.089 354.528 331.086C354.512 331.084 354.498 331.083 354.486 331.082C354.479 331.081 354.474 331.081 354.468 331.08C354.466 331.08 354.463 331.08 354.461 331.08C354.459 331.08 354.458 331.08 354.457 331.079C354.455 331.079 354.454 331.079 354.3 333.073Z"
        fill="white" mask="url(#path-81-inside-1_3106_4761)" />
    <rect x="92" y="171" width="154" height="154" rx="77" fill="#E5E4E2" fill-opacity="0.65" />
    <g filter="url(#filter6_d_3106_4761)">
        <rect x="103.059" y="182.062" width="131.878" height="131.878" rx="65.9392" fill="#E5E4E2" fill-opacity="0.65"
            shape-rendering="crispEdges" />
    </g>
    <g filter="url(#filter7_d_3106_4761)">
        <rect x="114.121" y="193.117" width="109.757" height="109.757" rx="54.8785" fill="#E5E4E2" />
    </g>
    <path
        d="M168.719 278.535C186.506 278.535 200.926 264.339 200.926 246.826C200.926 229.314 186.506 215.117 168.719 215.117C150.931 215.117 136.512 229.314 136.512 246.826C136.512 264.339 150.931 278.535 168.719 278.535Z"
        fill="#C7B299" stroke="#161616" stroke-width="0.23431" stroke-miterlimit="10" />
    <path
        d="M132.84 249.611C132.84 228.919 147.747 211.84 170.594 211.84C191.939 211.84 205.26 226.807 205.26 245.561C205.26 266.248 190.352 283.332 167.685 283.332C146.248 283.332 132.844 268.365 132.844 249.611H132.84ZM168.035 277.869C186.645 277.869 198.555 263.519 198.555 245.911C198.555 241.437 198.463 228.788 189.082 223.819C180.734 219.402 171.199 224.331 170.029 224.961C168.092 223.885 160.144 219.743 152.296 222.752C139.264 227.747 139.549 247.468 139.549 249.257C139.549 265.282 150.398 277.869 168.04 277.869H168.035Z"
        fill="#161616" />
    <path
        d="M153.637 259.699C153.637 260.41 160.068 264.995 168.153 264.995C176.238 264.995 182.913 260.41 182.913 259.699C182.913 258.987 176.235 262.417 168.153 262.417C160.068 262.417 153.637 258.987 153.637 259.699Z"
        fill="#161616" />
    <path
        d="M184.165 256.539C192.368 260.869 201.088 260.484 203.638 255.673C206.188 250.862 201.605 243.448 193.402 239.118C185.199 234.788 176.956 230.857 173.929 239.984C170.638 249.921 175.962 252.209 184.165 256.539Z"
        fill="#161616" />
    <path
        d="M163.477 239.986C160.454 230.858 152.211 234.786 144.004 239.12C135.801 243.45 131.218 250.863 133.768 255.674C136.318 260.485 145.034 260.875 153.241 256.54C161.444 252.21 166.772 249.923 163.477 239.986Z"
        fill="#161616" />
    <path
        d="M168.5 261.263C172.493 261.263 175.73 259.109 175.73 256.452C175.73 253.795 172.493 251.641 168.5 251.641C164.507 251.641 161.27 253.795 161.27 256.452C161.27 259.109 164.507 261.263 168.5 261.263Z"
        fill="#161616" />
    <path
        d="M166.585 258.169C166.445 258.484 165.836 258.637 165.231 258.51C164.626 258.383 164.25 258.029 164.394 257.714C164.539 257.399 165.143 257.246 165.748 257.373C166.353 257.5 166.73 257.854 166.585 258.169Z"
        fill="white" />
    <path
        d="M170.531 258.169C170.671 258.484 171.28 258.637 171.885 258.51C172.489 258.383 172.866 258.029 172.722 257.714C172.577 257.399 171.972 257.246 171.368 257.373C170.763 257.5 170.386 257.854 170.531 258.169Z"
        fill="white" />
    <path
        d="M159.236 244.58C159.236 247.292 157.032 249.491 154.315 249.491C151.598 249.491 149.395 247.292 149.395 244.58C149.395 241.869 151.314 242.236 154.03 242.236C156.747 242.236 159.231 241.864 159.231 244.58H159.236Z"
        fill="white" stroke="#161616" stroke-width="0.23431" stroke-miterlimit="10" />
    <path
        d="M154.312 248.065C156.241 248.065 157.805 246.504 157.805 244.579C157.805 242.654 156.241 241.094 154.312 241.094C152.384 241.094 150.82 242.654 150.82 244.579C150.82 246.504 152.384 248.065 154.312 248.065Z"
        fill="#161616" stroke="#161616" stroke-width="0.23431" stroke-miterlimit="10" />
    <path
        d="M152.418 244.739C152.856 244.739 153.211 244.385 153.211 243.948C153.211 243.511 152.856 243.156 152.418 243.156C151.98 243.156 151.625 243.511 151.625 243.948C151.625 244.385 151.98 244.739 152.418 244.739Z"
        fill="white" />
    <path
        d="M188.157 244.58C188.157 247.292 185.954 249.491 183.237 249.491C180.52 249.491 178.316 247.292 178.316 244.58C178.316 241.869 180.52 242.236 183.237 242.236C185.954 242.236 188.157 241.864 188.157 244.58Z"
        fill="white" stroke="#101010" stroke-width="0.23431" stroke-miterlimit="10" />
    <path
        d="M183.238 248.065C185.167 248.065 186.73 246.504 186.73 244.579C186.73 242.654 185.167 241.094 183.238 241.094C181.31 241.094 179.746 242.654 179.746 244.579C179.746 246.504 181.31 248.065 183.238 248.065Z"
        fill="#161616" stroke="#161616" stroke-width="0.23431" stroke-miterlimit="10" />
    <path
        d="M181.328 244.739C181.766 244.739 182.121 244.385 182.121 243.948C182.121 243.511 181.766 243.156 181.328 243.156C180.89 243.156 180.535 243.511 180.535 243.948C180.535 244.385 180.89 244.739 181.328 244.739Z"
        fill="white" />
    <rect x="118" width="127.497" height="127.497" rx="63.7486" fill="#A6A5C4" fill-opacity="0.65" />
    <g filter="url(#filter8_d_3106_4761)">
        <rect x="127.16" y="9.15625" width="109.183" height="109.183" rx="54.5913" fill="#A6A5C4" fill-opacity="0.65"
            shape-rendering="crispEdges" />
    </g>
    <g filter="url(#filter9_d_3106_4761)">
        <rect x="136.312" y="18.3203" width="90.8681" height="90.8681" rx="45.4341" fill="#A6A5C4" />
    </g>
    <g clip-path="url(#clip2_3106_4761)">
        <path
            d="M180.775 87.7491C195.135 87.7491 206.776 76.4182 206.776 62.4409C206.776 48.4636 195.135 37.1328 180.775 37.1328C166.415 37.1328 154.773 48.4636 154.773 62.4409C154.773 76.4182 166.415 87.7491 180.775 87.7491Z"
            fill="#C7B299" stroke="#161616" stroke-width="0.23431" stroke-miterlimit="10" />
        <path
            d="M151.816 64.662C151.816 48.1471 163.851 34.5156 182.296 34.5156C199.528 34.5156 210.282 46.4611 210.282 61.4295C210.282 77.9409 198.247 91.5759 179.947 91.5759C162.641 91.5724 151.816 79.6269 151.816 64.662ZM180.23 87.2159C195.254 87.2159 204.869 75.7626 204.869 61.7088C204.869 58.1377 204.795 48.0424 197.221 44.0769C190.482 40.5512 182.784 44.4853 181.84 44.988C180.276 44.1292 173.859 40.8235 167.523 43.2251C157.002 47.2116 157.232 62.9515 157.232 64.3792C157.232 77.1694 165.991 87.2159 180.234 87.2159H180.23Z"
            fill="#161616" />
        <path
            d="M164.148 72.8463C164.148 73.4083 171.454 77.0282 180.637 77.0282C189.821 77.0282 197.402 73.4083 197.402 72.8463C197.402 72.2843 189.817 74.9931 180.637 74.9931C171.454 74.9931 164.148 72.2843 164.148 72.8463Z"
            fill="#161616" />
        <path
            d="M193.244 70.1913C199.867 73.6472 206.906 73.34 208.965 69.5001C211.024 65.6603 207.324 59.7434 200.702 56.2876C194.079 52.8317 187.425 49.6935 184.981 56.9787C182.324 64.9098 186.622 66.7355 193.244 70.1913ZM192.746 61.4853C190.793 61.4853 189.165 60.459 189.109 59.2024C189.052 57.9457 189.951 58.4449 191.904 58.4483C193.856 58.4518 196.124 57.9561 196.181 59.2163C196.237 60.473 194.698 61.4888 192.746 61.4853Z"
            fill="#161616" />
        <path
            d="M176.542 56.9799C174.102 49.6946 167.447 52.8293 160.821 56.2887C154.199 59.7446 150.499 65.6614 152.558 69.5013C154.617 73.3412 161.653 73.6518 168.279 70.1925C174.901 66.7366 179.203 64.9109 176.542 56.9799ZM165.339 59.2175C165.396 57.9608 167.663 58.4565 169.616 58.4495C171.569 58.446 172.467 57.9468 172.411 59.2035C172.354 60.4602 170.727 61.483 168.774 61.4865C166.821 61.49 165.282 60.4742 165.339 59.2175Z"
            fill="#161616" />
        <path
            d="M180.599 73.961C183.822 73.961 186.436 72.2418 186.436 70.1211C186.436 68.0004 183.822 66.2812 180.599 66.2812C177.375 66.2812 174.762 68.0004 174.762 70.1211C174.762 72.2418 177.375 73.961 180.599 73.961Z"
            fill="#161616" />
        <path
            d="M179.059 71.4912C178.946 71.7426 178.454 71.8647 177.966 71.7635C177.478 71.6623 177.174 71.3795 177.291 71.1282C177.407 70.8768 177.896 70.7547 178.384 70.8559C178.872 70.9571 179.176 71.2399 179.059 71.4912Z"
            fill="white" />
        <path
            d="M182.248 71.4912C182.361 71.7426 182.853 71.8647 183.341 71.7635C183.829 71.6623 184.133 71.3795 184.016 71.1282C183.9 70.8768 183.411 70.7547 182.923 70.8559C182.435 70.9571 182.131 71.2399 182.248 71.4912Z"
            fill="white" />
        <path
            d="M169.152 64.5668C171.346 64.5668 173.125 62.8117 173.125 60.6467C173.125 58.4817 171.346 56.7266 169.152 56.7266C166.958 56.7266 165.18 58.4817 165.18 60.6467C165.18 62.8117 166.958 64.5668 169.152 64.5668Z"
            fill="white" stroke="#161616" stroke-width="0.23431" stroke-miterlimit="10" />
        <path
            d="M169.155 63.4315C170.713 63.4315 171.975 62.1859 171.975 60.6493C171.975 59.1128 170.713 57.8672 169.155 57.8672C167.598 57.8672 166.336 59.1128 166.336 60.6493C166.336 62.1859 167.598 63.4315 169.155 63.4315Z"
            fill="#161616" stroke="#161616" stroke-width="0.23431" stroke-miterlimit="10" />
        <path
            d="M167.617 60.7715C167.97 60.7715 168.257 60.4886 168.257 60.1396C168.257 59.7907 167.97 59.5078 167.617 59.5078C167.263 59.5078 166.977 59.7907 166.977 60.1396C166.977 60.4886 167.263 60.7715 167.617 60.7715Z"
            fill="white" />
        <path
            d="M192.504 64.5668C194.698 64.5668 196.477 62.8117 196.477 60.6467C196.477 58.4817 194.698 56.7266 192.504 56.7266C190.31 56.7266 188.531 58.4817 188.531 60.6467C188.531 62.8117 190.31 64.5668 192.504 64.5668Z"
            fill="white" stroke="#101010" stroke-width="0.23431" stroke-miterlimit="10" />
        <path
            d="M192.503 63.4315C194.06 63.4315 195.322 62.1859 195.322 60.6493C195.322 59.1128 194.06 57.8672 192.503 57.8672C190.946 57.8672 189.684 59.1128 189.684 60.6493C189.684 62.1859 190.946 63.4315 192.503 63.4315Z"
            fill="#161616" stroke="#161616" stroke-width="0.23431" stroke-miterlimit="10" />
        <path
            d="M190.965 60.7715C191.318 60.7715 191.605 60.4886 191.605 60.1396C191.605 59.7907 191.318 59.5078 190.965 59.5078C190.611 59.5078 190.324 59.7907 190.324 60.1396C190.324 60.4886 190.611 60.7715 190.965 60.7715Z"
            fill="white" />
    </g>
    <defs>
        <filter id="filter0_d_3106_4761" x="258.73" y="76.7383" width="132.09" height="132.09"
            filterUnits="userSpaceOnUse" color-interpolation-filters="sRGB">
            <feFlood flood-opacity="0" result="BackgroundImageFix" />
            <feColorMatrix in="SourceAlpha" type="matrix" values="0 0 0 0 0 0 0 0 0 0 0 0 0 0 0 0 0 0 127 0"
                result="hardAlpha" />
            <feMorphology radius="4" operator="dilate" in="SourceAlpha" result="effect1_dropShadow_3106_4761" />
            <feOffset />
            <feGaussianBlur stdDeviation="2" />
            <feComposite in2="hardAlpha" operator="out" />
            <feColorMatrix type="matrix" values="0 0 0 0 0.559701 0 0 0 0 0.47209 0 0 0 0 0.00118426 0 0 0 0.25 0" />
            <feBlend mode="normal" in2="BackgroundImageFix" result="effect1_dropShadow_3106_4761" />
            <feBlend mode="normal" in="SourceGraphic" in2="effect1_dropShadow_3106_4761" result="shape" />
        </filter>
        <filter id="filter1_d_3106_4761" x="268.477" y="86.4727" width="112.617" height="112.617"
            filterUnits="userSpaceOnUse" color-interpolation-filters="sRGB">
            <feFlood flood-opacity="0" result="BackgroundImageFix" />
            <feColorMatrix in="SourceAlpha" type="matrix" values="0 0 0 0 0 0 0 0 0 0 0 0 0 0 0 0 0 0 127 0"
                result="hardAlpha" />
            <feMorphology radius="4" operator="dilate" in="SourceAlpha" result="effect1_dropShadow_3106_4761" />
            <feOffset />
            <feGaussianBlur stdDeviation="2" />
            <feComposite in2="hardAlpha" operator="out" />
            <feColorMatrix type="matrix" values="0 0 0 0 0.559701 0 0 0 0 0.47209 0 0 0 0 0.00118426 0 0 0 0.25 0" />
            <feBlend mode="normal" in2="BackgroundImageFix" result="effect1_dropShadow_3106_4761" />
            <feBlend mode="normal" in="SourceGraphic" in2="effect1_dropShadow_3106_4761" result="shape" />
        </filter>
        <filter id="filter2_d_3106_4761" x="0.875" y="75.875" width="97.9688" height="97.9688"
            filterUnits="userSpaceOnUse" color-interpolation-filters="sRGB">
            <feFlood flood-opacity="0" result="BackgroundImageFix" />
            <feColorMatrix in="SourceAlpha" type="matrix" values="0 0 0 0 0 0 0 0 0 0 0 0 0 0 0 0 0 0 127 0"
                result="hardAlpha" />
            <feMorphology radius="4" operator="dilate" in="SourceAlpha" result="effect1_dropShadow_3106_4761" />
            <feOffset />
            <feGaussianBlur stdDeviation="2" />
            <feComposite in2="hardAlpha" operator="out" />
            <feColorMatrix type="matrix" values="0 0 0 0 0.599268 0 0 0 0 0.354397 0 0 0 0 0.0581028 0 0 0 0.25 0" />
            <feBlend mode="normal" in2="BackgroundImageFix" result="effect1_dropShadow_3106_4761" />
            <feBlend mode="normal" in="SourceGraphic" in2="effect1_dropShadow_3106_4761" result="shape" />
        </filter>
        <filter id="filter3_d_3106_4761" x="7.75" y="82.75" width="84.2188" height="84.2188"
            filterUnits="userSpaceOnUse" color-interpolation-filters="sRGB">
            <feFlood flood-opacity="0" result="BackgroundImageFix" />
            <feColorMatrix in="SourceAlpha" type="matrix" values="0 0 0 0 0 0 0 0 0 0 0 0 0 0 0 0 0 0 127 0"
                result="hardAlpha" />
            <feMorphology radius="4" operator="dilate" in="SourceAlpha" result="effect1_dropShadow_3106_4761" />
            <feOffset />
            <feGaussianBlur stdDeviation="2" />
            <feComposite in2="hardAlpha" operator="out" />
            <feColorMatrix type="matrix" values="0 0 0 0 0.599268 0 0 0 0 0.354397 0 0 0 0 0.0581028 0 0 0 0.25 0" />
            <feBlend mode="normal" in2="BackgroundImageFix" result="effect1_dropShadow_3106_4761" />
            <feBlend mode="normal" in="SourceGraphic" in2="effect1_dropShadow_3106_4761" result="shape" />
        </filter>
        <filter id="filter4_d_3106_4761" x="271.527" y="232.523" width="165.363" height="165.363"
            filterUnits="userSpaceOnUse" color-interpolation-filters="sRGB">
            <feFlood flood-opacity="0" result="BackgroundImageFix" />
            <feColorMatrix in="SourceAlpha" type="matrix" values="0 0 0 0 0 0 0 0 0 0 0 0 0 0 0 0 0 0 127 0"
                result="hardAlpha" />
            <feMorphology radius="4" operator="dilate" in="SourceAlpha" result="effect1_dropShadow_3106_4761" />
            <feOffset />
            <feGaussianBlur stdDeviation="2" />
            <feComposite in2="hardAlpha" operator="out" />
            <feColorMatrix type="matrix" values="0 0 0 0 0.489469 0 0 0 0 0.244988 0 0 0 0 0.058969 0 0 0 0.25 0" />
            <feBlend mode="normal" in2="BackgroundImageFix" result="effect1_dropShadow_3106_4761" />
            <feBlend mode="normal" in="SourceGraphic" in2="effect1_dropShadow_3106_4761" result="shape" />
        </filter>
        <filter id="filter5_d_3106_4761" x="284.051" y="245.055" width="140.309" height="140.309"
            filterUnits="userSpaceOnUse" color-interpolation-filters="sRGB">
            <feFlood flood-opacity="0" result="BackgroundImageFix" />
            <feColorMatrix in="SourceAlpha" type="matrix" values="0 0 0 0 0 0 0 0 0 0 0 0 0 0 0 0 0 0 127 0"
                result="hardAlpha" />
            <feMorphology radius="4" operator="dilate" in="SourceAlpha" result="effect1_dropShadow_3106_4761" />
            <feOffset />
            <feGaussianBlur stdDeviation="2" />
            <feComposite in2="hardAlpha" operator="out" />
            <feColorMatrix type="matrix" values="0 0 0 0 0.489469 0 0 0 0 0.244988 0 0 0 0 0.058969 0 0 0 0.25 0" />
            <feBlend mode="normal" in2="BackgroundImageFix" result="effect1_dropShadow_3106_4761" />
            <feBlend mode="normal" in="SourceGraphic" in2="effect1_dropShadow_3106_4761" result="shape" />
        </filter>
        <filter id="filter6_d_3106_4761" x="95.0586" y="174.062" width="147.879" height="147.879"
            filterUnits="userSpaceOnUse" color-interpolation-filters="sRGB">
            <feFlood flood-opacity="0" result="BackgroundImageFix" />
            <feColorMatrix in="SourceAlpha" type="matrix" values="0 0 0 0 0 0 0 0 0 0 0 0 0 0 0 0 0 0 127 0"
                result="hardAlpha" />
            <feMorphology radius="4" operator="dilate" in="SourceAlpha" result="effect1_dropShadow_3106_4761" />
            <feOffset />
            <feGaussianBlur stdDeviation="2" />
            <feComposite in2="hardAlpha" operator="out" />
            <feColorMatrix type="matrix" values="0 0 0 0 0.425978 0 0 0 0 0.42359 0 0 0 0 0.497607 0 0 0 0.25 0" />
            <feBlend mode="normal" in2="BackgroundImageFix" result="effect1_dropShadow_3106_4761" />
            <feBlend mode="normal" in="SourceGraphic" in2="effect1_dropShadow_3106_4761" result="shape" />
        </filter>
        <filter id="filter7_d_3106_4761" x="106.121" y="185.117" width="125.758" height="125.758"
            filterUnits="userSpaceOnUse" color-interpolation-filters="sRGB">
            <feFlood flood-opacity="0" result="BackgroundImageFix" />
            <feColorMatrix in="SourceAlpha" type="matrix" values="0 0 0 0 0 0 0 0 0 0 0 0 0 0 0 0 0 0 127 0"
                result="hardAlpha" />
            <feMorphology radius="4" operator="dilate" in="SourceAlpha" result="effect1_dropShadow_3106_4761" />
            <feOffset />
            <feGaussianBlur stdDeviation="2" />
            <feComposite in2="hardAlpha" operator="out" />
            <feColorMatrix type="matrix" values="0 0 0 0 0.425978 0 0 0 0 0.42359 0 0 0 0 0.497607 0 0 0 0.25 0" />
            <feBlend mode="normal" in2="BackgroundImageFix" result="effect1_dropShadow_3106_4761" />
            <feBlend mode="normal" in="SourceGraphic" in2="effect1_dropShadow_3106_4761" result="shape" />
        </filter>
        <filter id="filter8_d_3106_4761" x="119.16" y="1.15625" width="125.184" height="125.184"
            filterUnits="userSpaceOnUse" color-interpolation-filters="sRGB">
            <feFlood flood-opacity="0" result="BackgroundImageFix" />
            <feColorMatrix in="SourceAlpha" type="matrix" values="0 0 0 0 0 0 0 0 0 0 0 0 0 0 0 0 0 0 127 0"
                result="hardAlpha" />
            <feMorphology radius="4" operator="dilate" in="SourceAlpha" result="effect1_dropShadow_3106_4761" />
            <feOffset />
            <feGaussianBlur stdDeviation="2" />
            <feComposite in2="hardAlpha" operator="out" />
            <feColorMatrix type="matrix" values="0 0 0 0 0.425978 0 0 0 0 0.42359 0 0 0 0 0.497607 0 0 0 0.25 0" />
            <feBlend mode="normal" in2="BackgroundImageFix" result="effect1_dropShadow_3106_4761" />
            <feBlend mode="normal" in="SourceGraphic" in2="effect1_dropShadow_3106_4761" result="shape" />
        </filter>
        <filter id="filter9_d_3106_4761" x="128.312" y="10.3203" width="106.867" height="106.867"
            filterUnits="userSpaceOnUse" color-interpolation-filters="sRGB">
            <feFlood flood-opacity="0" result="BackgroundImageFix" />
            <feColorMatrix in="SourceAlpha" type="matrix" values="0 0 0 0 0 0 0 0 0 0 0 0 0 0 0 0 0 0 127 0"
                result="hardAlpha" />
            <feMorphology radius="4" operator="dilate" in="SourceAlpha" result="effect1_dropShadow_3106_4761" />
            <feOffset />
            <feGaussianBlur stdDeviation="2" />
            <feComposite in2="hardAlpha" operator="out" />
            <feColorMatrix type="matrix" values="0 0 0 0 0.425978 0 0 0 0 0.42359 0 0 0 0 0.497607 0 0 0 0.25 0" />
            <feBlend mode="normal" in2="BackgroundImageFix" result="effect1_dropShadow_3106_4761" />
            <feBlend mode="normal" in="SourceGraphic" in2="effect1_dropShadow_3106_4761" result="shape" />
        </filter>
        <clipPath id="clip0_3106_4761">
            <rect width="75.6453" height="63.6618" fill="white" transform="translate(286.969 109.453)" />
        </clipPath>
        <clipPath id="clip1_3106_4761">
            <rect x="27.9141" y="102.914" width="44.6873" height="44.2094" rx="22.1047" fill="white" />
        </clipPath>
        <clipPath id="clip2_3106_4761">
            <rect width="58.4655" height="57.0567" fill="white" transform="translate(151.816 34.5156)" />
        </clipPath>
    </defs>
</svg>
