<svg width="341" height="527" viewBox="0 0 341 527" fill="none" xmlns="http://www.w3.org/2000/svg">
<path d="M170.558 44.5332C160.31 44.5332 153.982 37.2532 153.982 27.9572C153.982 18.6612 160.31 11.4372 170.558 11.4372C180.694 11.4372 187.022 18.6612 187.022 27.9572C187.022 37.3092 180.694 44.5332 170.558 44.5332ZM170.558 41.6772C178.846 41.6772 183.998 36.0772 183.998 27.9572C183.998 19.8372 178.846 14.2372 170.558 14.2372C162.214 14.2372 157.006 19.8932 157.006 27.9572C157.006 36.0212 162.214 41.6772 170.558 41.6772ZM176.102 36.4132H165.63V33.7252H169.494V25.3812C169.326 25.5492 169.046 25.6612 168.654 25.6612H165.574V22.9732H168.318C169.102 22.9732 169.55 22.4132 169.55 21.6852V19.5572H172.35V33.6692H176.102V36.4132Z" fill="white"/>
<path d="M105.139 69.6243C105.139 74.6815 101.271 78.7812 96.4994 78.7812C91.7276 78.7812 87.8594 74.6815 87.8594 69.6243C87.8594 65.7223 93.0027 58.4656 95.3527 55.3537C95.9291 54.5904 97.0697 54.5904 97.6461 55.3537C99.996 58.4656 105.139 65.7223 105.139 69.6243Z" fill="url(#paint0_linear_3170_6288)"/>
<path d="M105.139 69.6243C105.139 74.6815 101.271 78.7812 96.4994 78.7812C91.7276 78.7812 87.8594 74.6815 87.8594 69.6243C87.8594 65.7223 93.0027 58.4656 95.3527 55.3537C95.9291 54.5904 97.0697 54.5904 97.6461 55.3537C99.996 58.4656 105.139 65.7223 105.139 69.6243Z" fill="url(#paint1_linear_3170_6288)"/>
<path d="M102.134 73.3948C102.134 76.3697 99.6114 78.7812 96.4994 78.7812C93.3874 78.7812 90.8646 76.3697 90.8646 73.3948C90.8646 71.2611 93.7634 67.4219 95.4027 65.4215C95.9708 64.7282 97.0279 64.7282 97.596 65.4215C99.2353 67.4219 102.134 71.2611 102.134 73.3948Z" fill="url(#paint2_linear_3170_6288)"/>
<path d="M119.207 64.1952C121.673 64.1952 123.329 65.9412 123.329 68.5152C123.329 71.4132 121.223 72.8893 118.685 72.8893C115.841 72.8893 114.095 71.0352 113.987 68.7312H116.561C116.687 69.8652 117.425 70.7652 118.703 70.7652C119.729 70.7652 120.719 70.0092 120.719 68.5152C120.719 67.1832 119.927 66.2472 118.685 66.2472C118.037 66.2472 117.101 66.5172 116.669 67.5612H114.167L114.527 60.1812H122.591V62.3592H116.885L116.741 65.1132C117.335 64.5192 118.145 64.1952 119.207 64.1952ZM131.562 68.6952H125.262V66.6252H131.562V68.6952ZM137.195 72.7812H134.765L132.803 63.5293H135.215L136.349 69.8832L137.753 64.7352H139.409L140.795 69.8832L141.929 63.5293H144.269L142.289 72.7812H139.877L138.545 68.0832L137.195 72.7812ZM150.169 72.8893C147.145 72.8893 145.327 71.0352 145.327 68.1732C145.327 65.2932 147.181 63.4212 150.007 63.4212C152.725 63.4212 154.579 65.1492 154.597 67.8672C154.597 68.1012 154.579 68.4432 154.525 68.7492H147.973V68.8572C148.027 70.1712 148.855 70.9632 150.079 70.9632C151.069 70.9632 151.753 70.5132 151.969 69.6492H154.471C154.201 71.4492 152.617 72.8893 150.169 72.8893ZM148.027 67.0752H152.059C151.879 65.9412 151.123 65.3112 150.025 65.3112C148.963 65.3112 148.171 65.9772 148.027 67.0752ZM160.997 72.8893C157.973 72.8893 156.155 71.0352 156.155 68.1732C156.155 65.2932 158.009 63.4212 160.835 63.4212C163.553 63.4212 165.407 65.1492 165.425 67.8672C165.425 68.1012 165.407 68.4432 165.353 68.7492H158.801V68.8572C158.855 70.1712 159.683 70.9632 160.907 70.9632C161.897 70.9632 162.581 70.5132 162.797 69.6492H165.299C165.029 71.4492 163.445 72.8893 160.997 72.8893ZM158.855 67.0752H162.887C162.707 65.9412 161.951 65.3112 160.853 65.3112C159.791 65.3112 158.999 65.9772 158.855 67.0752ZM170.025 72.7812H167.487V60.1812H170.025V67.4532L173.643 63.5293H176.505L173.157 67.1832L176.649 72.7812H173.697L171.375 69.0372L170.025 70.5132V72.7812ZM181.409 72.8893C178.871 72.8893 177.161 71.6832 177.071 69.7032H179.483C179.555 70.5132 180.221 71.0712 181.427 71.0712C182.435 71.0712 183.047 70.7292 183.047 70.0812C183.047 69.3252 182.417 69.2532 181.013 69.0732C178.889 68.8212 177.251 68.3352 177.251 66.4272C177.251 64.5912 178.817 63.4032 181.157 63.4032C183.587 63.4032 185.261 64.5012 185.369 66.3912H182.957C182.867 65.6532 182.219 65.2032 181.229 65.2032C180.293 65.2032 179.681 65.5632 179.681 66.1572C179.681 66.8592 180.455 66.9492 181.733 67.0932C183.749 67.3092 185.513 67.7952 185.513 69.8832C185.513 71.7192 183.839 72.8893 181.409 72.8893ZM197.142 72.8893C194.604 72.8893 192.894 71.6832 192.804 69.7032H195.216C195.288 70.5132 195.954 71.0712 197.16 71.0712C198.168 71.0712 198.78 70.7292 198.78 70.0812C198.78 69.3252 198.15 69.2532 196.746 69.0732C194.622 68.8212 192.984 68.3352 192.984 66.4272C192.984 64.5912 194.55 63.4032 196.89 63.4032C199.32 63.4032 200.994 64.5012 201.102 66.3912H198.69C198.6 65.6532 197.952 65.2032 196.962 65.2032C196.026 65.2032 195.414 65.5632 195.414 66.1572C195.414 66.8592 196.188 66.9492 197.466 67.0932C199.482 67.3092 201.246 67.7952 201.246 69.8832C201.246 71.7192 199.572 72.8893 197.142 72.8893ZM210.189 72.7812H207.237C205.473 72.7812 204.591 71.8992 204.591 70.1353V65.6712H202.413V63.5293H204.591V60.9372H207.129V63.5293H210.153V65.6712H207.129V69.7212C207.129 70.3692 207.381 70.6392 208.047 70.6392H210.189V72.7812ZM219.819 65.8332H218.307C216.723 65.8332 216.111 66.8592 216.111 68.2452V70.6392H218.649V72.7812H211.701V70.6392H213.573V65.6712H211.701V63.5293H215.931L216.003 65.1312C216.507 64.2132 217.281 63.5293 218.757 63.5293H219.819V65.8332ZM225.843 72.8893C222.819 72.8893 221.001 71.0352 221.001 68.1732C221.001 65.2932 222.855 63.4212 225.681 63.4212C228.399 63.4212 230.253 65.1492 230.271 67.8672C230.271 68.1012 230.253 68.4432 230.199 68.7492H223.647V68.8572C223.701 70.1712 224.529 70.9632 225.753 70.9632C226.743 70.9632 227.427 70.5132 227.643 69.6492H230.145C229.875 71.4492 228.291 72.8893 225.843 72.8893ZM223.701 67.0752H227.733C227.553 65.9412 226.797 65.3112 225.699 65.3112C224.637 65.3112 223.845 65.9772 223.701 67.0752ZM240.775 70.6392H241.045V72.7812H239.803C238.597 72.7812 238.147 72.2232 238.129 71.4312C237.463 72.3672 236.491 72.8893 235.177 72.8893C233.233 72.8893 231.793 71.9172 231.793 70.1532C231.793 68.1912 233.251 67.0932 235.987 67.0932H237.733V66.6432C237.733 65.8152 237.175 65.2752 236.113 65.2752C235.195 65.2752 234.547 65.7252 234.457 66.4092H231.991C232.171 64.6452 233.755 63.4212 236.221 63.4212C238.777 63.4212 240.253 64.5732 240.253 66.7872V70.0632C240.253 70.5132 240.379 70.6392 240.775 70.6392ZM237.733 69.0372V68.7852H235.951C234.925 68.7852 234.349 69.2172 234.349 69.9912C234.349 70.6392 234.853 71.0532 235.663 71.0532C236.923 71.0532 237.733 70.2432 237.733 69.0372ZM245.365 72.7812H242.827V60.1812H245.365V67.4532L248.983 63.5293H251.845L248.497 67.1832L251.989 72.7812H249.037L246.715 69.0372L245.365 70.5132V72.7812Z" fill="white"/>
<path d="M170.5 110.781L173.387 105.781H167.613L170.5 110.781ZM170 86.7812V106.281H171V86.7812H170Z" fill="#313131"/>
<path d="M170.558 154.533C160.31 154.533 153.982 147.253 153.982 137.957C153.982 128.661 160.31 121.437 170.558 121.437C180.694 121.437 187.022 128.661 187.022 137.957C187.022 147.309 180.694 154.533 170.558 154.533ZM170.558 151.677C178.846 151.677 183.998 146.077 183.998 137.957C183.998 129.837 178.846 124.237 170.558 124.237C162.214 124.237 157.006 129.893 157.006 137.957C157.006 146.021 162.214 151.677 170.558 151.677ZM176.718 146.413H164.174V143.893L171.006 138.517C172.238 137.565 173.526 136.333 173.526 134.709C173.526 133.085 172.126 131.965 170.39 131.965C168.43 131.965 167.086 133.197 167.086 135.325V135.493H164.174V135.157C164.174 131.629 166.918 129.277 170.334 129.277C173.974 129.277 176.55 131.461 176.55 134.653C176.55 137.341 174.646 138.853 173.246 139.973L168.542 143.725H176.718V146.413Z" fill="white"/>
<path d="M100.639 179.624C100.639 184.682 96.7711 188.781 91.9994 188.781C87.2276 188.781 83.3594 184.682 83.3594 179.624C83.3594 175.722 88.5027 168.466 90.8527 165.354C91.4291 164.59 92.5697 164.59 93.1461 165.354C95.496 168.466 100.639 175.722 100.639 179.624Z" fill="url(#paint3_linear_3170_6288)"/>
<path d="M100.639 179.624C100.639 184.682 96.7711 188.781 91.9994 188.781C87.2276 188.781 83.3594 184.682 83.3594 179.624C83.3594 175.722 88.5027 168.466 90.8527 165.354C91.4291 164.59 92.5697 164.59 93.1461 165.354C95.496 168.466 100.639 175.722 100.639 179.624Z" fill="url(#paint4_linear_3170_6288)"/>
<path d="M97.6342 183.395C97.6342 186.37 95.1114 188.781 91.9994 188.781C88.8874 188.781 86.3646 186.37 86.3646 183.395C86.3646 181.261 89.2634 177.422 90.9027 175.421C91.4708 174.728 92.5279 174.728 93.096 175.421C94.7353 177.422 97.6342 181.261 97.6342 183.395Z" fill="url(#paint5_linear_3170_6288)"/>
<path d="M115.013 170.181V180.585H117.803V182.781H109.451V180.585H112.439V174.753C112.259 174.807 112.043 174.825 111.827 174.825H109.505V172.683H111.539C112.169 172.683 112.475 172.089 112.475 171.405V170.181H115.013ZM123.558 170.073C126.528 170.073 128.328 172.413 128.328 176.193V176.769C128.328 180.657 126.528 182.889 123.558 182.889C120.588 182.889 118.788 180.657 118.788 176.769V176.193C118.788 172.413 120.588 170.073 123.558 170.073ZM121.326 176.283V176.679C121.326 177.039 121.344 177.399 121.362 177.705L125.304 173.295C124.926 172.503 124.35 172.107 123.558 172.107C122.064 172.107 121.326 173.529 121.326 176.283ZM125.79 176.679V176.283C125.79 175.923 125.772 175.581 125.754 175.257L121.83 179.685C122.208 180.441 122.784 180.837 123.558 180.837C125.052 180.837 125.79 179.433 125.79 176.679ZM136.747 178.695H130.447V176.625H136.747V178.695ZM142.38 182.781H139.95L137.988 173.529H140.4L141.534 179.883L142.938 174.735H144.594L145.98 179.883L147.114 173.529H149.454L147.474 182.781H145.062L143.73 178.083L142.38 182.781ZM155.354 182.889C152.33 182.889 150.512 181.035 150.512 178.173C150.512 175.293 152.366 173.421 155.192 173.421C157.91 173.421 159.764 175.149 159.782 177.867C159.782 178.101 159.764 178.443 159.71 178.749H153.158V178.857C153.212 180.171 154.04 180.963 155.264 180.963C156.254 180.963 156.938 180.513 157.154 179.649H159.656C159.386 181.449 157.802 182.889 155.354 182.889ZM153.212 177.075H157.244C157.064 175.941 156.308 175.311 155.21 175.311C154.148 175.311 153.356 175.977 153.212 177.075ZM166.182 182.889C163.158 182.889 161.34 181.035 161.34 178.173C161.34 175.293 163.194 173.421 166.02 173.421C168.738 173.421 170.592 175.149 170.61 177.867C170.61 178.101 170.592 178.443 170.538 178.749H163.986V178.857C164.04 180.171 164.868 180.963 166.092 180.963C167.082 180.963 167.766 180.513 167.982 179.649H170.484C170.214 181.449 168.63 182.889 166.182 182.889ZM164.04 177.075H168.072C167.892 175.941 167.136 175.311 166.038 175.311C164.976 175.311 164.184 175.977 164.04 177.075ZM175.211 182.781H172.673V170.181H175.211V177.453L178.829 173.529H181.691L178.343 177.183L181.835 182.781H178.883L176.561 179.037L175.211 180.513V182.781ZM186.595 182.889C184.057 182.889 182.347 181.683 182.257 179.703H184.669C184.741 180.513 185.407 181.071 186.613 181.071C187.621 181.071 188.233 180.729 188.233 180.081C188.233 179.325 187.603 179.253 186.199 179.073C184.075 178.821 182.437 178.335 182.437 176.427C182.437 174.591 184.003 173.403 186.343 173.403C188.773 173.403 190.447 174.501 190.555 176.391H188.143C188.053 175.653 187.405 175.203 186.415 175.203C185.479 175.203 184.867 175.563 184.867 176.157C184.867 176.859 185.641 176.949 186.919 177.093C188.935 177.309 190.699 177.795 190.699 179.883C190.699 181.719 189.025 182.889 186.595 182.889ZM202.327 182.889C199.789 182.889 198.079 181.683 197.989 179.703H200.401C200.473 180.513 201.139 181.071 202.345 181.071C203.353 181.071 203.965 180.729 203.965 180.081C203.965 179.325 203.335 179.253 201.931 179.073C199.807 178.821 198.169 178.335 198.169 176.427C198.169 174.591 199.735 173.403 202.075 173.403C204.505 173.403 206.179 174.501 206.287 176.391H203.875C203.785 175.653 203.137 175.203 202.147 175.203C201.211 175.203 200.599 175.563 200.599 176.157C200.599 176.859 201.373 176.949 202.651 177.093C204.667 177.309 206.431 177.795 206.431 179.883C206.431 181.719 204.757 182.889 202.327 182.889ZM215.375 182.781H212.423C210.659 182.781 209.777 181.899 209.777 180.135V175.671H207.599V173.529H209.777V170.937H212.315V173.529H215.339V175.671H212.315V179.721C212.315 180.369 212.567 180.639 213.233 180.639H215.375V182.781ZM225.005 175.833H223.493C221.909 175.833 221.297 176.859 221.297 178.245V180.639H223.835V182.781H216.887V180.639H218.759V175.671H216.887V173.529H221.117L221.189 175.131C221.693 174.213 222.467 173.529 223.943 173.529H225.005V175.833ZM231.028 182.889C228.004 182.889 226.186 181.035 226.186 178.173C226.186 175.293 228.04 173.421 230.866 173.421C233.584 173.421 235.438 175.149 235.456 177.867C235.456 178.101 235.438 178.443 235.384 178.749H228.832V178.857C228.886 180.171 229.714 180.963 230.938 180.963C231.928 180.963 232.612 180.513 232.828 179.649H235.33C235.06 181.449 233.476 182.889 231.028 182.889ZM228.886 177.075H232.918C232.738 175.941 231.982 175.311 230.884 175.311C229.822 175.311 229.03 175.977 228.886 177.075ZM245.96 180.639H246.23V182.781H244.988C243.782 182.781 243.332 182.223 243.314 181.431C242.648 182.367 241.676 182.889 240.362 182.889C238.418 182.889 236.978 181.917 236.978 180.153C236.978 178.191 238.436 177.093 241.172 177.093H242.918V176.643C242.918 175.815 242.36 175.275 241.298 175.275C240.38 175.275 239.732 175.725 239.642 176.409H237.176C237.356 174.645 238.94 173.421 241.406 173.421C243.962 173.421 245.438 174.573 245.438 176.787V180.063C245.438 180.513 245.564 180.639 245.96 180.639ZM242.918 179.037V178.785H241.136C240.11 178.785 239.534 179.217 239.534 179.991C239.534 180.639 240.038 181.053 240.848 181.053C242.108 181.053 242.918 180.243 242.918 179.037ZM250.55 182.781H248.012V170.181H250.55V177.453L254.168 173.529H257.03L253.682 177.183L257.174 182.781H254.222L251.9 179.037L250.55 180.513V182.781Z" fill="white"/>
<path d="M170.5 220.781L173.387 215.781H167.613L170.5 220.781ZM170 196.781V216.281H171V196.781H170Z" fill="#313131"/>
<path d="M170.558 264.533C160.31 264.533 153.982 257.253 153.982 247.957C153.982 238.661 160.31 231.437 170.558 231.437C180.694 231.437 187.022 238.661 187.022 247.957C187.022 257.309 180.694 264.533 170.558 264.533ZM170.558 261.677C178.846 261.677 183.998 256.077 183.998 247.957C183.998 239.837 178.846 234.237 170.558 234.237C162.214 234.237 157.006 239.893 157.006 247.957C157.006 256.021 162.214 261.677 170.558 261.677ZM170.39 256.693C166.358 256.693 163.894 254.733 163.838 251.037H166.694C166.694 252.829 168.038 254.173 170.39 254.173C172.63 254.173 173.918 253.053 173.918 251.373C173.918 249.805 172.518 248.965 170.278 248.965H169.214V246.557H170.222C172.238 246.557 173.582 245.717 173.582 244.149C173.582 242.805 172.406 241.797 170.446 241.797C168.262 241.797 167.142 242.973 167.142 244.653H164.286C164.342 241.293 166.862 239.277 170.502 239.277C174.086 239.277 176.494 241.237 176.494 243.925C176.494 245.773 175.094 247.173 173.694 247.565C175.71 247.957 176.942 249.637 176.942 251.541C176.942 254.621 174.31 256.693 170.39 256.693Z" fill="white"/>
<path d="M100.639 289.624C100.639 294.682 96.7711 298.781 91.9994 298.781C87.2276 298.781 83.3594 294.682 83.3594 289.624C83.3594 285.722 88.5027 278.466 90.8527 275.354C91.4291 274.59 92.5697 274.59 93.1461 275.354C95.496 278.466 100.639 285.722 100.639 289.624Z" fill="url(#paint6_linear_3170_6288)"/>
<path d="M100.639 289.624C100.639 294.682 96.7711 298.781 91.9994 298.781C87.2276 298.781 83.3594 294.682 83.3594 289.624C83.3594 285.722 88.5027 278.466 90.8527 275.354C91.4291 274.59 92.5697 274.59 93.1461 275.354C95.496 278.466 100.639 285.722 100.639 289.624Z" fill="url(#paint7_linear_3170_6288)"/>
<path d="M97.6342 293.395C97.6342 296.37 95.1114 298.781 91.9994 298.781C88.8874 298.781 86.3646 296.37 86.3646 293.395C86.3646 291.261 89.2634 287.422 90.9027 285.421C91.4708 284.728 92.5279 284.728 93.096 285.421C94.7353 287.422 97.6342 291.261 97.6342 293.395Z" fill="url(#paint8_linear_3170_6288)"/>
<path d="M115.013 280.181V290.585H117.803V292.781H109.451V290.585H112.439V284.753C112.259 284.807 112.043 284.825 111.827 284.825H109.505V282.683H111.539C112.169 282.683 112.475 282.089 112.475 281.405V280.181H115.013ZM124.445 284.195C126.911 284.195 128.567 285.941 128.567 288.515C128.567 291.413 126.461 292.889 123.923 292.889C121.079 292.889 119.333 291.035 119.225 288.731H121.799C121.925 289.865 122.663 290.765 123.941 290.765C124.967 290.765 125.957 290.009 125.957 288.515C125.957 287.183 125.165 286.247 123.923 286.247C123.275 286.247 122.339 286.517 121.907 287.561H119.405L119.765 280.181H127.829V282.359H122.123L121.979 285.113C122.573 284.519 123.383 284.195 124.445 284.195ZM136.8 288.695H130.5V286.625H136.8V288.695ZM142.433 292.781H140.003L138.041 283.529H140.453L141.587 289.883L142.991 284.735H144.647L146.033 289.883L147.167 283.529H149.507L147.527 292.781H145.115L143.783 288.083L142.433 292.781ZM155.407 292.889C152.383 292.889 150.565 291.035 150.565 288.173C150.565 285.293 152.419 283.421 155.245 283.421C157.963 283.421 159.817 285.149 159.835 287.867C159.835 288.101 159.817 288.443 159.763 288.749H153.211V288.857C153.265 290.171 154.093 290.963 155.317 290.963C156.307 290.963 156.991 290.513 157.207 289.649H159.709C159.439 291.449 157.855 292.889 155.407 292.889ZM153.265 287.075H157.297C157.117 285.941 156.361 285.311 155.263 285.311C154.201 285.311 153.409 285.977 153.265 287.075ZM166.235 292.889C163.211 292.889 161.393 291.035 161.393 288.173C161.393 285.293 163.247 283.421 166.073 283.421C168.791 283.421 170.645 285.149 170.663 287.867C170.663 288.101 170.645 288.443 170.591 288.749H164.039V288.857C164.093 290.171 164.921 290.963 166.145 290.963C167.135 290.963 167.819 290.513 168.035 289.649H170.537C170.267 291.449 168.683 292.889 166.235 292.889ZM164.093 287.075H168.125C167.945 285.941 167.189 285.311 166.091 285.311C165.029 285.311 164.237 285.977 164.093 287.075ZM175.263 292.781H172.725V280.181H175.263V287.453L178.881 283.529H181.743L178.395 287.183L181.887 292.781H178.935L176.613 289.037L175.263 290.513V292.781ZM186.647 292.889C184.109 292.889 182.399 291.683 182.309 289.703H184.721C184.793 290.513 185.459 291.071 186.665 291.071C187.673 291.071 188.285 290.729 188.285 290.081C188.285 289.325 187.655 289.253 186.251 289.073C184.127 288.821 182.489 288.335 182.489 286.427C182.489 284.591 184.055 283.403 186.395 283.403C188.825 283.403 190.499 284.501 190.607 286.391H188.195C188.105 285.653 187.457 285.203 186.467 285.203C185.531 285.203 184.919 285.563 184.919 286.157C184.919 286.859 185.693 286.949 186.971 287.093C188.987 287.309 190.751 287.795 190.751 289.883C190.751 291.719 189.077 292.889 186.647 292.889ZM202.38 292.889C199.842 292.889 198.132 291.683 198.042 289.703H200.454C200.526 290.513 201.192 291.071 202.398 291.071C203.406 291.071 204.018 290.729 204.018 290.081C204.018 289.325 203.388 289.253 201.984 289.073C199.86 288.821 198.222 288.335 198.222 286.427C198.222 284.591 199.788 283.403 202.128 283.403C204.558 283.403 206.232 284.501 206.34 286.391H203.928C203.838 285.653 203.19 285.203 202.2 285.203C201.264 285.203 200.652 285.563 200.652 286.157C200.652 286.859 201.426 286.949 202.704 287.093C204.72 287.309 206.484 287.795 206.484 289.883C206.484 291.719 204.81 292.889 202.38 292.889ZM215.428 292.781H212.476C210.712 292.781 209.83 291.899 209.83 290.135V285.671H207.652V283.529H209.83V280.937H212.368V283.529H215.392V285.671H212.368V289.721C212.368 290.369 212.62 290.639 213.286 290.639H215.428V292.781ZM225.058 285.833H223.546C221.962 285.833 221.35 286.859 221.35 288.245V290.639H223.888V292.781H216.94V290.639H218.812V285.671H216.94V283.529H221.17L221.242 285.131C221.746 284.213 222.52 283.529 223.996 283.529H225.058V285.833ZM231.081 292.889C228.057 292.889 226.239 291.035 226.239 288.173C226.239 285.293 228.093 283.421 230.919 283.421C233.637 283.421 235.491 285.149 235.509 287.867C235.509 288.101 235.491 288.443 235.437 288.749H228.885V288.857C228.939 290.171 229.767 290.963 230.991 290.963C231.981 290.963 232.665 290.513 232.881 289.649H235.383C235.113 291.449 233.529 292.889 231.081 292.889ZM228.939 287.075H232.971C232.791 285.941 232.035 285.311 230.937 285.311C229.875 285.311 229.083 285.977 228.939 287.075ZM246.013 290.639H246.283V292.781H245.041C243.835 292.781 243.385 292.223 243.367 291.431C242.701 292.367 241.729 292.889 240.415 292.889C238.471 292.889 237.031 291.917 237.031 290.153C237.031 288.191 238.489 287.093 241.225 287.093H242.971V286.643C242.971 285.815 242.413 285.275 241.351 285.275C240.433 285.275 239.785 285.725 239.695 286.409H237.229C237.409 284.645 238.993 283.421 241.459 283.421C244.015 283.421 245.491 284.573 245.491 286.787V290.063C245.491 290.513 245.617 290.639 246.013 290.639ZM242.971 289.037V288.785H241.189C240.163 288.785 239.587 289.217 239.587 289.991C239.587 290.639 240.091 291.053 240.901 291.053C242.161 291.053 242.971 290.243 242.971 289.037ZM250.603 292.781H248.065V280.181H250.603V287.453L254.221 283.529H257.083L253.735 287.183L257.227 292.781H254.275L251.953 289.037L250.603 290.513V292.781Z" fill="white"/>
<path d="M170.5 330.781L173.387 325.781H167.613L170.5 330.781ZM170 306.781V326.281H171V306.781H170Z" fill="#313131"/>
<path d="M170.558 374.533C160.31 374.533 153.982 367.253 153.982 357.957C153.982 348.661 160.31 341.437 170.558 341.437C180.694 341.437 187.022 348.661 187.022 357.957C187.022 367.309 180.694 374.533 170.558 374.533ZM170.558 371.677C178.846 371.677 183.998 366.077 183.998 357.957C183.998 349.837 178.846 344.237 170.558 344.237C162.214 344.237 157.006 349.893 157.006 357.957C157.006 366.021 162.214 371.677 170.558 371.677ZM174.086 366.413H171.23V362.325H162.774V359.749L170.502 349.557H174.086V359.805H176.774V362.325H174.086V366.413ZM171.23 352.357L165.63 359.805H171.23V352.357Z" fill="white"/>
<path d="M98.0676 399.624C98.0676 404.682 94.2958 408.781 89.6432 408.781C84.9905 408.781 81.2188 404.682 81.2188 399.624C81.2188 395.722 86.2338 388.466 88.5251 385.354C89.0871 384.59 90.1992 384.59 90.7612 385.354C93.0526 388.466 98.0676 395.722 98.0676 399.624Z" fill="url(#paint9_linear_3170_6288)"/>
<path d="M98.0676 399.624C98.0676 404.682 94.2958 408.781 89.6432 408.781C84.9905 408.781 81.2188 404.682 81.2188 399.624C81.2188 395.722 86.2338 388.466 88.5251 385.354C89.0871 384.59 90.1992 384.59 90.7612 385.354C93.0526 388.466 98.0676 395.722 98.0676 399.624Z" fill="url(#paint10_linear_3170_6288)"/>
<path d="M95.1373 403.395C95.1373 406.37 92.6775 408.781 89.6432 408.781C86.6088 408.781 84.149 406.37 84.149 403.395C84.149 401.261 86.9755 397.422 88.5739 395.421C89.1278 394.728 90.1585 394.728 90.7125 395.421C92.3108 397.422 95.1373 401.261 95.1373 403.395Z" fill="url(#paint11_linear_3170_6288)"/>
<path d="M112.847 393.957C115.313 393.957 116.969 395.703 116.969 398.277C116.969 401.175 114.863 402.651 112.325 402.651C109.481 402.651 107.735 400.797 107.627 398.493H110.201C110.327 399.627 111.065 400.527 112.343 400.527C113.369 400.527 114.359 399.771 114.359 398.277C114.359 396.945 113.567 396.009 112.325 396.009C111.677 396.009 110.741 396.279 110.309 397.323H107.807L108.167 389.943H116.231V392.121H110.525L110.381 394.875C110.975 394.281 111.785 393.957 112.847 393.957ZM125.202 398.457H118.902V396.387H125.202V398.457ZM137.037 393.165C138.963 393.165 140.115 394.425 140.115 396.603V402.543H137.685V396.945C137.685 396.027 137.307 395.361 136.443 395.361C135.579 395.361 135.111 396.045 135.111 396.963V402.543H132.663V396.945C132.663 396.099 132.393 395.361 131.403 395.361C130.539 395.361 130.089 396.027 130.089 396.945V402.543H127.659V393.291H129.711L129.837 394.191C130.377 393.525 131.169 393.165 132.087 393.165C133.131 393.165 134.013 393.651 134.463 394.497C135.057 393.651 135.921 393.165 137.037 393.165ZM146.778 402.651C143.934 402.651 142.026 400.761 142.026 397.917C142.026 395.073 143.934 393.183 146.778 393.183C149.64 393.183 151.548 395.073 151.548 397.917C151.548 400.761 149.64 402.651 146.778 402.651ZM146.778 400.581C148.11 400.581 148.956 399.483 148.956 397.917C148.956 396.351 148.11 395.253 146.778 395.253C145.464 395.253 144.618 396.369 144.618 397.917C144.618 399.465 145.464 400.581 146.778 400.581ZM158.752 393.183C160.696 393.183 162.352 394.227 162.352 397.341V402.543H159.814V397.629C159.814 396.171 159.292 395.361 158.05 395.361C156.826 395.361 156.142 396.189 156.142 397.773V402.543H153.604V393.291H155.818L156.052 394.425C156.61 393.705 157.402 393.183 158.752 393.183ZM171.539 402.543H168.587C166.823 402.543 165.941 401.661 165.941 399.897V395.433H163.763V393.291H165.941V390.699H168.479V393.291H171.503V395.433H168.479V399.483C168.479 400.131 168.731 400.401 169.397 400.401H171.539V402.543ZM178.757 393.183C180.827 393.183 182.411 394.353 182.411 397.341V402.543H179.873V397.575C179.873 396.261 179.369 395.361 178.091 395.361C176.849 395.361 176.111 396.243 176.111 397.719V402.543H173.573V389.943H176.111V394.353C176.723 393.633 177.551 393.183 178.757 393.183ZM188.62 402.651C186.082 402.651 184.372 401.445 184.282 399.465H186.694C186.766 400.275 187.432 400.833 188.638 400.833C189.646 400.833 190.258 400.491 190.258 399.843C190.258 399.087 189.628 399.015 188.224 398.835C186.1 398.583 184.462 398.097 184.462 396.189C184.462 394.353 186.028 393.165 188.368 393.165C190.798 393.165 192.472 394.263 192.58 396.153H190.168C190.078 395.415 189.43 394.965 188.44 394.965C187.504 394.965 186.892 395.325 186.892 395.919C186.892 396.621 187.666 396.711 188.944 396.855C190.96 397.071 192.724 397.557 192.724 399.645C192.724 401.481 191.05 402.651 188.62 402.651ZM204.353 402.651C201.815 402.651 200.105 401.445 200.015 399.465H202.427C202.499 400.275 203.165 400.833 204.371 400.833C205.379 400.833 205.991 400.491 205.991 399.843C205.991 399.087 205.361 399.015 203.957 398.835C201.833 398.583 200.195 398.097 200.195 396.189C200.195 394.353 201.761 393.165 204.101 393.165C206.531 393.165 208.205 394.263 208.312 396.153H205.901C205.811 395.415 205.163 394.965 204.173 394.965C203.237 394.965 202.625 395.325 202.625 395.919C202.625 396.621 203.399 396.711 204.677 396.855C206.693 397.071 208.457 397.557 208.457 399.645C208.457 401.481 206.783 402.651 204.353 402.651ZM217.4 402.543H214.448C212.684 402.543 211.802 401.661 211.802 399.897V395.433H209.624V393.291H211.802V390.699H214.34V393.291H217.364V395.433H214.34V399.483C214.34 400.131 214.592 400.401 215.258 400.401H217.4V402.543ZM227.03 395.595H225.518C223.934 395.595 223.322 396.621 223.322 398.007V400.401H225.86V402.543H218.912V400.401H220.784V395.433H218.912V393.291H223.142L223.214 394.893C223.718 393.975 224.492 393.291 225.968 393.291H227.03V395.595ZM233.054 402.651C230.03 402.651 228.212 400.797 228.212 397.935C228.212 395.055 230.066 393.183 232.892 393.183C235.61 393.183 237.464 394.911 237.482 397.629C237.482 397.863 237.464 398.205 237.41 398.511H230.858V398.619C230.912 399.933 231.74 400.725 232.964 400.725C233.954 400.725 234.638 400.275 234.854 399.411H237.355C237.086 401.211 235.502 402.651 233.054 402.651ZM230.912 396.837H234.944C234.764 395.703 234.008 395.073 232.91 395.073C231.848 395.073 231.056 395.739 230.912 396.837ZM247.986 400.401H248.256V402.543H247.014C245.808 402.543 245.358 401.985 245.34 401.193C244.674 402.129 243.702 402.651 242.388 402.651C240.444 402.651 239.004 401.679 239.004 399.915C239.004 397.953 240.462 396.855 243.198 396.855H244.944V396.405C244.944 395.577 244.386 395.037 243.324 395.037C242.406 395.037 241.758 395.487 241.668 396.171H239.202C239.382 394.407 240.966 393.183 243.432 393.183C245.988 393.183 247.464 394.335 247.464 396.549V399.825C247.464 400.275 247.59 400.401 247.986 400.401ZM244.944 398.799V398.547H243.162C242.136 398.547 241.56 398.979 241.56 399.753C241.56 400.401 242.064 400.815 242.874 400.815C244.134 400.815 244.944 400.005 244.944 398.799ZM252.576 402.543H250.038V389.943H252.576V397.215L256.194 393.291H259.056L255.708 396.945L259.2 402.543H256.248L253.926 398.799L252.576 400.275V402.543Z" fill="white"/>
<path d="M170.146 441.135C170.342 441.33 170.658 441.33 170.854 441.135L174.036 437.953C174.231 437.758 174.231 437.441 174.036 437.246C173.84 437.05 173.524 437.05 173.328 437.246L170.5 440.074L167.672 437.246C167.476 437.05 167.16 437.05 166.964 437.246C166.769 437.441 166.769 437.758 166.964 437.953L170.146 441.135ZM170 416.781V440.781H171V416.781H170Z" fill="#313131"/>
<path d="M170.558 484.533C160.31 484.533 153.982 477.253 153.982 467.957C153.982 458.661 160.31 451.437 170.558 451.437C180.694 451.437 187.022 458.661 187.022 467.957C187.022 477.309 180.694 484.533 170.558 484.533ZM170.558 481.677C178.846 481.677 183.998 476.077 183.998 467.957C183.998 459.837 178.846 454.237 170.558 454.237C162.214 454.237 157.006 459.893 157.006 467.957C157.006 476.021 162.214 481.677 170.558 481.677ZM170.614 476.693C167.478 476.693 164.846 474.789 164.51 471.653H167.31C167.59 473.053 169.046 474.061 170.67 474.061C172.462 474.061 173.918 472.661 173.918 470.813C173.918 468.965 172.518 467.565 170.67 467.565C169.494 467.565 168.094 468.181 167.422 469.357H164.79L165.238 459.557H175.878V462.077H167.478L167.198 466.893C168.094 465.829 169.494 465.157 171.23 465.157C174.534 465.157 176.83 467.509 176.83 470.813C176.83 474.285 174.142 476.693 170.614 476.693Z" fill="white"/>
<path d="M93.0676 509.624C93.0676 514.682 89.2958 518.781 84.6432 518.781C79.9905 518.781 76.2188 514.682 76.2188 509.624C76.2188 505.722 81.2338 498.466 83.5251 495.354C84.0871 494.59 85.1992 494.59 85.7612 495.354C88.0526 498.466 93.0676 505.722 93.0676 509.624Z" fill="url(#paint12_linear_3170_6288)"/>
<path d="M93.0676 509.624C93.0676 514.682 89.2958 518.781 84.6432 518.781C79.9905 518.781 76.2188 514.682 76.2188 509.624C76.2188 505.722 81.2338 498.466 83.5251 495.354C84.0871 494.59 85.1992 494.59 85.7612 495.354C88.0526 498.466 93.0676 505.722 93.0676 509.624Z" fill="url(#paint13_linear_3170_6288)"/>
<path d="M90.1373 513.395C90.1373 516.37 87.6775 518.781 84.6432 518.781C81.6088 518.781 79.149 516.37 79.149 513.395C79.149 511.261 81.9755 507.422 83.5739 505.421C84.1278 504.728 85.1585 504.728 85.7125 505.421C87.3108 507.422 90.1373 511.261 90.1373 513.395Z" fill="url(#paint14_linear_3170_6288)"/>
<path d="M108.153 499.943V510.347H110.943V512.543H102.591V510.347H105.579V504.515C105.399 504.569 105.183 504.587 104.967 504.587H102.645V502.445H104.679C105.309 502.445 105.615 501.851 105.615 501.167V499.943H108.153ZM116.699 499.835C119.669 499.835 121.469 502.175 121.469 505.955V506.531C121.469 510.419 119.669 512.651 116.699 512.651C113.729 512.651 111.929 510.419 111.929 506.531V505.955C111.929 502.175 113.729 499.835 116.699 499.835ZM114.467 506.045V506.441C114.467 506.801 114.485 507.161 114.503 507.467L118.445 503.057C118.067 502.265 117.491 501.869 116.699 501.869C115.205 501.869 114.467 503.291 114.467 506.045ZM118.931 506.441V506.045C118.931 505.685 118.913 505.343 118.895 505.019L114.971 509.447C115.349 510.203 115.925 510.599 116.699 510.599C118.193 510.599 118.931 509.195 118.931 506.441ZM129.888 508.457H123.588V506.387H129.888V508.457ZM141.722 503.165C143.648 503.165 144.8 504.425 144.8 506.603V512.543H142.37V506.945C142.37 506.027 141.992 505.361 141.128 505.361C140.264 505.361 139.796 506.045 139.796 506.963V512.543H137.348V506.945C137.348 506.099 137.078 505.361 136.088 505.361C135.224 505.361 134.774 506.027 134.774 506.945V512.543H132.344V503.291H134.396L134.522 504.191C135.062 503.525 135.854 503.165 136.772 503.165C137.816 503.165 138.698 503.651 139.148 504.497C139.742 503.651 140.606 503.165 141.722 503.165ZM151.464 512.651C148.62 512.651 146.712 510.761 146.712 507.917C146.712 505.073 148.62 503.183 151.464 503.183C154.326 503.183 156.234 505.073 156.234 507.917C156.234 510.761 154.326 512.651 151.464 512.651ZM151.464 510.581C152.796 510.581 153.642 509.483 153.642 507.917C153.642 506.351 152.796 505.253 151.464 505.253C150.15 505.253 149.304 506.369 149.304 507.917C149.304 509.465 150.15 510.581 151.464 510.581ZM163.438 503.183C165.382 503.183 167.038 504.227 167.038 507.341V512.543H164.5V507.629C164.5 506.171 163.978 505.361 162.736 505.361C161.512 505.361 160.828 506.189 160.828 507.773V512.543H158.29V503.291H160.504L160.738 504.425C161.296 503.705 162.088 503.183 163.438 503.183ZM176.224 512.543H173.272C171.508 512.543 170.626 511.661 170.626 509.897V505.433H168.448V503.291H170.626V500.699H173.164V503.291H176.188V505.433H173.164V509.483C173.164 510.131 173.416 510.401 174.082 510.401H176.224V512.543ZM183.442 503.183C185.512 503.183 187.096 504.353 187.096 507.341V512.543H184.558V507.575C184.558 506.261 184.054 505.361 182.776 505.361C181.534 505.361 180.796 506.243 180.796 507.719V512.543H178.258V499.943H180.796V504.353C181.408 503.633 182.236 503.183 183.442 503.183ZM193.306 512.651C190.768 512.651 189.058 511.445 188.968 509.465H191.38C191.452 510.275 192.118 510.833 193.324 510.833C194.332 510.833 194.944 510.491 194.944 509.843C194.944 509.087 194.314 509.015 192.91 508.835C190.786 508.583 189.148 508.097 189.148 506.189C189.148 504.353 190.714 503.165 193.054 503.165C195.484 503.165 197.158 504.263 197.266 506.153H194.854C194.764 505.415 194.116 504.965 193.126 504.965C192.19 504.965 191.578 505.325 191.578 505.919C191.578 506.621 192.352 506.711 193.63 506.855C195.646 507.071 197.41 507.557 197.41 509.645C197.41 511.481 195.736 512.651 193.306 512.651ZM209.038 512.651C206.5 512.651 204.79 511.445 204.7 509.465H207.112C207.184 510.275 207.85 510.833 209.056 510.833C210.064 510.833 210.676 510.491 210.676 509.843C210.676 509.087 210.046 509.015 208.642 508.835C206.518 508.583 204.88 508.097 204.88 506.189C204.88 504.353 206.446 503.165 208.786 503.165C211.216 503.165 212.89 504.263 212.998 506.153H210.586C210.496 505.415 209.848 504.965 208.858 504.965C207.922 504.965 207.31 505.325 207.31 505.919C207.31 506.621 208.084 506.711 209.362 506.855C211.378 507.071 213.142 507.557 213.142 509.645C213.142 511.481 211.468 512.651 209.038 512.651ZM222.086 512.543H219.134C217.37 512.543 216.488 511.661 216.488 509.897V505.433H214.31V503.291H216.488V500.699H219.026V503.291H222.05V505.433H219.026V509.483C219.026 510.131 219.278 510.401 219.944 510.401H222.086V512.543ZM231.716 505.595H230.204C228.62 505.595 228.008 506.621 228.008 508.007V510.401H230.546V512.543H223.598V510.401H225.47V505.433H223.598V503.291H227.828L227.9 504.893C228.404 503.975 229.178 503.291 230.654 503.291H231.716V505.595ZM237.739 512.651C234.715 512.651 232.897 510.797 232.897 507.935C232.897 505.055 234.751 503.183 237.577 503.183C240.295 503.183 242.149 504.911 242.167 507.629C242.167 507.863 242.149 508.205 242.095 508.511H235.543V508.619C235.597 509.933 236.425 510.725 237.649 510.725C238.639 510.725 239.323 510.275 239.539 509.411H242.041C241.771 511.211 240.187 512.651 237.739 512.651ZM235.597 506.837H239.629C239.449 505.703 238.693 505.073 237.595 505.073C236.533 505.073 235.741 505.739 235.597 506.837ZM252.671 510.401H252.941V512.543H251.699C250.493 512.543 250.043 511.985 250.025 511.193C249.359 512.129 248.387 512.651 247.073 512.651C245.129 512.651 243.689 511.679 243.689 509.915C243.689 507.953 245.147 506.855 247.883 506.855H249.629V506.405C249.629 505.577 249.071 505.037 248.009 505.037C247.091 505.037 246.443 505.487 246.353 506.171H243.887C244.067 504.407 245.651 503.183 248.117 503.183C250.673 503.183 252.149 504.335 252.149 506.549V509.825C252.149 510.275 252.275 510.401 252.671 510.401ZM249.629 508.799V508.547H247.847C246.821 508.547 246.245 508.979 246.245 509.753C246.245 510.401 246.749 510.815 247.559 510.815C248.819 510.815 249.629 510.005 249.629 508.799ZM257.261 512.543H254.723V499.943H257.261V507.215L260.879 503.291H263.741L260.393 506.945L263.885 512.543H260.933L258.611 508.799L257.261 510.275V512.543Z" fill="white"/>
<defs>
<linearGradient id="paint0_linear_3170_6288" x1="96.4994" y1="54.7812" x2="96.4994" y2="78.7812" gradientUnits="userSpaceOnUse">
<stop stop-color="#FF6C59"/>
<stop offset="1" stop-color="#E11E0F"/>
</linearGradient>
<linearGradient id="paint1_linear_3170_6288" x1="96.4994" y1="54.7812" x2="96.4994" y2="78.7812" gradientUnits="userSpaceOnUse">
<stop stop-color="#FF6C59"/>
<stop offset="1" stop-color="#E11E0F"/>
</linearGradient>
<linearGradient id="paint2_linear_3170_6288" x1="96.4994" y1="64.1299" x2="96.4994" y2="78.7811" gradientUnits="userSpaceOnUse">
<stop stop-color="#FFE12E"/>
<stop offset="1" stop-color="#F36A07"/>
</linearGradient>
<linearGradient id="paint3_linear_3170_6288" x1="91.9994" y1="164.781" x2="91.9994" y2="188.781" gradientUnits="userSpaceOnUse">
<stop stop-color="#FF6C59"/>
<stop offset="1" stop-color="#E11E0F"/>
</linearGradient>
<linearGradient id="paint4_linear_3170_6288" x1="91.9994" y1="164.781" x2="91.9994" y2="188.781" gradientUnits="userSpaceOnUse">
<stop stop-color="#FF6C59"/>
<stop offset="1" stop-color="#E11E0F"/>
</linearGradient>
<linearGradient id="paint5_linear_3170_6288" x1="91.9994" y1="174.13" x2="91.9994" y2="188.781" gradientUnits="userSpaceOnUse">
<stop stop-color="#FFE12E"/>
<stop offset="1" stop-color="#F36A07"/>
</linearGradient>
<linearGradient id="paint6_linear_3170_6288" x1="91.9994" y1="274.781" x2="91.9994" y2="298.781" gradientUnits="userSpaceOnUse">
<stop stop-color="#FF6C59"/>
<stop offset="1" stop-color="#E11E0F"/>
</linearGradient>
<linearGradient id="paint7_linear_3170_6288" x1="91.9994" y1="274.781" x2="91.9994" y2="298.781" gradientUnits="userSpaceOnUse">
<stop stop-color="#FF6C59"/>
<stop offset="1" stop-color="#E11E0F"/>
</linearGradient>
<linearGradient id="paint8_linear_3170_6288" x1="91.9994" y1="284.13" x2="91.9994" y2="298.781" gradientUnits="userSpaceOnUse">
<stop stop-color="#FFE12E"/>
<stop offset="1" stop-color="#F36A07"/>
</linearGradient>
<linearGradient id="paint9_linear_3170_6288" x1="89.6432" y1="384.781" x2="89.6432" y2="408.781" gradientUnits="userSpaceOnUse">
<stop stop-color="#2943EE"/>
<stop offset="1" stop-color="#182686"/>
</linearGradient>
<linearGradient id="paint10_linear_3170_6288" x1="89.6432" y1="384.781" x2="89.6432" y2="408.781" gradientUnits="userSpaceOnUse">
<stop stop-color="#2943EE"/>
<stop offset="1" stop-color="#182686"/>
</linearGradient>
<linearGradient id="paint11_linear_3170_6288" x1="89.6432" y1="394.13" x2="89.6432" y2="408.781" gradientUnits="userSpaceOnUse">
<stop stop-color="#4F83F2"/>
<stop offset="1" stop-color="#113E9E"/>
</linearGradient>
<linearGradient id="paint12_linear_3170_6288" x1="84.6432" y1="494.781" x2="84.6432" y2="518.781" gradientUnits="userSpaceOnUse">
<stop stop-color="#2943EE"/>
<stop offset="1" stop-color="#182686"/>
</linearGradient>
<linearGradient id="paint13_linear_3170_6288" x1="84.6432" y1="494.781" x2="84.6432" y2="518.781" gradientUnits="userSpaceOnUse">
<stop stop-color="#2943EE"/>
<stop offset="1" stop-color="#182686"/>
</linearGradient>
<linearGradient id="paint14_linear_3170_6288" x1="84.6432" y1="504.13" x2="84.6432" y2="518.781" gradientUnits="userSpaceOnUse">
<stop stop-color="#4F83F2"/>
<stop offset="1" stop-color="#113E9E"/>
</linearGradient>
</defs>
</svg>
