<svg width="1025" height="82" viewBox="0 0 1025 82" fill="none" xmlns="http://www.w3.org/2000/svg">
<rect x="1" y="1" width="1023" height="80" rx="8" fill="url(#paint0_radial_3106_4965)"/>
<rect x="1" y="1" width="1023" height="80" rx="8" stroke="#30363D"/>
<g clip-path="url(#clip0_3106_4965)">
<path d="M31 43L43.1244 50L34.6244 64.7224L30.5237 57.8249L22.5 57.7224L31 43Z" fill="url(#paint1_linear_3106_4965)"/>
<path d="M52 43L39.8756 50L48.3756 64.7224L52.4763 57.8249L60.5 57.7224L52 43Z" fill="url(#paint2_linear_3106_4965)"/>
<path d="M39.7477 18.6085C40.2235 17.5135 41.7765 17.5135 42.2523 18.6085C42.8193 19.9134 44.5498 20.1875 45.4922 19.1217C46.2832 18.2272 47.7602 18.7072 47.8743 19.8956C48.0103 21.3119 49.5714 22.1073 50.7971 21.3849C51.8257 20.7786 53.0821 21.6915 52.8234 22.8571C52.5151 24.246 53.754 25.4849 55.1429 25.1766C56.3085 24.9179 57.2214 26.1743 56.6151 27.2029C55.8927 28.4286 56.6881 29.9897 58.1044 30.1257C59.2928 30.2398 59.7728 31.7168 58.8783 32.5078C57.8125 33.4502 58.0866 35.1807 59.3915 35.7477C60.4865 36.2235 60.4865 37.7765 59.3915 38.2523C58.0866 38.8193 57.8125 40.5498 58.8783 41.4922C59.7728 42.2832 59.2928 43.7602 58.1044 43.8743C56.6881 44.0103 55.8927 45.5714 56.6151 46.7971C57.2214 47.8257 56.3085 49.0821 55.1429 48.8234C53.754 48.5151 52.5151 49.754 52.8234 51.1429C53.0821 52.3085 51.8257 53.2214 50.7971 52.6151C49.5714 51.8927 48.0103 52.6881 47.8743 54.1044C47.7602 55.2928 46.2832 55.7728 45.4922 54.8783C44.5498 53.8125 42.8193 54.0866 42.2523 55.3915C41.7765 56.4865 40.2235 56.4865 39.7477 55.3915C39.1807 54.0866 37.4502 53.8125 36.5078 54.8783C35.7168 55.7728 34.2398 55.2928 34.1257 54.1044C33.9897 52.6881 32.4286 51.8927 31.2029 52.6151C30.1743 53.2214 28.9179 52.3085 29.1766 51.1429C29.4849 49.754 28.246 48.5151 26.8571 48.8234C25.6915 49.0821 24.7786 47.8257 25.3849 46.7971C26.1073 45.5714 25.3119 44.0103 23.8956 43.8743C22.7072 43.7602 22.2272 42.2832 23.1217 41.4922C24.1875 40.5498 23.9134 38.8193 22.6085 38.2523C21.5135 37.7765 21.5135 36.2235 22.6085 35.7477C23.9134 35.1807 24.1875 33.4502 23.1217 32.5078C22.2272 31.7168 22.7072 30.2398 23.8956 30.1257C25.3119 29.9897 26.1073 28.4286 25.3849 27.2029C24.7786 26.1743 25.6915 24.9179 26.8571 25.1766C28.246 25.4849 29.4849 24.246 29.1766 22.8571C28.9179 21.6915 30.1743 20.7786 31.2029 21.3849C32.4286 22.1073 33.9897 21.3119 34.1257 19.8956C34.2398 18.7072 35.7168 18.2272 36.5078 19.1217C37.4502 20.1875 39.1807 19.9134 39.7477 18.6085Z" fill="url(#paint3_linear_3106_4965)" stroke="url(#paint4_linear_3106_4965)" stroke-width="0.578947"/>
<circle cx="41.0002" cy="37.0002" r="13.8947" fill="url(#paint5_linear_3106_4965)"/>
<path fill-rule="evenodd" clip-rule="evenodd" d="M41 48C47.0751 48 52 43.0751 52 37C52 30.9249 47.0751 26 41 26C34.9249 26 30 30.9249 30 37C30 38.3731 30.2516 39.6875 30.7112 40.8995C35.5436 33.9664 40.2682 29.918 40.7826 30.1337C41.0485 30.245 40.1722 31.5431 38.6643 33.7771C37.0617 36.1513 34.7457 39.5824 32.3288 43.7692C32.5954 44.1101 32.8815 44.4349 33.1857 44.7419C38.5324 36.3197 44.3184 31.2772 44.8926 31.5192C45.1585 31.6312 44.2813 32.9306 42.7724 35.1659C40.9892 37.8075 38.3237 41.7561 35.6197 46.5967C35.9737 46.7955 36.3398 46.9754 36.7166 47.1348C41.9946 38.9397 47.6184 34.0521 48.1806 34.2901C48.4455 34.4028 47.5704 35.6983 46.0647 37.9276C44.4611 40.3019 42.1421 43.7353 39.723 47.9267C40.1419 47.9751 40.5681 48 41 48Z" fill="url(#paint6_linear_3106_4965)"/>
</g>
<path d="M86.4553 52H83.8453V31H91.5253C95.7853 31 98.6053 33.52 98.6053 37.45C98.6053 41.38 95.7853 43.93 91.5253 43.93H86.4553V52ZM86.4553 33.4V41.53H91.2853C94.1053 41.53 95.9353 39.94 95.9353 37.45C95.9353 34.96 94.1353 33.4 91.3153 33.4H86.4553ZM108.3 49.75H112.95V52H101.22V49.75H105.84V33.25H101.22V31H108.3V49.75ZM129.098 49.75H129.878V52H128.528C126.488 52 125.798 51.13 125.768 49.63C124.808 51.01 123.278 52.18 120.638 52.18C117.278 52.18 114.998 50.5 114.998 47.71C114.998 44.65 117.128 42.94 121.148 42.94H125.648V41.89C125.648 39.91 124.238 38.71 121.838 38.71C119.678 38.71 118.238 39.73 117.938 41.29H115.478C115.838 38.29 118.268 36.52 121.958 36.52C125.858 36.52 128.108 38.47 128.108 42.04V48.73C128.108 49.54 128.408 49.75 129.098 49.75ZM125.648 45.76V45.01H120.908C118.718 45.01 117.488 45.82 117.488 47.56C117.488 49.06 118.778 50.08 120.818 50.08C123.878 50.08 125.648 48.31 125.648 45.76ZM143.296 52H139.216C136.276 52 135.226 50.71 135.226 48.01V38.95H131.176V36.7H135.226V32.41H137.686V36.7H143.056V38.95H137.686V47.98C137.686 49.27 138.136 49.75 139.456 49.75H143.296V52ZM152.162 34.03C151.112 34.03 150.272 33.25 150.272 32.14C150.272 31.09 151.112 30.28 152.162 30.28C153.212 30.28 154.022 31.09 154.022 32.14C154.022 33.25 153.212 34.03 152.162 34.03ZM153.362 49.75H158.012V52H146.282V49.75H150.902V38.95H146.282V36.7H153.362V49.75ZM168.713 36.52C172.013 36.52 174.713 38.32 174.713 43.18V52H172.253V43.33C172.253 40.36 170.813 38.77 168.293 38.77C165.593 38.77 163.853 40.78 163.853 44.05V52H161.393V36.7H163.523L163.853 38.77C164.753 37.6 166.283 36.52 168.713 36.52ZM189.795 44.65V36.7H192.255V52H190.125L189.795 49.96C188.895 51.1 187.425 52.18 184.995 52.18C181.755 52.18 179.085 50.38 179.085 45.52V36.7H181.545V45.37C181.545 48.34 182.985 49.93 185.415 49.93C188.115 49.93 189.795 47.92 189.795 44.65ZM211.39 36.52C214.42 36.52 216.37 38.65 216.37 42.13V52H213.91V42.22C213.91 40.18 212.95 38.83 211.06 38.83C209.05 38.83 207.88 40.36 207.88 42.37V52H205.42V42.22C205.42 40.33 204.64 38.83 202.48 38.83C200.5 38.83 199.39 40.39 199.39 42.58V52H196.93V36.7H199L199.21 38.32C199.99 37.21 201.31 36.52 203.05 36.52C204.88 36.52 206.32 37.45 207.01 38.86C207.91 37.45 209.38 36.52 211.39 36.52Z" fill="#E5E4E2"/>
<path d="M868.914 46.56H867.314V42.66H863.634V41.2H867.314V37.3H868.914V41.2H872.614V42.66H868.914V46.56ZM884.236 48H874.856V46.58L880.136 41.86C881.416 40.72 882.416 39.64 882.416 38.14C882.416 36.38 881.256 35.38 879.496 35.38C877.776 35.38 876.616 36.58 876.616 38.5V38.76H874.936V38.4C874.936 35.76 876.736 33.88 879.496 33.88C882.416 33.88 884.136 35.54 884.136 38.06C884.136 40.14 882.836 41.48 881.216 42.9L877.176 46.46H884.236V48ZM891.386 33.88C894.446 33.88 896.346 36.42 896.346 40.68V41.32C896.346 45.58 894.446 48.12 891.386 48.12C888.326 48.12 886.426 45.58 886.426 41.32V40.68C886.426 36.42 888.326 33.88 891.386 33.88ZM888.086 40.74V41.26C888.086 42.04 888.146 42.74 888.266 43.34L893.966 37.06C893.406 35.96 892.526 35.38 891.386 35.38C889.306 35.38 888.086 37.34 888.086 40.74ZM894.686 41.26V40.74C894.686 39.96 894.626 39.26 894.506 38.64L888.806 44.96C889.386 46.02 890.266 46.6 891.386 46.6C893.466 46.6 894.686 44.66 894.686 41.26ZM901.487 40.66C899.807 40.66 898.687 39.42 898.687 37.26C898.687 35.1 899.787 33.88 901.487 33.88C903.167 33.88 904.287 35.1 904.287 37.26C904.287 39.42 903.187 40.66 901.487 40.66ZM901.947 48H900.527L907.887 34H909.327L901.947 48ZM901.487 39.38C902.347 39.38 902.887 38.68 902.887 37.26C902.887 35.84 902.347 35.16 901.487 35.16C900.627 35.16 900.107 35.84 900.107 37.26C900.107 38.68 900.627 39.38 901.487 39.38ZM908.367 48.12C906.687 48.12 905.567 46.9 905.567 44.74C905.567 42.56 906.667 41.34 908.367 41.34C910.047 41.34 911.147 42.56 911.147 44.74C911.147 46.9 910.067 48.12 908.367 48.12ZM908.367 46.84C909.227 46.84 909.747 46.14 909.747 44.74C909.747 43.3 909.227 42.62 908.367 42.62C907.507 42.62 906.967 43.3 906.967 44.74C906.967 46.14 907.507 46.84 908.367 46.84ZM925.633 48.12C922.353 48.12 920.253 46.26 920.153 43.42H921.953C922.093 45.32 923.573 46.54 925.653 46.54C927.533 46.54 928.793 45.64 928.793 44.16C928.793 42.7 927.673 42.14 925.033 41.7C922.133 41.22 920.493 40.14 920.493 37.86C920.493 35.48 922.413 33.88 925.233 33.88C928.213 33.88 930.193 35.56 930.353 38.14H928.553C928.373 36.5 927.053 35.46 925.233 35.46C923.373 35.46 922.233 36.3 922.233 37.76C922.233 39.2 923.333 39.7 926.013 40.14C928.873 40.6 930.533 41.76 930.533 44C930.533 46.42 928.513 48.12 925.633 48.12ZM934.99 48H933.25V34H938.37C941.21 34 943.09 35.68 943.09 38.3C943.09 40.92 941.21 42.62 938.37 42.62H934.99V48ZM934.99 35.6V41.02H938.21C940.09 41.02 941.31 39.96 941.31 38.3C941.31 36.64 940.11 35.6 938.23 35.6H934.99ZM957.53 37.68C960.35 37.68 962.43 39.58 962.43 42.9C962.43 46.02 960.35 48.12 957.53 48.12C955.81 48.12 954.65 47.42 954.03 46.44L953.81 48H952.39V34H954.03V39.44C954.71 38.5 955.81 37.68 957.53 37.68ZM957.37 46.66C959.39 46.66 960.75 45.12 960.75 42.9C960.75 40.68 959.39 39.14 957.37 39.14C955.37 39.14 954.01 40.68 954.01 42.86C954.01 45.1 955.37 46.66 957.37 46.66ZM969.606 48.12C966.626 48.12 964.546 46 964.546 42.9C964.546 39.8 966.626 37.68 969.606 37.68C972.586 37.68 974.666 39.8 974.666 42.9C974.666 46 972.586 48.12 969.606 48.12ZM969.606 46.66C971.626 46.66 972.986 45.08 972.986 42.9C972.986 40.72 971.626 39.14 969.606 39.14C967.586 39.14 966.226 40.72 966.226 42.9C966.226 45.08 967.586 46.66 969.606 46.66ZM981.852 48.12C978.872 48.12 976.792 46 976.792 42.9C976.792 39.8 978.872 37.68 981.852 37.68C984.832 37.68 986.912 39.8 986.912 42.9C986.912 46 984.832 48.12 981.852 48.12ZM981.852 46.66C983.872 46.66 985.232 45.08 985.232 42.9C985.232 40.72 983.872 39.14 981.852 39.14C979.832 39.14 978.472 40.72 978.472 42.9C978.472 45.08 979.832 46.66 981.852 46.66ZM993.339 48.12C990.699 48.12 988.879 46.88 988.839 44.64H990.519C990.579 45.84 991.639 46.72 993.339 46.72C994.779 46.72 995.799 46.1 995.799 45.16C995.799 43.88 994.679 43.78 993.159 43.6C990.879 43.32 989.059 42.86 989.059 40.74C989.059 38.88 990.759 37.68 993.059 37.68C995.379 37.68 997.059 38.78 997.219 40.9H995.539C995.419 39.86 994.459 39.08 993.059 39.08C991.639 39.08 990.679 39.68 990.679 40.62C990.679 41.74 991.759 41.88 993.239 42.06C995.559 42.34 997.419 42.78 997.419 45.04C997.419 46.94 995.599 48.12 993.339 48.12ZM1006.79 48H1004.07C1002.11 48 1001.41 47.14 1001.41 45.34V39.3H998.711V37.8H1001.41V34.94H1003.05V37.8H1006.63V39.3H1003.05V45.32C1003.05 46.18 1003.35 46.5 1004.23 46.5H1006.79V48Z" fill="#E5E4E2"/>
<defs>
<radialGradient id="paint0_radial_3106_4965" cx="0" cy="0" r="1" gradientUnits="userSpaceOnUse" gradientTransform="translate(513.645 -59) rotate(90) scale(140 1942.94)">
<stop stop-color="#859CB8" stop-opacity="0.49"/>
<stop offset="0.95" stop-color="#161B22"/>
</radialGradient>
<linearGradient id="paint1_linear_3106_4965" x1="37.0622" y1="46.5" x2="28.5622" y2="61.2224" gradientUnits="userSpaceOnUse">
<stop stop-color="#6708DF"/>
<stop offset="1" stop-color="#6A70FC"/>
</linearGradient>
<linearGradient id="paint2_linear_3106_4965" x1="45.9378" y1="46.5" x2="54.4378" y2="61.2224" gradientUnits="userSpaceOnUse">
<stop stop-color="#6708DF"/>
<stop offset="1" stop-color="#6A70FC"/>
</linearGradient>
<linearGradient id="paint3_linear_3106_4965" x1="41" y1="15" x2="41" y2="59" gradientUnits="userSpaceOnUse">
<stop stop-color="#C2D5E8"/>
<stop offset="1" stop-color="#6F87A6"/>
</linearGradient>
<linearGradient id="paint4_linear_3106_4965" x1="41" y1="15" x2="41" y2="59" gradientUnits="userSpaceOnUse">
<stop stop-color="white" stop-opacity="0.52"/>
<stop offset="1" stop-color="white" stop-opacity="0"/>
</linearGradient>
<linearGradient id="paint5_linear_3106_4965" x1="41.0002" y1="23.1055" x2="41.0002" y2="50.8949" gradientUnits="userSpaceOnUse">
<stop stop-color="#F0F6FC"/>
<stop offset="1" stop-color="#AFC8E7"/>
</linearGradient>
<linearGradient id="paint6_linear_3106_4965" x1="41" y1="26" x2="41" y2="48" gradientUnits="userSpaceOnUse">
<stop stop-color="#C2D5E8"/>
<stop offset="1" stop-color="#6F87A6"/>
</linearGradient>
<clipPath id="clip0_3106_4965">
<rect width="48" height="48" fill="white" transform="translate(17 17)"/>
</clipPath>
</defs>
</svg>
