<svg width="504" height="467" viewBox="0 0 504 467" fill="none" xmlns="http://www.w3.org/2000/svg">
<g filter="url(#filter0_d_3106_4761)">
<rect x="283" y="103" width="135.562" height="135.562" rx="67.7811" fill="#FFD700" fill-opacity="0.65" shape-rendering="crispEdges"/>
</g>
<g filter="url(#filter1_d_3106_4761)">
<rect x="292.73" y="112.738" width="116.089" height="116.089" rx="58.0446" fill="#FFD700" fill-opacity="0.65" shape-rendering="crispEdges"/>
</g>
<g filter="url(#filter2_d_3106_4761)">
<rect x="302.477" y="122.473" width="96.6162" height="96.6162" rx="48.3081" fill="#FFD700"/>
</g>
<g clip-path="url(#clip0_3106_4761)">
<path d="M350.571 196.851C366.328 196.851 379.102 184.208 379.102 168.613C379.102 153.018 366.328 140.375 350.571 140.375C334.813 140.375 322.039 153.018 322.039 168.613C322.039 184.208 334.813 196.851 350.571 196.851Z" fill="#C7B299" stroke="#161616" stroke-width="0.23431" stroke-miterlimit="10"/>
<path d="M318.797 171.089C318.797 152.663 332.003 137.453 352.243 137.453C371.151 137.453 382.952 150.781 382.952 167.483C382.952 185.905 369.746 201.119 349.665 201.119C330.675 201.119 318.801 187.791 318.801 171.089H318.797ZM349.976 196.254C366.462 196.254 377.013 183.475 377.013 167.794C377.013 163.81 376.931 152.546 368.62 148.121C361.225 144.187 352.778 148.577 351.742 149.138C350.026 148.18 342.985 144.491 336.032 147.171C324.488 151.619 324.74 169.181 324.74 170.774C324.74 185.045 334.351 196.254 349.98 196.254H349.976Z" fill="#161616"/>
<path d="M332.328 180.222C332.328 180.849 340.344 184.888 350.421 184.888C360.499 184.888 368.817 180.849 368.817 180.222C368.817 179.595 360.495 182.618 350.421 182.618C340.344 182.618 332.328 179.595 332.328 180.222Z" fill="#161616"/>
<path d="M350.378 181.467C353.915 181.467 356.783 179.549 356.783 177.183C356.783 174.817 353.915 172.898 350.378 172.898C346.84 172.898 343.973 174.817 343.973 177.183C343.973 179.549 346.84 181.467 350.378 181.467Z" fill="#161616"/>
<path d="M348.691 178.71C348.567 178.99 348.027 179.126 347.491 179.013C346.956 178.9 346.622 178.585 346.75 178.304C346.878 178.024 347.414 177.888 347.95 178.001C348.485 178.114 348.819 178.429 348.691 178.71Z" fill="#FFF9EF"/>
<path d="M352.188 178.71C352.312 178.99 352.851 179.126 353.387 179.013C353.923 178.9 354.257 178.585 354.128 178.304C354 178.024 353.465 177.888 352.929 178.001C352.393 178.114 352.059 178.429 352.188 178.71Z" fill="#FFF9EF"/>
<path d="M337.82 170.982C340.228 170.982 342.18 169.024 342.18 166.608C342.18 164.193 340.228 162.234 337.82 162.234C335.413 162.234 333.461 164.193 333.461 166.608C333.461 169.024 335.413 170.982 337.82 170.982Z" fill="#FFF9EF" stroke="#161616" stroke-width="0.23431" stroke-miterlimit="10"/>
<path d="M337.82 169.716C339.529 169.716 340.914 168.326 340.914 166.612C340.914 164.898 339.529 163.508 337.82 163.508C336.112 163.508 334.727 164.898 334.727 166.612C334.727 168.326 336.112 169.716 337.82 169.716Z" fill="#161616" stroke="#161616" stroke-width="0.23431" stroke-miterlimit="10"/>
<path d="M336.132 166.75C336.52 166.75 336.835 166.434 336.835 166.045C336.835 165.655 336.52 165.34 336.132 165.34C335.744 165.34 335.43 165.655 335.43 166.045C335.43 166.434 335.744 166.75 336.132 166.75Z" fill="#FFF9EF"/>
<path d="M363.441 170.982C365.849 170.982 367.801 169.024 367.801 166.608C367.801 164.193 365.849 162.234 363.441 162.234C361.034 162.234 359.082 164.193 359.082 166.608C359.082 169.024 361.034 170.982 363.441 170.982Z" fill="#FFF9EF" stroke="#101010" stroke-width="0.23431" stroke-miterlimit="10"/>
<path d="M363.441 169.716C365.15 169.716 366.535 168.326 366.535 166.612C366.535 164.898 365.15 163.508 363.441 163.508C361.733 163.508 360.348 164.898 360.348 166.612C360.348 168.326 361.733 169.716 363.441 169.716Z" fill="#161616" stroke="#161616" stroke-width="0.23431" stroke-miterlimit="10"/>
<path d="M361.753 166.75C362.141 166.75 362.456 166.434 362.456 166.045C362.456 165.655 362.141 165.34 361.753 165.34C361.365 165.34 361.051 165.655 361.051 166.045C361.051 166.434 361.365 166.75 361.753 166.75Z" fill="#FFF9EF"/>
<path d="M388.614 158.715H387.061H385.299H381.98L352.777 158.727H352.125H348.81H345.491L319.603 158.734H316.284H312.965V162.064V165.395H316.284V168.725H319.603V172.051H322.922V175.373H326.241V176.853V177.036V178.699H329.56H332.879H336.198H339.517V177.04V175.377H342.836V172.047H346.151V168.721H352.785V165.391H349.466H350.797H352.781V162.061V165.387V168.713H356.1V172.039H359.415V175.362H362.73V178.692H365.397V178.699H368.716H372.035H375.354V177.036V175.373V175.362H378.669V172.035H381.984V168.705H385.299V165.387H388.618V158.723L388.614 158.715ZM363.914 175.362H364.562H363.029H363.91H363.914Z" fill="#161616"/>
<path d="M327.826 164.743L324.508 164.805L324.569 168.134L327.888 168.073L327.826 164.743Z" fill="#FFF9EF"/>
<path d="M331.201 168.017L327.883 168.078L327.944 171.408L331.263 171.346L331.201 168.017Z" fill="#FFF9EF"/>
<path d="M324.447 161.477L321.129 161.539L321.19 164.869L324.509 164.807L324.447 161.477Z" fill="#FFF9EF"/>
<path d="M363.65 164.083L360.332 164.145L360.393 167.474L363.712 167.412L363.65 164.083Z" fill="#FFF9EF"/>
<path d="M367.033 167.345L363.715 167.406L363.776 170.736L367.095 170.674L367.033 167.345Z" fill="#FFF9EF"/>
<path d="M360.275 160.813L356.957 160.875L357.018 164.205L360.337 164.143L360.275 160.813Z" fill="#FFF9EF"/>
<path d="M327.826 164.743L324.508 164.805L324.569 168.134L327.888 168.073L327.826 164.743Z" fill="#FFF9EF"/>
<path d="M331.201 168.017L327.883 168.078L327.944 171.408L331.263 171.346L331.201 168.017Z" fill="#FFF9EF"/>
<path d="M324.381 161.479L321.125 161.539L321.185 164.806L324.442 164.746L324.381 161.479Z" fill="#FFF9EF"/>
<path d="M334.451 164.626L331.133 164.688L331.194 168.017L334.513 167.955L334.451 164.626Z" fill="#FFF9EF"/>
<path d="M337.834 167.888L334.516 167.949L334.577 171.279L337.895 171.217L337.834 167.888Z" fill="#FFF9EF"/>
<path d="M331.076 161.356L327.758 161.418L327.819 164.748L331.138 164.686L331.076 161.356Z" fill="#FFF9EF"/>
<path d="M370.287 163.958L366.969 164.02L367.03 167.349L370.349 167.287L370.287 163.958Z" fill="#FFF9EF"/>
<path d="M373.666 167.224L370.348 167.285L370.409 170.615L373.727 170.553L373.666 167.224Z" fill="#FFF9EF"/>
<path d="M366.912 160.692L363.594 160.754L363.655 164.083L366.974 164.022L366.912 160.692Z" fill="#FFF9EF"/>
</g>
<g filter="url(#filter3_d_3106_4761)">
<rect x="28" y="105" width="95.7185" height="95.7185" rx="47.8592" fill="#EA860D" fill-opacity="0.65" shape-rendering="crispEdges"/>
</g>
<g filter="url(#filter4_d_3106_4761)">
<rect x="34.875" y="111.875" width="81.9688" height="81.9688" rx="40.9844" fill="#EA860D" fill-opacity="0.65" shape-rendering="crispEdges"/>
</g>
<g filter="url(#filter5_d_3106_4761)">
<rect x="41.75" y="118.75" width="68.2192" height="68.2192" rx="34.1096" fill="#EA860D"/>
</g>
<g clip-path="url(#clip1_3106_4761)">
<path d="M76.0494 172.161C87.0254 172.161 95.9231 163.381 95.9231 152.551C95.9231 141.721 87.0254 132.941 76.0494 132.941C65.0735 132.941 56.1758 141.721 56.1758 152.551C56.1758 163.381 65.0735 172.161 76.0494 172.161Z" fill="#C7B299" stroke="#161616" stroke-width="0.23431" stroke-miterlimit="10"/>
<path d="M53.9141 154.272C53.9141 141.476 63.1127 130.914 77.2109 130.914C90.3816 130.914 98.6014 140.17 98.6014 151.768C98.6014 164.561 89.4027 175.126 75.4155 175.126C62.188 175.123 53.9141 165.868 53.9141 154.272ZM75.6318 171.748C87.1152 171.748 94.4644 162.874 94.4644 151.984C94.4644 149.217 94.4077 141.395 88.6186 138.322C83.4677 135.591 77.584 138.639 76.8621 139.028C75.6669 138.363 70.7621 135.802 65.9194 137.662C57.878 140.751 58.0537 152.947 58.0537 154.053C58.0537 163.964 64.7486 171.748 75.6345 171.748H75.6318Z" fill="#161616"/>
<path d="M85.5778 158.556C90.6395 161.234 96.0202 160.996 97.5939 158.021C99.1676 155.045 96.3393 150.461 91.2776 147.783C86.2159 145.105 81.1299 142.674 79.2615 148.319C77.2308 154.464 80.5161 155.878 85.5778 158.556ZM85.1965 151.81C83.704 151.81 82.4602 151.015 82.4169 150.041C82.3737 149.068 83.0605 149.455 84.553 149.457C86.0456 149.46 87.7788 149.076 87.822 150.052C87.8653 151.026 86.6891 151.813 85.1965 151.81Z" fill="#161616"/>
<path d="M72.8145 148.319C70.9488 142.675 65.8628 145.103 60.7984 147.784C55.7367 150.462 52.9084 155.046 54.4821 158.021C56.0558 160.997 61.4338 161.237 66.4982 158.557C71.5599 155.879 74.8479 154.465 72.8145 148.319ZM64.2513 150.053C64.2945 149.079 66.0277 149.464 67.5203 149.458C69.0128 149.455 69.6996 149.069 69.6564 150.042C69.6131 151.016 68.3693 151.809 66.8768 151.811C65.3842 151.814 64.208 151.027 64.2513 150.053Z" fill="#161616"/>
<path d="M75.9146 161.478C78.3785 161.478 80.376 160.146 80.376 158.503C80.376 156.859 78.3785 155.527 75.9146 155.527C73.4506 155.527 71.4531 156.859 71.4531 158.503C71.4531 160.146 73.4506 161.478 75.9146 161.478Z" fill="#161616"/>
<path d="M74.7382 159.563C74.6517 159.758 74.2758 159.852 73.9027 159.774C73.5296 159.695 73.297 159.476 73.3863 159.282C73.4755 159.087 73.8486 158.992 74.2218 159.071C74.5949 159.149 74.8274 159.368 74.7382 159.563Z" fill="white"/>
<path d="M77.1714 159.563C77.2579 159.758 77.6338 159.852 78.0069 159.774C78.3801 159.695 78.6126 159.476 78.5234 159.282C78.4341 159.087 78.061 158.992 77.6879 159.071C77.3147 159.149 77.0822 159.368 77.1714 159.563Z" fill="white"/>
<path d="M67.2412 154.713C69.344 154.713 71.0488 153.008 71.0488 150.905C71.0488 148.802 69.344 147.098 67.2412 147.098C65.1383 147.098 63.4336 148.802 63.4336 150.905C63.4336 153.008 65.1383 154.713 67.2412 154.713Z" fill="white" stroke="#161616" stroke-width="0.23431" stroke-miterlimit="10"/>
<path d="M67.2415 153.761C68.6434 153.761 69.7799 152.554 69.7799 151.064C69.7799 149.575 68.6434 148.367 67.2415 148.367C65.8396 148.367 64.7031 149.575 64.7031 151.064C64.7031 152.554 65.8396 153.761 67.2415 153.761Z" fill="#161616" stroke="#161616" stroke-width="0.23431" stroke-miterlimit="10"/>
<path d="M73.4275 165.104C74.3037 165.104 76.7591 164.394 76.7591 163.518C76.7591 162.642 75.6486 163.517 73.9035 163.518C73.0273 163.518 70.7305 161.69 70.7305 162.566C70.7305 163.442 72.5513 165.104 73.4275 165.104Z" fill="#161616" stroke="#161616" stroke-width="0.23431" stroke-miterlimit="10"/>
<path d="M65.6541 151.222C66.0046 151.222 66.2887 150.938 66.2887 150.588C66.2887 150.237 66.0046 149.953 65.6541 149.953C65.3037 149.953 65.0195 150.237 65.0195 150.588C65.0195 150.938 65.3037 151.222 65.6541 151.222Z" fill="white"/>
<path d="M85.0107 154.713C87.1136 154.713 88.8183 153.008 88.8183 150.905C88.8183 148.802 87.1136 147.098 85.0107 147.098C82.9078 147.098 81.2031 148.802 81.2031 150.905C81.2031 153.008 82.9078 154.713 85.0107 154.713Z" fill="white" stroke="#101010" stroke-width="0.23431" stroke-miterlimit="10"/>
<path d="M84.8494 153.761C86.3389 153.761 87.5464 152.554 87.5464 151.064C87.5464 149.575 86.3389 148.367 84.8494 148.367C83.3598 148.367 82.1523 149.575 82.1523 151.064C82.1523 152.554 83.3598 153.761 84.8494 153.761Z" fill="#161616" stroke="#161616" stroke-width="0.23431" stroke-miterlimit="10"/>
<path d="M83.4237 151.222C83.7741 151.222 84.0583 150.938 84.0583 150.588C84.0583 150.237 83.7741 149.953 83.4237 149.953C83.0732 149.953 82.7891 150.237 82.7891 150.588C82.7891 150.938 83.0732 151.222 83.4237 151.222Z" fill="white"/>
</g>
<g filter="url(#filter6_d_3106_4761)">
<rect x="293" y="256" width="174.418" height="174.418" rx="87.209" fill="#BE621C" fill-opacity="0.65" shape-rendering="crispEdges"/>
</g>
<g filter="url(#filter7_d_3106_4761)">
<rect x="305.527" y="268.523" width="149.363" height="149.363" rx="74.6817" fill="#BE621C" fill-opacity="0.65" shape-rendering="crispEdges"/>
</g>
<g filter="url(#filter8_d_3106_4761)">
<rect x="318.051" y="281.055" width="124.309" height="124.309" rx="62.1545" fill="#BE621C"/>
</g>
<path d="M380.552 373.057C399.923 373.057 415.627 357.577 415.627 338.482C415.627 319.386 399.923 303.906 380.552 303.906C361.18 303.906 345.477 319.386 345.477 338.482C345.477 357.577 361.18 373.057 380.552 373.057Z" fill="#C7B299" stroke="#161616" stroke-width="0.23431" stroke-miterlimit="10"/>
<path d="M341.488 341.514C341.488 318.951 357.723 300.328 382.605 300.328C405.85 300.328 420.357 316.648 420.357 337.097C420.357 359.655 404.122 378.283 379.436 378.283C356.091 378.283 341.493 361.963 341.493 341.514H341.488ZM379.818 372.326C400.085 372.326 413.056 356.679 413.056 337.479C413.056 332.6 412.955 318.808 402.738 313.391C393.647 308.574 382.721 311.876 381.861 316.421C381.001 311.876 371.223 308.946 362.676 312.227C348.484 317.673 348.794 339.177 348.794 341.127C348.794 358.601 360.61 372.326 379.823 372.326H379.818Z" fill="#161616"/>
<path d="M358.121 352.699C358.121 353.466 367.976 358.412 380.364 358.412C392.752 358.412 402.979 353.466 402.979 352.699C402.979 351.931 392.748 355.632 380.364 355.632C367.976 355.632 358.121 351.931 358.121 352.699Z" fill="#161616"/>
<path d="M380.311 354.218C384.66 354.218 388.185 351.87 388.185 348.973C388.185 346.075 384.66 343.727 380.311 343.727C375.963 343.727 372.438 346.075 372.438 348.973C372.438 351.87 375.963 354.218 380.311 354.218Z" fill="#161616"/>
<path d="M378.236 350.842C378.083 351.186 377.42 351.353 376.762 351.214C376.103 351.076 375.693 350.69 375.85 350.346C376.008 350.003 376.666 349.836 377.325 349.974C377.983 350.113 378.394 350.499 378.236 350.842Z" fill="#FFF9EF"/>
<path d="M382.538 350.842C382.69 351.186 383.354 351.353 384.012 351.214C384.671 351.076 385.081 350.69 384.924 350.346C384.766 350.003 384.108 349.836 383.449 349.974C382.79 350.113 382.38 350.499 382.538 350.842Z" fill="#FFF9EF"/>
<path d="M364.875 341.383C367.834 341.383 370.234 338.985 370.234 336.028C370.234 333.07 367.834 330.672 364.875 330.672C361.915 330.672 359.516 333.07 359.516 336.028C359.516 338.985 361.915 341.383 364.875 341.383Z" fill="#FFF9EF" stroke="#161616" stroke-width="0.23431" stroke-miterlimit="10"/>
<path d="M364.878 339.828C366.978 339.828 368.681 338.127 368.681 336.027C368.681 333.928 366.978 332.227 364.878 332.227C362.777 332.227 361.074 333.928 361.074 336.027C361.074 338.127 362.777 339.828 364.878 339.828Z" fill="#161616" stroke="#161616" stroke-width="0.23431" stroke-miterlimit="10"/>
<path d="M362.801 336.199C363.278 336.199 363.665 335.813 363.665 335.336C363.665 334.859 363.278 334.473 362.801 334.473C362.324 334.473 361.938 334.859 361.938 335.336C361.938 335.813 362.324 336.199 362.801 336.199Z" fill="#FFF9EF"/>
<path d="M396.371 341.383C399.331 341.383 401.73 338.985 401.73 336.028C401.73 333.07 399.331 330.672 396.371 330.672C393.411 330.672 391.012 333.07 391.012 336.028C391.012 338.985 393.411 341.383 396.371 341.383Z" fill="#FFF9EF" stroke="#101010" stroke-width="0.23431" stroke-miterlimit="10"/>
<path d="M396.37 339.828C398.47 339.828 400.173 338.127 400.173 336.027C400.173 333.928 398.47 332.227 396.37 332.227C394.269 332.227 392.566 333.928 392.566 336.027C392.566 338.127 394.269 339.828 396.37 339.828Z" fill="#161616" stroke="#161616" stroke-width="0.23431" stroke-miterlimit="10"/>
<path d="M394.293 336.199C394.77 336.199 395.157 335.813 395.157 335.336C395.157 334.859 394.77 334.473 394.293 334.473C393.816 334.473 393.43 334.859 393.43 335.336C393.43 335.813 393.816 336.199 394.293 336.199Z" fill="#FFF9EF"/>
<path d="M432.722 323.668H430.566H428.12H423.512L382.966 323.684H382.061H377.458H372.85L336.907 323.695H332.299H327.691V328.3V332.905H332.299V337.51H336.907V342.11H341.516V346.704H346.124V348.751V349.004V351.304H350.732H355.34H359.948H364.556V349.009V346.71H369.164V342.104H373.766V337.505H382.977V332.9H378.369H380.218H382.972V328.295V332.894V337.494H387.58V342.094H392.182V346.688H396.785V351.293H400.488V351.304H405.096H409.704H414.312V349.004V346.704V346.688H418.914V342.088H423.517V337.483H428.12V332.894H432.728V323.679L432.722 323.668ZM398.429 346.688H399.329H397.2H398.423H398.429Z" fill="#161616"/>
<path d="M348.322 332.005L343.715 332.09L343.8 336.694L348.407 336.609L348.322 332.005Z" fill="#FFF9EF"/>
<path d="M353.01 336.528L348.402 336.613L348.488 341.218L353.095 341.132L353.01 336.528Z" fill="#FFF9EF"/>
<path d="M343.631 327.489L339.023 327.574L339.109 332.179L343.716 332.093L343.631 327.489Z" fill="#FFF9EF"/>
<path d="M398.064 331.091L393.457 331.176L393.542 335.78L398.15 335.695L398.064 331.091Z" fill="#FFF9EF"/>
<path d="M402.76 335.602L398.152 335.688L398.238 340.292L402.845 340.207L402.76 335.602Z" fill="#FFF9EF"/>
<path d="M393.377 326.567L388.77 326.652L388.855 331.257L393.462 331.171L393.377 326.567Z" fill="#FFF9EF"/>
<path d="M348.322 332.005L343.715 332.09L343.8 336.694L348.407 336.609L348.322 332.005Z" fill="#FFF9EF"/>
<path d="M353.01 336.528L348.402 336.613L348.488 341.218L353.095 341.132L353.01 336.528Z" fill="#FFF9EF"/>
<path d="M343.541 327.491L339.02 327.574L339.103 332.092L343.624 332.009L343.541 327.491Z" fill="#FFF9EF"/>
<path d="M357.525 331.841L352.918 331.926L353.003 336.53L357.61 336.445L357.525 331.841Z" fill="#FFF9EF"/>
<path d="M362.221 336.352L357.613 336.438L357.699 341.042L362.306 340.957L362.221 336.352Z" fill="#FFF9EF"/>
<path d="M352.838 327.321L348.23 327.406L348.316 332.011L352.923 331.925L352.838 327.321Z" fill="#FFF9EF"/>
<path d="M407.275 330.919L402.668 331.004L402.753 335.608L407.36 335.523L407.275 330.919Z" fill="#FFF9EF"/>
<path d="M411.967 335.43L407.359 335.516L407.445 340.12L412.052 340.035L411.967 335.43Z" fill="#FFF9EF"/>
<path d="M402.592 326.403L397.984 326.488L398.07 331.093L402.677 331.007L402.592 326.403Z" fill="#FFF9EF"/>
<mask id="path-81-inside-1_3106_4761" fill="white">
<path d="M356.059 372.442C356.059 368.388 355.609 365.317 356.427 362.491C357.923 357.332 366.069 351.581 373.789 353.929C368.71 353.929 362.852 356.918 360.859 360.157C359.498 362.369 358.575 365.44 358.27 368.388C357.901 371.951 357.902 373.249 357.042 375.882C356.182 378.514 355.076 380.059 353.645 382.128C355.028 378.799 356.059 376.496 356.059 372.442Z"/>
<path d="M404.128 372.455C404.128 368.401 404.578 365.329 403.759 362.504C402.264 357.344 394.118 351.593 386.398 353.941C391.476 353.941 397.334 356.931 399.328 360.17C400.688 362.381 401.612 365.452 401.917 368.401C402.285 371.963 402.285 373.262 403.145 375.894C404.005 378.527 405.11 380.071 406.542 382.14C405.159 378.811 404.128 376.508 404.128 372.455Z"/>
<path d="M367.546 309.04C367.546 309.04 368.406 312.634 375.053 312.716C381.138 312.791 381.814 316.341 381.884 316.94C381.889 316.996 381.892 317.025 381.892 317.025C381.892 317.025 381.896 316.988 381.899 316.919C381.962 316.262 382.579 312.79 388.596 312.716C395.242 312.633 396.103 309.04 396.103 309.04C396.103 309.04 395.824 310.194 388.486 310.537C382.862 310.8 381.985 314.471 381.883 316.171C381.743 314.471 380.787 310.8 375.163 310.537C367.824 310.194 367.546 309.04 367.546 309.04Z"/>
<path d="M367.546 308.302C367.546 308.302 368.406 311.895 375.053 311.978C381.138 312.053 381.814 315.603 381.884 316.202C381.889 316.257 381.892 316.287 381.892 316.287C381.892 316.287 381.896 316.25 381.899 316.181C381.962 315.524 382.579 312.052 388.596 311.978C395.242 311.895 396.103 308.302 396.103 308.302C396.103 308.302 395.824 309.456 388.486 309.799C382.862 310.062 381.985 313.732 381.883 315.433C381.743 313.733 380.787 310.062 375.163 309.799C367.824 309.456 367.546 308.302 367.546 308.302Z"/>
<path d="M367.552 306.84C367.552 306.84 368.412 310.433 375.058 310.516C381.144 310.591 381.672 314.115 381.742 314.714C381.747 314.77 381.888 315.801 381.888 315.801C381.888 315.801 381.985 314.783 381.988 314.714C382.111 314.1 382.584 310.59 388.601 310.516C395.248 310.433 396.108 306.84 396.108 306.84C396.108 306.84 395.83 307.994 388.491 308.337C382.868 308.6 381.991 312.27 381.888 313.971C381.748 312.271 380.792 308.6 375.168 308.337C367.83 307.994 367.552 306.84 367.552 306.84Z"/>
<path d="M385.235 372.016C384.082 381.941 389.272 383.914 389.272 383.914C389.272 383.914 387.606 383.277 388.503 372.271C389.4 361.264 380.301 361.073 380.301 361.073C380.301 361.073 386.389 362.091 385.235 372.016Z"/>
<path d="M375.374 372.016C376.527 381.941 371.337 383.914 371.337 383.914C371.337 383.914 373.003 383.277 372.106 372.271C371.208 361.264 380.308 361.073 380.308 361.073C380.308 361.073 374.22 362.091 375.374 372.016Z"/>
<path d="M385.202 373.681C382.821 385.728 380.3 390.911 380.3 390.911C380.3 390.911 376.956 384.592 375.258 373.681C373.297 361.073 380.3 361.073 380.3 361.073C380.3 361.073 387.584 361.634 385.202 373.681Z"/>
</mask>
<path d="M356.059 372.442C356.059 368.388 355.609 365.317 356.427 362.491C357.923 357.332 366.069 351.581 373.789 353.929C368.71 353.929 362.852 356.918 360.859 360.157C359.498 362.369 358.575 365.44 358.27 368.388C357.901 371.951 357.902 373.249 357.042 375.882C356.182 378.514 355.076 380.059 353.645 382.128C355.028 378.799 356.059 376.496 356.059 372.442Z" fill="white"/>
<path d="M404.128 372.455C404.128 368.401 404.578 365.329 403.759 362.504C402.264 357.344 394.118 351.593 386.398 353.941C391.476 353.941 397.334 356.931 399.328 360.17C400.688 362.381 401.612 365.452 401.917 368.401C402.285 371.963 402.285 373.262 403.145 375.894C404.005 378.527 405.11 380.071 406.542 382.14C405.159 378.811 404.128 376.508 404.128 372.455Z" fill="white"/>
<path d="M367.546 309.04C367.546 309.04 368.406 312.634 375.053 312.716C381.138 312.791 381.814 316.341 381.884 316.94C381.889 316.996 381.892 317.025 381.892 317.025C381.892 317.025 381.896 316.988 381.899 316.919C381.962 316.262 382.579 312.79 388.596 312.716C395.242 312.633 396.103 309.04 396.103 309.04C396.103 309.04 395.824 310.194 388.486 310.537C382.862 310.8 381.985 314.471 381.883 316.171C381.743 314.471 380.787 310.8 375.163 310.537C367.824 310.194 367.546 309.04 367.546 309.04Z" fill="white"/>
<path d="M367.546 308.302C367.546 308.302 368.406 311.895 375.053 311.978C381.138 312.053 381.814 315.603 381.884 316.202C381.889 316.257 381.892 316.287 381.892 316.287C381.892 316.287 381.896 316.25 381.899 316.181C381.962 315.524 382.579 312.052 388.596 311.978C395.242 311.895 396.103 308.302 396.103 308.302C396.103 308.302 395.824 309.456 388.486 309.799C382.862 310.062 381.985 313.732 381.883 315.433C381.743 313.733 380.787 310.062 375.163 309.799C367.824 309.456 367.546 308.302 367.546 308.302Z" fill="white"/>
<path d="M367.552 306.84C367.552 306.84 368.412 310.433 375.058 310.516C381.144 310.591 381.672 314.115 381.742 314.714C381.747 314.77 381.888 315.801 381.888 315.801C381.888 315.801 381.985 314.783 381.988 314.714C382.111 314.1 382.584 310.59 388.601 310.516C395.248 310.433 396.108 306.84 396.108 306.84C396.108 306.84 395.83 307.994 388.491 308.337C382.868 308.6 381.991 312.27 381.888 313.971C381.748 312.271 380.792 308.6 375.168 308.337C367.83 307.994 367.552 306.84 367.552 306.84Z" fill="white"/>
<path d="M385.235 372.016C384.082 381.941 389.272 383.914 389.272 383.914C389.272 383.914 387.606 383.277 388.503 372.271C389.4 361.264 380.301 361.073 380.301 361.073C380.301 361.073 386.389 362.091 385.235 372.016Z" fill="white"/>
<path d="M375.374 372.016C376.527 381.941 371.337 383.914 371.337 383.914C371.337 383.914 373.003 383.277 372.106 372.271C371.208 361.264 380.308 361.073 380.308 361.073C380.308 361.073 374.22 362.091 375.374 372.016Z" fill="white"/>
<path d="M385.202 373.681C382.821 385.728 380.3 390.911 380.3 390.911C380.3 390.911 376.956 384.592 375.258 373.681C373.297 361.073 380.3 361.073 380.3 361.073C380.3 361.073 387.584 361.634 385.202 373.681Z" fill="white"/>
<path d="M382.892 317.04L382.892 317.04L380.892 317.01L380.892 317.01L382.892 317.04ZM382.892 316.306L382.892 316.306L380.892 316.268L380.892 316.269L382.892 316.306ZM382.767 315.323L382.371 314.595L380.614 315.549L381.01 316.278L382.767 315.323ZM356.427 362.491L358.348 363.048L356.427 362.491ZM373.789 353.929V355.929L374.371 352.015L373.789 353.929ZM360.859 360.157L362.562 361.206L360.859 360.157ZM358.27 368.388L360.259 368.594L358.27 368.388ZM353.645 382.128L351.798 381.36L355.289 383.266L353.645 382.128ZM403.759 362.504L401.838 363.061L403.759 362.504ZM386.398 353.941L385.816 352.028L386.398 355.941V353.941ZM399.328 360.17L397.624 361.218L399.328 360.17ZM401.917 368.401L399.927 368.607L401.917 368.401ZM406.542 382.14L404.897 383.278L408.389 381.373L406.542 382.14ZM375.053 312.716L375.028 314.716L375.053 312.716ZM367.546 309.04L369.49 308.571L365.601 309.506L367.546 309.04ZM381.884 316.94L383.878 316.788L383.875 316.747L383.87 316.706L381.884 316.94ZM381.892 317.025L379.907 317.266L383.882 317.224L381.892 317.025ZM381.899 316.919L379.908 316.728L379.904 316.775L379.902 316.822L381.899 316.919ZM388.596 312.716L388.62 314.715L388.596 312.716ZM396.103 309.04L398.048 309.505L394.158 308.571L396.103 309.04ZM388.486 310.537L388.579 312.535L388.486 310.537ZM381.883 316.171L379.889 316.335L383.879 316.292L381.883 316.171ZM375.163 310.537L375.069 312.535L375.163 310.537ZM375.053 311.978L375.028 313.977L375.053 311.978ZM367.546 308.302L369.49 307.833L365.601 308.768L367.546 308.302ZM381.884 316.202L383.878 316.05L383.875 316.009L383.87 315.968L381.884 316.202ZM381.892 316.287L379.907 316.528L383.882 316.486L381.892 316.287ZM381.899 316.181L379.908 315.99L379.904 316.037L379.902 316.084L381.899 316.181ZM388.596 311.978L388.62 313.977L388.596 311.978ZM396.103 308.302L398.048 308.767L394.158 307.833L396.103 308.302ZM388.486 309.799L388.579 311.797L388.486 309.799ZM381.883 315.433L379.889 315.597L383.879 315.554L381.883 315.433ZM375.163 309.799L375.069 311.797L375.163 309.799ZM375.058 310.516L375.034 312.515H375.034L375.058 310.516ZM367.552 306.84L369.496 306.371L365.607 307.306L367.552 306.84ZM381.742 314.714L383.737 314.562L383.733 314.521L383.729 314.48L381.742 314.714ZM381.888 315.801L379.907 316.073L383.879 315.989L381.888 315.801ZM381.988 314.714L380.027 314.322L379.998 314.468L379.99 314.617L381.988 314.714ZM388.601 310.516L388.626 312.515L388.601 310.516ZM396.108 306.84L398.053 307.305L394.164 306.371L396.108 306.84ZM388.491 308.337L388.585 310.335L388.491 308.337ZM381.888 313.971L379.895 314.135L383.885 314.092L381.888 313.971ZM375.168 308.337L375.075 310.335L375.168 308.337ZM385.235 372.016L383.248 371.785L385.235 372.016ZM389.272 383.914L388.562 385.783L389.986 382.045L389.272 383.914ZM380.301 361.073L380.343 359.074L379.971 363.046L380.301 361.073ZM375.374 372.016L377.36 371.785L375.374 372.016ZM371.337 383.914L370.623 382.045L372.047 385.783L371.337 383.914ZM380.308 361.073L380.638 363.046L380.266 359.074L380.308 361.073ZM380.3 390.911L378.533 391.846L380.376 395.328L382.099 391.785L380.3 390.911ZM375.258 373.681L377.235 373.373L375.258 373.681ZM380.3 361.073L380.454 359.079L380.377 359.073H380.3L380.3 361.073ZM358.059 372.442C358.059 371.394 358.03 370.414 358 369.509C357.97 368.594 357.941 367.774 357.936 366.994C357.926 365.433 358.019 364.185 358.348 363.048L354.506 361.935C354.017 363.623 353.925 365.324 353.936 367.019C353.941 367.866 353.973 368.75 354.002 369.64C354.032 370.539 354.059 371.464 354.059 372.442H358.059ZM358.348 363.048C358.907 361.12 360.868 358.758 363.753 357.139C366.586 355.549 369.988 354.863 373.207 355.842L374.371 352.015C369.87 350.646 365.338 351.662 361.795 353.651C358.303 355.61 355.443 358.703 354.506 361.935L358.348 363.048ZM373.789 351.929C370.886 351.929 367.852 352.774 365.286 354.033C362.755 355.275 360.425 357.046 359.156 359.109L362.562 361.206C363.286 360.029 364.882 358.686 367.048 357.624C369.179 356.578 371.613 355.929 373.789 355.929V351.929ZM359.156 359.109C357.602 361.633 356.609 365.01 356.28 368.183L360.259 368.594C360.541 365.869 361.394 363.104 362.562 361.206L359.156 359.109ZM356.28 368.183C355.901 371.854 355.917 372.883 355.14 375.261L358.943 376.503C359.886 373.615 359.902 372.047 360.259 368.594L356.28 368.183ZM355.14 375.261C354.382 377.582 353.44 378.908 352 380.99L355.289 383.266C356.712 381.209 357.981 379.446 358.943 376.503L355.14 375.261ZM355.491 382.895C356.871 379.574 358.059 376.938 358.059 372.442H354.059C354.059 376.054 353.184 378.023 351.798 381.36L355.491 382.895ZM406.128 372.455C406.128 371.476 406.155 370.552 406.184 369.652C406.213 368.763 406.245 367.878 406.25 367.031C406.261 365.336 406.169 363.636 405.68 361.947L401.838 363.061C402.168 364.198 402.26 365.446 402.25 367.006C402.246 367.787 402.216 368.607 402.186 369.522C402.157 370.426 402.128 371.406 402.128 372.455H406.128ZM405.68 361.947C404.744 358.716 401.884 355.623 398.391 353.663C394.848 351.675 390.316 350.659 385.816 352.028L386.98 355.854C390.199 354.875 393.6 355.561 396.434 357.151C399.319 358.77 401.279 361.132 401.838 363.061L405.68 361.947ZM386.398 355.941C388.574 355.941 391.007 356.59 393.139 357.636C395.304 358.699 396.9 360.042 397.624 361.218L401.031 359.122C399.761 357.059 397.432 355.287 394.901 354.045C392.335 352.786 389.3 351.941 386.398 351.941V355.941ZM397.624 361.218C398.792 363.116 399.645 365.882 399.927 368.607L403.906 368.195C403.578 365.023 402.584 361.646 401.031 359.122L397.624 361.218ZM399.927 368.607C400.285 372.06 400.3 373.627 401.244 376.515L405.046 375.273C404.27 372.896 404.286 371.867 403.906 368.195L399.927 368.607ZM401.244 376.515C402.205 379.459 403.474 381.221 404.897 383.278L408.187 381.002C406.746 378.921 405.805 377.595 405.046 375.273L401.244 376.515ZM408.389 381.373C407.002 378.036 406.128 376.066 406.128 372.455H402.128C402.128 376.95 403.315 379.587 404.695 382.908L408.389 381.373ZM375.078 310.716C372.129 310.679 370.739 309.876 370.119 309.337C369.794 309.056 369.623 308.798 369.54 308.645C369.498 308.567 369.477 308.515 369.471 308.499C369.468 308.491 369.469 308.492 369.473 308.504C369.474 308.51 369.477 308.519 369.48 308.531C369.482 308.536 369.483 308.543 369.485 308.55C369.486 308.554 369.487 308.558 369.488 308.562C369.489 308.564 369.489 308.566 369.49 308.568C369.49 308.569 369.49 308.571 369.49 308.571C369.491 308.573 369.491 308.574 367.546 309.04C365.601 309.506 365.601 309.507 365.602 309.509C365.602 309.51 365.602 309.511 365.603 309.512C365.603 309.515 365.604 309.517 365.604 309.52C365.606 309.524 365.607 309.53 365.608 309.535C365.611 309.546 365.614 309.557 365.617 309.57C365.624 309.595 365.632 309.624 365.642 309.656C365.662 309.721 365.687 309.8 365.721 309.89C365.788 310.071 365.886 310.3 366.029 310.561C366.314 311.084 366.774 311.73 367.495 312.357C368.967 313.635 371.33 314.67 375.028 314.716L375.078 310.716ZM383.87 316.706C383.805 316.154 383.512 314.639 382.163 313.242C380.774 311.804 378.528 310.758 375.078 310.716L375.028 314.716C377.663 314.748 378.797 315.515 379.285 316.021C379.813 316.567 379.892 317.127 379.898 317.174L383.87 316.706ZM379.89 317.092C379.893 317.136 379.897 317.172 379.9 317.202C379.901 317.216 379.902 317.229 379.904 317.24C379.904 317.245 379.905 317.25 379.905 317.254C379.906 317.256 379.906 317.259 379.906 317.26C379.906 317.261 379.906 317.262 379.906 317.263C379.906 317.264 379.906 317.264 379.906 317.265C379.907 317.265 379.907 317.265 379.907 317.265C379.907 317.265 379.907 317.266 379.907 317.266C379.907 317.266 379.907 317.266 379.907 317.266C379.907 317.266 379.907 317.266 381.892 317.025C383.878 316.785 383.878 316.785 383.878 316.785C383.878 316.785 383.878 316.785 383.878 316.785C383.878 316.785 383.878 316.785 383.878 316.785C383.878 316.786 383.878 316.786 383.878 316.786C383.878 316.786 383.878 316.787 383.878 316.787C383.878 316.788 383.878 316.789 383.878 316.79C383.878 316.791 383.879 316.792 383.879 316.794C383.879 316.796 383.879 316.798 383.879 316.8C383.88 316.804 383.88 316.805 383.88 316.805C383.88 316.806 383.879 316.8 383.878 316.788L379.89 317.092ZM379.902 316.822C379.901 316.838 379.9 316.847 379.9 316.848C379.9 316.849 379.9 316.847 379.9 316.844C379.901 316.842 379.901 316.84 379.901 316.837C379.901 316.836 379.901 316.834 379.901 316.833C379.902 316.832 379.902 316.831 379.902 316.83C379.902 316.83 379.902 316.829 379.902 316.829C379.902 316.828 379.902 316.828 379.902 316.828C379.902 316.828 379.902 316.828 379.902 316.828C379.902 316.828 379.902 316.827 379.902 316.827C379.902 316.827 379.902 316.827 381.892 317.025C383.882 317.224 383.882 317.223 383.882 317.223C383.882 317.223 383.882 317.223 383.882 317.223C383.882 317.223 383.882 317.223 383.882 317.223C383.882 317.223 383.882 317.222 383.882 317.222C383.882 317.222 383.883 317.221 383.883 317.22C383.883 317.219 383.883 317.218 383.883 317.217C383.883 317.215 383.883 317.213 383.884 317.21C383.884 317.205 383.885 317.199 383.885 317.193C383.886 317.18 383.887 317.165 383.889 317.148C383.891 317.113 383.894 317.068 383.897 317.015L379.902 316.822ZM383.89 317.109C383.897 317.036 383.968 316.498 384.463 315.978C384.919 315.499 386.012 314.748 388.62 314.715L388.571 310.716C385.163 310.758 382.938 311.779 381.567 313.219C380.233 314.618 379.964 316.144 379.908 316.728L383.89 317.109ZM388.62 314.715C392.319 314.67 394.682 313.635 396.153 312.357C396.875 311.73 397.334 311.084 397.62 310.561C397.762 310.3 397.861 310.071 397.928 309.89C397.961 309.8 397.987 309.721 398.007 309.656C398.016 309.624 398.024 309.595 398.031 309.57C398.035 309.557 398.038 309.546 398.04 309.535C398.042 309.529 398.043 309.524 398.044 309.519C398.045 309.517 398.045 309.515 398.046 309.512C398.046 309.511 398.047 309.509 398.047 309.509C398.047 309.507 398.048 309.505 396.103 309.04C394.158 308.574 394.158 308.573 394.158 308.571C394.158 308.57 394.159 308.569 394.159 308.568C394.16 308.566 394.16 308.564 394.161 308.562C394.162 308.558 394.163 308.554 394.163 308.55C394.165 308.543 394.167 308.536 394.169 308.53C394.172 308.519 394.174 308.51 394.176 308.504C394.18 308.492 394.18 308.491 394.177 308.499C394.171 308.515 394.151 308.567 394.109 308.645C394.025 308.797 393.854 309.055 393.53 309.337C392.91 309.876 391.52 310.679 388.571 310.716L388.62 314.715ZM396.103 309.04C394.158 308.571 394.16 308.565 394.161 308.56C394.162 308.558 394.163 308.552 394.164 308.549C394.166 308.541 394.168 308.534 394.17 308.526C394.174 308.511 394.178 308.497 394.182 308.482C394.19 308.453 394.2 308.424 394.209 308.396C394.229 308.339 394.25 308.286 394.273 308.234C394.319 308.131 394.371 308.041 394.423 307.964C394.528 307.811 394.63 307.716 394.689 307.669C394.795 307.583 394.769 307.643 394.41 307.764C393.683 308.008 391.995 308.371 388.392 308.539L388.579 312.535C392.316 312.36 394.436 311.974 395.683 311.556C396.311 311.345 396.813 311.095 397.2 310.782C397.4 310.621 397.581 310.434 397.729 310.216C397.804 310.107 397.869 309.992 397.922 309.872C397.949 309.812 397.973 309.751 397.994 309.691C398.004 309.66 398.014 309.63 398.023 309.599C398.027 309.584 398.031 309.569 398.035 309.554C398.037 309.546 398.039 309.539 398.041 309.531C398.042 309.528 398.044 309.522 398.044 309.52C398.046 309.514 398.047 309.509 396.103 309.04ZM388.392 308.539C385.111 308.693 382.909 309.877 381.555 311.562C380.259 313.174 379.951 314.985 379.886 316.051L383.879 316.292C383.917 315.657 384.099 314.782 384.673 314.068C385.188 313.426 386.237 312.644 388.579 312.535L388.392 308.539ZM375.069 312.535C377.412 312.644 378.492 313.428 379.037 314.088C379.637 314.815 379.837 315.702 379.889 316.335L383.876 316.007C383.788 314.94 383.441 313.141 382.122 311.542C380.748 309.876 378.538 308.693 375.256 308.539L375.069 312.535ZM367.546 309.04C365.602 309.509 365.603 309.514 365.605 309.52C365.605 309.522 365.606 309.528 365.607 309.531C365.609 309.539 365.611 309.546 365.613 309.554C365.617 309.569 365.622 309.584 365.626 309.599C365.635 309.63 365.644 309.66 365.655 309.691C365.676 309.751 365.699 309.812 365.726 309.872C365.78 309.992 365.845 310.107 365.919 310.216C366.068 310.434 366.249 310.621 366.449 310.782C366.836 311.095 367.338 311.345 367.966 311.556C369.213 311.974 371.333 312.36 375.069 312.535L375.256 308.539C371.654 308.371 369.966 308.008 369.239 307.764C368.88 307.643 368.854 307.584 368.96 307.669C369.019 307.716 369.121 307.811 369.225 307.965C369.278 308.041 369.33 308.131 369.376 308.234C369.399 308.286 369.42 308.34 369.439 308.396C369.449 308.424 369.458 308.453 369.467 308.482C369.471 308.497 369.475 308.512 369.479 308.526C369.481 308.534 369.483 308.541 369.485 308.549C369.486 308.552 369.487 308.558 369.488 308.56C369.489 308.566 369.49 308.571 367.546 309.04ZM375.078 309.978C372.129 309.941 370.739 309.138 370.119 308.599C369.794 308.317 369.623 308.059 369.54 307.907C369.498 307.829 369.477 307.777 369.471 307.761C369.468 307.753 369.469 307.754 369.473 307.766C369.474 307.772 369.477 307.781 369.48 307.793C369.482 307.798 369.483 307.805 369.485 307.812C369.486 307.816 369.487 307.82 369.488 307.824C369.489 307.826 369.489 307.828 369.49 307.83C369.49 307.831 369.49 307.833 369.49 307.833C369.491 307.835 369.491 307.836 367.546 308.302C365.601 308.768 365.601 308.769 365.602 308.771C365.602 308.771 365.602 308.773 365.603 308.774C365.603 308.777 365.604 308.779 365.604 308.782C365.606 308.786 365.607 308.792 365.608 308.797C365.611 308.808 365.614 308.819 365.617 308.832C365.624 308.857 365.632 308.886 365.642 308.918C365.662 308.983 365.687 309.062 365.721 309.152C365.788 309.333 365.886 309.562 366.029 309.823C366.314 310.346 366.774 310.992 367.495 311.619C368.967 312.897 371.33 313.932 375.028 313.977L375.078 309.978ZM383.87 315.968C383.805 315.416 383.512 313.901 382.163 312.504C380.774 311.066 378.528 310.02 375.078 309.978L375.028 313.977C377.663 314.01 378.797 314.777 379.285 315.283C379.813 315.829 379.892 316.389 379.898 316.436L383.87 315.968ZM379.89 316.354C379.893 316.398 379.897 316.434 379.9 316.463C379.901 316.478 379.902 316.491 379.904 316.501C379.904 316.507 379.905 316.512 379.905 316.516C379.905 316.518 379.906 316.52 379.906 316.522C379.906 316.523 379.906 316.524 379.906 316.525C379.906 316.526 379.906 316.526 379.906 316.526C379.906 316.527 379.907 316.527 379.907 316.527C379.907 316.527 379.907 316.527 379.907 316.527C379.907 316.528 379.907 316.528 379.907 316.528C379.907 316.528 379.907 316.528 381.892 316.287C383.878 316.047 383.878 316.047 383.878 316.047C383.878 316.047 383.878 316.047 383.878 316.047C383.878 316.047 383.878 316.047 383.878 316.047C383.878 316.048 383.878 316.048 383.878 316.048C383.878 316.049 383.878 316.049 383.878 316.049C383.878 316.05 383.878 316.051 383.878 316.052C383.878 316.053 383.879 316.055 383.879 316.056C383.879 316.058 383.879 316.06 383.879 316.062C383.88 316.066 383.88 316.067 383.88 316.067C383.88 316.068 383.879 316.062 383.878 316.05L379.89 316.354ZM379.902 316.084C379.901 316.1 379.9 316.109 379.9 316.11C379.9 316.111 379.9 316.109 379.9 316.106C379.901 316.104 379.901 316.102 379.901 316.099C379.901 316.098 379.901 316.096 379.901 316.095C379.902 316.094 379.902 316.093 379.902 316.092C379.902 316.091 379.902 316.091 379.902 316.091C379.902 316.09 379.902 316.09 379.902 316.09C379.902 316.09 379.902 316.09 379.902 316.089C379.902 316.089 379.902 316.089 379.902 316.089C379.902 316.089 379.902 316.089 381.892 316.287C383.882 316.486 383.882 316.485 383.882 316.485C383.882 316.485 383.882 316.485 383.882 316.485C383.882 316.485 383.882 316.485 383.882 316.485C383.882 316.485 383.882 316.484 383.882 316.484C383.882 316.484 383.883 316.483 383.883 316.483C383.883 316.481 383.883 316.48 383.883 316.479C383.883 316.477 383.883 316.475 383.884 316.472C383.884 316.467 383.885 316.461 383.885 316.455C383.886 316.442 383.887 316.427 383.889 316.41C383.891 316.375 383.894 316.33 383.897 316.277L379.902 316.084ZM383.89 316.371C383.897 316.298 383.968 315.76 384.463 315.24C384.919 314.761 386.012 314.01 388.62 313.977L388.571 309.978C385.163 310.02 382.938 311.041 381.567 312.481C380.233 313.88 379.964 315.406 379.908 315.99L383.89 316.371ZM388.62 313.977C392.319 313.932 394.682 312.897 396.153 311.619C396.875 310.992 397.334 310.346 397.62 309.822C397.762 309.562 397.861 309.333 397.928 309.152C397.961 309.061 397.987 308.983 398.007 308.918C398.016 308.886 398.024 308.857 398.031 308.832C398.035 308.819 398.038 308.808 398.04 308.797C398.042 308.791 398.043 308.786 398.044 308.781C398.045 308.779 398.045 308.777 398.046 308.774C398.046 308.773 398.047 308.771 398.047 308.771C398.047 308.769 398.048 308.767 396.103 308.302C394.158 307.836 394.158 307.835 394.158 307.833C394.158 307.832 394.159 307.831 394.159 307.83C394.16 307.828 394.16 307.826 394.161 307.824C394.162 307.82 394.163 307.816 394.163 307.812C394.165 307.805 394.167 307.798 394.169 307.792C394.172 307.781 394.174 307.772 394.176 307.766C394.18 307.754 394.18 307.753 394.177 307.761C394.171 307.777 394.151 307.829 394.109 307.907C394.025 308.059 393.854 308.317 393.53 308.599C392.91 309.138 391.52 309.941 388.571 309.978L388.62 313.977ZM396.103 308.302C394.158 307.833 394.16 307.827 394.161 307.822C394.162 307.82 394.163 307.814 394.164 307.811C394.166 307.803 394.168 307.796 394.17 307.788C394.174 307.773 394.178 307.759 394.182 307.744C394.19 307.715 394.2 307.686 394.209 307.658C394.229 307.601 394.25 307.547 394.273 307.496C394.319 307.393 394.371 307.303 394.423 307.226C394.528 307.073 394.63 306.978 394.689 306.931C394.795 306.845 394.769 306.905 394.41 307.026C393.683 307.27 391.995 307.633 388.392 307.801L388.579 311.797C392.316 311.622 394.436 311.236 395.683 310.818C396.311 310.607 396.813 310.357 397.2 310.044C397.4 309.883 397.581 309.696 397.729 309.478C397.804 309.369 397.869 309.254 397.922 309.134C397.949 309.074 397.973 309.013 397.994 308.952C398.004 308.922 398.014 308.892 398.023 308.861C398.027 308.846 398.031 308.831 398.035 308.816C398.037 308.808 398.039 308.801 398.041 308.793C398.042 308.789 398.044 308.784 398.044 308.782C398.046 308.776 398.047 308.771 396.103 308.302ZM388.392 307.801C385.111 307.954 382.909 309.139 381.555 310.824C380.259 312.436 379.951 314.246 379.886 315.313L383.879 315.554C383.917 314.919 384.099 314.044 384.673 313.33C385.188 312.688 386.237 311.906 388.579 311.797L388.392 307.801ZM375.069 311.797C377.412 311.906 378.492 312.69 379.037 313.35C379.637 314.077 379.837 314.964 379.889 315.597L383.876 315.269C383.788 314.202 383.441 312.403 382.122 310.804C380.748 309.138 378.538 307.955 375.256 307.801L375.069 311.797ZM367.546 308.302C365.602 308.771 365.603 308.776 365.605 308.782C365.605 308.784 365.606 308.79 365.607 308.793C365.609 308.801 365.611 308.808 365.613 308.816C365.617 308.831 365.622 308.846 365.626 308.861C365.635 308.892 365.644 308.922 365.655 308.953C365.676 309.013 365.699 309.074 365.726 309.134C365.78 309.254 365.845 309.369 365.919 309.478C366.068 309.696 366.249 309.883 366.449 310.044C366.836 310.357 367.338 310.607 367.966 310.818C369.213 311.236 371.333 311.622 375.069 311.797L375.256 307.801C371.654 307.633 369.966 307.27 369.239 307.026C368.88 306.905 368.854 306.846 368.96 306.931C369.019 306.978 369.121 307.073 369.225 307.226C369.278 307.303 369.33 307.393 369.376 307.496C369.399 307.548 369.42 307.602 369.439 307.658C369.449 307.686 369.458 307.715 369.467 307.744C369.471 307.759 369.475 307.773 369.479 307.788C369.481 307.796 369.483 307.803 369.485 307.811C369.486 307.814 369.487 307.82 369.488 307.822C369.489 307.828 369.49 307.833 367.546 308.302ZM375.083 308.516C372.135 308.479 370.745 307.676 370.124 307.137C369.8 306.856 369.629 306.597 369.546 306.445C369.503 306.367 369.483 306.315 369.477 306.299C369.474 306.291 369.475 306.292 369.478 306.304C369.48 306.31 369.482 306.319 369.486 306.331C369.487 306.336 369.489 306.343 369.491 306.35C369.492 306.354 369.493 306.358 369.494 306.362C369.494 306.364 369.495 306.366 369.495 306.368C369.495 306.369 369.496 306.371 369.496 306.371C369.496 306.373 369.497 306.374 367.552 306.84C365.607 307.306 365.607 307.307 365.607 307.309C365.608 307.309 365.608 307.311 365.608 307.312C365.609 307.315 365.609 307.317 365.61 307.32C365.611 307.324 365.612 307.33 365.614 307.335C365.617 307.346 365.62 307.357 365.623 307.37C365.63 307.395 365.638 307.424 365.648 307.456C365.667 307.521 365.693 307.6 365.726 307.69C365.793 307.871 365.892 308.1 366.034 308.361C366.32 308.884 366.779 309.53 367.501 310.157C368.972 311.435 371.336 312.47 375.034 312.515L375.083 308.516ZM383.729 314.48C383.672 314.002 383.442 312.472 382.118 311.054C380.756 309.595 378.527 308.558 375.083 308.516L375.034 312.515C377.675 312.548 378.753 313.311 379.194 313.784C379.673 314.296 379.742 314.827 379.756 314.948L383.729 314.48ZM379.748 314.866C379.756 314.972 379.808 315.346 379.835 315.548C379.853 315.681 379.871 315.812 379.885 315.91C379.891 315.959 379.897 316 379.901 316.028C379.903 316.042 379.904 316.054 379.905 316.061C379.906 316.065 379.906 316.068 379.907 316.07C379.907 316.071 379.907 316.072 379.907 316.072C379.907 316.072 379.907 316.073 379.907 316.073C379.907 316.073 379.907 316.073 379.907 316.073C379.907 316.073 379.907 316.073 379.907 316.073C379.907 316.073 379.907 316.073 381.888 315.801C383.87 315.528 383.87 315.528 383.87 315.528C383.87 315.528 383.87 315.528 383.87 315.528C383.87 315.528 383.87 315.528 383.87 315.528C383.87 315.528 383.87 315.528 383.87 315.528C383.87 315.527 383.869 315.526 383.869 315.525C383.869 315.523 383.869 315.521 383.868 315.517C383.867 315.509 383.866 315.498 383.864 315.484C383.86 315.456 383.854 315.416 383.848 315.367C383.834 315.27 383.817 315.14 383.799 315.009C383.781 314.877 383.763 314.745 383.75 314.644C383.743 314.593 383.737 314.552 383.734 314.523C383.726 314.461 383.732 314.504 383.737 314.562L379.748 314.866ZM379.99 314.617C379.992 314.593 379.974 314.79 379.946 315.098C379.933 315.228 379.921 315.357 379.912 315.453C379.908 315.501 379.904 315.541 379.901 315.569C379.9 315.583 379.899 315.593 379.898 315.601C379.898 315.605 379.898 315.607 379.897 315.609C379.897 315.61 379.897 315.611 379.897 315.611C379.897 315.612 379.897 315.612 379.897 315.612C379.897 315.612 379.897 315.612 379.897 315.612C379.897 315.612 379.897 315.612 379.897 315.612C379.897 315.612 379.897 315.612 381.888 315.801C383.879 315.989 383.879 315.989 383.879 315.989C383.879 315.989 383.879 315.989 383.879 315.989C383.879 315.989 383.879 315.989 383.879 315.989C383.879 315.989 383.879 315.989 383.879 315.988C383.88 315.988 383.88 315.987 383.88 315.986C383.88 315.984 383.88 315.981 383.881 315.978C383.881 315.97 383.882 315.959 383.884 315.945C383.886 315.917 383.89 315.877 383.895 315.828C383.904 315.731 383.916 315.601 383.928 315.469C383.949 315.251 383.981 314.904 383.986 314.811L379.99 314.617ZM383.949 315.106C384.012 314.791 384.087 314.277 384.557 313.766C384.982 313.303 386.025 312.548 388.626 312.515L388.577 308.516C385.161 308.558 382.958 309.595 381.612 311.059C380.31 312.475 380.087 314.023 380.027 314.322L383.949 315.106ZM388.626 312.515C392.324 312.47 394.688 311.435 396.159 310.157C396.881 309.53 397.34 308.884 397.626 308.36C397.768 308.1 397.866 307.871 397.933 307.69C397.967 307.599 397.993 307.521 398.012 307.456C398.022 307.424 398.03 307.395 398.037 307.37C398.04 307.357 398.043 307.346 398.046 307.335C398.047 307.329 398.049 307.324 398.05 307.319C398.05 307.317 398.051 307.315 398.052 307.312C398.052 307.311 398.052 307.309 398.052 307.309C398.053 307.307 398.053 307.305 396.108 306.84C394.163 306.374 394.163 306.373 394.164 306.371C394.164 306.37 394.164 306.369 394.165 306.368C394.165 306.366 394.166 306.364 394.166 306.362C394.167 306.358 394.168 306.354 394.169 306.35C394.171 306.343 394.173 306.336 394.174 306.33C394.177 306.319 394.18 306.31 394.182 306.304C394.185 306.292 394.186 306.291 394.183 306.299C394.177 306.315 394.156 306.367 394.114 306.445C394.031 306.597 393.86 306.855 393.536 307.137C392.915 307.676 391.525 308.479 388.577 308.516L388.626 312.515ZM396.108 306.84C394.164 306.371 394.165 306.365 394.167 306.36C394.167 306.358 394.168 306.352 394.169 306.349C394.171 306.341 394.173 306.334 394.175 306.326C394.179 306.311 394.183 306.297 394.188 306.282C394.196 306.253 394.205 306.224 394.215 306.196C394.234 306.139 394.255 306.085 394.278 306.034C394.325 305.931 394.376 305.841 394.429 305.764C394.533 305.611 394.636 305.516 394.694 305.469C394.8 305.383 394.774 305.443 394.415 305.564C393.689 305.808 392 306.171 388.398 306.339L388.585 310.335C392.321 310.16 394.441 309.774 395.688 309.356C396.316 309.145 396.818 308.895 397.206 308.582C397.405 308.421 397.586 308.234 397.735 308.016C397.809 307.907 397.874 307.792 397.928 307.672C397.955 307.612 397.979 307.551 397.999 307.49C398.01 307.46 398.019 307.43 398.028 307.399C398.033 307.384 398.037 307.369 398.041 307.354C398.043 307.346 398.045 307.339 398.047 307.331C398.048 307.327 398.049 307.322 398.05 307.32C398.051 307.314 398.052 307.309 396.108 306.84ZM388.398 306.339C385.117 306.493 382.915 307.677 381.561 309.362C380.265 310.974 379.956 312.784 379.892 313.851L383.885 314.092C383.923 313.457 384.104 312.582 384.678 311.868C385.194 311.226 386.242 310.444 388.585 310.335L388.398 306.339ZM375.075 310.335C377.417 310.444 378.498 311.228 379.042 311.888C379.642 312.615 379.843 313.502 379.895 314.135L383.882 313.807C383.794 312.74 383.446 310.941 382.128 309.342C380.753 307.676 378.543 306.493 375.262 306.339L375.075 310.335ZM367.552 306.84C365.607 307.309 365.609 307.314 365.61 307.32C365.611 307.322 365.612 307.328 365.613 307.331C365.615 307.339 365.617 307.346 365.619 307.354C365.623 307.369 365.627 307.384 365.631 307.399C365.64 307.43 365.65 307.46 365.66 307.491C365.681 307.551 365.705 307.612 365.732 307.672C365.786 307.792 365.85 307.907 365.925 308.016C366.073 308.234 366.255 308.421 366.454 308.582C366.841 308.895 367.344 309.145 367.971 309.356C369.219 309.774 371.339 310.16 375.075 310.335L375.262 306.339C371.659 306.171 369.971 305.808 369.245 305.564C368.886 305.443 368.86 305.384 368.965 305.469C369.024 305.516 369.126 305.611 369.231 305.764C369.283 305.841 369.335 305.931 369.381 306.034C369.404 306.086 369.426 306.14 369.445 306.196C369.455 306.224 369.464 306.253 369.472 306.282C369.477 306.297 369.481 306.311 369.485 306.326C369.487 306.334 369.488 306.341 369.49 306.349C369.491 306.352 369.493 306.358 369.493 306.36C369.495 306.366 369.496 306.371 367.552 306.84ZM383.248 371.785C382.628 377.12 383.69 380.592 385.156 382.795C385.879 383.881 386.665 384.605 387.305 385.069C387.624 385.3 387.905 385.466 388.122 385.58C388.231 385.637 388.324 385.682 388.398 385.715C388.435 385.731 388.468 385.745 388.495 385.757C388.509 385.762 388.521 385.767 388.532 385.772C388.538 385.774 388.543 385.776 388.548 385.778C388.551 385.779 388.553 385.78 388.555 385.781C388.556 385.781 388.558 385.782 388.559 385.782C388.56 385.783 388.562 385.783 389.272 383.914C389.983 382.044 389.984 382.045 389.986 382.045C389.986 382.045 389.988 382.046 389.989 382.046C389.991 382.047 389.993 382.048 389.995 382.049C389.998 382.05 390.002 382.051 390.005 382.053C390.011 382.055 390.016 382.057 390.02 382.059C390.028 382.062 390.031 382.063 390.03 382.063C390.029 382.063 390.012 382.055 389.981 382.039C389.919 382.006 389.804 381.94 389.654 381.832C389.356 381.616 388.917 381.227 388.486 380.579C387.645 379.314 386.688 376.837 387.222 372.247L383.248 371.785ZM389.272 383.914C389.986 382.045 389.991 382.047 389.997 382.049C389.998 382.05 390.004 382.052 390.007 382.054C390.014 382.056 390.022 382.059 390.029 382.062C390.043 382.068 390.057 382.074 390.071 382.08C390.098 382.092 390.125 382.104 390.151 382.117C390.204 382.143 390.253 382.17 390.299 382.199C390.391 382.255 390.468 382.314 390.53 382.369C390.655 382.48 390.715 382.57 390.73 382.596C390.754 382.634 390.638 382.459 390.513 381.831C390.262 380.565 390.054 377.87 390.497 372.433L386.51 372.108C386.056 377.678 386.232 380.805 386.59 382.609C386.769 383.515 387.014 384.187 387.321 384.689C387.479 384.946 387.663 385.172 387.875 385.36C387.981 385.455 388.092 385.538 388.208 385.609C388.266 385.644 388.325 385.677 388.384 385.706C388.413 385.72 388.442 385.734 388.472 385.746C388.486 385.753 388.501 385.759 388.515 385.765C388.523 385.768 388.53 385.771 388.537 385.774C388.541 385.775 388.546 385.777 388.548 385.778C388.553 385.78 388.559 385.782 389.272 383.914ZM390.497 372.433C390.743 369.406 390.313 366.972 389.414 365.036C388.512 363.092 387.19 361.764 385.838 360.874C384.502 359.994 383.151 359.551 382.15 359.324C381.645 359.21 381.217 359.148 380.905 359.115C380.749 359.098 380.621 359.088 380.525 359.082C380.478 359.079 380.438 359.077 380.408 359.076C380.392 359.075 380.379 359.075 380.368 359.074C380.363 359.074 380.358 359.074 380.354 359.074C380.352 359.074 380.35 359.074 380.348 359.074C380.347 359.074 380.346 359.074 380.345 359.074C380.344 359.074 380.343 359.074 380.301 361.073C380.259 363.073 380.258 363.073 380.256 363.073C380.256 363.073 380.255 363.073 380.254 363.073C380.253 363.073 380.252 363.073 380.251 363.073C380.249 363.073 380.247 363.073 380.246 363.073C380.244 363.072 380.244 363.072 380.246 363.073C380.249 363.073 380.261 363.073 380.28 363.074C380.318 363.077 380.384 363.082 380.475 363.091C380.657 363.111 380.933 363.15 381.267 363.226C381.944 363.379 382.812 363.671 383.639 364.215C384.45 364.749 385.235 365.532 385.786 366.72C386.341 367.915 386.712 369.633 386.51 372.108L390.497 372.433ZM380.301 361.073C379.971 363.046 379.969 363.046 379.968 363.045C379.967 363.045 379.966 363.045 379.965 363.045C379.963 363.045 379.961 363.044 379.959 363.044C379.956 363.043 379.953 363.043 379.95 363.042C379.944 363.041 379.94 363.04 379.937 363.04C379.931 363.039 379.93 363.038 379.934 363.039C379.941 363.041 379.966 363.047 380.007 363.059C380.09 363.082 380.231 363.129 380.408 363.209C380.763 363.37 381.254 363.662 381.73 364.178C382.624 365.149 383.775 367.257 383.248 371.785L387.222 372.247C387.849 366.85 386.532 363.487 384.671 361.468C383.769 360.489 382.81 359.906 382.06 359.566C381.685 359.396 381.359 359.285 381.113 359.214C380.989 359.179 380.885 359.153 380.804 359.135C380.763 359.126 380.728 359.119 380.699 359.113C380.685 359.11 380.672 359.108 380.66 359.106C380.654 359.105 380.649 359.104 380.644 359.103C380.642 359.103 380.639 359.102 380.637 359.102C380.636 359.102 380.634 359.101 380.634 359.101C380.632 359.101 380.631 359.101 380.301 361.073ZM373.387 372.247C373.921 376.838 372.964 379.314 372.123 380.579C371.692 381.227 371.253 381.616 370.955 381.832C370.805 381.94 370.69 382.006 370.628 382.039C370.597 382.055 370.58 382.063 370.578 382.063C370.578 382.063 370.581 382.062 370.589 382.059C370.593 382.057 370.598 382.055 370.604 382.053C370.607 382.051 370.611 382.05 370.614 382.049C370.616 382.048 370.618 382.047 370.62 382.046C370.621 382.046 370.623 382.045 370.623 382.045C370.625 382.045 370.626 382.044 371.337 383.914C372.047 385.783 372.049 385.783 372.05 385.782C372.051 385.782 372.052 385.781 372.054 385.781C372.056 385.78 372.058 385.779 372.061 385.778C372.066 385.776 372.071 385.774 372.076 385.772C372.088 385.767 372.1 385.762 372.114 385.757C372.141 385.745 372.174 385.732 372.211 385.715C372.285 385.682 372.378 385.637 372.487 385.58C372.704 385.466 372.985 385.301 373.304 385.069C373.944 384.605 374.73 383.881 375.453 382.795C376.918 380.592 377.98 377.12 377.36 371.785L373.387 372.247ZM371.337 383.914C372.05 385.782 372.055 385.78 372.061 385.778C372.063 385.777 372.068 385.775 372.072 385.774C372.079 385.771 372.086 385.768 372.094 385.765C372.108 385.759 372.123 385.753 372.137 385.746C372.167 385.734 372.196 385.72 372.225 385.706C372.284 385.677 372.342 385.644 372.4 385.609C372.517 385.538 372.628 385.455 372.734 385.36C372.946 385.172 373.129 384.946 373.287 384.689C373.595 384.187 373.839 383.515 374.019 382.609C374.377 380.805 374.553 377.678 374.099 372.108L370.112 372.433C370.555 377.87 370.347 380.565 370.096 381.831C369.971 382.459 369.855 382.634 369.878 382.596C369.894 382.57 369.954 382.48 370.079 382.369C370.141 382.314 370.217 382.255 370.31 382.199C370.356 382.171 370.405 382.143 370.457 382.117C370.484 382.104 370.511 382.092 370.538 382.08C370.552 382.074 370.566 382.068 370.58 382.062C370.587 382.059 370.594 382.056 370.601 382.054C370.605 382.052 370.61 382.05 370.612 382.049C370.618 382.047 370.623 382.045 371.337 383.914ZM374.099 372.108C373.897 369.633 374.268 367.915 374.823 366.72C375.374 365.532 376.159 364.749 376.97 364.215C377.797 363.671 378.664 363.379 379.342 363.226C379.676 363.15 379.952 363.111 380.134 363.091C380.225 363.082 380.291 363.077 380.329 363.074C380.348 363.073 380.359 363.073 380.363 363.073C380.365 363.073 380.365 363.073 380.363 363.073C380.362 363.073 380.36 363.073 380.358 363.073C380.357 363.073 380.356 363.073 380.354 363.073C380.354 363.073 380.353 363.073 380.352 363.073C380.351 363.073 380.35 363.073 380.308 361.073C380.266 359.074 380.265 359.074 380.264 359.074C380.263 359.074 380.262 359.074 380.261 359.074C380.259 359.074 380.257 359.074 380.255 359.074C380.251 359.074 380.246 359.074 380.24 359.074C380.229 359.075 380.216 359.075 380.201 359.076C380.17 359.077 380.131 359.079 380.083 359.082C379.988 359.088 379.86 359.098 379.704 359.115C379.392 359.148 378.964 359.21 378.459 359.324C377.458 359.551 376.107 359.995 374.771 360.874C373.419 361.764 372.097 363.092 371.195 365.036C370.296 366.972 369.865 369.406 370.112 372.433L374.099 372.108ZM380.308 361.073C379.978 359.101 379.977 359.101 379.975 359.101C379.975 359.101 379.973 359.102 379.972 359.102C379.969 359.102 379.967 359.103 379.965 359.103C379.96 359.104 379.954 359.105 379.949 359.106C379.937 359.108 379.924 359.11 379.91 359.113C379.881 359.119 379.845 359.126 379.805 359.135C379.723 359.153 379.619 359.179 379.496 359.214C379.25 359.285 378.924 359.396 378.549 359.566C377.799 359.906 376.84 360.489 375.938 361.468C374.076 363.487 372.76 366.85 373.387 372.247L377.36 371.785C376.834 367.258 377.985 365.149 378.879 364.178C379.355 363.662 379.845 363.37 380.201 363.209C380.378 363.129 380.519 363.082 380.601 363.059C380.642 363.047 380.668 363.041 380.675 363.039C380.679 363.038 380.678 363.039 380.672 363.04C380.669 363.041 380.664 363.041 380.659 363.042C380.656 363.043 380.653 363.043 380.649 363.044C380.648 363.044 380.646 363.045 380.644 363.045C380.643 363.045 380.641 363.045 380.641 363.045C380.639 363.046 380.638 363.046 380.308 361.073ZM383.24 373.293C382.065 379.238 380.86 383.465 379.96 386.184C379.509 387.544 379.135 388.528 378.878 389.161C378.75 389.477 378.651 389.706 378.586 389.851C378.554 389.923 378.53 389.975 378.516 390.005C378.509 390.021 378.504 390.031 378.502 390.036C378.501 390.038 378.5 390.04 378.5 390.04C378.5 390.04 378.5 390.039 378.5 390.039C378.501 390.038 378.501 390.038 378.501 390.038C378.501 390.037 378.501 390.037 378.501 390.037C378.502 390.036 378.502 390.036 380.3 390.911C382.099 391.785 382.099 391.785 382.099 391.784C382.099 391.784 382.1 391.784 382.1 391.783C382.1 391.782 382.101 391.781 382.101 391.781C382.102 391.779 382.103 391.776 382.104 391.774C382.107 391.769 382.11 391.762 382.114 391.755C382.121 391.74 382.13 391.719 382.142 391.694C382.166 391.642 382.199 391.571 382.24 391.478C382.323 391.292 382.44 391.022 382.585 390.664C382.875 389.949 383.279 388.884 383.757 387.442C384.712 384.558 385.958 380.17 387.164 374.068L383.24 373.293ZM380.3 390.911C382.068 389.975 382.068 389.975 382.068 389.976C382.068 389.976 382.069 389.976 382.069 389.976C382.069 389.977 382.069 389.977 382.069 389.977C382.069 389.978 382.069 389.978 382.069 389.977C382.069 389.977 382.068 389.974 382.066 389.971C382.062 389.963 382.055 389.949 382.045 389.93C382.025 389.89 381.993 389.827 381.951 389.74C381.866 389.566 381.738 389.298 381.578 388.939C381.257 388.22 380.806 387.137 380.3 385.717C379.288 382.876 378.062 378.69 377.235 373.373L373.282 373.988C374.153 379.583 375.447 384.012 376.532 387.059C377.074 388.582 377.565 389.761 377.925 390.567C378.104 390.971 378.252 391.281 378.356 391.495C378.408 391.602 378.45 391.686 378.48 391.744C378.495 391.773 378.507 391.797 378.516 391.814C378.52 391.822 378.524 391.829 378.527 391.835C378.528 391.837 378.529 391.84 378.53 391.842C378.531 391.843 378.531 391.843 378.532 391.844C378.532 391.845 378.532 391.845 378.532 391.845C378.532 391.846 378.533 391.846 380.3 390.911ZM377.235 373.373C376.304 367.387 377.586 364.977 378.49 364.031C378.967 363.532 379.468 363.294 379.837 363.178C380.024 363.119 380.174 363.093 380.263 363.081C380.308 363.075 380.335 363.073 380.343 363.073C380.347 363.073 380.346 363.073 380.339 363.073C380.335 363.073 380.33 363.073 380.324 363.073C380.321 363.073 380.317 363.073 380.313 363.073C380.311 363.073 380.309 363.073 380.307 363.073C380.306 363.073 380.304 363.073 380.304 363.073C380.302 363.073 380.3 363.073 380.3 361.073C380.3 359.073 380.299 359.073 380.297 359.073C380.296 359.073 380.294 359.073 380.293 359.073C380.29 359.073 380.288 359.073 380.285 359.073C380.279 359.073 380.273 359.073 380.267 359.074C380.254 359.074 380.239 359.074 380.222 359.075C380.189 359.076 380.148 359.077 380.101 359.08C380.007 359.086 379.887 359.096 379.743 359.115C379.457 359.152 379.076 359.224 378.636 359.363C377.754 359.64 376.627 360.191 375.598 361.268C373.49 363.474 372.252 367.367 373.282 373.988L377.235 373.373ZM380.3 361.073C380.147 363.067 380.145 363.067 380.144 363.067C380.143 363.067 380.142 363.067 380.141 363.067C380.139 363.067 380.137 363.067 380.135 363.066C380.132 363.066 380.129 363.066 380.126 363.066C380.12 363.065 380.116 363.065 380.114 363.065C380.109 363.064 380.11 363.064 380.117 363.065C380.13 363.067 380.165 363.072 380.217 363.082C380.322 363.103 380.493 363.145 380.702 363.223C381.121 363.379 381.67 363.671 382.176 364.218C383.117 365.234 384.356 367.647 383.24 373.293L387.164 374.068C388.43 367.667 387.218 363.777 385.112 361.501C384.095 360.402 382.973 359.801 382.1 359.475C381.664 359.312 381.284 359.216 381 359.16C380.858 359.131 380.739 359.112 380.646 359.1C380.6 359.094 380.561 359.089 380.528 359.086C380.512 359.084 380.498 359.083 380.486 359.082C380.479 359.081 380.474 359.081 380.468 359.08C380.466 359.08 380.463 359.08 380.461 359.08C380.459 359.08 380.458 359.08 380.457 359.079C380.455 359.079 380.454 359.079 380.3 361.073Z" fill="white" mask="url(#path-81-inside-1_3106_4761)"/>
<g filter="url(#filter9_d_3106_4761)">
<rect x="118" y="199" width="154" height="154" rx="77" fill="#E5E4E2" fill-opacity="0.65" shape-rendering="crispEdges"/>
</g>
<g filter="url(#filter10_d_3106_4761)">
<rect x="129.059" y="210.062" width="131.878" height="131.878" rx="65.9392" fill="#E5E4E2" fill-opacity="0.65" shape-rendering="crispEdges"/>
</g>
<g filter="url(#filter11_d_3106_4761)">
<rect x="140.121" y="221.117" width="109.757" height="109.757" rx="54.8785" fill="#E5E4E2"/>
</g>
<path d="M194.719 306.535C212.506 306.535 226.926 292.339 226.926 274.826C226.926 257.314 212.506 243.117 194.719 243.117C176.931 243.117 162.512 257.314 162.512 274.826C162.512 292.339 176.931 306.535 194.719 306.535Z" fill="#C7B299" stroke="#161616" stroke-width="0.23431" stroke-miterlimit="10"/>
<path d="M158.84 277.611C158.84 256.919 173.747 239.84 196.594 239.84C217.939 239.84 231.26 254.807 231.26 273.561C231.26 294.248 216.352 311.332 193.685 311.332C172.248 311.332 158.844 296.365 158.844 277.611H158.84ZM194.035 305.869C212.645 305.869 224.555 291.519 224.555 273.911C224.555 269.437 224.463 256.788 215.082 251.819C206.734 247.402 197.199 252.331 196.029 252.961C194.092 251.885 186.144 247.743 178.296 250.752C165.264 255.747 165.549 275.468 165.549 277.257C165.549 293.282 176.398 305.869 194.04 305.869H194.035Z" fill="#161616"/>
<path d="M179.637 287.699C179.637 288.41 186.068 292.995 194.153 292.995C202.238 292.995 208.913 288.41 208.913 287.699C208.913 286.987 202.235 290.417 194.153 290.417C186.068 290.417 179.637 286.987 179.637 287.699Z" fill="#161616"/>
<path d="M210.165 284.539C218.368 288.869 227.088 288.484 229.638 283.673C232.188 278.862 227.605 271.448 219.402 267.118C211.199 262.788 202.956 258.857 199.929 267.984C196.638 277.921 201.962 280.209 210.165 284.539Z" fill="#161616"/>
<path d="M189.477 267.986C186.454 258.858 178.211 262.786 170.004 267.12C161.801 271.45 157.218 278.863 159.768 283.674C162.318 288.485 171.034 288.875 179.241 284.54C187.444 280.21 192.772 277.923 189.477 267.986Z" fill="#161616"/>
<path d="M194.5 289.263C198.493 289.263 201.73 287.109 201.73 284.452C201.73 281.795 198.493 279.641 194.5 279.641C190.507 279.641 187.27 281.795 187.27 284.452C187.27 287.109 190.507 289.263 194.5 289.263Z" fill="#161616"/>
<path d="M192.585 286.169C192.445 286.484 191.836 286.637 191.231 286.51C190.626 286.383 190.25 286.029 190.394 285.714C190.539 285.399 191.143 285.246 191.748 285.373C192.353 285.5 192.73 285.854 192.585 286.169Z" fill="white"/>
<path d="M196.531 286.169C196.671 286.484 197.28 286.637 197.885 286.51C198.489 286.383 198.866 286.029 198.722 285.714C198.577 285.399 197.972 285.246 197.368 285.373C196.763 285.5 196.386 285.854 196.531 286.169Z" fill="white"/>
<path d="M185.236 272.58C185.236 275.292 183.032 277.491 180.315 277.491C177.598 277.491 175.395 275.292 175.395 272.58C175.395 269.869 177.314 270.236 180.03 270.236C182.747 270.236 185.231 269.864 185.231 272.58H185.236Z" fill="white" stroke="#161616" stroke-width="0.23431" stroke-miterlimit="10"/>
<path d="M180.312 276.065C182.241 276.065 183.805 274.504 183.805 272.579C183.805 270.654 182.241 269.094 180.312 269.094C178.384 269.094 176.82 270.654 176.82 272.579C176.82 274.504 178.384 276.065 180.312 276.065Z" fill="#161616" stroke="#161616" stroke-width="0.23431" stroke-miterlimit="10"/>
<path d="M178.418 272.739C178.856 272.739 179.211 272.385 179.211 271.948C179.211 271.511 178.856 271.156 178.418 271.156C177.98 271.156 177.625 271.511 177.625 271.948C177.625 272.385 177.98 272.739 178.418 272.739Z" fill="white"/>
<path d="M214.157 272.58C214.157 275.292 211.954 277.491 209.237 277.491C206.52 277.491 204.316 275.292 204.316 272.58C204.316 269.869 206.52 270.236 209.237 270.236C211.954 270.236 214.157 269.864 214.157 272.58Z" fill="white" stroke="#101010" stroke-width="0.23431" stroke-miterlimit="10"/>
<path d="M209.238 276.065C211.167 276.065 212.73 274.504 212.73 272.579C212.73 270.654 211.167 269.094 209.238 269.094C207.31 269.094 205.746 270.654 205.746 272.579C205.746 274.504 207.31 276.065 209.238 276.065Z" fill="#161616" stroke="#161616" stroke-width="0.23431" stroke-miterlimit="10"/>
<path d="M207.328 272.739C207.766 272.739 208.121 272.385 208.121 271.948C208.121 271.511 207.766 271.156 207.328 271.156C206.89 271.156 206.535 271.511 206.535 271.948C206.535 272.385 206.89 272.739 207.328 272.739Z" fill="white"/>
<g filter="url(#filter12_d_3106_4761)">
<rect x="144" y="28" width="127.497" height="127.497" rx="63.7486" fill="#A6A5C4" fill-opacity="0.65" shape-rendering="crispEdges"/>
</g>
<g filter="url(#filter13_d_3106_4761)">
<rect x="153.16" y="37.1562" width="109.183" height="109.183" rx="54.5913" fill="#A6A5C4" fill-opacity="0.65" shape-rendering="crispEdges"/>
</g>
<g filter="url(#filter14_d_3106_4761)">
<rect x="162.312" y="46.3203" width="90.8681" height="90.8681" rx="45.4341" fill="#A6A5C4"/>
</g>
<g clip-path="url(#clip2_3106_4761)">
<path d="M206.775 115.749C221.135 115.749 232.776 104.418 232.776 90.4409C232.776 76.4636 221.135 65.1328 206.775 65.1328C192.415 65.1328 180.773 76.4636 180.773 90.4409C180.773 104.418 192.415 115.749 206.775 115.749Z" fill="#C7B299" stroke="#161616" stroke-width="0.23431" stroke-miterlimit="10"/>
<path d="M177.816 92.662C177.816 76.1471 189.851 62.5156 208.296 62.5156C225.528 62.5156 236.282 74.4611 236.282 89.4295C236.282 105.941 224.247 119.576 205.947 119.576C188.641 119.572 177.816 107.627 177.816 92.662ZM206.23 115.216C221.254 115.216 230.869 103.763 230.869 89.7088C230.869 86.1377 230.795 76.0424 223.221 72.0769C216.482 68.5512 208.784 72.4853 207.84 72.988C206.276 72.1292 199.859 68.8235 193.523 71.2251C183.002 75.2116 183.232 90.9515 183.232 92.3792C183.232 105.169 191.991 115.216 206.234 115.216H206.23Z" fill="#161616"/>
<path d="M190.148 100.846C190.148 101.408 197.454 105.028 206.637 105.028C215.821 105.028 223.402 101.408 223.402 100.846C223.402 100.284 215.817 102.993 206.637 102.993C197.454 102.993 190.148 100.284 190.148 100.846Z" fill="#161616"/>
<path d="M219.244 98.1913C225.867 101.647 232.906 101.34 234.965 97.5001C237.024 93.6603 233.324 87.7434 226.702 84.2876C220.079 80.8317 213.425 77.6935 210.981 84.9787C208.324 92.9098 212.622 94.7355 219.244 98.1913ZM218.746 89.4853C216.793 89.4853 215.165 88.459 215.109 87.2024C215.052 85.9457 215.951 86.4449 217.904 86.4483C219.856 86.4518 222.124 85.9561 222.181 87.2163C222.237 88.473 220.698 89.4888 218.746 89.4853Z" fill="#161616"/>
<path d="M202.542 84.9799C200.102 77.6946 193.447 80.8293 186.821 84.2887C180.199 87.7446 176.499 93.6614 178.558 97.5013C180.617 101.341 187.653 101.652 194.279 98.1925C200.901 94.7366 205.203 92.9109 202.542 84.9799ZM191.339 87.2175C191.396 85.9608 193.663 86.4565 195.616 86.4495C197.569 86.446 198.467 85.9468 198.411 87.2035C198.354 88.4602 196.727 89.483 194.774 89.4865C192.821 89.49 191.282 88.4742 191.339 87.2175Z" fill="#161616"/>
<path d="M206.599 101.961C209.822 101.961 212.436 100.242 212.436 98.1211C212.436 96.0004 209.822 94.2812 206.599 94.2812C203.375 94.2812 200.762 96.0004 200.762 98.1211C200.762 100.242 203.375 101.961 206.599 101.961Z" fill="#161616"/>
<path d="M205.059 99.4912C204.946 99.7426 204.454 99.8647 203.966 99.7635C203.478 99.6623 203.174 99.3795 203.291 99.1282C203.407 98.8768 203.896 98.7547 204.384 98.8559C204.872 98.9571 205.176 99.2399 205.059 99.4912Z" fill="white"/>
<path d="M208.248 99.4912C208.361 99.7426 208.853 99.8647 209.341 99.7635C209.829 99.6623 210.133 99.3795 210.016 99.1282C209.9 98.8768 209.411 98.7547 208.923 98.8559C208.435 98.9571 208.131 99.2399 208.248 99.4912Z" fill="white"/>
<path d="M195.152 92.5668C197.346 92.5668 199.125 90.8117 199.125 88.6467C199.125 86.4817 197.346 84.7266 195.152 84.7266C192.958 84.7266 191.18 86.4817 191.18 88.6467C191.18 90.8117 192.958 92.5668 195.152 92.5668Z" fill="white" stroke="#161616" stroke-width="0.23431" stroke-miterlimit="10"/>
<path d="M195.155 91.4315C196.713 91.4315 197.975 90.1859 197.975 88.6493C197.975 87.1128 196.713 85.8672 195.155 85.8672C193.598 85.8672 192.336 87.1128 192.336 88.6493C192.336 90.1859 193.598 91.4315 195.155 91.4315Z" fill="#161616" stroke="#161616" stroke-width="0.23431" stroke-miterlimit="10"/>
<path d="M193.617 88.7715C193.97 88.7715 194.257 88.4886 194.257 88.1396C194.257 87.7907 193.97 87.5078 193.617 87.5078C193.263 87.5078 192.977 87.7907 192.977 88.1396C192.977 88.4886 193.263 88.7715 193.617 88.7715Z" fill="white"/>
<path d="M218.504 92.5668C220.698 92.5668 222.477 90.8117 222.477 88.6467C222.477 86.4817 220.698 84.7266 218.504 84.7266C216.31 84.7266 214.531 86.4817 214.531 88.6467C214.531 90.8117 216.31 92.5668 218.504 92.5668Z" fill="white" stroke="#101010" stroke-width="0.23431" stroke-miterlimit="10"/>
<path d="M218.503 91.4315C220.06 91.4315 221.322 90.1859 221.322 88.6493C221.322 87.1128 220.06 85.8672 218.503 85.8672C216.946 85.8672 215.684 87.1128 215.684 88.6493C215.684 90.1859 216.946 91.4315 218.503 91.4315Z" fill="#161616" stroke="#161616" stroke-width="0.23431" stroke-miterlimit="10"/>
<path d="M216.965 88.7715C217.318 88.7715 217.605 88.4886 217.605 88.1396C217.605 87.7907 217.318 87.5078 216.965 87.5078C216.611 87.5078 216.324 87.7907 216.324 88.1396C216.324 88.4886 216.611 88.7715 216.965 88.7715Z" fill="white"/>
</g>
<defs>
<filter id="filter0_d_3106_4761" x="255" y="75" width="199.562" height="199.562" filterUnits="userSpaceOnUse" color-interpolation-filters="sRGB">
<feFlood flood-opacity="0" result="BackgroundImageFix"/>
<feColorMatrix in="SourceAlpha" type="matrix" values="0 0 0 0 0 0 0 0 0 0 0 0 0 0 0 0 0 0 127 0" result="hardAlpha"/>
<feMorphology radius="18" operator="dilate" in="SourceAlpha" result="effect1_dropShadow_3106_4761"/>
<feOffset dx="4" dy="4"/>
<feGaussianBlur stdDeviation="7"/>
<feComposite in2="hardAlpha" operator="out"/>
<feColorMatrix type="matrix" values="0 0 0 0 0.559701 0 0 0 0 0.47209 0 0 0 0 0.00118426 0 0 0 0.25 0"/>
<feBlend mode="normal" in2="BackgroundImageFix" result="effect1_dropShadow_3106_4761"/>
<feBlend mode="normal" in="SourceGraphic" in2="effect1_dropShadow_3106_4761" result="shape"/>
</filter>
<filter id="filter1_d_3106_4761" x="264.73" y="84.7383" width="180.09" height="180.09" filterUnits="userSpaceOnUse" color-interpolation-filters="sRGB">
<feFlood flood-opacity="0" result="BackgroundImageFix"/>
<feColorMatrix in="SourceAlpha" type="matrix" values="0 0 0 0 0 0 0 0 0 0 0 0 0 0 0 0 0 0 127 0" result="hardAlpha"/>
<feMorphology radius="18" operator="dilate" in="SourceAlpha" result="effect1_dropShadow_3106_4761"/>
<feOffset dx="4" dy="4"/>
<feGaussianBlur stdDeviation="7"/>
<feComposite in2="hardAlpha" operator="out"/>
<feColorMatrix type="matrix" values="0 0 0 0 0.559701 0 0 0 0 0.47209 0 0 0 0 0.00118426 0 0 0 0.25 0"/>
<feBlend mode="normal" in2="BackgroundImageFix" result="effect1_dropShadow_3106_4761"/>
<feBlend mode="normal" in="SourceGraphic" in2="effect1_dropShadow_3106_4761" result="shape"/>
</filter>
<filter id="filter2_d_3106_4761" x="274.477" y="94.4727" width="160.617" height="160.617" filterUnits="userSpaceOnUse" color-interpolation-filters="sRGB">
<feFlood flood-opacity="0" result="BackgroundImageFix"/>
<feColorMatrix in="SourceAlpha" type="matrix" values="0 0 0 0 0 0 0 0 0 0 0 0 0 0 0 0 0 0 127 0" result="hardAlpha"/>
<feMorphology radius="18" operator="dilate" in="SourceAlpha" result="effect1_dropShadow_3106_4761"/>
<feOffset dx="4" dy="4"/>
<feGaussianBlur stdDeviation="7"/>
<feComposite in2="hardAlpha" operator="out"/>
<feColorMatrix type="matrix" values="0 0 0 0 0.559701 0 0 0 0 0.47209 0 0 0 0 0.00118426 0 0 0 0.25 0"/>
<feBlend mode="normal" in2="BackgroundImageFix" result="effect1_dropShadow_3106_4761"/>
<feBlend mode="normal" in="SourceGraphic" in2="effect1_dropShadow_3106_4761" result="shape"/>
</filter>
<filter id="filter3_d_3106_4761" x="0" y="77" width="159.719" height="159.719" filterUnits="userSpaceOnUse" color-interpolation-filters="sRGB">
<feFlood flood-opacity="0" result="BackgroundImageFix"/>
<feColorMatrix in="SourceAlpha" type="matrix" values="0 0 0 0 0 0 0 0 0 0 0 0 0 0 0 0 0 0 127 0" result="hardAlpha"/>
<feMorphology radius="18" operator="dilate" in="SourceAlpha" result="effect1_dropShadow_3106_4761"/>
<feOffset dx="4" dy="4"/>
<feGaussianBlur stdDeviation="7"/>
<feComposite in2="hardAlpha" operator="out"/>
<feColorMatrix type="matrix" values="0 0 0 0 0.599268 0 0 0 0 0.354397 0 0 0 0 0.0581028 0 0 0 0.25 0"/>
<feBlend mode="normal" in2="BackgroundImageFix" result="effect1_dropShadow_3106_4761"/>
<feBlend mode="normal" in="SourceGraphic" in2="effect1_dropShadow_3106_4761" result="shape"/>
</filter>
<filter id="filter4_d_3106_4761" x="6.875" y="83.875" width="145.969" height="145.969" filterUnits="userSpaceOnUse" color-interpolation-filters="sRGB">
<feFlood flood-opacity="0" result="BackgroundImageFix"/>
<feColorMatrix in="SourceAlpha" type="matrix" values="0 0 0 0 0 0 0 0 0 0 0 0 0 0 0 0 0 0 127 0" result="hardAlpha"/>
<feMorphology radius="18" operator="dilate" in="SourceAlpha" result="effect1_dropShadow_3106_4761"/>
<feOffset dx="4" dy="4"/>
<feGaussianBlur stdDeviation="7"/>
<feComposite in2="hardAlpha" operator="out"/>
<feColorMatrix type="matrix" values="0 0 0 0 0.599268 0 0 0 0 0.354397 0 0 0 0 0.0581028 0 0 0 0.25 0"/>
<feBlend mode="normal" in2="BackgroundImageFix" result="effect1_dropShadow_3106_4761"/>
<feBlend mode="normal" in="SourceGraphic" in2="effect1_dropShadow_3106_4761" result="shape"/>
</filter>
<filter id="filter5_d_3106_4761" x="13.75" y="90.75" width="132.219" height="132.219" filterUnits="userSpaceOnUse" color-interpolation-filters="sRGB">
<feFlood flood-opacity="0" result="BackgroundImageFix"/>
<feColorMatrix in="SourceAlpha" type="matrix" values="0 0 0 0 0 0 0 0 0 0 0 0 0 0 0 0 0 0 127 0" result="hardAlpha"/>
<feMorphology radius="18" operator="dilate" in="SourceAlpha" result="effect1_dropShadow_3106_4761"/>
<feOffset dx="4" dy="4"/>
<feGaussianBlur stdDeviation="7"/>
<feComposite in2="hardAlpha" operator="out"/>
<feColorMatrix type="matrix" values="0 0 0 0 0.599268 0 0 0 0 0.354397 0 0 0 0 0.0581028 0 0 0 0.25 0"/>
<feBlend mode="normal" in2="BackgroundImageFix" result="effect1_dropShadow_3106_4761"/>
<feBlend mode="normal" in="SourceGraphic" in2="effect1_dropShadow_3106_4761" result="shape"/>
</filter>
<filter id="filter6_d_3106_4761" x="265" y="228" width="238.418" height="238.418" filterUnits="userSpaceOnUse" color-interpolation-filters="sRGB">
<feFlood flood-opacity="0" result="BackgroundImageFix"/>
<feColorMatrix in="SourceAlpha" type="matrix" values="0 0 0 0 0 0 0 0 0 0 0 0 0 0 0 0 0 0 127 0" result="hardAlpha"/>
<feMorphology radius="18" operator="dilate" in="SourceAlpha" result="effect1_dropShadow_3106_4761"/>
<feOffset dx="4" dy="4"/>
<feGaussianBlur stdDeviation="7"/>
<feComposite in2="hardAlpha" operator="out"/>
<feColorMatrix type="matrix" values="0 0 0 0 0.489469 0 0 0 0 0.244988 0 0 0 0 0.058969 0 0 0 0.25 0"/>
<feBlend mode="normal" in2="BackgroundImageFix" result="effect1_dropShadow_3106_4761"/>
<feBlend mode="normal" in="SourceGraphic" in2="effect1_dropShadow_3106_4761" result="shape"/>
</filter>
<filter id="filter7_d_3106_4761" x="277.527" y="240.523" width="213.363" height="213.363" filterUnits="userSpaceOnUse" color-interpolation-filters="sRGB">
<feFlood flood-opacity="0" result="BackgroundImageFix"/>
<feColorMatrix in="SourceAlpha" type="matrix" values="0 0 0 0 0 0 0 0 0 0 0 0 0 0 0 0 0 0 127 0" result="hardAlpha"/>
<feMorphology radius="18" operator="dilate" in="SourceAlpha" result="effect1_dropShadow_3106_4761"/>
<feOffset dx="4" dy="4"/>
<feGaussianBlur stdDeviation="7"/>
<feComposite in2="hardAlpha" operator="out"/>
<feColorMatrix type="matrix" values="0 0 0 0 0.489469 0 0 0 0 0.244988 0 0 0 0 0.058969 0 0 0 0.25 0"/>
<feBlend mode="normal" in2="BackgroundImageFix" result="effect1_dropShadow_3106_4761"/>
<feBlend mode="normal" in="SourceGraphic" in2="effect1_dropShadow_3106_4761" result="shape"/>
</filter>
<filter id="filter8_d_3106_4761" x="290.051" y="253.055" width="188.309" height="188.309" filterUnits="userSpaceOnUse" color-interpolation-filters="sRGB">
<feFlood flood-opacity="0" result="BackgroundImageFix"/>
<feColorMatrix in="SourceAlpha" type="matrix" values="0 0 0 0 0 0 0 0 0 0 0 0 0 0 0 0 0 0 127 0" result="hardAlpha"/>
<feMorphology radius="18" operator="dilate" in="SourceAlpha" result="effect1_dropShadow_3106_4761"/>
<feOffset dx="4" dy="4"/>
<feGaussianBlur stdDeviation="7"/>
<feComposite in2="hardAlpha" operator="out"/>
<feColorMatrix type="matrix" values="0 0 0 0 0.489469 0 0 0 0 0.244988 0 0 0 0 0.058969 0 0 0 0.25 0"/>
<feBlend mode="normal" in2="BackgroundImageFix" result="effect1_dropShadow_3106_4761"/>
<feBlend mode="normal" in="SourceGraphic" in2="effect1_dropShadow_3106_4761" result="shape"/>
</filter>
<filter id="filter9_d_3106_4761" x="90" y="171" width="218" height="218" filterUnits="userSpaceOnUse" color-interpolation-filters="sRGB">
<feFlood flood-opacity="0" result="BackgroundImageFix"/>
<feColorMatrix in="SourceAlpha" type="matrix" values="0 0 0 0 0 0 0 0 0 0 0 0 0 0 0 0 0 0 127 0" result="hardAlpha"/>
<feMorphology radius="18" operator="dilate" in="SourceAlpha" result="effect1_dropShadow_3106_4761"/>
<feOffset dx="4" dy="4"/>
<feGaussianBlur stdDeviation="7"/>
<feComposite in2="hardAlpha" operator="out"/>
<feColorMatrix type="matrix" values="0 0 0 0 0.425978 0 0 0 0 0.42359 0 0 0 0 0.497607 0 0 0 0.25 0"/>
<feBlend mode="normal" in2="BackgroundImageFix" result="effect1_dropShadow_3106_4761"/>
<feBlend mode="normal" in="SourceGraphic" in2="effect1_dropShadow_3106_4761" result="shape"/>
</filter>
<filter id="filter10_d_3106_4761" x="101.059" y="182.062" width="195.879" height="195.879" filterUnits="userSpaceOnUse" color-interpolation-filters="sRGB">
<feFlood flood-opacity="0" result="BackgroundImageFix"/>
<feColorMatrix in="SourceAlpha" type="matrix" values="0 0 0 0 0 0 0 0 0 0 0 0 0 0 0 0 0 0 127 0" result="hardAlpha"/>
<feMorphology radius="18" operator="dilate" in="SourceAlpha" result="effect1_dropShadow_3106_4761"/>
<feOffset dx="4" dy="4"/>
<feGaussianBlur stdDeviation="7"/>
<feComposite in2="hardAlpha" operator="out"/>
<feColorMatrix type="matrix" values="0 0 0 0 0.425978 0 0 0 0 0.42359 0 0 0 0 0.497607 0 0 0 0.25 0"/>
<feBlend mode="normal" in2="BackgroundImageFix" result="effect1_dropShadow_3106_4761"/>
<feBlend mode="normal" in="SourceGraphic" in2="effect1_dropShadow_3106_4761" result="shape"/>
</filter>
<filter id="filter11_d_3106_4761" x="112.121" y="193.117" width="173.758" height="173.758" filterUnits="userSpaceOnUse" color-interpolation-filters="sRGB">
<feFlood flood-opacity="0" result="BackgroundImageFix"/>
<feColorMatrix in="SourceAlpha" type="matrix" values="0 0 0 0 0 0 0 0 0 0 0 0 0 0 0 0 0 0 127 0" result="hardAlpha"/>
<feMorphology radius="18" operator="dilate" in="SourceAlpha" result="effect1_dropShadow_3106_4761"/>
<feOffset dx="4" dy="4"/>
<feGaussianBlur stdDeviation="7"/>
<feComposite in2="hardAlpha" operator="out"/>
<feColorMatrix type="matrix" values="0 0 0 0 0.425978 0 0 0 0 0.42359 0 0 0 0 0.497607 0 0 0 0.25 0"/>
<feBlend mode="normal" in2="BackgroundImageFix" result="effect1_dropShadow_3106_4761"/>
<feBlend mode="normal" in="SourceGraphic" in2="effect1_dropShadow_3106_4761" result="shape"/>
</filter>
<filter id="filter12_d_3106_4761" x="116" y="0" width="191.496" height="191.496" filterUnits="userSpaceOnUse" color-interpolation-filters="sRGB">
<feFlood flood-opacity="0" result="BackgroundImageFix"/>
<feColorMatrix in="SourceAlpha" type="matrix" values="0 0 0 0 0 0 0 0 0 0 0 0 0 0 0 0 0 0 127 0" result="hardAlpha"/>
<feMorphology radius="18" operator="dilate" in="SourceAlpha" result="effect1_dropShadow_3106_4761"/>
<feOffset dx="4" dy="4"/>
<feGaussianBlur stdDeviation="7"/>
<feComposite in2="hardAlpha" operator="out"/>
<feColorMatrix type="matrix" values="0 0 0 0 0.425978 0 0 0 0 0.42359 0 0 0 0 0.497607 0 0 0 0.25 0"/>
<feBlend mode="normal" in2="BackgroundImageFix" result="effect1_dropShadow_3106_4761"/>
<feBlend mode="normal" in="SourceGraphic" in2="effect1_dropShadow_3106_4761" result="shape"/>
</filter>
<filter id="filter13_d_3106_4761" x="125.16" y="9.15625" width="173.184" height="173.184" filterUnits="userSpaceOnUse" color-interpolation-filters="sRGB">
<feFlood flood-opacity="0" result="BackgroundImageFix"/>
<feColorMatrix in="SourceAlpha" type="matrix" values="0 0 0 0 0 0 0 0 0 0 0 0 0 0 0 0 0 0 127 0" result="hardAlpha"/>
<feMorphology radius="18" operator="dilate" in="SourceAlpha" result="effect1_dropShadow_3106_4761"/>
<feOffset dx="4" dy="4"/>
<feGaussianBlur stdDeviation="7"/>
<feComposite in2="hardAlpha" operator="out"/>
<feColorMatrix type="matrix" values="0 0 0 0 0.425978 0 0 0 0 0.42359 0 0 0 0 0.497607 0 0 0 0.25 0"/>
<feBlend mode="normal" in2="BackgroundImageFix" result="effect1_dropShadow_3106_4761"/>
<feBlend mode="normal" in="SourceGraphic" in2="effect1_dropShadow_3106_4761" result="shape"/>
</filter>
<filter id="filter14_d_3106_4761" x="134.312" y="18.3203" width="154.867" height="154.867" filterUnits="userSpaceOnUse" color-interpolation-filters="sRGB">
<feFlood flood-opacity="0" result="BackgroundImageFix"/>
<feColorMatrix in="SourceAlpha" type="matrix" values="0 0 0 0 0 0 0 0 0 0 0 0 0 0 0 0 0 0 127 0" result="hardAlpha"/>
<feMorphology radius="18" operator="dilate" in="SourceAlpha" result="effect1_dropShadow_3106_4761"/>
<feOffset dx="4" dy="4"/>
<feGaussianBlur stdDeviation="7"/>
<feComposite in2="hardAlpha" operator="out"/>
<feColorMatrix type="matrix" values="0 0 0 0 0.425978 0 0 0 0 0.42359 0 0 0 0 0.497607 0 0 0 0.25 0"/>
<feBlend mode="normal" in2="BackgroundImageFix" result="effect1_dropShadow_3106_4761"/>
<feBlend mode="normal" in="SourceGraphic" in2="effect1_dropShadow_3106_4761" result="shape"/>
</filter>
<clipPath id="clip0_3106_4761">
<rect width="75.6453" height="63.6618" fill="white" transform="translate(312.969 137.453)"/>
</clipPath>
<clipPath id="clip1_3106_4761">
<rect x="53.9141" y="130.914" width="44.6873" height="44.2094" rx="22.1047" fill="white"/>
</clipPath>
<clipPath id="clip2_3106_4761">
<rect width="58.4655" height="57.0567" fill="white" transform="translate(177.816 62.5156)"/>
</clipPath>
</defs>
</svg>
