<svg width="1025" height="180" viewBox="0 0 1025 180" fill="none" xmlns="http://www.w3.org/2000/svg">
<path d="M136.558 43.752C126.31 43.752 119.982 36.472 119.982 27.176C119.982 17.88 126.31 10.656 136.558 10.656C146.694 10.656 153.022 17.88 153.022 27.176C153.022 36.528 146.694 43.752 136.558 43.752ZM136.558 40.896C144.846 40.896 149.998 35.296 149.998 27.176C149.998 19.056 144.846 13.456 136.558 13.456C128.214 13.456 123.006 19.112 123.006 27.176C123.006 35.24 128.214 40.896 136.558 40.896ZM142.102 35.632H131.63V32.944H135.494V24.6C135.326 24.768 135.046 24.88 134.654 24.88H131.574V22.192H134.318C135.102 22.192 135.55 21.632 135.55 20.904V18.776H138.35V32.888H142.102V35.632Z" fill="white"/>
<path d="M71.1394 68.843C71.1394 73.9003 67.2711 78 62.4994 78C57.7276 78 53.8594 73.9003 53.8594 68.843C53.8594 64.9411 59.0027 57.6844 61.3527 54.5725C61.9291 53.8092 63.0697 53.8092 63.6461 54.5725C65.996 57.6844 71.1394 64.9411 71.1394 68.843Z" fill="url(#paint0_linear_3106_5105)"/>
<path d="M71.1394 68.843C71.1394 73.9003 67.2711 78 62.4994 78C57.7276 78 53.8594 73.9003 53.8594 68.843C53.8594 64.9411 59.0027 57.6844 61.3527 54.5725C61.9291 53.8092 63.0697 53.8092 63.6461 54.5725C65.996 57.6844 71.1394 64.9411 71.1394 68.843Z" fill="url(#paint1_linear_3106_5105)"/>
<path d="M68.1342 72.6135C68.1342 75.5884 65.6114 78 62.4994 78C59.3874 78 56.8646 75.5884 56.8646 72.6135C56.8646 70.4798 59.7634 66.6407 61.4027 64.6402C61.9708 63.9469 63.0279 63.9469 63.596 64.6402C65.2353 66.6407 68.1342 70.4798 68.1342 72.6135Z" fill="url(#paint2_linear_3106_5105)"/>
<path d="M85.2066 63.414C87.6726 63.414 89.3286 65.16 89.3286 67.734C89.3286 70.632 87.2226 72.108 84.6846 72.108C81.8406 72.108 80.0946 70.254 79.9866 67.95H82.5606C82.6866 69.084 83.4246 69.984 84.7026 69.984C85.7286 69.984 86.7186 69.228 86.7186 67.734C86.7186 66.402 85.9266 65.466 84.6846 65.466C84.0366 65.466 83.1006 65.736 82.6686 66.78H80.1666L80.5266 59.4H88.5906V61.578H82.8846L82.7406 64.332C83.3346 63.738 84.1446 63.414 85.2066 63.414ZM97.5618 67.914H91.2618V65.844H97.5618V67.914ZM103.195 72H100.765L98.8027 62.748H101.215L102.349 69.102L103.753 63.954H105.409L106.795 69.102L107.929 62.748H110.269L108.289 72H105.877L104.545 67.302L103.195 72ZM116.169 72.108C113.145 72.108 111.327 70.254 111.327 67.392C111.327 64.512 113.181 62.64 116.007 62.64C118.725 62.64 120.579 64.368 120.597 67.086C120.597 67.32 120.579 67.662 120.525 67.968H113.973V68.076C114.027 69.39 114.855 70.182 116.079 70.182C117.069 70.182 117.753 69.732 117.969 68.868H120.471C120.201 70.668 118.617 72.108 116.169 72.108ZM114.027 66.294H118.059C117.879 65.16 117.123 64.53 116.025 64.53C114.963 64.53 114.171 65.196 114.027 66.294ZM126.997 72.108C123.973 72.108 122.155 70.254 122.155 67.392C122.155 64.512 124.009 62.64 126.835 62.64C129.553 62.64 131.407 64.368 131.425 67.086C131.425 67.32 131.407 67.662 131.353 67.968H124.801V68.076C124.855 69.39 125.683 70.182 126.907 70.182C127.897 70.182 128.581 69.732 128.797 68.868H131.299C131.029 70.668 129.445 72.108 126.997 72.108ZM124.855 66.294H128.887C128.707 65.16 127.951 64.53 126.853 64.53C125.791 64.53 124.999 65.196 124.855 66.294ZM136.025 72H133.487V59.4H136.025V66.672L139.643 62.748H142.505L139.157 66.402L142.649 72H139.697L137.375 68.256L136.025 69.732V72ZM147.409 72.108C144.871 72.108 143.161 70.902 143.071 68.922H145.483C145.555 69.732 146.221 70.29 147.427 70.29C148.435 70.29 149.047 69.948 149.047 69.3C149.047 68.544 148.417 68.472 147.013 68.292C144.889 68.04 143.251 67.554 143.251 65.646C143.251 63.81 144.817 62.622 147.157 62.622C149.587 62.622 151.261 63.72 151.369 65.61H148.957C148.867 64.872 148.219 64.422 147.229 64.422C146.293 64.422 145.681 64.782 145.681 65.376C145.681 66.078 146.455 66.168 147.733 66.312C149.749 66.528 151.513 67.014 151.513 69.102C151.513 70.938 149.839 72.108 147.409 72.108ZM163.142 72.108C160.604 72.108 158.894 70.902 158.804 68.922H161.216C161.288 69.732 161.954 70.29 163.16 70.29C164.168 70.29 164.78 69.948 164.78 69.3C164.78 68.544 164.15 68.472 162.746 68.292C160.622 68.04 158.984 67.554 158.984 65.646C158.984 63.81 160.55 62.622 162.89 62.622C165.32 62.622 166.994 63.72 167.102 65.61H164.69C164.6 64.872 163.952 64.422 162.962 64.422C162.026 64.422 161.414 64.782 161.414 65.376C161.414 66.078 162.188 66.168 163.466 66.312C165.482 66.528 167.246 67.014 167.246 69.102C167.246 70.938 165.572 72.108 163.142 72.108ZM176.189 72H173.237C171.473 72 170.591 71.118 170.591 69.354V64.89H168.413V62.748H170.591V60.156H173.129V62.748H176.153V64.89H173.129V68.94C173.129 69.588 173.381 69.858 174.047 69.858H176.189V72ZM185.819 65.052H184.307C182.723 65.052 182.111 66.078 182.111 67.464V69.858H184.649V72H177.701V69.858H179.573V64.89H177.701V62.748H181.931L182.003 64.35C182.507 63.432 183.281 62.748 184.757 62.748H185.819V65.052ZM191.843 72.108C188.819 72.108 187.001 70.254 187.001 67.392C187.001 64.512 188.855 62.64 191.681 62.64C194.399 62.64 196.253 64.368 196.271 67.086C196.271 67.32 196.253 67.662 196.199 67.968H189.647V68.076C189.701 69.39 190.529 70.182 191.753 70.182C192.743 70.182 193.427 69.732 193.643 68.868H196.145C195.875 70.668 194.291 72.108 191.843 72.108ZM189.701 66.294H193.733C193.553 65.16 192.797 64.53 191.699 64.53C190.637 64.53 189.845 65.196 189.701 66.294ZM206.775 69.858H207.045V72H205.803C204.597 72 204.147 71.442 204.129 70.65C203.463 71.586 202.491 72.108 201.177 72.108C199.233 72.108 197.793 71.136 197.793 69.372C197.793 67.41 199.251 66.312 201.987 66.312H203.733V65.862C203.733 65.034 203.175 64.494 202.113 64.494C201.195 64.494 200.547 64.944 200.457 65.628H197.991C198.171 63.864 199.755 62.64 202.221 62.64C204.777 62.64 206.253 63.792 206.253 66.006V69.282C206.253 69.732 206.379 69.858 206.775 69.858ZM203.733 68.256V68.004H201.951C200.925 68.004 200.349 68.436 200.349 69.21C200.349 69.858 200.853 70.272 201.663 70.272C202.923 70.272 203.733 69.462 203.733 68.256ZM211.365 72H208.827V59.4H211.365V66.672L214.983 62.748H217.845L214.497 66.402L217.989 72H215.037L212.715 68.256L211.365 69.732V72Z" fill="white"/>
<path d="M360.5 43L355.5 40.1132V45.8868L360.5 43ZM288.5 43.5L356 43.5V42.5L288.5 42.5V43.5Z" fill="#313131"/>
<path d="M512.558 43.752C502.31 43.752 495.982 36.472 495.982 27.176C495.982 17.88 502.31 10.656 512.558 10.656C522.694 10.656 529.022 17.88 529.022 27.176C529.022 36.528 522.694 43.752 512.558 43.752ZM512.558 40.896C520.846 40.896 525.998 35.296 525.998 27.176C525.998 19.056 520.846 13.456 512.558 13.456C504.214 13.456 499.006 19.112 499.006 27.176C499.006 35.24 504.214 40.896 512.558 40.896ZM518.718 35.632H506.174V33.112L513.006 27.736C514.238 26.784 515.526 25.552 515.526 23.928C515.526 22.304 514.126 21.184 512.39 21.184C510.43 21.184 509.086 22.416 509.086 24.544V24.712H506.174V24.376C506.174 20.848 508.918 18.496 512.334 18.496C515.974 18.496 518.55 20.68 518.55 23.872C518.55 26.56 516.646 28.072 515.246 29.192L510.542 32.944H518.718V35.632Z" fill="white"/>
<path d="M442.639 68.843C442.639 73.9003 438.771 78 433.999 78C429.228 78 425.359 73.9003 425.359 68.843C425.359 64.9411 430.503 57.6844 432.853 54.5725C433.429 53.8092 434.57 53.8092 435.146 54.5725C437.496 57.6844 442.639 64.9411 442.639 68.843Z" fill="url(#paint3_linear_3106_5105)"/>
<path d="M442.639 68.843C442.639 73.9003 438.771 78 433.999 78C429.228 78 425.359 73.9003 425.359 68.843C425.359 64.9411 430.503 57.6844 432.853 54.5725C433.429 53.8092 434.57 53.8092 435.146 54.5725C437.496 57.6844 442.639 64.9411 442.639 68.843Z" fill="url(#paint4_linear_3106_5105)"/>
<path d="M439.634 72.6135C439.634 75.5884 437.111 78 433.999 78C430.887 78 428.365 75.5884 428.365 72.6135C428.365 70.4798 431.263 66.6407 432.903 64.6402C433.471 63.9469 434.528 63.9469 435.096 64.6402C436.735 66.6407 439.634 70.4798 439.634 72.6135Z" fill="url(#paint5_linear_3106_5105)"/>
<path d="M457.013 59.4V69.804H459.803V72H451.451V69.804H454.439V63.972C454.259 64.026 454.043 64.044 453.827 64.044H451.505V61.902H453.539C454.169 61.902 454.475 61.308 454.475 60.624V59.4H457.013ZM465.558 59.292C468.528 59.292 470.328 61.632 470.328 65.412V65.988C470.328 69.876 468.528 72.108 465.558 72.108C462.588 72.108 460.788 69.876 460.788 65.988V65.412C460.788 61.632 462.588 59.292 465.558 59.292ZM463.326 65.502V65.898C463.326 66.258 463.344 66.618 463.362 66.924L467.304 62.514C466.926 61.722 466.35 61.326 465.558 61.326C464.064 61.326 463.326 62.748 463.326 65.502ZM467.79 65.898V65.502C467.79 65.142 467.772 64.8 467.754 64.476L463.83 68.904C464.208 69.66 464.784 70.056 465.558 70.056C467.052 70.056 467.79 68.652 467.79 65.898ZM478.747 67.914H472.447V65.844H478.747V67.914ZM484.38 72H481.95L479.988 62.748H482.4L483.534 69.102L484.938 63.954H486.594L487.98 69.102L489.114 62.748H491.454L489.474 72H487.062L485.73 67.302L484.38 72ZM497.354 72.108C494.33 72.108 492.512 70.254 492.512 67.392C492.512 64.512 494.366 62.64 497.192 62.64C499.91 62.64 501.764 64.368 501.782 67.086C501.782 67.32 501.764 67.662 501.71 67.968H495.158V68.076C495.212 69.39 496.04 70.182 497.264 70.182C498.254 70.182 498.938 69.732 499.154 68.868H501.656C501.386 70.668 499.802 72.108 497.354 72.108ZM495.212 66.294H499.244C499.064 65.16 498.308 64.53 497.21 64.53C496.148 64.53 495.356 65.196 495.212 66.294ZM508.182 72.108C505.158 72.108 503.34 70.254 503.34 67.392C503.34 64.512 505.194 62.64 508.02 62.64C510.738 62.64 512.592 64.368 512.61 67.086C512.61 67.32 512.592 67.662 512.538 67.968H505.986V68.076C506.04 69.39 506.868 70.182 508.092 70.182C509.082 70.182 509.766 69.732 509.982 68.868H512.484C512.214 70.668 510.63 72.108 508.182 72.108ZM506.04 66.294H510.072C509.892 65.16 509.136 64.53 508.038 64.53C506.976 64.53 506.184 65.196 506.04 66.294ZM517.211 72H514.673V59.4H517.211V66.672L520.829 62.748H523.691L520.343 66.402L523.835 72H520.883L518.561 68.256L517.211 69.732V72ZM528.595 72.108C526.057 72.108 524.347 70.902 524.257 68.922H526.669C526.741 69.732 527.407 70.29 528.613 70.29C529.621 70.29 530.233 69.948 530.233 69.3C530.233 68.544 529.603 68.472 528.199 68.292C526.075 68.04 524.437 67.554 524.437 65.646C524.437 63.81 526.003 62.622 528.343 62.622C530.773 62.622 532.447 63.72 532.555 65.61H530.143C530.053 64.872 529.405 64.422 528.415 64.422C527.479 64.422 526.867 64.782 526.867 65.376C526.867 66.078 527.641 66.168 528.919 66.312C530.935 66.528 532.699 67.014 532.699 69.102C532.699 70.938 531.025 72.108 528.595 72.108ZM544.327 72.108C541.789 72.108 540.079 70.902 539.989 68.922H542.401C542.473 69.732 543.139 70.29 544.345 70.29C545.353 70.29 545.965 69.948 545.965 69.3C545.965 68.544 545.335 68.472 543.931 68.292C541.807 68.04 540.169 67.554 540.169 65.646C540.169 63.81 541.735 62.622 544.075 62.622C546.505 62.622 548.179 63.72 548.287 65.61H545.875C545.785 64.872 545.137 64.422 544.147 64.422C543.211 64.422 542.599 64.782 542.599 65.376C542.599 66.078 543.373 66.168 544.651 66.312C546.667 66.528 548.431 67.014 548.431 69.102C548.431 70.938 546.757 72.108 544.327 72.108ZM557.375 72H554.423C552.659 72 551.777 71.118 551.777 69.354V64.89H549.599V62.748H551.777V60.156H554.315V62.748H557.339V64.89H554.315V68.94C554.315 69.588 554.567 69.858 555.233 69.858H557.375V72ZM567.005 65.052H565.493C563.909 65.052 563.297 66.078 563.297 67.464V69.858H565.835V72H558.887V69.858H560.759V64.89H558.887V62.748H563.117L563.189 64.35C563.693 63.432 564.467 62.748 565.943 62.748H567.005V65.052ZM573.028 72.108C570.004 72.108 568.186 70.254 568.186 67.392C568.186 64.512 570.04 62.64 572.866 62.64C575.584 62.64 577.438 64.368 577.456 67.086C577.456 67.32 577.438 67.662 577.384 67.968H570.832V68.076C570.886 69.39 571.714 70.182 572.938 70.182C573.928 70.182 574.612 69.732 574.828 68.868H577.33C577.06 70.668 575.476 72.108 573.028 72.108ZM570.886 66.294H574.918C574.738 65.16 573.982 64.53 572.884 64.53C571.822 64.53 571.03 65.196 570.886 66.294ZM587.96 69.858H588.23V72H586.988C585.782 72 585.332 71.442 585.314 70.65C584.648 71.586 583.676 72.108 582.362 72.108C580.418 72.108 578.978 71.136 578.978 69.372C578.978 67.41 580.436 66.312 583.172 66.312H584.918V65.862C584.918 65.034 584.36 64.494 583.298 64.494C582.38 64.494 581.732 64.944 581.642 65.628H579.176C579.356 63.864 580.94 62.64 583.406 62.64C585.962 62.64 587.438 63.792 587.438 66.006V69.282C587.438 69.732 587.564 69.858 587.96 69.858ZM584.918 68.256V68.004H583.136C582.11 68.004 581.534 68.436 581.534 69.21C581.534 69.858 582.038 70.272 582.848 70.272C584.108 70.272 584.918 69.462 584.918 68.256ZM592.55 72H590.012V59.4H592.55V66.672L596.168 62.748H599.03L595.682 66.402L599.174 72H596.222L593.9 68.256L592.55 69.732V72Z" fill="white"/>
<path d="M736.5 43L731.5 40.1132V45.8868L736.5 43ZM664.5 43.5L732 43.5V42.5L664.5 42.5V43.5Z" fill="#313131"/>
<path d="M888.558 43.752C878.31 43.752 871.982 36.472 871.982 27.176C871.982 17.88 878.31 10.656 888.558 10.656C898.694 10.656 905.022 17.88 905.022 27.176C905.022 36.528 898.694 43.752 888.558 43.752ZM888.558 40.896C896.846 40.896 901.998 35.296 901.998 27.176C901.998 19.056 896.846 13.456 888.558 13.456C880.214 13.456 875.006 19.112 875.006 27.176C875.006 35.24 880.214 40.896 888.558 40.896ZM888.39 35.912C884.358 35.912 881.894 33.952 881.838 30.256H884.694C884.694 32.048 886.038 33.392 888.39 33.392C890.63 33.392 891.918 32.272 891.918 30.592C891.918 29.024 890.518 28.184 888.278 28.184H887.214V25.776H888.222C890.238 25.776 891.582 24.936 891.582 23.368C891.582 22.024 890.406 21.016 888.446 21.016C886.262 21.016 885.142 22.192 885.142 23.872H882.286C882.342 20.512 884.862 18.496 888.502 18.496C892.086 18.496 894.494 20.456 894.494 23.144C894.494 24.992 893.094 26.392 891.694 26.784C893.71 27.176 894.942 28.856 894.942 30.76C894.942 33.84 892.31 35.912 888.39 35.912Z" fill="white"/>
<path d="M818.139 68.843C818.139 73.9003 814.271 78 809.499 78C804.728 78 800.859 73.9003 800.859 68.843C800.859 64.9411 806.003 57.6844 808.353 54.5725C808.929 53.8092 810.07 53.8092 810.646 54.5725C812.996 57.6844 818.139 64.9411 818.139 68.843Z" fill="url(#paint6_linear_3106_5105)"/>
<path d="M818.139 68.843C818.139 73.9003 814.271 78 809.499 78C804.728 78 800.859 73.9003 800.859 68.843C800.859 64.9411 806.003 57.6844 808.353 54.5725C808.929 53.8092 810.07 53.8092 810.646 54.5725C812.996 57.6844 818.139 64.9411 818.139 68.843Z" fill="url(#paint7_linear_3106_5105)"/>
<path d="M815.134 72.6135C815.134 75.5884 812.611 78 809.499 78C806.387 78 803.865 75.5884 803.865 72.6135C803.865 70.4798 806.763 66.6407 808.403 64.6402C808.971 63.9469 810.028 63.9469 810.596 64.6402C812.235 66.6407 815.134 70.4798 815.134 72.6135Z" fill="url(#paint8_linear_3106_5105)"/>
<path d="M835.771 72H826.753V70.002L831.397 66.042C832.459 65.124 833.089 64.368 833.089 63.36C833.089 62.118 832.315 61.47 831.253 61.47C830.119 61.47 829.327 62.298 829.327 63.666V63.864H826.717V63.504C826.717 61.128 828.463 59.292 831.253 59.292C834.133 59.292 835.699 60.894 835.699 63.252C835.699 65.07 834.763 66.204 833.215 67.518L830.533 69.822H835.771V72ZM842.148 59.292C845.118 59.292 846.918 61.632 846.918 65.412V65.988C846.918 69.876 845.118 72.108 842.148 72.108C839.178 72.108 837.378 69.876 837.378 65.988V65.412C837.378 61.632 839.178 59.292 842.148 59.292ZM839.916 65.502V65.898C839.916 66.258 839.934 66.618 839.952 66.924L843.894 62.514C843.516 61.722 842.94 61.326 842.148 61.326C840.654 61.326 839.916 62.748 839.916 65.502ZM844.38 65.898V65.502C844.38 65.142 844.362 64.8 844.344 64.476L840.42 68.904C840.798 69.66 841.374 70.056 842.148 70.056C843.642 70.056 844.38 68.652 844.38 65.898ZM855.337 67.914H849.037V65.844H855.337V67.914ZM860.97 72H858.54L856.578 62.748H858.99L860.124 69.102L861.528 63.954H863.184L864.57 69.102L865.704 62.748H868.044L866.064 72H863.652L862.32 67.302L860.97 72ZM873.944 72.108C870.92 72.108 869.102 70.254 869.102 67.392C869.102 64.512 870.956 62.64 873.782 62.64C876.5 62.64 878.354 64.368 878.372 67.086C878.372 67.32 878.354 67.662 878.3 67.968H871.748V68.076C871.802 69.39 872.63 70.182 873.854 70.182C874.844 70.182 875.528 69.732 875.744 68.868H878.246C877.976 70.668 876.392 72.108 873.944 72.108ZM871.802 66.294H875.834C875.654 65.16 874.898 64.53 873.8 64.53C872.738 64.53 871.946 65.196 871.802 66.294ZM884.772 72.108C881.748 72.108 879.93 70.254 879.93 67.392C879.93 64.512 881.784 62.64 884.61 62.64C887.328 62.64 889.182 64.368 889.2 67.086C889.2 67.32 889.182 67.662 889.128 67.968H882.576V68.076C882.63 69.39 883.458 70.182 884.682 70.182C885.672 70.182 886.356 69.732 886.572 68.868H889.074C888.804 70.668 887.22 72.108 884.772 72.108ZM882.63 66.294H886.662C886.482 65.16 885.726 64.53 884.628 64.53C883.566 64.53 882.774 65.196 882.63 66.294ZM893.8 72H891.262V59.4H893.8V66.672L897.418 62.748H900.28L896.932 66.402L900.424 72H897.472L895.15 68.256L893.8 69.732V72ZM905.185 72.108C902.647 72.108 900.937 70.902 900.847 68.922H903.259C903.331 69.732 903.997 70.29 905.203 70.29C906.211 70.29 906.823 69.948 906.823 69.3C906.823 68.544 906.193 68.472 904.789 68.292C902.665 68.04 901.027 67.554 901.027 65.646C901.027 63.81 902.593 62.622 904.933 62.622C907.363 62.622 909.037 63.72 909.145 65.61H906.733C906.643 64.872 905.995 64.422 905.005 64.422C904.069 64.422 903.457 64.782 903.457 65.376C903.457 66.078 904.231 66.168 905.509 66.312C907.525 66.528 909.289 67.014 909.289 69.102C909.289 70.938 907.615 72.108 905.185 72.108ZM920.917 72.108C918.379 72.108 916.669 70.902 916.579 68.922H918.991C919.063 69.732 919.729 70.29 920.935 70.29C921.943 70.29 922.555 69.948 922.555 69.3C922.555 68.544 921.925 68.472 920.521 68.292C918.397 68.04 916.759 67.554 916.759 65.646C916.759 63.81 918.325 62.622 920.665 62.622C923.095 62.622 924.769 63.72 924.877 65.61H922.465C922.375 64.872 921.727 64.422 920.737 64.422C919.801 64.422 919.189 64.782 919.189 65.376C919.189 66.078 919.963 66.168 921.241 66.312C923.257 66.528 925.021 67.014 925.021 69.102C925.021 70.938 923.347 72.108 920.917 72.108ZM933.965 72H931.013C929.249 72 928.367 71.118 928.367 69.354V64.89H926.189V62.748H928.367V60.156H930.905V62.748H933.929V64.89H930.905V68.94C930.905 69.588 931.157 69.858 931.823 69.858H933.965V72ZM943.595 65.052H942.083C940.499 65.052 939.887 66.078 939.887 67.464V69.858H942.425V72H935.477V69.858H937.349V64.89H935.477V62.748H939.707L939.779 64.35C940.283 63.432 941.057 62.748 942.533 62.748H943.595V65.052ZM949.618 72.108C946.594 72.108 944.776 70.254 944.776 67.392C944.776 64.512 946.63 62.64 949.456 62.64C952.174 62.64 954.028 64.368 954.046 67.086C954.046 67.32 954.028 67.662 953.974 67.968H947.422V68.076C947.476 69.39 948.304 70.182 949.528 70.182C950.518 70.182 951.202 69.732 951.418 68.868H953.92C953.65 70.668 952.066 72.108 949.618 72.108ZM947.476 66.294H951.508C951.328 65.16 950.572 64.53 949.474 64.53C948.412 64.53 947.62 65.196 947.476 66.294ZM964.55 69.858H964.82V72H963.578C962.372 72 961.922 71.442 961.904 70.65C961.238 71.586 960.266 72.108 958.952 72.108C957.008 72.108 955.568 71.136 955.568 69.372C955.568 67.41 957.026 66.312 959.762 66.312H961.508V65.862C961.508 65.034 960.95 64.494 959.888 64.494C958.97 64.494 958.322 64.944 958.232 65.628H955.766C955.946 63.864 957.53 62.64 959.996 62.64C962.552 62.64 964.028 63.792 964.028 66.006V69.282C964.028 69.732 964.154 69.858 964.55 69.858ZM961.508 68.256V68.004H959.726C958.7 68.004 958.124 68.436 958.124 69.21C958.124 69.858 958.628 70.272 959.438 70.272C960.698 70.272 961.508 69.462 961.508 68.256ZM969.14 72H966.602V59.4H969.14V66.672L972.758 62.748H975.62L972.272 66.402L975.764 72H972.812L970.49 68.256L969.14 69.732V72Z" fill="white"/>
<path d="M324.558 137.752C314.31 137.752 307.982 130.472 307.982 121.176C307.982 111.88 314.31 104.656 324.558 104.656C334.694 104.656 341.022 111.88 341.022 121.176C341.022 130.528 334.694 137.752 324.558 137.752ZM324.558 134.896C332.846 134.896 337.998 129.296 337.998 121.176C337.998 113.056 332.846 107.456 324.558 107.456C316.214 107.456 311.006 113.112 311.006 121.176C311.006 129.24 316.214 134.896 324.558 134.896ZM328.086 129.632H325.23V125.544H316.774V122.968L324.502 112.776H328.086V123.024H330.774V125.544H328.086V129.632ZM325.23 115.576L319.63 123.024H325.23V115.576Z" fill="white"/>
<path d="M252.068 162.843C252.068 167.9 248.296 172 243.643 172C238.99 172 235.219 167.9 235.219 162.843C235.219 158.941 240.234 151.684 242.525 148.572C243.087 147.809 244.199 147.809 244.761 148.572C247.053 151.684 252.068 158.941 252.068 162.843Z" fill="url(#paint9_linear_3106_5105)"/>
<path d="M252.068 162.843C252.068 167.9 248.296 172 243.643 172C238.99 172 235.219 167.9 235.219 162.843C235.219 158.941 240.234 151.684 242.525 148.572C243.087 147.809 244.199 147.809 244.761 148.572C247.053 151.684 252.068 158.941 252.068 162.843Z" fill="url(#paint10_linear_3106_5105)"/>
<path d="M249.137 166.614C249.137 169.588 246.678 172 243.643 172C240.609 172 238.149 169.588 238.149 166.614C238.149 164.48 240.976 160.641 242.574 158.64C243.128 157.947 244.159 157.947 244.712 158.64C246.311 160.641 249.137 164.48 249.137 166.614Z" fill="url(#paint11_linear_3106_5105)"/>
<path d="M266.847 157.176C269.313 157.176 270.969 158.922 270.969 161.496C270.969 164.394 268.863 165.87 266.325 165.87C263.481 165.87 261.735 164.016 261.627 161.712H264.201C264.327 162.846 265.065 163.746 266.343 163.746C267.369 163.746 268.359 162.99 268.359 161.496C268.359 160.164 267.567 159.228 266.325 159.228C265.677 159.228 264.741 159.498 264.309 160.542H261.807L262.167 153.162H270.231V155.34H264.525L264.381 158.094C264.975 157.5 265.785 157.176 266.847 157.176ZM279.202 161.676H272.902V159.606H279.202V161.676ZM291.037 156.384C292.963 156.384 294.115 157.644 294.115 159.822V165.762H291.685V160.164C291.685 159.246 291.307 158.58 290.443 158.58C289.579 158.58 289.111 159.264 289.111 160.182V165.762H286.663V160.164C286.663 159.318 286.393 158.58 285.403 158.58C284.539 158.58 284.089 159.246 284.089 160.164V165.762H281.659V156.51H283.711L283.837 157.41C284.377 156.744 285.169 156.384 286.087 156.384C287.131 156.384 288.013 156.87 288.463 157.716C289.057 156.87 289.921 156.384 291.037 156.384ZM300.778 165.87C297.934 165.87 296.026 163.98 296.026 161.136C296.026 158.292 297.934 156.402 300.778 156.402C303.64 156.402 305.548 158.292 305.548 161.136C305.548 163.98 303.64 165.87 300.778 165.87ZM300.778 163.8C302.11 163.8 302.956 162.702 302.956 161.136C302.956 159.57 302.11 158.472 300.778 158.472C299.464 158.472 298.618 159.588 298.618 161.136C298.618 162.684 299.464 163.8 300.778 163.8ZM312.752 156.402C314.696 156.402 316.352 157.446 316.352 160.56V165.762H313.814V160.848C313.814 159.39 313.292 158.58 312.05 158.58C310.826 158.58 310.142 159.408 310.142 160.992V165.762H307.604V156.51H309.818L310.052 157.644C310.61 156.924 311.402 156.402 312.752 156.402ZM325.539 165.762H322.587C320.823 165.762 319.941 164.88 319.941 163.116V158.652H317.763V156.51H319.941V153.918H322.479V156.51H325.503V158.652H322.479V162.702C322.479 163.35 322.731 163.62 323.397 163.62H325.539V165.762ZM332.757 156.402C334.827 156.402 336.411 157.572 336.411 160.56V165.762H333.873V160.794C333.873 159.48 333.369 158.58 332.091 158.58C330.849 158.58 330.111 159.462 330.111 160.938V165.762H327.573V153.162H330.111V157.572C330.723 156.852 331.551 156.402 332.757 156.402ZM342.62 165.87C340.082 165.87 338.372 164.664 338.282 162.684H340.694C340.766 163.494 341.432 164.052 342.638 164.052C343.646 164.052 344.258 163.71 344.258 163.062C344.258 162.306 343.628 162.234 342.224 162.054C340.1 161.802 338.462 161.316 338.462 159.408C338.462 157.572 340.028 156.384 342.368 156.384C344.798 156.384 346.472 157.482 346.58 159.372H344.168C344.078 158.634 343.43 158.184 342.44 158.184C341.504 158.184 340.892 158.544 340.892 159.138C340.892 159.84 341.666 159.93 342.944 160.074C344.96 160.29 346.724 160.776 346.724 162.864C346.724 164.7 345.05 165.87 342.62 165.87ZM358.353 165.87C355.815 165.87 354.105 164.664 354.015 162.684H356.427C356.499 163.494 357.165 164.052 358.371 164.052C359.379 164.052 359.991 163.71 359.991 163.062C359.991 162.306 359.361 162.234 357.957 162.054C355.833 161.802 354.195 161.316 354.195 159.408C354.195 157.572 355.761 156.384 358.101 156.384C360.531 156.384 362.205 157.482 362.312 159.372H359.901C359.811 158.634 359.163 158.184 358.173 158.184C357.237 158.184 356.625 158.544 356.625 159.138C356.625 159.84 357.399 159.93 358.677 160.074C360.693 160.29 362.457 160.776 362.457 162.864C362.457 164.7 360.783 165.87 358.353 165.87ZM371.4 165.762H368.448C366.684 165.762 365.802 164.88 365.802 163.116V158.652H363.624V156.51H365.802V153.918H368.34V156.51H371.364V158.652H368.34V162.702C368.34 163.35 368.592 163.62 369.258 163.62H371.4V165.762ZM381.03 158.814H379.518C377.934 158.814 377.322 159.84 377.322 161.226V163.62H379.86V165.762H372.912V163.62H374.784V158.652H372.912V156.51H377.142L377.214 158.112C377.718 157.194 378.492 156.51 379.968 156.51H381.03V158.814ZM387.054 165.87C384.03 165.87 382.212 164.016 382.212 161.154C382.212 158.274 384.066 156.402 386.892 156.402C389.61 156.402 391.464 158.13 391.482 160.848C391.482 161.082 391.464 161.424 391.41 161.73H384.858V161.838C384.912 163.152 385.74 163.944 386.964 163.944C387.954 163.944 388.638 163.494 388.854 162.63H391.355C391.086 164.43 389.502 165.87 387.054 165.87ZM384.912 160.056H388.944C388.764 158.922 388.008 158.292 386.91 158.292C385.848 158.292 385.056 158.958 384.912 160.056ZM401.986 163.62H402.256V165.762H401.014C399.808 165.762 399.358 165.204 399.34 164.412C398.674 165.348 397.702 165.87 396.388 165.87C394.444 165.87 393.004 164.898 393.004 163.134C393.004 161.172 394.462 160.074 397.198 160.074H398.944V159.624C398.944 158.796 398.386 158.256 397.324 158.256C396.406 158.256 395.758 158.706 395.668 159.39H393.202C393.382 157.626 394.966 156.402 397.432 156.402C399.988 156.402 401.464 157.554 401.464 159.768V163.044C401.464 163.494 401.59 163.62 401.986 163.62ZM398.944 162.018V161.766H397.162C396.136 161.766 395.56 162.198 395.56 162.972C395.56 163.62 396.064 164.034 396.874 164.034C398.134 164.034 398.944 163.224 398.944 162.018ZM406.576 165.762H404.038V153.162H406.576V160.434L410.194 156.51H413.056L409.708 160.164L413.2 165.762H410.248L407.926 162.018L406.576 163.494V165.762Z" fill="white"/>
<path d="M548.854 137.354C549.049 137.158 549.049 136.842 548.854 136.646L545.672 133.464C545.476 133.269 545.16 133.269 544.964 133.464C544.769 133.66 544.769 133.976 544.964 134.172L547.793 137L544.964 139.828C544.769 140.024 544.769 140.34 544.964 140.536C545.16 140.731 545.476 140.731 545.672 140.536L548.854 137.354ZM476.5 137.5H548.5V136.5H476.5V137.5Z" fill="#313131"/>
<path d="M700.558 137.752C690.31 137.752 683.982 130.472 683.982 121.176C683.982 111.88 690.31 104.656 700.558 104.656C710.694 104.656 717.022 111.88 717.022 121.176C717.022 130.528 710.694 137.752 700.558 137.752ZM700.558 134.896C708.846 134.896 713.998 129.296 713.998 121.176C713.998 113.056 708.846 107.456 700.558 107.456C692.214 107.456 687.006 113.112 687.006 121.176C687.006 129.24 692.214 134.896 700.558 134.896ZM700.614 129.912C697.478 129.912 694.846 128.008 694.51 124.872H697.31C697.59 126.272 699.046 127.28 700.67 127.28C702.462 127.28 703.918 125.88 703.918 124.032C703.918 122.184 702.518 120.784 700.67 120.784C699.494 120.784 698.094 121.4 697.422 122.576H694.79L695.238 112.776H705.878V115.296H697.478L697.198 120.112C698.094 119.048 699.494 118.376 701.23 118.376C704.534 118.376 706.83 120.728 706.83 124.032C706.83 127.504 704.142 129.912 700.614 129.912Z" fill="white"/>
<path d="M623.068 162.843C623.068 167.9 619.296 172 614.643 172C609.99 172 606.219 167.9 606.219 162.843C606.219 158.941 611.234 151.684 613.525 148.572C614.087 147.809 615.199 147.809 615.761 148.572C618.053 151.684 623.068 158.941 623.068 162.843Z" fill="url(#paint12_linear_3106_5105)"/>
<path d="M623.068 162.843C623.068 167.9 619.296 172 614.643 172C609.99 172 606.219 167.9 606.219 162.843C606.219 158.941 611.234 151.684 613.525 148.572C614.087 147.809 615.199 147.809 615.761 148.572C618.053 151.684 623.068 158.941 623.068 162.843Z" fill="url(#paint13_linear_3106_5105)"/>
<path d="M620.137 166.614C620.137 169.588 617.678 172 614.643 172C611.609 172 609.149 169.588 609.149 166.614C609.149 164.48 611.976 160.641 613.574 158.64C614.128 157.947 615.159 157.947 615.712 158.64C617.311 160.641 620.137 164.48 620.137 166.614Z" fill="url(#paint14_linear_3106_5105)"/>
<path d="M638.153 153.162V163.566H640.943V165.762H632.591V163.566H635.579V157.734C635.399 157.788 635.183 157.806 634.967 157.806H632.645V155.664H634.679C635.309 155.664 635.615 155.07 635.615 154.386V153.162H638.153ZM646.699 153.054C649.669 153.054 651.469 155.394 651.469 159.174V159.75C651.469 163.638 649.669 165.87 646.699 165.87C643.729 165.87 641.929 163.638 641.929 159.75V159.174C641.929 155.394 643.729 153.054 646.699 153.054ZM644.467 159.264V159.66C644.467 160.02 644.485 160.38 644.503 160.686L648.445 156.276C648.067 155.484 647.491 155.088 646.699 155.088C645.205 155.088 644.467 156.51 644.467 159.264ZM648.931 159.66V159.264C648.931 158.904 648.913 158.562 648.895 158.238L644.971 162.666C645.349 163.422 645.925 163.818 646.699 163.818C648.193 163.818 648.931 162.414 648.931 159.66ZM659.888 161.676H653.588V159.606H659.888V161.676ZM671.722 156.384C673.648 156.384 674.8 157.644 674.8 159.822V165.762H672.37V160.164C672.37 159.246 671.992 158.58 671.128 158.58C670.264 158.58 669.796 159.264 669.796 160.182V165.762H667.348V160.164C667.348 159.318 667.078 158.58 666.088 158.58C665.224 158.58 664.774 159.246 664.774 160.164V165.762H662.344V156.51H664.396L664.522 157.41C665.062 156.744 665.854 156.384 666.772 156.384C667.816 156.384 668.698 156.87 669.148 157.716C669.742 156.87 670.606 156.384 671.722 156.384ZM681.464 165.87C678.62 165.87 676.712 163.98 676.712 161.136C676.712 158.292 678.62 156.402 681.464 156.402C684.326 156.402 686.234 158.292 686.234 161.136C686.234 163.98 684.326 165.87 681.464 165.87ZM681.464 163.8C682.796 163.8 683.642 162.702 683.642 161.136C683.642 159.57 682.796 158.472 681.464 158.472C680.15 158.472 679.304 159.588 679.304 161.136C679.304 162.684 680.15 163.8 681.464 163.8ZM693.438 156.402C695.382 156.402 697.038 157.446 697.038 160.56V165.762H694.5V160.848C694.5 159.39 693.978 158.58 692.736 158.58C691.512 158.58 690.828 159.408 690.828 160.992V165.762H688.29V156.51H690.504L690.738 157.644C691.296 156.924 692.088 156.402 693.438 156.402ZM706.224 165.762H703.272C701.508 165.762 700.626 164.88 700.626 163.116V158.652H698.448V156.51H700.626V153.918H703.164V156.51H706.188V158.652H703.164V162.702C703.164 163.35 703.416 163.62 704.082 163.62H706.224V165.762ZM713.442 156.402C715.512 156.402 717.096 157.572 717.096 160.56V165.762H714.558V160.794C714.558 159.48 714.054 158.58 712.776 158.58C711.534 158.58 710.796 159.462 710.796 160.938V165.762H708.258V153.162H710.796V157.572C711.408 156.852 712.236 156.402 713.442 156.402ZM723.306 165.87C720.768 165.87 719.058 164.664 718.968 162.684H721.38C721.452 163.494 722.118 164.052 723.324 164.052C724.332 164.052 724.944 163.71 724.944 163.062C724.944 162.306 724.314 162.234 722.91 162.054C720.786 161.802 719.148 161.316 719.148 159.408C719.148 157.572 720.714 156.384 723.054 156.384C725.484 156.384 727.158 157.482 727.266 159.372H724.854C724.764 158.634 724.116 158.184 723.126 158.184C722.19 158.184 721.578 158.544 721.578 159.138C721.578 159.84 722.352 159.93 723.63 160.074C725.646 160.29 727.41 160.776 727.41 162.864C727.41 164.7 725.736 165.87 723.306 165.87ZM739.038 165.87C736.5 165.87 734.79 164.664 734.7 162.684H737.112C737.184 163.494 737.85 164.052 739.056 164.052C740.064 164.052 740.676 163.71 740.676 163.062C740.676 162.306 740.046 162.234 738.642 162.054C736.518 161.802 734.88 161.316 734.88 159.408C734.88 157.572 736.446 156.384 738.786 156.384C741.216 156.384 742.89 157.482 742.998 159.372H740.586C740.496 158.634 739.848 158.184 738.858 158.184C737.922 158.184 737.31 158.544 737.31 159.138C737.31 159.84 738.084 159.93 739.362 160.074C741.378 160.29 743.142 160.776 743.142 162.864C743.142 164.7 741.468 165.87 739.038 165.87ZM752.086 165.762H749.134C747.37 165.762 746.488 164.88 746.488 163.116V158.652H744.31V156.51H746.488V153.918H749.026V156.51H752.05V158.652H749.026V162.702C749.026 163.35 749.278 163.62 749.944 163.62H752.086V165.762ZM761.716 158.814H760.204C758.62 158.814 758.008 159.84 758.008 161.226V163.62H760.546V165.762H753.598V163.62H755.47V158.652H753.598V156.51H757.828L757.9 158.112C758.404 157.194 759.178 156.51 760.654 156.51H761.716V158.814ZM767.739 165.87C764.715 165.87 762.897 164.016 762.897 161.154C762.897 158.274 764.751 156.402 767.577 156.402C770.295 156.402 772.149 158.13 772.167 160.848C772.167 161.082 772.149 161.424 772.095 161.73H765.543V161.838C765.597 163.152 766.425 163.944 767.649 163.944C768.639 163.944 769.323 163.494 769.539 162.63H772.041C771.771 164.43 770.187 165.87 767.739 165.87ZM765.597 160.056H769.629C769.449 158.922 768.693 158.292 767.595 158.292C766.533 158.292 765.741 158.958 765.597 160.056ZM782.671 163.62H782.941V165.762H781.699C780.493 165.762 780.043 165.204 780.025 164.412C779.359 165.348 778.387 165.87 777.073 165.87C775.129 165.87 773.689 164.898 773.689 163.134C773.689 161.172 775.147 160.074 777.883 160.074H779.629V159.624C779.629 158.796 779.071 158.256 778.009 158.256C777.091 158.256 776.443 158.706 776.353 159.39H773.887C774.067 157.626 775.651 156.402 778.117 156.402C780.673 156.402 782.149 157.554 782.149 159.768V163.044C782.149 163.494 782.275 163.62 782.671 163.62ZM779.629 162.018V161.766H777.847C776.821 161.766 776.245 162.198 776.245 162.972C776.245 163.62 776.749 164.034 777.559 164.034C778.819 164.034 779.629 163.224 779.629 162.018ZM787.261 165.762H784.723V153.162H787.261V160.434L790.879 156.51H793.741L790.393 160.164L793.885 165.762H790.933L788.611 162.018L787.261 163.494V165.762Z" fill="white"/>
<defs>
<linearGradient id="paint0_linear_3106_5105" x1="62.4994" y1="54" x2="62.4994" y2="78" gradientUnits="userSpaceOnUse">
<stop stop-color="#FF6C59"/>
<stop offset="1" stop-color="#E11E0F"/>
</linearGradient>
<linearGradient id="paint1_linear_3106_5105" x1="62.4994" y1="54" x2="62.4994" y2="78" gradientUnits="userSpaceOnUse">
<stop stop-color="#FF6C59"/>
<stop offset="1" stop-color="#E11E0F"/>
</linearGradient>
<linearGradient id="paint2_linear_3106_5105" x1="62.4994" y1="63.3487" x2="62.4994" y2="77.9998" gradientUnits="userSpaceOnUse">
<stop stop-color="#FFE12E"/>
<stop offset="1" stop-color="#F36A07"/>
</linearGradient>
<linearGradient id="paint3_linear_3106_5105" x1="433.999" y1="54" x2="433.999" y2="78" gradientUnits="userSpaceOnUse">
<stop stop-color="#FF6C59"/>
<stop offset="1" stop-color="#E11E0F"/>
</linearGradient>
<linearGradient id="paint4_linear_3106_5105" x1="433.999" y1="54" x2="433.999" y2="78" gradientUnits="userSpaceOnUse">
<stop stop-color="#FF6C59"/>
<stop offset="1" stop-color="#E11E0F"/>
</linearGradient>
<linearGradient id="paint5_linear_3106_5105" x1="433.999" y1="63.3487" x2="433.999" y2="77.9998" gradientUnits="userSpaceOnUse">
<stop stop-color="#FFE12E"/>
<stop offset="1" stop-color="#F36A07"/>
</linearGradient>
<linearGradient id="paint6_linear_3106_5105" x1="809.499" y1="54" x2="809.499" y2="78" gradientUnits="userSpaceOnUse">
<stop stop-color="#FF6C59"/>
<stop offset="1" stop-color="#E11E0F"/>
</linearGradient>
<linearGradient id="paint7_linear_3106_5105" x1="809.499" y1="54" x2="809.499" y2="78" gradientUnits="userSpaceOnUse">
<stop stop-color="#FF6C59"/>
<stop offset="1" stop-color="#E11E0F"/>
</linearGradient>
<linearGradient id="paint8_linear_3106_5105" x1="809.499" y1="63.3487" x2="809.499" y2="77.9998" gradientUnits="userSpaceOnUse">
<stop stop-color="#FFE12E"/>
<stop offset="1" stop-color="#F36A07"/>
</linearGradient>
<linearGradient id="paint9_linear_3106_5105" x1="243.643" y1="148" x2="243.643" y2="172" gradientUnits="userSpaceOnUse">
<stop stop-color="#2943EE"/>
<stop offset="1" stop-color="#182686"/>
</linearGradient>
<linearGradient id="paint10_linear_3106_5105" x1="243.643" y1="148" x2="243.643" y2="172" gradientUnits="userSpaceOnUse">
<stop stop-color="#2943EE"/>
<stop offset="1" stop-color="#182686"/>
</linearGradient>
<linearGradient id="paint11_linear_3106_5105" x1="243.643" y1="157.349" x2="243.643" y2="172" gradientUnits="userSpaceOnUse">
<stop stop-color="#4F83F2"/>
<stop offset="1" stop-color="#113E9E"/>
</linearGradient>
<linearGradient id="paint12_linear_3106_5105" x1="614.643" y1="148" x2="614.643" y2="172" gradientUnits="userSpaceOnUse">
<stop stop-color="#2943EE"/>
<stop offset="1" stop-color="#182686"/>
</linearGradient>
<linearGradient id="paint13_linear_3106_5105" x1="614.643" y1="148" x2="614.643" y2="172" gradientUnits="userSpaceOnUse">
<stop stop-color="#2943EE"/>
<stop offset="1" stop-color="#182686"/>
</linearGradient>
<linearGradient id="paint14_linear_3106_5105" x1="614.643" y1="157.349" x2="614.643" y2="172" gradientUnits="userSpaceOnUse">
<stop stop-color="#4F83F2"/>
<stop offset="1" stop-color="#113E9E"/>
</linearGradient>
</defs>
</svg>
