<svg width="82" height="106" viewBox="0 0 82 106" fill="none" xmlns="http://www.w3.org/2000/svg">
<g clip-path="url(#clip0_2007_474)">
<path d="M16.6317 15.8789H15.5743L13.2156 32.0992H10.3688L15.0456 0.469482H18.5838C23.1793 0.469482 23.9927 4.24072 23.1793 9.02574C22.6506 12.1887 21.4305 14.419 19.3971 15.3922L19.6818 32.0992H16.9164L16.6317 15.8789ZM16.7537 13.4458C18.5024 13.4458 19.6411 12.6348 20.2512 8.98519C21.0645 4.15962 20.6172 2.90254 17.6484 2.90254H17.4857L15.9403 13.4458H16.7537Z" fill="#FFF9EF"/>
<path d="M27.7342 0.469482H31.6791L29.3203 32.0992H26.5142L27.2869 24.5162H24.8061L23.2201 32.0992H20.4139L27.7342 0.469482ZM27.4902 22.1643L29.361 3.63246H29.117L25.2941 22.1643H27.4902Z" fill="#FFF9EF"/>
<path d="M31.191 27.8008L34.6071 4.68678C34.9731 2.33482 36.0305 0.0639648 39.4466 0.0639648C42.2527 0.0639648 43.7981 1.80766 43.3508 4.76788L42.0494 13.608H39.3246L40.626 4.48402C40.8293 3.06474 40.138 2.41592 39.2433 2.41592C38.3486 2.41592 37.6979 2.94308 37.4539 4.48402L33.9971 28.0847C33.7937 29.504 34.4851 30.1528 35.3798 30.1528C36.2745 30.1528 36.9252 29.6256 37.1692 28.0847L38.3893 19.9339H41.114L39.9346 27.9225C39.6093 30.2339 38.5113 32.5047 35.1765 32.5047C32.3297 32.5047 30.7436 30.7611 31.191 27.8008Z" fill="#FFF9EF"/>
<path d="M48.2716 2.90254L46.8482 12.6753H51.2811L50.9151 15.1084H46.4822L44.3268 29.6662H49.2883L48.9223 32.0992H41.114L45.7909 0.469482H53.3958L53.0705 2.90254H48.2716Z" fill="#FFF9EF"/>
<path d="M5.89532 63.6209L9.31146 40.5068C9.67748 38.1549 10.7348 35.884 14.3137 35.884C17.3638 35.884 18.9092 37.6277 18.4618 40.5879L15.0457 63.7426C14.7203 66.054 13.6223 68.3248 10.0435 68.3248C7.03404 68.3248 5.44797 66.5811 5.89532 63.6209ZM10.2468 65.9729C11.3042 65.9729 11.9956 65.2429 12.1989 63.9048L15.6557 40.3041C15.8591 39.047 15.1677 38.236 14.1103 38.236C13.0529 38.236 12.3616 38.9659 12.1582 40.3041L8.70144 63.9048C8.4981 65.1618 9.18946 65.9729 10.2468 65.9729Z" fill="#FFF9EF"/>
<path d="M23.3827 38.7225L21.878 48.9008H26.3108L25.9448 51.3338H21.512L19.0719 67.9192H16.2251L20.902 36.2894H28.5069L28.1816 38.7225H23.3827Z" fill="#FFF9EF"/>
<path d="M0.5 100.968C0.5 100.684 0.540668 100.36 0.581337 100.036L1.76072 92.2497H4.40416L3.30611 99.9544C3.22478 100.522 3.22478 100.765 3.22478 100.928C3.22478 102.023 3.87547 102.469 4.68883 102.469C5.58354 102.469 6.19356 101.982 6.3969 100.806C6.51891 100.076 6.51891 99.7111 6.51891 99.2245C6.51891 97.9674 6.31557 96.5076 6.03089 94.5206L4.11948 81.2199C3.9568 80.0439 3.8348 78.8679 3.8348 77.4892C3.8348 75.0156 5.09552 72.3798 8.79633 72.3798C11.1958 72.3798 12.7005 73.7585 12.7005 76.0699C12.7005 76.4349 12.6598 76.7593 12.6192 77.0837L11.3178 85.9238H8.63366L9.93504 77.0837C9.97571 76.7187 10.0164 76.516 10.0164 76.1916C10.0164 75.34 9.44702 74.7317 8.51165 74.7317C6.88492 74.7317 6.51891 76.0293 6.51891 77.6108C6.51891 78.6246 6.72225 80.125 6.88492 81.2199L8.51165 92.7363C8.75566 94.3178 9.28435 98.008 9.28435 99.2245C9.28435 101.941 8.18631 104.821 4.56683 104.821C1.84205 104.821 0.5 103.32 0.5 100.968Z" fill="#FFF9EF"/>
<path d="M14.9779 72.7854H17.784L13.5138 101.982H17.6213L17.2553 104.415H10.301L14.9779 72.7854Z" fill="#FFF9EF"/>
<path d="M55.0768 75.2185H52.23L52.5961 72.7854H61.1364L60.7704 75.2185H57.8829L53.5721 104.415H50.766L55.0768 75.2185Z" fill="#FFF9EF"/>
<path d="M62.3972 72.7854H65.244L63.2512 86.3294H66.8707L68.8635 72.7854H71.7102L67.074 104.415H64.2273L66.5047 88.7625H62.8852L60.5671 104.415H57.7203L62.3972 72.7854Z" fill="#FFF9EF"/>
<path d="M69.3108 100.968C69.3108 100.684 69.3515 100.36 69.3921 100.036L70.5715 92.2497H73.2149L72.1169 99.9544C72.0356 100.522 72.0356 100.765 72.0356 100.928C72.0356 102.023 72.6863 102.469 73.4996 102.469C74.3943 102.469 75.0044 101.982 75.2077 100.806C75.3297 100.076 75.3297 99.7111 75.3297 99.2245C75.3297 97.9674 75.1264 96.5076 74.8417 94.5206L72.9303 81.2199C72.7676 80.0439 72.6456 78.8679 72.6456 77.4892C72.6456 75.0156 73.9063 72.3798 77.6071 72.3798C80.0066 72.3798 81.5113 73.7585 81.5113 76.0699C81.5113 76.4349 81.4706 76.7593 81.4299 77.0837L80.1286 85.9238H77.4444L78.7458 77.0837C78.7865 76.7187 78.8272 76.516 78.8272 76.1916C78.8272 75.34 78.2578 74.7317 77.3224 74.7317C75.6957 74.7317 75.3297 76.0293 75.3297 77.6108C75.3297 78.6246 75.533 80.125 75.6957 81.2199L77.3224 92.7363C77.5665 94.3178 78.0951 98.008 78.0951 99.2245C78.0951 101.941 76.9971 104.821 73.3776 104.821C70.6528 104.821 69.3108 103.32 69.3108 100.968Z" fill="#FFF9EF"/>
<path d="M35.1088 72.1365C24.5757 72.1365 17.7028 80.0034 17.7028 89.5328C17.7028 92.1281 18.2653 94.5612 19.3159 96.7036C26.6159 82.9771 36.3898 74.3938 37.2235 74.7385C38.0911 75.0967 29.1238 85.5318 21.9187 100.421C22.2305 100.745 22.5626 101.056 22.9083 101.347C30.2896 85.9103 41.4124 76.0564 42.3071 76.4281C43.2018 76.7998 33.6312 87.8905 26.3312 103.523C26.6633 103.678 27.009 103.814 27.3547 103.949C34.7292 88.9584 45.4995 79.4424 46.3739 79.8074C47.2279 80.1656 38.4978 90.3303 31.347 104.915C32.1264 105.01 32.933 105.064 33.7735 105.064C44.2253 105.064 51.0982 97.197 51.0982 87.6675C51.0982 79.0301 44.9573 72.1365 35.1156 72.1365H35.1088Z" fill="#FFF9EF"/>
</g>
<defs>
<clipPath id="clip0_2007_474">
<rect width="81.0112" height="105" fill="white" transform="translate(0.5 0.0639648)"/>
</clipPath>
</defs>
</svg>
