<svg width="154" height="32" viewBox="0 0 154 32" fill="none" xmlns="http://www.w3.org/2000/svg">
<g clip-path="url(#clip0_2007_31)">
<path d="M6.1349 15.8121H5.09915L2.78866 31.783H0.00012207L4.58128 0.639648H8.04703C12.5485 0.639648 13.3452 4.3529 12.5485 9.06433C12.0307 12.1787 10.8356 14.3747 8.84376 15.3329L9.12261 31.783H6.41375L6.1349 15.8121ZM6.2544 13.4164C7.96736 13.4164 9.08277 12.6179 9.68032 9.02441C10.477 4.27304 10.0388 3.03529 7.1308 3.03529H6.97146L5.45768 13.4164H6.2544Z" fill="#FFF9EF"/>
<path d="M17.01 0.639648H20.8741L18.5636 31.783H15.8149L16.5718 24.3166H14.1418L12.5882 31.783H9.83948L17.01 0.639648ZM16.771 22.0008L18.6034 3.75399H18.3644L14.6198 22.0008H16.771Z" fill="#FFF9EF"/>
<path d="M20.3965 27.5501L23.7427 4.79147C24.1012 2.47568 25.137 0.239746 28.4832 0.239746C31.2319 0.239746 32.7457 1.95662 32.3075 4.87132L31.0327 13.5755H28.3637L29.6385 4.59183C29.8376 3.19437 29.1604 2.55554 28.284 2.55554C27.4076 2.55554 26.7703 3.07459 26.5312 4.59183L23.1452 27.8296C22.946 29.227 23.6232 29.8659 24.4996 29.8659C25.376 29.8659 26.0134 29.3468 26.2524 27.8296L27.4475 19.8042H30.1165L28.9612 27.6699C28.6426 29.9457 27.567 32.1817 24.3004 32.1817C21.5119 32.1817 19.9583 30.4648 20.3965 27.5501Z" fill="#FFF9EF"/>
<path d="M37.1274 3.03529L35.7332 12.6578H40.0753L39.7168 15.0534H35.3746L33.2633 29.3874H38.1233L37.7648 31.783H30.1163L34.6974 0.639648H42.1468L41.8281 3.03529H37.1274Z" fill="#FFF9EF"/>
<path d="M47.405 27.5501L50.7513 4.79147C51.1098 2.47568 52.1455 0.239746 55.6511 0.239746C58.6388 0.239746 60.1526 1.95662 59.7144 4.87132L56.3682 27.6699C56.0495 29.9457 54.9739 32.1817 51.4683 32.1817C48.5204 32.1817 46.9668 30.4648 47.405 27.5501ZM51.6675 29.8659C52.7032 29.8659 53.3805 29.1472 53.5796 27.8296L56.9657 4.59183C57.1649 3.35408 56.4877 2.55554 55.4519 2.55554C54.4162 2.55554 53.739 3.27423 53.5398 4.59183L50.1537 27.8296C49.9545 29.0673 50.6318 29.8659 51.6675 29.8659Z" fill="#FFF9EF"/>
<path d="M64.5348 3.03529L63.0609 13.0571H67.4031L67.0445 15.4527H62.7024L60.3122 31.783H57.5237L62.1048 0.639648H69.5542L69.2355 3.03529H64.5348Z" fill="#FFF9EF"/>
<path d="M74.6534 28.3886C74.6534 28.1091 74.6933 27.7896 74.7331 27.4702L75.8884 19.8042H78.4777L77.4021 27.3904C77.3225 27.9494 77.3225 28.1889 77.3225 28.3486C77.3225 29.4267 77.9598 29.8659 78.7566 29.8659C79.633 29.8659 80.2305 29.3867 80.4297 28.2289C80.5492 27.5102 80.5492 27.1508 80.5492 26.6717C80.5492 25.4339 80.35 23.9965 80.0712 22.0401L78.1989 8.94392C78.0395 7.78602 77.92 6.62813 77.92 5.2706C77.92 2.83503 79.1549 0.239746 82.78 0.239746C85.1304 0.239746 86.6043 1.59728 86.6043 3.87314C86.6043 4.23249 86.5645 4.55191 86.5246 4.87132L85.2499 13.5755H82.6207L83.8954 4.87132C83.9353 4.51198 83.9751 4.31234 83.9751 3.99292C83.9751 3.15445 83.4174 2.55554 82.5012 2.55554C80.9077 2.55554 80.5492 3.83321 80.5492 5.39038C80.5492 6.38857 80.7484 7.86588 80.9077 8.94392L82.5012 20.2833C82.7402 21.8405 83.2581 25.4739 83.2581 26.6717C83.2581 29.3468 82.1825 32.1817 78.6371 32.1817C75.968 32.1817 74.6534 30.7044 74.6534 28.3886Z" fill="#FFF9EF"/>
<path d="M88.8351 0.639648H91.5838L87.401 29.3874H91.4244L91.0659 31.783H84.2539L88.8351 0.639648Z" fill="#FFF9EF"/>
<path d="M128.113 3.03529H125.325L125.683 0.639648H134.049L133.69 3.03529H130.862L126.639 31.783H123.891L128.113 3.03529Z" fill="#FFF9EF"/>
<path d="M135.284 0.639648H138.072L136.12 13.9754H139.666L141.618 0.639648H144.406L139.865 31.783H137.077L139.307 16.371H135.762L133.491 31.783H130.703L135.284 0.639648Z" fill="#FFF9EF"/>
<path d="M142.056 28.3886C142.056 28.1091 142.096 27.7896 142.136 27.4702L143.291 19.8042H145.88L144.805 27.3904C144.725 27.9494 144.725 28.1889 144.725 28.3486C144.725 29.4267 145.363 29.8659 146.159 29.8659C147.036 29.8659 147.633 29.3867 147.832 28.2289C147.952 27.5102 147.952 27.1508 147.952 26.6717C147.952 25.4339 147.753 23.9965 147.474 22.0401L145.602 8.94392C145.442 7.78602 145.323 6.62813 145.323 5.2706C145.323 2.83503 146.558 0.239746 150.183 0.239746C152.533 0.239746 154.007 1.59728 154.007 3.87314C154.007 4.23249 153.967 4.55191 153.927 4.87132L152.653 13.5755H150.023L151.298 4.87132C151.338 4.51198 151.378 4.31234 151.378 3.99292C151.378 3.15445 150.82 2.55554 149.904 2.55554C148.31 2.55554 147.952 3.83321 147.952 5.39038C147.952 6.38857 148.151 7.86588 148.31 8.94392L149.904 20.2833C150.143 21.8405 150.661 25.4739 150.661 26.6717C150.661 29.3468 149.585 32.1817 146.04 32.1817C143.371 32.1817 142.056 30.7044 142.056 28.3886Z" fill="#FFF9EF"/>
<path d="M108.554 0.000488281C98.2362 0.000488281 91.5038 7.7464 91.5038 17.1293C91.5038 19.6847 92.0549 22.0803 93.084 24.1898C100.235 10.6744 109.809 2.22311 110.625 2.5625C111.475 2.91519 102.691 13.1898 95.6335 27.8499C95.9389 28.1693 96.2643 28.4754 96.6029 28.7615C103.833 13.5625 114.728 3.86014 115.605 4.22614C116.481 4.59214 107.106 15.5123 99.9558 30.9043C100.281 31.0574 100.62 31.1904 100.958 31.3235C108.182 16.5637 118.732 7.19408 119.588 7.55342C120.425 7.90611 111.873 17.9146 104.869 32.2751C105.632 32.3683 106.422 32.4215 107.246 32.4215C117.484 32.4215 124.216 24.6756 124.216 15.2927C124.216 6.78815 118.201 0.000488281 108.56 0.000488281H108.554Z" fill="#FFF9EF"/>
</g>
<defs>
<clipPath id="clip0_2007_31">
<rect width="154" height="32" fill="white"/>
</clipPath>
</defs>
</svg>
