<svg width="82" height="105" viewBox="0 0 82 105" fill="none" xmlns="http://www.w3.org/2000/svg">
<g clip-path="url(#clip0_189_1908)">
<path d="M16.1317 15.8151H15.0743L12.7156 32.0355H9.86877L14.5456 0.405762H18.0838C22.6793 0.405762 23.4927 4.177 22.6793 8.96202C22.1506 12.125 20.9305 14.3553 18.8971 15.3285L19.1818 32.0355H16.4164L16.1317 15.8151ZM16.2537 13.3821C18.0024 13.3821 19.1411 12.5711 19.7512 8.92147C20.5645 4.0959 20.1172 2.83882 17.1484 2.83882H16.9857L15.4403 13.3821H16.2537Z" fill="white"/>
<path d="M27.2342 0.405762H31.1791L28.8203 32.0355H26.0142L26.7869 24.4525H24.3061L22.7201 32.0355H19.9139L27.2342 0.405762ZM26.9902 22.1005L28.861 3.56874H28.617L24.7941 22.1005H26.9902Z" fill="white"/>
<path d="M30.691 27.7369L34.1071 4.62281C34.4731 2.27085 35.5305 0 38.9466 0C41.7527 0 43.2981 1.74369 42.8508 4.70391L41.5494 13.544H38.8246L40.126 4.42006C40.3293 3.00077 39.638 2.35196 38.7433 2.35196C37.8486 2.35196 37.1979 2.87912 36.9539 4.42006L33.4971 28.0207C33.2937 29.44 33.9851 30.0888 34.8798 30.0888C35.7745 30.0888 36.4252 29.5617 36.6692 28.0207L37.8893 19.87H40.614L39.4346 27.8585C39.1093 30.1699 38.0113 32.4408 34.6765 32.4408C31.8297 32.4408 30.2436 30.6971 30.691 27.7369Z" fill="white"/>
<path d="M47.7716 2.83882L46.3482 12.6116H50.7811L50.4151 15.0447H45.9822L43.8268 29.6025H48.7883L48.4223 32.0355H40.614L45.2909 0.405762H52.8958L52.5705 2.83882H47.7716Z" fill="white"/>
<path d="M5.39532 63.5572L8.81146 40.4431C9.17748 38.0912 10.2348 35.8203 13.8137 35.8203C16.8638 35.8203 18.4092 37.564 17.9618 40.5242L14.5457 63.6788C14.2203 65.9902 13.1223 68.2611 9.54349 68.2611C6.53404 68.2611 4.94797 66.5174 5.39532 63.5572ZM9.74683 65.9091C10.8042 65.9091 11.4956 65.1792 11.6989 63.841L15.1557 40.2404C15.3591 38.9833 14.6677 38.1723 13.6103 38.1723C12.5529 38.1723 11.8616 38.9022 11.6582 40.2404L8.20144 63.841C7.9981 65.0981 8.68946 65.9091 9.74683 65.9091Z" fill="white"/>
<path d="M22.8827 38.6586L21.378 48.8369H25.8108L25.4448 51.27H21.012L18.5719 67.8554H15.7251L20.402 36.2256H28.0069L27.6816 38.6586H22.8827Z" fill="white"/>
<path d="M0 100.904C0 100.621 0.0406683 100.296 0.0813366 99.9717L1.26072 92.1859H3.90416L2.80611 99.8906C2.72478 100.458 2.72478 100.702 2.72478 100.864C2.72478 101.959 3.37547 102.405 4.18883 102.405C5.08354 102.405 5.69356 101.918 5.8969 100.742C6.01891 100.012 6.01891 99.6473 6.01891 99.1607C6.01891 97.9036 5.81557 96.4437 5.53089 94.4567L3.61948 81.156C3.4568 79.9801 3.3348 78.8041 3.3348 77.4253C3.3348 74.9517 4.59552 72.3159 8.29633 72.3159C10.6958 72.3159 12.2005 73.6947 12.2005 76.0061C12.2005 76.371 12.1598 76.6954 12.1192 77.0198L10.8178 85.8599H8.13366L9.43504 77.0198C9.47571 76.6549 9.51638 76.4521 9.51638 76.1277C9.51638 75.2761 8.94702 74.6679 8.01165 74.6679C6.38492 74.6679 6.01891 75.9655 6.01891 77.547C6.01891 78.5608 6.22225 80.0612 6.38492 81.156L8.01165 92.6725C8.25566 94.254 8.78435 97.9441 8.78435 99.1607C8.78435 101.878 7.68631 104.757 4.06683 104.757C1.34205 104.757 0 103.256 0 100.904Z" fill="white"/>
<path d="M14.4779 72.7217H17.284L13.0138 101.918H17.1213L16.7553 104.351H9.80103L14.4779 72.7217Z" fill="white"/>
<path d="M54.5768 75.1547H51.73L52.0961 72.7217H60.6364L60.2704 75.1547H57.3829L53.0721 104.351H50.266L54.5768 75.1547Z" fill="white"/>
<path d="M61.8972 72.7217H64.744L62.7512 86.2657H66.3707L68.3635 72.7217H71.2102L66.574 104.351H63.7273L66.0047 88.6988H62.3852L60.0671 104.351H57.2203L61.8972 72.7217Z" fill="white"/>
<path d="M68.8108 100.904C68.8108 100.621 68.8515 100.296 68.8921 99.9717L70.0715 92.1859H72.7149L71.6169 99.8906C71.5356 100.458 71.5356 100.702 71.5356 100.864C71.5356 101.959 72.1863 102.405 72.9996 102.405C73.8943 102.405 74.5044 101.918 74.7077 100.742C74.8297 100.012 74.8297 99.6473 74.8297 99.1607C74.8297 97.9036 74.6264 96.4437 74.3417 94.4567L72.4303 81.156C72.2676 79.9801 72.1456 78.8041 72.1456 77.4253C72.1456 74.9517 73.4063 72.3159 77.1071 72.3159C79.5066 72.3159 81.0113 73.6947 81.0113 76.0061C81.0113 76.371 80.9706 76.6954 80.9299 77.0198L79.6286 85.8599H76.9444L78.2458 77.0198C78.2865 76.6549 78.3272 76.4521 78.3272 76.1277C78.3272 75.2761 77.7578 74.6679 76.8224 74.6679C75.1957 74.6679 74.8297 75.9655 74.8297 77.547C74.8297 78.5608 75.033 80.0612 75.1957 81.156L76.8224 92.6725C77.0665 94.254 77.5951 97.9441 77.5951 99.1607C77.5951 101.878 76.4971 104.757 72.8776 104.757C70.1528 104.757 68.8108 103.256 68.8108 100.904Z" fill="white"/>
<path d="M34.6087 72.0728C24.0756 72.0728 17.2026 79.9396 17.2026 89.4691C17.2026 92.0644 17.7652 94.4974 18.8158 96.6399C26.1158 82.9134 35.8897 74.3301 36.7234 74.6748C37.591 75.033 28.6236 85.4681 21.4186 100.357C21.7304 100.681 22.0625 100.992 22.4082 101.283C29.7895 85.8466 40.9123 75.9927 41.807 76.3644C42.7017 76.7361 33.1311 87.8268 25.8311 103.459C26.1632 103.615 26.5089 103.75 26.8546 103.885C34.2291 88.8947 44.9994 79.3787 45.8738 79.7436C46.7278 80.1018 37.9977 90.2666 30.8468 104.851C31.6263 104.946 32.4329 105 33.2734 105C43.7251 105 50.5981 97.1333 50.5981 87.6038C50.5981 78.9664 44.4572 72.0728 34.6154 72.0728H34.6087Z" fill="white"/>
</g>
<defs>
<clipPath id="clip0_189_1908">
<rect width="81.0112" height="105" fill="white"/>
</clipPath>
</defs>
</svg>
