<svg width="154" height="32" viewBox="0 0 154 32" fill="none" xmlns="http://www.w3.org/2000/svg">
<g id="Layer 1">
<g id="Group">
<path id="Vector" d="M6.13477 15.8121H5.09903L2.78853 31.783H0L4.58116 0.639648H8.04691C12.5484 0.639648 13.3451 4.3529 12.5484 9.06433C12.0305 12.1787 10.8354 14.3747 8.84363 15.3329L9.12249 31.783H6.41363L6.13477 15.8121ZM6.25428 13.4164C7.96724 13.4164 9.08265 12.6179 9.68019 9.02441C10.4769 4.27304 10.0387 3.03529 7.13068 3.03529H6.97133L5.45756 13.4164H6.25428Z" fill="white"/>
<path id="Vector_2" d="M17.0099 0.639648H20.874L18.5635 31.783H15.8148L16.5717 24.3166H14.1417L12.5881 31.783H9.83936L17.0099 0.639648ZM16.7709 22.0008L18.6033 3.75399H18.3643L14.6197 22.0008H16.7709Z" fill="white"/>
<path id="Vector_3" d="M20.3966 27.5501L23.7428 4.79147C24.1013 2.47568 25.1371 0.239746 28.4833 0.239746C31.232 0.239746 32.7458 1.95662 32.3076 4.87132L31.0328 13.5755H28.3638L29.6386 4.59183C29.8378 3.19437 29.1605 2.55554 28.2841 2.55554C27.4078 2.55554 26.7704 3.07459 26.5314 4.59183L23.1453 27.8296C22.9461 29.227 23.6233 29.8659 24.4997 29.8659C25.3761 29.8659 26.0135 29.3468 26.2525 27.8296L27.4476 19.8042H30.1166L28.9614 27.6699C28.6427 29.9457 27.5671 32.1817 24.3005 32.1817C21.512 32.1817 19.9584 30.4648 20.3966 27.5501Z" fill="white"/>
<path id="Vector_4" d="M37.1274 3.03529L35.7331 12.6578H40.0753L39.7167 15.0534H35.3746L33.2633 29.3874H38.1233L37.7648 31.783H30.1162L34.6974 0.639648H42.1467L41.828 3.03529H37.1274Z" fill="white"/>
<path id="Vector_5" d="M47.4051 27.5501L50.7514 4.79147C51.1099 2.47568 52.1457 0.239746 55.6512 0.239746C58.639 0.239746 60.1527 1.95662 59.7145 4.87132L56.3683 27.6699C56.0496 29.9457 54.974 32.1817 51.4684 32.1817C48.5206 32.1817 46.967 30.4648 47.4051 27.5501ZM51.6676 29.8659C52.7034 29.8659 53.3806 29.1472 53.5798 27.8296L56.9658 4.59183C57.165 3.35408 56.4878 2.55554 55.4521 2.55554C54.4163 2.55554 53.7391 3.27423 53.5399 4.59183L50.1538 27.8296C49.9547 29.0673 50.6319 29.8659 51.6676 29.8659Z" fill="white"/>
<path id="Vector_6" d="M64.5346 3.03529L63.0607 13.0571H67.4028L67.0443 15.4527H62.7021L60.312 31.783H57.5234L62.1046 0.639648H69.554L69.2353 3.03529H64.5346Z" fill="white"/>
<path id="Vector_7" d="M74.6533 28.3886C74.6533 28.1091 74.6932 27.7896 74.733 27.4702L75.8882 19.8042H78.4776L77.402 27.3904C77.3223 27.9494 77.3223 28.1889 77.3223 28.3486C77.3223 29.4267 77.9597 29.8659 78.7564 29.8659C79.6328 29.8659 80.2304 29.3867 80.4296 28.2289C80.5491 27.5102 80.5491 27.1508 80.5491 26.6717C80.5491 25.4339 80.3499 23.9965 80.071 22.0401L78.1987 8.94392C78.0394 7.78602 77.9199 6.62813 77.9199 5.2706C77.9199 2.83503 79.1548 0.239746 82.7799 0.239746C85.1302 0.239746 86.6042 1.59728 86.6042 3.87314C86.6042 4.23249 86.5643 4.55191 86.5245 4.87132L85.2497 13.5755H82.6206L83.8953 4.87132C83.9351 4.51198 83.975 4.31234 83.975 3.99292C83.975 3.15445 83.4173 2.55554 82.501 2.55554C80.9076 2.55554 80.5491 3.83321 80.5491 5.39038C80.5491 6.38857 80.7483 7.86588 80.9076 8.94392L82.501 20.2833C82.7401 21.8405 83.2579 25.4739 83.2579 26.6717C83.2579 29.3468 82.1824 32.1817 78.6369 32.1817C75.9679 32.1817 74.6533 30.7044 74.6533 28.3886Z" fill="white"/>
<path id="Vector_8" d="M88.8351 0.639648H91.5838L87.401 29.3874H91.4244L91.0659 31.783H84.2539L88.8351 0.639648Z" fill="white"/>
<path id="Vector_9" d="M128.113 3.03529H125.325L125.683 0.639648H134.049L133.69 3.03529H130.862L126.639 31.783H123.891L128.113 3.03529Z" fill="white"/>
<path id="Vector_10" d="M135.284 0.639648H138.072L136.12 13.9754H139.666L141.618 0.639648H144.406L139.865 31.783H137.076L139.307 16.371H135.762L133.491 31.783H130.703L135.284 0.639648Z" fill="white"/>
<path id="Vector_11" d="M142.056 28.3886C142.056 28.1091 142.096 27.7896 142.136 27.4702L143.291 19.8042H145.88L144.805 27.3904C144.725 27.9494 144.725 28.1889 144.725 28.3486C144.725 29.4267 145.363 29.8659 146.159 29.8659C147.036 29.8659 147.633 29.3867 147.832 28.2289C147.952 27.5102 147.952 27.1508 147.952 26.6717C147.952 25.4339 147.753 23.9965 147.474 22.0401L145.602 8.94392C145.442 7.78602 145.323 6.62813 145.323 5.2706C145.323 2.83503 146.558 0.239746 150.183 0.239746C152.533 0.239746 154.007 1.59728 154.007 3.87314C154.007 4.23249 153.967 4.55191 153.927 4.87132L152.653 13.5755H150.023L151.298 4.87132C151.338 4.51198 151.378 4.31234 151.378 3.99292C151.378 3.15445 150.82 2.55554 149.904 2.55554C148.31 2.55554 147.952 3.83321 147.952 5.39038C147.952 6.38857 148.151 7.86588 148.31 8.94392L149.904 20.2833C150.143 21.8405 150.661 25.4739 150.661 26.6717C150.661 29.3468 149.585 32.1817 146.04 32.1817C143.371 32.1817 142.056 30.7044 142.056 28.3886Z" fill="white"/>
<path id="Vector_12" d="M108.554 0.000488281C98.2362 0.000488281 91.5039 7.7464 91.5039 17.1293C91.5039 19.6847 92.055 22.0803 93.0841 24.1898C100.235 10.6744 109.809 2.22311 110.625 2.5625C111.475 2.91519 102.691 13.1898 95.6336 27.8499C95.939 28.1693 96.2643 28.4754 96.6029 28.7615C103.833 13.5625 114.728 3.86014 115.605 4.22614C116.481 4.59214 107.106 15.5123 99.9558 30.9043C100.281 31.0574 100.62 31.1904 100.958 31.3235C108.182 16.5637 118.732 7.19408 119.588 7.55342C120.425 7.90611 111.873 17.9146 104.869 32.2751C105.632 32.3683 106.423 32.4215 107.246 32.4215C117.484 32.4215 124.216 24.6756 124.216 15.2927C124.216 6.78815 118.201 0.000488281 108.56 0.000488281H108.554Z" fill="white"/>
</g>
</g>
</svg>
