<svg width="25" height="25" viewBox="0 0 25 25" fill="none" xmlns="http://www.w3.org/2000/svg">
<path d="M2.375 3.5H8.375C9.43587 3.5 10.4533 3.92143 11.2034 4.67157C11.9536 5.42172 12.375 6.43913 12.375 7.5V21.5C12.375 20.7044 12.0589 19.9413 11.4963 19.3787C10.9337 18.8161 10.1706 18.5 9.375 18.5H2.375V3.5Z" stroke="white" stroke-width="2" stroke-linecap="round" stroke-linejoin="round"/>
<path d="M22.375 3.5H16.375C15.3141 3.5 14.2967 3.92143 13.5466 4.67157C12.7964 5.42172 12.375 6.43913 12.375 7.5V21.5C12.375 20.7044 12.6911 19.9413 13.2537 19.3787C13.8163 18.8161 14.5794 18.5 15.375 18.5H22.375V3.5Z" stroke="white" stroke-width="2" stroke-linecap="round" stroke-linejoin="round"/>
</svg>
