<svg width="121" height="121" viewBox="0 0 121 121" fill="none" xmlns="http://www.w3.org/2000/svg">
<rect x="0.5" y="0.216797" width="120" height="120" rx="60" fill="url(#paint0_linear_3170_4698)"/>
<g filter="url(#filter0_i_3170_4698)">
<path d="M88.6628 69.6936C88.6628 86.5511 76.0903 100.217 60.5814 100.217C45.0725 100.217 32.5 86.5511 32.5 69.6936C32.5 56.6871 49.2167 32.498 56.8545 22.125C58.7278 19.5807 62.4349 19.5807 64.3083 22.125C71.946 32.498 88.6628 56.6871 88.6628 69.6936Z" fill="url(#paint1_linear_3170_4698)"/>
<path d="M88.6628 69.6936C88.6628 86.5511 76.0903 100.217 60.5814 100.217C45.0725 100.217 32.5 86.5511 32.5 69.6936C32.5 56.6871 49.2167 32.498 56.8545 22.125C58.7278 19.5807 62.4349 19.5807 64.3083 22.125C71.946 32.498 88.6628 56.6871 88.6628 69.6936Z" fill="url(#paint2_linear_3170_4698)"/>
<path d="M78.8953 82.262C78.8953 92.1781 70.6959 100.217 60.5814 100.217C50.4669 100.217 42.2674 92.1781 42.2674 82.262C42.2674 75.1495 51.6892 62.3523 57.017 55.6843C58.8636 53.3733 62.2992 53.3733 64.1457 55.6843C69.4736 62.3523 78.8953 75.1495 78.8953 82.262Z" fill="url(#paint3_linear_3170_4698)"/>
</g>
<defs>
<filter id="filter0_i_3170_4698" x="32.5" y="20.2168" width="56.1628" height="80" filterUnits="userSpaceOnUse" color-interpolation-filters="sRGB">
<feFlood flood-opacity="0" result="BackgroundImageFix"/>
<feBlend mode="normal" in="SourceGraphic" in2="BackgroundImageFix" result="shape"/>
<feColorMatrix in="SourceAlpha" type="matrix" values="0 0 0 0 0 0 0 0 0 0 0 0 0 0 0 0 0 0 127 0" result="hardAlpha"/>
<feOffset/>
<feGaussianBlur stdDeviation="4"/>
<feComposite in2="hardAlpha" operator="arithmetic" k2="-1" k3="1"/>
<feColorMatrix type="matrix" values="0 0 0 0 0.270588 0 0 0 0 0.470588 0 0 0 0 0.894118 0 0 0 1 0"/>
<feBlend mode="normal" in2="shape" result="effect1_innerShadow_3170_4698"/>
</filter>
<linearGradient id="paint0_linear_3170_4698" x1="61" y1="4.53322e-09" x2="61" y2="135" gradientUnits="userSpaceOnUse">
<stop stop-color="#222222"/>
<stop offset="1" stop-color="#1E31AA"/>
</linearGradient>
<linearGradient id="paint1_linear_3170_4698" x1="60.5814" y1="20.2168" x2="60.5814" y2="100.217" gradientUnits="userSpaceOnUse">
<stop stop-color="#2943EE"/>
<stop offset="1" stop-color="#182686"/>
</linearGradient>
<linearGradient id="paint2_linear_3170_4698" x1="60.5814" y1="20.2168" x2="60.5814" y2="100.217" gradientUnits="userSpaceOnUse">
<stop stop-color="#2943EE"/>
<stop offset="1" stop-color="#182686"/>
</linearGradient>
<linearGradient id="paint3_linear_3170_4698" x1="60.5814" y1="51.3797" x2="60.5814" y2="100.217" gradientUnits="userSpaceOnUse">
<stop stop-color="#4F83F2"/>
<stop offset="1" stop-color="#113E9E"/>
</linearGradient>
</defs>
</svg>
