<svg width="84" height="84" viewBox="0 0 84 84" fill="none" xmlns="http://www.w3.org/2000/svg">
<g filter="url(#filter0_d_3106_5168)">
<rect x="2" y="2" width="80" height="80" rx="40" fill="#FFD700" fill-opacity="0.65" shape-rendering="crispEdges"/>
</g>
<g filter="url(#filter1_d_3106_5168)">
<rect x="7.74219" y="7.74609" width="68.5083" height="68.5083" rx="34.2541" fill="#FFD700" fill-opacity="0.65" shape-rendering="crispEdges"/>
</g>
<g filter="url(#filter2_d_3106_5168)">
<rect x="13.4922" y="13.4922" width="57.0166" height="57.0166" rx="28.5083" fill="#FFD700"/>
</g>
<g clip-path="url(#clip0_3106_5168)">
<path d="M41.6261 59.3208C51.5268 59.3208 59.553 51.3772 59.553 41.5784C59.553 31.7795 51.5268 23.8359 41.6261 23.8359C31.7254 23.8359 23.6992 31.7795 23.6992 41.5784C23.6992 51.3772 31.7254 59.3208 41.6261 59.3208Z" fill="#C7B299" stroke="#161616" stroke-width="0.23431" stroke-miterlimit="10"/>
<path d="M21.6602 43.1343C21.6602 31.5564 29.9577 22 42.6749 22C54.5554 22 61.97 30.3744 61.97 40.8682C61.97 52.4436 53.6724 62.0024 41.0553 62.0024C29.1236 62.0024 21.6626 53.628 21.6626 43.1343H21.6602ZM41.2505 58.9459C51.609 58.9459 58.2383 50.9165 58.2383 41.0639C58.2383 38.5604 58.1871 31.483 52.9651 28.703C48.3188 26.2313 43.0114 28.9893 42.3602 29.3417C41.2822 28.7397 36.8578 26.4221 32.4895 28.1058C25.2358 30.9006 25.3943 41.9351 25.3943 42.9361C25.3943 51.9027 31.4334 58.9459 41.2529 58.9459H41.2505Z" fill="#161616"/>
<path d="M30.1641 48.8741C30.1641 49.2681 35.2007 51.8059 41.5324 51.8059C47.8641 51.8059 53.091 49.2681 53.091 48.8741C53.091 48.4801 47.8617 50.3792 41.5324 50.3792C35.2007 50.3792 30.1641 48.4801 30.1641 48.8741Z" fill="#161616"/>
<path d="M41.5049 49.6534C43.7275 49.6534 45.5293 48.4482 45.5293 46.9615C45.5293 45.4748 43.7275 44.2695 41.5049 44.2695C39.2823 44.2695 37.4805 45.4748 37.4805 46.9615C37.4805 48.4482 39.2823 49.6534 41.5049 49.6534Z" fill="#161616"/>
<path d="M40.4438 47.9196C40.3657 48.0958 40.0267 48.1814 39.6901 48.1104C39.3535 48.0395 39.1437 47.8413 39.2242 47.6651C39.3047 47.4888 39.6413 47.4032 39.9779 47.4742C40.3145 47.5451 40.5242 47.7434 40.4438 47.9196Z" fill="#FFF9EF"/>
<path d="M42.6422 47.9196C42.7203 48.0958 43.0593 48.1814 43.3959 48.1104C43.7325 48.0395 43.9422 47.8413 43.8617 47.6651C43.7812 47.4888 43.4446 47.4032 43.1081 47.4742C42.7715 47.5451 42.5617 47.7434 42.6422 47.9196Z" fill="#FFF9EF"/>
<path d="M33.614 43.0668C35.1268 43.0668 36.3531 41.8364 36.3531 40.3186C36.3531 38.8007 35.1268 37.5703 33.614 37.5703C32.1013 37.5703 30.875 38.8007 30.875 40.3186C30.875 41.8364 32.1013 43.0668 33.614 43.0668Z" fill="#FFF9EF" stroke="#161616" stroke-width="0.23431" stroke-miterlimit="10"/>
<path d="M33.6158 42.272C34.6894 42.272 35.5597 41.3987 35.5597 40.3215C35.5597 39.2443 34.6894 38.3711 33.6158 38.3711C32.5422 38.3711 31.6719 39.2443 31.6719 40.3215C31.6719 41.3987 32.5422 42.272 33.6158 42.272Z" fill="#161616" stroke="#161616" stroke-width="0.23431" stroke-miterlimit="10"/>
<path d="M32.5547 40.4093C32.7986 40.4093 32.9962 40.211 32.9962 39.9664C32.9962 39.7218 32.7986 39.5234 32.5547 39.5234C32.3109 39.5234 32.1133 39.7218 32.1133 39.9664C32.1133 40.211 32.3109 40.4093 32.5547 40.4093Z" fill="#FFF9EF"/>
<path d="M49.7117 43.0668C51.2244 43.0668 52.4507 41.8364 52.4507 40.3186C52.4507 38.8007 51.2244 37.5703 49.7117 37.5703C48.199 37.5703 46.9727 38.8007 46.9727 40.3186C46.9727 41.8364 48.199 43.0668 49.7117 43.0668Z" fill="#FFF9EF" stroke="#101010" stroke-width="0.23431" stroke-miterlimit="10"/>
<path d="M49.7134 42.272C50.787 42.272 51.6573 41.3987 51.6573 40.3215C51.6573 39.2443 50.787 38.3711 49.7134 38.3711C48.6398 38.3711 47.7695 39.2443 47.7695 40.3215C47.7695 41.3987 48.6398 42.272 49.7134 42.272Z" fill="#161616" stroke="#161616" stroke-width="0.23431" stroke-miterlimit="10"/>
<path d="M48.6524 40.4093C48.8962 40.4093 49.0939 40.211 49.0939 39.9664C49.0939 39.7218 48.8962 39.5234 48.6524 39.5234C48.4086 39.5234 48.2109 39.7218 48.2109 39.9664C48.2109 40.211 48.4086 40.4093 48.6524 40.4093Z" fill="#FFF9EF"/>
<path d="M65.528 35.3594H64.5523H63.445H61.3596L43.0108 35.3667H42.6011H40.5181H38.4327L22.1668 35.3716H20.0815H17.9961V37.464V39.5564H20.0815V41.6488H22.1668V43.7387H24.2522V45.8262H26.3376V46.7561V46.8712V47.9161H28.423H30.5083H32.5937H34.6791V46.8736V45.8286H36.7644V43.7362H38.8474V41.6463H43.0157V39.5539H40.9303H41.7669H43.0132V37.4615V39.5515V41.6414H45.0986V43.7314H47.1816V45.8188H49.2645V47.9112H50.9401V47.9161H53.0255H55.1108H57.1962V46.8712V45.8262V45.8188H59.2792V43.7289H61.3621V41.6365H63.445V39.5515H65.5304V35.3643L65.528 35.3594ZM50.0084 45.8188H50.4157H49.4523H50.006H50.0084Z" fill="#161616"/>
<path d="M27.335 39.1488L25.25 39.1875L25.2886 41.2795L27.3736 41.2408L27.335 39.1488Z" fill="#FFF9EF"/>
<path d="M29.4561 41.2035L27.3711 41.2422L27.4097 43.3342L29.4947 43.2955L29.4561 41.2035Z" fill="#FFF9EF"/>
<path d="M25.21 37.0941L23.125 37.1328L23.1636 39.2248L25.2486 39.1861L25.21 37.0941Z" fill="#FFF9EF"/>
<path d="M49.8467 38.7308L47.7617 38.7695L47.8003 40.8616L49.8853 40.8228L49.8467 38.7308Z" fill="#FFF9EF"/>
<path d="M51.9717 40.7816L49.8867 40.8203L49.9253 42.9123L52.0103 42.8736L51.9717 40.7816Z" fill="#FFF9EF"/>
<path d="M47.7256 36.6761L45.6406 36.7148L45.6792 38.8069L47.7642 38.7682L47.7256 36.6761Z" fill="#FFF9EF"/>
<path d="M27.335 39.1488L25.25 39.1875L25.2886 41.2795L27.3736 41.2408L27.335 39.1488Z" fill="#FFF9EF"/>
<path d="M29.4561 41.2035L27.3711 41.2422L27.4097 43.3342L29.4947 43.2955L29.4561 41.2035Z" fill="#FFF9EF"/>
<path d="M25.171 37.0948L23.125 37.1328L23.1629 39.1857L25.2089 39.1477L25.171 37.0948Z" fill="#FFF9EF"/>
<path d="M31.4991 39.0707L29.4141 39.1094L29.4526 41.2014L31.5377 41.1627L31.4991 39.0707Z" fill="#FFF9EF"/>
<path d="M33.6241 41.1214L31.5391 41.1602L31.5776 43.2522L33.6627 43.2135L33.6241 41.1214Z" fill="#FFF9EF"/>
<path d="M29.378 37.0199L27.293 37.0586L27.3315 39.1506L29.4166 39.1119L29.378 37.0199Z" fill="#FFF9EF"/>
<path d="M54.0147 38.6566L51.9297 38.6953L51.9683 40.7873L54.0533 40.7486L54.0147 38.6566Z" fill="#FFF9EF"/>
<path d="M56.1358 40.7035L54.0508 40.7422L54.0894 42.8342L56.1744 42.7955L56.1358 40.7035Z" fill="#FFF9EF"/>
<path d="M51.8936 36.6019L49.8086 36.6406L49.8472 38.7326L51.9322 38.6939L51.8936 36.6019Z" fill="#FFF9EF"/>
</g>
<defs>
<filter id="filter0_d_3106_5168" x="0" y="0" width="84" height="84" filterUnits="userSpaceOnUse" color-interpolation-filters="sRGB">
<feFlood flood-opacity="0" result="BackgroundImageFix"/>
<feColorMatrix in="SourceAlpha" type="matrix" values="0 0 0 0 0 0 0 0 0 0 0 0 0 0 0 0 0 0 127 0" result="hardAlpha"/>
<feOffset/>
<feGaussianBlur stdDeviation="1"/>
<feComposite in2="hardAlpha" operator="out"/>
<feColorMatrix type="matrix" values="0 0 0 0 0.755225 0 0 0 0 0.536552 0 0 0 0 0.0434893 0 0 0 1 0"/>
<feBlend mode="normal" in2="BackgroundImageFix" result="effect1_dropShadow_3106_5168"/>
<feBlend mode="normal" in="SourceGraphic" in2="effect1_dropShadow_3106_5168" result="shape"/>
</filter>
<filter id="filter1_d_3106_5168" x="5.74219" y="5.74609" width="72.5078" height="72.5078" filterUnits="userSpaceOnUse" color-interpolation-filters="sRGB">
<feFlood flood-opacity="0" result="BackgroundImageFix"/>
<feColorMatrix in="SourceAlpha" type="matrix" values="0 0 0 0 0 0 0 0 0 0 0 0 0 0 0 0 0 0 127 0" result="hardAlpha"/>
<feOffset/>
<feGaussianBlur stdDeviation="1"/>
<feComposite in2="hardAlpha" operator="out"/>
<feColorMatrix type="matrix" values="0 0 0 0 0.755225 0 0 0 0 0.536552 0 0 0 0 0.0434893 0 0 0 1 0"/>
<feBlend mode="normal" in2="BackgroundImageFix" result="effect1_dropShadow_3106_5168"/>
<feBlend mode="normal" in="SourceGraphic" in2="effect1_dropShadow_3106_5168" result="shape"/>
</filter>
<filter id="filter2_d_3106_5168" x="11.4922" y="11.4922" width="61.0156" height="61.0156" filterUnits="userSpaceOnUse" color-interpolation-filters="sRGB">
<feFlood flood-opacity="0" result="BackgroundImageFix"/>
<feColorMatrix in="SourceAlpha" type="matrix" values="0 0 0 0 0 0 0 0 0 0 0 0 0 0 0 0 0 0 127 0" result="hardAlpha"/>
<feOffset/>
<feGaussianBlur stdDeviation="1"/>
<feComposite in2="hardAlpha" operator="out"/>
<feColorMatrix type="matrix" values="0 0 0 0 0.755225 0 0 0 0 0.536552 0 0 0 0 0.0434893 0 0 0 1 0"/>
<feBlend mode="normal" in2="BackgroundImageFix" result="effect1_dropShadow_3106_5168"/>
<feBlend mode="normal" in="SourceGraphic" in2="effect1_dropShadow_3106_5168" result="shape"/>
</filter>
<clipPath id="clip0_3106_5168">
<rect width="47.5294" height="40" fill="white" transform="translate(18 22)"/>
</clipPath>
</defs>
</svg>
