<svg width="200" height="200" viewBox="0 0 200 200" fill="none" xmlns="http://www.w3.org/2000/svg">
<g filter="url(#filter0_d_3106_4762)">
<rect x="28" y="28" width="135.562" height="135.562" rx="67.7811" fill="#FFD700" fill-opacity="0.65" shape-rendering="crispEdges"/>
</g>
<g filter="url(#filter1_d_3106_4762)">
<rect x="37.7305" y="37.7383" width="116.089" height="116.089" rx="58.0446" fill="#FFD700" fill-opacity="0.65" shape-rendering="crispEdges"/>
</g>
<g filter="url(#filter2_d_3106_4762)">
<rect x="47.4766" y="47.4727" width="96.6162" height="96.6162" rx="48.3081" fill="#FFD700"/>
</g>
<g clip-path="url(#clip0_3106_4762)">
<path d="M95.5705 121.851C111.328 121.851 124.102 109.208 124.102 93.6129C124.102 78.0175 111.328 65.375 95.5705 65.375C79.813 65.375 67.0391 78.0175 67.0391 93.6129C67.0391 109.208 79.813 121.851 95.5705 121.851Z" fill="#C7B299" stroke="#161616" stroke-width="0.23431" stroke-miterlimit="10"/>
<path d="M63.7969 96.0893C63.7969 77.6626 77.0029 62.4531 97.2427 62.4531C116.151 62.4531 127.952 75.7814 127.952 92.4827C127.952 110.905 114.746 126.119 94.6652 126.119C75.6753 126.119 63.8008 112.791 63.8008 96.0893H63.7969ZM94.9757 121.254C111.462 121.254 122.013 108.475 122.013 92.7943C122.013 88.8098 121.931 77.5458 113.62 73.1212C106.225 69.1874 97.7784 73.5769 96.742 74.1378C95.0262 73.1796 87.9846 69.4912 81.0322 72.1709C69.4876 76.6188 69.74 94.1808 69.74 95.7738C69.74 110.045 79.3514 121.254 94.9796 121.254H94.9757Z" fill="#161616"/>
<path d="M77.3281 105.222C77.3281 105.849 85.3441 109.888 95.4213 109.888C105.499 109.888 113.817 105.849 113.817 105.222C113.817 104.595 105.495 107.618 95.4213 107.618C85.3441 107.618 77.3281 104.595 77.3281 105.222Z" fill="#161616"/>
<path d="M95.3777 106.467C98.9151 106.467 101.783 104.549 101.783 102.183C101.783 99.8166 98.9151 97.8984 95.3777 97.8984C91.8403 97.8984 88.9727 99.8166 88.9727 102.183C88.9727 104.549 91.8403 106.467 95.3777 106.467Z" fill="#161616"/>
<path d="M93.691 103.71C93.5667 103.99 93.0272 104.126 92.4915 104.013C91.9558 103.9 91.6219 103.585 91.75 103.304C91.8781 103.024 92.4138 102.888 92.9495 103.001C93.4852 103.114 93.8191 103.429 93.691 103.71Z" fill="#FFF9EF"/>
<path d="M97.1875 103.71C97.3118 103.99 97.8513 104.126 98.387 104.013C98.9227 103.9 99.2566 103.585 99.1285 103.304C99.0004 103.024 98.4647 102.888 97.929 103.001C97.3933 103.114 97.0594 103.429 97.1875 103.71Z" fill="#FFF9EF"/>
<path d="M82.8202 95.9823C85.2278 95.9823 87.1795 94.024 87.1795 91.6083C87.1795 89.1927 85.2278 87.2344 82.8202 87.2344C80.4127 87.2344 78.4609 89.1927 78.4609 91.6083C78.4609 94.024 80.4127 95.9823 82.8202 95.9823Z" fill="#FFF9EF" stroke="#161616" stroke-width="0.23431" stroke-miterlimit="10"/>
<path d="M82.8204 94.7163C84.5291 94.7163 85.9142 93.3264 85.9142 91.612C85.9142 89.8976 84.5291 88.5078 82.8204 88.5078C81.1117 88.5078 79.7266 89.8976 79.7266 91.612C79.7266 93.3264 81.1117 94.7163 82.8204 94.7163Z" fill="#161616" stroke="#161616" stroke-width="0.23431" stroke-miterlimit="10"/>
<path d="M81.1323 91.7498C81.5203 91.7498 81.8349 91.4342 81.8349 91.0448C81.8349 90.6555 81.5203 90.3398 81.1323 90.3398C80.7443 90.3398 80.4297 90.6555 80.4297 91.0448C80.4297 91.4342 80.7443 91.7498 81.1323 91.7498Z" fill="#FFF9EF"/>
<path d="M108.441 95.9823C110.849 95.9823 112.801 94.024 112.801 91.6083C112.801 89.1927 110.849 87.2344 108.441 87.2344C106.034 87.2344 104.082 89.1927 104.082 91.6083C104.082 94.024 106.034 95.9823 108.441 95.9823Z" fill="#FFF9EF" stroke="#101010" stroke-width="0.23431" stroke-miterlimit="10"/>
<path d="M108.441 94.7163C110.15 94.7163 111.535 93.3264 111.535 91.612C111.535 89.8976 110.15 88.5078 108.441 88.5078C106.733 88.5078 105.348 89.8976 105.348 91.612C105.348 93.3264 106.733 94.7163 108.441 94.7163Z" fill="#161616" stroke="#161616" stroke-width="0.23431" stroke-miterlimit="10"/>
<path d="M106.753 91.7498C107.141 91.7498 107.456 91.4342 107.456 91.0448C107.456 90.6555 107.141 90.3398 106.753 90.3398C106.365 90.3398 106.051 90.6555 106.051 91.0448C106.051 91.4342 106.365 91.7498 106.753 91.7498Z" fill="#FFF9EF"/>
<path d="M133.614 83.7148H132.061H130.299H126.98L97.7769 83.7265H97.1248H93.8097H90.4907L64.6028 83.7343H61.2838H57.9648V87.0644V90.3946H61.2838V93.7247H64.6028V97.0509H67.9217V100.373H71.2407V101.853V102.036V103.699H74.5597H77.8786H81.1976H84.5166V102.04V100.377H87.8355V97.047H91.1506V93.7208H97.7847V90.3907H94.4657H95.7972H97.7808V87.0605V90.3868V93.713H101.1V97.0392H104.415V100.362H107.73V103.692H110.397V103.699H113.716H117.035H120.354V102.036V100.373V100.362H123.669V97.0353H126.984V93.7052H130.299V90.3868H133.618V83.7226L133.614 83.7148ZM108.914 100.362H109.562H108.029H108.91H108.914Z" fill="#161616"/>
<path d="M72.8262 89.7431L69.5078 89.8047L69.5692 93.1342L72.8876 93.0726L72.8262 89.7431Z" fill="#FFF9EF"/>
<path d="M76.2012 93.0165L72.8828 93.0781L72.9442 96.4077L76.2626 96.3461L76.2012 93.0165Z" fill="#FFF9EF"/>
<path d="M69.4473 86.4775L66.1289 86.5391L66.1903 89.8686L69.5087 89.807L69.4473 86.4775Z" fill="#FFF9EF"/>
<path d="M108.65 89.0829L105.332 89.1445L105.393 92.4741L108.712 92.4125L108.65 89.0829Z" fill="#FFF9EF"/>
<path d="M112.033 92.3446L108.715 92.4062L108.776 95.7358L112.095 95.6742L112.033 92.3446Z" fill="#FFF9EF"/>
<path d="M105.275 85.8134L101.957 85.875L102.018 89.2046L105.337 89.1429L105.275 85.8134Z" fill="#FFF9EF"/>
<path d="M72.8262 89.7431L69.5078 89.8047L69.5692 93.1342L72.8876 93.0726L72.8262 89.7431Z" fill="#FFF9EF"/>
<path d="M76.2012 93.0165L72.8828 93.0781L72.9442 96.4077L76.2626 96.3461L76.2012 93.0165Z" fill="#FFF9EF"/>
<path d="M69.3813 86.4786L66.125 86.5391L66.1853 89.8063L69.4415 89.7459L69.3813 86.4786Z" fill="#FFF9EF"/>
<path d="M79.4512 89.6259L76.1328 89.6875L76.1942 93.0171L79.5126 92.9555L79.4512 89.6259Z" fill="#FFF9EF"/>
<path d="M82.834 92.8876L79.5156 92.9492L79.577 96.2788L82.8954 96.2172L82.834 92.8876Z" fill="#FFF9EF"/>
<path d="M76.0762 86.3564L72.7578 86.418L72.8192 89.7475L76.1376 89.6859L76.0762 86.3564Z" fill="#FFF9EF"/>
<path d="M115.287 88.9579L111.969 89.0195L112.03 92.3491L115.349 92.2875L115.287 88.9579Z" fill="#FFF9EF"/>
<path d="M118.666 92.2236L115.348 92.2852L115.409 95.6147L118.727 95.5531L118.666 92.2236Z" fill="#FFF9EF"/>
<path d="M111.912 85.6923L108.594 85.7539L108.655 89.0835L111.974 89.0219L111.912 85.6923Z" fill="#FFF9EF"/>
</g>
<defs>
<filter id="filter0_d_3106_4762" x="0" y="0" width="199.562" height="199.562" filterUnits="userSpaceOnUse" color-interpolation-filters="sRGB">
<feFlood flood-opacity="0" result="BackgroundImageFix"/>
<feColorMatrix in="SourceAlpha" type="matrix" values="0 0 0 0 0 0 0 0 0 0 0 0 0 0 0 0 0 0 127 0" result="hardAlpha"/>
<feMorphology radius="18" operator="dilate" in="SourceAlpha" result="effect1_dropShadow_3106_4762"/>
<feOffset dx="4" dy="4"/>
<feGaussianBlur stdDeviation="7"/>
<feComposite in2="hardAlpha" operator="out"/>
<feColorMatrix type="matrix" values="0 0 0 0 0.559701 0 0 0 0 0.47209 0 0 0 0 0.00118426 0 0 0 0.25 0"/>
<feBlend mode="normal" in2="BackgroundImageFix" result="effect1_dropShadow_3106_4762"/>
<feBlend mode="normal" in="SourceGraphic" in2="effect1_dropShadow_3106_4762" result="shape"/>
</filter>
<filter id="filter1_d_3106_4762" x="9.73047" y="9.73828" width="180.09" height="180.09" filterUnits="userSpaceOnUse" color-interpolation-filters="sRGB">
<feFlood flood-opacity="0" result="BackgroundImageFix"/>
<feColorMatrix in="SourceAlpha" type="matrix" values="0 0 0 0 0 0 0 0 0 0 0 0 0 0 0 0 0 0 127 0" result="hardAlpha"/>
<feMorphology radius="18" operator="dilate" in="SourceAlpha" result="effect1_dropShadow_3106_4762"/>
<feOffset dx="4" dy="4"/>
<feGaussianBlur stdDeviation="7"/>
<feComposite in2="hardAlpha" operator="out"/>
<feColorMatrix type="matrix" values="0 0 0 0 0.559701 0 0 0 0 0.47209 0 0 0 0 0.00118426 0 0 0 0.25 0"/>
<feBlend mode="normal" in2="BackgroundImageFix" result="effect1_dropShadow_3106_4762"/>
<feBlend mode="normal" in="SourceGraphic" in2="effect1_dropShadow_3106_4762" result="shape"/>
</filter>
<filter id="filter2_d_3106_4762" x="19.4766" y="19.4727" width="160.617" height="160.617" filterUnits="userSpaceOnUse" color-interpolation-filters="sRGB">
<feFlood flood-opacity="0" result="BackgroundImageFix"/>
<feColorMatrix in="SourceAlpha" type="matrix" values="0 0 0 0 0 0 0 0 0 0 0 0 0 0 0 0 0 0 127 0" result="hardAlpha"/>
<feMorphology radius="18" operator="dilate" in="SourceAlpha" result="effect1_dropShadow_3106_4762"/>
<feOffset dx="4" dy="4"/>
<feGaussianBlur stdDeviation="7"/>
<feComposite in2="hardAlpha" operator="out"/>
<feColorMatrix type="matrix" values="0 0 0 0 0.559701 0 0 0 0 0.47209 0 0 0 0 0.00118426 0 0 0 0.25 0"/>
<feBlend mode="normal" in2="BackgroundImageFix" result="effect1_dropShadow_3106_4762"/>
<feBlend mode="normal" in="SourceGraphic" in2="effect1_dropShadow_3106_4762" result="shape"/>
</filter>
<clipPath id="clip0_3106_4762">
<rect width="75.6453" height="63.6618" fill="white" transform="translate(57.9688 62.4531)"/>
</clipPath>
</defs>
</svg>
