<svg width="82" height="80" viewBox="0 0 82 80" fill="none" xmlns="http://www.w3.org/2000/svg">
<g filter="url(#filter0_d_3106_4928)">
<rect width="80" height="80" rx="40" fill="#BE621C" fill-opacity="0.65" shape-rendering="crispEdges"/>
</g>
<g filter="url(#filter1_d_3106_4928)">
<rect x="5.74609" y="5.74219" width="68.5083" height="68.5083" rx="34.2542" fill="#BE621C" fill-opacity="0.65" shape-rendering="crispEdges"/>
</g>
<g filter="url(#filter2_d_3106_4928)">
<rect x="11.4883" y="11.4922" width="57.0166" height="57.0166" rx="28.5083" fill="#BE621C"/>
</g>
<path d="M39.5093 55.7235C48.4913 55.7235 55.7726 48.5459 55.7726 39.6918C55.7726 30.8378 48.4913 23.6602 39.5093 23.6602C30.5274 23.6602 23.2461 30.8378 23.2461 39.6918C23.2461 48.5459 30.5274 55.7235 39.5093 55.7235Z" fill="#C7B299" stroke="#161616" stroke-width="0.23431" stroke-miterlimit="10"/>
<path d="M21.3945 41.0965C21.3945 30.635 28.9221 22 40.459 22C51.237 22 57.9636 29.5669 57.9636 39.0488C57.9636 49.5081 50.436 58.1453 38.9898 58.1453C28.1653 58.1453 21.3967 50.5784 21.3967 41.0965H21.3945ZM39.1668 55.3834C48.5641 55.3834 54.5782 48.1283 54.5782 39.2257C54.5782 36.9636 54.5317 30.5686 49.7943 28.0566C45.5792 25.8233 40.5128 27.3544 40.1141 29.4619C39.7154 27.3544 35.1818 25.9958 31.2188 27.5171C24.6383 30.0424 24.7822 40.0129 24.7822 40.9174C24.7822 49.0194 30.2608 55.3834 39.169 55.3834H39.1668Z" fill="#161616"/>
<path d="M29.1094 46.283C29.1094 46.639 33.6786 48.9321 39.4227 48.9321C45.1668 48.9321 49.9086 46.639 49.9086 46.283C49.9086 45.927 45.1646 47.6429 39.4227 47.6429C33.6786 47.6429 29.1094 45.927 29.1094 46.283Z" fill="#161616"/>
<path d="M39.4012 46.9862C41.4177 46.9862 43.0524 45.8971 43.0524 44.5537C43.0524 43.2102 41.4177 42.1211 39.4012 42.1211C37.3847 42.1211 35.75 43.2102 35.75 44.5537C35.75 45.8971 37.3847 46.9862 39.4012 46.9862Z" fill="#161616"/>
<path d="M38.4387 45.4212C38.3679 45.5805 38.0602 45.6579 37.7548 45.5937C37.4493 45.5296 37.259 45.3504 37.332 45.1912C37.4051 45.0319 37.7105 44.9545 38.0159 45.0186C38.3214 45.0828 38.5117 45.262 38.4387 45.4212Z" fill="#FFF9EF"/>
<path d="M40.4297 45.4212C40.5005 45.5805 40.8082 45.6579 41.1136 45.5937C41.419 45.5296 41.6094 45.3504 41.5363 45.1912C41.4633 45.0319 41.1579 44.9545 40.8524 45.0186C40.547 45.0828 40.3566 45.262 40.4297 45.4212Z" fill="#FFF9EF"/>
<path d="M32.2434 41.0383C33.6161 41.0383 34.729 39.9261 34.729 38.5543C34.729 37.1824 33.6161 36.0703 32.2434 36.0703C30.8706 36.0703 29.7578 37.1824 29.7578 38.5543C29.7578 39.9261 30.8706 41.0383 32.2434 41.0383Z" fill="#FFF9EF" stroke="#161616" stroke-width="0.23431" stroke-miterlimit="10"/>
<path d="M32.2406 40.3188C33.2148 40.3188 34.0046 39.5295 34.0046 38.5559C34.0046 37.5822 33.2148 36.793 32.2406 36.793C31.2663 36.793 30.4766 37.5822 30.4766 38.5559C30.4766 39.5295 31.2663 40.3188 32.2406 40.3188Z" fill="#161616" stroke="#161616" stroke-width="0.23431" stroke-miterlimit="10"/>
<path d="M31.2795 38.6327C31.5008 38.6327 31.6801 38.4535 31.6801 38.2324C31.6801 38.0113 31.5008 37.832 31.2795 37.832C31.0583 37.832 30.8789 38.0113 30.8789 38.2324C30.8789 38.4535 31.0583 38.6327 31.2795 38.6327Z" fill="#FFF9EF"/>
<path d="M46.8449 41.0383C48.2177 41.0383 49.3305 39.9261 49.3305 38.5543C49.3305 37.1824 48.2177 36.0703 46.8449 36.0703C45.4722 36.0703 44.3594 37.1824 44.3594 38.5543C44.3594 39.9261 45.4722 41.0383 46.8449 41.0383Z" fill="#FFF9EF" stroke="#101010" stroke-width="0.23431" stroke-miterlimit="10"/>
<path d="M46.8461 40.3188C47.8203 40.3188 48.6101 39.5295 48.6101 38.5559C48.6101 37.5822 47.8203 36.793 46.8461 36.793C45.8718 36.793 45.082 37.5822 45.082 38.5559C45.082 39.5295 45.8718 40.3188 46.8461 40.3188Z" fill="#161616" stroke="#161616" stroke-width="0.23431" stroke-miterlimit="10"/>
<path d="M45.8811 38.6327C46.1023 38.6327 46.2817 38.4535 46.2817 38.2324C46.2817 38.0113 46.1023 37.832 45.8811 37.832C45.6598 37.832 45.4805 38.0113 45.4805 38.2324C45.4805 38.4535 45.6598 38.6327 45.8811 38.6327Z" fill="#FFF9EF"/>
<path d="M63.6996 32.8242H62.7001H61.5655H59.4289L40.6293 32.8317H40.2095H38.0754H35.9387L19.2732 32.8367H17.1366H15V34.9719V37.1072H17.1366V39.2424H19.2732V41.3751H21.4098V43.5054H23.5464V44.4544V44.5717V45.6381H25.683H27.8196H29.9562H32.0929V44.5742V43.5079H34.2295V41.3726H36.3636V39.2399H40.6343V37.1047H38.4977H39.3548H40.6318V34.9694V37.1022V39.2349H42.7684V41.3677H44.9025V43.4979H47.0366V45.6331H48.7534V45.6381H50.89H53.0266H55.1632V44.5717V43.5054V43.4979H57.2973V41.3652H59.4314V39.2299H61.5655V37.1022H63.7021V32.8292L63.6996 32.8242ZM47.7988 43.4979H48.2161H47.229H47.7963H47.7988Z" fill="#161616"/>
<path d="M24.5666 36.691L22.4297 36.7305L22.4692 38.866L24.6061 38.8264L24.5666 36.691Z" fill="#FFF9EF"/>
<path d="M26.7384 38.7886L24.6016 38.8281L24.6411 40.9636L26.778 40.9241L26.7384 38.7886Z" fill="#FFF9EF"/>
<path d="M22.3908 34.5933L20.2539 34.6328L20.2934 36.7683L22.4303 36.7288L22.3908 34.5933Z" fill="#FFF9EF"/>
<path d="M47.6291 36.2652L45.4922 36.3047L45.5317 38.4402L47.6686 38.4007L47.6291 36.2652Z" fill="#FFF9EF"/>
<path d="M49.8087 38.3589L47.6719 38.3984L47.7114 40.5339L49.8483 40.4944L49.8087 38.3589Z" fill="#FFF9EF"/>
<path d="M45.4572 34.1675L43.3203 34.207L43.3599 36.3425L45.4967 36.303L45.4572 34.1675Z" fill="#FFF9EF"/>
<path d="M24.5666 36.691L22.4297 36.7305L22.4692 38.866L24.6061 38.8264L24.5666 36.691Z" fill="#FFF9EF"/>
<path d="M26.7384 38.7886L24.6016 38.8281L24.6411 40.9636L26.778 40.9241L26.7384 38.7886Z" fill="#FFF9EF"/>
<path d="M22.3508 34.594L20.2539 34.6328L20.2927 36.7283L22.3896 36.6896L22.3508 34.594Z" fill="#FFF9EF"/>
<path d="M28.8322 36.6128L26.6953 36.6523L26.7349 38.7878L28.8717 38.7483L28.8322 36.6128Z" fill="#FFF9EF"/>
<path d="M31.0119 38.7066L28.875 38.7461L28.9145 40.8816L31.0514 40.8421L31.0119 38.7066Z" fill="#FFF9EF"/>
<path d="M26.6603 34.5191L24.5234 34.5586L24.563 36.6941L26.6998 36.6546L26.6603 34.5191Z" fill="#FFF9EF"/>
<path d="M51.9025 36.1871L49.7656 36.2266L49.8052 38.3621L51.942 38.3225L51.9025 36.1871Z" fill="#FFF9EF"/>
<path d="M54.0783 38.2808L51.9414 38.3203L51.9809 40.4558L54.1178 40.4163L54.0783 38.2808Z" fill="#FFF9EF"/>
<path d="M49.7306 34.0933L47.5938 34.1328L47.6333 36.2683L49.7701 36.2288L49.7306 34.0933Z" fill="#FFF9EF"/>
<path d="M39.3459 61.2318C38.9596 60.0982 38.5242 58.5698 38.1861 56.6977C38.1948 56.216 38.1697 55.6926 38.1036 55.1245C37.8615 53.0408 38.392 52.0858 38.7891 51.6549C39.0019 51.424 39.2209 51.2938 39.3784 51.2224C39.3845 51.2196 39.3906 51.2169 39.3966 51.2143C39.4025 51.2169 39.4086 51.2196 39.4147 51.2224C39.5721 51.2938 39.7912 51.4239 40.004 51.6548C40.4011 52.0858 40.9316 53.0408 40.6894 55.1244C40.6455 55.5025 40.6196 55.8607 40.6098 56.2C40.1646 58.3878 39.7152 60.0473 39.3459 61.2318Z" fill="white" stroke="white" stroke-width="2"/>
<defs>
<filter id="filter0_d_3106_4928" x="-2" y="-2" width="84" height="84" filterUnits="userSpaceOnUse" color-interpolation-filters="sRGB">
<feFlood flood-opacity="0" result="BackgroundImageFix"/>
<feColorMatrix in="SourceAlpha" type="matrix" values="0 0 0 0 0 0 0 0 0 0 0 0 0 0 0 0 0 0 127 0" result="hardAlpha"/>
<feOffset/>
<feGaussianBlur stdDeviation="1"/>
<feComposite in2="hardAlpha" operator="out"/>
<feColorMatrix type="matrix" values="0 0 0 0 0.337255 0 0 0 0 0.14902 0 0 0 0 0.0117647 0 0 0 1 0"/>
<feBlend mode="normal" in2="BackgroundImageFix" result="effect1_dropShadow_3106_4928"/>
<feBlend mode="normal" in="SourceGraphic" in2="effect1_dropShadow_3106_4928" result="shape"/>
</filter>
<filter id="filter1_d_3106_4928" x="3.74609" y="3.74219" width="72.5078" height="72.5078" filterUnits="userSpaceOnUse" color-interpolation-filters="sRGB">
<feFlood flood-opacity="0" result="BackgroundImageFix"/>
<feColorMatrix in="SourceAlpha" type="matrix" values="0 0 0 0 0 0 0 0 0 0 0 0 0 0 0 0 0 0 127 0" result="hardAlpha"/>
<feOffset/>
<feGaussianBlur stdDeviation="1"/>
<feComposite in2="hardAlpha" operator="out"/>
<feColorMatrix type="matrix" values="0 0 0 0 0.337255 0 0 0 0 0.14902 0 0 0 0 0.0117647 0 0 0 1 0"/>
<feBlend mode="normal" in2="BackgroundImageFix" result="effect1_dropShadow_3106_4928"/>
<feBlend mode="normal" in="SourceGraphic" in2="effect1_dropShadow_3106_4928" result="shape"/>
</filter>
<filter id="filter2_d_3106_4928" x="9.48828" y="9.49219" width="61.0156" height="61.0156" filterUnits="userSpaceOnUse" color-interpolation-filters="sRGB">
<feFlood flood-opacity="0" result="BackgroundImageFix"/>
<feColorMatrix in="SourceAlpha" type="matrix" values="0 0 0 0 0 0 0 0 0 0 0 0 0 0 0 0 0 0 127 0" result="hardAlpha"/>
<feOffset/>
<feGaussianBlur stdDeviation="1"/>
<feComposite in2="hardAlpha" operator="out"/>
<feColorMatrix type="matrix" values="0 0 0 0 0.337255 0 0 0 0 0.14902 0 0 0 0 0.0117647 0 0 0 1 0"/>
<feBlend mode="normal" in2="BackgroundImageFix" result="effect1_dropShadow_3106_4928"/>
<feBlend mode="normal" in="SourceGraphic" in2="effect1_dropShadow_3106_4928" result="shape"/>
</filter>
</defs>
</svg>
