<svg width="82" height="80" viewBox="0 0 82 80" fill="none" xmlns="http://www.w3.org/2000/svg">
<g filter="url(#filter0_d_3106_5041)">
<rect width="80" height="80" rx="40" fill="#A6A5C4" fill-opacity="0.65" shape-rendering="crispEdges"/>
</g>
<g filter="url(#filter1_d_3106_5041)">
<rect x="5.74609" y="5.74609" width="68.5083" height="68.5083" rx="34.2541" fill="#A6A5C4" fill-opacity="0.65" shape-rendering="crispEdges"/>
</g>
<g filter="url(#filter2_d_3106_5041)">
<rect x="11.4922" y="11.4922" width="57.0166" height="57.0166" rx="28.5083" fill="#A6A5C4"/>
</g>
<g clip-path="url(#clip0_3106_5041)">
<path d="M39.8125 56.4228C49.6371 56.4228 57.6016 48.6706 57.6016 39.1079C57.6016 29.5451 49.6371 21.793 39.8125 21.793C29.9879 21.793 22.0234 29.5451 22.0234 39.1079C22.0234 48.6706 29.9879 56.4228 39.8125 56.4228Z" fill="#C7B299" stroke="#161616" stroke-width="0.23431" stroke-miterlimit="10"/>
<path d="M20 40.625C20 29.3262 28.2338 20 40.8531 20C52.6423 20 60 28.1726 60 38.4135C60 49.71 51.7662 59.0385 39.2461 59.0385C27.4061 59.0362 20 50.8635 20 40.625ZM39.4397 56.0556C49.7186 56.0556 56.297 48.2197 56.297 38.6046C56.297 36.1614 56.2461 29.2545 51.0643 26.5415C46.4537 24.1293 41.1871 26.8209 40.5409 27.1648C39.4712 26.5773 35.0808 24.3156 30.7461 25.9587C23.5481 28.6861 23.7055 39.4548 23.7055 40.4316C23.7055 49.1822 29.6981 56.0556 39.4421 56.0556H39.4397Z" fill="#161616"/>
<path d="M28.4375 46.2244C28.4375 46.6089 33.4354 49.0855 39.7184 49.0855C46.0015 49.0855 51.1881 46.6089 51.1881 46.2244C51.1881 45.8399 45.9991 47.6932 39.7184 47.6932C33.4354 47.6932 28.4375 45.8399 28.4375 46.2244Z" fill="#161616"/>
<path d="M48.3435 44.4062C52.8743 46.7706 57.6907 46.5604 59.0993 43.9333C60.5079 41.3062 57.9763 37.2581 53.4455 34.8937C48.9147 32.5294 44.3622 30.3823 42.6898 35.3666C40.8721 40.7927 43.8128 42.0418 48.3435 44.4062ZM48.0023 38.4499C46.6663 38.4499 45.553 37.7477 45.5142 36.8879C45.4755 36.0282 46.0903 36.3697 47.4263 36.3721C48.7623 36.3745 50.3137 36.0353 50.3524 36.8975C50.3911 37.7573 49.3383 38.4522 48.0023 38.4499Z" fill="#161616"/>
<path d="M36.9163 35.3674C35.2463 30.3831 30.6937 32.5278 26.1605 34.8945C21.6298 37.2589 19.0981 41.307 20.5068 43.9341C21.9154 46.5612 26.7293 46.7737 31.2625 44.407C35.7933 42.0426 38.7363 40.7935 36.9163 35.3674ZM29.2512 36.8983C29.29 36.0385 30.8414 36.3776 32.1774 36.3729C33.5133 36.3705 34.1281 36.0289 34.0894 36.8887C34.0507 37.7485 32.9373 38.4483 31.6013 38.4506C30.2653 38.453 29.2125 37.7581 29.2512 36.8983Z" fill="#161616"/>
<path d="M39.6927 46.9886C41.8982 46.9886 43.6861 45.8124 43.6861 44.3615C43.6861 42.9106 41.8982 41.7344 39.6927 41.7344C37.4872 41.7344 35.6992 42.9106 35.6992 44.3615C35.6992 45.8124 37.4872 46.9886 39.6927 46.9886Z" fill="#161616"/>
<path d="M38.6374 45.2949C38.5599 45.4669 38.2235 45.5505 37.8895 45.4812C37.5555 45.412 37.3474 45.2185 37.4272 45.0466C37.5071 44.8746 37.8411 44.791 38.1751 44.8603C38.5091 44.9295 38.7172 45.123 38.6374 45.2949Z" fill="white"/>
<path d="M40.8179 45.2949C40.8953 45.4669 41.2317 45.5505 41.5657 45.4812C41.8997 45.412 42.1079 45.2185 42.028 45.0466C41.9481 44.8746 41.6141 44.791 41.2801 44.8603C40.9461 44.9295 40.738 45.123 40.8179 45.2949Z" fill="white"/>
<path d="M31.8625 40.5593C33.3636 40.5593 34.5805 39.3586 34.5805 37.8773C34.5805 36.3961 33.3636 35.1953 31.8625 35.1953C30.3614 35.1953 29.1445 36.3961 29.1445 37.8773C29.1445 39.3586 30.3614 40.5593 31.8625 40.5593Z" fill="white" stroke="#161616" stroke-width="0.23431" stroke-miterlimit="10"/>
<path d="M31.8626 39.7835C32.9279 39.7835 33.7915 38.9313 33.7915 37.88C33.7915 36.8288 32.9279 35.9766 31.8626 35.9766C30.7972 35.9766 29.9336 36.8288 29.9336 37.88C29.9336 38.9313 30.7972 39.7835 31.8626 39.7835Z" fill="#161616" stroke="#161616" stroke-width="0.23431" stroke-miterlimit="10"/>
<path d="M30.8092 37.9661C31.0511 37.9661 31.2472 37.7726 31.2472 37.5338C31.2472 37.2951 31.0511 37.1016 30.8092 37.1016C30.5672 37.1016 30.3711 37.2951 30.3711 37.5338C30.3711 37.7726 30.5672 37.9661 30.8092 37.9661Z" fill="white"/>
<path d="M47.8352 40.5593C49.3363 40.5593 50.5531 39.3586 50.5531 37.8773C50.5531 36.3961 49.3363 35.1953 47.8352 35.1953C46.3341 35.1953 45.1172 36.3961 45.1172 37.8773C45.1172 39.3586 46.3341 40.5593 47.8352 40.5593Z" fill="white" stroke="#101010" stroke-width="0.23431" stroke-miterlimit="10"/>
<path d="M47.8352 39.7835C48.9006 39.7835 49.7642 38.9313 49.7642 37.88C49.7642 36.8288 48.9006 35.9766 47.8352 35.9766C46.7699 35.9766 45.9062 36.8288 45.9062 37.88C45.9062 38.9313 46.7699 39.7835 47.8352 39.7835Z" fill="#161616" stroke="#161616" stroke-width="0.23431" stroke-miterlimit="10"/>
<path d="M46.7818 37.9661C47.0238 37.9661 47.2199 37.7726 47.2199 37.5338C47.2199 37.2951 47.0238 37.1016 46.7818 37.1016C46.5399 37.1016 46.3438 37.2951 46.3438 37.5338C46.3438 37.7726 46.5399 37.9661 46.7818 37.9661Z" fill="white"/>
</g>
<defs>
<filter id="filter0_d_3106_5041" x="-2" y="-2" width="84" height="84" filterUnits="userSpaceOnUse" color-interpolation-filters="sRGB">
<feFlood flood-opacity="0" result="BackgroundImageFix"/>
<feColorMatrix in="SourceAlpha" type="matrix" values="0 0 0 0 0 0 0 0 0 0 0 0 0 0 0 0 0 0 127 0" result="hardAlpha"/>
<feOffset/>
<feGaussianBlur stdDeviation="1"/>
<feComposite in2="hardAlpha" operator="out"/>
<feColorMatrix type="matrix" values="0 0 0 0 0.389974 0 0 0 0 0.386032 0 0 0 0 0.386032 0 0 0 1 0"/>
<feBlend mode="normal" in2="BackgroundImageFix" result="effect1_dropShadow_3106_5041"/>
<feBlend mode="normal" in="SourceGraphic" in2="effect1_dropShadow_3106_5041" result="shape"/>
</filter>
<filter id="filter1_d_3106_5041" x="3.74609" y="3.74609" width="72.5078" height="72.5078" filterUnits="userSpaceOnUse" color-interpolation-filters="sRGB">
<feFlood flood-opacity="0" result="BackgroundImageFix"/>
<feColorMatrix in="SourceAlpha" type="matrix" values="0 0 0 0 0 0 0 0 0 0 0 0 0 0 0 0 0 0 127 0" result="hardAlpha"/>
<feOffset/>
<feGaussianBlur stdDeviation="1"/>
<feComposite in2="hardAlpha" operator="out"/>
<feColorMatrix type="matrix" values="0 0 0 0 0.389974 0 0 0 0 0.386032 0 0 0 0 0.386032 0 0 0 1 0"/>
<feBlend mode="normal" in2="BackgroundImageFix" result="effect1_dropShadow_3106_5041"/>
<feBlend mode="normal" in="SourceGraphic" in2="effect1_dropShadow_3106_5041" result="shape"/>
</filter>
<filter id="filter2_d_3106_5041" x="9.49219" y="9.49219" width="61.0156" height="61.0156" filterUnits="userSpaceOnUse" color-interpolation-filters="sRGB">
<feFlood flood-opacity="0" result="BackgroundImageFix"/>
<feColorMatrix in="SourceAlpha" type="matrix" values="0 0 0 0 0 0 0 0 0 0 0 0 0 0 0 0 0 0 127 0" result="hardAlpha"/>
<feOffset/>
<feGaussianBlur stdDeviation="1"/>
<feComposite in2="hardAlpha" operator="out"/>
<feColorMatrix type="matrix" values="0 0 0 0 0.389974 0 0 0 0 0.386032 0 0 0 0 0.386032 0 0 0 1 0"/>
<feBlend mode="normal" in2="BackgroundImageFix" result="effect1_dropShadow_3106_5041"/>
<feBlend mode="normal" in="SourceGraphic" in2="effect1_dropShadow_3106_5041" result="shape"/>
</filter>
<clipPath id="clip0_3106_5041">
<rect width="40" height="39.0362" fill="white" transform="translate(20 20)"/>
</clipPath>
</defs>
</svg>
