<svg width="218" height="218" viewBox="0 0 218 218" fill="none" xmlns="http://www.w3.org/2000/svg">
<g filter="url(#filter0_d_3106_4868)">
<rect x="28" y="28" width="154" height="154" rx="77" fill="#E5E4E2" fill-opacity="0.65" shape-rendering="crispEdges"/>
</g>
<g filter="url(#filter1_d_3106_4868)">
<rect x="39.0586" y="39.0625" width="131.878" height="131.878" rx="65.9392" fill="#E5E4E2" fill-opacity="0.65" shape-rendering="crispEdges"/>
</g>
<g filter="url(#filter2_d_3106_4868)">
<rect x="50.1211" y="50.1172" width="109.757" height="109.757" rx="54.8785" fill="#E5E4E2"/>
</g>
<path d="M104.719 135.535C122.506 135.535 136.926 121.339 136.926 103.826C136.926 86.3139 122.506 72.1172 104.719 72.1172C86.9313 72.1172 72.5117 86.3139 72.5117 103.826C72.5117 121.339 86.9313 135.535 104.719 135.535Z" fill="#C7B299" stroke="#161616" stroke-width="0.23431" stroke-miterlimit="10"/>
<path d="M68.8398 106.611C68.8398 85.919 83.7471 68.8398 106.594 68.8398C127.939 68.8398 141.26 83.8066 141.26 102.561C141.26 123.248 126.352 140.332 103.685 140.332C82.2485 140.332 68.8442 125.365 68.8442 106.611H68.8398ZM104.035 134.869C122.645 134.869 134.555 120.519 134.555 102.911C134.555 98.4365 134.463 85.7878 125.082 80.8193C116.734 76.4019 107.199 81.3311 106.029 81.9609C104.092 80.8849 96.1435 76.7431 88.2955 79.7522C75.2637 84.7469 75.5485 104.468 75.5485 106.257C75.5485 122.282 86.3982 134.869 104.04 134.869H104.035Z" fill="#161616"/>
<path d="M89.6367 116.699C89.6367 117.41 96.0681 121.995 104.153 121.995C112.238 121.995 118.913 117.41 118.913 116.699C118.913 115.987 112.235 119.417 104.153 119.417C96.0681 119.417 89.6367 115.987 89.6367 116.699Z" fill="#161616"/>
<path d="M120.165 113.539C128.368 117.869 137.088 117.484 139.638 112.673C142.188 107.862 137.605 100.448 129.402 96.1184C121.199 91.7885 112.956 87.8565 109.929 96.9844C106.638 106.921 111.962 109.209 120.165 113.539Z" fill="#161616"/>
<path d="M99.4772 96.9858C96.4536 87.858 88.2113 91.7855 80.0039 96.1198C71.801 100.45 67.2175 107.863 69.7678 112.674C72.3181 117.485 81.0337 117.875 89.241 113.54C97.4439 109.21 102.772 106.923 99.4772 96.9858Z" fill="#161616"/>
<path d="M104.5 118.263C108.493 118.263 111.73 116.109 111.73 113.452C111.73 110.795 108.493 108.641 104.5 108.641C100.507 108.641 97.2695 110.795 97.2695 113.452C97.2695 116.109 100.507 118.263 104.5 118.263Z" fill="#161616"/>
<path d="M102.585 115.169C102.445 115.484 101.836 115.637 101.231 115.51C100.626 115.383 100.25 115.029 100.394 114.714C100.539 114.399 101.143 114.246 101.748 114.373C102.353 114.5 102.73 114.854 102.585 115.169Z" fill="white"/>
<path d="M106.531 115.169C106.671 115.484 107.28 115.637 107.885 115.51C108.489 115.383 108.866 115.029 108.722 114.714C108.577 114.399 107.972 114.246 107.368 114.373C106.763 114.5 106.386 114.854 106.531 115.169Z" fill="white"/>
<path d="M95.2356 101.58C95.2356 104.292 93.0316 106.491 90.3151 106.491C87.5985 106.491 85.3945 104.292 85.3945 101.58C85.3945 98.8686 87.3137 99.2359 90.0302 99.2359C92.7468 99.2359 95.2312 98.8642 95.2312 101.58H95.2356Z" fill="white" stroke="#161616" stroke-width="0.23431" stroke-miterlimit="10"/>
<path d="M90.3124 105.065C92.2411 105.065 93.8046 103.504 93.8046 101.579C93.8046 99.6543 92.2411 98.0938 90.3124 98.0938C88.3838 98.0938 86.8203 99.6543 86.8203 101.579C86.8203 103.504 88.3838 105.065 90.3124 105.065Z" fill="#161616" stroke="#161616" stroke-width="0.23431" stroke-miterlimit="10"/>
<path d="M88.4181 101.739C88.8561 101.739 89.2111 101.385 89.2111 100.948C89.2111 100.511 88.8561 100.156 88.4181 100.156C87.9801 100.156 87.625 100.511 87.625 100.948C87.625 101.385 87.9801 101.739 88.4181 101.739Z" fill="white"/>
<path d="M124.157 101.58C124.157 104.292 121.954 106.491 119.237 106.491C116.52 106.491 114.316 104.292 114.316 101.58C114.316 98.8686 116.52 99.2359 119.237 99.2359C121.954 99.2359 124.157 98.8642 124.157 101.58Z" fill="white" stroke="#101010" stroke-width="0.23431" stroke-miterlimit="10"/>
<path d="M119.238 105.065C121.167 105.065 122.73 103.504 122.73 101.579C122.73 99.6543 121.167 98.0938 119.238 98.0938C117.31 98.0938 115.746 99.6543 115.746 101.579C115.746 103.504 117.31 105.065 119.238 105.065Z" fill="#161616" stroke="#161616" stroke-width="0.23431" stroke-miterlimit="10"/>
<path d="M117.328 101.739C117.766 101.739 118.121 101.385 118.121 100.948C118.121 100.511 117.766 100.156 117.328 100.156C116.89 100.156 116.535 100.511 116.535 100.948C116.535 101.385 116.89 101.739 117.328 101.739Z" fill="white"/>
<defs>
<filter id="filter0_d_3106_4868" x="0" y="0" width="218" height="218" filterUnits="userSpaceOnUse" color-interpolation-filters="sRGB">
<feFlood flood-opacity="0" result="BackgroundImageFix"/>
<feColorMatrix in="SourceAlpha" type="matrix" values="0 0 0 0 0 0 0 0 0 0 0 0 0 0 0 0 0 0 127 0" result="hardAlpha"/>
<feMorphology radius="18" operator="dilate" in="SourceAlpha" result="effect1_dropShadow_3106_4868"/>
<feOffset dx="4" dy="4"/>
<feGaussianBlur stdDeviation="7"/>
<feComposite in2="hardAlpha" operator="out"/>
<feColorMatrix type="matrix" values="0 0 0 0 0.425978 0 0 0 0 0.42359 0 0 0 0 0.497607 0 0 0 0.25 0"/>
<feBlend mode="normal" in2="BackgroundImageFix" result="effect1_dropShadow_3106_4868"/>
<feBlend mode="normal" in="SourceGraphic" in2="effect1_dropShadow_3106_4868" result="shape"/>
</filter>
<filter id="filter1_d_3106_4868" x="11.0586" y="11.0625" width="195.879" height="195.879" filterUnits="userSpaceOnUse" color-interpolation-filters="sRGB">
<feFlood flood-opacity="0" result="BackgroundImageFix"/>
<feColorMatrix in="SourceAlpha" type="matrix" values="0 0 0 0 0 0 0 0 0 0 0 0 0 0 0 0 0 0 127 0" result="hardAlpha"/>
<feMorphology radius="18" operator="dilate" in="SourceAlpha" result="effect1_dropShadow_3106_4868"/>
<feOffset dx="4" dy="4"/>
<feGaussianBlur stdDeviation="7"/>
<feComposite in2="hardAlpha" operator="out"/>
<feColorMatrix type="matrix" values="0 0 0 0 0.425978 0 0 0 0 0.42359 0 0 0 0 0.497607 0 0 0 0.25 0"/>
<feBlend mode="normal" in2="BackgroundImageFix" result="effect1_dropShadow_3106_4868"/>
<feBlend mode="normal" in="SourceGraphic" in2="effect1_dropShadow_3106_4868" result="shape"/>
</filter>
<filter id="filter2_d_3106_4868" x="22.1211" y="22.1172" width="173.758" height="173.758" filterUnits="userSpaceOnUse" color-interpolation-filters="sRGB">
<feFlood flood-opacity="0" result="BackgroundImageFix"/>
<feColorMatrix in="SourceAlpha" type="matrix" values="0 0 0 0 0 0 0 0 0 0 0 0 0 0 0 0 0 0 127 0" result="hardAlpha"/>
<feMorphology radius="18" operator="dilate" in="SourceAlpha" result="effect1_dropShadow_3106_4868"/>
<feOffset dx="4" dy="4"/>
<feGaussianBlur stdDeviation="7"/>
<feComposite in2="hardAlpha" operator="out"/>
<feColorMatrix type="matrix" values="0 0 0 0 0.425978 0 0 0 0 0.42359 0 0 0 0 0.497607 0 0 0 0.25 0"/>
<feBlend mode="normal" in2="BackgroundImageFix" result="effect1_dropShadow_3106_4868"/>
<feBlend mode="normal" in="SourceGraphic" in2="effect1_dropShadow_3106_4868" result="shape"/>
</filter>
</defs>
</svg>
